<?xml version="1.0" encoding="utf-8"?>
<svg width="169" height="150" viewBox="0 0 169 150" fill="none" xmlns="http://www.w3.org/2000/svg">
  <g id="Group">
    <path
      id="Vector"
      d="M167.821 147.02C165.761 147.07 163.691 147.35 161.631 147.52C159.561 147.69 157.501 147.84 155.431 147.95C153.361 148.07 151.291 148.16 149.221 148.23C147.471 148.29 145.241 148.66 143.711 147.61C142.561 146.82 141.951 145.45 141.351 144.25C140.701 142.96 140.011 141.72 138.871 140.8C136.131 138.61 132.431 138.69 129.131 139.09C126.941 139.35 124.781 139.64 122.571 139.66C120.361 139.69 118.161 139.52 115.981 139.18C113.821 138.45 112.931 136.15 112.521 134.07C111.961 131.23 112.081 128.21 112.011 125.33C111.841 118.55 111.901 111.77 112.011 104.99C112.231 91.3598 112.531 77.7298 112.791 64.0998C112.921 57.1998 113.061 50.2998 113.191 43.4098C113.341 43.2498 113.501 43.0998 113.661 42.9798C114.681 43.9098 115.051 45.6998 115.161 46.9898C115.281 48.3298 115.191 49.6898 115.161 51.0298C115.131 52.6498 115.111 54.2798 115.081 55.8998C114.971 62.4498 114.881 68.9898 114.771 75.5398C114.561 88.6298 114.341 101.73 114.131 114.82C114.011 122.14 113.881 129.47 113.821 136.79C113.611 136.92 113.661 137.34 113.971 137.33C113.991 137.33 114.001 137.33 114.021 137.33C114.071 137.42 114.171 137.49 114.311 137.5C114.461 137.51 114.611 137.51 114.761 137.5C114.831 137.56 114.921 137.61 115.041 137.61C117.911 137.61 120.791 137.59 123.661 137.58C126.061 137.57 128.511 137.66 130.921 137.52C131.421 137.74 132.011 137.74 132.481 137.42C132.701 137.27 132.881 137.07 133.001 136.84C133.061 136.82 133.121 136.8 133.181 136.78C133.181 136.63 133.181 136.49 133.181 136.34C133.211 136.19 133.211 136.06 133.181 135.94C133.401 123.99 133.541 112.04 133.721 100.09C133.911 87.6498 134.111 75.2198 134.311 62.7898C134.421 55.8198 134.541 48.8398 134.621 41.8698C134.441 41.6398 134.291 41.3698 134.181 41.0898C130.201 41.1998 126.221 41.2998 122.231 41.4098C120.211 41.4598 118.181 41.4898 116.151 41.5898C115.291 41.6298 114.481 41.7798 113.821 42.1598C113.771 42.1198 113.711 42.0898 113.661 42.0498C113.331 42.0998 113.011 42.1798 112.701 42.2898C112.621 42.3498 112.541 42.4198 112.461 42.4798C112.401 45.4098 112.351 48.3498 112.291 51.2798C112.341 48.3498 112.391 45.4198 112.441 42.4898C111.971 42.9098 111.671 43.4098 111.651 44.1498C111.651 44.1898 111.651 44.2298 111.631 44.2698C111.511 50.6898 111.381 57.1198 111.261 63.5398C105.091 63.7398 98.9213 63.9498 92.7513 64.1498C92.6113 64.1498 92.5013 64.2198 92.4313 64.3098C92.3013 64.2898 92.1813 64.2798 92.0513 64.2698C91.9613 64.2198 91.8413 64.2198 91.7813 64.3098C91.5913 64.4198 91.5513 64.7098 91.6913 64.8698C91.5213 66.3298 91.5213 67.8197 91.5213 69.2998C88.9913 71.8398 87.6713 75.3798 87.0513 78.9498C86.6413 81.3598 86.4813 83.7998 86.4113 86.2398C86.4113 86.4798 86.4013 86.7198 86.3913 86.9598C85.9513 85.6798 84.6613 85.1198 83.3813 85.0098C81.5313 84.8498 79.6013 85.0298 77.7413 85.0698C76.6113 85.0898 75.4713 85.1198 74.3413 85.1398C73.3413 85.1598 72.2913 85.0998 71.3013 85.2498C70.5413 85.3598 69.8313 85.6998 69.4913 86.4098C69.3713 86.6598 69.3113 86.9198 69.3313 87.1598C69.2213 87.1998 69.1313 87.2998 69.1113 87.4598C69.0513 87.9198 69.0213 88.3897 69.0113 88.8597C67.9513 89.9297 67.7413 91.6298 67.8613 93.0798C67.9513 94.1497 68.2413 95.1798 68.4413 96.2398C68.5713 96.9198 68.6713 97.6097 68.6413 98.2998C68.6213 98.9498 68.4113 99.5398 68.2913 100.17C67.4713 100.44 66.6013 100.52 65.7013 100.54C63.9613 100.57 62.2213 100.41 60.4813 100.33C58.6213 100.25 56.7613 100.17 54.9013 100.09C54.3113 100.06 53.7113 100.03 53.1213 99.9998C53.0613 100.02 53.0013 100.04 52.9313 100.04C51.7313 100.04 50.5313 99.9197 49.3413 99.8597C49.2513 99.8897 49.1613 99.9198 49.0813 99.9498C49.0713 99.9098 49.0513 99.8798 49.0313 99.8498C48.9113 99.8498 48.7913 99.8498 48.6713 99.8398C48.6713 99.8598 48.6613 99.8698 48.6513 99.8898C48.1413 100.38 47.7613 101.07 47.3613 101.66C47.1513 101.96 46.9413 102.26 46.7313 102.56C46.4613 102.96 46.4613 103.14 46.2813 103.58C46.2613 103.64 46.3413 103.67 46.3713 103.63C46.3713 103.7 46.4013 103.76 46.4513 103.81C46.4513 103.81 46.4513 103.82 46.4513 103.83C46.5413 103.84 46.6313 103.86 46.7213 103.87C46.7513 103.9 46.7813 103.94 46.8113 103.97C47.7913 103.85 48.7313 103.99 49.6413 104.3C52.1213 104.3 54.5913 104.3 57.0713 104.29C57.8713 104.29 58.6713 104.29 59.4713 104.29C60.3113 104.29 61.2013 104.29 61.9213 104.77C62.9013 105.42 63.2813 106.65 63.4513 107.76C63.6613 109.13 63.5813 110.55 63.5713 111.93C63.5613 113.69 63.5513 115.44 63.5413 117.2C63.5213 120.67 63.5113 124.13 63.4913 127.6L63.4413 138.89C57.9913 139.06 52.5413 139.21 47.0913 139.39C47.0113 139.37 46.9313 139.35 46.8513 139.33C46.8513 139.09 46.8513 138.82 46.8313 138.56C46.8913 138.1 46.8613 137.62 46.8713 137.16C46.8813 136.35 46.8913 135.53 46.8913 134.72C46.8913 133.14 46.8813 131.56 46.8713 129.99C46.8513 126.83 46.8313 123.68 46.8113 120.52C46.8013 118.29 46.9813 115.56 45.0313 114.02C43.1813 112.55 40.4613 112.9 38.2613 112.94C36.5713 112.97 34.8813 113.01 33.2013 113.04C32.3613 113.06 31.5113 113.08 30.6713 113.1C29.8813 113.12 29.0213 113.04 28.2413 113.23C28.1813 113.11 27.9913 113.07 27.8813 113.21C27.1813 114.16 26.5413 115.15 25.9113 116.15C25.6113 116.63 25.3113 117.1 25.0013 117.58C24.8013 117.9 24.5513 118.22 24.3913 118.56C24.0913 118.71 23.7713 118.85 23.5413 119.09C23.5313 119.1 23.5213 119.11 23.5113 119.12C23.0613 119.07 22.6113 119.02 22.1713 118.95C22.1713 118.95 22.1713 118.95 22.1613 118.95C22.1613 118.91 22.1613 118.88 22.1613 118.84C21.5413 118.84 20.9113 118.68 20.3213 118.41C20.1213 118.38 19.9213 118.34 19.7213 118.31C17.0913 116.99 14.3213 115.94 11.7613 114.46C9.03132 112.88 6.5113 110.9 4.6513 108.33C2.8713 105.87 1.68132 102.91 1.79132 99.8398C1.89132 96.8898 3.41132 93.7497 6.48132 93.0498C6.34132 95.1298 7.3213 97.3198 9.0213 98.4998C9.0913 98.5498 9.16132 98.5898 9.23132 98.6298C10.2213 99.2498 11.5513 98.7898 11.8413 97.7498C11.8913 97.7498 11.9513 97.7798 11.9913 97.7998C12.6013 95.8398 11.6113 93.4597 9.67132 92.5798C8.92132 92.2398 8.14131 92.0998 7.38131 92.1298C7.42131 91.9798 7.47131 91.8398 7.53131 91.6898C8.85131 88.3698 13.1713 88.0998 16.2013 87.9198C18.0213 87.8098 19.8313 87.6898 21.6213 87.3298C23.7413 86.9098 25.8213 86.2598 27.8313 85.4798C30.9613 84.2698 33.9913 82.7898 36.9513 81.1998C36.9413 81.2598 37.0113 81.3398 37.0813 81.2998C39.1313 80.3897 41.0813 79.1798 42.9913 78.0098C44.9513 76.8098 46.8613 75.5398 48.7413 74.2098C52.4913 71.5598 56.0713 68.6697 59.4613 65.5798C63.7713 61.6497 67.7813 57.3698 71.4313 52.8098C71.5313 52.6898 71.6313 52.5698 71.7313 52.4498C76.9313 46.0398 81.4413 39.0898 85.1713 31.7198C85.3613 31.3398 84.8513 30.9998 84.6013 31.2698C84.6213 31.2098 84.6313 31.1397 84.6513 31.0798C84.5813 31.0798 84.5213 31.1198 84.4713 31.1898C84.0813 31.0598 83.6813 30.9298 83.2813 30.7998C80.7113 29.8798 78.0913 29.0698 75.4813 28.2698C75.0813 28.1398 74.6813 28.0098 74.2713 27.8798C75.7713 26.6098 77.2713 25.3398 78.7713 24.0598C85.7013 18.8498 92.3813 13.2998 98.7813 7.43977C100.191 6.13977 101.591 4.82976 102.981 3.49976C103.731 2.85976 104.491 2.21977 105.241 1.57977C105.291 1.76977 105.341 1.95976 105.401 2.14976C105.471 2.38976 105.521 2.65977 105.701 2.82977C105.711 2.83977 105.731 2.84976 105.751 2.85976C108.791 11.6398 110.121 20.9998 109.641 30.2798C109.501 32.9698 109.201 35.6598 108.761 38.3198C105.301 37.6298 101.851 36.8898 98.3813 36.2798C98.2913 36.2998 98.1913 36.3097 98.0813 36.2998C98.0513 36.2998 98.0213 36.2898 97.9913 36.2798C98.0213 36.1098 97.8013 36.0098 97.6613 36.0798C97.4213 36.1997 97.2713 36.4198 97.1013 36.6097C96.9213 36.8097 96.7813 37.0098 96.6313 37.2198C96.5813 37.2898 96.5913 37.3598 96.6313 37.4098C91.1613 46.0298 84.4213 53.7898 76.7113 60.4798C68.8013 67.3498 59.9113 73.0698 50.3613 77.3798C47.0313 78.8798 43.6213 80.1898 40.1613 81.3498C43.7713 79.8598 47.2713 77.9997 50.6513 76.1097C54.7913 73.7897 58.8013 71.2398 62.6613 68.4798C70.3313 62.9698 77.3913 56.6098 83.6513 49.5398C87.1513 45.5898 90.3913 41.4198 93.3513 37.0498C93.5813 36.6998 93.0313 36.3798 92.7913 36.7198C87.4813 44.4698 81.3313 51.6198 74.4413 57.9998C67.5513 64.3798 59.9613 69.9898 51.8313 74.6798C49.5913 75.9698 47.3113 77.1898 45.0013 78.3498C42.6213 79.5398 40.1713 80.5798 37.7813 81.7298C37.7013 81.7698 37.6613 81.8498 37.6613 81.9198C37.5913 81.9098 37.5213 81.8998 37.4513 81.8898C37.2213 81.8698 37.1613 82.1298 37.2713 82.2798C37.1713 82.3098 37.0813 82.3398 36.9813 82.3698C37.0413 82.3998 37.1113 82.4298 37.1713 82.4598C37.3913 82.5698 37.6113 82.6898 37.8313 82.8198C45.3913 80.6398 52.6913 77.4398 59.5313 73.5498C61.6313 72.3798 63.6813 71.1298 65.6913 69.8198C70.0313 66.9898 74.1613 63.8398 78.0513 60.4098C81.8913 57.0198 85.4813 53.3498 88.7913 49.4398C92.1213 45.5098 95.1613 41.3298 97.8613 36.9398C97.9113 36.8598 97.9613 36.7798 98.0113 36.6998C101.641 37.5098 105.311 38.1698 108.951 38.8798C109.101 38.9098 109.221 38.7798 109.241 38.6498C110.921 28.7298 110.521 18.4798 108.061 8.71976C107.381 6.01976 106.541 3.35976 105.561 0.749764C105.501 0.599764 105.271 0.529758 105.151 0.649758C104.661 1.12976 104.161 1.61977 103.671 2.09977C95.9113 8.67977 88.1413 15.2598 80.3813 21.8398C79.2213 22.8198 78.0713 23.7998 76.9113 24.7798C75.6313 25.7298 74.3413 26.6698 73.0413 27.5898C72.8813 27.6998 72.9213 27.9898 73.1113 28.0498C73.1713 28.0698 73.2413 28.0898 73.3013 28.1098C73.3413 28.2098 73.4213 28.2898 73.5213 28.3198C77.0113 29.3998 80.4913 30.5398 84.0413 31.4298C84.1313 31.4598 84.2213 31.4798 84.3113 31.5098C83.0213 34.0898 81.6813 36.6398 80.2413 39.1398C77.8313 43.1198 75.1713 46.9597 72.2813 50.6097C67.6013 56.5197 62.3213 61.9697 56.5913 66.8597C50.7913 71.8097 44.4913 76.1698 37.8213 79.8498C34.2313 81.8298 30.5313 83.6998 26.6713 85.0898C24.6413 85.8198 22.5513 86.4098 20.4113 86.7598C18.5413 87.0598 16.6413 87.0798 14.7513 87.2398C11.7913 87.4898 8.20132 88.2197 6.89132 91.2698C6.76132 91.5698 6.66131 91.8798 6.59131 92.1998C4.62131 92.5798 2.8413 94.0398 1.9613 95.8798C-1.1587 102.43 3.68132 109.67 8.89132 113.41C11.2913 115.13 13.9913 116.57 16.7913 117.66C16.7913 117.68 16.8013 117.7 16.8113 117.72C17.0913 118.13 17.6213 118.24 18.0613 118.43C18.3613 118.56 18.6613 118.68 18.9613 118.8C18.9413 118.87 18.9313 118.94 18.9113 119.01C19.1713 119.1 19.4513 119.16 19.7013 119.24C19.7313 119.35 19.8313 119.45 19.9813 119.45C20.0913 119.45 20.2013 119.45 20.3113 119.45C20.5013 119.52 20.6813 119.58 20.8713 119.64C20.8713 119.66 20.8613 119.69 20.8513 119.71C21.7513 119.88 22.6713 120.02 23.5813 120.11C23.4713 121.32 23.5813 122.6 23.5813 123.79C23.5813 125.51 23.5813 127.23 23.6113 128.95C23.6513 132.34 23.6813 135.73 23.7213 139.13C23.7213 139.33 23.8913 139.5 24.0913 139.5C26.7713 139.53 29.4513 139.55 32.1213 139.58C33.5113 139.6 34.8913 139.61 36.2813 139.63C37.3813 139.64 38.5213 139.73 39.6213 139.54C40.5013 139.39 41.1213 138.99 41.5513 138.44C41.8813 138.61 42.2513 138.73 42.6813 138.76C43.5013 138.82 44.2613 138.45 44.6213 137.7C44.8313 137.26 44.8813 136.77 44.7113 136.35C44.8013 135.79 44.8313 135.21 44.8913 134.66C44.9913 133.74 45.0713 132.81 45.1413 131.89C45.2713 129.99 45.3313 128.09 45.3013 126.19C45.2713 124.33 45.1613 122.48 44.9813 120.63C44.9013 119.77 44.8013 118.91 44.6513 118.06C44.5213 117.28 44.5213 116.28 44.1313 115.56C44.3313 115.31 44.5413 115.06 44.7313 114.8C44.7413 114.78 44.7513 114.77 44.7613 114.75C46.3013 116.17 46.0613 118.82 46.0813 120.78C46.1113 123.65 46.1413 126.52 46.1613 129.39C46.1813 131.06 46.1813 132.74 46.2213 134.41C46.2413 135.22 46.2513 136.04 46.2813 136.85C46.2813 137.2 46.2813 137.58 46.2813 137.95C46.0713 138.42 46.1513 139.1 46.1613 139.58C46.1613 139.71 46.2413 139.83 46.3513 139.88C46.3713 140.07 46.5113 140.25 46.7613 140.24C52.4513 140.07 58.1413 139.86 63.8413 139.68C64.0613 139.68 64.2513 139.5 64.2513 139.27C64.2813 131.86 64.3213 124.45 64.3513 117.05C64.3513 115.25 64.3613 113.44 64.3713 111.64C64.3713 110.24 64.4313 108.84 64.1913 107.45C64.0113 106.37 63.6213 105.24 62.8013 104.48C61.8013 103.55 60.4913 103.53 59.1913 103.54C55.3113 103.57 51.4213 103.6 47.5413 103.64C47.6013 103.52 47.6613 103.41 47.7113 103.29C47.8313 103.04 48.0513 102.69 48.0113 102.39C48.2613 101.93 48.5013 101.48 48.7413 101.01C48.8613 100.96 48.9813 100.91 49.1013 100.86C49.7613 101.13 50.6913 100.88 51.3513 100.86C51.4413 100.86 51.5513 100.81 51.5913 100.72C51.6213 100.71 51.6513 100.7 51.6813 100.68C51.7213 100.7 51.7513 100.73 51.7913 100.76C51.8413 100.8 51.8813 100.85 51.9013 100.89C53.0113 100.93 54.1213 100.95 55.2213 100.99C57.2713 101.07 59.3213 101.17 61.3713 101.24C63.0913 101.3 64.8713 101.49 66.5913 101.3C67.4713 101.2 68.3413 100.98 69.0613 100.52V107.95C69.0813 114.73 69.0813 121.51 69.0913 128.29C69.0913 132.16 69.0913 136.02 69.1113 139.89C69.1113 140.11 69.3013 140.32 69.5313 140.31C74.8713 140.09 80.2613 140.03 85.5813 139.53C85.8013 139.51 85.8913 139.29 85.8213 139.14C85.9213 139.09 86.0113 138.99 86.0113 138.84C86.3113 125.88 86.6213 112.91 86.9213 99.9498C86.9913 96.7398 87.0713 93.5397 87.1413 90.3298C87.2013 87.6598 87.2113 84.9798 87.4413 82.3198C87.8013 78.1498 88.7113 73.6398 91.5413 70.4198C91.5413 70.7698 91.5413 71.1198 91.5413 71.4698C91.5113 73.9498 91.4813 76.4398 91.4513 78.9198C91.3913 83.7898 91.3313 88.6598 91.2713 93.5398C91.1513 103.33 91.0413 113.12 90.9213 122.92C90.8613 128.37 90.7813 133.82 90.7413 139.27C90.6513 139.38 90.6613 139.54 90.7513 139.65C90.8213 139.89 91.1513 139.93 91.3113 139.77C95.0013 140.06 98.7413 139.99 102.431 140.07C103.391 140.09 104.341 140.11 105.301 140.13C106.061 140.15 106.831 140.18 107.571 139.99C108.801 139.68 109.791 138.64 109.571 137.32C109.631 136.66 109.471 135.91 109.421 135.31C109.381 134.73 109.421 133.99 109.291 133.37C109.551 116.02 109.471 98.6498 109.521 81.2898C109.531 77.8398 109.551 74.3798 109.561 70.9298C109.561 70.9298 109.561 70.9198 109.561 70.9098C109.691 70.8598 109.791 70.7298 109.741 70.5498C109.701 70.3798 109.651 70.2098 109.611 70.0398C109.851 69.2798 109.841 68.4498 109.561 67.6698C109.561 67.5598 109.561 67.4598 109.561 67.3498L109.331 67.1598C108.751 66.1198 107.581 65.2398 106.381 65.2898C106.371 65.2898 106.361 65.2898 106.351 65.2898C106.151 65.2498 105.961 65.2398 105.781 65.2898C101.761 64.9998 97.5313 65.3298 94.0813 67.2998C93.4213 67.6698 92.8213 68.0998 92.2713 68.5698C92.2713 67.3598 92.3313 66.1298 92.2413 64.9298C92.3313 64.9198 92.4113 64.9098 92.5013 64.8998C92.5613 64.9498 92.6513 64.9798 92.7513 64.9698C99.0513 64.7498 105.351 64.5298 111.651 64.3098C111.821 64.3098 111.971 64.1998 112.031 64.0398L111.661 83.1498C111.391 97.0898 110.921 111.06 111.251 125C111.321 128.18 111.191 131.55 111.931 134.67C112.381 136.56 113.311 138.45 115.051 139.31C115.041 139.33 115.031 139.35 115.021 139.37C115.511 139.54 116.001 139.76 116.451 140.05C120.061 140.54 123.701 140.54 127.331 140.08C130.901 139.62 135.071 138.91 138.191 141.24C140.531 142.99 140.771 146.32 143.081 148.08C144.451 149.12 146.161 149.04 147.791 149C149.861 148.94 151.931 148.86 154.001 148.74C156.351 148.61 158.701 148.44 161.051 148.25C163.321 148.06 165.631 147.92 167.871 147.48C168.151 147.42 168.091 146.97 167.801 146.98L167.821 147.02ZM117.791 42.1998C119.661 42.1598 121.521 42.1198 123.391 42.0798C126.941 41.9997 130.491 41.9098 134.041 41.8298C134.041 41.8298 134.041 41.8498 134.041 41.8597C133.791 54.2897 133.621 66.7298 133.421 79.1598C133.221 91.5998 133.021 104.03 132.811 116.46C132.701 123.14 132.561 129.81 132.471 136.49C132.411 136.64 132.321 136.77 132.201 136.88C131.651 136.83 131.111 136.79 130.551 136.77C130.511 136.75 130.461 136.75 130.421 136.77C128.171 136.68 125.901 136.77 123.671 136.77C120.801 136.77 117.921 136.77 115.051 136.77C114.981 136.77 114.911 136.79 114.861 136.81C114.711 136.81 114.561 136.79 114.411 136.78C114.751 123.25 114.921 109.72 115.151 96.1998C115.381 82.7198 115.621 69.2498 115.851 55.7698C115.881 53.8598 115.921 51.9498 115.951 50.0398C115.971 48.6498 116.031 47.2798 115.791 45.8998C115.591 44.7298 115.151 43.4597 114.351 42.6097C115.391 42.1797 116.641 42.2198 117.811 42.1998H117.791ZM7.2413 92.9398C8.6413 92.8398 10.0713 93.3898 10.8113 94.6498C11.3313 95.5298 11.5113 96.6298 11.2013 97.5798C11.2113 97.5798 11.2213 97.5798 11.2313 97.5698C10.9613 98.1198 10.3313 98.4298 9.75131 98.1298C8.11131 96.9198 7.0013 94.9698 7.2413 92.9398ZM39.6413 138.78C38.5713 139.02 37.3913 138.9 36.3013 138.89L32.5713 138.86C29.8713 138.84 27.1713 138.82 24.4713 138.79C24.4313 135.52 24.3913 132.25 24.3613 128.98C24.3413 127.31 24.3113 125.64 24.2813 123.96C24.2613 122.74 24.3413 121.44 24.2113 120.19C28.8613 120.59 33.6413 120.11 38.1713 119.44C38.4813 119.39 38.7813 119.35 39.0913 119.3C38.6213 121.37 38.5313 123.59 38.5013 125.68C38.4713 128.44 38.7213 131.21 39.2513 133.92C39.5113 135.27 39.9113 137.01 40.9413 138.01C40.6513 138.37 40.2313 138.64 39.6413 138.77V138.78ZM41.3413 137.31C41.1113 137.07 40.9313 136.79 40.7913 136.52C40.3513 135.66 40.1813 134.67 40.0013 133.73C39.7813 132.6 39.6113 131.47 39.4913 130.33C39.2813 128.25 39.2213 126.15 39.3313 124.06C39.4213 122.43 39.6813 120.81 39.8713 119.2C39.9313 119.2 39.9813 119.18 40.0413 119.17C40.3213 119.13 40.6513 119.14 40.9013 119C41.0913 123.77 41.2813 128.54 41.4813 133.32C41.5313 134.51 41.7713 136.12 41.3413 137.3V137.31ZM40.5013 118.11C40.5013 118.19 40.4913 118.27 40.4813 118.34C40.4013 118.34 40.3113 118.36 40.2313 118.37C40.2013 118.24 40.3713 118.12 40.5013 118.11ZM44.3213 120.8C44.4813 122.6 44.5713 124.41 44.5913 126.22C44.6113 128.03 44.5713 129.84 44.4513 131.65C44.3913 132.58 44.3113 133.5 44.2113 134.42C44.1113 135.33 43.9013 136.27 43.9013 137.18C43.8813 137.33 43.9713 137.43 44.0813 137.47C43.8813 137.76 43.5913 137.98 43.2213 138.05C42.7713 138.14 42.3413 138.03 41.9613 137.81C42.2513 137.16 42.3713 136.39 42.3613 135.58C42.3413 132.92 42.1613 130.24 42.0513 127.58C41.9313 124.52 41.8113 121.46 41.6813 118.4C41.6813 118.38 41.6813 118.35 41.6813 118.33C41.9513 118.04 42.2813 117.81 42.5513 117.51C42.8113 117.2 43.0713 116.89 43.3313 116.58C43.4813 116.4 43.6313 116.21 43.7913 116.03C43.7913 116.69 43.9913 117.4 44.0513 118.03C44.1413 118.95 44.2413 119.87 44.3213 120.8ZM44.2413 114.44C43.7113 115.06 43.2213 115.71 42.7213 116.34C42.5013 116.62 42.2713 116.91 42.0513 117.19C41.8413 117.47 41.7113 117.79 41.5213 118.08C41.4413 118.03 41.3413 118 41.2413 118.01C41.1913 117.84 41.0913 117.68 40.9713 117.57C40.6313 117.26 40.2713 117.28 40.0113 117.47C39.9413 117.32 39.6813 117.34 39.6113 117.52C39.4913 117.83 39.3913 118.15 39.2913 118.48C39.1913 118.49 39.0913 118.5 38.9913 118.51C38.1313 118.61 37.2713 118.7 36.4113 118.8C34.8713 118.97 33.3313 119.12 31.7813 119.22C29.4013 119.38 27.0013 119.43 24.6213 119.24C24.9913 118.95 25.1813 118.57 25.4213 118.16C25.7413 117.64 26.0613 117.12 26.3813 116.6C26.9413 115.68 27.5013 114.77 28.0113 113.82C28.0213 113.82 28.0413 113.84 28.0513 113.84C28.6713 114.01 29.3113 113.94 29.9613 113.93L32.2113 113.88C33.6213 113.85 35.0213 113.82 36.4313 113.79C37.8113 113.76 39.2013 113.7 40.5813 113.7C41.6813 113.7 42.8613 113.75 43.8813 114.21C44.0213 114.27 44.1413 114.34 44.2613 114.41C44.2513 114.41 44.2413 114.43 44.2313 114.44H44.2413ZM47.7113 102.34C47.5913 102.42 47.5013 102.55 47.4113 102.68C47.4113 102.66 47.4213 102.63 47.4313 102.61C47.5413 102.46 47.6513 102.3 47.7613 102.15C47.7413 102.22 47.7313 102.28 47.7113 102.35V102.34ZM68.7313 91.5898C68.7813 91.1898 68.8713 90.7798 69.0313 90.3998C69.0313 91.1598 69.0613 91.9098 69.0613 92.6598V95.0698C68.8213 93.9198 68.5813 92.7798 68.7313 91.5898ZM69.8813 88.0398C70.0113 88.0198 70.1113 87.8698 70.0413 87.7298C69.6013 86.8798 70.3813 86.1698 71.1613 85.9898C71.9613 85.8098 72.8513 85.8798 73.6613 85.8698C75.3113 85.8498 76.9713 85.8197 78.6213 85.7998C80.1313 85.7798 81.6713 85.6598 83.1813 85.7598C83.9313 85.8098 84.7813 85.9697 85.3113 86.5498C85.7513 87.0298 85.9413 87.6998 85.6513 88.2698C82.7613 88.1898 79.8813 88.0998 76.9913 88.0098C75.5613 87.9698 74.1313 87.9198 72.7013 87.8898C71.7513 87.8698 70.7613 87.8698 69.9013 88.2898C69.9013 88.2098 69.8913 88.1298 69.8813 88.0498V88.0398ZM86.2313 96.0898C86.0913 102.79 85.9413 109.48 85.8113 116.18C85.6613 123.74 85.5013 131.3 85.3313 138.86C85.3313 138.91 85.3313 138.96 85.3513 139C80.2313 138.94 75.0813 139.27 69.9613 139.48C69.9613 126.25 69.9413 113.03 69.9313 99.7998C69.9813 99.7398 70.0313 99.6697 70.0813 99.6097C70.1513 99.5098 70.0313 99.3698 69.9313 99.3898C69.9313 99.2898 69.9313 99.1998 69.9313 99.0998C69.9313 97.1898 69.9313 95.2798 69.9313 93.3698C69.9313 91.9998 70.0013 90.5898 69.9613 89.1998C70.5413 88.7998 71.2513 88.6998 71.9713 88.6798C73.9313 88.6398 75.9013 88.7698 77.8613 88.8198C79.9613 88.8698 82.0613 88.9198 84.1613 88.9798C84.7213 88.9898 85.8013 89.2598 86.2013 88.8398C86.2813 88.7598 86.3413 88.6598 86.3913 88.5598C86.3313 91.0698 86.2813 93.5898 86.2313 96.0998V96.0898ZM109.081 67.7198C109.081 67.7198 109.081 67.7198 109.081 67.7298C109.071 67.7498 109.051 67.7698 109.031 67.7798C109.001 67.6898 108.981 67.5898 108.951 67.4998C108.991 67.5698 109.031 67.6398 109.071 67.7198H109.081ZM92.2813 69.6898C92.3713 69.5998 92.4713 69.5098 92.5713 69.4298C96.4013 66.0198 101.501 65.9998 106.371 66.1698C106.531 66.2798 106.721 66.2897 106.921 66.3597C107.221 66.4597 107.501 66.6398 107.731 66.8698C107.991 67.1198 108.181 67.4298 108.281 67.7598C108.361 67.8398 108.431 67.9198 108.501 68.0098C108.611 68.4698 108.731 68.9298 108.841 69.3898C108.841 69.5798 108.811 69.7798 108.781 69.9698C108.801 69.9798 108.811 69.9898 108.831 69.9998C108.831 70.2998 108.831 70.6098 108.831 70.9098C108.781 70.9898 108.731 71.0698 108.671 71.1498C108.581 71.2698 108.701 71.4298 108.831 71.4498C108.701 88.3098 108.751 105.17 108.711 122.03C108.701 127.28 108.711 132.54 108.781 137.79C108.781 137.87 108.821 137.93 108.871 137.97C108.761 139.45 106.281 139.4 105.201 139.38L100.461 139.29C97.4613 139.24 94.4413 139.08 91.4513 139.19C91.6313 129.58 91.7013 119.96 91.8213 110.34C91.9413 100.55 92.0613 90.7598 92.1813 80.9598C92.2113 78.2398 92.2413 75.5098 92.2713 72.7898C92.2813 71.7598 92.3013 70.7198 92.3113 69.6898H92.2813Z"
      fill="#69A6C2"
      stroke="#69A6C2"
      stroke-miterlimit="10" />
  </g>
</svg>
