<svg width="183" height="73" viewBox="0 0 183 73" fill="none" xmlns="http://www.w3.org/2000/svg">
  <path d="M0.5 3.84199C0.5 2.20175 1.82968 0.87207 3.46992 0.87207H156.022C156.993 0.87207 157.902 1.34621 158.457 2.14194L181.471 35.1081C182.184 36.1293 182.184 37.4869 181.471 38.5081L158.457 71.4743C157.902 72.27 156.993 72.7441 156.022 72.7441H3.46991C1.82967 72.7441 0.5 71.4145 0.5 69.7742V3.84199Z" fill="#7BB0DA" />
  <path d="M16.3798 50.3076V23.5566H26.2218C28.1705 23.5566 29.9156 23.8958 31.4573 24.5741C32.999 25.2401 34.2138 26.2268 35.1018 27.5341C36.0021 28.8415 36.4523 30.4386 36.4523 32.3256C36.4523 34.1016 36.0576 35.6186 35.2683 36.8766C34.479 38.1346 33.369 39.0966 31.9383 39.7626C30.52 40.4286 28.8488 40.7616 26.9248 40.7616H21.8188V50.3076H16.3798ZM21.7633 36.5806H26.7768C28.1335 36.5806 29.2435 36.1489 30.1068 35.2856C30.9701 34.41 31.4018 33.3308 31.4018 32.0481C31.4018 30.7161 30.9455 29.6616 30.0328 28.8846C29.1201 28.0953 28.0101 27.7006 26.7028 27.7006H21.7633V36.5806ZM39.832 50.3076V22.8166H45.197V33.9351C45.5054 33.4911 45.8939 33.0533 46.3625 32.6216C46.8312 32.1776 47.417 31.8076 48.12 31.5116C48.823 31.2156 49.6802 31.0676 50.6915 31.0676C51.9125 31.0676 53.0225 31.3081 54.0215 31.7891C55.0329 32.2578 55.8407 32.9423 56.445 33.8426C57.0617 34.7429 57.37 35.8406 57.37 37.1356V50.3076H51.9495V37.9311C51.9495 37.0678 51.635 36.408 51.006 35.9516C50.3894 35.483 49.637 35.2486 48.749 35.2486C48.1694 35.2486 47.6082 35.3535 47.0655 35.5631C46.5229 35.7728 46.0789 36.0934 45.7335 36.5251C45.4005 36.9444 45.234 37.4686 45.234 38.0976V50.3076H39.832ZM67.2996 50.6776C66.091 50.6776 64.9933 50.4495 64.0066 49.9931C63.0323 49.5368 62.2615 48.877 61.6941 48.0136C61.1268 47.138 60.8431 46.0773 60.8431 44.8316C60.8431 42.735 61.6263 41.144 63.1926 40.0586C64.759 38.961 67.2318 38.3936 70.6111 38.3566L73.0161 38.3196V37.1726C73.0161 36.297 72.7571 35.6248 72.2391 35.1561C71.7335 34.6751 70.938 34.4408 69.8526 34.4531C69.0756 34.4654 68.3295 34.6504 67.6141 35.0081C66.9111 35.3658 66.424 35.9886 66.1526 36.8766H61.6571C61.7311 35.4953 62.132 34.3606 62.8596 33.4726C63.5996 32.5723 64.5925 31.9063 65.8381 31.4746C67.0838 31.0306 68.5083 30.8086 70.1116 30.8086C72.0603 30.8086 73.6266 31.0553 74.8106 31.5486C75.9946 32.0296 76.8518 32.7265 77.3821 33.6391C77.9248 34.5394 78.1961 35.6124 78.1961 36.8581V50.3076H73.6821L73.2381 47.0146C72.5845 48.396 71.7643 49.3518 70.7776 49.8821C69.8033 50.4125 68.644 50.6776 67.2996 50.6776ZM69.1311 47.1256C69.6121 47.1256 70.0808 47.0393 70.5371 46.8666C71.0058 46.6816 71.4251 46.4411 71.7951 46.1451C72.1651 45.8368 72.455 45.4915 72.6646 45.1091C72.8866 44.7268 73.0038 44.3321 73.0161 43.9251V41.0946L71.0736 41.1316C70.1733 41.1439 69.3346 41.255 68.5576 41.4646C67.7806 41.662 67.1516 41.9888 66.6706 42.4451C66.202 42.9015 65.9676 43.5181 65.9676 44.2951C65.9676 45.1831 66.2698 45.88 66.8741 46.3856C67.4908 46.879 68.2431 47.1256 69.1311 47.1256ZM90.0925 50.6776C88.7605 50.6776 87.4778 50.4618 86.2445 50.0301C85.0235 49.5861 83.9813 48.8955 83.118 47.9581C82.267 47.0085 81.7305 45.7813 81.5085 44.2766H86.1705C86.3432 44.955 86.6392 45.4915 87.0585 45.8861C87.4902 46.2808 87.9773 46.5645 88.52 46.7371C89.0627 46.8975 89.5807 46.9776 90.074 46.9776C91.11 46.9776 91.9425 46.8173 92.5715 46.4966C93.2128 46.1636 93.5335 45.658 93.5335 44.9796C93.5335 44.4616 93.3423 44.0485 92.96 43.7401C92.59 43.4318 91.9733 43.1975 91.11 43.0371L87.743 42.3341C86.0533 41.9765 84.6905 41.3721 83.6545 40.5211C82.6308 39.6578 82.1128 38.4368 82.1005 36.8581C82.0882 35.7111 82.3842 34.6813 82.9885 33.7686C83.6052 32.8559 84.5117 32.1344 85.708 31.6041C86.9167 31.0738 88.3905 30.8086 90.1295 30.8086C92.4852 30.8086 94.366 31.3266 95.772 32.3626C97.1903 33.3986 97.9118 34.8601 97.9365 36.7471H93.4225C93.2868 36.0071 92.9168 35.4398 92.3125 35.0451C91.7205 34.6381 90.9682 34.4346 90.0555 34.4346C89.1305 34.4346 88.3658 34.6011 87.7615 34.9341C87.1572 35.2671 86.855 35.7728 86.855 36.4511C86.855 36.9568 87.1017 37.3576 87.595 37.6536C88.0883 37.9373 88.853 38.184 89.889 38.3936L92.997 39.0966C94.07 39.3556 94.9395 39.7133 95.6055 40.1696C96.2838 40.6136 96.808 41.1008 97.178 41.6311C97.548 42.1615 97.8008 42.6979 97.9365 43.2406C98.0845 43.771 98.1585 44.252 98.1585 44.6836C98.1585 45.954 97.8193 47.0393 97.141 47.9396C96.4627 48.8276 95.5192 49.506 94.3105 49.9746C93.1018 50.4433 91.6958 50.6776 90.0925 50.6776ZM110.696 50.6776C108.796 50.6776 107.125 50.283 105.682 49.4936C104.252 48.692 103.135 47.5635 102.334 46.1081C101.532 44.6528 101.131 42.9385 101.131 40.9651C101.131 39.0535 101.495 37.3329 102.223 35.8036C102.963 34.2619 104.023 33.0471 105.405 32.1591C106.786 31.2588 108.457 30.8086 110.418 30.8086C112.367 30.8086 114.001 31.2218 115.321 32.0481C116.64 32.8621 117.639 34.0029 118.318 35.4706C118.996 36.926 119.335 38.6095 119.335 40.5211V41.9826H106.478C106.478 42.957 106.638 43.808 106.959 44.5356C107.279 45.251 107.742 45.806 108.346 46.2006C108.963 46.583 109.703 46.7741 110.566 46.7741C111.491 46.7741 112.299 46.5768 112.99 46.1821C113.68 45.7875 114.168 45.14 114.451 44.2396H119.317C119.095 45.5963 118.552 46.7556 117.689 47.7176C116.825 48.6796 115.777 49.4135 114.544 49.9191C113.31 50.4248 112.028 50.6776 110.696 50.6776ZM106.478 38.7636H114.285C114.285 37.9989 114.137 37.2959 113.841 36.6546C113.557 36.0133 113.125 35.5076 112.546 35.1376C111.978 34.7676 111.263 34.5826 110.4 34.5826C109.573 34.5826 108.864 34.7861 108.272 35.1931C107.693 35.5878 107.242 36.1058 106.922 36.7471C106.613 37.3884 106.465 38.0606 106.478 38.7636ZM131.243 50.3076V47.6436V46.2746C131.243 44.918 131.496 43.7463 132.001 42.7596C132.507 41.7606 133.173 40.8973 133.999 40.1696C134.838 39.4296 135.751 38.7821 136.737 38.2271C137.736 37.6721 138.735 37.148 139.734 36.6546C140.733 36.1613 141.646 35.6679 142.472 35.1746C143.311 34.669 143.983 34.1078 144.489 33.4911C144.995 32.8744 145.247 32.1468 145.247 31.3081C145.247 30.2351 144.871 29.3594 144.119 28.6811C143.379 28.0028 142.361 27.6636 141.066 27.6636C139.722 27.6636 138.581 28.0521 137.644 28.8291C136.707 29.6061 136.127 30.7778 135.905 32.3441H130.743C130.768 30.6421 131.163 29.1004 131.927 27.7191C132.704 26.3254 133.864 25.2216 135.405 24.4076C136.947 23.5936 138.883 23.1866 141.214 23.1866C143.212 23.1866 144.933 23.5258 146.376 24.2041C147.831 24.8824 148.954 25.8259 149.743 27.0346C150.532 28.2433 150.927 29.6554 150.927 31.2711C150.927 32.6155 150.68 33.7748 150.187 34.7491C149.694 35.7235 149.04 36.556 148.226 37.2466C147.412 37.9373 146.518 38.5416 145.543 39.0596C144.569 39.5776 143.595 40.0586 142.62 40.5026C141.658 40.9466 140.77 41.403 139.956 41.8716C139.142 42.3279 138.489 42.846 137.995 43.4256C137.502 44.0053 137.255 44.7021 137.255 45.5161V45.7566H150.89V50.3076H131.243Z" fill="#3B3A48" />
</svg>
