<svg width="445" height="90" viewBox="0 0 445 90" fill="none" xmlns="http://www.w3.org/2000/svg">
  <path d="M0 5C0 2.23858 2.23858 0 5 0H410.353C411.987 0 413.518 0.798233 414.453 2.13789L442.377 42.1379C443.577 43.8572 443.577 46.1428 442.377 47.8621L414.453 87.8621C413.518 89.2018 411.987 90 410.353 90H5.00001C2.23859 90 0 87.7614 0 85V5Z" fill="#FDB81E" />
  <path d="M30.5654 33.5V20.486H35.3534C36.3014 20.486 37.1504 20.651 37.9004 20.981C38.6504 21.305 39.2414 21.785 39.6734 22.421C40.1114 23.057 40.3304 23.834 40.3304 24.752C40.3304 25.616 40.1384 26.354 39.7544 26.966C39.3704 27.578 38.8304 28.046 38.1344 28.37C37.4444 28.694 36.6314 28.856 35.6954 28.856H33.2114V33.5H30.5654ZM33.1844 26.822H35.6234C36.2834 26.822 36.8234 26.612 37.2434 26.192C37.6634 25.766 37.8734 25.241 37.8734 24.617C37.8734 23.969 37.6514 23.456 37.2074 23.078C36.7634 22.694 36.2234 22.502 35.5874 22.502H33.1844V26.822ZM41.9746 33.5V20.126H44.5846V25.535C44.7346 25.319 44.9236 25.106 45.1516 24.896C45.3796 24.68 45.6646 24.5 46.0066 24.356C46.3486 24.212 46.7656 24.14 47.2576 24.14C47.8516 24.14 48.3916 24.257 48.8776 24.491C49.3696 24.719 49.7626 25.052 50.0566 25.49C50.3566 25.928 50.5066 26.462 50.5066 27.092V33.5H47.8696V27.479C47.8696 27.059 47.7166 26.738 47.4106 26.516C47.1106 26.288 46.7446 26.174 46.3126 26.174C46.0306 26.174 45.7576 26.225 45.4936 26.327C45.2296 26.429 45.0136 26.585 44.8456 26.795C44.6836 26.999 44.6026 27.254 44.6026 27.56V33.5H41.9746ZM55.3372 33.68C54.7492 33.68 54.2152 33.569 53.7352 33.347C53.2612 33.125 52.8862 32.804 52.6102 32.384C52.3342 31.958 52.1962 31.442 52.1962 30.836C52.1962 29.816 52.5772 29.042 53.3392 28.514C54.1012 27.98 55.3042 27.704 56.9482 27.686L58.1182 27.668V27.11C58.1182 26.684 57.9922 26.357 57.7402 26.129C57.4942 25.895 57.1072 25.781 56.5792 25.787C56.2012 25.793 55.8382 25.883 55.4902 26.057C55.1482 26.231 54.9112 26.534 54.7792 26.966H52.5922C52.6282 26.294 52.8232 25.742 53.1772 25.31C53.5372 24.872 54.0202 24.548 54.6262 24.338C55.2322 24.122 55.9252 24.014 56.7052 24.014C57.6532 24.014 58.4152 24.134 58.9912 24.374C59.5672 24.608 59.9842 24.947 60.2422 25.391C60.5062 25.829 60.6382 26.351 60.6382 26.957V33.5H58.4422L58.2262 31.898C57.9082 32.57 57.5092 33.035 57.0292 33.293C56.5552 33.551 55.9912 33.68 55.3372 33.68ZM56.2282 31.952C56.4622 31.952 56.6902 31.91 56.9122 31.826C57.1402 31.736 57.3442 31.619 57.5242 31.475C57.7042 31.325 57.8452 31.157 57.9472 30.971C58.0552 30.785 58.1122 30.593 58.1182 30.395V29.018L57.1732 29.036C56.7352 29.042 56.3272 29.096 55.9492 29.198C55.5712 29.294 55.2652 29.453 55.0312 29.675C54.8032 29.897 54.6892 30.197 54.6892 30.575C54.6892 31.007 54.8362 31.346 55.1302 31.592C55.4302 31.832 55.7962 31.952 56.2282 31.952ZM66.4256 33.68C65.7776 33.68 65.1536 33.575 64.5536 33.365C63.9596 33.149 63.4526 32.813 63.0326 32.357C62.6186 31.895 62.3576 31.298 62.2496 30.566H64.5176C64.6016 30.896 64.7456 31.157 64.9496 31.349C65.1596 31.541 65.3966 31.679 65.6606 31.763C65.9246 31.841 66.1766 31.88 66.4166 31.88C66.9206 31.88 67.3256 31.802 67.6316 31.646C67.9436 31.484 68.0996 31.238 68.0996 30.908C68.0996 30.656 68.0066 30.455 67.8206 30.305C67.6406 30.155 67.3406 30.041 66.9206 29.963L65.2826 29.621C64.4606 29.447 63.7976 29.153 63.2936 28.739C62.7956 28.319 62.5436 27.725 62.5376 26.957C62.5316 26.399 62.6756 25.898 62.9696 25.454C63.2696 25.01 63.7106 24.659 64.2926 24.401C64.8806 24.143 65.5976 24.014 66.4436 24.014C67.5896 24.014 68.5046 24.266 69.1886 24.77C69.8786 25.274 70.2296 25.985 70.2416 26.903H68.0456C67.9796 26.543 67.7996 26.267 67.5056 26.075C67.2176 25.877 66.8516 25.778 66.4076 25.778C65.9576 25.778 65.5856 25.859 65.2916 26.021C64.9976 26.183 64.8506 26.429 64.8506 26.759C64.8506 27.005 64.9706 27.2 65.2106 27.344C65.4506 27.482 65.8226 27.602 66.3266 27.704L67.8386 28.046C68.3606 28.172 68.7836 28.346 69.1076 28.568C69.4376 28.784 69.6926 29.021 69.8726 29.279C70.0526 29.537 70.1756 29.798 70.2416 30.062C70.3136 30.32 70.3496 30.554 70.3496 30.764C70.3496 31.382 70.1846 31.91 69.8546 32.348C69.5246 32.78 69.0656 33.11 68.4776 33.338C67.8896 33.566 67.2056 33.68 66.4256 33.68ZM76.4488 33.68C75.5248 33.68 74.7118 33.488 74.0098 33.104C73.3138 32.714 72.7708 32.165 72.3808 31.457C71.9908 30.749 71.7958 29.915 71.7958 28.955C71.7958 28.025 71.9728 27.188 72.3268 26.444C72.6868 25.694 73.2028 25.103 73.8748 24.671C74.5468 24.233 75.3598 24.014 76.3138 24.014C77.2618 24.014 78.0568 24.215 78.6988 24.617C79.3408 25.013 79.8268 25.568 80.1568 26.282C80.4868 26.99 80.6518 27.809 80.6518 28.739V29.45H74.3968C74.3968 29.924 74.4748 30.338 74.6308 30.692C74.7868 31.04 75.0118 31.31 75.3058 31.502C75.6058 31.688 75.9658 31.781 76.3858 31.781C76.8358 31.781 77.2288 31.685 77.5648 31.493C77.9008 31.301 78.1378 30.986 78.2758 30.548H80.6428C80.5348 31.208 80.2708 31.772 79.8508 32.24C79.4308 32.708 78.9208 33.065 78.3208 33.311C77.7208 33.557 77.0968 33.68 76.4488 33.68ZM74.3968 27.884H78.1948C78.1948 27.512 78.1228 27.17 77.9788 26.858C77.8408 26.546 77.6308 26.3 77.3488 26.12C77.0728 25.94 76.7248 25.85 76.3048 25.85C75.9028 25.85 75.5578 25.949 75.2698 26.147C74.9878 26.339 74.7688 26.591 74.6128 26.903C74.4628 27.215 74.3908 27.542 74.3968 27.884ZM88.5237 33.5V23.753H86.2017V22.268C86.9457 22.268 87.5457 22.199 88.0017 22.061C88.4637 21.917 88.8087 21.713 89.0367 21.449C89.2647 21.179 89.3997 20.858 89.4417 20.486H91.1877V33.5H88.5237Z" fill="#3B3A48" />
  <path
    d="M31.4564 68.5V47.533H35.6759V55.943H44.8544V47.533H49.0884V68.5H44.8544V59.4955H35.6759V68.5H31.4564ZM57.6595 68.79C56.7122 68.79 55.8518 68.6112 55.0785 68.2535C54.3148 67.8958 53.7107 67.3787 53.266 66.702C52.8213 66.0157 52.599 65.1843 52.599 64.208C52.599 62.5647 53.2128 61.3177 54.4405 60.467C55.6682 59.6067 57.6063 59.162 60.255 59.133L62.14 59.104V58.205C62.14 57.5187 61.937 56.9918 61.531 56.6245C61.1347 56.2475 60.5112 56.0638 59.6605 56.0735C59.0515 56.0832 58.4667 56.2282 57.906 56.5085C57.355 56.7888 56.9732 57.277 56.7605 57.973H53.237C53.295 56.8903 53.6092 56.001 54.1795 55.305C54.7595 54.5993 55.5377 54.0773 56.514 53.739C57.4903 53.391 58.6068 53.217 59.8635 53.217C61.3908 53.217 62.6185 53.4103 63.5465 53.797C64.4745 54.174 65.1463 54.7202 65.562 55.4355C65.9873 56.1412 66.2 56.9822 66.2 57.9585V68.5H62.662L62.314 65.919C61.8017 67.0017 61.1588 67.7508 60.3855 68.1665C59.6218 68.5822 58.7132 68.79 57.6595 68.79ZM59.095 66.006C59.472 66.006 59.8393 65.9383 60.197 65.803C60.5643 65.658 60.893 65.4695 61.183 65.2375C61.473 64.9958 61.7002 64.7252 61.8645 64.4255C62.0385 64.1258 62.1303 63.8165 62.14 63.4975V61.279L60.6175 61.308C59.9118 61.3177 59.2545 61.4047 58.6455 61.569C58.0365 61.7237 57.5435 61.9798 57.1665 62.3375C56.7992 62.6952 56.6155 63.1785 56.6155 63.7875C56.6155 64.4835 56.8523 65.0297 57.326 65.426C57.8093 65.8127 58.399 66.006 59.095 66.006ZM68.6215 68.5V66.1365L76.0165 56.465H68.9985V53.507H81.1495V55.8705L73.74 65.542H81.193V68.5H68.6215ZM88.6703 68.79C87.7229 68.79 86.8626 68.6112 86.0893 68.2535C85.3256 67.8958 84.7214 67.3787 84.2768 66.702C83.8321 66.0157 83.6098 65.1843 83.6098 64.208C83.6098 62.5647 84.2236 61.3177 85.4513 60.467C86.6789 59.6067 88.6171 59.162 91.2658 59.133L93.1508 59.104V58.205C93.1508 57.5187 92.9478 56.9918 92.5418 56.6245C92.1454 56.2475 91.5219 56.0638 90.6713 56.0735C90.0623 56.0832 89.4774 56.2282 88.9168 56.5085C88.3658 56.7888 87.9839 57.277 87.7713 57.973H84.2478C84.3058 56.8903 84.6199 56.001 85.1903 55.305C85.7703 54.5993 86.5484 54.0773 87.5248 53.739C88.5011 53.391 89.6176 53.217 90.8743 53.217C92.4016 53.217 93.6293 53.4103 94.5573 53.797C95.4853 54.174 96.1571 54.7202 96.5728 55.4355C96.9981 56.1412 97.2108 56.9822 97.2108 57.9585V68.5H93.6728L93.3248 65.919C92.8124 67.0017 92.1696 67.7508 91.3963 68.1665C90.6326 68.5822 89.7239 68.79 88.6703 68.79ZM90.1058 66.006C90.4828 66.006 90.8501 65.9383 91.2078 65.803C91.5751 65.658 91.9038 65.4695 92.1938 65.2375C92.4838 64.9958 92.7109 64.7252 92.8753 64.4255C93.0493 64.1258 93.1411 63.8165 93.1508 63.4975V61.279L91.6283 61.308C90.9226 61.3177 90.2653 61.4047 89.6562 61.569C89.0473 61.7237 88.5543 61.9798 88.1773 62.3375C87.8099 62.6952 87.6263 63.1785 87.6263 63.7875C87.6263 64.4835 87.8631 65.0297 88.3368 65.426C88.8201 65.8127 89.4098 66.006 90.1058 66.006ZM100.645 68.5V53.507H104.719V57.0595C104.961 56.2958 105.299 55.6288 105.734 55.0585C106.179 54.4785 106.715 54.029 107.344 53.71C107.972 53.3813 108.682 53.217 109.475 53.217C109.61 53.217 109.736 53.2267 109.852 53.246C109.978 53.2557 110.07 53.275 110.128 53.304V57.335C110.041 57.2963 109.934 57.2722 109.809 57.2625C109.693 57.2528 109.586 57.2432 109.49 57.2335C108.658 57.1658 107.948 57.19 107.358 57.306C106.768 57.422 106.29 57.6202 105.923 57.9005C105.555 58.1808 105.289 58.524 105.125 58.93C104.961 59.336 104.879 59.7903 104.879 60.293V68.5H100.645ZM118.237 68.79C116.226 68.79 114.66 68.0988 113.539 66.7165C112.418 65.3245 111.857 63.3912 111.857 60.9165C111.857 59.3505 112.084 57.9923 112.538 56.842C112.993 55.6917 113.665 54.8023 114.554 54.174C115.443 53.536 116.531 53.217 117.816 53.217C118.358 53.217 118.86 53.2798 119.324 53.4055C119.798 53.5215 120.228 53.6858 120.615 53.8985C121.002 54.1112 121.34 54.3577 121.63 54.638C121.92 54.9183 122.157 55.218 122.34 55.537V46.953H126.589V68.5H123.515L123.036 65.426C122.891 65.8417 122.698 66.2477 122.456 66.644C122.224 67.0403 121.92 67.4028 121.543 67.7315C121.166 68.0505 120.702 68.3067 120.151 68.5C119.61 68.6933 118.972 68.79 118.237 68.79ZM119.165 65.745C120.228 65.745 121.021 65.3728 121.543 64.6285C122.075 63.8842 122.34 62.6275 122.34 60.8585C122.331 59.8338 122.21 58.9832 121.978 58.3065C121.746 57.6298 121.398 57.1272 120.934 56.7985C120.48 56.4602 119.9 56.291 119.194 56.291C118.276 56.291 117.512 56.6438 116.903 57.3495C116.294 58.0455 115.989 59.2152 115.989 60.8585C115.989 62.5308 116.275 63.7633 116.845 64.556C117.415 65.3487 118.189 65.745 119.165 65.745ZM136.75 68.79C135.281 68.79 134 68.4758 132.908 67.8475C131.825 67.2192 130.984 66.3298 130.385 65.1795C129.795 64.0292 129.5 62.6662 129.5 61.0905C129.5 59.5148 129.795 58.1373 130.385 56.958C130.984 55.7787 131.825 54.8603 132.908 54.203C134 53.5457 135.286 53.217 136.765 53.217C138.244 53.217 139.525 53.5408 140.607 54.1885C141.69 54.8265 142.526 55.7352 143.116 56.9145C143.706 58.0938 144 59.4858 144 61.0905C144 62.5985 143.71 63.9325 143.13 65.0925C142.56 66.2428 141.734 67.1467 140.651 67.804C139.578 68.4613 138.278 68.79 136.75 68.79ZM136.765 65.6435C137.509 65.6435 138.109 65.426 138.563 64.991C139.017 64.556 139.346 63.9857 139.549 63.28C139.752 62.5647 139.853 61.7865 139.853 60.9455C139.853 60.1528 139.762 59.4037 139.578 58.698C139.394 57.9923 139.075 57.422 138.621 56.987C138.167 56.552 137.548 56.3345 136.765 56.3345C136.021 56.3345 135.416 56.5423 134.952 56.958C134.498 57.364 134.165 57.9198 133.952 58.6255C133.739 59.3215 133.633 60.0948 133.633 60.9455C133.633 61.7285 133.73 62.4825 133.923 63.2075C134.116 63.9228 134.44 64.5077 134.894 64.962C135.349 65.4163 135.972 65.6435 136.765 65.6435ZM152.303 68.79C151.607 68.79 150.92 68.6837 150.244 68.471C149.577 68.2583 148.968 67.9442 148.417 67.5285C147.866 67.1128 147.421 66.6005 147.083 65.9915C146.754 65.3825 146.59 64.6768 146.59 63.8745V53.507H150.824V63.338C150.824 64.034 151.051 64.6043 151.505 65.049C151.96 65.4937 152.627 65.716 153.506 65.716C154.338 65.716 154.995 65.5033 155.478 65.078C155.971 64.643 156.218 64.0388 156.218 63.2655V53.507H160.408V68.5H157.218L156.725 65.5275C156.551 66.4072 156.223 67.0838 155.739 67.5575C155.266 68.0215 154.719 68.3405 154.101 68.5145C153.492 68.6982 152.892 68.79 152.303 68.79ZM170.057 68.79C169.013 68.79 168.008 68.6208 167.041 68.2825C166.084 67.9345 165.268 67.3932 164.591 66.6585C163.924 65.9142 163.503 64.9523 163.329 63.773H166.983C167.119 64.3047 167.351 64.7252 167.679 65.0345C168.018 65.3438 168.4 65.5662 168.825 65.7015C169.25 65.8272 169.656 65.89 170.043 65.89C170.855 65.89 171.507 65.7643 172 65.513C172.503 65.252 172.754 64.8557 172.754 64.324C172.754 63.918 172.605 63.5942 172.305 63.3525C172.015 63.1108 171.532 62.9272 170.855 62.8015L168.216 62.2505C166.892 61.9702 165.823 61.4965 165.011 60.8295C164.209 60.1528 163.803 59.1958 163.793 57.9585C163.784 57.0595 164.016 56.2523 164.489 55.537C164.973 54.8217 165.683 54.2562 166.621 53.8405C167.568 53.4248 168.723 53.217 170.086 53.217C171.933 53.217 173.407 53.623 174.509 54.435C175.621 55.247 176.186 56.3925 176.205 57.8715H172.667C172.561 57.2915 172.271 56.8468 171.797 56.5375C171.333 56.2185 170.744 56.059 170.028 56.059C169.303 56.059 168.704 56.1895 168.23 56.4505C167.757 56.7115 167.52 57.1078 167.52 57.6395C167.52 58.0358 167.713 58.35 168.1 58.582C168.487 58.8043 169.086 58.9977 169.898 59.162L172.334 59.713C173.175 59.916 173.856 60.1963 174.378 60.554C174.91 60.902 175.321 61.2838 175.611 61.6995C175.901 62.1152 176.099 62.5357 176.205 62.961C176.321 63.3767 176.379 63.7537 176.379 64.092C176.379 65.0877 176.114 65.9383 175.582 66.644C175.05 67.34 174.311 67.8717 173.363 68.239C172.416 68.6063 171.314 68.79 170.057 68.79ZM189.057 68.5L184.2 53.507H187.941L190.812 62.8015H190.913L193.668 53.507H196.699L199.483 62.8015H199.599L202.383 53.507H206.211L201.281 68.5H197.902L195.118 59.423L192.32 68.5H189.057ZM212.345 68.79C211.398 68.79 210.537 68.6112 209.764 68.2535C209 67.8958 208.396 67.3787 207.952 66.702C207.507 66.0157 207.285 65.1843 207.285 64.208C207.285 62.5647 207.898 61.3177 209.126 60.467C210.354 59.6067 212.292 59.162 214.941 59.133L216.826 59.104V58.205C216.826 57.5187 216.623 56.9918 216.217 56.6245C215.82 56.2475 215.197 56.0638 214.346 56.0735C213.737 56.0832 213.152 56.2282 212.592 56.5085C212.041 56.7888 211.659 57.277 211.446 57.973H207.923C207.981 56.8903 208.295 56.001 208.865 55.305C209.445 54.5993 210.223 54.0773 211.2 53.739C212.176 53.391 213.292 53.217 214.549 53.217C216.076 53.217 217.304 53.4103 218.232 53.797C219.16 54.174 219.832 54.7202 220.248 55.4355C220.673 56.1412 220.886 56.9822 220.886 57.9585V68.5H217.348L217 65.919C216.487 67.0017 215.844 67.7508 215.071 68.1665C214.307 68.5822 213.399 68.79 212.345 68.79ZM213.781 66.006C214.158 66.006 214.525 65.9383 214.883 65.803C215.25 65.658 215.579 65.4695 215.869 65.2375C216.159 64.9958 216.386 64.7252 216.55 64.4255C216.724 64.1258 216.816 63.8165 216.826 63.4975V61.279L215.303 61.308C214.597 61.3177 213.94 61.4047 213.331 61.569C212.722 61.7237 212.229 61.9798 211.852 62.3375C211.485 62.6952 211.301 63.1785 211.301 63.7875C211.301 64.4835 211.538 65.0297 212.012 65.426C212.495 65.8127 213.085 66.006 213.781 66.006ZM230.21 68.79C229.166 68.79 228.16 68.6208 227.194 68.2825C226.237 67.9345 225.42 67.3932 224.743 66.6585C224.076 65.9142 223.656 64.9523 223.482 63.773H227.136C227.271 64.3047 227.503 64.7252 227.832 65.0345C228.17 65.3438 228.552 65.5662 228.977 65.7015C229.403 65.8272 229.809 65.89 230.195 65.89C231.007 65.89 231.66 65.7643 232.153 65.513C232.655 65.252 232.907 64.8557 232.907 64.324C232.907 63.918 232.757 63.5942 232.457 63.3525C232.167 63.1108 231.684 62.9272 231.007 62.8015L228.368 62.2505C227.044 61.9702 225.976 61.4965 225.164 60.8295C224.361 60.1528 223.955 59.1958 223.946 57.9585C223.936 57.0595 224.168 56.2523 224.642 55.537C225.125 54.8217 225.836 54.2562 226.773 53.8405C227.721 53.4248 228.876 53.217 230.239 53.217C232.085 53.217 233.559 53.623 234.661 54.435C235.773 55.247 236.338 56.3925 236.358 57.8715H232.82C232.713 57.2915 232.423 56.8468 231.95 56.5375C231.486 56.2185 230.896 56.059 230.181 56.059C229.456 56.059 228.856 56.1895 228.383 56.4505C227.909 56.7115 227.672 57.1078 227.672 57.6395C227.672 58.0358 227.866 58.35 228.252 58.582C228.639 58.8043 229.238 58.9977 230.05 59.162L232.486 59.713C233.327 59.916 234.009 60.1963 234.531 60.554C235.062 60.902 235.473 61.2838 235.763 61.6995C236.053 62.1152 236.251 62.5357 236.358 62.961C236.474 63.3767 236.532 63.7537 236.532 64.092C236.532 65.0877 236.266 65.9383 235.734 66.644C235.203 67.34 234.463 67.8717 233.516 68.239C232.568 68.6063 231.466 68.79 230.21 68.79ZM245.881 68.6595C244.557 68.6595 243.532 68.4903 242.807 68.152C242.092 67.8137 241.594 67.34 241.314 66.731C241.043 66.122 240.908 65.4163 240.908 64.614V56.4505H238.472V53.507H241.038L242.111 48.983H245.127V53.4925H248.462V56.4505H245.127L245.156 64.44C245.156 64.8073 245.2 65.0828 245.287 65.2665C245.383 65.4405 245.528 65.5565 245.722 65.6145C245.925 65.6628 246.181 65.687 246.49 65.687H248.506V68.297C248.303 68.384 247.998 68.4662 247.592 68.5435C247.186 68.6208 246.616 68.6595 245.881 68.6595ZM257.885 68.79C256.396 68.79 255.086 68.4807 253.955 67.862C252.834 67.2337 251.959 66.3492 251.331 65.2085C250.702 64.0678 250.388 62.7242 250.388 61.1775C250.388 59.6792 250.673 58.3307 251.244 57.132C251.824 55.9237 252.655 54.9715 253.738 54.2755C254.82 53.5698 256.13 53.217 257.667 53.217C259.194 53.217 260.475 53.5408 261.51 54.1885C262.544 54.8265 263.327 55.7207 263.859 56.871C264.39 58.0117 264.656 59.3312 264.656 60.8295V61.975H254.579C254.579 62.7387 254.704 63.4057 254.956 63.976C255.207 64.5367 255.569 64.9717 256.043 65.281C256.526 65.5807 257.106 65.7305 257.783 65.7305C258.508 65.7305 259.141 65.5758 259.683 65.2665C260.224 64.9572 260.606 64.4497 260.828 63.744H264.642C264.468 64.8073 264.042 65.716 263.366 66.47C262.689 67.224 261.867 67.7992 260.901 68.1955C259.934 68.5918 258.929 68.79 257.885 68.79ZM254.579 59.452H260.698C260.698 58.8527 260.582 58.3017 260.35 57.799C260.127 57.2963 259.789 56.9 259.335 56.61C258.89 56.32 258.329 56.175 257.653 56.175C257.005 56.175 256.449 56.3345 255.985 56.6535C255.531 56.9628 255.178 57.3688 254.927 57.8715C254.685 58.3742 254.569 58.901 254.579 59.452ZM280.518 68.79C279.126 68.79 277.884 68.4807 276.792 67.862C275.699 67.2433 274.839 66.3588 274.211 65.2085C273.592 64.0485 273.283 62.6662 273.283 61.0615C273.283 59.5148 273.582 58.1518 274.182 56.9725C274.781 55.7932 275.622 54.8748 276.705 54.2175C277.797 53.5505 279.068 53.217 280.518 53.217C281.775 53.217 282.857 53.4732 283.766 53.9855C284.684 54.4978 285.405 55.189 285.927 56.059C286.458 56.929 286.763 57.9005 286.84 58.9735H283.317C283.249 58.5772 283.109 58.1857 282.896 57.799C282.683 57.4027 282.384 57.0788 281.997 56.8275C281.61 56.5665 281.127 56.436 280.547 56.436C279.561 56.436 278.759 56.8178 278.14 57.5815C277.531 58.3355 277.227 59.4858 277.227 61.0325C277.227 62.4922 277.526 63.6522 278.126 64.5125C278.725 65.3632 279.561 65.7885 280.634 65.7885C281.204 65.7885 281.678 65.6483 282.055 65.368C282.442 65.0877 282.741 64.7542 282.954 64.3675C283.167 63.9712 283.302 63.6038 283.36 63.2655H286.797C286.729 64.2998 286.429 65.2375 285.898 66.0785C285.366 66.9098 284.641 67.572 283.723 68.065C282.814 68.5483 281.746 68.79 280.518 68.79ZM294.553 68.761C293.451 68.761 292.576 68.6305 291.928 68.3695C291.28 68.1085 290.802 67.7653 290.493 67.34C290.183 66.905 289.985 66.4265 289.898 65.9045C289.811 65.3728 289.768 64.8363 289.768 64.295V46.953H293.915V63.773C293.915 64.324 294.031 64.7735 294.263 65.1215C294.504 65.4598 294.954 65.6677 295.611 65.745L296.322 65.7885V68.3985C296.032 68.4952 295.737 68.5773 295.437 68.645C295.137 68.7223 294.843 68.761 294.553 68.761ZM305.321 68.79C303.832 68.79 302.523 68.4807 301.392 67.862C300.27 67.2337 299.395 66.3492 298.767 65.2085C298.139 64.0678 297.825 62.7242 297.825 61.1775C297.825 59.6792 298.11 58.3307 298.68 57.132C299.26 55.9237 300.091 54.9715 301.174 54.2755C302.257 53.5698 303.567 53.217 305.104 53.217C306.631 53.217 307.912 53.5408 308.946 54.1885C309.98 54.8265 310.763 55.7207 311.295 56.871C311.827 58.0117 312.093 59.3312 312.093 60.8295V61.975H302.015C302.015 62.7387 302.141 63.4057 302.392 63.976C302.643 64.5367 303.006 64.9717 303.48 65.281C303.963 65.5807 304.543 65.7305 305.22 65.7305C305.945 65.7305 306.578 65.5758 307.119 65.2665C307.66 64.9572 308.042 64.4497 308.265 63.744H312.078C311.904 64.8073 311.479 65.716 310.802 66.47C310.125 67.224 309.304 67.7992 308.337 68.1955C307.37 68.5918 306.365 68.79 305.321 68.79ZM302.015 59.452H308.134C308.134 58.8527 308.018 58.3017 307.786 57.799C307.564 57.2963 307.225 56.9 306.771 56.61C306.326 56.32 305.766 56.175 305.089 56.175C304.441 56.175 303.886 56.3345 303.422 56.6535C302.967 56.9628 302.614 57.3688 302.363 57.8715C302.121 58.3742 302.005 58.901 302.015 59.452ZM319.509 68.79C318.562 68.79 317.701 68.6112 316.928 68.2535C316.164 67.8958 315.56 67.3787 315.116 66.702C314.671 66.0157 314.449 65.1843 314.449 64.208C314.449 62.5647 315.062 61.3177 316.29 60.467C317.518 59.6067 319.456 59.162 322.105 59.133L323.99 59.104V58.205C323.99 57.5187 323.787 56.9918 323.381 56.6245C322.984 56.2475 322.361 56.0638 321.51 56.0735C320.901 56.0832 320.316 56.2282 319.756 56.5085C319.205 56.7888 318.823 57.277 318.61 57.973H315.087C315.145 56.8903 315.459 56.001 316.029 55.305C316.609 54.5993 317.387 54.0773 318.364 53.739C319.34 53.391 320.456 53.217 321.713 53.217C323.24 53.217 324.468 53.4103 325.396 53.797C326.324 54.174 326.996 54.7202 327.412 55.4355C327.837 56.1412 328.05 56.9822 328.05 57.9585V68.5H324.512L324.164 65.919C323.651 67.0017 323.008 67.7508 322.235 68.1665C321.471 68.5822 320.563 68.79 319.509 68.79ZM320.945 66.006C321.322 66.006 321.689 65.9383 322.047 65.803C322.414 65.658 322.743 65.4695 323.033 65.2375C323.323 64.9958 323.55 64.7252 323.714 64.4255C323.888 64.1258 323.98 63.8165 323.99 63.4975V61.279L322.467 61.308C321.761 61.3177 321.104 61.4047 320.495 61.569C319.886 61.7237 319.393 61.9798 319.016 62.3375C318.649 62.6952 318.465 63.1785 318.465 63.7875C318.465 64.4835 318.702 65.0297 319.176 65.426C319.659 65.8127 320.249 66.006 320.945 66.006ZM331.483 68.5V53.507H335.645V55.624C335.877 55.2567 336.177 54.9038 336.544 54.5655C336.921 54.2175 337.395 53.9323 337.965 53.71C338.535 53.4877 339.212 53.3765 339.995 53.3765C340.913 53.3765 341.769 53.5553 342.561 53.913C343.364 54.2707 344.011 54.8362 344.504 55.6095C344.997 56.3732 345.244 57.3737 345.244 58.611V68.5H341.01V59.133C341.01 58.321 340.768 57.712 340.285 57.306C339.802 56.9 339.212 56.697 338.516 56.697C338.052 56.697 337.602 56.7792 337.167 56.9435C336.742 57.1078 336.394 57.3543 336.123 57.683C335.853 58.0117 335.717 58.4177 335.717 58.901V68.5H331.483ZM354.198 68.79C353.502 68.79 352.816 68.6837 352.139 68.471C351.472 68.2583 350.863 67.9442 350.312 67.5285C349.761 67.1128 349.317 66.6005 348.978 65.9915C348.65 65.3825 348.485 64.6768 348.485 63.8745V53.507H352.719V63.338C352.719 64.034 352.946 64.6043 353.401 65.049C353.855 65.4937 354.522 65.716 355.402 65.716C356.233 65.716 356.89 65.5033 357.374 65.078C357.867 64.643 358.113 64.0388 358.113 63.2655V53.507H362.304V68.5H359.114L358.621 65.5275C358.447 66.4072 358.118 67.0838 357.635 67.5575C357.161 68.0215 356.615 68.3405 355.996 68.5145C355.387 68.6982 354.788 68.79 354.198 68.79ZM366.006 73.169V53.507H370.254L370.269 55.6675C370.491 55.3098 370.762 54.986 371.081 54.696C371.41 54.3963 371.772 54.1353 372.168 53.913C372.565 53.6907 372.995 53.5215 373.459 53.4055C373.923 53.2798 374.411 53.217 374.923 53.217C376.035 53.217 377.026 53.4925 377.896 54.0435C378.766 54.5848 379.447 55.4258 379.94 56.5665C380.443 57.6975 380.694 59.1378 380.694 60.8875C380.694 62.7048 380.424 64.1983 379.882 65.368C379.351 66.528 378.616 67.3883 377.678 67.949C376.741 68.5097 375.682 68.79 374.503 68.79C374.02 68.79 373.565 68.7223 373.14 68.587C372.715 68.4613 372.318 68.2825 371.951 68.0505C371.593 67.8185 371.269 67.5527 370.979 67.253C370.699 66.9437 370.453 66.6102 370.24 66.2525V73.169H366.006ZM373.488 65.687C374.406 65.687 375.175 65.3052 375.793 64.5415C376.422 63.7778 376.736 62.5695 376.736 60.9165C376.736 59.4665 376.436 58.3355 375.837 57.5235C375.247 56.7018 374.464 56.291 373.488 56.291C372.396 56.291 371.579 56.7357 371.037 57.625C370.506 58.5047 370.24 59.6018 370.24 60.9165C370.24 61.7575 370.356 62.5405 370.588 63.2655C370.83 63.9905 371.187 64.5753 371.661 65.02C372.144 65.4647 372.753 65.687 373.488 65.687Z"
    fill="#3B3A48" />
</svg>
