<svg width="445" height="91" viewBox="0 0 445 91" fill="none" xmlns="http://www.w3.org/2000/svg">
  <path d="M-0.00390625 5.96582C-0.00390625 3.2044 2.23467 0.96582 4.99609 0.96582H410.349C411.983 0.96582 413.514 1.76405 414.449 3.10371L442.373 43.1037C443.574 44.823 443.574 47.1086 442.373 48.8279L414.449 88.8279C413.514 90.1676 411.983 90.9658 410.349 90.9658H4.99611C2.23468 90.9658 -0.00390625 88.7272 -0.00390625 85.9658V5.96582Z" fill="#7BB0DA" />
  <path d="M30.5615 34.4658V21.4518H35.3495C36.2975 21.4518 37.1465 21.6168 37.8965 21.9468C38.6465 22.2708 39.2375 22.7508 39.6695 23.3868C40.1075 24.0228 40.3265 24.7998 40.3265 25.7178C40.3265 26.5818 40.1345 27.3198 39.7505 27.9318C39.3665 28.5438 38.8265 29.0118 38.1305 29.3358C37.4405 29.6598 36.6275 29.8218 35.6915 29.8218H33.2075V34.4658H30.5615ZM33.1805 27.7878H35.6195C36.2795 27.7878 36.8195 27.5778 37.2395 27.1578C37.6595 26.7318 37.8695 26.2068 37.8695 25.5828C37.8695 24.9348 37.6475 24.4218 37.2035 24.0438C36.7595 23.6598 36.2195 23.4678 35.5835 23.4678H33.1805V27.7878ZM41.9707 34.4658V21.0918H44.5807V26.5008C44.7307 26.2848 44.9197 26.0718 45.1477 25.8618C45.3757 25.6458 45.6607 25.4658 46.0027 25.3218C46.3447 25.1778 46.7617 25.1058 47.2537 25.1058C47.8477 25.1058 48.3877 25.2228 48.8737 25.4568C49.3657 25.6848 49.7587 26.0178 50.0527 26.4558C50.3527 26.8938 50.5027 27.4278 50.5027 28.0578V34.4658H47.8657V28.4448C47.8657 28.0248 47.7127 27.7038 47.4067 27.4818C47.1067 27.2538 46.7407 27.1398 46.3087 27.1398C46.0267 27.1398 45.7537 27.1908 45.4897 27.2928C45.2257 27.3948 45.0097 27.5508 44.8417 27.7608C44.6797 27.9648 44.5987 28.2198 44.5987 28.5258V34.4658H41.9707ZM55.3333 34.6458C54.7453 34.6458 54.2113 34.5348 53.7313 34.3128C53.2573 34.0908 52.8823 33.7698 52.6063 33.3498C52.3303 32.9238 52.1923 32.4078 52.1923 31.8018C52.1923 30.7818 52.5733 30.0078 53.3353 29.4798C54.0973 28.9458 55.3003 28.6698 56.9443 28.6518L58.1143 28.6338V28.0758C58.1143 27.6498 57.9883 27.3228 57.7363 27.0948C57.4903 26.8608 57.1033 26.7468 56.5753 26.7528C56.1973 26.7588 55.8343 26.8488 55.4863 27.0228C55.1443 27.1968 54.9073 27.4998 54.7753 27.9318H52.5883C52.6243 27.2598 52.8193 26.7078 53.1733 26.2758C53.5333 25.8378 54.0163 25.5138 54.6223 25.3038C55.2283 25.0878 55.9213 24.9798 56.7013 24.9798C57.6493 24.9798 58.4113 25.0998 58.9873 25.3398C59.5633 25.5738 59.9803 25.9128 60.2383 26.3568C60.5023 26.7948 60.6343 27.3168 60.6343 27.9228V34.4658H58.4383L58.2223 32.8638C57.9043 33.5358 57.5053 34.0008 57.0253 34.2588C56.5513 34.5168 55.9873 34.6458 55.3333 34.6458ZM56.2243 32.9178C56.4583 32.9178 56.6863 32.8758 56.9083 32.7918C57.1363 32.7018 57.3403 32.5848 57.5203 32.4408C57.7003 32.2908 57.8413 32.1228 57.9433 31.9368C58.0513 31.7508 58.1083 31.5588 58.1143 31.3608V29.9838L57.1693 30.0018C56.7313 30.0078 56.3233 30.0618 55.9453 30.1638C55.5673 30.2598 55.2613 30.4188 55.0273 30.6408C54.7993 30.8628 54.6853 31.1628 54.6853 31.5408C54.6853 31.9728 54.8323 32.3118 55.1263 32.5578C55.4263 32.7978 55.7923 32.9178 56.2243 32.9178ZM66.4217 34.6458C65.7737 34.6458 65.1497 34.5408 64.5497 34.3308C63.9557 34.1148 63.4487 33.7788 63.0287 33.3228C62.6147 32.8608 62.3537 32.2638 62.2457 31.5318H64.5137C64.5977 31.8618 64.7417 32.1228 64.9457 32.3148C65.1557 32.5068 65.3927 32.6448 65.6567 32.7288C65.9207 32.8068 66.1727 32.8458 66.4127 32.8458C66.9167 32.8458 67.3217 32.7678 67.6277 32.6118C67.9397 32.4498 68.0957 32.2038 68.0957 31.8738C68.0957 31.6218 68.0027 31.4208 67.8167 31.2708C67.6367 31.1208 67.3367 31.0068 66.9167 30.9288L65.2787 30.5868C64.4567 30.4128 63.7937 30.1188 63.2897 29.7048C62.7917 29.2848 62.5397 28.6908 62.5337 27.9228C62.5277 27.3648 62.6717 26.8638 62.9657 26.4198C63.2657 25.9758 63.7067 25.6248 64.2887 25.3668C64.8767 25.1088 65.5937 24.9798 66.4397 24.9798C67.5857 24.9798 68.5007 25.2318 69.1847 25.7358C69.8747 26.2398 70.2257 26.9508 70.2377 27.8688H68.0417C67.9757 27.5088 67.7957 27.2328 67.5017 27.0408C67.2137 26.8428 66.8477 26.7438 66.4037 26.7438C65.9537 26.7438 65.5817 26.8248 65.2877 26.9868C64.9937 27.1488 64.8467 27.3948 64.8467 27.7248C64.8467 27.9708 64.9667 28.1658 65.2067 28.3098C65.4467 28.4478 65.8187 28.5678 66.3227 28.6698L67.8347 29.0118C68.3567 29.1378 68.7797 29.3118 69.1037 29.5338C69.4337 29.7498 69.6887 29.9868 69.8687 30.2448C70.0487 30.5028 70.1717 30.7638 70.2377 31.0278C70.3097 31.2858 70.3457 31.5198 70.3457 31.7298C70.3457 32.3478 70.1807 32.8758 69.8507 33.3138C69.5207 33.7458 69.0617 34.0758 68.4737 34.3038C67.8857 34.5318 67.2017 34.6458 66.4217 34.6458ZM76.4449 34.6458C75.5209 34.6458 74.7079 34.4538 74.0059 34.0698C73.3099 33.6798 72.7669 33.1308 72.3769 32.4228C71.9869 31.7148 71.7919 30.8808 71.7919 29.9208C71.7919 28.9908 71.9689 28.1538 72.3229 27.4098C72.6829 26.6598 73.1989 26.0688 73.8709 25.6368C74.5429 25.1988 75.3559 24.9798 76.3099 24.9798C77.2579 24.9798 78.0529 25.1808 78.6949 25.5828C79.3369 25.9788 79.8229 26.5338 80.1529 27.2478C80.4829 27.9558 80.6479 28.7748 80.6479 29.7048V30.4158H74.3929C74.3929 30.8898 74.4709 31.3038 74.6269 31.6578C74.7829 32.0058 75.0079 32.2758 75.3019 32.4678C75.6019 32.6538 75.9619 32.7468 76.3819 32.7468C76.8319 32.7468 77.2249 32.6508 77.5609 32.4588C77.8969 32.2668 78.1339 31.9518 78.2719 31.5138H80.6389C80.5309 32.1738 80.2669 32.7378 79.8469 33.2058C79.4269 33.6738 78.9169 34.0308 78.3169 34.2768C77.7169 34.5228 77.0929 34.6458 76.4449 34.6458ZM74.3929 28.8498H78.1909C78.1909 28.4778 78.1189 28.1358 77.9749 27.8238C77.8369 27.5118 77.6269 27.2658 77.3449 27.0858C77.0689 26.9058 76.7209 26.8158 76.3009 26.8158C75.8989 26.8158 75.5539 26.9148 75.2659 27.1128C74.9839 27.3048 74.7649 27.5568 74.6089 27.8688C74.4589 28.1808 74.3869 28.5078 74.3929 28.8498ZM86.4408 34.4658V33.1698V32.5038C86.4408 31.8438 86.5638 31.2738 86.8098 30.7938C87.0558 30.3078 87.3798 29.8878 87.7818 29.5338C88.1898 29.1738 88.6338 28.8588 89.1138 28.5888C89.5998 28.3188 90.0858 28.0638 90.5718 27.8238C91.0578 27.5838 91.5018 27.3438 91.9038 27.1038C92.3118 26.8578 92.6388 26.5848 92.8848 26.2848C93.1308 25.9848 93.2538 25.6308 93.2538 25.2228C93.2538 24.7008 93.0708 24.2748 92.7048 23.9448C92.3448 23.6148 91.8498 23.4498 91.2198 23.4498C90.5658 23.4498 90.0108 23.6388 89.5548 24.0168C89.0988 24.3948 88.8168 24.9648 88.7088 25.7268H86.1978C86.2098 24.8988 86.4018 24.1488 86.7738 23.4768C87.1518 22.7988 87.7158 22.2618 88.4658 21.8658C89.2158 21.4698 90.1578 21.2718 91.2918 21.2718C92.2638 21.2718 93.1008 21.4368 93.8028 21.7668C94.5108 22.0968 95.0568 22.5558 95.4408 23.1438C95.8248 23.7318 96.0168 24.4188 96.0168 25.2048C96.0168 25.8588 95.8968 26.4228 95.6568 26.8968C95.4168 27.3708 95.0988 27.7758 94.7028 28.1118C94.3068 28.4478 93.8718 28.7418 93.3978 28.9938C92.9238 29.2458 92.4498 29.4798 91.9758 29.6958C91.5078 29.9118 91.0758 30.1338 90.6798 30.3618C90.2838 30.5838 89.9658 30.8358 89.7258 31.1178C89.4858 31.3998 89.3658 31.7388 89.3658 32.1348V32.2518H95.9988V34.4658H86.4408Z" fill="#3B3A48" />
  <path
    d="M31.4525 69.4658V48.4988C31.5588 48.4988 31.8537 48.4988 32.337 48.4988C32.83 48.4988 33.4052 48.4988 34.0625 48.4988C34.7295 48.4988 35.3917 48.5037 36.049 48.5133C36.716 48.5133 37.2718 48.5182 37.7165 48.5278C40.2588 48.5858 42.3323 49.0402 43.937 49.8908C45.5417 50.7415 46.7162 51.9305 47.4605 53.4578C48.2145 54.9852 48.5915 56.7928 48.5915 58.8808C48.5915 61.0558 48.1952 62.936 47.4025 64.5213C46.6099 66.097 45.3967 67.315 43.763 68.1753C42.139 69.0357 40.0752 69.4658 37.5715 69.4658H31.4525ZM35.7155 66.0438H37.6585C38.8572 66.0438 39.9447 65.8118 40.921 65.3478C41.907 64.8838 42.6948 64.125 43.2845 63.0713C43.8742 62.0177 44.169 60.6112 44.169 58.8518C44.169 57.2182 43.908 55.8938 43.386 54.8788C42.864 53.8542 42.1197 53.105 41.153 52.6313C40.1863 52.1577 39.0408 51.9208 37.7165 51.9208H35.7155V66.0438ZM58.6756 69.7558C57.1869 69.7558 55.8771 69.4465 54.7461 68.8278C53.6248 68.1995 52.7499 67.315 52.1216 66.1743C51.4933 65.0337 51.1791 63.69 51.1791 62.1433C51.1791 60.645 51.4643 59.2965 52.0346 58.0978C52.6146 56.8895 53.4459 55.9373 54.5286 55.2413C55.6113 54.5357 56.9211 54.1828 58.4581 54.1828C59.9854 54.1828 61.2663 54.5067 62.3006 55.1543C63.3349 55.7923 64.1179 56.6865 64.6496 57.8368C65.1813 58.9775 65.4471 60.297 65.4471 61.7953V62.9408H55.3696C55.3696 63.7045 55.4953 64.3715 55.7466 64.9418C55.9979 65.5025 56.3604 65.9375 56.8341 66.2468C57.3174 66.5465 57.8974 66.6963 58.5741 66.6963C59.2991 66.6963 59.9323 66.5417 60.4736 66.2323C61.0149 65.923 61.3968 65.4155 61.6191 64.7098H65.4326C65.2586 65.7732 64.8333 66.6818 64.1566 67.4358C63.4799 68.1898 62.6583 68.765 61.6916 69.1613C60.7249 69.5577 59.7196 69.7558 58.6756 69.7558ZM55.3696 60.4178H61.4886C61.4886 59.8185 61.3726 59.2675 61.1406 58.7648C60.9183 58.2622 60.5799 57.8658 60.1256 57.5758C59.6809 57.2858 59.1203 57.1408 58.4436 57.1408C57.7959 57.1408 57.2401 57.3003 56.7761 57.6193C56.3218 57.9287 55.9689 58.3347 55.7176 58.8373C55.4759 59.34 55.3599 59.8668 55.3696 60.4178ZM76.8491 69.7558C76.1047 69.7558 75.4619 69.6592 74.9206 69.4658C74.3792 69.2725 73.9201 69.0163 73.5431 68.6973C73.1661 68.3687 72.8567 68.0062 72.6151 67.6098C72.3734 67.2135 72.1849 66.8075 72.0496 66.3918L71.5711 69.4658H68.4971V47.9188H72.7456V56.5028C72.9292 56.1838 73.1661 55.8842 73.4561 55.6038C73.7461 55.3235 74.0844 55.077 74.4711 54.8643C74.8577 54.6517 75.2831 54.4873 75.7471 54.3713C76.2207 54.2457 76.7234 54.1828 77.2551 54.1828C79.1207 54.1828 80.5804 54.8547 81.6341 56.1983C82.6974 57.542 83.2291 59.4367 83.2291 61.8823C83.2291 63.4677 82.9874 64.85 82.5041 66.0293C82.0207 67.2087 81.3054 68.127 80.3581 68.7843C79.4107 69.432 78.2411 69.7558 76.8491 69.7558ZM75.9211 66.7108C76.8297 66.7108 77.5837 66.3387 78.1831 65.5943C78.7921 64.8403 79.0966 63.5837 79.0966 61.8243C79.0966 60.268 78.8066 59.1177 78.2266 58.3733C77.6562 57.629 76.8781 57.2568 75.8921 57.2568C75.1864 57.2568 74.6016 57.426 74.1376 57.7643C73.6736 58.093 73.3256 58.5957 73.0936 59.2723C72.8712 59.949 72.7552 60.7997 72.7456 61.8243C72.7456 63.5933 73.0066 64.85 73.5286 65.5943C74.0602 66.3387 74.8577 66.7108 75.9211 66.7108ZM86.1406 69.4658V54.4728H90.2151V58.0253C90.4568 57.2617 90.7951 56.5947 91.2301 56.0243C91.6748 55.4443 92.2113 54.9948 92.8396 54.6758C93.468 54.3472 94.1785 54.1828 94.9711 54.1828C95.1065 54.1828 95.2321 54.1925 95.3481 54.2118C95.4738 54.2215 95.5656 54.2408 95.6236 54.2698V58.3008C95.5366 58.2622 95.4303 58.238 95.3046 58.2283C95.1886 58.2187 95.0823 58.209 94.9856 58.1993C94.1543 58.1317 93.4438 58.1558 92.8541 58.2718C92.2645 58.3878 91.786 58.586 91.4186 58.8663C91.0513 59.1467 90.7855 59.4898 90.6211 59.8958C90.4568 60.3018 90.3746 60.7562 90.3746 61.2588V69.4658H86.1406ZM98.1353 69.4658V54.4728H102.181V69.4658H98.1353ZM98.0918 52.3268V48.5133H102.21V52.3268H98.0918ZM111.855 69.7558C110.811 69.7558 109.806 69.5867 108.839 69.2483C107.882 68.9003 107.065 68.359 106.389 67.6243C105.722 66.88 105.301 65.9182 105.127 64.7388H108.781C108.917 65.2705 109.149 65.691 109.477 66.0003C109.816 66.3097 110.197 66.532 110.623 66.6673C111.048 66.793 111.454 66.8558 111.841 66.8558C112.653 66.8558 113.305 66.7302 113.798 66.4788C114.301 66.2178 114.552 65.8215 114.552 65.2898C114.552 64.8838 114.402 64.56 114.103 64.3183C113.813 64.0767 113.329 63.893 112.653 63.7673L110.014 63.2163C108.689 62.936 107.621 62.4623 106.809 61.7953C106.007 61.1187 105.601 60.1617 105.591 58.9243C105.582 58.0253 105.814 57.2182 106.287 56.5028C106.771 55.7875 107.481 55.222 108.419 54.8063C109.366 54.3907 110.521 54.1828 111.884 54.1828C113.731 54.1828 115.205 54.5888 116.307 55.4008C117.418 56.2128 117.984 57.3583 118.003 58.8373H114.465C114.359 58.2573 114.069 57.8127 113.595 57.5033C113.131 57.1843 112.542 57.0248 111.826 57.0248C111.101 57.0248 110.502 57.1553 110.028 57.4163C109.555 57.6773 109.318 58.0737 109.318 58.6053C109.318 59.0017 109.511 59.3158 109.898 59.5478C110.284 59.7702 110.884 59.9635 111.696 60.1278L114.132 60.6788C114.973 60.8818 115.654 61.1622 116.176 61.5198C116.708 61.8678 117.119 62.2497 117.409 62.6653C117.699 63.081 117.897 63.5015 118.003 63.9268C118.119 64.3425 118.177 64.7195 118.177 65.0578C118.177 66.0535 117.911 66.9042 117.38 67.6098C116.848 68.3058 116.109 68.8375 115.161 69.2048C114.214 69.5722 113.112 69.7558 111.855 69.7558ZM127.46 69.4658V54.4728H131.534V58.0253C131.776 57.2617 132.114 56.5947 132.549 56.0243C132.994 55.4443 133.531 54.9948 134.159 54.6758C134.787 54.3472 135.498 54.1828 136.29 54.1828C136.426 54.1828 136.551 54.1925 136.667 54.2118C136.793 54.2215 136.885 54.2408 136.943 54.2698V58.3008C136.856 58.2622 136.75 58.238 136.624 58.2283C136.508 58.2187 136.402 58.209 136.305 58.1993C135.474 58.1317 134.763 58.1558 134.173 58.2718C133.584 58.3878 133.105 58.586 132.738 58.8663C132.371 59.1467 132.105 59.4898 131.94 59.8958C131.776 60.3018 131.694 60.7562 131.694 61.2588V69.4658H127.46ZM146.27 69.7558C144.782 69.7558 143.472 69.4465 142.341 68.8278C141.219 68.1995 140.345 67.315 139.716 66.1743C139.088 65.0337 138.774 63.69 138.774 62.1433C138.774 60.645 139.059 59.2965 139.629 58.0978C140.209 56.8895 141.041 55.9373 142.123 55.2413C143.206 54.5357 144.516 54.1828 146.053 54.1828C147.58 54.1828 148.861 54.5067 149.895 55.1543C150.93 55.7923 151.713 56.6865 152.244 57.8368C152.776 58.9775 153.042 60.297 153.042 61.7953V62.9408H142.964C142.964 63.7045 143.09 64.3715 143.341 64.9418C143.593 65.5025 143.955 65.9375 144.429 66.2468C144.912 66.5465 145.492 66.6963 146.169 66.6963C146.894 66.6963 147.527 66.5417 148.068 66.2323C148.61 65.923 148.991 65.4155 149.214 64.7098H153.027C152.853 65.7732 152.428 66.6818 151.751 67.4358C151.075 68.1898 150.253 68.765 149.286 69.1613C148.32 69.5577 147.314 69.7558 146.27 69.7558ZM142.964 60.4178H149.083C149.083 59.8185 148.967 59.2675 148.735 58.7648C148.513 58.2622 148.175 57.8658 147.72 57.5758C147.276 57.2858 146.715 57.1408 146.038 57.1408C145.391 57.1408 144.835 57.3003 144.371 57.6193C143.916 57.9287 143.564 58.3347 143.312 58.8373C143.071 59.34 142.955 59.8668 142.964 60.4178ZM156.092 69.4658V54.4728H160.239V56.5898C160.693 55.9325 161.302 55.367 162.066 54.8933C162.839 54.4197 163.811 54.1828 164.98 54.1828C165.493 54.1828 166.015 54.2747 166.546 54.4583C167.078 54.642 167.576 54.9127 168.04 55.2703C168.513 55.6183 168.895 56.0582 169.185 56.5898C169.669 55.9035 170.302 55.3332 171.085 54.8788C171.877 54.4148 172.757 54.1828 173.724 54.1828C174.284 54.1828 174.85 54.2747 175.42 54.4583C176 54.642 176.532 54.9417 177.015 55.3573C177.499 55.773 177.885 56.3288 178.175 57.0248C178.475 57.7112 178.625 58.5618 178.625 59.5768V69.4658H174.391V60.0988C174.391 59.4995 174.27 59.021 174.028 58.6633C173.796 58.296 173.497 58.035 173.129 57.8803C172.772 57.716 172.39 57.6338 171.984 57.6338C171.607 57.6338 171.225 57.7112 170.838 57.8658C170.452 58.0108 170.123 58.2477 169.852 58.5763C169.582 58.905 169.446 59.3352 169.446 59.8668V69.4658H165.227V59.7218C165.227 59.2675 165.106 58.8857 164.864 58.5763C164.623 58.267 164.318 58.035 163.951 57.8803C163.593 57.716 163.226 57.6338 162.849 57.6338C162.462 57.6338 162.075 57.716 161.689 57.8803C161.302 58.035 160.978 58.2815 160.717 58.6198C160.456 58.9485 160.326 59.3642 160.326 59.8668V69.4658H156.092ZM188.601 69.7558C187.132 69.7558 185.851 69.4417 184.759 68.8133C183.676 68.185 182.835 67.2957 182.236 66.1453C181.646 64.995 181.351 63.632 181.351 62.0563C181.351 60.4807 181.646 59.1032 182.236 57.9238C182.835 56.7445 183.676 55.8262 184.759 55.1688C185.851 54.5115 187.137 54.1828 188.616 54.1828C190.095 54.1828 191.375 54.5067 192.458 55.1543C193.541 55.7923 194.377 56.701 194.967 57.8803C195.556 59.0597 195.851 60.4517 195.851 62.0563C195.851 63.5643 195.561 64.8983 194.981 66.0583C194.411 67.2087 193.584 68.1125 192.502 68.7698C191.429 69.4272 190.128 69.7558 188.601 69.7558ZM188.616 66.6093C189.36 66.6093 189.959 66.3918 190.414 65.9568C190.868 65.5218 191.197 64.9515 191.4 64.2458C191.603 63.5305 191.704 62.7523 191.704 61.9113C191.704 61.1187 191.612 60.3695 191.429 59.6638C191.245 58.9582 190.926 58.3878 190.472 57.9528C190.017 57.5178 189.399 57.3003 188.616 57.3003C187.871 57.3003 187.267 57.5082 186.803 57.9238C186.349 58.3298 186.015 58.8857 185.803 59.5913C185.59 60.2873 185.484 61.0607 185.484 61.9113C185.484 62.6943 185.58 63.4483 185.774 64.1733C185.967 64.8887 186.291 65.4735 186.745 65.9278C187.199 66.3822 187.823 66.6093 188.616 66.6093ZM202.494 69.4658L196.868 54.4728H200.696L203.973 64.0283H204.089L207.323 54.4728H211.194L205.568 69.4658H202.494ZM217.297 69.7558C216.35 69.7558 215.49 69.577 214.716 69.2193C213.953 68.8617 213.348 68.3445 212.904 67.6678C212.459 66.9815 212.237 66.1502 212.237 65.1738C212.237 63.5305 212.851 62.2835 214.078 61.4328C215.306 60.5725 217.244 60.1278 219.893 60.0988L221.778 60.0698V59.1708C221.778 58.4845 221.575 57.9577 221.169 57.5903C220.772 57.2133 220.149 57.0297 219.298 57.0393C218.689 57.049 218.104 57.194 217.544 57.4743C216.993 57.7547 216.611 58.2428 216.398 58.9388H212.875C212.933 57.8562 213.247 56.9668 213.817 56.2708C214.397 55.5652 215.175 55.0432 216.152 54.7048C217.128 54.3568 218.245 54.1828 219.501 54.1828C221.029 54.1828 222.256 54.3762 223.184 54.7628C224.112 55.1398 224.784 55.686 225.2 56.4013C225.625 57.107 225.838 57.948 225.838 58.9243V69.4658H222.3L221.952 66.8848C221.439 67.9675 220.797 68.7167 220.023 69.1323C219.26 69.548 218.351 69.7558 217.297 69.7558ZM218.733 66.9718C219.11 66.9718 219.477 66.9042 219.835 66.7688C220.202 66.6238 220.531 66.4353 220.821 66.2033C221.111 65.9617 221.338 65.691 221.502 65.3913C221.676 65.0917 221.768 64.7823 221.778 64.4633V62.2448L220.255 62.2738C219.55 62.2835 218.892 62.3705 218.283 62.5348C217.674 62.6895 217.181 62.9457 216.804 63.3033C216.437 63.661 216.253 64.1443 216.253 64.7533C216.253 65.4493 216.49 65.9955 216.964 66.3918C217.447 66.7785 218.037 66.9718 218.733 66.9718ZM234.056 69.7268C232.954 69.7268 232.08 69.5963 231.432 69.3353C230.784 69.0743 230.306 68.7312 229.996 68.3058C229.687 67.8708 229.489 67.3923 229.402 66.8703C229.315 66.3387 229.271 65.8022 229.271 65.2608V47.9188H233.418V64.7388C233.418 65.2898 233.534 65.7393 233.766 66.0873C234.008 66.4257 234.458 66.6335 235.115 66.7108L235.825 66.7543V69.3643C235.535 69.461 235.241 69.5432 234.941 69.6108C234.641 69.6882 234.346 69.7268 234.056 69.7268Z"
    fill="#3B3A48" />
</svg>
