<svg width="877" height="90" viewBox="0 0 877 90" fill="none" xmlns="http://www.w3.org/2000/svg">
  <path d="M0.5 5C0.5 2.23858 2.73858 0 5.5 0H410.853C412.487 0 414.018 0.798233 414.953 2.13789L442.877 42.1379C444.077 43.8572 444.077 46.1428 442.877 47.8621L414.953 87.8621C414.018 89.2018 412.487 90 410.853 90H5.50001C2.73859 90 0.5 87.7614 0.5 85V5Z" fill="#FDB81E" />
  <path d="M31.0654 33.5V20.486H35.8534C36.8014 20.486 37.6504 20.651 38.4004 20.981C39.1504 21.305 39.7414 21.785 40.1734 22.421C40.6114 23.057 40.8304 23.834 40.8304 24.752C40.8304 25.616 40.6384 26.354 40.2544 26.966C39.8704 27.578 39.3304 28.046 38.6344 28.37C37.9444 28.694 37.1314 28.856 36.1954 28.856H33.7114V33.5H31.0654ZM33.6844 26.822H36.1234C36.7834 26.822 37.3234 26.612 37.7434 26.192C38.1634 25.766 38.3734 25.241 38.3734 24.617C38.3734 23.969 38.1514 23.456 37.7074 23.078C37.2634 22.694 36.7234 22.502 36.0874 22.502H33.6844V26.822ZM42.4746 33.5V20.126H45.0846V25.535C45.2346 25.319 45.4236 25.106 45.6516 24.896C45.8796 24.68 46.1646 24.5 46.5066 24.356C46.8486 24.212 47.2656 24.14 47.7576 24.14C48.3516 24.14 48.8916 24.257 49.3776 24.491C49.8696 24.719 50.2626 25.052 50.5566 25.49C50.8566 25.928 51.0066 26.462 51.0066 27.092V33.5H48.3696V27.479C48.3696 27.059 48.2166 26.738 47.9106 26.516C47.6106 26.288 47.2446 26.174 46.8126 26.174C46.5306 26.174 46.2576 26.225 45.9936 26.327C45.7296 26.429 45.5136 26.585 45.3456 26.795C45.1836 26.999 45.1026 27.254 45.1026 27.56V33.5H42.4746ZM55.8372 33.68C55.2492 33.68 54.7152 33.569 54.2352 33.347C53.7612 33.125 53.3862 32.804 53.1102 32.384C52.8342 31.958 52.6962 31.442 52.6962 30.836C52.6962 29.816 53.0772 29.042 53.8392 28.514C54.6012 27.98 55.8042 27.704 57.4482 27.686L58.6182 27.668V27.11C58.6182 26.684 58.4922 26.357 58.2402 26.129C57.9942 25.895 57.6072 25.781 57.0792 25.787C56.7012 25.793 56.3382 25.883 55.9902 26.057C55.6482 26.231 55.4112 26.534 55.2792 26.966H53.0922C53.1282 26.294 53.3232 25.742 53.6772 25.31C54.0372 24.872 54.5202 24.548 55.1262 24.338C55.7322 24.122 56.4252 24.014 57.2052 24.014C58.1532 24.014 58.9152 24.134 59.4912 24.374C60.0672 24.608 60.4842 24.947 60.7422 25.391C61.0062 25.829 61.1382 26.351 61.1382 26.957V33.5H58.9422L58.7262 31.898C58.4082 32.57 58.0092 33.035 57.5292 33.293C57.0552 33.551 56.4912 33.68 55.8372 33.68ZM56.7282 31.952C56.9622 31.952 57.1902 31.91 57.4122 31.826C57.6402 31.736 57.8442 31.619 58.0242 31.475C58.2042 31.325 58.3452 31.157 58.4472 30.971C58.5552 30.785 58.6122 30.593 58.6182 30.395V29.018L57.6732 29.036C57.2352 29.042 56.8272 29.096 56.4492 29.198C56.0712 29.294 55.7652 29.453 55.5312 29.675C55.3032 29.897 55.1892 30.197 55.1892 30.575C55.1892 31.007 55.3362 31.346 55.6302 31.592C55.9302 31.832 56.2962 31.952 56.7282 31.952ZM66.9256 33.68C66.2776 33.68 65.6536 33.575 65.0536 33.365C64.4596 33.149 63.9526 32.813 63.5326 32.357C63.1186 31.895 62.8576 31.298 62.7496 30.566H65.0176C65.1016 30.896 65.2456 31.157 65.4496 31.349C65.6596 31.541 65.8966 31.679 66.1606 31.763C66.4246 31.841 66.6766 31.88 66.9166 31.88C67.4206 31.88 67.8256 31.802 68.1316 31.646C68.4436 31.484 68.5996 31.238 68.5996 30.908C68.5996 30.656 68.5066 30.455 68.3206 30.305C68.1406 30.155 67.8406 30.041 67.4206 29.963L65.7826 29.621C64.9606 29.447 64.2976 29.153 63.7936 28.739C63.2956 28.319 63.0436 27.725 63.0376 26.957C63.0316 26.399 63.1756 25.898 63.4696 25.454C63.7696 25.01 64.2106 24.659 64.7926 24.401C65.3806 24.143 66.0976 24.014 66.9436 24.014C68.0896 24.014 69.0046 24.266 69.6886 24.77C70.3786 25.274 70.7296 25.985 70.7416 26.903H68.5456C68.4796 26.543 68.2996 26.267 68.0056 26.075C67.7176 25.877 67.3516 25.778 66.9076 25.778C66.4576 25.778 66.0856 25.859 65.7916 26.021C65.4976 26.183 65.3506 26.429 65.3506 26.759C65.3506 27.005 65.4706 27.2 65.7106 27.344C65.9506 27.482 66.3226 27.602 66.8266 27.704L68.3386 28.046C68.8606 28.172 69.2836 28.346 69.6076 28.568C69.9376 28.784 70.1926 29.021 70.3726 29.279C70.5526 29.537 70.6756 29.798 70.7416 30.062C70.8136 30.32 70.8496 30.554 70.8496 30.764C70.8496 31.382 70.6846 31.91 70.3546 32.348C70.0246 32.78 69.5656 33.11 68.9776 33.338C68.3896 33.566 67.7056 33.68 66.9256 33.68ZM76.9488 33.68C76.0248 33.68 75.2118 33.488 74.5098 33.104C73.8138 32.714 73.2708 32.165 72.8808 31.457C72.4908 30.749 72.2958 29.915 72.2958 28.955C72.2958 28.025 72.4728 27.188 72.8268 26.444C73.1868 25.694 73.7028 25.103 74.3748 24.671C75.0468 24.233 75.8598 24.014 76.8138 24.014C77.7618 24.014 78.5568 24.215 79.1988 24.617C79.8408 25.013 80.3268 25.568 80.6568 26.282C80.9868 26.99 81.1518 27.809 81.1518 28.739V29.45H74.8968C74.8968 29.924 74.9748 30.338 75.1308 30.692C75.2868 31.04 75.5118 31.31 75.8058 31.502C76.1058 31.688 76.4658 31.781 76.8858 31.781C77.3358 31.781 77.7288 31.685 78.0648 31.493C78.4008 31.301 78.6378 30.986 78.7758 30.548H81.1428C81.0348 31.208 80.7708 31.772 80.3508 32.24C79.9308 32.708 79.4208 33.065 78.8208 33.311C78.2208 33.557 77.5968 33.68 76.9488 33.68ZM74.8968 27.884H78.6948C78.6948 27.512 78.6228 27.17 78.4788 26.858C78.3408 26.546 78.1308 26.3 77.8488 26.12C77.5728 25.94 77.2248 25.85 76.8048 25.85C76.4028 25.85 76.0578 25.949 75.7698 26.147C75.4878 26.339 75.2688 26.591 75.1128 26.903C74.9628 27.215 74.8908 27.542 74.8968 27.884ZM89.0237 33.5V23.753H86.7017V22.268C87.4457 22.268 88.0457 22.199 88.5017 22.061C88.9637 21.917 89.3087 21.713 89.5367 21.449C89.7647 21.179 89.8997 20.858 89.9417 20.486H91.6877V33.5H89.0237Z" fill="#3B3A48" />
  <path
    d="M31.9564 68.5V47.533H36.1759V55.943H45.3544V47.533H49.5884V68.5H45.3544V59.4955H36.1759V68.5H31.9564ZM58.1595 68.79C57.2122 68.79 56.3518 68.6112 55.5785 68.2535C54.8148 67.8958 54.2107 67.3787 53.766 66.702C53.3213 66.0157 53.099 65.1843 53.099 64.208C53.099 62.5647 53.7128 61.3177 54.9405 60.467C56.1682 59.6067 58.1063 59.162 60.755 59.133L62.64 59.104V58.205C62.64 57.5187 62.437 56.9918 62.031 56.6245C61.6347 56.2475 61.0112 56.0638 60.1605 56.0735C59.5515 56.0832 58.9667 56.2282 58.406 56.5085C57.855 56.7888 57.4732 57.277 57.2605 57.973H53.737C53.795 56.8903 54.1092 56.001 54.6795 55.305C55.2595 54.5993 56.0377 54.0773 57.014 53.739C57.9903 53.391 59.1068 53.217 60.3635 53.217C61.8908 53.217 63.1185 53.4103 64.0465 53.797C64.9745 54.174 65.6463 54.7202 66.062 55.4355C66.4873 56.1412 66.7 56.9822 66.7 57.9585V68.5H63.162L62.814 65.919C62.3017 67.0017 61.6588 67.7508 60.8855 68.1665C60.1218 68.5822 59.2132 68.79 58.1595 68.79ZM59.595 66.006C59.972 66.006 60.3393 65.9383 60.697 65.803C61.0643 65.658 61.393 65.4695 61.683 65.2375C61.973 64.9958 62.2002 64.7252 62.3645 64.4255C62.5385 64.1258 62.6303 63.8165 62.64 63.4975V61.279L61.1175 61.308C60.4118 61.3177 59.7545 61.4047 59.1455 61.569C58.5365 61.7237 58.0435 61.9798 57.6665 62.3375C57.2992 62.6952 57.1155 63.1785 57.1155 63.7875C57.1155 64.4835 57.3523 65.0297 57.826 65.426C58.3093 65.8127 58.899 66.006 59.595 66.006ZM69.1215 68.5V66.1365L76.5165 56.465H69.4985V53.507H81.6495V55.8705L74.24 65.542H81.693V68.5H69.1215ZM89.1703 68.79C88.2229 68.79 87.3626 68.6112 86.5893 68.2535C85.8256 67.8958 85.2214 67.3787 84.7768 66.702C84.3321 66.0157 84.1098 65.1843 84.1098 64.208C84.1098 62.5647 84.7236 61.3177 85.9513 60.467C87.1789 59.6067 89.1171 59.162 91.7658 59.133L93.6508 59.104V58.205C93.6508 57.5187 93.4478 56.9918 93.0418 56.6245C92.6454 56.2475 92.0219 56.0638 91.1713 56.0735C90.5623 56.0832 89.9774 56.2282 89.4168 56.5085C88.8658 56.7888 88.4839 57.277 88.2713 57.973H84.7478C84.8058 56.8903 85.1199 56.001 85.6903 55.305C86.2703 54.5993 87.0484 54.0773 88.0248 53.739C89.0011 53.391 90.1176 53.217 91.3743 53.217C92.9016 53.217 94.1293 53.4103 95.0573 53.797C95.9853 54.174 96.6571 54.7202 97.0728 55.4355C97.4981 56.1412 97.7108 56.9822 97.7108 57.9585V68.5H94.1728L93.8248 65.919C93.3124 67.0017 92.6696 67.7508 91.8963 68.1665C91.1326 68.5822 90.2239 68.79 89.1703 68.79ZM90.6058 66.006C90.9828 66.006 91.3501 65.9383 91.7078 65.803C92.0751 65.658 92.4038 65.4695 92.6938 65.2375C92.9838 64.9958 93.2109 64.7252 93.3753 64.4255C93.5493 64.1258 93.6411 63.8165 93.6508 63.4975V61.279L92.1283 61.308C91.4226 61.3177 90.7653 61.4047 90.1562 61.569C89.5473 61.7237 89.0543 61.9798 88.6773 62.3375C88.3099 62.6952 88.1263 63.1785 88.1263 63.7875C88.1263 64.4835 88.3631 65.0297 88.8368 65.426C89.3201 65.8127 89.9098 66.006 90.6058 66.006ZM101.145 68.5V53.507H105.219V57.0595C105.461 56.2958 105.799 55.6288 106.234 55.0585C106.679 54.4785 107.215 54.029 107.844 53.71C108.472 53.3813 109.182 53.217 109.975 53.217C110.11 53.217 110.236 53.2267 110.352 53.246C110.478 53.2557 110.57 53.275 110.628 53.304V57.335C110.541 57.2963 110.434 57.2722 110.309 57.2625C110.193 57.2528 110.086 57.2432 109.99 57.2335C109.158 57.1658 108.448 57.19 107.858 57.306C107.268 57.422 106.79 57.6202 106.423 57.9005C106.055 58.1808 105.789 58.524 105.625 58.93C105.461 59.336 105.379 59.7903 105.379 60.293V68.5H101.145ZM118.737 68.79C116.726 68.79 115.16 68.0988 114.039 66.7165C112.918 65.3245 112.357 63.3912 112.357 60.9165C112.357 59.3505 112.584 57.9923 113.038 56.842C113.493 55.6917 114.165 54.8023 115.054 54.174C115.943 53.536 117.031 53.217 118.316 53.217C118.858 53.217 119.36 53.2798 119.824 53.4055C120.298 53.5215 120.728 53.6858 121.115 53.8985C121.502 54.1112 121.84 54.3577 122.13 54.638C122.42 54.9183 122.657 55.218 122.84 55.537V46.953H127.089V68.5H124.015L123.536 65.426C123.391 65.8417 123.198 66.2477 122.956 66.644C122.724 67.0403 122.42 67.4028 122.043 67.7315C121.666 68.0505 121.202 68.3067 120.651 68.5C120.11 68.6933 119.472 68.79 118.737 68.79ZM119.665 65.745C120.728 65.745 121.521 65.3728 122.043 64.6285C122.575 63.8842 122.84 62.6275 122.84 60.8585C122.831 59.8338 122.71 58.9832 122.478 58.3065C122.246 57.6298 121.898 57.1272 121.434 56.7985C120.98 56.4602 120.4 56.291 119.694 56.291C118.776 56.291 118.012 56.6438 117.403 57.3495C116.794 58.0455 116.489 59.2152 116.489 60.8585C116.489 62.5308 116.775 63.7633 117.345 64.556C117.915 65.3487 118.689 65.745 119.665 65.745ZM137.25 68.79C135.781 68.79 134.5 68.4758 133.408 67.8475C132.325 67.2192 131.484 66.3298 130.885 65.1795C130.295 64.0292 130 62.6662 130 61.0905C130 59.5148 130.295 58.1373 130.885 56.958C131.484 55.7787 132.325 54.8603 133.408 54.203C134.5 53.5457 135.786 53.217 137.265 53.217C138.744 53.217 140.025 53.5408 141.107 54.1885C142.19 54.8265 143.026 55.7352 143.616 56.9145C144.206 58.0938 144.5 59.4858 144.5 61.0905C144.5 62.5985 144.21 63.9325 143.63 65.0925C143.06 66.2428 142.234 67.1467 141.151 67.804C140.078 68.4613 138.778 68.79 137.25 68.79ZM137.265 65.6435C138.009 65.6435 138.609 65.426 139.063 64.991C139.517 64.556 139.846 63.9857 140.049 63.28C140.252 62.5647 140.353 61.7865 140.353 60.9455C140.353 60.1528 140.262 59.4037 140.078 58.698C139.894 57.9923 139.575 57.422 139.121 56.987C138.667 56.552 138.048 56.3345 137.265 56.3345C136.521 56.3345 135.916 56.5423 135.452 56.958C134.998 57.364 134.665 57.9198 134.452 58.6255C134.239 59.3215 134.133 60.0948 134.133 60.9455C134.133 61.7285 134.23 62.4825 134.423 63.2075C134.616 63.9228 134.94 64.5077 135.394 64.962C135.849 65.4163 136.472 65.6435 137.265 65.6435ZM152.803 68.79C152.107 68.79 151.42 68.6837 150.744 68.471C150.077 68.2583 149.468 67.9442 148.917 67.5285C148.366 67.1128 147.921 66.6005 147.583 65.9915C147.254 65.3825 147.09 64.6768 147.09 63.8745V53.507H151.324V63.338C151.324 64.034 151.551 64.6043 152.005 65.049C152.46 65.4937 153.127 65.716 154.006 65.716C154.838 65.716 155.495 65.5033 155.978 65.078C156.471 64.643 156.718 64.0388 156.718 63.2655V53.507H160.908V68.5H157.718L157.225 65.5275C157.051 66.4072 156.723 67.0838 156.239 67.5575C155.766 68.0215 155.219 68.3405 154.601 68.5145C153.992 68.6982 153.392 68.79 152.803 68.79ZM170.557 68.79C169.513 68.79 168.508 68.6208 167.541 68.2825C166.584 67.9345 165.768 67.3932 165.091 66.6585C164.424 65.9142 164.003 64.9523 163.829 63.773H167.483C167.619 64.3047 167.851 64.7252 168.179 65.0345C168.518 65.3438 168.9 65.5662 169.325 65.7015C169.75 65.8272 170.156 65.89 170.543 65.89C171.355 65.89 172.007 65.7643 172.5 65.513C173.003 65.252 173.254 64.8557 173.254 64.324C173.254 63.918 173.105 63.5942 172.805 63.3525C172.515 63.1108 172.032 62.9272 171.355 62.8015L168.716 62.2505C167.392 61.9702 166.323 61.4965 165.511 60.8295C164.709 60.1528 164.303 59.1958 164.293 57.9585C164.284 57.0595 164.516 56.2523 164.989 55.537C165.473 54.8217 166.183 54.2562 167.121 53.8405C168.068 53.4248 169.223 53.217 170.586 53.217C172.433 53.217 173.907 53.623 175.009 54.435C176.121 55.247 176.686 56.3925 176.705 57.8715H173.167C173.061 57.2915 172.771 56.8468 172.297 56.5375C171.833 56.2185 171.244 56.059 170.528 56.059C169.803 56.059 169.204 56.1895 168.73 56.4505C168.257 56.7115 168.02 57.1078 168.02 57.6395C168.02 58.0358 168.213 58.35 168.6 58.582C168.987 58.8043 169.586 58.9977 170.398 59.162L172.834 59.713C173.675 59.916 174.356 60.1963 174.878 60.554C175.41 60.902 175.821 61.2838 176.111 61.6995C176.401 62.1152 176.599 62.5357 176.705 62.961C176.821 63.3767 176.879 63.7537 176.879 64.092C176.879 65.0877 176.614 65.9383 176.082 66.644C175.55 67.34 174.811 67.8717 173.863 68.239C172.916 68.6063 171.814 68.79 170.557 68.79ZM189.557 68.5L184.7 53.507H188.441L191.312 62.8015H191.413L194.168 53.507H197.199L199.983 62.8015H200.099L202.883 53.507H206.711L201.781 68.5H198.402L195.618 59.423L192.82 68.5H189.557ZM212.845 68.79C211.898 68.79 211.037 68.6112 210.264 68.2535C209.5 67.8958 208.896 67.3787 208.452 66.702C208.007 66.0157 207.785 65.1843 207.785 64.208C207.785 62.5647 208.398 61.3177 209.626 60.467C210.854 59.6067 212.792 59.162 215.441 59.133L217.326 59.104V58.205C217.326 57.5187 217.123 56.9918 216.717 56.6245C216.32 56.2475 215.697 56.0638 214.846 56.0735C214.237 56.0832 213.652 56.2282 213.092 56.5085C212.541 56.7888 212.159 57.277 211.946 57.973H208.423C208.481 56.8903 208.795 56.001 209.365 55.305C209.945 54.5993 210.723 54.0773 211.7 53.739C212.676 53.391 213.792 53.217 215.049 53.217C216.576 53.217 217.804 53.4103 218.732 53.797C219.66 54.174 220.332 54.7202 220.748 55.4355C221.173 56.1412 221.386 56.9822 221.386 57.9585V68.5H217.848L217.5 65.919C216.987 67.0017 216.344 67.7508 215.571 68.1665C214.807 68.5822 213.899 68.79 212.845 68.79ZM214.281 66.006C214.658 66.006 215.025 65.9383 215.383 65.803C215.75 65.658 216.079 65.4695 216.369 65.2375C216.659 64.9958 216.886 64.7252 217.05 64.4255C217.224 64.1258 217.316 63.8165 217.326 63.4975V61.279L215.803 61.308C215.097 61.3177 214.44 61.4047 213.831 61.569C213.222 61.7237 212.729 61.9798 212.352 62.3375C211.985 62.6952 211.801 63.1785 211.801 63.7875C211.801 64.4835 212.038 65.0297 212.512 65.426C212.995 65.8127 213.585 66.006 214.281 66.006ZM230.71 68.79C229.666 68.79 228.66 68.6208 227.694 68.2825C226.737 67.9345 225.92 67.3932 225.243 66.6585C224.576 65.9142 224.156 64.9523 223.982 63.773H227.636C227.771 64.3047 228.003 64.7252 228.332 65.0345C228.67 65.3438 229.052 65.5662 229.477 65.7015C229.903 65.8272 230.309 65.89 230.695 65.89C231.507 65.89 232.16 65.7643 232.653 65.513C233.155 65.252 233.407 64.8557 233.407 64.324C233.407 63.918 233.257 63.5942 232.957 63.3525C232.667 63.1108 232.184 62.9272 231.507 62.8015L228.868 62.2505C227.544 61.9702 226.476 61.4965 225.664 60.8295C224.861 60.1528 224.455 59.1958 224.446 57.9585C224.436 57.0595 224.668 56.2523 225.142 55.537C225.625 54.8217 226.336 54.2562 227.273 53.8405C228.221 53.4248 229.376 53.217 230.739 53.217C232.585 53.217 234.059 53.623 235.161 54.435C236.273 55.247 236.838 56.3925 236.858 57.8715H233.32C233.213 57.2915 232.923 56.8468 232.45 56.5375C231.986 56.2185 231.396 56.059 230.681 56.059C229.956 56.059 229.356 56.1895 228.883 56.4505C228.409 56.7115 228.172 57.1078 228.172 57.6395C228.172 58.0358 228.366 58.35 228.752 58.582C229.139 58.8043 229.738 58.9977 230.55 59.162L232.986 59.713C233.827 59.916 234.509 60.1963 235.031 60.554C235.562 60.902 235.973 61.2838 236.263 61.6995C236.553 62.1152 236.751 62.5357 236.858 62.961C236.974 63.3767 237.032 63.7537 237.032 64.092C237.032 65.0877 236.766 65.9383 236.234 66.644C235.703 67.34 234.963 67.8717 234.016 68.239C233.068 68.6063 231.966 68.79 230.71 68.79ZM246.381 68.6595C245.057 68.6595 244.032 68.4903 243.307 68.152C242.592 67.8137 242.094 67.34 241.814 66.731C241.543 66.122 241.408 65.4163 241.408 64.614V56.4505H238.972V53.507H241.538L242.611 48.983H245.627V53.4925H248.962V56.4505H245.627L245.656 64.44C245.656 64.8073 245.7 65.0828 245.787 65.2665C245.883 65.4405 246.028 65.5565 246.222 65.6145C246.425 65.6628 246.681 65.687 246.99 65.687H249.006V68.297C248.803 68.384 248.498 68.4662 248.092 68.5435C247.686 68.6208 247.116 68.6595 246.381 68.6595ZM258.385 68.79C256.896 68.79 255.586 68.4807 254.455 67.862C253.334 67.2337 252.459 66.3492 251.831 65.2085C251.202 64.0678 250.888 62.7242 250.888 61.1775C250.888 59.6792 251.173 58.3307 251.744 57.132C252.324 55.9237 253.155 54.9715 254.238 54.2755C255.32 53.5698 256.63 53.217 258.167 53.217C259.694 53.217 260.975 53.5408 262.01 54.1885C263.044 54.8265 263.827 55.7207 264.359 56.871C264.89 58.0117 265.156 59.3312 265.156 60.8295V61.975H255.079C255.079 62.7387 255.204 63.4057 255.456 63.976C255.707 64.5367 256.069 64.9717 256.543 65.281C257.026 65.5807 257.606 65.7305 258.283 65.7305C259.008 65.7305 259.641 65.5758 260.183 65.2665C260.724 64.9572 261.106 64.4497 261.328 63.744H265.142C264.968 64.8073 264.542 65.716 263.866 66.47C263.189 67.224 262.367 67.7992 261.401 68.1955C260.434 68.5918 259.429 68.79 258.385 68.79ZM255.079 59.452H261.198C261.198 58.8527 261.082 58.3017 260.85 57.799C260.627 57.2963 260.289 56.9 259.835 56.61C259.39 56.32 258.829 56.175 258.153 56.175C257.505 56.175 256.949 56.3345 256.485 56.6535C256.031 56.9628 255.678 57.3688 255.427 57.8715C255.185 58.3742 255.069 58.901 255.079 59.452ZM281.018 68.79C279.626 68.79 278.384 68.4807 277.292 67.862C276.199 67.2433 275.339 66.3588 274.711 65.2085C274.092 64.0485 273.783 62.6662 273.783 61.0615C273.783 59.5148 274.082 58.1518 274.682 56.9725C275.281 55.7932 276.122 54.8748 277.205 54.2175C278.297 53.5505 279.568 53.217 281.018 53.217C282.275 53.217 283.357 53.4732 284.266 53.9855C285.184 54.4978 285.905 55.189 286.427 56.059C286.958 56.929 287.263 57.9005 287.34 58.9735H283.817C283.749 58.5772 283.609 58.1857 283.396 57.799C283.183 57.4027 282.884 57.0788 282.497 56.8275C282.11 56.5665 281.627 56.436 281.047 56.436C280.061 56.436 279.259 56.8178 278.64 57.5815C278.031 58.3355 277.727 59.4858 277.727 61.0325C277.727 62.4922 278.026 63.6522 278.626 64.5125C279.225 65.3632 280.061 65.7885 281.134 65.7885C281.704 65.7885 282.178 65.6483 282.555 65.368C282.942 65.0877 283.241 64.7542 283.454 64.3675C283.667 63.9712 283.802 63.6038 283.86 63.2655H287.297C287.229 64.2998 286.929 65.2375 286.398 66.0785C285.866 66.9098 285.141 67.572 284.223 68.065C283.314 68.5483 282.246 68.79 281.018 68.79ZM295.053 68.761C293.951 68.761 293.076 68.6305 292.428 68.3695C291.78 68.1085 291.302 67.7653 290.993 67.34C290.683 66.905 290.485 66.4265 290.398 65.9045C290.311 65.3728 290.268 64.8363 290.268 64.295V46.953H294.415V63.773C294.415 64.324 294.531 64.7735 294.763 65.1215C295.004 65.4598 295.454 65.6677 296.111 65.745L296.822 65.7885V68.3985C296.532 68.4952 296.237 68.5773 295.937 68.645C295.637 68.7223 295.343 68.761 295.053 68.761ZM305.821 68.79C304.332 68.79 303.023 68.4807 301.892 67.862C300.77 67.2337 299.895 66.3492 299.267 65.2085C298.639 64.0678 298.325 62.7242 298.325 61.1775C298.325 59.6792 298.61 58.3307 299.18 57.132C299.76 55.9237 300.591 54.9715 301.674 54.2755C302.757 53.5698 304.067 53.217 305.604 53.217C307.131 53.217 308.412 53.5408 309.446 54.1885C310.48 54.8265 311.263 55.7207 311.795 56.871C312.327 58.0117 312.593 59.3312 312.593 60.8295V61.975H302.515C302.515 62.7387 302.641 63.4057 302.892 63.976C303.143 64.5367 303.506 64.9717 303.98 65.281C304.463 65.5807 305.043 65.7305 305.72 65.7305C306.445 65.7305 307.078 65.5758 307.619 65.2665C308.16 64.9572 308.542 64.4497 308.765 63.744H312.578C312.404 64.8073 311.979 65.716 311.302 66.47C310.625 67.224 309.804 67.7992 308.837 68.1955C307.87 68.5918 306.865 68.79 305.821 68.79ZM302.515 59.452H308.634C308.634 58.8527 308.518 58.3017 308.286 57.799C308.064 57.2963 307.725 56.9 307.271 56.61C306.826 56.32 306.266 56.175 305.589 56.175C304.941 56.175 304.386 56.3345 303.922 56.6535C303.467 56.9628 303.114 57.3688 302.863 57.8715C302.621 58.3742 302.505 58.901 302.515 59.452ZM320.009 68.79C319.062 68.79 318.201 68.6112 317.428 68.2535C316.664 67.8958 316.06 67.3787 315.616 66.702C315.171 66.0157 314.949 65.1843 314.949 64.208C314.949 62.5647 315.562 61.3177 316.79 60.467C318.018 59.6067 319.956 59.162 322.605 59.133L324.49 59.104V58.205C324.49 57.5187 324.287 56.9918 323.881 56.6245C323.484 56.2475 322.861 56.0638 322.01 56.0735C321.401 56.0832 320.816 56.2282 320.256 56.5085C319.705 56.7888 319.323 57.277 319.11 57.973H315.587C315.645 56.8903 315.959 56.001 316.529 55.305C317.109 54.5993 317.887 54.0773 318.864 53.739C319.84 53.391 320.956 53.217 322.213 53.217C323.74 53.217 324.968 53.4103 325.896 53.797C326.824 54.174 327.496 54.7202 327.912 55.4355C328.337 56.1412 328.55 56.9822 328.55 57.9585V68.5H325.012L324.664 65.919C324.151 67.0017 323.508 67.7508 322.735 68.1665C321.971 68.5822 321.063 68.79 320.009 68.79ZM321.445 66.006C321.822 66.006 322.189 65.9383 322.547 65.803C322.914 65.658 323.243 65.4695 323.533 65.2375C323.823 64.9958 324.05 64.7252 324.214 64.4255C324.388 64.1258 324.48 63.8165 324.49 63.4975V61.279L322.967 61.308C322.261 61.3177 321.604 61.4047 320.995 61.569C320.386 61.7237 319.893 61.9798 319.516 62.3375C319.149 62.6952 318.965 63.1785 318.965 63.7875C318.965 64.4835 319.202 65.0297 319.676 65.426C320.159 65.8127 320.749 66.006 321.445 66.006ZM331.983 68.5V53.507H336.145V55.624C336.377 55.2567 336.677 54.9038 337.044 54.5655C337.421 54.2175 337.895 53.9323 338.465 53.71C339.035 53.4877 339.712 53.3765 340.495 53.3765C341.413 53.3765 342.269 53.5553 343.061 53.913C343.864 54.2707 344.511 54.8362 345.004 55.6095C345.497 56.3732 345.744 57.3737 345.744 58.611V68.5H341.51V59.133C341.51 58.321 341.268 57.712 340.785 57.306C340.302 56.9 339.712 56.697 339.016 56.697C338.552 56.697 338.102 56.7792 337.667 56.9435C337.242 57.1078 336.894 57.3543 336.623 57.683C336.353 58.0117 336.217 58.4177 336.217 58.901V68.5H331.983ZM354.698 68.79C354.002 68.79 353.316 68.6837 352.639 68.471C351.972 68.2583 351.363 67.9442 350.812 67.5285C350.261 67.1128 349.817 66.6005 349.478 65.9915C349.15 65.3825 348.985 64.6768 348.985 63.8745V53.507H353.219V63.338C353.219 64.034 353.446 64.6043 353.901 65.049C354.355 65.4937 355.022 65.716 355.902 65.716C356.733 65.716 357.39 65.5033 357.874 65.078C358.367 64.643 358.613 64.0388 358.613 63.2655V53.507H362.804V68.5H359.614L359.121 65.5275C358.947 66.4072 358.618 67.0838 358.135 67.5575C357.661 68.0215 357.115 68.3405 356.496 68.5145C355.887 68.6982 355.288 68.79 354.698 68.79ZM366.506 73.169V53.507H370.754L370.769 55.6675C370.991 55.3098 371.262 54.986 371.581 54.696C371.91 54.3963 372.272 54.1353 372.668 53.913C373.065 53.6907 373.495 53.5215 373.959 53.4055C374.423 53.2798 374.911 53.217 375.423 53.217C376.535 53.217 377.526 53.4925 378.396 54.0435C379.266 54.5848 379.947 55.4258 380.44 56.5665C380.943 57.6975 381.194 59.1378 381.194 60.8875C381.194 62.7048 380.924 64.1983 380.382 65.368C379.851 66.528 379.116 67.3883 378.178 67.949C377.241 68.5097 376.182 68.79 375.003 68.79C374.52 68.79 374.065 68.7223 373.64 68.587C373.215 68.4613 372.818 68.2825 372.451 68.0505C372.093 67.8185 371.769 67.5527 371.479 67.253C371.199 66.9437 370.953 66.6102 370.74 66.2525V73.169H366.506ZM373.988 65.687C374.906 65.687 375.675 65.3052 376.293 64.5415C376.922 63.7778 377.236 62.5695 377.236 60.9165C377.236 59.4665 376.936 58.3355 376.337 57.5235C375.747 56.7018 374.964 56.291 373.988 56.291C372.896 56.291 372.079 56.7357 371.537 57.625C371.006 58.5047 370.74 59.6018 370.74 60.9165C370.74 61.7575 370.856 62.5405 371.088 63.2655C371.33 63.9905 371.687 64.5753 372.161 65.02C372.644 65.4647 373.253 65.687 373.988 65.687Z"
    fill="#3B3A48" />
  <path d="M876.383 5C876.383 2.23858 874.144 0 871.383 0H453.196C449.154 0 446.782 4.54765 449.096 7.86211L473.024 42.1379C474.225 43.8572 474.225 46.1428 473.024 47.8621L449.096 82.1379C446.782 85.4523 449.154 90 453.196 90H871.383C874.144 90 876.383 87.7614 876.383 85V5Z" fill="#7BB0DA" />
  <path d="M499.903 33.5V20.486H504.691C505.639 20.486 506.488 20.651 507.238 20.981C507.988 21.305 508.579 21.785 509.011 22.421C509.449 23.057 509.668 23.834 509.668 24.752C509.668 25.616 509.476 26.354 509.092 26.966C508.708 27.578 508.168 28.046 507.472 28.37C506.782 28.694 505.969 28.856 505.033 28.856H502.549V33.5H499.903ZM502.522 26.822H504.961C505.621 26.822 506.161 26.612 506.581 26.192C507.001 25.766 507.211 25.241 507.211 24.617C507.211 23.969 506.989 23.456 506.545 23.078C506.101 22.694 505.561 22.502 504.925 22.502H502.522V26.822ZM511.312 33.5V20.126H513.923V25.535C514.073 25.319 514.262 25.106 514.49 24.896C514.718 24.68 515.003 24.5 515.345 24.356C515.687 24.212 516.104 24.14 516.596 24.14C517.19 24.14 517.73 24.257 518.216 24.491C518.708 24.719 519.101 25.052 519.395 25.49C519.695 25.928 519.845 26.462 519.845 27.092V33.5H517.208V27.479C517.208 27.059 517.055 26.738 516.749 26.516C516.449 26.288 516.083 26.174 515.651 26.174C515.369 26.174 515.096 26.225 514.832 26.327C514.568 26.429 514.352 26.585 514.184 26.795C514.022 26.999 513.941 27.254 513.941 27.56V33.5H511.312ZM524.675 33.68C524.087 33.68 523.553 33.569 523.073 33.347C522.599 33.125 522.224 32.804 521.948 32.384C521.672 31.958 521.534 31.442 521.534 30.836C521.534 29.816 521.915 29.042 522.677 28.514C523.439 27.98 524.642 27.704 526.286 27.686L527.456 27.668V27.11C527.456 26.684 527.33 26.357 527.078 26.129C526.832 25.895 526.445 25.781 525.917 25.787C525.539 25.793 525.176 25.883 524.828 26.057C524.486 26.231 524.249 26.534 524.117 26.966H521.93C521.966 26.294 522.161 25.742 522.515 25.31C522.875 24.872 523.358 24.548 523.964 24.338C524.57 24.122 525.263 24.014 526.043 24.014C526.991 24.014 527.753 24.134 528.329 24.374C528.905 24.608 529.322 24.947 529.58 25.391C529.844 25.829 529.976 26.351 529.976 26.957V33.5H527.78L527.564 31.898C527.246 32.57 526.847 33.035 526.367 33.293C525.893 33.551 525.329 33.68 524.675 33.68ZM525.566 31.952C525.8 31.952 526.028 31.91 526.25 31.826C526.478 31.736 526.682 31.619 526.862 31.475C527.042 31.325 527.183 31.157 527.285 30.971C527.393 30.785 527.45 30.593 527.456 30.395V29.018L526.511 29.036C526.073 29.042 525.665 29.096 525.287 29.198C524.909 29.294 524.603 29.453 524.369 29.675C524.141 29.897 524.027 30.197 524.027 30.575C524.027 31.007 524.174 31.346 524.468 31.592C524.768 31.832 525.134 31.952 525.566 31.952ZM535.764 33.68C535.116 33.68 534.492 33.575 533.892 33.365C533.298 33.149 532.791 32.813 532.371 32.357C531.957 31.895 531.696 31.298 531.588 30.566H533.856C533.94 30.896 534.084 31.157 534.288 31.349C534.498 31.541 534.735 31.679 534.999 31.763C535.263 31.841 535.515 31.88 535.755 31.88C536.259 31.88 536.664 31.802 536.97 31.646C537.282 31.484 537.438 31.238 537.438 30.908C537.438 30.656 537.345 30.455 537.159 30.305C536.979 30.155 536.679 30.041 536.259 29.963L534.621 29.621C533.799 29.447 533.136 29.153 532.632 28.739C532.134 28.319 531.882 27.725 531.876 26.957C531.87 26.399 532.014 25.898 532.308 25.454C532.608 25.01 533.049 24.659 533.631 24.401C534.219 24.143 534.936 24.014 535.782 24.014C536.928 24.014 537.843 24.266 538.527 24.77C539.217 25.274 539.568 25.985 539.58 26.903H537.384C537.318 26.543 537.138 26.267 536.844 26.075C536.556 25.877 536.19 25.778 535.746 25.778C535.296 25.778 534.924 25.859 534.63 26.021C534.336 26.183 534.189 26.429 534.189 26.759C534.189 27.005 534.309 27.2 534.549 27.344C534.789 27.482 535.161 27.602 535.665 27.704L537.177 28.046C537.699 28.172 538.122 28.346 538.446 28.568C538.776 28.784 539.031 29.021 539.211 29.279C539.391 29.537 539.514 29.798 539.58 30.062C539.652 30.32 539.688 30.554 539.688 30.764C539.688 31.382 539.523 31.91 539.193 32.348C538.863 32.78 538.404 33.11 537.816 33.338C537.228 33.566 536.544 33.68 535.764 33.68ZM545.787 33.68C544.863 33.68 544.05 33.488 543.348 33.104C542.652 32.714 542.109 32.165 541.719 31.457C541.329 30.749 541.134 29.915 541.134 28.955C541.134 28.025 541.311 27.188 541.665 26.444C542.025 25.694 542.541 25.103 543.213 24.671C543.885 24.233 544.698 24.014 545.652 24.014C546.6 24.014 547.395 24.215 548.037 24.617C548.679 25.013 549.165 25.568 549.495 26.282C549.825 26.99 549.99 27.809 549.99 28.739V29.45H543.735C543.735 29.924 543.813 30.338 543.969 30.692C544.125 31.04 544.35 31.31 544.644 31.502C544.944 31.688 545.304 31.781 545.724 31.781C546.174 31.781 546.567 31.685 546.903 31.493C547.239 31.301 547.476 30.986 547.614 30.548H549.981C549.873 31.208 549.609 31.772 549.189 32.24C548.769 32.708 548.259 33.065 547.659 33.311C547.059 33.557 546.435 33.68 545.787 33.68ZM543.735 27.884H547.533C547.533 27.512 547.461 27.17 547.317 26.858C547.179 26.546 546.969 26.3 546.687 26.12C546.411 25.94 546.063 25.85 545.643 25.85C545.241 25.85 544.896 25.949 544.608 26.147C544.326 26.339 544.107 26.591 543.951 26.903C543.801 27.215 543.729 27.542 543.735 27.884ZM555.783 33.5V32.204V31.538C555.783 30.878 555.906 30.308 556.152 29.828C556.398 29.342 556.722 28.922 557.124 28.568C557.532 28.208 557.976 27.893 558.456 27.623C558.942 27.353 559.428 27.098 559.914 26.858C560.4 26.618 560.844 26.378 561.246 26.138C561.654 25.892 561.981 25.619 562.227 25.319C562.473 25.019 562.596 24.665 562.596 24.257C562.596 23.735 562.413 23.309 562.047 22.979C561.687 22.649 561.192 22.484 560.562 22.484C559.908 22.484 559.353 22.673 558.897 23.051C558.441 23.429 558.159 23.999 558.051 24.761H555.54C555.552 23.933 555.744 23.183 556.116 22.511C556.494 21.833 557.058 21.296 557.808 20.9C558.558 20.504 559.5 20.306 560.634 20.306C561.606 20.306 562.443 20.471 563.145 20.801C563.853 21.131 564.399 21.59 564.783 22.178C565.167 22.766 565.359 23.453 565.359 24.239C565.359 24.893 565.239 25.457 564.999 25.931C564.759 26.405 564.441 26.81 564.045 27.146C563.649 27.482 563.214 27.776 562.74 28.028C562.266 28.28 561.792 28.514 561.318 28.73C560.85 28.946 560.418 29.168 560.022 29.396C559.626 29.618 559.308 29.87 559.068 30.152C558.828 30.434 558.708 30.773 558.708 31.169V31.286H565.341V33.5H555.783Z" fill="#3B3A48" />
  <path
    d="M500.794 68.5V47.533C500.901 47.533 501.195 47.533 501.679 47.533C502.172 47.533 502.747 47.533 503.404 47.533C504.071 47.533 504.733 47.5378 505.391 47.5475C506.058 47.5475 506.614 47.5523 507.058 47.562C509.601 47.62 511.674 48.0743 513.279 48.925C514.883 49.7757 516.058 50.9647 516.802 52.492C517.556 54.0193 517.933 55.827 517.933 57.915C517.933 60.09 517.537 61.9702 516.744 63.5555C515.952 65.1312 514.738 66.3492 513.105 67.2095C511.481 68.0698 509.417 68.5 506.913 68.5H500.794ZM505.057 65.078H507C508.199 65.078 509.286 64.846 510.263 64.382C511.249 63.918 512.037 63.1592 512.626 62.1055C513.216 61.0518 513.511 59.6453 513.511 57.886C513.511 56.2523 513.25 54.928 512.728 53.913C512.206 52.8883 511.461 52.1392 510.495 51.6655C509.528 51.1918 508.383 50.955 507.058 50.955H505.057V65.078ZM528.017 68.79C526.529 68.79 525.219 68.4807 524.088 67.862C522.967 67.2337 522.092 66.3492 521.463 65.2085C520.835 64.0678 520.521 62.7242 520.521 61.1775C520.521 59.6792 520.806 58.3307 521.376 57.132C521.956 55.9237 522.788 54.9715 523.87 54.2755C524.953 53.5698 526.263 53.217 527.8 53.217C529.327 53.217 530.608 53.5408 531.642 54.1885C532.677 54.8265 533.46 55.7207 533.991 56.871C534.523 58.0117 534.789 59.3312 534.789 60.8295V61.975H524.711C524.711 62.7387 524.837 63.4057 525.088 63.976C525.34 64.5367 525.702 64.9717 526.176 65.281C526.659 65.5807 527.239 65.7305 527.916 65.7305C528.641 65.7305 529.274 65.5758 529.815 65.2665C530.357 64.9572 530.739 64.4497 530.961 63.744H534.774C534.6 64.8073 534.175 65.716 533.498 66.47C532.822 67.224 532 67.7992 531.033 68.1955C530.067 68.5918 529.061 68.79 528.017 68.79ZM524.711 59.452H530.83C530.83 58.8527 530.714 58.3017 530.482 57.799C530.26 57.2963 529.922 56.9 529.467 56.61C529.023 56.32 528.462 56.175 527.785 56.175C527.138 56.175 526.582 56.3345 526.118 56.6535C525.664 56.9628 525.311 57.3688 525.059 57.8715C524.818 58.3742 524.702 58.901 524.711 59.452ZM546.191 68.79C545.447 68.79 544.804 68.6933 544.262 68.5C543.721 68.3067 543.262 68.0505 542.885 67.7315C542.508 67.4028 542.199 67.0403 541.957 66.644C541.715 66.2477 541.527 65.8417 541.391 65.426L540.913 68.5H537.839V46.953H542.087V55.537C542.271 55.218 542.508 54.9183 542.798 54.638C543.088 54.3577 543.426 54.1112 543.813 53.8985C544.2 53.6858 544.625 53.5215 545.089 53.4055C545.563 53.2798 546.065 53.217 546.597 53.217C548.463 53.217 549.922 53.8888 550.976 55.2325C552.039 56.5762 552.571 58.4708 552.571 60.9165C552.571 62.5018 552.329 63.8842 551.846 65.0635C551.363 66.2428 550.647 67.1612 549.7 67.8185C548.753 68.4662 547.583 68.79 546.191 68.79ZM545.263 65.745C546.172 65.745 546.926 65.3728 547.525 64.6285C548.134 63.8745 548.438 62.6178 548.438 60.8585C548.438 59.3022 548.148 58.1518 547.568 57.4075C546.998 56.6632 546.22 56.291 545.234 56.291C544.528 56.291 543.943 56.4602 543.479 56.7985C543.015 57.1272 542.667 57.6298 542.435 58.3065C542.213 58.9832 542.097 59.8338 542.087 60.8585C542.087 62.6275 542.348 63.8842 542.87 64.6285C543.402 65.3728 544.2 65.745 545.263 65.745ZM555.482 68.5V53.507H559.557V57.0595C559.799 56.2958 560.137 55.6288 560.572 55.0585C561.017 54.4785 561.553 54.029 562.181 53.71C562.81 53.3813 563.52 53.217 564.313 53.217C564.448 53.217 564.574 53.2267 564.69 53.246C564.816 53.2557 564.907 53.275 564.965 53.304V57.335C564.878 57.2963 564.772 57.2722 564.646 57.2625C564.53 57.2528 564.424 57.2432 564.327 57.2335C563.496 57.1658 562.786 57.19 562.196 57.306C561.606 57.422 561.128 57.6202 560.76 57.9005C560.393 58.1808 560.127 58.524 559.963 58.93C559.799 59.336 559.716 59.7903 559.716 60.293V68.5H555.482ZM567.477 68.5V53.507H571.523V68.5H567.477ZM567.434 51.361V47.5475H571.552V51.361H567.434ZM581.197 68.79C580.153 68.79 579.148 68.6208 578.181 68.2825C577.224 67.9345 576.407 67.3932 575.731 66.6585C575.064 65.9142 574.643 64.9523 574.469 63.773H578.123C578.258 64.3047 578.49 64.7252 578.819 65.0345C579.157 65.3438 579.539 65.5662 579.965 65.7015C580.39 65.8272 580.796 65.89 581.183 65.89C581.995 65.89 582.647 65.7643 583.14 65.513C583.643 65.252 583.894 64.8557 583.894 64.324C583.894 63.918 583.744 63.5942 583.445 63.3525C583.155 63.1108 582.671 62.9272 581.995 62.8015L579.356 62.2505C578.031 61.9702 576.963 61.4965 576.151 60.8295C575.349 60.1528 574.943 59.1958 574.933 57.9585C574.923 57.0595 575.155 56.2523 575.629 55.537C576.112 54.8217 576.823 54.2562 577.761 53.8405C578.708 53.4248 579.863 53.217 581.226 53.217C583.072 53.217 584.547 53.623 585.649 54.435C586.76 55.247 587.326 56.3925 587.345 57.8715H583.807C583.701 57.2915 583.411 56.8468 582.937 56.5375C582.473 56.2185 581.883 56.059 581.168 56.059C580.443 56.059 579.844 56.1895 579.37 56.4505C578.896 56.7115 578.66 57.1078 578.66 57.6395C578.66 58.0358 578.853 58.35 579.24 58.582C579.626 58.8043 580.226 58.9977 581.038 59.162L583.474 59.713C584.315 59.916 584.996 60.1963 585.518 60.554C586.05 60.902 586.461 61.2838 586.751 61.6995C587.041 62.1152 587.239 62.5357 587.345 62.961C587.461 63.3767 587.519 63.7537 587.519 64.092C587.519 65.0877 587.253 65.9383 586.722 66.644C586.19 67.34 585.45 67.8717 584.503 68.239C583.556 68.6063 582.454 68.79 581.197 68.79ZM596.802 68.5V53.507H600.876V57.0595C601.118 56.2958 601.456 55.6288 601.891 55.0585C602.336 54.4785 602.872 54.029 603.501 53.71C604.129 53.3813 604.84 53.217 605.632 53.217C605.768 53.217 605.893 53.2267 606.009 53.246C606.135 53.2557 606.227 53.275 606.285 53.304V57.335C606.198 57.2963 606.091 57.2722 605.966 57.2625C605.85 57.2528 605.743 57.2432 605.647 57.2335C604.815 57.1658 604.105 57.19 603.515 57.306C602.926 57.422 602.447 57.6202 602.08 57.9005C601.712 58.1808 601.447 58.524 601.282 58.93C601.118 59.336 601.036 59.7903 601.036 60.293V68.5H596.802ZM615.612 68.79C614.123 68.79 612.814 68.4807 611.683 67.862C610.561 67.2337 609.686 66.3492 609.058 65.2085C608.43 64.0678 608.116 62.7242 608.116 61.1775C608.116 59.6792 608.401 58.3307 608.971 57.132C609.551 55.9237 610.382 54.9715 611.465 54.2755C612.548 53.5698 613.858 53.217 615.395 53.217C616.922 53.217 618.203 53.5408 619.237 54.1885C620.271 54.8265 621.054 55.7207 621.586 56.871C622.118 58.0117 622.384 59.3312 622.384 60.8295V61.975H612.306C612.306 62.7387 612.432 63.4057 612.683 63.976C612.934 64.5367 613.297 64.9717 613.771 65.281C614.254 65.5807 614.834 65.7305 615.511 65.7305C616.236 65.7305 616.869 65.5758 617.41 65.2665C617.951 64.9572 618.333 64.4497 618.556 63.744H622.369C622.195 64.8073 621.77 65.716 621.093 66.47C620.416 67.224 619.595 67.7992 618.628 68.1955C617.661 68.5918 616.656 68.79 615.612 68.79ZM612.306 59.452H618.425C618.425 58.8527 618.309 58.3017 618.077 57.799C617.855 57.2963 617.516 56.9 617.062 56.61C616.617 56.32 616.057 56.175 615.38 56.175C614.732 56.175 614.177 56.3345 613.713 56.6535C613.258 56.9628 612.905 57.3688 612.654 57.8715C612.412 58.3742 612.296 58.901 612.306 59.452ZM625.434 68.5V53.507H629.581V55.624C630.035 54.9667 630.644 54.4012 631.408 53.9275C632.181 53.4538 633.152 53.217 634.322 53.217C634.834 53.217 635.356 53.3088 635.888 53.4925C636.42 53.6762 636.918 53.9468 637.382 54.3045C637.855 54.6525 638.237 55.0923 638.527 55.624C639.01 54.9377 639.644 54.3673 640.427 53.913C641.219 53.449 642.099 53.217 643.066 53.217C643.626 53.217 644.192 53.3088 644.762 53.4925C645.342 53.6762 645.874 53.9758 646.357 54.3915C646.84 54.8072 647.227 55.363 647.517 56.059C647.817 56.7453 647.967 57.596 647.967 58.611V68.5H643.733V59.133C643.733 58.5337 643.612 58.0552 643.37 57.6975C643.138 57.3302 642.838 57.0692 642.471 56.9145C642.113 56.7502 641.732 56.668 641.326 56.668C640.949 56.668 640.567 56.7453 640.18 56.9C639.793 57.045 639.465 57.2818 639.194 57.6105C638.923 57.9392 638.788 58.3693 638.788 58.901V68.5H634.569V58.756C634.569 58.3017 634.448 57.9198 634.206 57.6105C633.964 57.3012 633.66 57.0692 633.293 56.9145C632.935 56.7502 632.568 56.668 632.191 56.668C631.804 56.668 631.417 56.7502 631.031 56.9145C630.644 57.0692 630.32 57.3157 630.059 57.654C629.798 57.9827 629.668 58.3983 629.668 58.901V68.5H625.434ZM657.943 68.79C656.473 68.79 655.193 68.4758 654.1 67.8475C653.018 67.2192 652.177 66.3298 651.577 65.1795C650.988 64.0292 650.693 62.6662 650.693 61.0905C650.693 59.5148 650.988 58.1373 651.577 56.958C652.177 55.7787 653.018 54.8603 654.1 54.203C655.193 53.5457 656.478 53.217 657.957 53.217C659.436 53.217 660.717 53.5408 661.8 54.1885C662.882 54.8265 663.719 55.7352 664.308 56.9145C664.898 58.0938 665.193 59.4858 665.193 61.0905C665.193 62.5985 664.903 63.9325 664.323 65.0925C663.752 66.2428 662.926 67.1467 661.843 67.804C660.77 68.4613 659.47 68.79 657.943 68.79ZM657.957 65.6435C658.702 65.6435 659.301 65.426 659.755 64.991C660.21 64.556 660.538 63.9857 660.741 63.28C660.944 62.5647 661.046 61.7865 661.046 60.9455C661.046 60.1528 660.954 59.4037 660.77 58.698C660.587 57.9923 660.268 57.422 659.813 56.987C659.359 56.552 658.74 56.3345 657.957 56.3345C657.213 56.3345 656.609 56.5423 656.145 56.958C655.69 57.364 655.357 57.9198 655.144 58.6255C654.932 59.3215 654.825 60.0948 654.825 60.9455C654.825 61.7285 654.922 62.4825 655.115 63.2075C655.309 63.9228 655.632 64.5077 656.087 64.962C656.541 65.4163 657.165 65.6435 657.957 65.6435ZM671.836 68.5L666.21 53.507H670.038L673.315 63.0625H673.431L676.664 53.507H680.536L674.91 68.5H671.836ZM686.639 68.79C685.692 68.79 684.831 68.6112 684.058 68.2535C683.294 67.8958 682.69 67.3787 682.246 66.702C681.801 66.0157 681.579 65.1843 681.579 64.208C681.579 62.5647 682.192 61.3177 683.42 60.467C684.648 59.6067 686.586 59.162 689.235 59.133L691.12 59.104V58.205C691.12 57.5187 690.917 56.9918 690.511 56.6245C690.114 56.2475 689.491 56.0638 688.64 56.0735C688.031 56.0832 687.446 56.2282 686.886 56.5085C686.335 56.7888 685.953 57.277 685.74 57.973H682.217C682.275 56.8903 682.589 56.001 683.159 55.305C683.739 54.5993 684.517 54.0773 685.494 53.739C686.47 53.391 687.586 53.217 688.843 53.217C690.37 53.217 691.598 53.4103 692.526 53.797C693.454 54.174 694.126 54.7202 694.542 55.4355C694.967 56.1412 695.18 56.9822 695.18 57.9585V68.5H691.642L691.294 65.919C690.781 67.0017 690.138 67.7508 689.365 68.1665C688.601 68.5822 687.693 68.79 686.639 68.79ZM688.075 66.006C688.452 66.006 688.819 65.9383 689.177 65.803C689.544 65.658 689.873 65.4695 690.163 65.2375C690.453 64.9958 690.68 64.7252 690.844 64.4255C691.018 64.1258 691.11 63.8165 691.12 63.4975V61.279L689.597 61.308C688.891 61.3177 688.234 61.4047 687.625 61.569C687.016 61.7237 686.523 61.9798 686.146 62.3375C685.779 62.6952 685.595 63.1785 685.595 63.7875C685.595 64.4835 685.832 65.0297 686.306 65.426C686.789 65.8127 687.379 66.006 688.075 66.006ZM703.398 68.761C702.296 68.761 701.421 68.6305 700.774 68.3695C700.126 68.1085 699.648 67.7653 699.338 67.34C699.029 66.905 698.831 66.4265 698.744 65.9045C698.657 65.3728 698.613 64.8363 698.613 64.295V46.953H702.76V63.773C702.76 64.324 702.876 64.7735 703.108 65.1215C703.35 65.4598 703.799 65.6677 704.457 65.745L705.167 65.7885V68.3985C704.877 68.4952 704.582 68.5773 704.283 68.645C703.983 68.7223 703.688 68.761 703.398 68.761Z"
    fill="#3B3A48" />
</svg>
