<svg width="334" height="90" viewBox="0 0 334 90" fill="none" xmlns="http://www.w3.org/2000/svg">
  <path d="M0.5 5C0.5 2.23858 2.73858 0 5.5 0H240.853C242.487 0 244.018 0.798233 244.953 2.13789L272.877 42.1379C274.077 43.8572 274.077 46.1428 272.877 47.8621L244.953 87.8621C244.018 89.2018 242.487 90 240.853 90H5.49999C2.73857 90 0.5 87.7614 0.5 85V5Z" fill="#7BB0DA" />
  <path d="M41.3381 58V31.249H50.8286C52.7526 31.249 54.4731 31.582 55.9901 32.248C57.5194 32.9017 58.7219 33.8698 59.5976 35.1525C60.4733 36.4352 60.9111 38.0138 60.9111 39.8885C60.9111 41.6522 60.5103 43.163 59.7086 44.421C58.9193 45.679 57.8154 46.641 56.3971 47.307C54.9788 47.973 53.3199 48.306 51.4206 48.306H45.9076V58H41.3381ZM45.8706 44.6985H51.3096C52.8759 44.6985 54.1524 44.2298 55.1391 43.2925C56.1381 42.3552 56.6376 41.1342 56.6376 39.6295C56.6376 38.1002 56.1196 36.9162 55.0836 36.0775C54.0476 35.2265 52.7464 34.801 51.1801 34.801H45.8706V44.6985ZM64.5012 58V30.509H68.9412V41.646C69.2496 41.165 69.6566 40.7025 70.1622 40.2585C70.6679 39.8022 71.2846 39.4322 72.0122 39.1485C72.7522 38.8525 73.6341 38.7045 74.6577 38.7045C75.8787 38.7045 76.9949 38.9388 78.0062 39.4075C79.0176 39.8762 79.8254 40.5545 80.4297 41.4425C81.0341 42.3182 81.3362 43.3665 81.3362 44.5875V58H76.8222V45.346C76.8222 44.3593 76.4707 43.5947 75.7677 43.052C75.0771 42.5093 74.2014 42.238 73.1407 42.238C72.4377 42.238 71.7656 42.3613 71.1242 42.608C70.4829 42.8547 69.9649 43.2247 69.5702 43.718C69.1879 44.199 68.9967 44.8033 68.9967 45.531V58H64.5012ZM91.5679 58.37C90.3469 58.37 89.2492 58.148 88.2749 57.704C87.3129 57.2477 86.5544 56.6002 85.9994 55.7615C85.4567 54.9105 85.1854 53.8807 85.1854 52.672C85.1854 50.563 85.9439 48.972 87.4609 47.899C88.9902 46.826 91.4199 46.2648 94.7499 46.2155L97.6174 46.1415V44.8465C97.6174 43.8352 97.3152 43.0458 96.7109 42.4785C96.1189 41.8988 95.1939 41.6152 93.9359 41.6275C92.9986 41.6398 92.1476 41.8618 91.3829 42.2935C90.6182 42.7128 90.1126 43.422 89.8659 44.421H86.0364C86.1104 43.1137 86.4866 42.0222 87.1649 41.1465C87.8556 40.2585 88.7991 39.5987 89.9954 39.167C91.1917 38.723 92.5731 38.501 94.1394 38.501C95.9647 38.501 97.4509 38.7415 98.5979 39.2225C99.7449 39.7035 100.59 40.4003 101.132 41.313C101.675 42.2133 101.946 43.3048 101.946 44.5875V58H98.1539L97.7839 54.559C97.1056 56.002 96.2361 57.001 95.1754 57.556C94.1271 58.0987 92.9246 58.37 91.5679 58.37ZM93.0294 55.3175C93.5844 55.3175 94.1332 55.2188 94.6759 55.0215C95.2186 54.8118 95.7057 54.5343 96.1374 54.189C96.5814 53.8313 96.9329 53.4367 97.1919 53.005C97.4632 52.5733 97.6051 52.1232 97.6174 51.6545V48.639L95.2679 48.676C94.1086 48.6883 93.0911 48.8117 92.2154 49.046C91.3521 49.2803 90.6799 49.6565 90.1989 50.1745C89.7179 50.6802 89.4774 51.3585 89.4774 52.2095C89.4774 53.1838 89.8166 53.9485 90.4949 54.5035C91.1732 55.0462 92.0181 55.3175 93.0294 55.3175ZM113.886 58.37C112.554 58.37 111.29 58.1603 110.093 57.741C108.909 57.3093 107.91 56.6372 107.096 55.7245C106.295 54.8118 105.789 53.634 105.579 52.191H109.538C109.711 52.894 110.013 53.4675 110.445 53.9115C110.889 54.3555 111.407 54.6823 111.999 54.892C112.603 55.0893 113.226 55.188 113.867 55.188C115.014 55.188 115.939 54.9907 116.642 54.596C117.345 54.2013 117.697 53.5908 117.697 52.7645C117.697 52.1602 117.5 51.6792 117.105 51.3215C116.723 50.9638 116.094 50.6925 115.218 50.5075L111.592 49.675C109.964 49.3173 108.663 48.7253 107.688 47.899C106.714 47.0727 106.221 45.9072 106.208 44.4025C106.196 43.2678 106.48 42.2565 107.059 41.3685C107.639 40.4805 108.502 39.7837 109.649 39.278C110.796 38.76 112.209 38.501 113.886 38.501C116.118 38.501 117.907 39.0005 119.251 39.9995C120.608 40.9862 121.304 42.3983 121.341 44.236H117.512C117.376 43.4097 116.988 42.7683 116.346 42.312C115.705 41.8433 114.873 41.609 113.849 41.609C112.788 41.609 111.919 41.8125 111.24 42.2195C110.562 42.6265 110.223 43.2493 110.223 44.088C110.223 44.6677 110.476 45.124 110.981 45.457C111.499 45.79 112.283 46.0737 113.331 46.308L116.772 47.1405C117.759 47.3872 118.566 47.7202 119.195 48.1395C119.824 48.5588 120.312 49.0213 120.657 49.527C121.015 50.0203 121.261 50.5322 121.397 51.0625C121.545 51.5805 121.619 52.0615 121.619 52.5055C121.619 53.7388 121.298 54.7933 120.657 55.669C120.028 56.5323 119.134 57.1983 117.974 57.667C116.827 58.1357 115.465 58.37 113.886 58.37ZM134.165 58.37C132.327 58.37 130.705 57.9815 129.299 57.2045C127.906 56.4152 126.814 55.2928 126.025 53.8375C125.248 52.3822 124.859 50.6493 124.859 48.639C124.859 46.678 125.211 44.939 125.914 43.422C126.629 41.8927 127.659 40.6902 129.003 39.8145C130.36 38.9388 131.994 38.501 133.906 38.501C135.793 38.501 137.378 38.9018 138.66 39.7035C139.943 40.5052 140.917 41.6275 141.583 43.0705C142.249 44.5012 142.582 46.1785 142.582 48.1025V49.4715H129.355C129.342 50.5568 129.515 51.5188 129.873 52.3575C130.23 53.1962 130.761 53.856 131.464 54.337C132.167 54.8057 133.036 55.04 134.072 55.04C135.133 55.04 136.052 54.8057 136.829 54.337C137.618 53.856 138.142 53.1283 138.401 52.154H142.508C142.286 53.486 141.756 54.6145 140.917 55.5395C140.091 56.4645 139.08 57.1675 137.883 57.6485C136.699 58.1295 135.46 58.37 134.165 58.37ZM129.336 46.678H138.327C138.327 45.753 138.161 44.9205 137.828 44.1805C137.507 43.4282 137.02 42.8362 136.366 42.4045C135.713 41.9605 134.886 41.7385 133.887 41.7385C132.901 41.7385 132.068 41.979 131.39 42.46C130.711 42.941 130.2 43.5638 129.854 44.3285C129.509 45.0808 129.336 45.864 129.336 46.678Z" fill="#3B3A48" />
  <rect x="163.102" y="18" width="54" height="54" rx="27" fill="white" />
  <rect x="163.102" y="18" width="54" height="54" rx="27" stroke="#3B3A48" stroke-width="4" />
  <path d="M180.867 58V55.595V54.3555C180.867 52.9865 181.119 51.8087 181.625 50.822C182.131 49.823 182.803 48.9535 183.642 48.2135C184.48 47.4735 185.399 46.8198 186.398 46.2525C187.409 45.6728 188.408 45.1302 189.395 44.6245C190.394 44.1065 191.313 43.5762 192.152 43.0335C192.99 42.4785 193.662 41.8618 194.168 41.1835C194.686 40.5052 194.945 39.6973 194.945 38.76C194.945 37.5637 194.52 36.5893 193.669 35.837C192.83 35.0723 191.689 34.69 190.246 34.69C188.717 34.69 187.453 35.1278 186.454 36.0035C185.467 36.8792 184.881 38.1125 184.696 39.7035H180.33C180.355 38.0755 180.743 36.5955 181.496 35.2635C182.248 33.9315 183.364 32.8708 184.844 32.0815C186.324 31.2798 188.168 30.879 190.376 30.879C192.287 30.879 193.934 31.212 195.315 31.878C196.709 32.5317 197.782 33.4505 198.534 34.6345C199.299 35.8062 199.681 37.1752 199.681 38.7415C199.681 40.1105 199.428 41.2822 198.923 42.2565C198.429 43.2308 197.769 44.0757 196.943 44.791C196.129 45.494 195.229 46.1168 194.242 46.6595C193.268 47.2022 192.287 47.714 191.301 48.195C190.326 48.6637 189.426 49.157 188.6 49.675C187.786 50.1807 187.126 50.7603 186.62 51.414C186.127 52.0677 185.88 52.8508 185.88 53.7635V54.152H199.737V58H180.867Z" fill="#3B3A48" />
</svg>
