<svg width="433" height="90" viewBox="0 0 433 90" fill="none" xmlns="http://www.w3.org/2000/svg">
  <path d="M432.883 5C432.883 2.23858 430.644 0 427.883 0H9.69584C5.65362 0 3.28218 4.54765 5.59603 7.86211L29.5243 42.1379C30.7245 43.8572 30.7245 46.1428 29.5243 47.8621L5.59603 82.1379C3.28218 85.4523 5.65361 90 9.69583 90H427.883C430.644 90 432.883 87.7614 432.883 85V5Z" fill="#7BB0DA" />
  <path d="M56.4033 33.5V20.486H61.1913C62.1393 20.486 62.9883 20.651 63.7383 20.981C64.4883 21.305 65.0793 21.785 65.5113 22.421C65.9493 23.057 66.1683 23.834 66.1683 24.752C66.1683 25.616 65.9763 26.354 65.5923 26.966C65.2083 27.578 64.6683 28.046 63.9723 28.37C63.2823 28.694 62.4693 28.856 61.5333 28.856H59.0493V33.5H56.4033ZM59.0223 26.822H61.4613C62.1213 26.822 62.6613 26.612 63.0813 26.192C63.5013 25.766 63.7113 25.241 63.7113 24.617C63.7113 23.969 63.4893 23.456 63.0453 23.078C62.6013 22.694 62.0613 22.502 61.4253 22.502H59.0223V26.822ZM67.8125 33.5V20.126H70.4225V25.535C70.5725 25.319 70.7615 25.106 70.9895 24.896C71.2175 24.68 71.5025 24.5 71.8445 24.356C72.1865 24.212 72.6035 24.14 73.0955 24.14C73.6895 24.14 74.2295 24.257 74.7155 24.491C75.2075 24.719 75.6005 25.052 75.8945 25.49C76.1945 25.928 76.3445 26.462 76.3445 27.092V33.5H73.7075V27.479C73.7075 27.059 73.5545 26.738 73.2485 26.516C72.9485 26.288 72.5825 26.174 72.1505 26.174C71.8685 26.174 71.5955 26.225 71.3315 26.327C71.0675 26.429 70.8515 26.585 70.6835 26.795C70.5215 26.999 70.4405 27.254 70.4405 27.56V33.5H67.8125ZM81.1751 33.68C80.5871 33.68 80.0531 33.569 79.5731 33.347C79.0991 33.125 78.7241 32.804 78.4481 32.384C78.1721 31.958 78.0341 31.442 78.0341 30.836C78.0341 29.816 78.4151 29.042 79.1771 28.514C79.9391 27.98 81.1421 27.704 82.7861 27.686L83.9561 27.668V27.11C83.9561 26.684 83.8301 26.357 83.5781 26.129C83.3321 25.895 82.9451 25.781 82.4171 25.787C82.0391 25.793 81.6761 25.883 81.3281 26.057C80.9861 26.231 80.7491 26.534 80.6171 26.966H78.4301C78.4661 26.294 78.6611 25.742 79.0151 25.31C79.3751 24.872 79.8581 24.548 80.4641 24.338C81.0701 24.122 81.7631 24.014 82.5431 24.014C83.4911 24.014 84.2531 24.134 84.8291 24.374C85.4051 24.608 85.8221 24.947 86.0801 25.391C86.3441 25.829 86.4761 26.351 86.4761 26.957V33.5H84.2801L84.0641 31.898C83.7461 32.57 83.3471 33.035 82.8671 33.293C82.3931 33.551 81.8291 33.68 81.1751 33.68ZM82.0661 31.952C82.3001 31.952 82.5281 31.91 82.7501 31.826C82.9781 31.736 83.1821 31.619 83.3621 31.475C83.5421 31.325 83.6831 31.157 83.7851 30.971C83.8931 30.785 83.9501 30.593 83.9561 30.395V29.018L83.0111 29.036C82.5731 29.042 82.1651 29.096 81.7871 29.198C81.4091 29.294 81.1031 29.453 80.8691 29.675C80.6411 29.897 80.5271 30.197 80.5271 30.575C80.5271 31.007 80.6741 31.346 80.9681 31.592C81.2681 31.832 81.6341 31.952 82.0661 31.952ZM92.2635 33.68C91.6155 33.68 90.9915 33.575 90.3915 33.365C89.7975 33.149 89.2905 32.813 88.8705 32.357C88.4565 31.895 88.1955 31.298 88.0875 30.566H90.3555C90.4395 30.896 90.5835 31.157 90.7875 31.349C90.9975 31.541 91.2345 31.679 91.4985 31.763C91.7625 31.841 92.0145 31.88 92.2545 31.88C92.7585 31.88 93.1635 31.802 93.4695 31.646C93.7815 31.484 93.9375 31.238 93.9375 30.908C93.9375 30.656 93.8445 30.455 93.6585 30.305C93.4785 30.155 93.1785 30.041 92.7585 29.963L91.1205 29.621C90.2985 29.447 89.6355 29.153 89.1315 28.739C88.6335 28.319 88.3815 27.725 88.3755 26.957C88.3695 26.399 88.5135 25.898 88.8075 25.454C89.1075 25.01 89.5485 24.659 90.1305 24.401C90.7185 24.143 91.4355 24.014 92.2815 24.014C93.4275 24.014 94.3425 24.266 95.0265 24.77C95.7165 25.274 96.0675 25.985 96.0795 26.903H93.8835C93.8175 26.543 93.6375 26.267 93.3435 26.075C93.0555 25.877 92.6895 25.778 92.2455 25.778C91.7955 25.778 91.4235 25.859 91.1295 26.021C90.8355 26.183 90.6885 26.429 90.6885 26.759C90.6885 27.005 90.8085 27.2 91.0485 27.344C91.2885 27.482 91.6605 27.602 92.1645 27.704L93.6765 28.046C94.1985 28.172 94.6215 28.346 94.9455 28.568C95.2755 28.784 95.5305 29.021 95.7105 29.279C95.8905 29.537 96.0135 29.798 96.0795 30.062C96.1515 30.32 96.1875 30.554 96.1875 30.764C96.1875 31.382 96.0225 31.91 95.6925 32.348C95.3625 32.78 94.9035 33.11 94.3155 33.338C93.7275 33.566 93.0435 33.68 92.2635 33.68ZM102.287 33.68C101.363 33.68 100.55 33.488 99.8477 33.104C99.1517 32.714 98.6087 32.165 98.2187 31.457C97.8287 30.749 97.6337 29.915 97.6337 28.955C97.6337 28.025 97.8107 27.188 98.1647 26.444C98.5247 25.694 99.0407 25.103 99.7127 24.671C100.385 24.233 101.198 24.014 102.152 24.014C103.1 24.014 103.895 24.215 104.537 24.617C105.179 25.013 105.665 25.568 105.995 26.282C106.325 26.99 106.49 27.809 106.49 28.739V29.45H100.235C100.235 29.924 100.313 30.338 100.469 30.692C100.625 31.04 100.85 31.31 101.144 31.502C101.444 31.688 101.804 31.781 102.224 31.781C102.674 31.781 103.067 31.685 103.403 31.493C103.739 31.301 103.976 30.986 104.114 30.548H106.481C106.373 31.208 106.109 31.772 105.689 32.24C105.269 32.708 104.759 33.065 104.159 33.311C103.559 33.557 102.935 33.68 102.287 33.68ZM100.235 27.884H104.033C104.033 27.512 103.961 27.17 103.817 26.858C103.679 26.546 103.469 26.3 103.187 26.12C102.911 25.94 102.563 25.85 102.143 25.85C101.741 25.85 101.396 25.949 101.108 26.147C100.826 26.339 100.607 26.591 100.451 26.903C100.301 27.215 100.229 27.542 100.235 27.884ZM112.283 33.5V32.204V31.538C112.283 30.878 112.406 30.308 112.652 29.828C112.898 29.342 113.222 28.922 113.624 28.568C114.032 28.208 114.476 27.893 114.956 27.623C115.442 27.353 115.928 27.098 116.414 26.858C116.9 26.618 117.344 26.378 117.746 26.138C118.154 25.892 118.481 25.619 118.727 25.319C118.973 25.019 119.096 24.665 119.096 24.257C119.096 23.735 118.913 23.309 118.547 22.979C118.187 22.649 117.692 22.484 117.062 22.484C116.408 22.484 115.853 22.673 115.397 23.051C114.941 23.429 114.659 23.999 114.551 24.761H112.04C112.052 23.933 112.244 23.183 112.616 22.511C112.994 21.833 113.558 21.296 114.308 20.9C115.058 20.504 116 20.306 117.134 20.306C118.106 20.306 118.943 20.471 119.645 20.801C120.353 21.131 120.899 21.59 121.283 22.178C121.667 22.766 121.859 23.453 121.859 24.239C121.859 24.893 121.739 25.457 121.499 25.931C121.259 26.405 120.941 26.81 120.545 27.146C120.149 27.482 119.714 27.776 119.24 28.028C118.766 28.28 118.292 28.514 117.818 28.73C117.35 28.946 116.918 29.168 116.522 29.396C116.126 29.618 115.808 29.87 115.568 30.152C115.328 30.434 115.208 30.773 115.208 31.169V31.286H121.841V33.5H112.283Z" fill="#3B3A48" />
  <path
    d="M57.2943 68.5V47.533C57.4006 47.533 57.6955 47.533 58.1788 47.533C58.6718 47.533 59.247 47.533 59.9043 47.533C60.5713 47.533 61.2335 47.5378 61.8908 47.5475C62.5578 47.5475 63.1136 47.5523 63.5583 47.562C66.1006 47.62 68.1741 48.0743 69.7788 48.925C71.3835 49.7757 72.558 50.9647 73.3023 52.492C74.0563 54.0193 74.4333 55.827 74.4333 57.915C74.4333 60.09 74.037 61.9702 73.2443 63.5555C72.4516 65.1312 71.2385 66.3492 69.6048 67.2095C67.9808 68.0698 65.917 68.5 63.4133 68.5H57.2943ZM61.5573 65.078H63.5003C64.699 65.078 65.7865 64.846 66.7628 64.382C67.7488 63.918 68.5366 63.1592 69.1263 62.1055C69.716 61.0518 70.0108 59.6453 70.0108 57.886C70.0108 56.2523 69.7498 54.928 69.2278 53.913C68.7058 52.8883 67.9615 52.1392 66.9948 51.6655C66.0281 51.1918 64.8826 50.955 63.5583 50.955H61.5573V65.078ZM84.5174 68.79C83.0287 68.79 81.7189 68.4807 80.5879 67.862C79.4665 67.2337 78.5917 66.3492 77.9634 65.2085C77.335 64.0678 77.0209 62.7242 77.0209 61.1775C77.0209 59.6792 77.306 58.3307 77.8764 57.132C78.4564 55.9237 79.2877 54.9715 80.3704 54.2755C81.453 53.5698 82.7629 53.217 84.2999 53.217C85.8272 53.217 87.108 53.5408 88.1424 54.1885C89.1767 54.8265 89.9597 55.7207 90.4914 56.871C91.0231 58.0117 91.2889 59.3312 91.2889 60.8295V61.975H81.2114C81.2114 62.7387 81.337 63.4057 81.5884 63.976C81.8397 64.5367 82.2022 64.9717 82.6759 65.281C83.1592 65.5807 83.7392 65.7305 84.4159 65.7305C85.1409 65.7305 85.7741 65.5758 86.3154 65.2665C86.8567 64.9572 87.2385 64.4497 87.4609 63.744H91.2744C91.1004 64.8073 90.6751 65.716 89.9984 66.47C89.3217 67.224 88.5001 67.7992 87.5334 68.1955C86.5667 68.5918 85.5614 68.79 84.5174 68.79ZM81.2114 59.452H87.3304C87.3304 58.8527 87.2144 58.3017 86.9824 57.799C86.7601 57.2963 86.4217 56.9 85.9674 56.61C85.5227 56.32 84.9621 56.175 84.2854 56.175C83.6377 56.175 83.0819 56.3345 82.6179 56.6535C82.1635 56.9628 81.8107 57.3688 81.5594 57.8715C81.3177 58.3742 81.2017 58.901 81.2114 59.452ZM102.691 68.79C101.947 68.79 101.304 68.6933 100.762 68.5C100.221 68.3067 99.7619 68.0505 99.3849 67.7315C99.0079 67.4028 98.6985 67.0403 98.4569 66.644C98.2152 66.2477 98.0267 65.8417 97.8914 65.426L97.4129 68.5H94.3389V46.953H98.5874V55.537C98.771 55.218 99.0079 54.9183 99.2979 54.638C99.5879 54.3577 99.9262 54.1112 100.313 53.8985C100.7 53.6858 101.125 53.5215 101.589 53.4055C102.063 53.2798 102.565 53.217 103.097 53.217C104.963 53.217 106.422 53.8888 107.476 55.2325C108.539 56.5762 109.071 58.4708 109.071 60.9165C109.071 62.5018 108.829 63.8842 108.346 65.0635C107.863 66.2428 107.147 67.1612 106.2 67.8185C105.253 68.4662 104.083 68.79 102.691 68.79ZM101.763 65.745C102.672 65.745 103.426 65.3728 104.025 64.6285C104.634 63.8745 104.938 62.6178 104.938 60.8585C104.938 59.3022 104.648 58.1518 104.068 57.4075C103.498 56.6632 102.72 56.291 101.734 56.291C101.028 56.291 100.443 56.4602 99.9794 56.7985C99.5154 57.1272 99.1674 57.6298 98.9354 58.3065C98.713 58.9832 98.597 59.8338 98.5874 60.8585C98.5874 62.6275 98.8484 63.8842 99.3704 64.6285C99.902 65.3728 100.7 65.745 101.763 65.745ZM111.982 68.5V53.507H116.057V57.0595C116.299 56.2958 116.637 55.6288 117.072 55.0585C117.517 54.4785 118.053 54.029 118.681 53.71C119.31 53.3813 120.02 53.217 120.813 53.217C120.948 53.217 121.074 53.2267 121.19 53.246C121.316 53.2557 121.407 53.275 121.465 53.304V57.335C121.378 57.2963 121.272 57.2722 121.146 57.2625C121.03 57.2528 120.924 57.2432 120.827 57.2335C119.996 57.1658 119.286 57.19 118.696 57.306C118.106 57.422 117.628 57.6202 117.26 57.9005C116.893 58.1808 116.627 58.524 116.463 58.93C116.299 59.336 116.216 59.7903 116.216 60.293V68.5H111.982ZM123.977 68.5V53.507H128.023V68.5H123.977ZM123.934 51.361V47.5475H128.052V51.361H123.934ZM137.697 68.79C136.653 68.79 135.648 68.6208 134.681 68.2825C133.724 67.9345 132.907 67.3932 132.231 66.6585C131.564 65.9142 131.143 64.9523 130.969 63.773H134.623C134.758 64.3047 134.99 64.7252 135.319 65.0345C135.657 65.3438 136.039 65.5662 136.465 65.7015C136.89 65.8272 137.296 65.89 137.683 65.89C138.495 65.89 139.147 65.7643 139.64 65.513C140.143 65.252 140.394 64.8557 140.394 64.324C140.394 63.918 140.244 63.5942 139.945 63.3525C139.655 63.1108 139.171 62.9272 138.495 62.8015L135.856 62.2505C134.531 61.9702 133.463 61.4965 132.651 60.8295C131.849 60.1528 131.443 59.1958 131.433 57.9585C131.423 57.0595 131.655 56.2523 132.129 55.537C132.612 54.8217 133.323 54.2562 134.261 53.8405C135.208 53.4248 136.363 53.217 137.726 53.217C139.572 53.217 141.047 53.623 142.149 54.435C143.26 55.247 143.826 56.3925 143.845 57.8715H140.307C140.201 57.2915 139.911 56.8468 139.437 56.5375C138.973 56.2185 138.383 56.059 137.668 56.059C136.943 56.059 136.344 56.1895 135.87 56.4505C135.396 56.7115 135.16 57.1078 135.16 57.6395C135.16 58.0358 135.353 58.35 135.74 58.582C136.126 58.8043 136.726 58.9977 137.538 59.162L139.974 59.713C140.815 59.916 141.496 60.1963 142.018 60.554C142.55 60.902 142.961 61.2838 143.251 61.6995C143.541 62.1152 143.739 62.5357 143.845 62.961C143.961 63.3767 144.019 63.7537 144.019 64.092C144.019 65.0877 143.753 65.9383 143.222 66.644C142.69 67.34 141.95 67.8717 141.003 68.239C140.056 68.6063 138.954 68.79 137.697 68.79ZM153.302 68.5V53.507H157.376V57.0595C157.618 56.2958 157.956 55.6288 158.391 55.0585C158.836 54.4785 159.372 54.029 160.001 53.71C160.629 53.3813 161.34 53.217 162.132 53.217C162.268 53.217 162.393 53.2267 162.509 53.246C162.635 53.2557 162.727 53.275 162.785 53.304V57.335C162.698 57.2963 162.591 57.2722 162.466 57.2625C162.35 57.2528 162.243 57.2432 162.147 57.2335C161.315 57.1658 160.605 57.19 160.015 57.306C159.426 57.422 158.947 57.6202 158.58 57.9005C158.212 58.1808 157.947 58.524 157.782 58.93C157.618 59.336 157.536 59.7903 157.536 60.293V68.5H153.302ZM172.112 68.79C170.623 68.79 169.314 68.4807 168.183 67.862C167.061 67.2337 166.186 66.3492 165.558 65.2085C164.93 64.0678 164.616 62.7242 164.616 61.1775C164.616 59.6792 164.901 58.3307 165.471 57.132C166.051 55.9237 166.882 54.9715 167.965 54.2755C169.048 53.5698 170.358 53.217 171.895 53.217C173.422 53.217 174.703 53.5408 175.737 54.1885C176.771 54.8265 177.554 55.7207 178.086 56.871C178.618 58.0117 178.884 59.3312 178.884 60.8295V61.975H168.806C168.806 62.7387 168.932 63.4057 169.183 63.976C169.434 64.5367 169.797 64.9717 170.271 65.281C170.754 65.5807 171.334 65.7305 172.011 65.7305C172.736 65.7305 173.369 65.5758 173.91 65.2665C174.451 64.9572 174.833 64.4497 175.056 63.744H178.869C178.695 64.8073 178.27 65.716 177.593 66.47C176.916 67.224 176.095 67.7992 175.128 68.1955C174.161 68.5918 173.156 68.79 172.112 68.79ZM168.806 59.452H174.925C174.925 58.8527 174.809 58.3017 174.577 57.799C174.355 57.2963 174.016 56.9 173.562 56.61C173.117 56.32 172.557 56.175 171.88 56.175C171.232 56.175 170.677 56.3345 170.213 56.6535C169.758 56.9628 169.405 57.3688 169.154 57.8715C168.912 58.3742 168.796 58.901 168.806 59.452ZM181.934 68.5V53.507H186.081V55.624C186.535 54.9667 187.144 54.4012 187.908 53.9275C188.681 53.4538 189.652 53.217 190.822 53.217C191.334 53.217 191.856 53.3088 192.388 53.4925C192.92 53.6762 193.418 53.9468 193.882 54.3045C194.355 54.6525 194.737 55.0923 195.027 55.624C195.51 54.9377 196.144 54.3673 196.927 53.913C197.719 53.449 198.599 53.217 199.566 53.217C200.126 53.217 200.692 53.3088 201.262 53.4925C201.842 53.6762 202.374 53.9758 202.857 54.3915C203.34 54.8072 203.727 55.363 204.017 56.059C204.317 56.7453 204.467 57.596 204.467 58.611V68.5H200.233V59.133C200.233 58.5337 200.112 58.0552 199.87 57.6975C199.638 57.3302 199.338 57.0692 198.971 56.9145C198.613 56.7502 198.232 56.668 197.826 56.668C197.449 56.668 197.067 56.7453 196.68 56.9C196.293 57.045 195.965 57.2818 195.694 57.6105C195.423 57.9392 195.288 58.3693 195.288 58.901V68.5H191.069V58.756C191.069 58.3017 190.948 57.9198 190.706 57.6105C190.464 57.3012 190.16 57.0692 189.793 56.9145C189.435 56.7502 189.068 56.668 188.691 56.668C188.304 56.668 187.917 56.7502 187.531 56.9145C187.144 57.0692 186.82 57.3157 186.559 57.654C186.298 57.9827 186.168 58.3983 186.168 58.901V68.5H181.934ZM214.443 68.79C212.973 68.79 211.693 68.4758 210.6 67.8475C209.518 67.2192 208.677 66.3298 208.077 65.1795C207.488 64.0292 207.193 62.6662 207.193 61.0905C207.193 59.5148 207.488 58.1373 208.077 56.958C208.677 55.7787 209.518 54.8603 210.6 54.203C211.693 53.5457 212.978 53.217 214.457 53.217C215.936 53.217 217.217 53.5408 218.3 54.1885C219.382 54.8265 220.219 55.7352 220.808 56.9145C221.398 58.0938 221.693 59.4858 221.693 61.0905C221.693 62.5985 221.403 63.9325 220.823 65.0925C220.252 66.2428 219.426 67.1467 218.343 67.804C217.27 68.4613 215.97 68.79 214.443 68.79ZM214.457 65.6435C215.202 65.6435 215.801 65.426 216.255 64.991C216.71 64.556 217.038 63.9857 217.241 63.28C217.444 62.5647 217.546 61.7865 217.546 60.9455C217.546 60.1528 217.454 59.4037 217.27 58.698C217.087 57.9923 216.768 57.422 216.313 56.987C215.859 56.552 215.24 56.3345 214.457 56.3345C213.713 56.3345 213.109 56.5423 212.645 56.958C212.19 57.364 211.857 57.9198 211.644 58.6255C211.432 59.3215 211.325 60.0948 211.325 60.9455C211.325 61.7285 211.422 62.4825 211.615 63.2075C211.809 63.9228 212.132 64.5077 212.587 64.962C213.041 65.4163 213.665 65.6435 214.457 65.6435ZM228.336 68.5L222.71 53.507H226.538L229.815 63.0625H229.931L233.164 53.507H237.036L231.41 68.5H228.336ZM243.139 68.79C242.192 68.79 241.331 68.6112 240.558 68.2535C239.794 67.8958 239.19 67.3787 238.746 66.702C238.301 66.0157 238.079 65.1843 238.079 64.208C238.079 62.5647 238.692 61.3177 239.92 60.467C241.148 59.6067 243.086 59.162 245.735 59.133L247.62 59.104V58.205C247.62 57.5187 247.417 56.9918 247.011 56.6245C246.614 56.2475 245.991 56.0638 245.14 56.0735C244.531 56.0832 243.946 56.2282 243.386 56.5085C242.835 56.7888 242.453 57.277 242.24 57.973H238.717C238.775 56.8903 239.089 56.001 239.659 55.305C240.239 54.5993 241.017 54.0773 241.994 53.739C242.97 53.391 244.086 53.217 245.343 53.217C246.87 53.217 248.098 53.4103 249.026 53.797C249.954 54.174 250.626 54.7202 251.042 55.4355C251.467 56.1412 251.68 56.9822 251.68 57.9585V68.5H248.142L247.794 65.919C247.281 67.0017 246.638 67.7508 245.865 68.1665C245.101 68.5822 244.193 68.79 243.139 68.79ZM244.575 66.006C244.952 66.006 245.319 65.9383 245.677 65.803C246.044 65.658 246.373 65.4695 246.663 65.2375C246.953 64.9958 247.18 64.7252 247.344 64.4255C247.518 64.1258 247.61 63.8165 247.62 63.4975V61.279L246.097 61.308C245.391 61.3177 244.734 61.4047 244.125 61.569C243.516 61.7237 243.023 61.9798 242.646 62.3375C242.279 62.6952 242.095 63.1785 242.095 63.7875C242.095 64.4835 242.332 65.0297 242.806 65.426C243.289 65.8127 243.879 66.006 244.575 66.006ZM259.898 68.761C258.796 68.761 257.921 68.6305 257.274 68.3695C256.626 68.1085 256.148 67.7653 255.838 67.34C255.529 66.905 255.331 66.4265 255.244 65.9045C255.157 65.3728 255.113 64.8363 255.113 64.295V46.953H259.26V63.773C259.26 64.324 259.376 64.7735 259.608 65.1215C259.85 65.4598 260.299 65.6677 260.957 65.745L261.667 65.7885V68.3985C261.377 68.4952 261.082 68.5773 260.783 68.645C260.483 68.7223 260.188 68.761 259.898 68.761Z"
    fill="#3B3A48" />
</svg>
