<svg width="876" height="90" viewBox="0 0 876 90" fill="none" xmlns="http://www.w3.org/2000/svg">
  <path d="M0 5C0 2.23858 2.23858 0 5 0H410.353C411.987 0 413.518 0.798233 414.453 2.13789L442.377 42.1379C443.577 43.8572 443.577 46.1428 442.377 47.8621L414.453 87.8621C413.518 89.2018 411.987 90 410.353 90H5.00001C2.23859 90 0 87.7614 0 85V5Z" fill="#FDB81E" />
  <path d="M124.925 58V31.249H134.416C136.34 31.249 138.06 31.582 139.577 32.248C141.106 32.9017 142.309 33.8698 143.185 35.1525C144.06 36.4352 144.498 38.0138 144.498 39.8885C144.498 41.6522 144.097 43.163 143.296 44.421C142.506 45.679 141.402 46.641 139.984 47.307C138.566 47.973 136.907 48.306 135.008 48.306H129.495V58H124.925ZM129.458 44.6985H134.897C136.463 44.6985 137.739 44.2298 138.726 43.2925C139.725 42.3552 140.225 41.1342 140.225 39.6295C140.225 38.1002 139.707 36.9162 138.671 36.0775C137.635 35.2265 136.333 34.801 134.767 34.801H129.458V44.6985ZM148.088 58V30.509H152.528V41.646C152.836 41.165 153.243 40.7025 153.749 40.2585C154.255 39.8022 154.871 39.4322 155.599 39.1485C156.339 38.8525 157.221 38.7045 158.245 38.7045C159.466 38.7045 160.582 38.9388 161.593 39.4075C162.604 39.8762 163.412 40.5545 164.017 41.4425C164.621 42.3182 164.923 43.3665 164.923 44.5875V58H160.409V45.346C160.409 44.3593 160.058 43.5947 159.355 43.052C158.664 42.5093 157.788 42.238 156.728 42.238C156.025 42.238 155.352 42.3613 154.711 42.608C154.07 42.8547 153.552 43.2247 153.157 43.718C152.775 44.199 152.584 44.8033 152.584 45.531V58H148.088ZM175.155 58.37C173.934 58.37 172.836 58.148 171.862 57.704C170.9 57.2477 170.141 56.6002 169.586 55.7615C169.044 54.9105 168.772 53.8807 168.772 52.672C168.772 50.563 169.531 48.972 171.048 47.899C172.577 46.826 175.007 46.2648 178.337 46.2155L181.204 46.1415V44.8465C181.204 43.8352 180.902 43.0458 180.298 42.4785C179.706 41.8988 178.781 41.6152 177.523 41.6275C176.585 41.6398 175.734 41.8618 174.97 42.2935C174.205 42.7128 173.699 43.422 173.453 44.421H169.623C169.697 43.1137 170.073 42.0222 170.752 41.1465C171.442 40.2585 172.386 39.5987 173.582 39.167C174.779 38.723 176.16 38.501 177.726 38.501C179.552 38.501 181.038 38.7415 182.185 39.2225C183.332 39.7035 184.177 40.4003 184.719 41.313C185.262 42.2133 185.533 43.3048 185.533 44.5875V58H181.741L181.371 54.559C180.692 56.002 179.823 57.001 178.762 57.556C177.714 58.0987 176.511 58.37 175.155 58.37ZM176.616 55.3175C177.171 55.3175 177.72 55.2188 178.263 55.0215C178.805 54.8118 179.293 54.5343 179.724 54.189C180.168 53.8313 180.52 53.4367 180.779 53.005C181.05 52.5733 181.192 52.1232 181.204 51.6545V48.639L178.855 48.676C177.695 48.6883 176.678 48.8117 175.802 49.046C174.939 49.2803 174.267 49.6565 173.786 50.1745C173.305 50.6802 173.064 51.3585 173.064 52.2095C173.064 53.1838 173.403 53.9485 174.082 54.5035C174.76 55.0462 175.605 55.3175 176.616 55.3175ZM197.473 58.37C196.141 58.37 194.877 58.1603 193.68 57.741C192.496 57.3093 191.497 56.6372 190.683 55.7245C189.882 54.8118 189.376 53.634 189.166 52.191H193.125C193.298 52.894 193.6 53.4675 194.032 53.9115C194.476 54.3555 194.994 54.6823 195.586 54.892C196.19 55.0893 196.813 55.188 197.454 55.188C198.601 55.188 199.526 54.9907 200.229 54.596C200.932 54.2013 201.284 53.5908 201.284 52.7645C201.284 52.1602 201.086 51.6792 200.692 51.3215C200.309 50.9638 199.68 50.6925 198.805 50.5075L195.179 49.675C193.551 49.3173 192.25 48.7253 191.275 47.899C190.301 47.0727 189.808 45.9072 189.795 44.4025C189.783 43.2678 190.067 42.2565 190.646 41.3685C191.226 40.4805 192.089 39.7837 193.236 39.278C194.383 38.76 195.795 38.501 197.473 38.501C199.705 38.501 201.493 39.0005 202.838 39.9995C204.194 40.9862 204.891 42.3983 204.928 44.236H201.099C200.963 43.4097 200.575 42.7683 199.933 42.312C199.292 41.8433 198.459 41.609 197.436 41.609C196.375 41.609 195.506 41.8125 194.827 42.2195C194.149 42.6265 193.81 43.2493 193.81 44.088C193.81 44.6677 194.063 45.124 194.568 45.457C195.086 45.79 195.869 46.0737 196.918 46.308L200.359 47.1405C201.345 47.3872 202.153 47.7202 202.782 48.1395C203.411 48.5588 203.898 49.0213 204.244 49.527C204.601 50.0203 204.848 50.5322 204.984 51.0625C205.132 51.5805 205.206 52.0615 205.206 52.5055C205.206 53.7388 204.885 54.7933 204.244 55.669C203.615 56.5323 202.721 57.1983 201.561 57.667C200.414 58.1357 199.051 58.37 197.473 58.37ZM217.752 58.37C215.914 58.37 214.292 57.9815 212.886 57.2045C211.492 56.4152 210.401 55.2928 209.612 53.8375C208.835 52.3822 208.446 50.6493 208.446 48.639C208.446 46.678 208.798 44.939 209.501 43.422C210.216 41.8927 211.246 40.6902 212.59 39.8145C213.947 38.9388 215.581 38.501 217.493 38.501C219.38 38.501 220.964 38.9018 222.247 39.7035C223.53 40.5052 224.504 41.6275 225.17 43.0705C225.836 44.5012 226.169 46.1785 226.169 48.1025V49.4715H212.942C212.929 50.5568 213.102 51.5188 213.46 52.3575C213.817 53.1962 214.348 53.856 215.051 54.337C215.754 54.8057 216.623 55.04 217.659 55.04C218.72 55.04 219.639 54.8057 220.416 54.337C221.205 53.856 221.729 53.1283 221.988 52.154H226.095C225.873 53.486 225.343 54.6145 224.504 55.5395C223.678 56.4645 222.666 57.1675 221.47 57.6485C220.286 58.1295 219.047 58.37 217.752 58.37ZM212.923 46.678H221.914C221.914 45.753 221.748 44.9205 221.415 44.1805C221.094 43.4282 220.607 42.8362 219.953 42.4045C219.299 41.9605 218.473 41.7385 217.474 41.7385C216.487 41.7385 215.655 41.979 214.977 42.46C214.298 42.941 213.786 43.5638 213.441 44.3285C213.096 45.0808 212.923 45.864 212.923 46.678Z" fill="#3B3A48" />
  <rect x="246.688" y="18" width="54" height="54" rx="27" fill="white" />
  <rect x="246.688" y="18" width="54" height="54" rx="27" stroke="#3B3A48" stroke-width="4" />
  <path d="M272.542 58V37.391H267.584V34.7085C269.15 34.7085 270.389 34.579 271.302 34.32C272.227 34.0487 272.899 33.654 273.319 33.136C273.75 32.618 273.997 31.989 274.059 31.249H277.13V58H272.542Z" fill="#3B3A48" />
  <path d="M875.883 5C875.883 2.23858 873.644 0 870.883 0H452.696C448.654 0 446.282 4.54765 448.596 7.86211L472.524 42.1379C473.725 43.8572 473.725 46.1428 472.524 47.8621L448.596 82.1379C446.282 85.4523 448.654 90 452.696 90H870.883C873.644 90 875.883 87.7614 875.883 85V5Z" fill="#7BB0DA" />
  <path d="M579.855 58V31.249H589.345C591.269 31.249 592.99 31.582 594.507 32.248C596.036 32.9017 597.239 33.8698 598.114 35.1525C598.99 36.4352 599.428 38.0138 599.428 39.8885C599.428 41.6522 599.027 43.163 598.225 44.421C597.436 45.679 596.332 46.641 594.914 47.307C593.495 47.973 591.837 48.306 589.937 48.306H584.424V58H579.855ZM584.387 44.6985H589.826C591.393 44.6985 592.669 44.2298 593.656 43.2925C594.655 42.3552 595.154 41.1342 595.154 39.6295C595.154 38.1002 594.636 36.9162 593.6 36.0775C592.564 35.2265 591.263 34.801 589.697 34.801H584.387V44.6985ZM603.018 58V30.509H607.458V41.646C607.766 41.165 608.173 40.7025 608.679 40.2585C609.185 39.8022 609.801 39.4322 610.529 39.1485C611.269 38.8525 612.151 38.7045 613.174 38.7045C614.395 38.7045 615.512 38.9388 616.523 39.4075C617.534 39.8762 618.342 40.5545 618.946 41.4425C619.551 42.3182 619.853 43.3665 619.853 44.5875V58H615.339V45.346C615.339 44.3593 614.987 43.5947 614.284 43.052C613.594 42.5093 612.718 42.238 611.657 42.238C610.954 42.238 610.282 42.3613 609.641 42.608C609 42.8547 608.482 43.2247 608.087 43.718C607.705 44.199 607.513 44.8033 607.513 45.531V58H603.018ZM630.085 58.37C628.864 58.37 627.766 58.148 626.792 57.704C625.83 57.2477 625.071 56.6002 624.516 55.7615C623.973 54.9105 623.702 53.8807 623.702 52.672C623.702 50.563 624.461 48.972 625.978 47.899C627.507 46.826 629.937 46.2648 633.267 46.2155L636.134 46.1415V44.8465C636.134 43.8352 635.832 43.0458 635.228 42.4785C634.636 41.8988 633.711 41.6152 632.452 41.6275C631.515 41.6398 630.664 41.8618 629.9 42.2935C629.135 42.7128 628.629 43.422 628.383 44.421H624.553C624.627 43.1137 625.003 42.0222 625.682 41.1465C626.372 40.2585 627.316 39.5987 628.512 39.167C629.708 38.723 631.09 38.501 632.656 38.501C634.481 38.501 635.968 38.7415 637.115 39.2225C638.262 39.7035 639.106 40.4003 639.649 41.313C640.192 42.2133 640.463 43.3048 640.463 44.5875V58H636.671L636.301 54.559C635.622 56.002 634.753 57.001 633.692 57.556C632.644 58.0987 631.441 58.37 630.085 58.37ZM631.546 55.3175C632.101 55.3175 632.65 55.2188 633.193 55.0215C633.735 54.8118 634.222 54.5343 634.654 54.189C635.098 53.8313 635.45 53.4367 635.709 53.005C635.98 52.5733 636.122 52.1232 636.134 51.6545V48.639L633.785 48.676C632.625 48.6883 631.608 48.8117 630.732 49.046C629.869 49.2803 629.197 49.6565 628.716 50.1745C628.235 50.6802 627.994 51.3585 627.994 52.2095C627.994 53.1838 628.333 53.9485 629.012 54.5035C629.69 55.0462 630.535 55.3175 631.546 55.3175ZM652.402 58.37C651.07 58.37 649.806 58.1603 648.61 57.741C647.426 57.3093 646.427 56.6372 645.613 55.7245C644.811 54.8118 644.306 53.634 644.096 52.191H648.055C648.228 52.894 648.53 53.4675 648.961 53.9115C649.405 54.3555 649.923 54.6823 650.515 54.892C651.12 55.0893 651.743 55.188 652.384 55.188C653.531 55.188 654.456 54.9907 655.159 54.596C655.862 54.2013 656.213 53.5908 656.213 52.7645C656.213 52.1602 656.016 51.6792 655.621 51.3215C655.239 50.9638 654.61 50.6925 653.734 50.5075L650.108 49.675C648.48 49.3173 647.179 48.7253 646.205 47.899C645.231 47.0727 644.737 45.9072 644.725 44.4025C644.713 43.2678 644.996 42.2565 645.576 41.3685C646.156 40.4805 647.019 39.7837 648.166 39.278C649.313 38.76 650.725 38.501 652.402 38.501C654.635 38.501 656.423 39.0005 657.767 39.9995C659.124 40.9862 659.821 42.3983 659.858 44.236H656.028C655.893 43.4097 655.504 42.7683 654.863 42.312C654.222 41.8433 653.389 41.609 652.365 41.609C651.305 41.609 650.435 41.8125 649.757 42.2195C649.079 42.6265 648.739 43.2493 648.739 44.088C648.739 44.6677 648.992 45.124 649.498 45.457C650.016 45.79 650.799 46.0737 651.847 46.308L655.288 47.1405C656.275 47.3872 657.083 47.7202 657.712 48.1395C658.341 48.5588 658.828 49.0213 659.173 49.527C659.531 50.0203 659.778 50.5322 659.913 51.0625C660.061 51.5805 660.135 52.0615 660.135 52.5055C660.135 53.7388 659.815 54.7933 659.173 55.669C658.544 56.5323 657.65 57.1983 656.491 57.667C655.344 58.1357 653.981 58.37 652.402 58.37ZM672.681 58.37C670.844 58.37 669.222 57.9815 667.816 57.2045C666.422 56.4152 665.331 55.2928 664.541 53.8375C663.764 52.3822 663.376 50.6493 663.376 48.639C663.376 46.678 663.727 44.939 664.43 43.422C665.146 41.8927 666.175 40.6902 667.52 39.8145C668.876 38.9388 670.511 38.501 672.422 38.501C674.309 38.501 675.894 38.9018 677.177 39.7035C678.459 40.5052 679.434 41.6275 680.1 43.0705C680.766 44.5012 681.099 46.1785 681.099 48.1025V49.4715H667.871C667.859 50.5568 668.032 51.5188 668.389 52.3575C668.747 53.1962 669.277 53.856 669.98 54.337C670.683 54.8057 671.553 55.04 672.589 55.04C673.649 55.04 674.568 54.8057 675.345 54.337C676.135 53.856 676.659 53.1283 676.918 52.154H681.025C680.803 53.486 680.272 54.6145 679.434 55.5395C678.607 56.4645 677.596 57.1675 676.4 57.6485C675.216 58.1295 673.976 58.37 672.681 58.37ZM667.853 46.678H676.844C676.844 45.753 676.677 44.9205 676.344 44.1805C676.024 43.4282 675.536 42.8362 674.883 42.4045C674.229 41.9605 673.403 41.7385 672.404 41.7385C671.417 41.7385 670.585 41.979 669.906 42.46C669.228 42.941 668.716 43.5638 668.371 44.3285C668.025 45.0808 667.853 45.864 667.853 46.678Z" fill="#3B3A48" />
  <rect x="701.617" y="18" width="54" height="54" rx="27" fill="white" />
  <rect x="701.617" y="18" width="54" height="54" rx="27" stroke="#3B3A48" stroke-width="4" />
  <path d="M719.382 58V55.595V54.3555C719.382 52.9865 719.635 51.8087 720.141 50.822C720.646 49.823 721.319 48.9535 722.157 48.2135C722.996 47.4735 723.915 46.8198 724.914 46.2525C725.925 45.6728 726.924 45.1302 727.911 44.6245C728.91 44.1065 729.829 43.5762 730.667 43.0335C731.506 42.4785 732.178 41.8618 732.684 41.1835C733.202 40.5052 733.461 39.6973 733.461 38.76C733.461 37.5637 733.035 36.5893 732.184 35.837C731.346 35.0723 730.205 34.69 728.762 34.69C727.232 34.69 725.968 35.1278 724.969 36.0035C723.983 36.8792 723.397 38.1125 723.212 39.7035H718.846C718.87 38.0755 719.259 36.5955 720.011 35.2635C720.764 33.9315 721.88 32.8708 723.36 32.0815C724.84 31.2798 726.684 30.879 728.891 30.879C730.803 30.879 732.449 31.212 733.831 31.878C735.224 32.5317 736.297 33.4505 737.05 34.6345C737.814 35.8062 738.197 37.1752 738.197 38.7415C738.197 40.1105 737.944 41.2822 737.438 42.2565C736.945 43.2308 736.285 44.0757 735.459 44.791C734.645 45.494 733.744 46.1168 732.758 46.6595C731.783 47.2022 730.803 47.714 729.816 48.195C728.842 48.6637 727.942 49.157 727.115 49.675C726.301 50.1807 725.641 50.7603 725.136 51.414C724.642 52.0677 724.396 52.8508 724.396 53.7635V54.152H738.252V58H719.382Z" fill="#3B3A48" />
</svg>
