<svg width="173" height="72" viewBox="0 0 173 72" fill="none" xmlns="http://www.w3.org/2000/svg">
  <path d="M0.5 2.96992C0.5 1.32968 1.82968 0 3.46992 0H146.022C146.993 0 147.902 0.474137 148.457 1.26987L171.471 34.236C172.184 35.2572 172.184 36.6148 171.471 37.6361L148.457 70.6022C147.902 71.3979 146.993 71.8721 146.022 71.8721H3.46991C1.82967 71.8721 0.5 70.5424 0.5 68.9022V2.96992Z" fill="#FDB81E" />
  <path d="M16.3798 49.4355V22.6845H26.2218C28.1705 22.6845 29.9156 23.0237 31.4573 23.702C32.999 24.368 34.2138 25.3547 35.1018 26.662C36.0021 27.9694 36.4523 29.5665 36.4523 31.4535C36.4523 33.2295 36.0576 34.7465 35.2683 36.0045C34.479 37.2625 33.369 38.2245 31.9383 38.8905C30.52 39.5565 28.8488 39.8895 26.9248 39.8895H21.8188V49.4355H16.3798ZM21.7633 35.7085H26.7768C28.1335 35.7085 29.2435 35.2769 30.1068 34.4135C30.9701 33.5379 31.4018 32.4587 31.4018 31.176C31.4018 29.844 30.9455 28.7895 30.0328 28.0125C29.1201 27.2232 28.0101 26.8285 26.7028 26.8285H21.7633V35.7085ZM39.832 49.4355V21.9445H45.197V33.063C45.5054 32.619 45.8939 32.1812 46.3625 31.7495C46.8312 31.3055 47.417 30.9355 48.12 30.6395C48.823 30.3435 49.6802 30.1955 50.6915 30.1955C51.9125 30.1955 53.0225 30.436 54.0215 30.917C55.0329 31.3857 55.8407 32.0702 56.445 32.9705C57.0617 33.8709 57.37 34.9685 57.37 36.2635V49.4355H51.9495V37.059C51.9495 36.1957 51.635 35.5359 51.006 35.0795C50.3894 34.6109 49.637 34.3765 48.749 34.3765C48.1694 34.3765 47.6082 34.4814 47.0655 34.691C46.5229 34.9007 46.0789 35.2214 45.7335 35.653C45.4005 36.0724 45.234 36.5965 45.234 37.2255V49.4355H39.832ZM67.2996 49.8055C66.091 49.8055 64.9933 49.5774 64.0066 49.121C63.0323 48.6647 62.2615 48.0049 61.6941 47.1415C61.1268 46.2659 60.8431 45.2052 60.8431 43.9595C60.8431 41.8629 61.6263 40.2719 63.1926 39.1865C64.759 38.0889 67.2318 37.5215 70.6111 37.4845L73.0161 37.4475V36.3005C73.0161 35.4249 72.7571 34.7527 72.2391 34.284C71.7335 33.803 70.938 33.5687 69.8526 33.581C69.0756 33.5934 68.3295 33.7784 67.6141 34.136C66.9111 34.4937 66.424 35.1165 66.1526 36.0045H61.6571C61.7311 34.6232 62.132 33.4885 62.8596 32.6005C63.5996 31.7002 64.5925 31.0342 65.8381 30.6025C67.0838 30.1585 68.5083 29.9365 70.1116 29.9365C72.0603 29.9365 73.6266 30.1832 74.8106 30.6765C75.9946 31.1575 76.8518 31.8544 77.3821 32.767C77.9248 33.6674 78.1961 34.7404 78.1961 35.986V49.4355H73.6821L73.2381 46.1425C72.5845 47.5239 71.7643 48.4797 70.7776 49.01C69.8033 49.5404 68.644 49.8055 67.2996 49.8055ZM69.1311 46.2535C69.6121 46.2535 70.0808 46.1672 70.5371 45.9945C71.0058 45.8095 71.4251 45.569 71.7951 45.273C72.1651 44.9647 72.455 44.6194 72.6646 44.237C72.8866 43.8547 73.0038 43.46 73.0161 43.053V40.2225L71.0736 40.2595C70.1733 40.2719 69.3346 40.3829 68.5576 40.5925C67.7806 40.7899 67.1516 41.1167 66.6706 41.573C66.202 42.0294 65.9676 42.646 65.9676 43.423C65.9676 44.311 66.2698 45.0079 66.8741 45.5135C67.4908 46.0069 68.2431 46.2535 69.1311 46.2535ZM90.0925 49.8055C88.7605 49.8055 87.4778 49.5897 86.2445 49.158C85.0235 48.714 83.9813 48.0234 83.118 47.086C82.267 46.1364 81.7305 44.9092 81.5085 43.4045H86.1705C86.3432 44.0829 86.6392 44.6194 87.0585 45.014C87.4902 45.4087 87.9773 45.6924 88.52 45.865C89.0627 46.0254 89.5807 46.1055 90.074 46.1055C91.11 46.1055 91.9425 45.9452 92.5715 45.6245C93.2128 45.2915 93.5335 44.7859 93.5335 44.1075C93.5335 43.5895 93.3423 43.1764 92.96 42.868C92.59 42.5597 91.9733 42.3254 91.11 42.165L87.743 41.462C86.0533 41.1044 84.6905 40.5 83.6545 39.649C82.6308 38.7857 82.1128 37.5647 82.1005 35.986C82.0882 34.839 82.3842 33.8092 82.9885 32.8965C83.6052 31.9839 84.5117 31.2624 85.708 30.732C86.9167 30.2017 88.3905 29.9365 90.1295 29.9365C92.4852 29.9365 94.366 30.4545 95.772 31.4905C97.1903 32.5265 97.9118 33.988 97.9365 35.875H93.4225C93.2868 35.135 92.9168 34.5677 92.3125 34.173C91.7205 33.766 90.9682 33.5625 90.0555 33.5625C89.1305 33.5625 88.3658 33.729 87.7615 34.062C87.1572 34.395 86.855 34.9007 86.855 35.579C86.855 36.0847 87.1017 36.4855 87.595 36.7815C88.0883 37.0652 88.853 37.3119 89.889 37.5215L92.997 38.2245C94.07 38.4835 94.9395 38.8412 95.6055 39.2975C96.2838 39.7415 96.808 40.2287 97.178 40.759C97.548 41.2894 97.8008 41.8259 97.9365 42.3685C98.0845 42.8989 98.1585 43.3799 98.1585 43.8115C98.1585 45.0819 97.8193 46.1672 97.141 47.0675C96.4627 47.9555 95.5192 48.6339 94.3105 49.1025C93.1018 49.5712 91.6958 49.8055 90.0925 49.8055ZM110.696 49.8055C108.796 49.8055 107.125 49.4109 105.682 48.6215C104.252 47.8199 103.135 46.6914 102.334 45.236C101.532 43.7807 101.131 42.0664 101.131 40.093C101.131 38.1814 101.495 36.4609 102.223 34.9315C102.963 33.3899 104.023 32.175 105.405 31.287C106.786 30.3867 108.457 29.9365 110.418 29.9365C112.367 29.9365 114.001 30.3497 115.321 31.176C116.64 31.99 117.639 33.1309 118.318 34.5985C118.996 36.0539 119.335 37.7374 119.335 39.649V41.1105H106.478C106.478 42.0849 106.638 42.9359 106.959 43.6635C107.279 44.3789 107.742 44.9339 108.346 45.3285C108.963 45.7109 109.703 45.902 110.566 45.902C111.491 45.902 112.299 45.7047 112.99 45.31C113.68 44.9154 114.168 44.2679 114.451 43.3675H119.317C119.095 44.7242 118.552 45.8835 117.689 46.8455C116.825 47.8075 115.777 48.5414 114.544 49.047C113.31 49.5527 112.028 49.8055 110.696 49.8055ZM106.478 37.8915H114.285C114.285 37.1269 114.137 36.4239 113.841 35.7825C113.557 35.1412 113.125 34.6355 112.546 34.2655C111.978 33.8955 111.263 33.7105 110.4 33.7105C109.573 33.7105 108.864 33.914 108.272 34.321C107.693 34.7157 107.242 35.2337 106.922 35.875C106.613 36.5164 106.465 37.1885 106.478 37.8915ZM135.516 49.4355V29.4H130.743V26.3475C132.273 26.3475 133.506 26.2057 134.443 25.922C135.393 25.626 136.102 25.2067 136.571 24.664C137.04 24.109 137.317 23.4492 137.403 22.6845H140.992V49.4355H135.516Z" fill="#3B3A48" />
</svg>
