<svg width="24" height="18" viewBox="0 0 24 18" fill="none" xmlns="http://www.w3.org/2000/svg" aria-hidden="true">
  <path d="M11.8249 17.8295C12.5027 17.8295 13.0522 17.2801 13.0522 16.6023C13.0522 15.9245 12.5027 15.375 11.8249 15.375C11.1471 15.375 10.5977 15.9245 10.5977 16.6023C10.5977 17.2801 11.1471 17.8295 11.8249 17.8295Z" fill="white" />
  <path d="M22.4602 5.26966C19.4612 2.81004 15.7025 1.46582 11.8239 1.46582C7.94524 1.46582 4.1865 2.81004 1.1875 5.26966" stroke="#EEF8FB" stroke-width="1.63636" stroke-linecap="round" stroke-linejoin="round" />
  <path d="M19.1882 8.93199C17.0924 7.27285 14.4976 6.37012 11.8246 6.37012C9.15151 6.37012 6.55677 7.27285 4.46094 8.93199" stroke="#EEF8FB" stroke-width="1.63636" stroke-linecap="round" stroke-linejoin="round" />
  <path d="M15.9162 12.6137C14.7274 11.749 13.2953 11.2832 11.8253 11.2832C10.3553 11.2832 8.92313 11.749 7.73438 12.6137" stroke="#EEF8FB" stroke-width="1.63636" stroke-linecap="round" stroke-linejoin="round" />
</svg>
