<svg xmlns="http://www.w3.org/2000/svg" width="48" height="49" viewBox="0 0 48 49" fill="none" aria-hidden="true">
  <g clip-path="url(#clip0_4843_9275)">
    <path d="M36.8555 21.3311C38.727 21.3297 40.573 21.7647 42.2469 22.6017C43.9209 23.4386 45.3765 24.6544 46.4983 26.1525" stroke="#EEF8FB" stroke-width="3" stroke-linecap="round" stroke-linejoin="round" />
    <path d="M1.5 26.1525C2.62178 24.6544 4.07745 23.4386 5.75138 22.6017C7.42531 21.7647 9.27135 21.3297 11.1429 21.3311" stroke="#EEF8FB" stroke-width="3" stroke-linecap="round" stroke-linejoin="round" />
    <path d="M24.0006 34.1876C28.4386 34.1876 32.0363 30.5899 32.0363 26.1519C32.0363 21.7139 28.4386 18.1162 24.0006 18.1162C19.5626 18.1162 15.9648 21.7139 15.9648 26.1519C15.9648 30.5899 19.5626 34.1876 24.0006 34.1876Z" stroke="#EEF8FB" stroke-width="3" stroke-linecap="round" stroke-linejoin="round" />
    <path d="M12.75 40.617C13.9037 38.6592 15.5484 37.0364 17.5214 35.909C19.4944 34.7815 21.7275 34.1885 24 34.1885C26.2724 34.1885 28.5056 34.7815 30.4786 35.909C32.4516 37.0364 34.0963 38.6592 35.25 40.617" stroke="#EEF8FB" stroke-width="3" stroke-linecap="round" stroke-linejoin="round" />
    <path d="M30.6289 13.2951C30.9295 12.131 31.5504 11.0746 32.4212 10.2457C33.2921 9.41686 34.3778 8.84879 35.5553 8.60605C36.7328 8.3633 37.9547 8.45559 39.0823 8.87244C40.21 9.28929 41.1981 10.014 41.9346 10.9642C42.671 11.9145 43.1263 13.0522 43.2486 14.2482C43.3709 15.4442 43.1554 16.6505 42.6265 17.7302C42.0976 18.8098 41.2766 19.7195 40.2567 20.356C39.2368 20.9925 38.0588 21.3302 36.8566 21.3308" stroke="#EEF8FB" stroke-width="3" stroke-linecap="round" stroke-linejoin="round" />
    <path d="M11.1441 21.3308C9.94186 21.3302 8.7639 20.9925 7.74398 20.356C6.72405 19.7195 5.90304 18.8098 5.37418 17.7302C4.84532 16.6505 4.6298 15.4442 4.75211 14.2482C4.87441 13.0522 5.32964 11.9145 6.06608 10.9642C6.80253 10.014 7.79069 9.28929 8.91833 8.87244C10.046 8.45559 11.2679 8.3633 12.4454 8.60605C13.6228 8.84879 14.7086 9.41686 15.5794 10.2457C16.4503 11.0746 17.0712 12.131 17.3718 13.2951" stroke="#EEF8FB" stroke-width="3" stroke-linecap="round" stroke-linejoin="round" />
  </g>
  <defs>
    <clipPath id="clip0_4843_9275">
      <rect width="48" height="48" fill="white" transform="translate(0 0.5)" />
    </clipPath>
  </defs>
</svg>
