<svg xmlns="http://www.w3.org/2000/svg" width="49" height="49" viewBox="0 0 49 49" fill="none">
  <path d="M42.25 10.1277H3.75" stroke="#EEF8FB" stroke-width="3.5" stroke-linecap="round" stroke-linejoin="round" />
  <path d="M17.75 20.6277V34.6277" stroke="#EEF8FB" stroke-width="3.5" stroke-linecap="round" stroke-linejoin="round" />
  <path d="M28.25 20.6277V34.6277" stroke="#EEF8FB" stroke-width="3.5" stroke-linecap="round" stroke-linejoin="round" />
  <path d="M38.75 10.1277V43.3777C38.75 43.8418 38.5656 44.2869 38.2374 44.6151C37.9092 44.9433 37.4641 45.1277 37 45.1277H9C8.53587 45.1277 8.09075 44.9433 7.76256 44.6151C7.43437 44.2869 7.25 43.8418 7.25 43.3777V10.1277" stroke="#EEF8FB" stroke-width="3.5" stroke-linecap="round" stroke-linejoin="round" />
  <path d="M31.75 10.1277V6.62769C31.75 5.69943 31.3813 4.80919 30.7249 4.15281C30.0685 3.49643 29.1783 3.12769 28.25 3.12769H17.75C16.8217 3.12769 15.9315 3.49643 15.2751 4.15281C14.6187 4.80919 14.25 5.69943 14.25 6.62769V10.1277" stroke="#EEF8FB" stroke-width="3.5" stroke-linecap="round" stroke-linejoin="round" />
</svg>
