<svg xmlns="http://www.w3.org/2000/svg" width="48" height="49" viewBox="0 0 48 49" fill="none">
  <path d="M23.9999 37.8464C24.7333 39.826 26.9573 41.308 29.1922 41.308C30.5693 41.308 31.89 40.7609 32.8637 39.7872C33.8375 38.8134 34.3845 37.4927 34.3845 36.1156C34.3845 34.7386 33.8375 33.4179 32.8637 32.4441C31.89 31.4704 30.5693 30.9233 29.1922 30.9233H4.96143" stroke="#EEF8FB" stroke-width="3" stroke-linecap="round" stroke-linejoin="round" />
  <path d="M17.0769 10.1542C17.8103 8.1746 20.0344 6.69263 22.2692 6.69263C23.6463 6.69263 24.967 7.23967 25.9407 8.21342C26.9145 9.18717 27.4615 10.5078 27.4615 11.8849C27.4615 13.262 26.9145 14.5827 25.9407 15.5565C24.967 16.5302 23.6463 17.0772 22.2692 17.0772H1.5" stroke="#EEF8FB" stroke-width="3" stroke-linecap="round" stroke-linejoin="round" />
  <path d="M36.1156 17.0773C36.849 15.0977 39.073 13.6157 41.3079 13.6157C42.685 13.6157 44.0056 14.1628 44.9794 15.1365C45.9531 16.1103 46.5002 17.4309 46.5002 18.808C46.5002 20.1851 45.9531 21.5058 44.9794 22.4795C44.0056 23.4533 42.685 24.0003 41.3079 24.0003H3.23096" stroke="#EEF8FB" stroke-width="3" stroke-linecap="round" stroke-linejoin="round" />
</svg>
