<svg width="23" height="20" viewBox="0 0 23 20" fill="none" xmlns="http://www.w3.org/2000/svg" aria-hidden="true">
  <path d="M11.2812 4.77224C11.2812 3.95618 11.6054 3.17356 12.1825 2.59652C12.7595 2.01949 13.5421 1.69531 14.3582 1.69531H21.2813V15.5415H14.3582C13.5421 15.5415 12.7595 15.8656 12.1825 16.4427C11.6054 17.0197 11.2813 17.8023 11.2812 18.6184" stroke="#EEF8FB" stroke-width="1.53846" stroke-linecap="round" stroke-linejoin="round" />
  <path d="M1.28125 15.5415H8.20433C9.02038 15.5415 9.80301 15.8656 10.38 16.4427C10.9571 17.0197 11.2813 17.8023 11.2813 18.6184V4.77224C11.2813 3.95618 10.9571 3.17356 10.38 2.59652C9.80301 2.01949 9.02038 1.69531 8.20433 1.69531H1.28125V15.5415Z" stroke="#EEF8FB" stroke-width="1.53846" stroke-linecap="round" stroke-linejoin="round" />
  <path d="M14.3594 5.54102H18.2055" stroke="#EEF8FB" stroke-width="1.53846" stroke-linecap="round" stroke-linejoin="round" />
  <path d="M14.3594 8.61914H18.2055" stroke="#EEF8FB" stroke-width="1.53846" stroke-linecap="round" stroke-linejoin="round" />
  <path d="M14.3594 11.6953H18.2055" stroke="#EEF8FB" stroke-width="1.53846" stroke-linecap="round" stroke-linejoin="round" />
</svg>
