<svg width="49" height="48" viewBox="0 0 49 48" fill="none" xmlns="http://www.w3.org/2000/svg">
  <g clip-path="url(#clip0_749_4967)">
    <path d="M23.4834 37.2109C29.7284 37.2109 34.791 32.1483 34.791 25.9033C34.791 19.6583 29.7284 14.5957 23.4834 14.5957C17.2384 14.5957 12.1758 19.6583 12.1758 25.9033C12.1758 32.1483 17.2384 37.2109 23.4834 37.2109Z" stroke="#EEF8FB" stroke-width="3.23074" stroke-linecap="round" stroke-linejoin="round" />
    <path d="M39.6381 41.2148C37.6734 42.4703 35.3468 43.0361 33.025 42.8231C30.7033 42.6101 28.5184 41.6304 26.815 40.0384C25.1116 38.4465 23.9865 36.3329 23.617 34.0308C23.2476 31.7287 23.6549 29.3692 24.7747 27.3242C25.8945 25.2792 27.663 23.665 29.8016 22.7363C31.9401 21.8075 34.327 21.6169 36.5858 22.1946C38.8446 22.7722 40.8469 24.0853 42.277 25.9267C43.7071 27.7681 44.4836 30.0331 44.4842 32.3646" stroke="#EEF8FB" stroke-width="3.23074" stroke-linecap="round" stroke-linejoin="round" />
    <path d="M2.48438 32.3646C2.48492 30.0331 3.26146 27.7681 4.69156 25.9267C6.12166 24.0853 8.12397 22.7722 10.3828 22.1946C12.6416 21.6169 15.0284 21.8075 17.167 22.7363C19.3055 23.665 21.0741 25.2792 22.1939 27.3242C23.3137 29.3692 23.721 31.7287 23.3515 34.0308C22.9821 36.3329 21.857 38.4465 20.1536 40.0384C18.4501 41.6304 16.2653 42.6101 13.9435 42.8231C11.6218 43.0361 9.29513 42.4703 7.33048 41.2148" stroke="#EEF8FB" stroke-width="3.23074" stroke-linecap="round" stroke-linejoin="round" />
    <path d="M28.3304 4.86084C30.4159 5.94584 32.0769 7.69931 33.0475 9.84043C34.0181 11.9816 34.2421 14.3864 33.6836 16.67C33.1251 18.9535 31.8164 20.9836 29.9672 22.435C28.118 23.8865 25.8351 24.6754 23.4843 24.6754C21.1334 24.6754 18.8506 23.8865 17.0014 22.435C15.1521 20.9836 13.8435 18.9535 13.285 16.67C12.7265 14.3864 12.9505 11.9816 13.9211 9.84043C14.8917 7.69931 16.5527 5.94584 18.6382 4.86084" stroke="#EEF8FB" stroke-width="3.23074" stroke-linecap="round" stroke-linejoin="round" />
  </g>
  <defs>
    <clipPath id="clip0_749_4967">
      <rect width="48" height="48" fill="white" transform="translate(0.5)" />
    </clipPath>
  </defs>
</svg>
