<svg xmlns="http://www.w3.org/2000/svg" width="48" height="49" viewBox="0 0 48 49" fill="none" aria-hidden="true">
  <path d="M3.91406 44.9961H44.0866V23.0838C44.0868 22.8439 44.0397 22.6064 43.9481 22.3847C43.8564 22.163 43.722 21.9616 43.5525 21.7919L25.2922 3.53164C25.1227 3.36186 24.9213 3.22718 24.6996 3.13529C24.4779 3.04339 24.2403 2.99609 24.0003 2.99609C23.7604 2.99609 23.5227 3.04339 23.3011 3.13529C23.0794 3.22718 22.878 3.36186 22.7084 3.53164L4.44818 21.7919C4.27866 21.9616 4.14424 22.163 4.05259 22.3847C3.96095 22.6064 3.91387 22.8439 3.91406 23.0838V44.9961Z" stroke="#EEF8FB" stroke-width="3" stroke-linecap="round" stroke-linejoin="round" />
  <path d="M14.8711 29.0928L20.3492 34.5709L31.7873 22.7295" stroke="#EEF8FB" stroke-width="3" stroke-linecap="round" stroke-linejoin="round" />
</svg>
