<svg xmlns="http://www.w3.org/2000/svg" width="47" height="46" viewBox="0 0 47 46" fill="none">
  <path d="M35.166 2L44.4993 11.3333" stroke="#EEF8FB" stroke-width="3.5" stroke-linecap="round" stroke-linejoin="round" />
  <path d="M39.8342 6.66675L14.9453 31.5556" stroke="#EEF8FB" stroke-width="3.5" stroke-linecap="round" stroke-linejoin="round" />
  <path d="M4.05556 43.9999C3.643 43.9999 3.24734 43.836 2.95561 43.5443C2.66389 43.2526 2.5 42.8569 2.5 42.4443V26.8888C2.49984 26.6844 2.53994 26.4821 2.61801 26.2932C2.69608 26.1044 2.81059 25.9328 2.955 25.7882L13.8439 14.8993C13.9884 14.7547 14.1599 14.64 14.3488 14.5617C14.5376 14.4834 14.74 14.4431 14.9444 14.4431C15.1489 14.4431 15.3513 14.4834 15.5401 14.5617C15.729 14.64 15.9005 14.7547 16.045 14.8993L31.6006 30.4549C31.7452 30.5994 31.8599 30.7709 31.9382 30.9598C32.0165 31.1486 32.0568 31.351 32.0568 31.5555C32.0568 31.7599 32.0165 31.9623 31.9382 32.1511C31.8599 32.34 31.7452 32.5115 31.6006 32.656L20.7117 43.5449C20.5671 43.6893 20.3955 43.8038 20.2067 43.8819C20.0178 43.96 19.8155 44.0001 19.6111 43.9999H4.05556Z" stroke="#EEF8FB" stroke-width="3.5" stroke-linecap="round" stroke-linejoin="round" />
</svg>
