<svg xmlns="http://www.w3.org/2000/svg" width="35" height="35" viewBox="0 0 35 35" fill="none">
  <mask id="mask0_687_2710" style="mask-type:alpha" maskUnits="userSpaceOnUse" x="0" y="0" width="35" height="35">
    <rect width="35" height="35" fill="#D9D9D9" />
  </mask>
  <g mask="url(#mask0_687_2710)">
    <path d="M17.5 20.4165C17.0868 20.4165 16.7405 20.2767 16.4609 19.9972C16.1814 19.7177 16.0417 19.3714 16.0417 18.9582C16.0417 18.545 16.1814 18.1986 16.4609 17.9191C16.7405 17.6396 17.0868 17.4998 17.5 17.4998C17.9132 17.4998 18.2596 17.6396 18.5391 17.9191C18.8186 18.1986 18.9583 18.545 18.9583 18.9582C18.9583 19.3714 18.8186 19.7177 18.5391 19.9972C18.2596 20.2767 17.9132 20.4165 17.5 20.4165ZM11.6667 20.4165C11.2535 20.4165 10.9071 20.2767 10.6276 19.9972C10.3481 19.7177 10.2083 19.3714 10.2083 18.9582C10.2083 18.545 10.3481 18.1986 10.6276 17.9191C10.9071 17.6396 11.2535 17.4998 11.6667 17.4998C12.0799 17.4998 12.4262 17.6396 12.7057 17.9191C12.9852 18.1986 13.125 18.545 13.125 18.9582C13.125 19.3714 12.9852 19.7177 12.7057 19.9972C12.4262 20.2767 12.0799 20.4165 11.6667 20.4165ZM23.3333 20.4165C22.9201 20.4165 22.5738 20.2767 22.2943 19.9972C22.0148 19.7177 21.875 19.3714 21.875 18.9582C21.875 18.545 22.0148 18.1986 22.2943 17.9191C22.5738 17.6396 22.9201 17.4998 23.3333 17.4998C23.7465 17.4998 24.0929 17.6396 24.3724 17.9191C24.6519 18.1986 24.7917 18.545 24.7917 18.9582C24.7917 19.3714 24.6519 19.7177 24.3724 19.9972C24.0929 20.2767 23.7465 20.4165 23.3333 20.4165ZM17.5 26.2498C17.0868 26.2498 16.7405 26.1101 16.4609 25.8306C16.1814 25.5511 16.0417 25.2047 16.0417 24.7915C16.0417 24.3783 16.1814 24.032 16.4609 23.7524C16.7405 23.4729 17.0868 23.3332 17.5 23.3332C17.9132 23.3332 18.2596 23.4729 18.5391 23.7524C18.8186 24.032 18.9583 24.3783 18.9583 24.7915C18.9583 25.2047 18.8186 25.5511 18.5391 25.8306C18.2596 26.1101 17.9132 26.2498 17.5 26.2498ZM11.6667 26.2498C11.2535 26.2498 10.9071 26.1101 10.6276 25.8306C10.3481 25.5511 10.2083 25.2047 10.2083 24.7915C10.2083 24.3783 10.3481 24.032 10.6276 23.7524C10.9071 23.4729 11.2535 23.3332 11.6667 23.3332C12.0799 23.3332 12.4262 23.4729 12.7057 23.7524C12.9852 24.032 13.125 24.3783 13.125 24.7915C13.125 25.2047 12.9852 25.5511 12.7057 25.8306C12.4262 26.1101 12.0799 26.2498 11.6667 26.2498ZM23.3333 26.2498C22.9201 26.2498 22.5738 26.1101 22.2943 25.8306C22.0148 25.5511 21.875 25.2047 21.875 24.7915C21.875 24.3783 22.0148 24.032 22.2943 23.7524C22.5738 23.4729 22.9201 23.3332 23.3333 23.3332C23.7465 23.3332 24.0929 23.4729 24.3724 23.7524C24.6519 24.032 24.7917 24.3783 24.7917 24.7915C24.7917 25.2047 24.6519 25.5511 24.3724 25.8306C24.0929 26.1101 23.7465 26.2498 23.3333 26.2498ZM7.29167 32.0832C6.48958 32.0832 5.80295 31.7976 5.23177 31.2264C4.66059 30.6552 4.375 29.9686 4.375 29.1665V8.74984C4.375 7.94775 4.66059 7.26112 5.23177 6.68994C5.80295 6.11876 6.48958 5.83317 7.29167 5.83317H8.75V2.9165H11.6667V5.83317H23.3333V2.9165H26.25V5.83317H27.7083C28.5104 5.83317 29.1971 6.11876 29.7682 6.68994C30.3394 7.26112 30.625 7.94775 30.625 8.74984V29.1665C30.625 29.9686 30.3394 30.6552 29.7682 31.2264C29.1971 31.7976 28.5104 32.0832 27.7083 32.0832H7.29167ZM7.29167 29.1665H27.7083V14.5832H7.29167V29.1665Z" fill="#046B99" />
  </g>
</svg>
