<?xml version="1.0" encoding="utf-8"?>
<!-- Generator: Adobe Illustrator 27.4.1, SVG Export Plug-In . SVG Version: 6.00 Build 0)  -->
<svg version="1.1" id="Layer_1" xmlns="http://www.w3.org/2000/svg" xmlns:xlink="http://www.w3.org/1999/xlink" x="0px" y="0px"
	 viewBox="0 0 465.6 244.4" style="enable-background:new 0 0 465.6 244.4;" xml:space="preserve">
<style type="text/css">
	.st0{fill:#69A6C2;}
</style>
<path class="st0" d="M331.4,228.2C331.4,228.2,331.3,228.2,331.4,228.2l-36.4-0.4c-0.3,0-0.6-0.1-0.8-0.3c-0.2,0.2-0.5,0.3-0.8,0.4
	l-42.6-0.4c-0.5,0-0.9-0.3-1.1-0.8c-0.2-0.5-4.3-12.9-4.4-18c0-1.1-0.1-2.4-0.2-3.9c0-0.2,0-0.3,0-0.5c-0.6,2.7-1.6,6.3-2.9,11.1
	c1.8,0.1,3.9,0.4,5,3.5c1.4,4,2.1,7.1,2.1,7.2c0.1,0.3,0,0.7-0.2,0.9c-0.2,0.3-0.5,0.4-0.9,0.4l-18.8,0.2c-0.3,0-0.6-0.1-0.8-0.3
	c-0.2-0.2-0.3-0.5-0.3-0.8c0-1.3,0-2.5-0.1-3.8c-0.1,1.5-0.2,2.8-0.2,3.7c0,0.6-0.5,1.1-1.1,1.1l-192.5,0.1c-0.6,0-1.1-0.5-1.1-1.1
	c0-0.6,0.5-1.1,1.1-1.1l191.4-0.1c0.2-3.2,0.7-11.8,1.5-14.2c0.3-0.8,0.7-1,1.1-1c-0.3-2.3,0.1-5.8,0.7-10.7
	c0.3-2.7,0.7-5.4,0.8-7.5c0.1-3.6,0-9.3-0.1-13.9c-0.1-3.3-0.1-6-0.1-7.1c0-0.4,0-1-0.1-1.6c-0.1-2-0.2-4,1.1-4.9
	c1.3-0.9,2.9-0.1,3.5,0.2c3.5,1.7,42.1,0.4,49.7-0.3c-0.7-0.7-1.9-1.5-2.9-2.4c-2.5-2-5.7-4.5-8.3-7.3c-4-4.4-4.5-11-4.8-16.4
	c-0.1-1.9-0.2-3.6-0.5-5.1c-1.3,3-3.2,10.2-4.5,16.1c0.1,0,0.2,0,0.2,0.1c3.6,1.1,3.8,2.9,3.7,3.9c-0.6,3.6-3.3,6.9-5.5,6.6
	c-0.5,0-2.1-0.4-1.9-3c0-1,0.4-3.1,0.9-5.8c-6.4-0.9-16.8,1-19.5,7c-2.1,4.9-4.1,7-6.2,6.6c-1.9-0.4-2.9-2.9-2.9-5.2
	c0-1.4-0.5-2.2-1.2-3.4c-0.8-1.4-1.8-3.2-2.5-6.4c-1.1-5.5,1.3-19.4,1.8-22.5c-5.1-5-13.1-12.5-14.7-13.7c-0.9,0.1-3.4,0.8-5.5,1.4
	c-5.5,1.5-8.1,2.2-9.1,2c-2-0.3-10.1-3.6-10.2-9.5c-0.1-4.9,3.1-12.9,4.5-15.7c-7.4,1.7-24.4,5.6-36.5,8.4c-0.6,0.1-1.2-0.2-1.3-0.8
	l-8.1-26.5c-0.1-0.3,0-0.7,0.1-0.9c0.2-0.3,0.5-0.5,0.8-0.5l2.1-0.2l-3.7-21.3c-0.1-0.3,0-0.7,0.2-0.9c0.2-0.3,0.5-0.4,0.8-0.4
	c2.3,0,47.6-1,62-1.3c-0.4-0.4-1.3-1.2-0.6-2.2c0,0,1.8-2.4,3.9-2.2c0.4,0,0.9,0.2,1.4,0.6c0.6-1.2,2.2-1.8,3.1-1.9
	c0.5-0.1,1,0.1,1.5,0.4c0.3-0.4,0.9-0.7,2-0.5c0.3,0.1,0.6,0.1,1,0.2c0.8,0.1,1.4,0.2,2,0.4c0,0,0.1,0,0.1,0c1-0.2,2.1,0.6,2.9,1.2
	c0.7,0.6,2.2,2,2.1,3.5c0,0,0,0.1,0,0.2c0.1,0,0.2,0,0.3,0l18.9,0.2c0.2,0,0.4,0.1,0.6,0.2c0.4-1.6,0.4-1.6,0.3-1.9
	c-0.1-0.4-0.3-1-0.5-2.3c-0.2-1.4-0.1-4.1,0.3-6.4c-2.7-0.7-6.6-2.3-7.7-3.4c-0.5-0.5-0.7-1.3-0.3-1.9c0.8-1.7,4.6-3.2,6.2-3
	c0.5-0.2,1-2.4,1.4-3.7c0.2-0.7,0.4-1.4,0.6-2.1c1.1-3.5,9.5-11.9,17.7-13.9c8-1.9,12.1,1.2,17.3,5l0.3,0.3c2.2,1.7,2.7,3.1,2.5,4.1
	c4.3,5,5.4,17.4,5.4,17.5c0.1,0.9-0.2,1.4-0.7,1.7c0.8,0.8,1.4,1.5,1.8,2.2c2.8-0.7,5.8-1.1,7.2-0.9c2.6,0.5,3.1,4.2,3.5,7.1
	c0,0.3,0.1,0.6,0.1,0.8c1.8,0.1,3.2,0.4,3.5,0.7c1.3,1.3,3.1,23.5,3.1,23.7c-0.1,0.6-0.5,1-1.2,1.2c-1.9,0.6-17.6,1.6-18.8,0.3
	c-0.1,0-0.3-0.2-0.6-0.5c0.2,0.4,0.3,0.8,0.1,1.2c-0.1,0.3-0.3,0.5-0.5,0.7c3.1,0.1,6.1,0.6,7.4,1.6c0.9,0.7,0.8,1.5,0.7,1.9
	c-0.1,0.2-0.2,0.4-0.3,0.6c1.3,0.1,2.5,0.3,3.3,0.6c5.2,2.3,5.1,8.5,5.1,15c0,7.1-6.4,25.6-7.9,28.9c-0.9,1.9-2.1,7-2.8,12.4
	c2.3,4.2,2.9,7.1,2.5,13.5c-0.2,4.5-2.6,7.3-4.6,9.8c-1.1,1.4-2.2,2.7-2.9,4.1c-1.3,2.8-1.1,5.9,0.4,9.2c0.2,0.5,0.2,1-0.1,1.4
	c-0.2,0.3-0.5,0.6-0.9,0.8c1.6,0.1,3.2,0.6,4.6,2.1c1.2,1.3,1.9,3.7,2.2,6.1c0.3,0.3,0.6,0.7,0.8,1.1c2.6,4,3.9,17.5,3.7,20.8
	c-0.1,2.1-1.1,4.4-2.6,4.4c0,0,0,0,0,0c-1.2,0-1.9-1.2-1.9-3.5c-0.1-4.1-2.3-7.5-3.2-8.8c-0.1-0.1-0.1-0.1-0.1-0.2
	c-0.3,0.1-1,0.6-1.5,1c-0.7,0.5-1.5,1.1-2.5,1.8c-3.9,2.4-18.4,1.5-20.1,0.9c-1-0.4-0.9-1.2-0.9-1.3c0.2-1,0.9-1,3.1-1
	c3.8,0.1,12.5,0.2,16.2-2.3c0.7-0.5,1.2-0.9,1.7-1.2c1-0.7,1.8-1.2,2.1-1.5c0-0.1-0.1-0.2-0.1-0.3c-0.1-0.3-0.3-0.6-0.4-1.1
	c0-0.1-0.1-0.1-0.1-0.2c-0.3,0.2-0.8,0.6-1.2,0.9c-0.9,0.8-2.2,1.8-4,3c-4.9,3.1-11.6,2.3-15.7,1.8c-0.5-0.1-1-0.1-1.4-0.2
	c-1.4,1-0.3,11.9,0.8,16.2c0.5,2,2.8,2.5,8.1,1.8c2.1-0.3,6.6-1.6,10.9-2.9c7.1-2.1,11.5-3.4,13.3-3.1c1.2,0.2,2,0.6,2.4,1.4
	c0.7,1.2,0,2.6-0.4,3.6c-0.1,0.2-0.2,0.5-0.3,0.6c-0.4,1.7-4,2.6-7.3,2.8c0,0.1,0,0.3,0,0.4c0,1.8-0.9,6.4-1.3,8.7l35,0.4
	c0.6,0,1.1,0.5,1.1,1.1C332.5,227.7,332,228.2,331.4,228.2z M251.6,225.2l40.9,0.4c1.4-5.4,2.2-8,2.8-9.1c-0.2,0-0.4,0-0.6,0
	c-2.2-0.2-11.3,2.1-18,3.8c-7.1,1.8-9.9,2.4-10.8,2.3c-1.1-0.2-2.1-0.3-3.2-13.8c-0.3-3.8-0.5-7.8-0.7-11.2
	c-4.3,1.5-11.9,2.7-14.7-0.1c0,0,0,0,0,0c-0.3,1.4-0.1,5,0.1,7.3c0.1,1.5,0.2,2.9,0.2,4C247.7,212.8,250.7,222.4,251.6,225.2z
	 M230.2,213.7c0.2,2.2,0.3,5.8,0.4,11.7l16.3-0.1c-0.3-1.3-0.9-3.3-1.7-5.6c-0.6-1.8-1.5-1.9-3.3-2c-0.1,0-0.2,0-0.3,0
	c-0.7,1.4-1.6,2.3-2.8,2.5C235.7,220.5,232.4,216.8,230.2,213.7z M264.2,196.5c0.5,9.9,1.4,21.4,2.4,23.8c1.4-0.2,5.7-1.3,9.6-2.2
	c9.2-2.3,16.4-4,18.8-3.8c3.7,0.3,7.3-0.7,7.9-1.2c0.1-0.3,0.2-0.5,0.3-0.8c0.1-0.3,0.6-1.3,0.5-1.6c0,0-0.1-0.2-0.7-0.2
	c-1.5-0.2-7.5,1.6-12.3,3.1c-4.6,1.4-8.9,2.7-11.2,3c-3.3,0.4-9.4,1.2-10.6-3.5c-0.4-1.4-3-15.1-0.3-18.2c0.5-0.6,1.2-0.9,1.9-0.8
	c0.4,0,0.9,0.1,1.5,0.2c3.7,0.4,10,1.2,14.2-1.5c1.7-1.1,2.9-2.1,3.8-2.8c1.4-1.1,2.2-1.8,3.3-1.5c0.9,0.2,1.3,1.1,1.5,1.8
	c0.1,0.4,0.3,0.7,0.4,0.9c0.5,1.2,0.5,1.9-0.2,2.7c0.1,0,0.3,0,0.4,0c0.6,0.1,1.1,0.4,1.6,1.1c1,1.4,3.4,5.2,3.6,9.9
	c0-0.2,0.1-0.5,0.1-0.8c0.1-2.6-0.8-11.9-2.3-16.9c0,0.2-0.1,0.4-0.2,0.6c-0.4,0.8-1,0.9-1.3,0.9c-0.9,0-1.4-0.9-1.5-1.2
	c-1-2.2-1.2-5.1,0.3-5.9c0.1,0,0.1-0.1,0.2-0.1c-0.3-1.5-0.8-3-1.4-3.7c-1.9-2-4.4-1.5-7.3-0.9c-0.3,0.1-0.7,0.1-1,0.2
	c-1,0.2-3.2,0.3-6,0.6c-2.2,0.2-5.3,0.4-8,0.7c2.2-0.1,4.6-0.3,6.7-0.5c9.9-0.8,13.8-1,14.7,0.8c0.2,0.4,0.4,1.2-0.5,2.1
	c-3.5,3.9-18,6.4-24.3,5.8c-0.3,1-0.8,1.6-1.1,2c-0.7,0.7-1.6,1.1-2.4,1.1c0.7,2,1,4.6,1,4.6C266.3,194.8,265.6,195.7,264.2,196.5z
	 M231.9,169.7c0,0.5,0,1,0,1.4c0,1,0,3.8,0.1,6.9c0.1,4.6,0.2,10.4,0.1,14c-0.1,2.2-0.4,5-0.8,7.7c-0.5,4.2-1.2,9.9-0.4,11.2
	c2.8,4.3,5.9,7.2,7.4,7c0.3,0,0.6-0.3,0.8-0.6c-0.3-0.1-0.5-0.2-0.8-0.3c-0.5-0.2-1.1-0.6-1.4-1.7c-1.3-4.1,4-15,6.2-18.4
	c0.3-0.4,0.8-1.2,1.5-1.4c-0.7-0.2-0.9-1-1.1-2.2c-0.1-0.8-0.3-1.7-0.6-2.7c-0.6-2.1-1.2-8.5-0.3-12c-3.1-1.8-8.1-4.8-9.5-6.9
	C232.6,170.9,232.2,170.2,231.9,169.7z M243.7,200.5c-2.6,4.8-5.3,12-4.6,14.2c0,0.1,0.1,0.2,0.1,0.2c0.3,0.1,0.5,0.2,0.8,0.3
	C241.7,209.1,243,203.8,243.7,200.5z M247,197L247,197L247,197z M247.1,194.8c0.6,0,1.2,0.3,1.8,0.9c1,1,4.1,1.3,7.8,0.7
	c2.1-0.3,3.9-0.9,5.1-1.4c-0.1-1.8-0.1-3.3-0.2-4.3c-0.1-1.8-0.1-3.8,1.3-4c-0.1-0.6-0.1-1.4-0.2-2.3c-0.1-1.7-0.3-5.2-0.9-6.2
	c-2.2,0.3-10.7,0.7-15.1,0.3c1.6,1.8,0.8,6.1,0.1,10.7c-0.2,1.1-0.4,2.1-0.5,3.1c-0.3,2.2-0.4,3.1-1.3,3.3c0.1,0,0.1,0,0.2,0.1
	c0,0,0.1,0,0.1,0.1c0.2-0.3,0.5-0.6,0.8-0.7C246.6,194.8,246.9,194.8,247.1,194.8z M244.7,179.7c-0.4,2.3-0.3,6.5,0.1,9.2
	c0,0,0,0,0,0c0.4-2.3,1.4-8.4,0.4-8.9C245.1,179.9,245,179.8,244.7,179.7z M265.1,184.6c0.1,1,0.1,1.9,0.2,2.4
	c0.1,0,0.4-0.1,0.7-0.5c0.1-0.1,0.3-0.4,0.5-0.8c0,0-0.1,0-0.1,0C265.9,185.4,265.5,185,265.1,184.6z M268.9,184
	c5,0.5,18.4-1.8,22-4.8c-2.1-0.3-7.9,0.1-11.9,0.5c-5.2,0.4-9,0.7-11.4,0.5c0.3,0.5,0.6,1.1,0.9,1.9
	C268.8,182.8,268.9,183.4,268.9,184z M264.5,178.7c0.1,0.4,0.2,0.8,0.2,1.2c0.1-0.2,0.3-0.3,0.4-0.4
	C264.8,179.3,264.6,179,264.5,178.7z M263.6,176.6c0.4,0.4,0.6,1.1,0.8,1.9c0-0.2,0-0.3,0-0.5c0.1-0.7,0.6-1.1,2.2-1.5
	c-0.6,0-1.2,0-1.7,0.1C264.4,176.6,264,176.6,263.6,176.6z M234.3,169.3c0.2,0.3,0.4,0.6,0.7,1c1,1.5,5.3,4.2,8.6,6.1c0,0,0,0,0,0
	c0.5-0.5,1.2-0.7,1.9-0.4c1,0.3,4,0.4,7.2,0.4c-5.5-0.7-12.1-2.5-16.8-5.9C235.3,170,234.7,169.6,234.3,169.3z M235.1,167.2
	c0.6,0.4,1.3,0.9,2.2,1.5c6.1,4.5,16.8,6.1,22.4,5.8c1.5-0.1,3.3-0.1,5.1-0.2c4.7-0.2,10.1-0.4,13.8-0.9c1.3-0.2,2.9-0.3,4.4-0.5
	c2.4-0.2,5.8-0.6,7.1-1c-1.9-4.6-1.1-8.2-0.1-10.5c0.2-0.5,0.4-0.9,0.7-1.3c0,0,0,0,0,0c-2,2.6-3.6,2.4-4.4,2.1
	c-1.1-0.5-2.3-2-1.6-6.6c0.6-4,6.3-20.8,10.2-21.7c0.8-5.2,2-10.1,2.9-12.2c0.7-1.6,2.4-6.2,4-11.5c-0.7,1.2-1.6,2-2.6,2.1
	c-0.5,0.1-1.9,0-2.5-1.9c-0.1-0.4-0.7-0.9-1.5-1.5c-3.1,2.5-6.3,5.5-7.8,7.4c-2.2,2.9-9.4,7.1-15.2,10.5c-1.7,1-3.3,1.9-4.3,2.6
	c-1.1,0.7-2.2,1-3.1,1.1c-2,1.8-4.4,3.5-5.5,4.3c-4.6,3.1-5.7,2.7-9.8,0.2c-0.6-0.4-1.4-0.8-2.3-1.3c-2.6-1.4-5.2-2.3-7.8-3.2
	c-2.6-0.9-5.2-1.7-7.1-3.1c-0.4,2.2-3,16.7-1.9,21.9c0.6,2.9,1.5,4.4,2.2,5.8c0.7,1.3,1.4,2.5,1.5,4.4c0.1,1.8,0.8,3,1.1,3.1
	c0,0,1.3,0.1,3.7-5.3c3.2-7.2,14.9-9.3,22-8.3c0.5-2.1,1-4.3,1.5-6.5c3.1-12.3,4.4-12.4,5.3-12.5c0.4,0,1.4,0,1.8,1.6
	c0.5,1.9,0.6,4.2,0.8,6.7c0.4,5.3,0.8,11.2,4.2,15c2.4,2.7,5.5,5.1,8,7.1c3.3,2.6,4.7,3.7,4.5,5c-0.1,0.3-0.3,0.9-1.2,1.1
	C283.6,167,244.9,168.6,235.1,167.2z M294.4,136.9c-2.4,3.1-6.8,13.9-7.6,19c-0.5,3.2,0.1,4.2,0.3,4.2c0.1,0,0.7-0.1,1.7-1.4
	c2.5-3.2,4.9-7.2,5-14.7C293.9,141.9,294.1,139.4,294.4,136.9z M296.4,139.1c-0.2,1.7-0.3,3.4-0.3,4.9c-0.1,6.4-1.7,10.5-3.8,13.6
	c0.3-0.3,0.5-0.6,0.8-0.9c2-2.4,3.9-4.7,4.1-8.5C297.5,143.9,297.2,141.4,296.4,139.1z M262.5,151.5c-0.5,2.4-0.8,4.4-0.9,5.4
	c0,0.3,0,0.6,0,0.7c0.7-0.2,2.5-2,3-4.7C264.7,152.5,264,152,262.5,151.5C262.6,151.5,262.6,151.5,262.5,151.5z M217.9,97.7
	c-0.4,0-0.8,0.1-1.2,0.3c-2.4,1.1-4.1,4.7-4.1,6.6c0,1.7,5.8,7.7,17.5,17.9c1.1,1,2.1,1.8,2.6,2.3c1.7,1.6,4.4,2.5,7.4,3.5
	c2.5,0.8,5.4,1.8,8.2,3.4c0.9,0.5,1.6,0.9,2.3,1.3c3.6,2.2,3.9,2.3,7.4-0.1c1.5-1,2.9-2.2,4.2-3.2c-0.7-0.6-1-1.4-0.9-2.2
	c0.1-0.7,0.7-2.1,3.4-2.7c0.6-0.1,2.4-0.6,3,0.8c0.2,0.4,0.1,0.8,0,1.3c0.9-0.6,2.1-1.2,3.4-2c5-2.9,12.6-7.4,14.6-9.9
	c0.7-1,4-4.3,7.6-7.3c-5.5-3.3-16-7.7-20.4-8.9l-1-0.3c-0.8-0.2-1.4-0.4-2-0.6c0,1.5-1.8,3-5.4,6.1c-1.6,1.3-3.2,2.7-4.5,3.9
	c-1.8,1.8-2.8,3.3-3.4,5c2.2,1.2,4.5,3.1,4.5,6.6c0,1.7-0.8,3-2.1,3.7c-1.2,0.6-2.8,0.6-3.9-0.2c-1.3-0.9-1.9-2.4-1.7-4.3l0.1-0.7
	c0.1-1.4,0.3-2.6,0.5-3.8c-0.4-0.1-0.7-0.3-1.1-0.4c-0.6-0.2-1.7-0.5-3.1-1c-5.7-1.7-15.2-4.5-19.3-7.4c-2.1-1.5-3.4-2.2-4.5-2.9
	c-1.6-0.9-3-1.7-5.7-4C219.3,98,218.6,97.7,217.9,97.7z M264.9,127c-1.1,0.3-1.4,0.7-1.4,0.8c0,0,0.1,0.1,0.3,0.2c0,0,0,0,0,0
	C264.2,127.7,264.6,127.3,264.9,127z M255.9,115.1c-0.2,0.9-0.3,2-0.4,3.1l-0.1,0.7c-0.1,1,0.1,1.8,0.7,2.2c0.5,0.3,1.1,0.4,1.6,0.1
	c0.6-0.3,0.9-0.9,0.9-1.7C258.7,117.4,257.5,116.1,255.9,115.1z M196.6,93.5c-1.4,3-4,9.8-3.9,13.9c0.1,4.4,7.1,7.2,8.3,7.4
	c0.8,0,5.2-1.2,8.2-2c3.2-0.9,4.7-1.3,5.6-1.4c-1.7-1.8-2.9-3.3-3.7-4.6c-0.1,0.1-0.2,0.3-0.3,0.5c-0.4,0.6-5,5.3-6.9,4.1
	c-1.4-0.4-2.2-2.2-2.7-3.9c-0.3-1-0.7-2.3-1.2-3.7C199.1,100.8,197.6,95.8,196.6,93.5z M237.3,106.4c4.3,1.7,9.5,3.2,12.9,4.2
	c1.4,0.4,2.6,0.8,3.2,1c0.3,0.1,0.6,0.2,1,0.3c0.7-1.8,1.8-3.6,3.9-5.7c1.4-1.4,3-2.7,4.6-4.1c1.7-1.4,3.8-3.2,4.5-4.1
	c-0.9-0.8-1.4-2.4-1.6-3.7c-0.5-3.2,0-7.4,2.2-9.7c2.1-2.3,9.4-9.8,12.8-10.8c1-0.3,2.5-0.5,4.1-0.7c1.3-0.2,3.3-0.5,4.5-0.8
	C287.8,71,285,69,284,69c0,0,0,0,0,0c-1.4,2.5-8.1,7.3-11.7,9c-3.3,1.6-11.7,2.9-14.1,1.8c-0.7-0.3-0.9-0.7-1-1.1
	c-0.3-1,0.4-2.6,1.3-4.1c0-0.1,0.1-0.1,0.1-0.2c-1.7,1.7-4.3,3-4.3,3c-0.1,0-0.2,0.1-5.1,1.2c0.4,0,0.8,0,1.1,0.2
	c1.6,1,0.3,3.2-0.1,3.9c-0.9,1.5-2.3,3.8-3.9,6.5c-2.9,4.8-8.4,13.7-8.3,15.3C238.1,105.7,237.6,106.3,237.3,106.4z M296.8,107.4
	c1,0.8,1.6,1.5,1.8,2.1c0.1,0.2,0.2,0.4,0.2,0.4c0.6-0.3,2.1-2.5,2.3-5.3C300.3,105,298.7,106,296.8,107.4z M200.5,97.7
	c0.5,1.5,1,3.2,1.7,5.4c0.4,1.4,0.8,2.6,1.2,3.7c0.3,0.8,0.5,1.3,0.7,1.7c0,0,0,0,0,0c0.7-1.1,2.4-3.1,3.8-3.8c0,0-0.1,0-0.1,0
	c-1-0.5-2.2-1.2-3.3-2.1C202.8,101,201.6,99.5,200.5,97.7z M271.1,89.2c-0.7,1-1.1,2-1.2,2.8c-0.2,1.5-0.4,3-0.2,3.3
	c0.2,0.3,1.3,0.6,2.6,0.9l1,0.3c3,0.8,15.3,5.5,21.6,9.6c3-2.4,6-4.1,7.4-3.5c0.3,0.1,1,0.5,1.1,1.6c1.1-4.2,2-8.2,2-10.5
	c0-6.9-0.1-11.3-3.8-12.9c-3.7-1.6-18.9,1.5-23.3,7.6c-2.6,3.5-4.4,4.1-5.5,3.9c-0.8-0.1-1.4-0.7-1.7-1.5
	C271,90.2,271,89.7,271.1,89.2z M301.2,104.3C301.2,104.3,301.2,104.3,301.2,104.3L301.2,104.3z M233.2,103c0.9,0.5,1.9,1.1,2.5,1.4
	c0.3-2.3,3-7,8.6-16.1c1.6-2.6,3-4.9,3.8-6.4c0.1-0.2,0.2-0.4,0.3-0.5c-1.3,0.7-3.7,2.5-5.3,4.8c-3.2,4.6-8.1,12.6-9,15.7
	C234,102.3,233.6,102.8,233.2,103z M200.2,91.3c0,0.2,0.1,0.4,0.2,0.5c1.4,4.1,2.9,6.6,5.5,8.9c1,0.8,2,1.4,2.9,1.9
	c0.6,0.3,1.1,0.6,1.6,0.9c0.4-2.3,1.9-5.2,4-6.8c-1.4-0.2-3.1-1.5-4.3-3.6c-1-1.7-0.4-2.9,0.5-3.5c0.3-0.2,0.6-0.3,1-0.4
	c-0.6-1.7-1.1-3.4-1.2-4.6c-0.2-2.5-5.8-15.6-7.7-17.9c-0.6-0.7-1.1-0.9-1.4-0.7c-0.3,0.2-0.5,1,0.1,2.4c0.1,0.2,0.2,0.4,0.3,0.6
	c1.2,1.1,2.2,2.2,2.6,2.7c0.4,0.5,2.9,4.9,1.3,6.1c-0.5,0.4-1.3,0.6-2.5-0.7c-1.5-1.7-2-3.2-2.7-5c-0.2-0.5-0.4-1.1-0.7-1.8
	c-2.1-1.8-4.6-3.4-5.5-3.3c-0.2,0-0.7,0.1-0.8,0.4c-0.1,0.3,0,1.2,1.1,2.9c0.9,1.3,2.8,2.7,4.2,3.6c0.8,0.1,1.4,0.3,1.8,0.7
	c0.3,0.2,0.9,0.7,0.7,1.5c-0.1,0.4-0.5,0.8-0.9,0.8c-0.4,0.1-1.3-0.3-2.3-0.9c-1.2-0.1-3,0-5,0.4c-1.7,0.4-2.4,0.9-2.6,1.1
	c0,0,0,0,0,0.1c0.3,0.4,0.8,0.7,1.4,1c2.2-0.7,4.9-0.9,6.9,0.3c0.5,0.3,1.6,0.9,1.5,2c0,0.3-0.2,0.9-1.1,1.2c-1.2,0.4-4.6,0-7.4-1
	c-1.1,0.5-1.6,0.9-1.8,1.2c0.1,0,0.1,0.1,0.3,0.2c3.8,1.8,8,4.9,8.2,5c0,0,0.1,0.1,0.1,0.1c0.1-0.1,0.2-0.1,0.3-0.1
	c0.8-0.4,1.9-0.2,2.8,1.3c0.6,1.1,0.4,1.8,0.1,2.2C201.5,91.2,200.8,91.3,200.2,91.3z M220.8,90.4c0.4,0.4,0.8,0.9,1.4,1.5
	c2,2.1,7.9,8.2,9.9,8.9c1.4-3.9,6.7-12.4,9.2-16c1.4-2.1,4.6-5,6.9-5.8c-3.5,0.8-9,2.1-17.8,4.1c-0.7,1-1.9,2.1-3.1,2.9
	c-0.9,0.7-2,1.4-3.1,2.1C223,88.9,221.7,89.8,220.8,90.4z M151.6,73.5l7.3,24.1c0.3-0.1,0.6-0.1,1-0.2c-0.5,0-1-0.3-1.1-0.9
	l-4.2-17.5c0,0,0,0,0,0c-0.6,0.1-1.1-0.3-1.2-0.9l-0.8-4.7L151.6,73.5z M217.9,95.4c0.9,0,1.8,0.3,2.7,0.8c-2.2-1.9-4-3.6-4.5-4.3
	c-0.1-0.1-0.6-0.3-1.2-0.5c0.4,1,0.8,2,1.2,2.8c0.3,0.6,0.3,1.1,0.2,1.5C216.8,95.5,217.3,95.4,217.9,95.4z M156.8,78.6l3.9,16.4
	l34.4-7.5c-1.5-1-3.7-2.4-5.7-3.3c-1.3-0.6-1.6-1.4-1.6-2c0-0.7,0.2-1.7,1.7-2.6c-0.2-0.2-0.4-0.4-0.6-0.6c-0.6-0.7-0.8-1.4-0.6-2.1
	c-0.2,0.2-0.5,0.3-0.8,0.3L156.8,78.6z M211.8,91.5c0,0,0.1,0.2,0.2,0.4c0.5,0.8,1,1.3,1.4,1.7c-0.3-0.7-0.6-1.5-1-2.4
	C212,91.4,211.8,91.5,211.8,91.5C211.8,91.5,211.8,91.5,211.8,91.5z M219,91.5c0,0,0.1,0,0.1,0C219.1,91.6,219,91.5,219,91.5z
	 M197.8,91C197.8,91,197.8,91.1,197.8,91C197.8,91.1,197.8,91,197.8,91C197.8,91,197.8,91,197.8,91z M213.9,89
	c1.7,0.1,3.4,0.7,4,1.6c0,0,0,0,0,0c-0.3-0.9-0.1-1,4.9-4.4c1-0.7,2.1-1.5,3-2.1c0,0,0.1-0.1,0.1-0.1c-3.8,0.8-8,1.8-12.8,2.9
	C213.4,87.6,213.7,88.3,213.9,89z M280.5,76.5c-2.5,1.3-7.2,5.8-11,9.8c-0.9,1-1.4,2.6-1.6,4.2C269.6,85.7,276.9,79.2,280.5,76.5z
	 M279.4,84.2c-2.2,1.5-4.1,3.1-5.3,4.1c-0.7,0.7-0.9,1.3-0.8,1.6c0.4-0.1,1.5-0.6,3.3-3C277.3,86,278.2,85,279.4,84.2z M290.8,76.2
	c-3,0-6.2,0.4-7.6,1.2c-1.9,1.1-5.8,4.3-8.9,7.7c3.3-2.7,8.8-6.4,12.3-7.2c1.3-0.3,3.1-0.4,5-0.6c1.5-0.1,3.4-0.3,4.7-0.5
	C295,76.4,293,76.2,290.8,76.2z M209.6,75.4c1.6,3.9,3,7.6,3.1,9c0,0.1,0,0.2,0,0.3c3.1-1.1,14.5-5.2,16.4-5.3
	c1.4-0.1,1.8,0.8,1.9,1.1c0,0,0,0,0,0c10.7-2.4,21.3-4.8,22.3-5.1c0.6-0.3,1.4-0.8,2.2-1.4c-3.4,0.1-11.9,0.3-20.2,0.6
	C216,75.3,211,75.4,209.6,75.4z M287.3,80.2c-0.1,0-0.1,0-0.2,0c-1.4,0.3-3.2,1.2-5.1,2.3C283.7,81.6,285.4,80.8,287.3,80.2z
	 M259.4,77.9c1.9,0.4,8.9-0.4,11.9-1.9c2.4-1.2,5.8-3.5,8.1-5.4c-2.4,0.9-5.1,1.3-6.2,1.4c-3.3,0.5-9.1-0.5-11.5-1.6
	c-0.1,0.3-0.2,0.8-0.3,1.4c0.5-0.1,0.8,0,1,0.2c0.9,0.6,0.7,1.8,0.6,2.3c-0.5,2.6-1.8,3.1-2.5,3.2c-0.3,0-0.6,0-0.9-0.1
	C259.5,77.6,259.4,77.8,259.4,77.9z M190.4,77.3L190.4,77.3L190.4,77.3z M155.5,76.4L155.5,76.4L155.5,76.4
	C155.5,76.4,155.5,76.4,155.5,76.4z M156.8,74.2l30.7,0.7c0.6,0,1.1,0.5,1.1,1.1c0,0,0,0.1,0,0.1c0.1-0.1,0.2-0.2,0.3-0.3
	c1-1.1,3.7-1.9,6.2-2.2c-0.9-0.8-1.7-1.6-2.2-2.2c-1.5-2.1-1.9-3.8-1.3-5.1c0.3-0.7,1-1.5,2.6-1.7c1.2-0.2,3,0.7,4.8,2
	c0-1.3,0.7-2.2,1.4-2.6c1.1-0.7,2.8-0.5,4.3,1.2c0.9,1.1,2.4,4,3.8,7.2c0-0.1,0-0.3,0.1-0.5c0.3-2,0.8-4.9,0.5-7.1
	c-0.1-0.9,0.2-1.7,0.9-2.2c0.9-0.7,2.3-0.8,3.7-0.5c-0.2-0.7-0.3-1.4-0.4-2.1c-1-5.8-35.3-8.2-60.2-8.1L156.8,74.2z M211.2,64.5
	c0,0,0,0,0,0.1c0.3,2.4-0.2,5.6-0.6,7.7c0,0.3-0.1,0.5-0.1,0.8c3.5-0.1,14.8-0.4,24.8-0.7c15.2-0.4,19.8-0.6,21.3-0.6
	c0.4-0.9,0.8-2.8,0.5-3.3l-0.5-0.2c-2-0.8-5.4-2-5.7-5.2c-0.2-2.2-1.4-10.8-1.8-13.7c-5.6-0.1-14.5-0.2-17.6-0.2
	c-0.1,0.4-0.3,0.8-0.5,1.4c-0.6,1.5-1.8,3-3.1,2.9c-0.3,0.6-0.6,1.1-1,1.5c-1.1,1.1-2.1,0.8-2.5,0.7c-0.7-0.3-1.2-0.9-1.5-1.7
	c-0.5,0.4-1.4,0.7-2.3,0.3c-0.5-0.2-1.4-0.9-1.4-2.6c0-0.2,0-0.3,0-0.5c-0.8,0.4-2,0.4-3.2,0.1c-1.1-0.3-2.1-1-2.6-1.8
	c-6.1,0.1-22,0.5-36.4,0.8c1.8,0.1,3.7,0.2,5.5,0.3c28.5,2,32.5,6.1,32.9,9c0.2,1.2,0.4,2.2,0.7,3.2c0.3,0.1,0.7,0.3,1,0.4
	c1.3,0.6,4.3,2.1,4.6,4.5c0.2,1.9-0.8,2.7-1.7,2.8c-1.9,0.3-4.1-1.8-5.6-5.9C212.3,64.1,211.3,64.4,211.2,64.5z M257.1,71.9
	c0.2,0,0.2,0,0.3,0C257.3,71.9,257.2,71.9,257.1,71.9z M294.1,70.8C294.2,70.9,294.2,70.9,294.1,70.8
	C294.2,70.9,294.2,70.9,294.1,70.8z M294,70.7c2.1,0.4,13.8,0,16.4-0.6c-0.2-3.2-1.8-18.1-2.5-21.1c-0.4-0.1-0.9-0.1-1.5-0.1
	c-0.1,0.4-0.3,0.7-0.6,1c-2.2,2.1-12.6,1-16.4-0.3c-0.2-0.1-0.5-0.2-0.7-0.4c-0.4,1.2-1,2.5-2,4.1c-2.2,3.4-2.5,8.6-1.6,10.3
	c0.8,1.5,5.5,4.7,7.5,6.1C293.3,70.2,293.7,70.5,294,70.7z M261.5,68c0.3,0,0.6,0.1,0.9,0.2c1.7,0.9,7.3,2,10.5,1.6
	c3.6-0.5,7.7-1.7,8.5-3c0.1-0.2,0.1-0.4,0.1-0.5c-1-3-1.2-8.5-0.7-10c0.1-0.2,0-1.1,0-1.8c0-0.1,0-0.2,0-0.3c-0.5,0.1-1,0-1.4-0.1
	c-0.1,0-0.1,0-0.2-0.1c0,0.2,0,0.4,0,0.6c-0.4,2.2-2.8,6.1-5.1,7.8c-1.7,1.2-9.9,5.7-12.4,5.5C261.7,68,261.6,68,261.5,68z
	 M217.4,65.8c0.8,1.5,1.7,2.2,2.1,2.4c0-0.1,0-0.2,0-0.3C219.4,67.4,218.6,66.6,217.4,65.8z M258.2,66.6c0.4,0.2,0.7,0.5,0.9,1
	c0.2-0.4,0.5-0.8,0.8-1.1C259.3,66.6,258.7,66.6,258.2,66.6z M284,66.8c0.4,0,0.8,0.1,1.2,0.2c-0.6-0.5-1.1-1.1-1.5-1.5
	c0,0.1,0,0.1,0.1,0.2c0.1,0.4,0.2,0.8,0.1,1.2C283.8,66.8,283.9,66.8,284,66.8z M253,37.2c-0.3,1.8-0.5,4.1-0.3,5.7
	c0.2,1.1,0.3,1.7,0.4,2c0.3,1,0.2,1.2-0.2,3.1l0,0.1c-0.6,2.6,1.3,11.6,2.2,15.3c0.1,0.2,0.2,0.5,0.7,0.7c1.8,0.8,5.9,0.1,9-1.4
	c2.4-1.3,7.5-3.9,8.8-5.3c0.3-0.4,0.7-0.9,1.2-1.4c1.7-2.1,2.5-3.1,3.4-3c-0.2-0.5-0.3-1.3-0.2-2.3c0.4-3.4,0.2-3.7-0.6-5
	c-0.2-0.3-0.4-0.6-0.6-1c-0.8-1.4-1.5-3-2.1-4.5c-0.5-1.1-0.9-2.2-1.3-3.1c-0.1-0.2-0.2-0.4-0.3-0.6c-0.6-1.1-1.1-2-0.6-3
	c0.3-0.5,0.8-0.8,1.4-1c-1.3-0.2-2.6-0.3-4-0.4c-3.5-0.3-7.5-0.4-11-0.4c-2.4-0.1-4.1-0.1-5.4-0.2c0.5,0.1,0.9,0.3,1.2,0.4
	c1.7,0.8,2,2.2,1.7,3.1C255.9,36.3,254.5,37.2,253,37.2z M283.1,53.3c0,0.4,0,0.8,0,1.2c0,0.5,0,0.9,0,1.2c0.4-1.3,1-2.6,1.7-3.7
	c0-0.1,0.1-0.1,0.1-0.2C284.4,52.3,283.8,52.9,283.1,53.3z M223.6,45.2c1.4,2.2,1.1,3.4,0.9,4.6c-0.1,0.3-0.1,0.7-0.2,1
	c-0.1,1,0.3,2.3,0.7,2.7c0,0,0.1-0.1,0.1-0.1c0.3-0.4,0.6-1,0.9-1.7c-0.1-0.4-0.1-0.9-0.2-1.4c0-1.6-0.4-3.2-0.7-4.5
	c-0.1-0.3-0.1-0.5-0.2-0.8C224.5,45.2,224.1,45.2,223.6,45.2z M274.5,34.5c0.1,0.2,0.3,0.6,0.4,0.8c0.1,0.2,0.2,0.4,0.3,0.6
	c0.5,1,1,2.1,1.4,3.3c0.6,1.5,1.2,3,1.9,4.2c0.2,0.3,0.4,0.6,0.6,0.9c1.1,1.7,1.4,2.5,0.9,6.5c-0.1,0.9,0.1,1.1,0.1,1.1
	c0.1,0.1,0.4,0,0.7-0.1c0.1-1.4,0.4-2.7,1.1-3.7c-0.7-0.4-2-1.2-1.9-3.2c0.2-2.2,1.9-4.5,3.7-4.9c-5.2-2.5-5.9-2.9-5.5-4.1
	c0.4-1.1,1.7-0.8,2.7-0.6c3.3,0.7,5.7,1.9,7.1,3.5c-1.5-2.4-8.5-4.9-12-4.6C275.2,34.4,274.7,34.5,274.5,34.5z M221,49.6
	c0.4,0.3,0.8,0.7,1.2,1c0-0.5,0.1-0.9,0.2-1.2c0.2-1,0.3-1.6-0.6-3c-0.5-0.7-0.8-1.4-1.1-2c-0.1-0.1-0.2-0.1-0.3-0.2
	c-0.3-0.1-0.8-0.3-0.9-0.4c-0.4,0-1.1,0.4-1.2,0.6c0,0,0,0.1,0.1,0.2C219.1,45.7,220.4,47.4,221,49.6z M284,49.3
	c-0.1,0.1-0.2,0.2-0.2,0.3c-0.1,0.1-0.2,0.3-0.3,0.5c0.1-0.1,0.2-0.2,0.3-0.4C283.8,49.6,283.9,49.5,284,49.3z M217.2,49.3
	c0.5,0,0.8-0.1,0.9-0.1c0.1-0.1,0.2-0.1,0.3-0.2c-0.1-0.2-0.2-0.5-0.3-0.7c0,0.2-0.1,0.3-0.2,0.4C217.6,49,217.4,49.2,217.2,49.3z
	 M308.3,49.1L308.3,49.1L308.3,49.1z M295.6,48.6c2.6,0.3,5.3,0.3,7,0.1C300.4,48.6,297.9,48.6,295.6,48.6z M284.3,42.4
	C284.3,42.4,284.3,42.4,284.3,42.4c-0.7,0.1-1.9,1.5-2,2.9c0,0.5,0.1,0.7,0.8,1.1c0.5,0.3,1.2,0.6,1.3,1.5c0,0.2,0,0.3,0,0.5
	c0.6-1.8,0.8-4.1,0.1-5.6C284.4,42.4,284.4,42.4,284.3,42.4z M213.3,45.8c0.4,0.3,0.8,0.8,1.3,1.4c0.5,0,0.8,0,1,0
	c-0.1-0.3-0.3-0.7-0.5-1.1l-0.1-0.3c-0.1-0.3-0.3-0.6-0.4-0.6C214.3,45.1,213.7,45.5,213.3,45.8z M227.3,44.9c0,0.1,0.1,0.2,0.1,0.4
	c0.1,0.6,0.3,1.2,0.4,1.9c0.1-0.1,0.3-0.1,0.5-0.1c0.1,0,0.2,0,0.3,0c0-0.2,0-0.3,0.1-0.5C228.6,46.3,227.9,45.5,227.3,44.9z
	 M289.2,46.6c0,0.1,0,0.1,0,0.2c0.1,0,0.3-0.1,0.4-0.1C289.5,46.7,289.4,46.7,289.2,46.6z M296.1,41.7c0.1,0.4,0,0.8,0,1.2
	c-0.4,1.9-2.4,2.8-4.3,3.5c-0.2,0.1-0.5,0.2-0.7,0.2c3-0.2,8.5-0.3,12.7-0.1c0-0.1,0-0.2-0.1-0.4c-0.2-1.8-0.7-5-1.7-5.2
	C300.9,40.7,298.4,41.1,296.1,41.7z M291,43.6c0,0.2-0.1,0.5-0.1,0.7c0,0,0.1,0,0.1-0.1c0.7-0.3,2.6-0.9,2.8-1.9c0,0,0-0.1,0-0.1
	C292.4,42.7,291.3,43.2,291,43.6z M286.5,41.5c0,0.1,0.1,0.1,0.1,0.2c0.3,0.7,0.5,1.5,0.6,2.3l0.1-0.8c0-0.5,0-0.9-0.1-1.3
	C286.9,41.7,286.7,41.6,286.5,41.5z M290.9,43.6L290.9,43.6L290.9,43.6z M289.5,37.1c0.3,0.3,0.5,0.6,0.7,0.9l0.2,0.4
	c0.5,0.9,0.9,1.7,1,2.3c0.5-0.2,1-0.4,1.5-0.6c-0.3-0.4-0.7-0.8-1.2-1.3C291.1,38.3,290.4,37.7,289.5,37.1z M266.8,26.5
	c1.5,0,2.8,0.1,3.9,0.3c1.1,0.2,2.4,0.4,3.8,0.5c5.2,0.7,11.8,1.5,14.6,4.1c1,0.9,1.8,1.7,2.4,2.4c0.1,0.1,0.1,0.1,0.2,0.2
	c-0.5-3.5-1.8-10.5-4.2-13.9c-1.7,1.1-4.6,0.9-6.7-0.5c-2.1-1.5-2.2-1.5-2.6-1.8c-0.3-0.2-0.7-0.4-2-1.2c-0.3-0.2-1.2-0.8-1.1-1.7
	c0-0.3,0.2-0.9,1-1.2c1.2-0.4,4.3,0,7.2,1c-4.4-3.2-7.8-5.2-14.2-3.7c-7.4,1.7-15.3,9.7-16.1,12.3c-0.2,0.7-0.4,1.4-0.5,2
	c-0.3,1.1-0.6,2.2-0.9,3.1C254.3,27.5,261.5,26.5,266.8,26.5z M259,29.3c3.4,0.1,7.5,0.2,11,0.5c7.9,0.6,14.1,2.1,18.6,4.3
	c-0.3-0.3-0.7-0.6-1-1c-2.2-2.1-8.6-2.9-13.3-3.5c-1.4-0.2-2.8-0.4-3.9-0.6C267.7,28.5,263,28.8,259,29.3z M249.9,33.1
	c0.6,0.4,1.2,0.6,1.7,0.7c0.1-0.2,0.2-0.4,0.3-0.5C251.2,33.2,250.5,33.1,249.9,33.1z M245.1,32.2c0.4,0.3,1,0.6,1.8,0.9
	c-0.2-0.6,0-1,0.2-1.2c0.6-0.9,2.1-1.1,3.6-0.9c-0.2-0.1-0.3-0.3-0.4-0.5c-0.4,0.3-0.9,0.4-1.5,0.4
	C247.9,30.7,245.9,31.5,245.1,32.2z M279.5,16c0.4,0.2,0.8,0.5,2.5,1.7c1.3,0.9,2.8,1,3.7,0.7C283.9,17.1,281.4,16.3,279.5,16z
	 M277.1,14.5L277.1,14.5L277.1,14.5z"/>
</svg>
