<?xml version="1.0" encoding="utf-8"?>
<!-- Generator: Adobe Illustrator 27.4.1, SVG Export Plug-In . SVG Version: 6.00 Build 0)  -->
<svg version="1.1" id="Layer_1" xmlns="http://www.w3.org/2000/svg" xmlns:xlink="http://www.w3.org/1999/xlink" x="0px" y="0px"
	 viewBox="0 0 26.5 29.6" style="enable-background:new 0 0 26.5 29.6;" xml:space="preserve">
<style type="text/css">
	.st0{fill:#FFFFFF;}
</style>
<path class="st0" d="M2.8,3.9v7.7v0v12.9V3.9z M5.4,16.8h4.5c0.2-0.5,0.4-1,0.7-1.4c0.3-0.4,0.6-0.8,1-1.2H5.4V16.8z M5.4,21.9h4.1
	c-0.1-0.4-0.2-0.9-0.2-1.3c0-0.4,0-0.9,0-1.3H5.4V21.9z M2.8,27c-0.7,0-1.3-0.3-1.8-0.8c-0.5-0.5-0.8-1.1-0.8-1.8V3.9
	c0-0.7,0.3-1.3,0.8-1.8c0.5-0.5,1.1-0.8,1.8-0.8h10.3L20.8,9v3.2c-0.4-0.2-0.8-0.3-1.3-0.4c-0.4-0.1-0.9-0.2-1.3-0.2v-1.3h-6.4V3.9
	h-9v20.6h7.7c0.3,0.5,0.7,1,1.2,1.4c0.4,0.4,0.9,0.8,1.4,1.1H2.8z M17.6,23.2c0.9,0,1.7-0.3,2.3-0.9c0.6-0.6,0.9-1.4,0.9-2.3
	s-0.3-1.7-0.9-2.3c-0.6-0.6-1.4-0.9-2.3-0.9s-1.7,0.3-2.3,0.9c-0.6,0.6-0.9,1.4-0.9,2.3s0.3,1.7,0.9,2.3
	C15.9,22.9,16.7,23.2,17.6,23.2z M24.1,28.3l-3.5-3.5c-0.4,0.3-0.9,0.5-1.5,0.7s-1.1,0.2-1.6,0.2c-1.6,0-3-0.6-4.1-1.7
	s-1.7-2.5-1.7-4.1c0-1.6,0.6-3,1.7-4.1s2.5-1.7,4.1-1.7c1.6,0,3,0.6,4.1,1.7s1.7,2.5,1.7,4.1c0,0.6-0.1,1.1-0.2,1.6s-0.4,1-0.7,1.5
	l3.5,3.5L24.1,28.3z"/>
</svg>
