<?xml version="1.0" encoding="utf-8"?>
<!-- Generator: Adobe Illustrator 27.4.1, SVG Export Plug-In . SVG Version: 6.00 Build 0)  -->
<svg version="1.1" id="Layer_1" xmlns="http://www.w3.org/2000/svg" xmlns:xlink="http://www.w3.org/1999/xlink" x="0px" y="0px"
	 viewBox="0 0 326 167" style="enable-background:new 0 0 326 167;" xml:space="preserve">
<style type="text/css">
	.st0{fill:#FFFFFF;}
</style>
<path class="st0" d="M20.9,139.7c-6.6,0-11.8-1.4-19.6-4.8c-0.3-0.1-0.4-0.4-0.3-0.7c0.1-0.3,0.4-0.4,0.7-0.3
	c5.7,2.5,9.7,3.7,13.6,4.3c4,0.6,8.1,0.5,14.2-0.3c4-0.5,8.3-1.5,12.8-2.7c7.6-1.9,16.1-4,25.7-4c7.5,0,14.9,1.8,22.1,3.5
	c6,1.5,12.3,3,18.5,3.4c3.6,0.2,6.8,0.4,10,0.1c1.4-0.1,2.7-0.3,3.8-0.6c-0.5-0.3-1.1-0.6-1.6-1c-3.7-3-5-8.9-5-13.5V81
	c0-0.9-0.7-1.6-1.6-1.6h-1c-0.9,0-2.1,0.1-3.5,0.2c-4.1,0.4-8.3,0.8-9.1-1.2c-0.2-0.4-0.1-1,1.1-2.4c0.7-0.9,1.8-2.2,3.3-3.7
	c2.5-2.6,6.1-6.1,10.6-10.4c7.9-7.5,16.5-15.2,18.9-17.4c0.2-0.2,0.4-0.5,0.4-0.9v-0.2L122,55.3c-0.4,0.4-1,0.5-1.6,0.2
	c-0.5-0.2-0.8-0.7-0.8-1.3l0-16.4c0-1.9,1.5-3.4,3.4-3.4h9.8c0.9,0,1.8,0.4,2.4,1c0.6,0.6,1,1.5,1,2.4v3.2l23.2-20.9
	c1-0.9,2.6-1,3.6,0c6.9,6.1,45.6,41.9,51.1,47.2c0,0,0,0,0,0c0.5,0.5,1.3,1.2,2,1.9c1.4,1.3,3,2.8,4.2,4.2c1.5,1.8,2,3.1,1.6,4.1
	c-0.4,1-1.8,1.6-4.2,1.8c-1.9,0.2-4.3,0.1-6.1,0c-0.8,0-1.6,0-2.2,0c0,0,0,0-0.1,0c0,0-1.3-0.1-2,0.6c-0.4,0.3-0.5,0.9-0.5,1.5
	c0,0,0,0,0,0v41.7c0,5.2-2.8,10.8-7.6,12.9c3.5,0.5,6.7,0.9,9.2,1.1c8.2,0.6,16.2-0.3,23.8-1.4c3.6-0.5,7.2-1.3,10.7-2
	c6.8-1.4,13.8-2.9,21-2.6c5.1,0.3,10.7,1.1,17,2.6c2,0.5,4.1,1.1,6.1,1.7c3.3,1,6.6,2,9.9,2.4c4.7,0.6,9.7,1,14.3,0.5
	c5-0.5,9.1-2.1,12.6-4.8c0.2-0.2,0.6-0.1,0.8,0.1c0.2,0.2,0.1,0.6-0.1,0.8c-3.6,2.8-7.9,4.5-13.1,5c-4.7,0.5-9.8,0-14.6-0.5
	c-3.4-0.4-6.8-1.4-10.1-2.4c-2-0.6-4.1-1.2-6.1-1.7c-6.2-1.5-11.7-2.3-16.8-2.5c-7.1-0.3-14.1,1.1-20.8,2.6c-3.5,0.7-7.1,1.5-10.8,2
	c-7.6,1.1-15.8,2.1-24,1.4c-3.2-0.3-7.3-0.8-11.7-1.4c-0.6,0.1-1.1,0.1-1.7,0.1c-20.5,0-41,0-61.5,0c-0.5,0-1-0.1-1.3-0.5
	c-0.3-0.4-0.1-0.9,0-1.3c0.4-0.9,1.4-1.2,2.2-1.3c0.1,0,0.3-0.1,0.4-0.1c4.5-1.3,9.1-2.4,13.6-3.5c2.7-0.6,5.4-1.3,8.1-1.9
	c0.3-0.1,0.6-0.2,0.9-0.2c-4.7-2.2-9.2-4.9-13.3-8c-5.3-4-9.9-9.1-13.1-14.5c-1.7-2.9-3-5.9-4-8.9c-1-3.2-1.5-6.4-1.6-9.6
	c-0.1-4.7,0.7-8.8,2.5-12.4c2-4,5.4-7.2,9.2-8.6c2.5-0.9,5.4-1.2,8.2-0.7c2.7,0.5,5.4,1.6,7.7,3.1c3.2,2.2,6,5.5,8.1,9.5
	c0.6-1.6,1.5-3.3,2.6-4.8c1.3-1.8,2.9-3.4,4.6-4.8c1.8-1.4,3.8-2.5,5.8-3.2c4.4-1.6,9.2-1.4,13.1,0.5c4.1,2,7.3,5.9,9,10.7
	c2.3,6.8,1.5,15-2.3,23.2c-2.1,4.4-4.9,8.6-8.4,12.4c-3.3,3.7-7.2,6.9-11.5,9.6c-2.8,1.8-5.7,3.4-8.5,4.7c-1.6,0.7-3.2,1.3-4.9,1.8
	c5.2,2.1,10.4,3.5,15.7,4.2c2.6,0.4,6,0.9,9.6,1.5c3.5,0.6,7.2,1.1,10.8,1.7c4.7-0.9,9.1-5.5,9.1-12.5V81.6c-0.1-1,0.2-1.8,0.8-2.4
	c1-1,2.6-0.9,2.8-0.9c0.6,0,1.4,0,2.2,0c1.8,0.1,4.1,0.1,6,0c2.6-0.2,3.2-0.8,3.3-1.1c0.1-0.3,0.1-1.1-1.4-3
	c-1.1-1.4-2.7-2.8-4.1-4.1c-0.8-0.7-1.5-1.4-2-1.9c-5.6-5.4-44.2-41.1-51.1-47.2c-0.6-0.6-1.5-0.5-2.2,0c0,0,0,0,0,0l-24,21.5v1.2
	c0,0.7-0.3,1.3-0.7,1.7c-2.3,2.1-10.6,9.5-18.4,16.9c-4.5,4.2-8,7.7-10.5,10.3c-1.5,1.5-2.6,2.8-3.4,3.7c-1,1.2-1.2,1.7-1.2,1.8
	c0.2,0.3,0.8,0.7,2.7,0.8c1.6,0.1,3.6-0.1,5.3-0.3c1.3-0.1,2.6-0.2,3.6-0.2h1c1.5,0,2.7,1.2,2.7,2.7v42.2c0,2.4,0.4,4.9,1.1,7
	c0.8,2.5,2,4.4,3.5,5.6c0.8,0.6,1.6,1,2.5,1.3c0.4-0.2,0.9-0.5,1.3-0.8c0.8-0.5,1.7-1.1,2.6-1.3c0.6-0.1,1.6,0.2,2,0.9
	c0.3,0.5,0.2,1-0.1,1.5c-0.4,0.5-1,0.7-1.5,0.8c-1.5,0.3-2.9,0.3-4.2,0.1c0,0-0.1,0-0.1,0c-1.5,0.5-3.2,0.9-5.3,1.1
	c-3.3,0.3-6.5,0.1-10.2-0.1c-6.3-0.4-12.6-1.9-18.7-3.4c-7.1-1.7-14.5-3.5-21.9-3.5c-9.4,0-17.9,2.1-25.4,3.9
	c-4.6,1.1-8.9,2.2-13,2.7C26.4,139.5,23.5,139.7,20.9,139.7L20.9,139.7z M125.8,137.5c0.8,0,1.6,0,2.4-0.2c0.3-0.1,0.7-0.2,0.9-0.4
	c0.1-0.2,0.1-0.2,0.1-0.3c-0.1-0.2-0.6-0.4-0.9-0.4c-0.7,0.1-1.4,0.6-2.2,1.1C126,137.4,125.9,137.4,125.8,137.5z M133.2,135.9
	c0.1,0,0.2,0,0.4,0c19,0,38,0,57,0c-1.6-0.3-3.2-0.5-4.8-0.7c-3.6-0.6-6.9-1.1-9.6-1.5c-5.7-0.8-11.4-2.3-16.9-4.7
	c-0.1,0-0.2-0.1-0.3-0.1c-0.7,0.2-1.5,0.4-2.2,0.6c-2.7,0.7-5.4,1.3-8.1,1.9c-4.5,1-9.1,2.1-13.5,3.4c-0.1,0-0.3,0.1-0.5,0.1
	c-0.5,0.1-1.3,0.3-1.5,0.7C133.2,135.8,133.2,135.8,133.2,135.9L133.2,135.9z M142.5,66.4c-1.7,0-3.4,0.3-5,0.9
	c-3.6,1.3-6.7,4.3-8.6,8c-1.7,3.4-2.5,7.4-2.4,11.8c0.1,3.1,0.6,6.2,1.6,9.3c0.9,2.9,2.2,5.8,3.9,8.6c3.2,5.3,7.6,10.3,12.8,14.2
	c4.5,3.4,9.3,6.2,14.3,8.4c2.2-0.6,4.1-1.2,6.1-2.1c2.8-1.3,5.6-2.8,8.4-4.6c4.2-2.7,8-5.9,11.3-9.5c3.4-3.7,6.1-7.8,8.2-12.1
	c3.7-7.9,4.5-15.8,2.3-22.4c-1.6-4.6-4.7-8.3-8.5-10.1c-1.8-0.9-3.9-1.4-6-1.4c-2.1-0.1-4.2,0.3-6.2,1c-1.9,0.7-3.8,1.7-5.5,3
	c-1.6,1.3-3.1,2.8-4.4,4.5c-1.3,1.8-2.3,3.7-2.8,5.6c0.3,0.7,0.6,1.4,0.9,2.2c0.4,1.1,0.6,2.7,0.1,3.7c-0.3,0.5-0.8,0.9-1.3,1
	c-0.3,0-0.5-0.1-0.6-0.3c-0.7-1.9-0.8-4.1-0.2-6.4c-2.1-4.3-4.9-7.8-8.3-10.1C149.4,67.5,145.9,66.4,142.5,66.4L142.5,66.4z
	 M161.5,81.5c-0.2,1.3-0.1,2.5,0.3,3.7c0.1-0.1,0.1-0.1,0.2-0.2c0.4-0.7,0.2-1.9-0.1-2.8C161.7,82,161.6,81.7,161.5,81.5L161.5,81.5
	z M123,35.5c-1.3,0-2.3,1-2.3,2.3l0,16.4c0,0.2,0.1,0.3,0.2,0.3c0.1,0,0.2,0.1,0.4-0.1l13.9-12.5v-4.2c0-0.6-0.2-1.2-0.7-1.6
	c-0.4-0.4-1-0.7-1.6-0.7H123z"/>
</svg>
