<svg width="26" height="27" viewBox="0 0 26 27" fill="none" xmlns="http://www.w3.org/2000/svg">
<path d="M2.57143 2.57143V10.3179V10.2857V23.1429V2.57143ZM5.14286 15.4286H9.64286C9.83571 14.9357 10.0714 14.475 10.35 14.0464C10.6286 13.6179 10.95 13.2214 11.3143 12.8571H5.14286V15.4286ZM5.14286 20.5714H9.225C9.11786 20.1429 9.04821 19.7143 9.01607 19.2857C8.98393 18.8571 8.98929 18.4286 9.03214 18H5.14286V20.5714ZM2.57143 25.7143C1.86429 25.7143 1.25893 25.4625 0.755357 24.9589C0.251786 24.4554 0 23.85 0 23.1429V2.57143C0 1.86429 0.251786 1.25893 0.755357 0.755357C1.25893 0.251786 1.86429 0 2.57143 0H12.8571L20.5714 7.71429V10.9286C20.1643 10.7571 19.7464 10.6232 19.3179 10.5268C18.8893 10.4304 18.45 10.3607 18 10.3179V9H11.5714V2.57143H2.57143V23.1429H10.3179C10.6607 23.6571 11.0464 24.1339 11.475 24.5732C11.9036 25.0125 12.375 25.3929 12.8893 25.7143H2.57143ZM17.3571 21.8571C18.2571 21.8571 19.0179 21.5464 19.6393 20.925C20.2607 20.3036 20.5714 19.5429 20.5714 18.6429C20.5714 17.7429 20.2607 16.9821 19.6393 16.3607C19.0179 15.7393 18.2571 15.4286 17.3571 15.4286C16.4571 15.4286 15.6964 15.7393 15.075 16.3607C14.4536 16.9821 14.1429 17.7429 14.1429 18.6429C14.1429 19.5429 14.4536 20.3036 15.075 20.925C15.6964 21.5464 16.4571 21.8571 17.3571 21.8571ZM23.9143 27L20.4429 23.5286C19.9929 23.8286 19.5054 24.0536 18.9804 24.2036C18.4554 24.3536 17.9143 24.4286 17.3571 24.4286C15.75 24.4286 14.3839 23.8661 13.2589 22.7411C12.1339 21.6161 11.5714 20.25 11.5714 18.6429C11.5714 17.0357 12.1339 15.6696 13.2589 14.5446C14.3839 13.4196 15.75 12.8571 17.3571 12.8571C18.9643 12.8571 20.3304 13.4196 21.4554 14.5446C22.5804 15.6696 23.1429 17.0357 23.1429 18.6429C23.1429 19.2 23.0679 19.7411 22.9179 20.2661C22.7679 20.7911 22.5429 21.2786 22.2429 21.7286L25.7143 25.2L23.9143 27Z" fill="#046B99"/>
</svg>
