<svg version="1.1" xmlns="http://www.w3.org/2000/svg" fill="#fff" viewBox="0 0 3260 1670"><path d="M209 1397c-66 0-118-14-196-48c-3-1-4-4-3-7c1-3 4-4 7-3c57 25 97 37 136 43c40 6 81 5 142-3c40-5 83-15 128-27c76-19 161-40 257-40c75 0 149 18 221 35c60 15 123 30 185 34c36 2 68 4 100 1c14-1 27-3 38-6c-5-3-11-6-16-10c-37-30-50-89-50-135V810c0-9-7-16-16-16h-10c-9 0-21 1-35 2c-41 4-83 8-91-12c-2-4-1-10 11-24c7-9 18-22 33-37c25-26 61-61 106-104c79-75 165-152 189-174c2-2 4-5 4-9v-2L1220 553c-4 4-10 5-16 2c-5-2-8-7-8-13v-164c0-19 15-34 34-34h98c9 0 18 4 24 10c6 6 10 15 10 24v32l232-209c10-9 26-10 36 0c69 61 456 419 511 472c5 5 13 12 20 19c14 13 30 28 42 42c15 18 20 31 16 41c-4 10-18 16-42 18c-19 2-43 1-61 0h-23c0 0-13-1-20 6c-4 3-5 9-5 15v417c0 52-28 108-76 129c35 5 67 9 92 11c82 6 162-3 238-14c36-5 72-13 107-20c68-14 138-29 210-26c51 3 107 11 170 26c20 5 41 11 61 17c33 10 66 20 99 24c47 6 97 10 143 5c50-5 91-21 126-48c2-2 6-1 8 1c2 2 1 6-1 8c-36 28-79 45-131 50c-47 5-98 0-146-5c-34-4-68-14-101-24c-20-6-41-12-61-17c-62-15-117-23-168-25c-71-3-141 11-208 26c-35 7-71 15-108 20c-76 11-158 21-240 14c-32-3-73-8-117-14c-6 1-11 1-17 1h-615c-5 0-10-1-13-5c-3-4-1-9 0-13c4-9 14-12 22-13c1 0 3-1 4-1c45-13 91-24 136-35c27-6 54-13 81-19c3-1 6-2 9-2c-47-22-92-49-133-80c-53-40-99-91-131-145c-17-29-30-59-40-89c-10-32-15-64-16-96c-1-47 7-88 25-124c20-40 54-72 92-86c25-9 54-12 82-7c27 5 54 16 77 31c32 22 60 55 81 95c6-16 15-33 26-48c13-18 29-34 46-48c18-14 38-25 58-32c44-16 92-14 131 5c41 20 73 59 90 107c23 68 15 150-23 232c-21 44-49 86-84 124c-33 37-72 69-115 96c-28 18-57 34-85 47c-16 7-32 13-49 18c52 21 104 35 157 42c26 4 60 9 96 15c35 6 72 11 108 17c47-9 91-55 91-125V816c-1-10 2-18 8-24c10-10 26-9 28-9h22c18 1 41 1 60 0c26-2 32-8 33-11c1-3 1-11-14-30c-11-14-27-28-41-41c-8-7-15-14-20-19c-56-54-442-411-511-472c-6-6-15-5-22 0l-240 215v12c0 7-3 13-7 17c-23 21-106 95-184 169c-45 42-80 77-105 103c-15 15-26 28-34 37c-10 12-12 17-12 18c2 3 8 7 27 8c16 1 36-1 53-3c13-1 26-2 36-2h10c15 0 27 12 27 27v422c0 24 4 49 11 70c8 25 20 44 35 56c8 6 16 10 25 13c4-2 9-5 13-8c8-5 17-11 26-13c6-1 16 2 20 9c3 5 2 10-1 15c-4 5-10 7-15 8c-15 3-29 3-42 1h-1c-15 5-32 9-53 11c-33 3-65 1-102-1c-63-4-126-19-187-34c-71-17-145-35-219-35c-94 0-179 21-254 39c-46 11-89 22-130 27C264 1395 235 1397 209 1397L209 1397zM1258 1375c8 0 16 0 24-2c3-1 7-2 9-4c1-2 1-2 1-3c-1-2-6-4-9-4c-7 1-14 6-22 11C1260 1374 1259 1374 1258 1375zM1332 1359h574c-16-3-32-5-48-7c-36-6-69-11-96-15c-57-8-114-23-169-47c-1 0-2-1-3-1c-7 2-15 4-22 6c-27 7-54 13-81 19c-45 10-91 21-135 34c-1 0-3 1-5 1c-5 1-13 3-15 7C1332 1358 1332 1358 1332 1359L1332 1359zM1425 664c-17 0-34 3-50 9c-36 13-67 43-86 80c-17 34-25 74-24 118c1 31 6 62 16 93c9 29 22 58 39 86c32 53 76 103 128 142c45 34 93 62 143 84c22-6 41-12 61-21c28-13 56-28 84-46c42-27 80-59 113-95c34-37 61-78 82-121c37-79 45-158 23-224c-16-46-47-83-85-101c-18-9-39-14-60-14c-21-1-42 3-62 10c-19 7-38 17-55 30c-16 13-31 28-44 45c-13 18-23 37-28 56c3 7 6 14 9 22c4 11 6 27 1 37c-3 5-8 9-13 10c-3 0-5-1-6-3c-7-19-8-41-2-64c-21-43-49-78-83-101C1494 675 1459 664 1425 664L1425 664zM1615 815c-2 13-1 25 3 37c1-1 1-1 2-2c4-7 2-19-1-28C1617 820 1616 817 1615 815L1615 815 zM1230 355c-13 0-23 10-23 23v164c0 2 1 3 2 3c1 0 2 1 4-1l139-125v-42c0-6-2-12-7-16c-4-4-10-7-16-7H1230z"/></svg>
