<svg width="339" height="145" viewBox="0 0 33900 14500" fill="none" xmlns="http://www.w3.org/2000/svg"><path stroke="#69A6C2" stroke-width="150" stroke-linecap="round" stroke-linejoin="round" d="m-692 13865c5065 0 10132 0 12674-5c2542-5 2560-16 2684-252c124-236 351-696 480-1187c128-493 156-1018 128-1514-28-498-112-968-161-1248-50-280-61-371-183-456-122-86-353-167-673-309-320-143-727-348-1062-425-334-78-593-25-862 127-267 151-542 402-677 1118-136 715-132 1892-56 2649c74 757 219 1090 504 1240c285 150 709 117 983-279c273-395 395-1156 415-1830c20-672-63-1261-242-1616-180-356-457-478-708-361-250 119-474 480-601 930-127 450-155 991-83 1461c73 470 246 869 482 993c235 125 536-25 692-421c155-394 167-1034 112-1541-54-508-176-886-341-1049-165-163-376-114-516-8-140 105-213 265-205 409c9 143 98 268 132 204c33-64 12-321-285-1462-297-1143-869-3171-1154-4185-190-676-235-1174-135-1495c150-481 450-1446 509-2076c60-630-123-926-417-1070-293-143-700-133-971 17-270 150-405 438-529 849-125 410-239 945-343 1251-104 307-196 386-261 526-64 140-102 340-94 613c9 274 65 624 42 935-23 312-122 586-284 1281-160 696-382 1812-503 2389-120 579-137 618-260 721-124 102-353 267-465 334-112 68-107 38-10-372c97-411 288-1202 387-1604c98-403 103-414 167-406c63 8 185 36 247 17c63-20 66-90 167-533c100-444 296-1261 389-1680c92-417 81-434 61-607-20-173-48-501-66-667-18-167-27-172-170 395-143 567-420 1707-564 2292-143 585-150 617-100 643c51 26 160 48 206 71c46 23 31 49-74 427-106 377-302 1108-409 1482-108 374-126 391-233 496-107 106-303 299-404 444-100 143-104 239-24 404c79 165 239 399 344 503c106 103 157 74 236 13c79-61 185-154 224-277c40-124 13-277 0-381-13-104-13-158 104-251c117-92 351-226 473-303c122-79 132-102 150-228c18-125 46-351 76-471c30-121 63-135 143-137c81-2 210 7 281 8c71 0 82-6 59 94-21 102-76 315-122 421-46 105-82 104-186 108-104 5-272 15-368 27-96 11-117 26-191 115-74 89-201 256-229 412-28 157 43 304 219 521c176 216 458 503 668 648c209 145 346 149 623 60c275-89 689-274 930-401c239-128 305-201 367-450c63-247 121-671 81-1039-39-366-178-677-262-905-84-229-114-376-119-480-6-103 12-164 37-193c23-29 52-28 77 4c23 31 41 92 58 148c16 56 30 106 44 130c15 24 30 22 28-24-1-46-21-136-14-192c6-56 37-77 69-34c29 43 58 148 86 208c28 57 54 69 61 33c6-35-9-116-4-159c5-41 30-44 48 4c18 46 31 143 51 176c20 35 45 5 58-40c13-44 15-107 34-107c20 0 57 61 132 396c76 335 188 941 244 1321c56 379 55 529-59 779-114 251-340 601-636 762-297 162-665 137-917 96-252-42-391-99-546-164-156-64-331-135-483-232-153-97-283-221-341-392-58-170-45-388-2-523c43-135 116-190 343-277c228-87 609-208 828-328c219-120 277-239 300-341c21-103 8-190 0-254-10-65-15-107-3-147c11-41 37-79 105-153c68-73 173-180 233-223c59-43 70-23 105 66c35 87 92 244 84 374-8 131-82 233-219 393-137 158-335 372-572 521-236 150-511 234-712 334-202 101-332 218-335 358-3 139 119 300 158 399c40 99-3 134-152 152-148 18-402 18-593-23-191-41-320-122-412-142-93-20-149 20-150 89-2 69 51 165 212 272c162 107 434 224 599 241c165 16 222-70 188-147-35-78-160-152-289-186-128-35-260-32-328-33-66 0-66-7 7-168c72-164 219-484 295-660c76-175 82-206 107-404c25-198 68-564 102-763c35-198 63-229 201-238c141-8 393 5 525-41c132-46 143-153 374-846c231-692 679-1970 1019-3073c340-1101 572-2028 719-2532c145-505 204-589 458-223c254 366 702 1181 902 1621c199 440 148 504 94 544-55 38-114 49-168 16-56-33-109-112-266-395-156-284-414-775-522-1032-109-259-70-286-30-272c40 13 77 64 239 369c162 305 445 862 602 1128c156 265 188 240 217 229c30-12 60-12 253 353c193 364 547 1093 720 1465c173 373 165 391 94 342-71-50-203-165-570-653-368-487-973-1344-1334-1797-361-454-478-502-544-503-66 0-81 44 381 661c463 617 1404 1802 1882 2455c479 653 495 771 467 865-28 94-97 162-355 241-257 79-700 170-949 275-249 106-305 228-168 348c137 121 465 239 822 391c358 152 744 338 1049 491c307 155 534 277 711 317c178 38 305-8 270-228-35-221-231-615-434-915-204-300-415-504-557-705-142-201-214-398-250-530-37-131-37-201 37-840c75-642 221-1855 314-2496c92-642 130-713 453-802c323-90 933-201 1265-262c333-61 387-72 1121-31c733 41 2145 133 2855 147c711 13 724-55 698-192-27-137-91-344-220-451-128-108-321-118-951-137-631-20-1701-53-2295-53-593 0-710 31-1246 129-536 95-1492 257-1979 362-484 107-499 159-516 243-16 82-33 196 63 222c96 27 307-34 552-89c246-54 529-100 665-86c135 15 123 91 38 808-86 717-246 2076-329 2759-82 682-84 687 174 671c257-19 776-58 1032-98c255-39 245-77 244-737-4-661 0-1943 13-2590c13-648 36-659 102-666c66-6 173-10 229 56c56 66 58 200 78 1286c20 1087 54 3128 74 4168c20 1040 21 1083-97 1100-119 18-360 11-505-12-145-21-193-59-320-410-127-351-331-1018-428-1375-98-358-86-409 57-441c144-31 419-41 706-47c287-7 584-9 724-94c138-84 118-253 105-610-15-358-23-907-20-1191c4-283 19-301 193-305c175-5 508 5 711 134c203 128 275 377 321 595c45 218 63 402-18 524-80 122-262 182-390 131-129-52-206-215-109-390c97-174 371-359 672-407c302-48 630 40 742 211c112 172 9 427-143 506-152 78-353-21-336-112c16-90 250-171 514-204c264-31 557-15 730-22c175-6 230-37 162-532-68-495-259-1454-359-1952-101-498-113-536-155-551-43-15-119-8-160 28-42 38-51 106-48 543c3 437 18 1239 21 1650c5 411 0 425-51 427-49 0-143-12-189-51-45-40-42-107-40-698c0-590-3-1706-31-2341-28-634-81-789-206-918-126-129-324-232-423-356-97-124-95-267-41-325c53-58 157-30 208 25c51 54 49 135 13 165-36 29-105 10-135-18-30-28-18-63 16-93c37-29 98-56 188-28c93 27 215 107 320 201c106 96 196 205 249 449c55 244 71 620 119 809c48 190 124 195 371 210c247 16 663 44 872 66c209 23 211 39 328 649c119 610 353 1814 485 2425c132 612 161 632 247 637c87 6 231-2 279-96c46-94-4-273-126-847-122-574-314-1543-458-2002-142-458-234-404-283-349-50 54-57 110-17 142c40 31 125 36 191 0c65-35 109-111 182-129c72-18 176 20 359 81c185 59 449 142 577 211c129 71 122 128 114 269-8 138-18 357-22 540-3 183 0 328-52 408-53 79-160 90-249 28-89-65-160-203-177-393-16-189 22-427 69-564c48-135 108-168 174-127c67 40 142 154 120 233-21 79-140 125-166 72-27-52 37-204 11-311-26-107-143-168-274-206-130-38-273-55-399-38-125 16-229 64-296 117-66 53-93 112 5 640c97 527 319 1525 405 2014c86 492 35 475-191 389-226-85-627-242-965-301-339-61-616-25-802 38-187 62-277 153-494 191-215 39-557 26-746 72-190 46-229 147-182 287c48 140 182 320 371 439c190 117 436 173 742 224c307 49 673 94 940 254c269 160 437 433 636 544c198 109 426 53 929 51c501-3 1279 48 1670 12c392-38 399-164 107-434-290-270-879-686-1227-917-348-231-455-277-496-262-43 15-20 89 122 200c142 110 402 255 574 293c171 38 252-35 379-46c127-13 298 33 752 396c455 362 1192 1042 1569 1386c378 346 396 360 350 394-46 35-157 93-262 74-106-18-203-107-424-277-223-169-569-420-740-544-116-83-166-71-150 38c23 163 71 488 77 666c7 178-26 206-392 230-366 23-1067 37-1449 11-383-28-447-97-531-275-84-178-188-465-198-628-10-164 76-205 128-190c51 16 70 91-6 140-78 50-248 78-333 111-84 33-84 72-12 186c71 114 213 300 279 412c64 112 53 148 15 180-38 29-104 54-210 10-105-43-250-154-577-429-324-275-829-714-1093-973-264-259-285-334-268-381c16-46 72-62 244 0c171 63 456 205 765 464c308 259 637 634 809 860c170 226 181 300 97 366-82 66-259 122-519 170-262 50-610 91-864 79-254-10-415-72-805-489-390-418-1009-1191-1328-1553-320-363-340-314-347 100-5 414 4 1192 19 1585c14 392 34 398 435 562c400 163 1180 484 1578 615c397 132 410 72 417-40c6-112 6-279-152-391-158-113-475-173-874-288-399-116-882-285-1156-371-275-86-341-86-374 72-33 159-29 474-57 632-27 157-83 155-333 120-251-36-696-105-906-181-209-76-183-155-140-195c43-39 101-39 795 140c694 180 2024 540 2691 719c444 120 668 268 672 444c8 264 23 793 35 1096c11 304 20 383 133 749c114 366 333 1019 459 1330c125 310 158 279 451 74c296-204 853-580 1117-791c263-209 234-254 164-419-69-165-181-450-262-600-82-148-133-160-359-270-224-109-622-317-824-450-203-134-211-197-239-530-28-334-75-941-108-1244-31-304-49-304-130-286-81 20-223 58-295 103-71 44-71 97-35 438c37 342 109 971 114 1293c5 321-56 331-166 336-111 5-269 2-348 0-53 0-70 97-51 292c28 292 82 877-55 1382-138 504-468 931-892 1131-422 199-936 173-1327 39-391-133-661-374-814-798-154-425-192-1034-246-1345-54-312-129-328-234-335-107-8-249-8-320 12-71 19-74 59 3 85c78 27 234 40 338 38c104 0 155-16 225-242c69-226 156-660 286-996c131-336 302-572 521-678c221-103 488-75 724 241c236 317 437 920 480 1499c43 579-74 1133-249 1472-175 340-409 465-628 419-219-45-424-261-559-655-134-394-198-967-153-1356c44-390 197-592 392-660c195-66 430 3 584 279c153 275 226 758 202 1068-21 310-136 448-278 419-142-30-313-226-394-458-81-233-73-498-73-860c0-361-6-814 13-1051c19-239 61-262 231-290c170-29 465-60 787 4c321 65 671 225 892 421c222 196 316 430 395 547c79 117 142 117 317 102c175-14 460-42 603-61c144-18 144-26 104-316-39-290-119-864-132-1151-15-287 36-287 1618-366c1582-79 4697-239 6279-303c1583-65 1633-33 1695 245c63 279 140 807 190 1131c49 325 72 447 295 653c223 206 646 498 864 625c218 125 227 86 254 55c26-30 69-52 145 108c76 160 185 500 178 670-8 169-132 169-1701 227-1570 58-4587 175-6101 221-1513 46-1523 20-1591-152-67-171-191-488-242-651-51-163-28-173 790-226c817-52 2432-145 3279-174c849-30 931 6 1119 138c187 132 475 360 805 498c328 138 696 186 890 211c195 25 215 25 162-147-53-171-177-514-147-1020c30-508 211-1179 345-1542c133-361 217-412 244-361c26 51-4 203-74 465-70 262-179 635-221 963-42 326-17 608 67 866c84 257 226 491 660 610c433 118 1159 123 1497 159c338 37 287 103-76 299-363 196-1037 524-1494 684-457 160-696 152-2147 203-1452 51-4118 160-5472 216-1353 56-1393 58-1393 74c0 17 42 46 81 63c41 15 81 15 2984 15h14436"/></svg>