<svg width="339" height="145" viewBox="0 0 339 145" fill="none" xmlns="http://www.w3.org/2000/svg">
<path d="M-6.91504 138.65C43.7327 138.65 94.397 138.65 119.82 138.601C145.243 138.551 145.424 138.436 146.66 136.078C147.897 133.72 150.172 129.121 151.458 124.208C152.744 119.278 153.024 114.035 152.744 109.073C152.464 104.093 151.623 99.3947 151.128 96.592C150.634 93.7892 150.518 92.8824 149.298 92.0251C148.078 91.1678 145.77 90.3599 142.572 88.942C139.373 87.5077 135.301 85.4633 131.954 84.6884C128.607 83.9135 126.019 84.4411 123.332 85.9579C120.661 87.4747 117.907 89.9807 116.555 97.136C115.203 104.291 115.236 116.063 115.995 123.63C116.737 131.198 118.188 134.528 121.04 136.029C123.892 137.529 128.129 137.199 130.866 133.242C133.603 129.286 134.823 121.685 135.021 114.942C135.219 108.215 134.394 102.329 132.597 98.7847C130.8 95.2235 128.03 94.0035 125.524 95.1741C123.018 96.3611 120.776 99.9718 119.507 104.473C118.237 108.974 117.957 114.381 118.682 119.08C119.408 123.779 121.139 127.769 123.496 129.005C125.854 130.258 128.855 128.758 130.421 124.801C131.971 120.861 132.086 114.464 131.542 109.386C130.998 104.308 129.778 100.532 128.129 98.9001C126.481 97.2679 124.37 97.7625 122.969 98.8177C121.567 99.8729 120.842 101.472 120.924 102.906C121.007 104.341 121.897 105.594 122.243 104.951C122.573 104.308 122.359 101.736 119.391 90.3269C116.423 78.9015 110.703 58.6226 107.85 48.4832C105.949 41.7235 105.498 36.739 106.498 33.5295C107.999 28.7154 110.999 19.0705 111.593 12.7725C112.186 6.47454 110.356 3.50689 107.422 2.07253C104.487 0.638173 100.415 0.737095 97.7109 2.2374C95.007 3.73771 93.6551 6.62292 92.4186 10.7282C91.1656 14.8334 90.028 20.1752 88.9893 23.2417C87.9506 26.3083 87.0273 27.0997 86.3844 28.501C85.7414 29.9024 85.3622 31.8973 85.4446 34.6342C85.527 37.371 86.0876 40.8662 85.8568 43.9823C85.626 47.0983 84.6367 49.8351 83.021 56.7926C81.4218 63.75 79.1961 74.9117 77.9925 80.6821C76.789 86.469 76.6241 86.8647 75.3876 87.8869C74.1511 88.9091 71.8594 90.5578 70.7383 91.2337C69.6172 91.9097 69.6666 91.6129 70.6394 87.5077C71.6121 83.4024 73.5246 75.4887 74.5138 71.4659C75.4865 67.4431 75.536 67.3277 76.179 67.4101C76.8055 67.4926 78.0255 67.7729 78.652 67.575C79.2785 67.3772 79.3115 66.6847 80.3172 62.2497C81.3229 57.8148 83.2848 49.6373 84.2081 45.4496C85.1313 41.2784 85.0159 41.1135 84.8181 39.3824C84.6203 37.6513 84.34 34.3704 84.1586 32.7052C83.9773 31.04 83.8948 30.9906 82.4605 36.6621C81.0261 42.3336 78.2563 53.726 76.822 59.5789C75.3876 65.4317 75.3216 65.745 75.8163 66.0088C76.3273 66.2725 77.4155 66.4869 77.8771 66.7177C78.3387 66.9485 78.1904 67.2123 77.1352 70.9878C76.08 74.7633 74.1181 82.067 73.0465 85.8095C71.9748 89.552 71.7934 89.7169 70.7218 90.7721C69.6501 91.8272 67.6882 93.7562 66.6825 95.2071C65.6768 96.6414 65.6438 97.5977 66.4352 99.2463C67.2266 100.895 68.8258 103.236 69.881 104.275C70.9361 105.314 71.4472 105.017 72.2386 104.407C73.03 103.797 74.0851 102.873 74.4808 101.637C74.8765 100.4 74.6127 98.8672 74.4808 97.8285C74.3489 96.7898 74.3489 96.2457 75.5195 95.3225C76.6901 94.3992 79.0312 93.0638 80.2512 92.2889C81.4713 91.4975 81.5702 91.2667 81.7515 90.0137C81.9329 88.7607 82.2132 86.502 82.5099 85.2984C82.8067 84.0949 83.1364 83.9465 83.9443 83.93C84.7522 83.9135 86.0381 83.996 86.7471 84.0125C87.456 84.0125 87.5714 83.9465 87.3406 84.9522C87.1263 85.9744 86.5822 88.1012 86.1206 89.1564C85.6589 90.2115 85.2962 90.195 84.2575 90.2445C83.2189 90.294 81.5372 90.3929 80.581 90.5083C79.6247 90.6237 79.4104 90.7721 78.6685 91.6624C77.9266 92.5527 76.6571 94.2178 76.3768 95.7841C76.0965 97.3504 76.8055 98.8177 78.5696 100.994C80.3337 103.154 83.1529 106.022 85.2468 107.473C87.3406 108.924 88.709 108.957 91.4788 108.067C94.2321 107.177 98.3703 105.33 100.777 104.061C103.168 102.775 103.828 102.049 104.454 99.5596C105.081 97.0866 105.658 92.8494 105.262 89.1729C104.866 85.5128 103.481 82.3967 102.64 80.1215C101.8 77.8299 101.503 76.3625 101.453 75.3239C101.387 74.2852 101.569 73.6752 101.816 73.3949C102.047 73.0981 102.344 73.1146 102.591 73.4279C102.822 73.7411 103.003 74.3511 103.168 74.9117C103.333 75.4722 103.465 75.9668 103.613 76.2142C103.762 76.445 103.91 76.4285 103.893 75.9668C103.877 75.5052 103.679 74.6149 103.745 74.0544C103.811 73.4938 104.124 73.2795 104.438 73.7081C104.734 74.1368 105.015 75.192 105.295 75.7855C105.575 76.3625 105.839 76.4779 105.905 76.1152C105.971 75.769 105.822 74.9611 105.872 74.5325C105.921 74.1203 106.169 74.0873 106.35 74.5655C106.531 75.0271 106.663 75.9998 106.861 76.3296C107.059 76.6758 107.306 76.379 107.438 75.9339C107.57 75.4887 107.587 74.8622 107.784 74.8622C107.982 74.8622 108.345 75.4722 109.103 78.8191C109.862 82.1659 110.983 88.2331 111.543 92.0251C112.104 95.8171 112.087 97.3174 110.95 99.8234C109.812 102.329 107.554 105.825 104.586 107.44C101.618 109.056 97.9417 108.809 95.4192 108.397C92.8967 107.984 91.5118 107.407 89.962 106.764C88.3958 106.121 86.6481 105.412 85.1314 104.44C83.5981 103.467 82.2956 102.23 81.7186 100.516C81.1415 98.8177 81.2734 96.6414 81.7021 95.2895C82.1307 93.9376 82.8562 93.3935 85.1314 92.5197C87.4065 91.6459 91.215 90.4423 93.4078 89.2388C95.6005 88.0353 96.1776 86.8482 96.4084 85.826C96.6227 84.8038 96.4908 83.93 96.4084 83.287C96.3095 82.644 96.26 82.2154 96.3754 81.8197C96.4908 81.4075 96.7546 81.0283 97.4306 80.2864C98.1065 79.561 99.1617 78.4893 99.7552 78.0607C100.349 77.632 100.464 77.8299 100.81 78.7202C101.157 79.594 101.734 81.1602 101.651 82.4627C101.569 83.7651 100.827 84.7873 99.4585 86.3866C98.0901 87.9693 96.1116 90.1126 93.7375 91.5964C91.3799 93.0967 88.6266 93.9376 86.6152 94.9433C84.6038 95.949 83.3013 97.1195 83.2683 98.5209C83.2354 99.9058 84.4554 101.522 84.8511 102.511C85.2468 103.5 84.8181 103.846 83.3343 104.028C81.8505 104.209 79.3115 104.209 77.399 103.797C75.4865 103.385 74.2005 102.577 73.2773 102.379C72.354 102.181 71.7935 102.577 71.777 103.269C71.7605 103.962 72.2881 104.918 73.9038 105.989C75.5195 107.061 78.2398 108.232 79.8885 108.397C81.5372 108.561 82.1142 107.704 81.768 106.929C81.4218 106.154 80.1688 105.412 78.8828 105.066C77.5968 104.72 76.2779 104.753 75.6019 104.736C74.9425 104.736 74.9424 104.671 75.6679 103.055C76.3933 101.423 77.8606 98.2242 78.619 96.4601C79.3774 94.7125 79.4434 94.3992 79.6907 92.4208C79.938 90.4423 80.3666 86.7823 80.7129 84.7873C81.0591 82.8089 81.3394 82.4957 82.7243 82.4132C84.1256 82.3308 86.6481 82.4627 87.9671 82.0011C89.2861 81.5394 89.4015 80.4678 91.7096 73.5433C94.0178 66.6188 98.5022 53.8414 101.899 42.8117C105.295 31.7984 107.619 22.5328 109.087 17.4878C110.538 12.4428 111.131 11.602 113.67 15.2621C116.209 18.9222 120.694 27.0667 122.689 31.4687C124.683 35.8707 124.172 36.5137 123.628 36.9094C123.084 37.2886 122.491 37.404 121.947 37.0742C121.386 36.7445 120.858 35.9531 119.292 33.1174C117.726 30.2816 115.154 25.3685 114.066 22.7966C112.978 20.2081 113.373 19.9443 113.769 20.0762C114.165 20.2081 114.544 20.7192 116.16 23.7693C117.775 26.8194 120.611 32.392 122.177 35.0463C123.744 37.7007 124.057 37.4534 124.354 37.338C124.65 37.2226 124.947 37.2226 126.876 40.8662C128.805 44.5098 132.35 51.797 134.081 55.5231C135.812 59.2491 135.73 59.4305 135.021 58.9359C134.312 58.4413 132.993 57.2872 129.316 52.4071C125.64 47.5434 119.589 38.9702 115.978 34.4363C112.368 29.9024 111.197 29.4243 110.538 29.4078C109.878 29.4078 109.73 29.853 114.346 36.0191C118.979 42.1852 128.393 54.0393 133.174 60.5681C137.955 67.0969 138.12 68.2839 137.84 69.2237C137.56 70.1635 136.867 70.8394 134.295 71.6308C131.723 72.4222 127.288 73.3289 124.799 74.3841C122.309 75.4393 121.749 76.6593 123.117 77.8628C124.486 79.0664 127.766 80.2534 131.344 81.7702C134.922 83.287 138.78 85.1501 141.83 86.6833C144.896 88.2331 147.172 89.4531 148.936 89.8488C150.716 90.228 151.986 89.7664 151.64 87.5736C151.293 85.3644 149.331 81.424 147.303 78.4234C145.259 75.4228 143.149 73.3784 141.731 71.367C140.313 69.3556 139.588 67.3937 139.225 66.0747C138.862 64.7558 138.862 64.0633 139.604 57.6664C140.346 51.253 141.813 39.1186 142.737 32.7052C143.66 26.2918 144.039 25.5829 147.27 24.6926C150.502 23.7858 156.602 22.6812 159.916 22.0711C163.246 21.4611 163.79 21.3457 171.127 21.7579C178.464 22.1701 192.577 23.0933 199.682 23.2252C206.788 23.3571 206.92 22.6812 206.656 21.3128C206.393 19.9443 205.75 17.867 204.464 16.7953C203.178 15.7237 201.249 15.6248 194.951 15.4269C188.636 15.2291 177.936 14.8993 172.001 14.8993C166.066 14.8993 164.895 15.2126 159.537 16.1853C154.179 17.1416 144.616 18.7573 139.752 19.8124C134.905 20.8841 134.757 21.3952 134.592 22.236C134.427 23.0604 134.262 24.198 135.219 24.4618C136.175 24.7255 138.285 24.1155 140.742 23.5715C143.198 23.0274 146.034 22.5658 147.386 22.7141C148.738 22.8625 148.622 23.6209 147.765 30.7927C146.908 37.9645 145.309 51.5497 144.484 58.3753C143.66 65.2009 143.643 65.2504 146.215 65.0855C148.787 64.9041 153.981 64.5084 156.536 64.1128C159.092 63.7171 158.993 63.3379 158.976 56.7431C158.943 50.1319 158.976 37.3051 159.108 30.8422C159.24 24.3628 159.471 24.2474 160.13 24.1815C160.79 24.1155 161.861 24.0826 162.422 24.742C162.983 25.4015 162.999 26.7369 163.197 37.6018C163.395 48.4667 163.741 68.8775 163.939 79.2807C164.137 89.6839 164.153 90.1126 162.966 90.2775C161.779 90.4588 159.372 90.3929 157.921 90.1621C156.47 89.9477 155.992 89.5685 154.723 86.0568C153.453 82.5451 151.409 75.8844 150.436 72.3068C149.463 68.7291 149.579 68.218 151.013 67.9047C152.447 67.5915 155.201 67.4926 158.069 67.4266C160.938 67.3607 163.906 67.3442 165.307 66.4869C166.692 65.646 166.494 63.9644 166.362 60.3867C166.214 56.8091 166.132 51.3189 166.164 48.4832C166.197 45.6474 166.346 45.4661 168.093 45.4331C169.841 45.3836 173.171 45.4826 175.199 46.7685C177.227 48.0545 177.953 50.544 178.414 52.7203C178.859 54.8966 179.041 56.7431 178.233 57.9631C177.425 59.1832 175.611 59.7767 174.326 59.2656C173.04 58.7545 172.265 57.1223 173.237 55.3747C174.21 53.6271 176.947 51.7806 179.964 51.3024C182.981 50.8243 186.262 51.6981 187.383 53.4128C188.504 55.1274 187.466 57.6829 185.949 58.4742C184.432 59.2491 182.421 58.2599 182.585 57.3531C182.75 56.4463 185.091 55.6385 187.729 55.3087C190.367 54.9955 193.302 55.1604 195.033 55.0944C196.781 55.0285 197.325 54.7152 196.649 49.7692C195.973 44.8231 194.06 35.2277 193.055 30.2486C192.049 25.2696 191.934 24.8904 191.505 24.742C191.076 24.5936 190.318 24.6596 189.906 25.0223C189.493 25.4015 189.395 26.0775 189.428 30.4465C189.46 34.8155 189.609 42.8447 189.642 46.9499C189.691 51.0551 189.642 51.2035 189.131 51.22C188.636 51.22 187.696 51.1046 187.235 50.7089C186.79 50.3132 186.823 49.6373 186.839 43.7349C186.839 37.8326 186.806 26.671 186.526 20.3235C186.246 13.9761 185.718 12.4263 184.465 11.1403C183.212 9.85435 181.234 8.81568 180.244 7.57916C179.272 6.34264 179.288 4.90828 179.832 4.33124C180.36 3.7542 181.398 4.03447 181.909 4.57854C182.421 5.12261 182.404 5.93047 182.041 6.22723C181.679 6.524 180.986 6.32615 180.689 6.04587C180.393 5.7656 180.508 5.41938 180.854 5.12261C181.217 4.82585 181.827 4.56205 182.734 4.84233C183.657 5.10612 184.877 5.91398 185.932 6.85374C186.987 7.80998 187.894 8.89811 188.422 11.3382C188.966 13.7782 189.131 17.5372 189.609 19.4332C190.087 21.3292 190.845 21.3787 193.318 21.5271C195.791 21.692 199.946 21.9722 202.04 22.1866C204.134 22.4174 204.15 22.5822 205.321 28.6824C206.508 34.7825 208.849 46.818 210.168 52.9346C211.487 59.0513 211.784 59.2491 212.641 59.2986C213.515 59.3645 214.949 59.2821 215.427 58.3423C215.889 57.4026 215.394 55.6055 214.174 49.8681C212.954 44.1306 211.025 34.4363 209.591 29.853C208.173 25.2696 207.25 25.8137 206.755 26.3577C206.261 26.9018 206.195 27.4624 206.59 27.7756C206.986 28.0889 207.843 28.1383 208.503 27.7756C209.146 27.4294 209.591 26.671 210.316 26.4896C211.042 26.3083 212.081 26.6875 213.911 27.2975C215.757 27.891 218.395 28.7154 219.681 29.4078C220.967 30.1168 220.901 30.6938 220.819 32.0952C220.736 33.4801 220.637 35.6728 220.604 37.5029C220.571 39.3329 220.604 40.7838 220.077 41.5752C219.549 42.3665 218.477 42.4819 217.587 41.8554C216.697 41.2124 215.988 39.8275 215.823 37.9316C215.658 36.0356 216.037 33.6614 216.515 32.293C216.994 30.9411 217.587 30.6114 218.247 31.0235C218.923 31.4192 219.665 32.5568 219.45 33.3482C219.236 34.1396 218.049 34.6012 217.785 34.0736C217.521 33.546 218.164 32.0292 217.9 30.9576C217.637 29.8859 216.466 29.2759 215.164 28.8967C213.861 28.5175 212.427 28.3527 211.174 28.5175C209.921 28.6824 208.882 29.1605 208.206 29.6881C207.547 30.2157 207.283 30.8092 208.256 36.085C209.228 41.3608 211.454 51.3354 212.311 56.232C213.169 61.1451 212.658 60.9802 210.399 60.1229C208.14 59.2656 204.134 57.6994 200.754 57.1058C197.358 56.4958 194.588 56.8585 192.725 57.485C190.862 58.1115 189.955 59.0183 187.795 59.3975C185.636 59.7932 182.223 59.6613 180.327 60.1229C178.431 60.5846 178.035 61.5903 178.513 62.9917C178.991 64.393 180.327 66.1901 182.223 67.3772C184.119 68.5477 186.575 69.1083 189.642 69.6194C192.708 70.114 196.368 70.5591 199.039 72.1584C201.727 73.7576 203.408 76.4944 205.403 77.599C207.382 78.6872 209.657 78.1266 214.685 78.1101C219.697 78.0772 227.479 78.5883 231.387 78.2255C235.311 77.8463 235.377 76.5933 232.458 73.8895C229.557 71.1856 223.671 67.0309 220.192 64.7228C216.713 62.4146 215.642 61.953 215.23 62.1014C214.801 62.2497 215.032 62.9917 216.45 64.0963C217.867 65.2009 220.472 66.6517 222.187 67.0309C223.902 67.4101 224.709 66.6847 225.979 66.5693C227.248 66.4374 228.963 66.899 233.497 70.5262C238.047 74.1533 245.417 80.9459 249.193 84.3917C252.968 87.8539 253.149 87.9858 252.688 88.332C252.226 88.6783 251.122 89.2553 250.066 89.0739C249.011 88.8926 248.038 88.0023 245.829 86.3041C243.603 84.606 240.141 82.1 238.427 80.8634C237.273 80.0281 236.772 80.1545 236.926 81.2427C237.157 82.8749 237.635 86.1228 237.701 87.9034C237.767 89.6839 237.437 89.9642 233.777 90.195C230.117 90.4259 223.11 90.5742 219.285 90.3105C215.46 90.0302 214.817 89.3377 213.977 87.5571C213.136 85.7766 212.097 82.9078 211.998 81.2756C211.899 79.6434 212.756 79.2312 213.284 79.3796C213.795 79.5445 213.977 80.2864 213.218 80.781C212.443 81.2756 210.745 81.5559 209.888 81.8856C209.047 82.2154 209.047 82.6111 209.772 83.7487C210.481 84.8863 211.899 86.7493 212.559 87.8704C213.202 88.9915 213.086 89.3542 212.707 89.6675C212.328 89.9642 211.668 90.2115 210.613 89.7664C209.558 89.3377 208.107 88.2331 204.843 85.4798C201.595 82.7265 196.55 78.341 193.912 75.7525C191.274 73.1641 191.06 72.4057 191.225 71.944C191.389 71.4824 191.95 71.3175 193.665 71.944C195.379 72.5705 198.232 73.9884 201.315 76.5769C204.398 79.1653 207.695 82.9243 209.41 85.183C211.108 87.4417 211.223 88.1836 210.382 88.8431C209.558 89.5026 207.794 90.0631 205.189 90.5413C202.568 91.0359 199.089 91.448 196.55 91.3326C194.011 91.2337 192.395 90.6072 188.504 86.436C184.597 82.2648 178.414 74.5325 175.216 70.9054C172.017 67.2782 171.819 67.7728 171.754 71.9111C171.704 76.0493 171.787 83.8311 171.935 87.755C172.083 91.6789 172.281 91.7448 176.287 93.377C180.294 95.0092 188.092 98.2242 192.065 99.5266C196.039 100.846 196.171 100.252 196.237 99.1309C196.303 98.0098 196.303 96.3447 194.72 95.2236C193.137 94.086 189.972 93.4924 185.982 92.3383C181.992 91.1843 177.161 89.4861 174.424 88.6288C171.671 87.7715 171.012 87.7715 170.682 89.3542C170.352 90.9369 170.385 94.086 170.105 95.6687C169.841 97.235 169.281 97.2185 166.775 96.8722C164.269 96.5095 159.817 95.8171 157.723 95.0587C155.629 94.3003 155.893 93.5089 156.322 93.1132C156.75 92.7175 157.328 92.7175 164.268 94.5146C171.209 96.3117 184.514 99.9058 191.175 101.703C195.616 102.901 197.858 104.379 197.902 106.138C197.984 108.776 198.133 114.068 198.248 117.102C198.363 120.135 198.446 120.927 199.583 124.587C200.721 128.247 202.914 134.776 204.167 137.892C205.42 140.991 205.75 140.678 208.684 138.634C211.635 136.589 217.208 132.83 219.846 130.72C222.484 128.626 222.187 128.181 221.495 126.532C220.802 124.883 219.681 122.031 218.873 120.531C218.049 119.047 217.538 118.932 215.279 117.827C213.037 116.739 209.063 114.662 207.036 113.326C205.008 111.991 204.925 111.364 204.645 108.034C204.365 104.687 203.903 98.6199 203.573 95.5863C203.26 92.5527 203.079 92.5527 202.271 92.734C201.463 92.9319 200.045 93.3111 199.32 93.7562C198.611 94.2014 198.611 94.7289 198.973 98.1417C199.336 101.555 200.062 107.853 200.111 111.067C200.16 114.282 199.55 114.381 198.446 114.431C197.341 114.48 195.758 114.447 194.967 114.431C194.44 114.431 194.269 115.404 194.456 117.349C194.736 120.267 195.28 126.12 193.912 131.165C192.527 136.21 189.23 140.48 184.993 142.475C180.772 144.47 175.628 144.206 171.721 142.871C167.813 141.535 165.109 139.128 163.576 134.891C162.043 130.637 161.664 124.554 161.119 121.438C160.575 118.322 159.834 118.157 158.778 118.091C157.707 118.008 156.289 118.008 155.58 118.206C154.871 118.404 154.838 118.8 155.613 119.064C156.388 119.327 157.954 119.459 158.993 119.443C160.031 119.443 160.542 119.278 161.235 117.019C161.927 114.761 162.801 110.424 164.104 107.061C165.406 103.698 167.121 101.34 169.313 100.285C171.523 99.2464 174.194 99.5266 176.551 102.692C178.909 105.858 180.92 111.892 181.349 117.679C181.778 123.466 180.607 129.005 178.859 132.402C177.112 135.798 174.771 137.051 172.578 136.589C170.385 136.144 168.341 133.984 166.989 130.044C165.653 126.104 165.01 120.366 165.456 116.475C165.901 112.584 167.434 110.556 169.379 109.88C171.325 109.221 173.683 109.913 175.216 112.667C176.749 115.42 177.475 120.251 177.244 123.35C177.029 126.45 175.875 127.835 174.457 127.538C173.04 127.241 171.325 125.279 170.517 122.955C169.709 120.63 169.792 117.975 169.792 114.365C169.792 110.754 169.726 106.22 169.924 103.846C170.105 101.456 170.534 101.225 172.232 100.945C173.93 100.664 176.881 100.351 180.096 100.994C183.311 101.637 186.806 103.236 189.015 105.198C191.241 107.16 192.181 109.501 192.972 110.672C193.764 111.842 194.39 111.842 196.138 111.694C197.885 111.546 200.738 111.265 202.172 111.084C203.606 110.903 203.606 110.82 203.211 107.918C202.815 105.017 202.024 99.2793 201.892 96.4106C201.743 93.5419 202.254 93.5419 218.065 92.7505C233.893 91.9591 265.036 90.3599 280.864 89.7169C296.691 89.0739 297.186 89.3872 297.812 92.1735C298.439 94.9598 299.214 100.236 299.708 103.483C300.203 106.731 300.434 107.951 302.66 110.012C304.885 112.073 309.122 114.991 311.299 116.261C313.475 117.514 313.574 117.118 313.838 116.805C314.101 116.508 314.53 116.294 315.289 117.893C316.047 119.492 317.135 122.889 317.069 124.587C316.987 126.285 315.75 126.285 300.055 126.862C284.359 127.439 254.188 128.61 239.053 129.071C223.918 129.533 223.819 129.269 223.143 127.554C222.467 125.84 221.231 122.674 220.72 121.042C220.209 119.41 220.439 119.311 228.617 118.783C236.794 118.256 252.935 117.332 261.409 117.036C269.9 116.739 270.724 117.102 272.604 118.421C274.467 119.74 277.352 122.015 280.65 123.4C283.93 124.785 287.607 125.263 289.552 125.51C291.498 125.757 291.696 125.757 291.168 124.043C290.641 122.328 289.404 118.899 289.701 113.837C289.998 108.759 291.811 102.049 293.147 98.422C294.482 94.8114 295.323 94.3003 295.587 94.8114C295.85 95.3225 295.554 96.8393 294.845 99.4607C294.152 102.082 293.064 105.808 292.636 109.089C292.223 112.353 292.471 115.173 293.312 117.745C294.152 120.317 295.57 122.658 299.906 123.845C304.242 125.032 311.497 125.081 314.876 125.444C318.256 125.807 317.745 126.466 314.118 128.428C310.491 130.39 303.748 133.671 299.181 135.27C294.614 136.869 292.223 136.787 277.715 137.298C263.19 137.809 236.531 138.897 222.995 139.458C209.459 140.018 209.063 140.035 209.063 140.2C209.063 140.365 209.476 140.661 209.871 140.826C210.283 140.975 210.679 140.975 239.713 140.975H384.072" stroke="#69A6C2" stroke-width="1.5" stroke-linecap="round" stroke-linejoin="round"/>
</svg>
