<?xml version="1.0" encoding="UTF-8"?>
<svg id="Layer_1" xmlns="http://www.w3.org/2000/svg" width="465.57" height="244.35" version="1.1" viewBox="0 0 465.57 244.35">
  <!-- Generator: Adobe Illustrator 29.2.1, SVG Export Plug-In . SVG Version: 2.1.0 Build 116)  -->
  <path d="M194.54,198.37c-.42-.35-.77-.63-1.06-.88.14-.27.24-.56.24-.9-.02-.95-.72-1.44-1.72-2.16-.12-.08-.26-.18-.5-.36l-12.09-8.7c-1.72-1.24-2.78-1.28-4.08-.71-.12-.11-.24-.23-.36-.37-.71-.77-1.18-1.43-1.51-2.13-.33-.72-.53-1.55-.73-2.57-.18-.95-.4-1.78-.69-2.6-.28-.83-.62-1.56-.94-2.24-.68-1.41-1.34-2.51-2.09-3.46-.85-1.07-1.83-1.98-2.93-2.69-.08-.05-.16-.1-.23-.16,5.13-.16,7.6-.21,12.55-.06,2.43.08,3.82-.21,4.63-.98.72-.67.84-1.55.86-2.35v-1.14c-.02-11.76-.17-22.14-.3-32.18l-.02-1.36c-.27-19.56-.5-36.67.19-57.36.27.01.54-.06.76-.23.66-.49.8-1.49,1.2-4.46.1-.78.23-1.69.39-2.85l1.01-7.28c.17-1.91.38-3.57.61-5.26.86-6.55,1.38-10.5-5.77-12.68-5.31-1.62-15.21-2.42-33.16-3.88l-1.97-.16c-10.02-.82-22.43-1.83-37.75-3.28.36-3.28-.13-5.32-1.59-6.71-1.55-1.48-4.01-2-8-2.45-10.05-1.13-21.94-2.33-30.15-3.13-12.71-1.24-23.29-2.2-25.16-2.27l-1.47-.06c-8.82-.41-13.25-.62-14.2,9.91l-10.26,113.6c-.04.47-.08.92-.14,1.36-.12,1.01-.2,1.68.15,2.34.36.72.98,1.03,1.92,1.5l.16.08c.16.08.35.17.57.28l5.18,2.67c.48.25.92.49,1.29.7l.37.21c.7.39,1.29.73,1.81.82l-.17,11.47c.03,1.78.43,2.96,1.27,3.69.9.78,2.06.88,3.21.87l87.75-.2c.75,0,1.33-.58,1.33-1.33,0-.67-.5-1.23-1.15-1.32l-.15-.05-87.95.2c-.96.02-1.3-.1-1.42-.21-.1-.09-.34-.44-.36-1.69l1.53-104.67v-1.37c0-.5,0-.98.02-1.29.27-.01.65-.01,1.03-.01h144.21c1.4,0,2.23-.05,2.91-.33.13-.05.25-.12.36-.18-.02.13-.04.26-.06.38-.22,1.63-.44,5.41-.68,11.23-.96,23.5-.71,42-.41,63.43l.02,1.35c.14,10.03.28,20.4.3,32.14v1.08c-.01.44-.01.83-2.76.74-5.12-.17-7.61-.09-13.04.07l-1.22.03c-.33.01-.58.02-.79.03-.25-.2-.51-.35-.8-.42l-.19-.17c-.97-.88-2.01-1.54-3.1-2.22-1.95-1.23-3.49-2.2-3.79-4.21-.69-4.7-1.61-9.95-3.11-13.27-1.72-3.83-4.19-5.15-7.34-3.91-2.1.83-2.92,3.51-2.99,5.55-.02.5,0,.94.05,1.24.01,1.12.14,2.29.38,3.57.23,1.18.51,2.31.77,3.34l.58,2.34c.66,2.67,1.23,5,2.19,7.65-.75.18-2.15.36-3.67.38-3.25-.05-8.79-.38-11.72-.59l-.34-.02c-1.7-.12-2.92-.21-3.55-.21-1.09.01-2.4.68-2.4,3.78.01,1.84.45,4.3.84,6.46l.04.23c.22,1.23.45,2.5.53,3.35l.07.85c.16,1.89.26,3.03,2.09,4.86l.24.19c.93.7,5.05,4.29,10.83,9.43,5.37,4.78,12.98,11.6,16.77,15.11.83.77,1.64,1.27,2.46,1.49,0,0,0,0,0,0-.35.05-.67.23-.89.51-.21.28-.31.63-.26.98.05.35.23.67.52.89l12.86,9.78c.14.12.29.24.4.31.55.44,1.03.82,1.65.82.07,0,.15,0,.23-.02l.13-.02c.72-.14,1.08-.68,1.44-1.2.12-.18.29-.4.49-.68l17.13-22.4c.21-.28-.16.2,0,0,.28.23.61.5.99.82,23.27,19.26,43.58,32.83,60.36,40.32l1.26-2.28c-16.64-7.42-36.81-20.91-59.96-40.07ZM185.39,46.65c.2,1.42-.04,3.3-.38,5.9l-.06.46c-.07.55-.15,1.13-.22,1.74-.11-.31-.25-.54-.46-.71-.32-.25-.62-.32-.87-.32-.08,0-.16,0-.23.02.03-.08.05-.16.07-.23l1.7-4.89c.2-.72.37-1.38.44-1.97ZM22.45,145.17c-.25-.13-.5-.25-.73-.37l-.32-.16c-.31-.15-.65-.32-.84-.43,0-.18.04-.47.07-.75l-.66-.14s0-.04,0-.06h.68c.04-.34.08-.74.13-1.27l8.81-97.56-6.3,96.37c-.02.34-.04.61-.07.84l-.02.23c-.16,1.77-.11,2.12,1.03,4.2h0s0,.02,0,.02l-1.79-.92ZM29.06,149.52l-.15-.08c.1-.08.22-.14.33-.17l-.18.25ZM29.57,148.09c-.05-.06-.1-.11-.15-.17l-2.86-3.2c-.74-1.37-.73-1.4-.63-2.56l.03-.3c.02-.26.05-.55.06-.84l4.71-72.12-1.16,79.2ZM30.92,32.6c-.12.21-.23.43-.31.68l.44-4.87c.73-7.99,3.21-7.88,11.45-7.5l1.46.06c1.73.08,11.79.97,25.02,2.26,8.22.81,20.11,2.01,30.11,3.13,3.34.38,5.47.78,6.47,1.73.95.9,1.13,2.62.6,5.75-.13.73.34,1.4,1.06,1.54h.14c16.8,1.6,29.95,2.68,40.52,3.54l.81.07c17.68,1.43,27.42,2.22,32.39,3.75,1.14.35,2.01.73,2.65,1.18-.65-.23-1.44-.34-2.31-.45L34.83,31.28c-.36-.03-.72-.06-1.08-.06-1.12,0-2.16.26-2.84,1.38ZM180.8,52.77c-.07.26-.13.34-.11.34-.32.12-1.31.12-1.9.12H34.55c-1.28-.01-2.17-.02-2.83.56l1.05-16.06c.12-1.83.22-3.27.51-3.73.03-.02.14-.07.55-.07.2,0,.48.01.87.05l146.54,12.18c.42.06,1.21.16,1.6.27-.05.38-.24,1.11-.34,1.49l-1.69,4.85ZM146.76,167.52c.12.38.23.75.33,1.13.24.86.44,1.75.65,2.8-.01,1.15-.31,1.75-.55,2.04-.2.23-.44.37-.73.43-.31.05-.72,0-1.15-.17-.98-.38-1.89-1.22-2.5-2.3-.14-.25-.47-.98-.83-1.84-.19-.45-.38-.92-.54-1.35,2.66-.02,4.35-.25,5.32-.75ZM157.59,207.22c-3.64-3.37-10.87-9.88-16.81-15.15-2.85-2.54-9.57-8.48-11.02-9.57-1.09-1.11-1.13-1.64-1.25-3.12-.01-.25-.04-.53-.08-.92-.09-.85-.29-2-.51-3.23l-.09-.51c-.38-2.07-.8-4.42-.8-6.05,0-.59.05-.92.09-1.11.62.02,1.69.1,3,.19l.37.03c2.17.16,5.29.39,8.18.48,0,.03.02.05.03.08.21.6.57,1.49.92,2.32.31.76.73,1.71.96,2.1.92,1.64,2.32,2.92,3.85,3.5.87.34,1.76.45,2.57.31.92-.16,1.72-.62,2.31-1.33.77-.94,1.17-2.24,1.17-3.95l-.02-.18c-.21-1.09-.44-2.08-.73-3.13-.29-1.03-.6-2.01-1-3.08-.97-2.62-1.54-4.91-2.2-7.56l-.08-.3c-.19-.79-.39-1.6-.57-2.3-.15-.62-.45-2.6-.69-4.18-.15-.98-.28-1.86-.36-2.31,0-.14-.02-.29-.03-.47-.09-.98-.21-2.32,1.41-3.69,1.14-.42,2.47-.36,3.8,2.59,1.38,3.05,2.24,8.06,2.9,12.57.48,3.2,2.76,4.64,5.01,6.06.83.52,1.87,1.17,2.75,1.96.1.08.18.16.25.23l.14.12c.38.36.65.61,1.05.77.11.12.22.24.31.35.61.68,1.37,1.53,2.26,2.11.84.54,1.59,1.22,2.28,2.1.66.84,1.24,1.81,1.78,2.96.27.57.58,1.24.84,1.99.26.73.45,1.43.59,2.21.25,1.37.53,2.32.92,3.18.44.98,1.05,1.86,1.98,2.84.24.26.47.48.68.67l.62.58c-.16.29-.46.74-.76,1.22l-.24.36c-.17.28-.37.58-.57.9l-7.3,11.5c-.65.8-1.25,1.63-1.82,2.44l-.11.16c-.84,1.18-1.55,2.14-2.23,2.88-1.46,1.57-2.37,1.66-3.74.39ZM190.69,196.81l-.15.18c-.22.27-.49.59-.77.96l-17.12,22.39c-.14.18-.26.34-.37.5l-13.11-9.97c-.06-.05-.13-.09-.2-.13.14,0,.28.01.43,0,1.7-.07,3-1.27,3.83-2.17.81-.88,1.57-1.93,2.44-3.14l.27-.37c.51-.71,1.04-1.43,1.6-2.12l6.93-10.91c.47-.73.81-1.26,1.09-1.7,1-1.52,1.46-2.22,1.53-2.98,0-.11.01-.21,0-.3.19.08.43.22.74.45l12.09,8.71.64.45c.05.04.1.07.15.1-.01.01-.02.03-.03.04Z" style="fill: #69a6c2;"/>
</svg>