<?xml version="1.0" encoding="utf-8"?>
<!-- Generator: Adobe Illustrator 27.4.1, SVG Export Plug-In . SVG Version: 6.00 Build 0)  -->
<svg version="1.1" id="_x2014_ÎÓÈ_x5F_1" xmlns="http://www.w3.org/2000/svg" xmlns:xlink="http://www.w3.org/1999/xlink"
	 x="0px" y="0px" viewBox="0 0 607.5 300" style="enable-background:new 0 0 607.5 300;" xml:space="preserve">
<style type="text/css">
	.st0{fill:#69A6C2;stroke:#69A6C2;stroke-width:1.1232;stroke-miterlimit:10;}
	.st1{fill:none;stroke:#69A6C2;stroke-width:1.1232;stroke-miterlimit:10;}
</style>
<g>
	<path class="st0" d="M126.1,34.8c-0.3,0.2-0.7,0.4-1,0.6c-0.6,0.6-1.3,1.2-1.9,1.8c0.1-0.1,0.3-0.2,0.4-0.3
		C124.4,36.2,125.3,35.5,126.1,34.8z"/>
	<path class="st0" d="M177.1,34.2c21.6,11.7,33.9,35.6,29.8,58.1c-4.2,22.8-23.3,40.2-46.3,42.4c-25,2.3-48.6-12.8-57.3-36.9
		c-5.1-13.9-4.4-27.7,1.9-37.7c6.3-10,16.8-16.5,26.9-22.8l1.4-0.9c0.1-0.1,0-0.2,0-0.3l-0.2,0c-9.4,5.3-20,11.7-27.1,21.2
		c-1.1,1.5-2.1,3-2.9,4.6c-2.4,5.7-3.8,11.8-4.1,17.9c0,4,0.5,7.7,1.2,10.9c5,22.9,23.5,40.6,46,44.2c23.7,3.6,46.3-7.8,56.4-28.4
		c10.5-20.9,5.7-45.7-12.1-63.2c-15.7-15.2-38.8-19.3-58.9-11.2c-1,0.6-2,1.2-3,1.9C144.1,26.7,162.5,26.2,177.1,34.2z"/>
	<path class="st0" d="M187.5,31.8c-18.6-12.1-42.2-11.3-58.5,0.5c0.8-0.4,1.6-0.7,2.4-1c14.1-8.4,32.4-9.8,47.9-2.8
		c19.8,9.1,34.2,30,35.9,52.1c2.1,27.9-21.9,47.4-43.1,55.7c-16.1,6.1-29,6.5-39.5,1.1c-9.5-4.9-18.6-13.3-24.9-23
		c-7-10.6-10.2-22.7-9.6-34.5c0-5.8,1-12.2,4.2-18.3c1.9-4.5,4.5-8.9,7.7-12.8c2.8-3.4,6-6.5,9.5-9.1c0.5-0.6,1-1.2,1.6-1.8
		C102,51.1,93,76.2,99.7,98.4c6.6,22,28.3,44.9,51.9,43.5c22.4-1.4,51.6-16.7,61.5-39.9C221.7,81.8,214.4,49.2,187.5,31.8z"/>
	<path class="st0" d="M98.7,80.5c0.3-6.5,1.7-12.9,4.3-18.9C99.9,67.4,98.6,73.9,98.7,80.5z"/>
	<path class="st0" d="M120.2,41.2c1.2-1.4,2.5-2.7,3.9-3.9c-1.4,0.9-2.7,1.8-4,2.7c-0.1,0.1-0.3,0.3-0.4,0.4
		C119.3,41,119.8,41.5,120.2,41.2z"/>
	<path class="st0" d="M120,40c1.3-1,2.7-1.9,4-2.7c2.4-2.1,4.9-4,7.6-5.6c-2.3,0.9-4.6,2.1-6.8,3.3C123.2,36.5,121.5,38.2,120,40z
		 M125.1,35.4c0.3-0.2,0.7-0.4,1-0.6c-0.9,0.7-1.7,1.4-2.5,2.1c-0.1,0.1-0.3,0.2-0.4,0.3C123.8,36.6,124.5,36,125.1,35.4z"/>
	<path class="st0" d="M187.8,31.3c-19.3-12.5-45.9-11.6-62.9,3.7c2.2-1.3,4.5-2.4,6.8-3.3c14.1-8.3,32.2-9.6,47.3-2.7
		c19.9,9.1,34,30,35.6,51.7c2,26.5-19.7,46.2-42.7,55.2c-12.4,4.7-26.7,7.5-39.1,1.1c-9.9-5.1-18.6-13.5-24.7-22.8
		c-6.7-10.2-9.9-22-9.5-33.6c-0.1-6.6,1.2-13,4.3-18.9c1.9-4.4,4.4-8.6,7.6-12.5c2.8-3.4,6-6.4,9.5-9c1.5-1.8,3.1-3.5,4.9-5
		c-0.6,0.4-1.3,0.7-1.9,1.1C102.3,49,92.1,75,99.2,98.5c6.6,21.9,28.1,45.3,52.4,43.8c23.7-1.5,52.2-17.5,61.9-40.2
		C224.3,77,209.7,45.6,187.8,31.3z M213.1,102c-9.9,23.2-39,38.5-61.5,39.9c-23.6,1.4-45.3-21.5-51.9-43.5
		C93,76.2,102,51.1,121.2,37.8c-0.5,0.6-1.1,1.2-1.6,1.8c-3.5,2.6-6.7,5.6-9.5,9.1c-3.2,4-5.8,8.3-7.7,12.8
		c-3.2,6.1-4.2,12.5-4.2,18.3c-0.6,11.8,2.6,23.9,9.6,34.5c6.3,9.7,15.3,18.1,24.9,23c10.5,5.4,23.4,5.1,39.5-1.1
		c21.2-8.2,45.2-27.8,43.1-55.7c-1.7-22.1-16.1-43-35.9-52.1c-15.5-7-33.8-5.6-47.9,2.8c-0.8,0.3-1.6,0.7-2.4,1
		c16.4-11.9,40-12.6,58.5-0.5C214.4,49.2,221.7,81.8,213.1,102z"/>
	<path class="st0" d="M176.8,34.6c20.3,11,33.8,34.3,29.6,57.5c-4.2,22.6-22.8,39.8-45.8,42c-25.2,2.4-48.2-13-56.8-36.5
		c-4.4-12.1-5.1-26.1,1.8-37.3c6.6-10.4,17.9-17.2,28.1-23.6c0.7-0.4,0-1.6-0.7-1.1c-10,5.7-20.3,12.1-27.2,21.4
		c-1.1,1.4-2,2.9-2.8,4.5c-2.6,6-4,12.4-4.3,18.9c0.1,3.5,0.5,7,1.2,10.4c4.9,22.5,23.4,40.9,46.4,44.6c23,3.5,46.6-7.5,57-28.7
		c11-21.9,4.9-46.9-12.2-63.7c-16.1-15.6-39.2-19.5-59.3-11.4c-2.7,1.6-5.3,3.5-7.6,5.6C139.8,27.6,160.3,25.7,176.8,34.6z
		 M190.7,43.4c17.8,17.5,22.6,42.2,12.1,63.2c-10.1,20.6-32.8,32-56.4,28.4c-22.5-3.6-41-21.3-46-44.2c-0.7-3.2-1.2-6.9-1.2-10.9
		c0.3-6.2,1.7-12.2,4.1-17.9c0.8-1.6,1.8-3.1,2.9-4.6c7.1-9.5,17.7-15.9,27.1-21.2l0.2,0c0.1,0.1,0.1,0.2,0,0.3l-1.4,0.9
		c-10.1,6.3-20.5,12.8-26.9,22.8c-6.3,10-6.9,23.8-1.9,37.7c8.8,24.1,32.4,39.2,57.3,36.9c23-2.2,42.1-19.6,46.3-42.4
		c4.1-22.5-8.2-46.4-29.8-58.1c-14.6-7.9-32.9-7.4-48.2-0.1c1-0.7,2-1.3,3-1.9C151.9,24.1,175,28.1,190.7,43.4z"/>
</g>
<path class="st0" d="M107.2,296.4c-5.5,0-9.9-0.2-10.3-0.2L97,294c0.2,0,16.3,0.8,25.6-0.7c4-0.7,8.8-2.9,13.4-5
	c6.5-3,12.6-5.8,17.5-5.2c7.7,1,30-1,38-7.9c2.6-2.3,4.7-4.6,6.8-7c4.4-5,9.4-10.7,20.9-16.8c8.3-4.4,17.1-8.6,24.1-12
	c6.9-3.3,12.4-6,13.7-6.9c1.5-1.1,5.2-2.9,10.8-5.7c5.4-2.6,12-5.9,20-10.1c15.7-8.4,29.9-37.3,30-37.6l2,1
	c-0.6,1.2-14.6,29.8-31,38.6c-8,4.2-14.9,7.7-20,10.2c-5.3,2.6-9.1,4.5-10.4,5.5c-1.5,1.1-6.7,3.7-14,7.2c-7,3.4-15.7,7.6-24,11.9
	c-11.1,5.9-15.8,11.2-20.2,16.3c-2.2,2.5-4.3,4.9-7,7.3c-8.9,7.6-32.2,9.4-39.8,8.4c-4.3-0.6-10.4,2.3-16.3,5
	c-4.8,2.2-9.7,4.5-14,5.2C118.4,296.2,112.3,296.4,107.2,296.4z"/>
<g>
	<path class="st1" d="M428.8,52.3c-10.7,7.2-19.4,22-27.8,36.4c-1.6,2.7-3.2,5.5-4.9,8.3c0.7-0.6,1.4-1.1,2.1-1.6
		c3.1-2.3,6-4.5,10.2-11.5c10.9-17.7,23.6-29.3,33.2-30.3c3.5-0.4,6.5,0.7,8.8,3.1c0.4-0.1,0.8-0.2,1.3-0.3
		c-1.2-2.2-2.4-4.3-3.6-6.3l0,0C447,48.1,443.6,42.3,428.8,52.3z"/>
	<path class="st1" d="M351.8,72.3c-3.9,5.3-8.2,11-13.9,15.3c6.9-2.5,13.8-6,19.5-14.9c3.4-5.3,6.4-10.7,9.4-16
		c7.5-13.5,13.5-24.2,20-21.8c0.2-0.3,0.4-0.6,0.5-0.8c-4-2.5-8.5-2.8-18.9,9.3c-3.1,3.7-4.5,7.4-6,11.3c-1.6,4.1-3.3,8.3-6.9,12.8
		C354.3,69,353.1,70.6,351.8,72.3z"/>
	<path class="st1" d="M394.6,30.6c1.3,1.4,4.4,1.1,7.6-2.1c4.2-4.1,11.4-9.8,18.3-9.8c-2.9-1.3-5.7-1.9-8.5-1.8
		c-5.6,0.2-11.2,3.4-16.9,9.7l0,0C393.9,28.1,393.7,29.7,394.6,30.6z"/>
	<path class="st1" d="M406,65.3c-5.9,7.6-10.8,16.3-15.6,24.7c-6.2,11-12.1,21.3-19.8,29.3c-14,14.5-33.6,22.4-49.4,28.8
		c-11.4,4.6-19.7,11.5-30,22.2c16.3-12.6,34.9-20.5,53-28.1c0.6-0.3,1.3-0.5,1.9-0.8c20.1-8.8,31.8-18.2,40.3-32.5
		c1.6-2.7,3-4.8,4.4-6.5c3-4.7,6-9.7,8.8-14.6c8.5-14.5,17.3-29.5,28.3-36.9c7.6-5.1,13.4-6.9,17.4-5.4c0,0-0.1-0.1-0.1-0.1l0,0
		c-1.8-2.6-4.1-3.9-7.1-4C430.1,41,417.5,50.4,406,65.3z"/>
	<path class="st1" d="M448.5,57.2c-1.9-1.5-4.2-2.2-6.8-1.9c-9,0.9-21.6,12.5-32,29.5c-4.4,7.2-7.6,9.6-10.6,11.9
		c-3.2,2.4-6.4,4.9-11.3,13.1c-5.4,9.1-12.1,16.3-21.4,22.6c2.3-1.1,4.5-2.2,6.7-3.4c2-1.1,3.9-2.2,5.7-3.2
		c11.2-6.6,20.9-14.7,28-25.8C418.5,81.4,432.5,62.5,448.5,57.2z"/>
	<path class="st1" d="M469.8,67.7c-10.4,1-21.9,10.2-34.2,27.2c-3.8,5.3-6.6,10.7-9.2,15.9c-3.1,6.1-6.2,12.1-10.6,17.5
		c3.2-2.9,6.6-6.4,10-10.5c1.6-1.9,3.2-3.8,4.7-5.5l0,0c0,0,0.1-0.1,0.1-0.1c0.8-1,1.6-1.9,2.4-2.8c3.2-3.8,6.3-8,9.3-12
		c8.3-11.2,16.1-21.8,26.5-25c6.7-2.1,12.5-1.5,16.9,0.4C480.6,68.9,475.3,67.2,469.8,67.7z"/>
	<path class="st1" d="M408.1,100.9c-4.3,6.8-9.5,12.4-15.4,17.2c11.4-6.4,20-12.3,28.9-24.5c6.3-8.6,15-20.4,24.5-27.9
		c6.3-5,12.2-7.5,17.8-7.7c-2.1-0.5-4.3-0.8-6.4-0.8c-0.1,0-0.2,0-0.3,0C438.1,57.6,421.7,79.5,408.1,100.9z"/>
	<path class="st1" d="M469.1,74.1c-9.3,2.9-16.6,12.1-24.1,22.3c13.6-13.7,23.1-19.3,32-19.5c6.3-0.1,12.6,2.7,19.5,8.9
		c-1.6-2.2-3.1-4.2-4.6-6.2l0,0C488.3,75,480.1,70.7,469.1,74.1z"/>
	<path class="st1" d="M503.5,125.3c-2.1,1.9-4.1,3.7-6,5.2c-3.8,3-3.7,5.2-3.5,7.9c0.2,2.9,0.4,6.1-5.1,9.5
		c-4.1,2.6-4.4,4.6-4.4,5.2c0,0.6,0.3,1.1,0.9,1.4c1.6,0.9,5,0.6,9-2.2c3.8-2.6,8.1-4.9,12.2-7c6.4-3.3,12.4-6.5,16.6-10.9l0.5-0.5
		c4.7-5,7.8-8.2,11.7-8.5c-4.3-2.6-8.5-5.6-12.8-9.1C517.4,112.7,510.3,119.1,503.5,125.3z"/>
	<path class="st1" d="M541.1,171.5c-2.1,2.7-4.3,5.4-6.5,8c1-0.6,2-1,3-1.5c3.9-1.8,7.6-3.5,13.6-11.3c7.5-9.6,18-15.7,27.6-15.7
		c0.1,0,0.1,0,0.2,0c2.1,0,4.1,0.3,6.1,0.9c-0.4-0.3-0.8-0.6-1.1-0.9C566.7,139.4,554.8,154.3,541.1,171.5z"/>
	<path class="st1" d="M574.9,145.4c-13.2-6.3-25.4-4.5-41.1,22.6c-6.9,12-18.8,18.1-31.4,24.6c-7.2,3.7-14.4,7.5-21.3,12.5
		c4.7-2.1,9.8-3.3,15-4.6c9.8-2.4,19.9-4.9,29.1-13.4c1.2-1.3,2.3-2.4,3.3-3.4c3.9-4.2,7.6-8.9,11.3-13.4
		C550.9,156.5,561.6,143.2,574.9,145.4z"/>
	<path class="st1" d="M317.5,98.5c3.6-4.2,8-6.4,12.9-8.2c9-4.1,14.9-12,20.2-19.1c1.3-1.7,2.5-3.4,3.8-4.9
		c3.4-4.3,5.1-8.4,6.6-12.3c0.3-0.8,0.6-1.5,0.9-2.3c-0.2,0.2-0.3,0.4-0.5,0.7c-8.3,11.3-13.1,14.2-18.6,17.5
		c-4.7,2.8-9.9,6-18.4,15.3c-7,7.7-13.1,14.1-18.9,20.3c-5.8,6.2-11.5,12.2-17.6,19c3.7-3.2,7.3-6.1,10.7-8.9
		C306.2,109.4,312.8,104,317.5,98.5z"/>
	<path class="st1" d="M241.3,181.1c10.1-10.9,19.6-16.9,28.8-22.7c11.4-7.2,22.1-14,32.1-29.3c7.7-11.7,17.9-18,28.8-24.7
		c15.3-9.4,31.1-19.1,42.7-44.9c4.1-9.1,8.1-16.8,12-23c-5.2-1.1-11,9.3-17.6,21.2c-3,5.3-6,10.8-9.4,16.1
		c-7.1,11-16.2,14.1-24.2,16.9c-1.2,0.4-2.4,0.8-3.6,1.3c-1,0.5-2,0.9-3.1,1.2c-3.5,1.5-6.6,3.4-9.2,6.5c-4.8,5.6-11.4,11-19.1,17.3
		c-7.5,6.1-16,13-23.9,21.3c-11.2,12.4-22.7,19.9-37.1,29.2c-7.4,4.8-15.8,10.2-25.2,17.1c-9.5,6.9-20.4,10.4-32.1,10.4
		c-3.7,0-7.5-0.4-11.4-1.1c-6.7-1.3-13.7-3.7-20.1-6.9c0,0,0,0,0.1,0.1C175.3,206.1,220,203.9,241.3,181.1z"/>
	<path class="st1" d="M275.1,185.3l0.7-0.8c18.3-20.3,28.4-31.5,44.8-38.1c15.6-6.3,35.1-14.2,48.8-28.4
		c7.6-7.8,13.4-18.1,19.6-28.9c4.8-8.5,9.8-17.2,15.7-24.9c9.4-12.2,23.1-25,33.4-24.7c1.4,0,2.7,0.3,3.9,0.9
		c-5.5-8.1-10.6-14.1-15.6-18l0,0c-7.7-5.7-17.8,2.2-23.1,7.3c-2.4,2.3-4.7,3.3-6.6,3.3c-1.3,0-2.4-0.5-3.2-1.3
		c-0.5-0.5-0.9-1.3-1-2.1c-5.6,7.1-11.3,17.2-17.3,30.5c-11.9,26.3-28.6,36.6-43.4,45.7c-10.7,6.6-20.8,12.8-28.3,24.2
		c-10.3,15.6-21.1,22.5-32.6,29.8c-9.1,5.8-18.5,11.7-28.5,22.4c-11.1,11.9-28.9,18.9-48.8,19.3c-0.6,0-1.1,0-1.7,0
		c-12.9,0-25-2.9-35.1-8.1c25.8,22.9,45.9,31.8,64.8,28.9C239.8,219.7,255.7,206.2,275.1,185.3z"/>
	<path class="st1" d="M477,78.7c-10.8,0.2-22.9,9-42.9,31.9c-0.8,1-1.7,1.9-2.5,2.9c-1.5,1.8-3.1,3.6-4.7,5.6
		c-9.3,11.1-17.9,17.6-26.3,21.8c-0.2,0.1-0.4,0.2-0.5,0.3l0,0c-7.4,3.7-14.6,5.7-22.1,7.8c-8.5,2.4-17.7,4.9-28.1,10.3
		c5.1-1.2,9.5-1.1,13.8-1c6.7,0.2,13.1,0.4,21.9-4.2c6.4-3.3,12.1-4.9,17.7-6.4c11.5-3.1,22.3-6,36.9-23.3c1.2-1.4,2.3-2.8,3.5-4.1
		c10.3-12.2,20-23.7,30-29.5c9.2-5.2,17.6-5.1,26,0.5C491.3,82.5,484.2,78.5,477,78.7z"/>
	<path class="st1" d="M399.4,139.7L399.4,139.7c14.5-7.9,19.9-18.5,25.5-29.6c2.7-5.3,5.5-10.8,9.4-16.2
		c12.6-17.4,24.5-26.8,35.3-27.9c4-0.4,7.8,0.3,11.5,2.1c-2-1.8-4.1-3.4-6.1-4.8l0,0c-19.5-13-39.2,13.7-52.2,31.4
		c-11,15-21.3,20.5-36.8,28.9c-2.1,1.1-4.2,2.3-6.4,3.5c-2,1.2-3.9,2.3-6,3.4c0,0,0,0,0,0l0,0c-9.1,4.8-18.8,8.9-28.9,13.2
		c-23.5,9.9-47.7,20.1-66.6,40.6c-15.2,16.6-28.3,28.8-41.8,35.2c35.8-7.7,60-20.1,85.8-43c5.2-4.6,10.1-8.4,14.8-11.6l0,0
		c0.1-0.1,0.2-0.1,0.3-0.2c15.7-10.7,28.7-14.3,40.4-17.6C385.2,145.2,392.2,143.2,399.4,139.7z"/>
	<path class="st0" d="M611,181.5c-4.7-9.2-9.7-16.2-15.1-22l0,0c-1.3-1.6-2.7-3-4.2-4.1c-4.8-4.4-9.9-8-15.1-11l0,0c0,0,0,0,0,0
		c-6-3.5-12.1-6.3-18.4-9.2c-5.6-2.6-11.2-5.1-16.8-8.2l0,0c0,0-0.1,0-0.1,0c-5.7-3.1-11.5-6.8-17.2-11.4l0,0
		c-0.2-0.2-0.5-0.4-0.7-0.6c-7.6-6.3-15.2-14.5-22.6-25.6c-15.1-22.7-29.3-33.7-43.5-33.7c-0.1,0-0.2,0-0.3,0
		c-1.3,0-2.5,0.1-3.8,0.3c-1.3-2.4-2.6-4.7-3.9-6.9h0c0,0,0,0,0,0c-13.9-23.6-25.9-34.4-37.5-33.9c-6,0.3-12,3.6-18,10.3l0,0
		c0,0,0,0,0,0c-1.9,2.1-3.8,4.5-5.7,7.2c-5.2-3.3-10.6-2.5-20.7,9.1l0,0c-0.1,0.1-0.2,0.2-0.3,0.3c-2.2,2.5-4.6,5.6-7.2,9.2
		c-8.1,11-12.8,13.8-18.2,17.1c-4.7,2.9-10.1,6.1-18.7,15.6c-7,7.7-13,14.1-18.9,20.3c-9.1,9.7-17.8,18.9-28.5,31.2
		c-0.5,0.5-0.9,1-1.4,1.5c-0.9,0.9-1.7,1.8-2.6,2.8l0,0c-10.3,10.6-21,17.6-34.2,26.1c-7.4,4.8-15.8,10.2-25.3,17.1
		c-25.6,18.6-55,7.8-70.6-2.7c-12.3-9.6-23.7-15-34.8-16.4c-22.7-5-36.6-1.1-57,15.8c-5.2,4.3-10.7,9.2-16.6,14.5
		c-4.1,3.7-12,10.1-16.6,13.7c0,0-5.8,4.9-4.7,4.7c1.8-0.4,6.9-4.3,6.9-4.3c4.2-3.2,10.2-8.1,15.4-12.8c5.8-5.2,11.3-10.2,16.5-14.4
		c16.5-13.6,28.6-18.6,44.8-17.2c-3.2,0.4-6.4,1.1-9.6,2.1c-19.5,6.2-37.8,23.7-61,45.7c-5.6,5.3-11.4,10.9-17.6,16.6
		c-5,4.6-9.9,8.4-14.6,11.5c5.1-2.2,10.4-5.3,15.7-10.2c6.2-5.7,12-11.2,17.6-16.6c30.7-29.2,53.3-50.6,80.2-47.5
		c0.2,0,0.3,0.1,0.5,0.1l0,0c9.1,1.2,18.7,5.2,29.3,12.7l0,0c1.5,1.2,3.1,2.4,4.8,3.6c0.8,0.6,1.7,1.3,2.5,2
		c1.7,1.6,3.5,3.2,5.4,4.6c0.8,0.7,1.6,1.4,2.4,2.2c28.4,26.3,50.2,36.6,70.6,33.5c0.3,0,0.5-0.1,0.7-0.1l0,0
		c44.1-7.6,71.3-20.1,100.5-46c5.3-4.7,10.2-8.5,14.9-11.7c10.7-6.8,18-6.5,25.6-6.3c6.6,0.2,13.5,0.4,22.6-4.3
		c6.2-3.2,11.9-4.8,17.4-6.3c11.7-3.2,22.7-6.2,37.7-23.8c1.2-1.4,2.3-2.8,3.5-4.1c10.2-12.1,19.8-23.5,29.6-29.1
		c10.7-6.1,20.4-4.4,30.3,5.3c4.8,6.3,9.7,11.5,14.6,15.9c-5.3,0-11.4,5.5-16.9,10.5c-2.1,1.9-4.1,3.7-5.9,5.1
		c-4.5,3.5-4.3,6.6-4.2,9.4c0.2,2.7,0.3,5-4.3,7.9c-3.4,2.1-5.2,4.5-5.2,6.7c0,1.2,0.6,2.3,1.7,2.9c0.8,0.4,1.7,0.7,2.8,0.7
		c2.3,0,5.1-1,7.8-2.9c3.7-2.6,7.9-4.8,12-6.9c6.2-3.2,12.6-6.6,17-11.2l0.5-0.5c6.6-7,9.4-9.9,15.9-6.7c5.7,3.1,11.4,5.8,17.1,8.4
		c3,1.4,6,2.8,9,4.2c-4.4-0.7-8.4,0-12.4,1.8c-7.3,3.5-14.2,11.2-21.8,24.3c-6.7,11.5-18.4,17.6-30.7,24
		c-10.3,5.4-21.6,11.2-31.2,21c-0.8,0.8-1.6,1.6-2.3,2.5l0,0c-3.2,3.6-6.2,7.7-8.8,12.5c-9.6,17.4-25.6,22.9-44.2,29.2
		c-19.9,6.8-42.4,14.4-65.2,37.8c-2,2-4,4-5.9,5.9h2.4c1.5-1.5,3.1-3,4.6-4.6c22.6-23.1,44.9-30.7,64.6-37.4
		c18.9-6.4,35.2-12,45.1-30c2.6-4.7,5.5-8.7,8.6-12.3l0,0c7.5-8.7,17-11.1,27.1-13.6c10.7-2.6,21.8-5.3,31.8-15.7
		c0.5-0.5,0.9-1,1.3-1.4c3.3-3,5.9-4.2,8.5-5.4c3.9-1.8,7.9-3.6,14.2-11.8c7.2-9.3,17.3-15,26.3-15.1c4.5,0,8.5,1.3,12,4
		c6.8,6.2,13.2,14.4,18.9,25.6c8.3,16.2,16.4,26.2,25.3,32.5v-2.2C626.6,206.5,618.8,196.8,611,181.5z M491.9,79.7L491.9,79.7
		c1.5,1.9,3.1,4,4.6,6.1c-7-6.2-13.2-9-19.5-8.9c-8.9,0.2-18.4,5.8-32,19.5c7.5-10.2,14.8-19.4,24.1-22.3
		C480.1,70.7,488.3,75,491.9,79.7z M468.7,72.5c-10.4,3.2-18.2,13.8-26.5,25c-3,4-6,8.2-9.3,12c-0.8,0.9-1.6,1.8-2.4,2.8
		c0,0-0.1,0.1-0.1,0.1l0,0c-1.5,1.8-3.1,3.6-4.7,5.5c-3.5,4.1-6.8,7.6-10,10.5c4.5-5.5,7.5-11.4,10.6-17.5
		c2.7-5.2,5.5-10.7,9.2-15.9c12.3-17,23.8-26.2,34.2-27.2c5.5-0.5,10.8,1.2,15.8,5.2C481.1,71,475.4,70.4,468.7,72.5z M457.1,57.4
		c0.1,0,0.2,0,0.3,0c2.1,0,4.3,0.3,6.4,0.8c-5.6,0.1-11.5,2.7-17.8,7.7c-9.5,7.5-18.1,19.3-24.5,27.9c-9,12.2-17.5,18.1-28.9,24.5
		c5.9-4.9,11.1-10.5,15.4-17.2C421.7,79.5,438.1,57.6,457.1,57.4z M378.8,125.8c-1.8,1-3.7,2.1-5.7,3.2c-2.2,1.2-4.4,2.3-6.7,3.4
		c9.2-6.3,15.9-13.5,21.4-22.6c4.9-8.2,8.2-10.7,11.3-13.1c3.1-2.3,6.2-4.7,10.6-11.9c10.4-17,23-28.6,32-29.5
		c2.7-0.3,4.9,0.4,6.8,1.9c-16.1,5.4-30,24.3-41.8,42.8C399.7,111.1,390,119.1,378.8,125.8z M448.1,50L448.1,50
		c1.2,2,2.4,4.1,3.6,6.3c-0.4,0.1-0.8,0.2-1.3,0.3c-2.4-2.4-5.3-3.4-8.8-3.1c-9.6,1-22.3,12.6-33.2,30.3c-4.3,6.9-7.2,9.1-10.2,11.5
		c-0.7,0.5-1.4,1.1-2.1,1.6c1.7-2.8,3.3-5.5,4.9-8.3c8.4-14.4,17.1-29.2,27.8-36.4C443.6,42.3,447,48.1,448.1,50z M445.2,45.2
		L445.2,45.2c0,0,0.1,0.1,0.1,0.1c-4-1.5-9.7,0.3-17.4,5.4c-11,7.4-19.8,22.4-28.3,36.9c-2.9,4.9-5.8,10-8.8,14.6
		c-1.3,1.7-2.8,3.8-4.4,6.5c-8.5,14.3-20.2,23.7-40.3,32.5c-0.6,0.3-1.3,0.5-1.9,0.8c-18.1,7.6-36.7,15.5-53,28.1
		c10.3-10.8,18.7-17.6,30-22.2c15.8-6.4,35.4-14.3,49.4-28.8c7.7-8,13.6-18.3,19.8-29.3c4.8-8.4,9.7-17.1,15.6-24.7
		c11.5-14.9,24.1-24.3,32.1-24.1C441,41.3,443.4,42.7,445.2,45.2z M395.1,26.6c5.7-6.3,11.2-9.4,16.9-9.7c2.8-0.1,5.6,0.5,8.5,1.8
		c-6.9-0.1-14,5.6-18.3,9.8c-3.2,3.2-6.4,3.4-7.6,2.1C393.7,29.7,393.9,28.1,395.1,26.6L395.1,26.6z M368.5,43.4
		c10.3-12.1,14.9-11.7,18.9-9.3c-0.2,0.3-0.4,0.6-0.5,0.8c-6.5-2.4-12.5,8.3-20,21.8c-2.9,5.3-6,10.7-9.4,16
		c-5.7,8.9-12.6,12.3-19.5,14.9c5.6-4.4,9.9-10.1,13.9-15.3c1.3-1.7,2.5-3.4,3.7-4.9c3.6-4.5,5.3-8.7,6.9-12.8
		C364,50.8,365.4,47.1,368.5,43.4z M305.5,105.5c5.8-6.2,11.8-12.6,18.9-20.3c8.5-9.3,13.7-12.5,18.4-15.3
		c5.5-3.4,10.3-6.3,18.6-17.5c0.2-0.2,0.3-0.4,0.5-0.7c-0.3,0.8-0.6,1.5-0.9,2.3c-1.6,3.9-3.2,8-6.6,12.3c-1.3,1.6-2.5,3.2-3.8,4.9
		c-5.3,7.1-11.3,15-20.2,19.1c-4.8,1.8-9.3,3.9-12.9,8.2c-4.7,5.5-11.2,10.9-18.8,17.1c-3.4,2.8-7,5.7-10.7,8.9
		C294,117.7,299.7,111.7,305.5,105.5z M149.8,187C149.7,187,149.7,187,149.8,187c6.4,3.2,13.3,5.6,20,6.8c3.9,0.7,7.7,1.1,11.4,1.1
		c11.7,0,22.6-3.5,32.1-10.4c9.4-6.8,17.8-12.3,25.2-17.1c14.4-9.3,25.9-16.8,37.1-29.2c7.9-8.3,16.4-15.2,23.9-21.3
		c7.7-6.3,14.3-11.6,19.1-17.3c2.6-3.1,5.7-5,9.2-6.5c1.1-0.4,2.1-0.8,3.1-1.2c1.2-0.4,2.4-0.9,3.6-1.3c8-2.8,17.1-5.9,24.2-16.9
		c3.4-5.3,6.5-10.8,9.4-16.1c6.7-12,12.5-22.4,17.6-21.2c-3.9,6.2-7.9,13.9-12,23C362.1,85.3,346.3,95,331,104.4
		c-10.9,6.7-21.1,13-28.8,24.7c-10.1,15.3-20.8,22.1-32.1,29.3c-9.2,5.8-18.6,11.8-28.8,22.7C220,203.9,175.3,206.1,149.8,187z
		 M221.7,222.4c-18.9,2.9-39-6.1-64.8-28.9c10.1,5.3,22.2,8.1,35.1,8.1c0.6,0,1.1,0,1.7,0c19.9-0.4,37.7-7.4,48.8-19.3
		c10-10.7,19.4-16.7,28.5-22.4c11.5-7.3,22.4-14.2,32.6-29.8c7.5-11.4,17.6-17.6,28.3-24.2c14.8-9.1,31.5-19.4,43.4-45.7
		c6-13.3,11.7-23.4,17.3-30.5c0.1,0.8,0.5,1.6,1,2.1c0.8,0.8,1.9,1.3,3.2,1.3c1.9,0,4.3-1,6.6-3.3c5.3-5.2,15.4-13,23.1-7.3l0,0
		c5,3.9,10.1,9.8,15.6,18c-1.2-0.5-2.5-0.8-3.9-0.9c-10.3-0.3-24,12.5-33.4,24.7c-5.9,7.7-10.9,16.4-15.7,24.9
		c-6.2,10.9-12,21.1-19.6,28.9c-13.8,14.2-33.2,22.1-48.8,28.4c-16.4,6.6-26.5,17.8-44.8,38.1l-0.7,0.8
		C255.7,206.2,239.8,219.7,221.7,222.4z M337.2,164.8c-0.1,0.1-0.2,0.1-0.3,0.2l0,0c-4.7,3.2-9.6,7-14.8,11.6
		c-25.7,22.9-50,35.2-85.8,43c13.6-6.4,26.6-18.6,41.8-35.2c18.8-20.5,43.1-30.8,66.6-40.6c10-4.2,19.8-8.3,28.9-13.2l0,0
		c0,0,0,0,0,0c2-1.1,4-2.2,6-3.4c2.2-1.2,4.3-2.4,6.4-3.5c15.5-8.4,25.7-14,36.8-28.9c13-17.7,32.7-44.4,52.2-31.4l0,0
		c2,1.4,4,2.9,6.1,4.8c-3.7-1.8-7.6-2.5-11.5-2.1c-10.9,1.1-22.7,10.5-35.3,27.9c-3.9,5.4-6.7,10.9-9.4,16.2
		c-5.7,11.2-11.1,21.7-25.6,29.6l0,0c-7.1,3.5-14.2,5.5-21.8,7.6C365.9,150.5,352.9,154.2,337.2,164.8z M473.7,90.8
		c-10,5.7-19.7,17.3-30,29.5c-1.2,1.4-2.3,2.8-3.5,4.1c-14.6,17.2-25.4,20.2-36.9,23.3c-5.6,1.5-11.4,3.1-17.7,6.4
		c-8.7,4.5-15.1,4.4-21.9,4.2c-4.3-0.1-8.8-0.2-13.8,1c10.4-5.3,19.6-7.9,28.1-10.3c7.4-2.1,14.7-4.1,22.1-7.8l0,0
		c0.2-0.1,0.4-0.2,0.5-0.3c8.4-4.3,16.9-10.7,26.3-21.8c1.6-1.9,3.2-3.8,4.7-5.6c0.8-0.9,1.7-1.9,2.5-2.9
		c20-22.9,32.1-31.7,42.9-31.9c7.2-0.1,14.3,3.8,22.7,12.7C491.3,85.7,482.9,85.5,473.7,90.8z M523.6,133.9l-0.5,0.5
		c-4.2,4.4-10.2,7.6-16.6,10.9c-4.2,2.2-8.5,4.4-12.2,7c-4,2.8-7.4,3.1-9,2.2c-0.6-0.3-0.9-0.8-0.9-1.4c0-0.6,0.3-2.6,4.4-5.2
		c5.5-3.4,5.3-6.7,5.1-9.5c-0.2-2.6-0.3-4.9,3.5-7.9c1.9-1.5,3.9-3.3,6-5.2c6.9-6.2,13.9-12.6,19.1-9c4.3,3.5,8.5,6.5,12.8,9.1
		C531.4,125.7,528.3,129,523.6,133.9z M528.6,183.8c-1,0.9-2.1,2-3.3,3.4c-9.2,8.5-19.3,11-29.1,13.4c-5.2,1.3-10.3,2.5-15,4.6
		c6.8-5,14.1-8.8,21.3-12.5c12.6-6.5,24.4-12.7,31.4-24.6c15.7-27.1,27.9-28.9,41.1-22.6c-13.4-2.2-24,11-35.1,24.9
		C536.2,174.9,532.5,179.6,528.6,183.8z M578.9,151c-0.1,0-0.1,0-0.2,0c-9.5,0.1-20.1,6.1-27.6,15.7c-6.1,7.9-9.7,9.5-13.6,11.3
		c-1,0.4-2,0.9-3,1.5c2.2-2.7,4.4-5.4,6.5-8c13.7-17.2,25.6-32,42.7-20.5c0.4,0.3,0.8,0.6,1.1,0.9C583,151.3,581,151,578.9,151z"/>
</g>
</svg>
