<svg xmlns="http://www.w3.org/2000/svg" viewBox="0 0 607.5 300" fill="#69A6C2" stroke="#69A6C2" stroke-width="11.232" stroke-miterlimit="10"><g transform="scale(.1)"><path d="M1261 348c-3 2-7 4-10 6-6 6-13 12-19 18c1-1 3-2 4-3c8-7 17-14 25-21m510-6c216 117 339 356 298 581-42 228-233 402-463 424-250 23-486-128-573-369-51-139-44-277 19-377c63-100 168-165 269-228l14-9c1-1 0-2 0-3h-2c-94 53-200 117-271 212-11 15-21 30-29 46-24 57-38 118-41 179c0 40 5 77 12 109c50 229 235 406 460 442c237 36 463-78 564-284c105-209 57-457-121-632-157-152-388-193-589-112-10 6-20 12-30 19c153-73 337-78 483 2m104-24c-186-121-422-113-585 5c8-4 16-7 24-10c141-84 324-98 479-28c198 91 342 300 359 521c21 279-219 474-431 557-161 61-290 65-395 11-95-49-186-133-249-230-70-106-102-227-96-345c0-58 10-122 42-183c19-45 45-89 77-128c28-34 60-65 95-91c5-6 10-12 16-18-191 132-281 383-214 605c66 220 283 449 519 435c224-14 516-167 615-399c86-202 13-528-256-702M987 805c3-65 17-129 43-189-31 58-44 123-43 189m215-393c12-14 25-27 39-39-14 9-27 18-40 27l-4 4c-4 6 1 11 5 8m-2-12c13-10 27-19 40-27c24-21 49-40 76-56-23 9-46 21-68 33-16 15-33 32-48 50m51-46c3-2 7-4 10-6-9 7-17 14-25 21-1 1-3 2-4 3c6-6 13-12 19-18m627-41c-193-125-459-116-629 37c22-13 45-24 68-33c141-83 322-96 473-27c199 91 340 300 356 517c20 265-197 462-427 552-124 47-267 75-391 11-99-51-186-135-247-228-67-102-99-220-95-336-1-66 12-130 43-189c19-44 44-86 76-125c28-34 60-64 95-90c15-18 31-35 49-50-6 4-13 7-19 11-207 127-309 387-238 622c66 219 281 453 524 438c237-15 522-175 619-402c108-251-38-565-257-708m253 707c-99 232-390 385-615 399-236 14-453-215-519-435-67-222 23-473 215-606-5 6-11 12-16 18-35 26-67 56-95 91-32 40-58 83-77 128-32 61-42 125-42 183-6 118 26 239 96 345c63 97 153 181 249 230c105 54 234 51 395-11c212-82 452-278 431-557-17-221-161-430-359-521-155-70-338-56-479 28-8 3-16 7-24 10c164-119 400-126 585-5c268 175 341 501 255 703m-363-674c203 110 338 343 296 575-42 226-228 398-458 420-252 24-482-130-568-365-44-121-51-261 18-373c66-104 179-172 281-236c7-4 0-16-7-11-100 57-203 121-272 214-11 14-20 29-28 45-26 60-40 124-43 189c1 35 5 70 12 104c49 225 234 409 464 446c230 35 466-75 570-287c110-219 49-469-122-637-161-156-392-195-593-114-27 16-53 35-76 56c156-96 361-115 526-26m139 88c178 175 226 422 121 632-101 206-328 320-564 284-225-36-410-213-460-442-7-32-12-69-12-109c3-62 17-122 41-179c8-16 18-31 29-46c71-95 177-159 271-212h2c1 1 1 2 0 3l-14 9c-101 63-205 128-269 228-63 100-69 238-19 377c88 241 324 392 573 369c230-22 421-196 463-424c41-225-82-464-298-581-146-79-329-74-482-1c10-7 20-13 30-19c200-82 431-42 588 111m-835 2530c-55 0-99-2-103-2l1-22c2 0 163 8 256-7c40-7 88-29 134-50c65-30 126-58 175-52c77 10 300-10 380-79c26-23 47-46 68-70c44-50 94-107 209-168c83-44 171-86 241-120c69-33 124-60 137-69c15-11 52-29 108-57c54-26 120-59 200-101c157-84 299-373 300-376l20 10c-6 12-146 298-310 386-80 42-149 77-200 102-53 26-91 45-104 55-15 11-67 37-140 72-70 34-157 76-240 119-111 59-158 112-202 163-22 25-43 49-70 73-89 76-322 94-398 84-43-6-104 23-163 50-48 22-97 45-140 52-47 5-108 7-159 7"/><path d="M6110 1815c-47-92-97-162-151-220-13-16-27-30-42-41-48-44-99-80-151-110-60-35-121-63-184-92-56-26-112-51-168-82h-1c-57-31-115-68-172-114-2-2-5-4-7-6-76-63-152-145-226-256-151-227-293-337-435-337h-3c-13 0-25 1-38 3-13-24-26-47-39-69-139-236-259-344-375-339-60 3-120 36-180 103-19 21-38 45-57 72-52-33-106-25-207 91l-3 3c-22 25-46 56-72 92-81 110-128 138-182 171-47 29-101 61-187 156-70 77-130 141-189 203-91 97-178 189-285 312-5 5-9 10-14 15-9 9-17 18-26 28-103 106-210 176-342 261-74 48-158 102-253 171-256 186-550 78-706-27-123-96-237-150-348-164-227-50-366-11-570 158-52 43-107 92-166 145-41 37-120 101-166 137c0 0-58 49-47 47c18-4 69-43 69-43c42-32 102-81 154-128c58-52 113-102 165-144c165-136 286-186 448-172-32 4-64 11-96 21-195 62-378 237-610 457-56 53-114 109-176 166-50 46-99 84-146 115c51-22 104-53 157-102c62-57 120-112 176-166c307-292 533-506 802-475c2 0 3 1 5 1c91 12 187 52 293 127c15 12 31 24 48 36c8 6 17 13 25 20c17 16 35 32 54 46c8 7 16 14 24 22c284 263 502 366 706 335c3 0 5-1 7-1c441-76 713-201 1005-460c53-47 102-85 149-117c107-68 180-65 256-63c66 2 135 4 226-43c62-32 119-48 174-63c117-32 227-62 377-238c12-14 23-28 35-41c102-121 198-235 296-291c107-61 204-44 303 53c48 63 97 115 146 159-53 0-114 55-169 105-21 19-41 37-59 51-45 35-43 66-42 94c2 27 3 50-43 79-34 21-52 45-52 67c0 12 6 23 17 29c8 4 17 7 28 7c23 0 51-10 78-29c37-26 79-48 120-69c62-32 126-66 170-112l5-5c66-70 94-99 159-67c57 31 114 58 171 84l90 42c-44-7-84 0-124 18-73 35-142 112-218 243-67 115-184 176-307 240-103 54-216 112-312 210-8 8-16 16-23 25-32 36-62 77-88 125-96 174-256 229-442 292-199 68-424 144-652 378l-59 59h24c15-15 31-30 46-46c226-231 449-307 646-374c189-64 352-120 451-300c26-47 55-87 86-123c75-87 170-111 271-136c107-26 218-53 318-157c5-5 9-10 13-14c33-30 59-42 85-54c39-18 79-36 142-118c72-93 173-150 263-151c45 0 85 13 120 40c68 62 132 144 189 256c83 162 164 262 253 325v-22c-79-64-157-161-235-314M4919 797c15 19 31 40 46 61-70-62-132-90-195-89-89 2-184 58-320 195c75-102 148-194 241-223c110-34 192 9 228 56m-232-72c-104 32-182 138-265 250-30 40-60 82-93 120-8 9-16 18-24 28l-1 1c-15 18-31 36-47 55-35 41-68 76-100 105c45-55 75-114 106-175c27-52 55-107 92-159c123-170 238-262 342-272c55-5 108 12 158 52-44-20-101-26-168-5m-116-151h3c21 0 43 3 64 8-56 1-115 27-178 77-95 75-181 193-245 279-90 122-175 181-289 245c59-49 111-105 154-172c137-216 301-435 491-437m-783 684c-18 10-37 21-57 32-22 12-44 23-67 34c92-63 159-135 214-226c49-82 82-107 113-131c31-23 62-47 106-119c104-170 230-286 320-295c27-3 49 4 68 19-161 54-300 243-418 428-70 111-167 191-279 258m693-758c12 20 24 41 36 63-4 1-8 2-13 3-24-24-53-34-88-31-96 10-223 126-332 303-43 69-72 91-102 115-7 5-14 11-21 16c17-28 33-55 49-83c84-144 171-292 278-364c148-99 182-41 193-22m-29-48l1 1c-40-15-97 3-174 54-110 74-198 224-283 369-29 49-58 100-88 146-13 17-28 38-44 65-85 143-202 237-403 325-6 3-13 5-19 8-181 76-367 155-530 281c103-108 187-176 300-222c158-64 354-143 494-288c77-80 136-183 198-293c48-84 97-171 156-247c115-149 241-243 321-241c29 3 53 17 71 42m-501-186c57-63 112-94 169-97c28-1 56 5 85 18-69-1-140 56-183 98-32 32-64 34-76 21-9-9-7-25 5-40m-266 168c103-121 149-117 189-93-2 3-4 6-5 8-65-24-125 83-200 218-29 53-60 107-94 160-57 89-126 123-195 149c56-44 99-101 139-153c13-17 25-34 37-49c36-45 53-87 69-128c15-38 29-75 60-112m-630 621c58-62 118-126 189-203c85-93 137-125 184-153c55-34 103-63 186-175c2-2 3-4 5-7-3 8-6 15-9 23-16 39-32 80-66 123-13 16-25 32-38 49-53 71-113 150-202 191-48 18-93 39-129 82-47 55-112 109-188 171-34 28-70 57-107 89c60-68 117-128 175-190m-1557 815c64 32 133 56 200 68c39 7 77 11 114 11c117 0 226-35 321-104c94-68 178-123 252-171c144-93 259-168 371-292c79-83 164-152 239-213c77-63 143-116 191-173c26-31 57-50 92-65c11-4 21-8 31-12c12-4 24-9 36-13c80-28 171-59 242-169c34-53 65-108 94-161c67-120 125-224 176-212-39 62-79 139-120 230-116 259-274 356-427 450-109 67-211 130-288 247-101 153-208 221-321 293-92 58-186 118-288 227-213 228-660 250-915 59m719 354c-189 29-390-61-648-289c101 53 222 81 351 81h17c199-4 377-74 488-193c100-107 194-167 285-224c115-73 224-142 326-298c75-114 176-176 283-242c148-91 315-194 434-457c60-133 117-234 173-305c1 8 5 16 10 21c8 8 19 13 32 13c19 0 43-10 66-33c53-52 154-130 231-73c50 39 101 98 156 180-12-5-25-8-39-9-103-3-240 125-334 247-59 77-109 164-157 249-62 109-120 211-196 289-138 142-332 221-488 284-164 66-265 178-448 381l-7 8c-195 208-354 343-535 370m1155-576c-1 1-2 1-3 2-47 32-96 70-148 116-257 229-500 352-858 430c136-64 266-186 418-352c188-205 431-308 666-406c100-42 198-83 289-132c20-11 40-22 60-34c22-12 43-24 64-35c155-84 257-140 368-289c130-177 327-444 522-314c20 14 40 29 61 48-37-18-76-25-115-21-109 11-227 105-353 279-39 54-67 109-94 162-57 112-111 217-256 296-71 35-142 55-218 76-116 31-246 68-403 174m1365-740c-100 57-197 173-300 295-12 14-23 28-35 41-146 172-254 202-369 233-56 15-114 31-177 64-87 45-151 44-219 42-43-1-88-2-138 10c104-53 196-79 281-103c74-21 147-41 221-78c2-1 4-2 5-3c84-43 169-107 263-218c16-19 32-38 47-56c8-9 17-19 25-29c200-229 321-317 429-319c72-1 143 38 227 127-84-57-168-59-260-6m499 431l-5 5c-42 44-102 76-166 109-42 22-85 44-122 70-40 28-74 31-90 22-6-3-9-8-9-14c0-6 3-26 44-52c55-34 53-67 51-95-2-26-3-49 35-79c19-15 39-33 60-52c69-62 139-126 191-90c43 35 85 65 128 91-39 3-70 36-117 85m50 499c-10 9-21 20-33 34-92 85-193 110-291 134-52 13-103 25-150 46c68-50 141-88 213-125c126-65 244-127 314-246c157-271 279-289 411-226-134-22-240 110-351 249-37 45-74 92-113 134m503-328h-2c-95 1-201 61-276 157-61 79-97 95-136 113-10 4-20 9-30 15c22-27 44-54 65-80c137-172 256-320 427-205c4 3 8 6 11 9-18-6-38-9-59-9"/></g></svg>
