<svg xmlns="http://www.w3.org/2000/svg" viewBox="0 0 1200 400"><defs><path id="lettern" d="m0 0h8v7h1a13 13 0 0 1 13-8a15 15 0 0 1 16 17v29h-9v-27c0-7-3-11-10-11a10 10 0 0 0-11 11v26h-9"/><path id="letterp" d="m0 0c0 28-15 46-38 46a31 31 0 0 1-28-16v45h-19v-121h18v15a32 32 0 0 1 29-16c23 0 38 19 38 47m-19 0c0-18-9-30-24-30-14 0-24 12-24 30c0 18 10 30 24 30c15 0 24-12 24-30"/><path id="lettero" d="m0 0a21 23 0 1 1 42 0a21 23 0 1 1-42 0m33 0c0-10-4-15-12-15-8 0-12 6-12 15c0 10 4 16 12 16c8 0 12-6 12-16"/></defs><path d="M1101 0h-1026a132 132 0 0 0-20 2a67 67 0 0 0-19 6a64 64 0 0 0-16 12a63 63 0 0 0-12 16a66 66 0 0 0-6 19a130 130 0 0 0-2 20v250a130 130 0 0 0 2 20a66 66 0 0 0 6 19a62 62 0 0 0 12 16a63 63 0 0 0 16 12a67 67 0 0 0 19 6a135 135 0 0 0 20 2h1046a133 133 0 0 0 20-2a68 68 0 0 0 19-6a63 63 0 0 0 16-12a64 64 0 0 0 12-16a66 66 0 0 0 6-19a135 135 0 0 0 2-20v-250a135 135 0 0 0-2-20a66 66 0 0 0-6-19a65 65 0 0 0-28-28a68 68 0 0 0-19-6a130 130 0 0 0-20-2h-20"/><path fill="#fff" d="M84 391h-9a127 127 0 0 1-19-2a59 59 0 0 1-17-5a54 54 0 0 1-14-10a53 53 0 0 1-10-14a57 57 0 0 1-5-17a124 124 0 0 1-2-19v-240s1-6 1-9a124 124 0 0 1 2-19a58 58 0 0 1 5-17a54 54 0 0 1 10-13a56 56 0 0 1 14-10a58 58 0 0 1 17-5a126 126 0 0 1 18-2h1046a124 124 0 0 1 19 2a59 59 0 0 1 17 5a56 56 0 0 1 24 24a58 58 0 0 1 5 16a130 130 0 0 1 2 19v250a127 127 0 0 1-2 19a57 57 0 0 1-5 17a55 55 0 0 1-10 14a54 54 0 0 1-14 10a59 59 0 0 1-17 5a125 125 0 0 1-19 2h-20"/><path d="M250 199a51 51 0 0 1 25-43a53 53 0 0 0-42-22c-17-2-34 10-43 10-9 0-23-10-38-10a55 55 0 0 0-47 28c-20 35-5 86 14 114c10 14 21 29 36 29c14-1 20-9 37-9c17 0 22 9 37 9c15 0 25-14 35-28a114 114 0 0 0 16-32a50 50 0 0 1-30-46"/><path d="M222 115a51 51 0 0 0 12-36a52 52 0 0 0-33 17a48 48 0 0 0-12 35a43 43 0 0 0 33-16"/><path d="M423 271h-47l-11 34h-21l45-124h21l45 124h-21zm-42-15h38l-19-55h-1"/><use href="#letterp" x="552" y="260"/><use href="#letterp" x="651" y="260"/><path d="M717 270c1 12 13 20 30 20c16 0 27-8 27-19c0-10-7-15-23-19l-16-4c-23-6-33-16-33-33c0-21 19-36 45-36c26 0 44 15 45 36h-19c-1-12-11-20-26-20s-25 8-25 19c0 9 7 14 23 18l14 3c25 6 36 16 36 34c0 23-18 38-48 38-28 0-46-14-47-37"/><path d="M833 193v21h17v15h-17v50c0 8 3 11 11 11a58 58 0 0 0 6 0v15a51 51 0 0 1-10 1c-18 0-25-7-25-24v-53h-13v-15h13v-21"/><path d="M861 260c0-28 17-46 43-46c26 0 43 18 43 46c0 29-17 46-43 46-27 0-43-18-43-46m67 0c0-20-9-31-24-31s-24 12-24 31c0 20 9 31 24 31s24-12 24-31"/><path d="M962 214h18v15a22 22 0 0 1 22-16a29 29 0 0 1 6 1v17a26 26 0 0 0-8-1a19 19 0 0 0-19 21v54h-19"/><path d="M1094 278c-2 16-19 28-39 28-26 0-43-18-43-46c0-28 16-47 42-47c25 0 41 17 41 45v6h-64v1a24 24 0 0 0 24 26a20 20 0 0 0 21-13zm-63-27h45a22 22 0 0 0-22-23a23 23 0 0 0-23 23"/><path d="M378 87a26 26 0 0 1 28 30c0 19-10 30-28 30h-21v-60zm-12 51h11a19 19 0 0 0 20-21a19 19 0 0 0-20-21h-11"/><use href="#lettero" x="417" y="124"/><path d="M516 147h-9l-9-33h-1l-9 33h-9l-12-45h9l8 34h1l9-34h9l9 34h1l8-34h9"/><use href="#lettern" x="539" y="102"/><path d="M591 84h9v63h-9"/><use href="#lettero" x="612" y="124"/><path d="M664 134c0-8 6-13 17-13l12-1v-4c0-5-3-7-9-7-5 0-8 2-9 5h-9c1-8 8-13 18-13c11 0 18 6 18 15v31h-9v-6h-1a15 15 0 0 1-14 7a14 14 0 0 1-14-14m29-4v-4l-11 1c-6 0-9 3-9 6c0 4 4 6 8 6a11 11 0 0 0 12-9"/><path d="M713 124c0-14 7-23 19-23a15 15 0 0 1 14 8h1v-25h9v63h-9v-7h-1a16 16 0 0 1-14 8c-11 0-19-9-19-24m9 0c0 10 5 15 12 15c7 0 12-6 12-15c0-9-5-15-12-15-7 0-11 6-12 15"/><use href="#lettero" x="792" y="124"/><use href="#lettern" x="847" y="102"/><path d="M935 91v11h10v7h-10v24c0 5 2 7 6 7a30 30 0 0 0 3 0v7a29 29 0 0 1-5 0c-10 0-14-3-14-12v-25h-7v-7h7v-12"/><path d="M957 84h9v25h1a14 14 0 0 1 14-8a15 15 0 0 1 16 17v29h-10v-27c0-7-3-11-10-11a11 11 0 0 0-11 11v26h-9"/><path d="M1048 135a18 18 0 0 1-20 13a20 20 0 0 1-21-23a21 21 0 0 1 21-24c13 0 20 9 20 23v3h-32a12 12 0 0 0 12 13a11 11 0 0 0 11-5zm-31-15h23a11 11 0 0 0-11-12a12 12 0 0 0-13 12"/></svg>