<?xml version="1.0" encoding="utf-8"?>
<svg version="1.1" xmlns="http://www.w3.org/2000/svg" xmlns:xlink="http://www.w3.org/1999/xlink" viewBox="0 0 400 164.2">
  <style type="text/css">
    .temp {display:none}
  </style>

  <rect x="-0.1" y="-0.4" fill="#0D4581" width="400" height="165" />
  <defs>
    <linearGradient id="lgrad1" gradientUnits="userSpaceOnUse" x1="-2812.2393" y1="57.1314" x2="-3163.6699" y2="62.168" gradientTransform="matrix(-1 0 0 1 -2822.3586 0)">
      <stop offset="7.929724e-02" stop-color="#669DC4" />
      <stop offset="1" stop-color="#99BDD8" />
    </linearGradient>
    <linearGradient id="lgrad2" gradientUnits="userSpaceOnUse" x1="-3173.4878" y1="75.8516" x2="-2814.2466" y2="110.2696" gradientTransform="matrix(-1 0 0 1 -2822.3586 0)">
      <stop offset="0" stop-color="#6EA9C4" />
      <stop offset="1" stop-color="#549AB9" />
    </linearGradient>
    <linearGradient id="grad3" gradientUnits="userSpaceOnUse" x1="-3226.2976" y1="70.5953" x2="-2796.4609" y2="91.3029" gradientTransform="matrix(-1 0 0 1 -2822.3586 0)">
      <stop offset="0" stop-color="#6EA9C4" />
      <stop offset="1" stop-color="#549AB9" />
    </linearGradient>
    <linearGradient id="grad4" gradientUnits="userSpaceOnUse" x1="-2815.9858" y1="104.2735" x2="-3217.6809" y2="79.4204" gradientTransform="matrix(-1 0 0 1 -2822.3586 0)">
      <stop offset="0" stop-color="#6F95BF" />
      <stop offset="0.94" stop-color="#3F72A9" />
    </linearGradient>
    <linearGradient id="grad5" gradientUnits="userSpaceOnUse" x1="-3223.0923" y1="100.2871" x2="-2797.1082" y2="80.4148" gradientTransform="matrix(-1 0 0 1 -2822.3586 0)">
      <stop offset="0" stop-color="#004679" />
      <stop offset="1" stop-color="#005B9D" />
    </linearGradient>
    <linearGradient id="grad6" gradientUnits="userSpaceOnUse" x1="-3222.9067" y1="130.8003" x2="-2805.114" y2="91.4141" gradientTransform="matrix(-1 0 0 1 -2822.3586 0)">
      <stop offset="0" stop-color="#0C3E74" />
      <stop offset="1" stop-color="#0F4F94" />
    </linearGradient>
  </defs>
  <g>
    <path
      fill="#E2F3F8"
      d="M402.8 52.8
		c-15.1 3-29.9 3.2-44.1-11c-14.2-14.2-27.8-30.3-43.9-16.4s-23.2 17.4-38.5 14.1c-15.3-3.2-15.6 12.6-28.4 7.2
		c-12.9-5.4-31.5-9-46 7.7s-32.9-2.1-47.2-13.3s-33.6-38.2-53.1-23.8S80.2 49.4 46.4 36.8s-56.5-9.7-64.6 20.3
		c-8.1 30 32.3 76.6 68.7 69.4c36.4-7.3 75.4 4.8 97.1 19.8s51.9 10.1 86.8-6.8s94.2-39.1 157.8-34.4L402.8 52.8z" />

    <path
      fill="url(#lgrad1)"
      d="M414.2 68.1c8.1-4.4 6.3-15-12.6-12.2c-18.9 2.8-28.2 3.3-41.3-9.6c-14.8-14.6-28.9-20.5-41-10.5c-20.2 16.8-34.2 3.7-46.3 12.1
		s-14.9 12.3-26.1 6.3c-5.7-3-17.4-9.7-38.7 6.2s-34.8 3.7-41.9-4.5s-26.2-24.3-57.6-7.7C89 58.6 71.8 49.4 43.4 38.8
		c-48.2-18-67.5 7.6-63.1 38.8C-15.3 108.7 414.2 68.1 414.2 68.1z" />

    <path
      fill="url(#lgrad2)"
      d="M361.5 51.8c-18.7-8.3-26.6-10.5-42.3-1.2c-15.7 9.2-33.3-1.1-48.1 7.8s-24.5-7.7-37.3 0c-12.8 7.7-23 16.4-43.4 2.7
		s-30.4-36.2-65-16.8c-39.2 22-57 14-87.5 7.8s-60.3 5.3-50 35s31 48.2 65.3 38.7s65.6-4 88.8 9.1s55.8 22 92.3 4.6
		s74.3-22.4 118.4-19.7L361.5 51.8z" />
    <path
      fill="#FFFFFF"
      d="M344.6 44.7
		c-0.2 0-0.3-0.1-0.5-0.1c-0.4-0.3-0.9-0.4-1.5-0.4c-0.2 0-0.3 0-0.5 0c-0.2 0-0.3-0.1-0.5-0.1c0.3-0.1 0.6-0.2 1-0.2
		C343.4 44 344.1 44.2 344.6 44.7z" />
    <path
      fill="#FFFFFF"
      d="M371.2 70.6
		c0.6 0 1.1 0.2 1.5 0.4c-0.1 0-0.2 0-0.4 0c-0.3-0.2-0.7-0.3-1.2-0.3c-0.6 0-1.1 0.2-1.5 0.5c-0.1 0-0.2 0-0.4 0
		C369.7 70.9 370.4 70.6 371.2 70.6z" />
    <path
      fill="#E4AAC2"
      d="M58.3 55.7
		c0.1 0 0.2 0 0.3 0.1C58.4 55.7 58.3 55.7 58.3 55.7z" />
    <path
      fill="#E4AAC2"
      d="M62 56.4
		c0.2 0 0.4 0 0.5 0.1C62.3 56.5 62.2 56.4 62 56.4z" />
    <path
      fill="#E4AAC2"
      d="M38.8 51.5
		c-0.1 0-0.3-0.1-0.4-0.1c-0.4-0.4-1-0.6-1.6-0.6c-0.3 0-0.5 0-0.8 0.1c-0.1 0-0.3 0-0.4-0.1c0.4-0.2 0.8-0.2 1.2-0.2
		C37.6 50.7 38.4 51 38.8 51.5z" />

    <path
      fill="url(#grad3)"
      d="
		M408.4 92.7c17.7-6.3 15.9-24.3 4.4-31.4c-11.5-7.1-29.2 4.7-42.4-4.1s-28.2-16.4-45.1-3.1s-42.2 1.9-54.7 8.2
		c-12.5 6.3-20.8 13.2-37.8 14.5c-17 1.3-23 0.6-43.4-14.1S147 35 114.9 53.3S71 65 48.2 59.7C25.4 54.4 11.3 53 4.8 58.9
		c-15.4 14.2-27.3 10.3-33.6 19.6c-8.3 12.3 43.5 29.9 86.5 22s213.6 13.1 259.4 13L408.4 92.7z" />
    <path
      fill="#A867B0"
      d="M257.2 73.5
		c-0.6 0.3-1.3 0.5-1.9 0.8l-0.1-0.2c1.1-0.4 2.2-0.9 3.2-1.3C257.9 73 257.5 73.2 257.2 73.5z" />

    <path
      fill="url(#grad4)"
      d="
		M415.6 100.7c17.7-1.2 14.5-29-36.8-22.6c-33.8 4.2-42.7 9-61.5-1.4c-18.9-10.4-35.3-18.6-63 0s-49.5 2.7-61.3-6.1
		c-11.8-8.8-26.5-18.4-40.5-11.2c-14 7.3-20.1-10.2-31.6-4.1S99.2 72.3 69.6 69.1S-3.9 58.1-11.7 79.4s-23.9 65.9 62.2 47
		c44.4-9.8 71.6-6.8 90.2 1.3s32.4 9.5 47.1 3.4c14.7-6.1 19.1 6.5 37.5-1c18.4-7.5 66.9-10.6 108.9-7.3S415.6 100.7 415.6 100.7z" />

    <path
      fill="url(#grad5)"
      d="
		M406.8 113.6c26.5-2.9 16.9-26.3-7.7-26s-51.5 10.5-68 0s-27.2-15.2-36-8.2c-8.8 7.1-24.3 1.6-33.1-7.5s-20.2-13.4-37.5-0.2
		s-30.2 24.2-59.2 10.6S103 59.7 84.3 68c-18.8 8.2-25.7 0.9-41.6 9.4S23.9 74.7-4 76.2c-28 1.5-47.8 37.4 30.2 35.6
		S406.8 113.6 406.8 113.6z" />

    <path
      fill="url(#grad6)"
      d="
		M394.2 100.1c49.9-3.6 38.3 42.8-13.7 33s-72.6 0-103-9.4s-69.1 5.8-112.3-3.2s-97.6-5.5-150.6 7.5s-45.1-25.5-3.4-27.9
		s38.3-25.5 69.1-18.8c30.9 6.7 67.2 6.3 85.3-5.1s27 1.2 50 13.7s49 21.6 65.7 7.8c16.7-13.7 38.3 12.4 54.4 5.4
		C352 96.2 378 101.3 394.2 100.1z" />
    <path
      fill="#549AB9"
      d="M124.4 47.9
		c2.6-3.2 4.9-6 8.4-7.3c0 0 0 0 0.1 0c0 0 0.1 0 0.1 0c3.1-1.2 7.3-1.2 13.6 0.5c0 0 0 0 0 0c0.3 0.1 0.6 0.2 1 0.3
		c2.4 0.7 5.1 1.6 8.2 2.8c0.8 0.3 1.5 0.6 2.3 0.9c0 0 0 0 0 0c0 0 0 0 0.1 0c13.8 5.3 23.7 7.9 30.9 7.9c3.8 0 6.9-0.6 9.6-1.9
		c2.5-1.3 4.6-3.2 6.4-5.8c0.1-0.1 0-0.2-0.1-0.2c-0.1-0.1-0.2 0-0.3 0c-3.7 3.6-7.6 5.5-11.7 5.8c0 0 0 0 0 0
		c-1.9 0.1-3.7-0.1-5.5-0.5c-3.2-0.9-6-2.6-8-4.1c-2.5-1.9-6.2-2.1-10.4-2.3c-3.4-0.2-7.1-0.3-10.9-1.5c0 0 0 0 0 0c0 0 0 0 0 0
		c-1.6-0.5-3.2-1.2-4.8-2.1c-2.4-1.4-4.4-2.6-6.2-3.6c-0.4-0.2-0.7-0.4-1-0.6c0 0 0 0 0 0c0 0 0 0 0 0c-5-2.9-8.6-5-13.8-10.4
		c-3.6-3.6-7.5-5.3-11-4.6c-0.4 0.1-0.7 0.2-1.1 0.3c-2.3-2.1-4.7-3-7-2.7c-2.5 0.3-4.6 2-6.5 4.3c-1.3-1.2-2.5-1.7-3.7-1.5
		c-2.7 0.4-4.5 4.2-6.4 8.3c-0.8 1.7-1.6 3.5-2.5 4.9c-3.4 5.5-6.6 9.2-10.9 14.4l-0.6 0.7c-3.7 3.8-10.1 5.7-17.4 6.8
		c-1.1 0.1-2.3 0.2-3.4 0.3c-2.8 0.2-5.6 0.5-8.3 0.8c0 0 0 0 0 0c0 0 0 0 0 0c-4.1 0.5-8 1.2-11.4 2.4C36.7 62 30 61.8 23 61.6
		c-11.4-0.4-24.3-0.8-36 7.3c-0.1 0.1-0.1 0.2 0 0.3c0.1 0.1 0.2 0.1 0.3 0c11.6-8.1 24.4-7.6 35.7-7.2c7.1 0.2 13.8 0.5 19.4-1.5
		c3.3-1.2 7.2-1.8 11.3-2.3c4-0.2 8-0.6 11.8-1.1c4.2-0.4 8.5-0.9 12.2-1.7c5.3-1.2 8.9-3.1 11.2-5.8c0 0 0 0 0-0.1
		c3-2.8 7.1-4.3 11.1-5.8c3-1.1 5.8-2.1 7.8-3.6c1.2-0.8 2.4-1.5 3.5-2.1c1.5-0.7 2.9-1.1 4-1.5c2.5-0.7 4.5-1.3 6.5-4.5
		c0.2-0.3 0.3-0.5 0.5-0.8c0 0 0 0 0 0c1.5-2.2 4.1-3.8 6.7-4.1c2.1-0.2 4.1 0.4 5.8 1.7c0 0 0 0 0 0c0.9 0.8 1.8 1.6 2.6 2.2
		c-1.1-0.5-2-0.6-3-0.5c-1.7 0.3-3.3 1.9-5.2 5.2c-1.9 3.2-5.7 5.3-9.7 7.4c-4 2.2-8.2 4.5-10.8 8.1c-4.5 6.4-13.4 9.5-20.2 9.9
		c-4.7 0.1-9.7 0.8-15.8 3.8c-18.4 8.9-37.8 6.7-51.9 5.1c-0.7-0.1-1.3-0.1-2-0.2c-7.1-0.8-13.3-1.5-19-1.2
		c-6.2 0.3-11.7 1.7-17.2 4.5c-0.1 0.1-0.1 0.2-0.1 0.3c0 0.1 0.1 0.1 0.2 0.1c0 0 0.1 0 0.1 0c11.8-6 21.4-4.9 35.9-3.2
		c0.6 0.1 1.3 0.1 2 0.2c8.3 0.9 16.5 1.8 25.2 1.3c10.2-0.5 19-2.6 27.1-6.5c5.4-2.6 10-3.5 14.3-3.7c0 0 0 0 0 0c0 0 0 0 0 0
		c0.4 0 0.8 0 1.2 0c2 0 4 0 5.9 0.1c6.7 0.3 13 0.6 20.7-4.8C119.3 54 122 50.7 124.4 47.9z M121.4 21.6c1.4-0.3 2.9-0.1 4.5 0.4
		c-0.5 0-1.1 0-1.6 0.2c-2.1 0.5-4 2.1-5.1 4.2c-1.5 2.9-3.3 5.8-8.8 8.9c2-1.6 3.5-3.5 4.1-5.9C115.6 25.1 118.1 22.3 121.4 21.6z
		 M106.5 23.4c-1.9 2.3-3.4 5.2-4.8 7.9c-1.2 2.3-3.2 4.4-5.5 6.4c1.4-1.7 2.6-3.8 3.4-6.6c0.6-2 2.4-8.2 4.6-8.8
		c0.5-0.1 0.9 0 1.4 0.4c0 0 0 0 0 0C105.9 22.9 106.2 23.2 106.5 23.4z M94.7 35c0.9-1.4 1.7-3.2 2.5-5c1.8-3.8 3.6-7.7 6-8.1
		c0.3 0 0.7 0 1 0.1c0 0 0 0 0 0c-1.7 0.4-3.3 3.3-5 9.1c-1.4 4.7-3.7 7.2-7.5 10.3c0 0 0 0 0 0c-1.4 1.1-2.7 2.2-4 3.3
		C90.2 41.6 92.4 38.6 94.7 35z M70.3 56.2c6-1.3 11-3.5 13.8-7.2c2.3-2.9 5.5-5.4 8.6-7.9c4-3.1 7.7-6 9.5-9.6
		c1.3-2.7 2.9-5.6 4.8-7.9c0 0 0 0 0 0c1.8-2.3 3.9-4 6.3-4.3c2.1-0.3 4.3 0.6 6.5 2.5c-2.8 1.1-4.8 3.9-5.8 7.7
		c-0.8 3.2-3.2 5.4-6.4 7.3c0 0 0 0 0 0c0 0 0 0 0 0c-1.7 1-3.5 2-5.5 3c-4.7 2.4-10 5.1-13.7 9.5c-0.4 0.4-0.8 0.8-1.2 1.3
		C83.4 53.9 77.3 55.3 70.3 56.2z M107.4 39.7c-2 1.4-4.8 2.5-7.7 3.5c-3.1 1.2-6.3 2.4-9 4.1c3.4-3.2 7.8-5.4 11.7-7.4
		c1.9-1 3.8-1.9 5.5-3c0 0 0 0 0 0c7.8-3.7 10-7 11.8-10.5c1-2 2.8-3.5 4.8-4c1.2-0.3 2.3-0.2 3.3 0.3c0.5 0.3 1.1 0.6 1.6 1
		c-1-0.4-1.9-0.5-2.8-0.4c-2.3 0.4-4.3 2.4-5.9 6c-1.7 4-4.8 5.6-8.3 7.4C110.7 37.7 109.1 38.6 107.4 39.7z M121.4 31.8
		c-1.9 3.1-3.8 3.6-6.2 4.3c-0.3 0.1-0.6 0.2-1 0.3c2.8-1.5 5.4-3.3 6.9-6.8c1.5-3.5 3.4-5.5 5.5-5.8c1.5-0.2 3.2 0.4 4.9 1.9
		c-1-0.5-1.9-0.6-2.9-0.5C125.6 25.5 123.3 28.7 121.4 31.8z M129 26.7c-1.7 0.2-3.4 0.9-4.9 2c1.3-1.6 2.9-2.9 4.7-3.1
		c1.4-0.2 2.9 0.4 4.5 1.7c0 0 0 0 0 0c0 0 0.1 0.1 0.1 0.1C132 26.8 130.5 26.5 129 26.7z M203.2 46.8c-3.4 4.1-7.9 5.9-14.3 5.8
		c-6.4-0.1-15-2.1-26.6-6.3c2.6 0.5 5 0.5 7.6 0.5c1.2 0 2.4 0 3.6 0c2.3 0.1 4.8 1 7.4 1.9c2 0.7 4.1 1.5 6.4 2
		c1.6 0.4 3.3 0.7 5.1 0.6C196.2 51.1 199.8 49.6 203.2 46.8z M179.1 46.5c1.1 0.9 2.5 1.8 4 2.6c-0.7-0.2-1.3-0.5-2-0.7
		c-2.7-1-5.2-1.9-7.6-2c-1.3 0-2.5 0-3.6 0c-3.8 0-7.4 0-11.7-1.6c-0.8-0.3-1.5-0.6-2.3-0.9c-1.9-0.8-3.8-1.4-5.5-2
		c0.6 0.1 1.2 0.1 1.8 0.2c1.7 0.1 3.5 0.3 5.7 0.9c3.8 1.2 7.6 1.4 11 1.5C173.1 44.5 176.6 44.7 179.1 46.5z M153.1 40.7
		c0.8 0.5 1.6 0.9 2.4 1.3c-1.1-0.2-2.2-0.3-3.2-0.3c-1.5-0.1-3-0.2-4.6-0.6c-5.5-1.6-9.6-2-13-1.4c0.6-0.3 1.2-0.7 1.9-1
		c3.3-1.9 6.5-3.7 9.3-2.1c0.3 0.2 0.7 0.4 1 0.6C148.7 38.1 150.8 39.3 153.1 40.7z M94.5 61.4c-0.9 0-1.9-0.1-2.8-0.1
		c2.4-0.4 4.8-1.1 7-2c4.5-1.8 8.1-4.5 10.5-7.8c2.5-3.6 6.7-5.8 10.7-8c4.1-2.2 7.9-4.3 9.8-7.6c1.8-3.1 3.3-4.7 4.9-5
		c1.5-0.3 3 0.5 5.3 1.9c0 0 0 0 0 0c1.4 1 2.8 1.8 4.4 2.7c-2.6-0.3-5.3 1.2-7.9 2.7c-1.2 0.7-2.5 1.4-3.7 1.9c0 0 0 0 0 0
		c-3.6 1.4-6 4.2-8.6 7.4c-2.3 2.9-5 6.1-9.1 9C107.3 61.9 101.1 61.7 94.5 61.4z" />
    <path
      fill="#87B8CE"
      d="M273.2 135
		c0-0.1-0.2-0.2-0.3-0.1c-3.5 0.9-15.9 3-29.5-5.7c-6.6-4.3-13.4-4.7-19.5-5.1c-5.4-0.4-10.5-0.7-14.7-3.7c-5-3.5-8.6-5-12-5.1
		c-1.6 0-3.2 0.2-4.7 0.8c-0.3-0.2-0.6-0.4-0.8-0.6c-0.1-0.1-0.2-0.1-0.3-0.2c-0.3-0.2-0.6-0.3-1-0.5c-0.4-0.2-0.8-0.4-1.2-0.4
		c-0.5-0.1-1.1-0.2-1.7-0.2c-3.6 0.1-7 3-10.2 5.8c-0.6 0.5-1.2 1-1.7 1.5c-1.4 1.2-2.8 2-4.1 2.5c0 0 0 0 0 0
		c-3.2 1.1-6.5 1.4-9.6 1.7c-3.7 0.4-7.3 0.7-10.8 2.2c-3 1.3-6.9 1.1-11.1 0.9c-4.6-0.2-9.4-0.5-12.8 1.5c-3.5 2-7.3 1.9-11 1.8
		c-3-0.1-5.8-0.1-8.5 0.8c-4.3 1.6-4.1 2.9-3.8 3.4c0.3 0.6 1.3 1 2.4 1c0.5 0 1.1-0.1 1.6-0.3c8.8-1.9 14.9-0.5 21.3 1.1
		c4.4 1 9 2.1 14.6 2.1c1.9 0 3.7 0 5.4 0.1c1.5 0 2.9 0.1 4.2 0.1c5.8 0 10.3-0.5 15.2-3.3c0 0 0.1 0 0.1 0c0 0 0 0 0.1 0
		c0.2-0.1 0.4-0.2 0.5-0.3c2.1-1.1 5.7-1.4 9.4-1.7c5-0.4 10.6-0.9 13.9-3.5c0.3-0.2 0.6-0.4 0.9-0.6c0 0 0 0 0 0
		c0.5-0.3 1-0.6 1.5-0.9c2.1-1 4.3-1.5 6.4-1.8c0 0 0 0 0 0c0 0 0 0 0 0c0.5-0.1 1-0.1 1.4-0.2c2.6-0.4 4.9-0.7 6.2-2
		c2.8-2.8 3.8-3 6.4-2.5c0 0 0 0 0 0c2.7 0.6 5.5 0.8 8.4 1c6.2 0.4 12.7 0.9 19.2 5c5.5 3.5 11.4 5.7 17.6 6.4
		c5.8 0.7 10.2-0.1 12.3-0.6C273.2 135.2 273.2 135.1 273.2 135z M189.2 114.8c0.3 0.1 0.6 0.1 0.8 0.3c-1.1 0.2-2.3 1-3.7 2.6
		c-2.7 3.1-5 5.6-8.5 6.8c0 0 0 0 0 0c-1.3 0.4-2.8 0.7-4.2 1c2.8-1.1 4.5-2.7 6.3-4.5c0.7-0.7 1.4-1.3 2.2-2
		C185.4 116.1 187.5 114.7 189.2 114.8z M186.7 117.9c1.3-1.6 2.5-2.4 3.5-2.5c0.3 0 0.7 0 1 0.2c0.1 0.1 0.2 0.1 0.3 0.2
		c0 0 0 0 0 0c0 0 0 0 0 0c0.2 0.1 0.4 0.3 0.6 0.5c-1.9 0.8-3.9 2.2-6 4.1c-1.5 1.4-3.3 2.4-5.3 3.1
		C182.9 122.1 184.7 120.2 186.7 117.9z M176 121.8c0.6-0.5 1.2-1 1.7-1.5c3.2-2.8 6.4-5.6 9.9-5.7c0 0 0 0 0.1 0
		c-1.7 0.6-3.6 2.1-5.9 4.1c-0.8 0.7-1.5 1.4-2.2 2c-2.5 2.4-4.6 4.4-9.8 5.4c-2.9 0.5-5.8 1.1-8.5 1.9c2.6-1.2 4.7-1.8 6.6-2.4
		c1.4-0.4 2.6-0.8 3.9-1.3c0 0 0 0 0 0c0 0 0 0 0 0C173.2 123.8 174.5 123 176 121.8z M104.3 136.1c-0.4-0.6 0.4-1.7 3.6-2.9
		c2.5-0.9 5.3-0.8 8.3-0.8c3.8 0.1 7.7 0.2 11.3-1.9c3.3-1.9 8-1.6 12.5-1.4c4 0.2 8.2 0.4 11.3-0.9c3.4-1.5 6.9-1.8 10.6-2.2
		c1.7-0.2 3.5-0.3 5.3-0.6c-2.6 0.8-5.5 1.7-9.3 3.8c-1.8 0.8-3.5 1.7-5 3c-5 4.1-15 3.5-24.7 3c-8.2-0.5-16-0.9-20.5 1.4
		C106.3 137.1 104.7 136.8 104.3 136.1z M149.3 139.8c-1.7 0-3.5-0.1-5.4-0.1c-5.6 0-10.1-1.1-14.5-2.1c-4.3-1-8.4-2-13.2-2
		c-2 0-4.1 0.2-6.4 0.5c4.5-1.4 11.3-1.1 18.5-0.7c9.8 0.5 19.9 1.1 25.1-3.1c4.6-3.8 10.9-4.9 17-6.1c6.2-1.1 12-2.2 16.1-5.8
		c2.2-1.9 4.1-3.3 6.1-4.1c0.1 0 0.1 0 0.2-0.1c0 0 0 0 0 0c4.1-1.6 8.2-0.8 13.5 2.4c-4-1-7.7 1.7-12.5 6.5
		c-2.6 2.6-4.8 2.6-7.4 2.7c-3.3 0-7 0.1-12.5 4.8c-1.6 1.4-3.1 2.5-4.6 3.4c-0.3 0.1-0.5 0.3-0.8 0.5c0 0 0 0 0 0
		C162.5 140.1 157.3 140 149.3 139.8z M192.4 131.1c-3.2 2.4-8.7 2.9-13.6 3.4c-2.9 0.3-5.6 0.5-7.8 1.1c1-0.7 2.1-1.5 3.2-2.5
		c5.4-4.6 9-4.7 12.1-4.7c2.7 0 5-0.1 7.8-2.8c6.3-6.3 10-7.8 13.9-5.6c0.3 0.2 0.6 0.4 1 0.7c0.3 0.2 0.6 0.4 0.9 0.6
		c-1.2 0-2 0.7-3.5 2.3c-0.4 0.4-0.8 0.8-1.2 1.3c-1.6 1.6-3.3 2.2-5.3 2.9c-1.5 0.5-3.1 1.1-5.2 2.1c-0.5 0.2-0.9 0.5-1.4 0.8
		c0 0 0 0 0 0c0 0 0 0 0 0C193 130.7 192.7 130.9 192.4 131.1z M200 127.9c2.1-0.7 3.8-1.3 5.5-3c0.5-0.5 0.9-0.9 1.2-1.3
		c2-2.1 2.5-2.6 4.4-1.8c0 0 0 0 0 0c0.1 0 0.2 0.1 0.2 0.1c-1.3 0.1-2.6 1-3.8 2.5c-1.3 1.7-3.4 2.8-6.3 3.2c0 0 0 0 0 0
		c-0.6 0.1-1.2 0.2-1.9 0.3C199.7 128 199.8 128 200 127.9z M208.7 125.7c-0.9 0.9-2.3 1.3-4 1.6c1.4-0.6 2.5-1.4 3.3-2.5
		c1-1.3 2.7-2.8 4.6-2.2c0 0 0 0 0 0c0.3 0.1 0.6 0.2 0.8 0.3C211.9 122.9 210.7 123.7 208.7 125.7z" />
  </g>
  <rect x="-0.1" y="0" opacity="0.94" fill="#035376" width="400.7" height="165" class="temp" />
  <g fill="none">
    <path
      d="M8.1 109.2c-1.8-0.4-3.7-0.8-6.6-0.2c-0.5 0.1-1 0.2-1.5 0.3v2.5c4.2-0.1 8.1-0.9 12.2-2.1
		C10.6 109.8 9.3 109.5 8.1 109.2z" />
    <path
      d="M25 107.2c-2.6 0.4-5.1 0.7-8.5 1.7c-0.1 0-0.3 0.1-0.4 0.1l0 0c-0.2 0-0.3 0.1-0.4 0.1
		c-5.5 1.7-10.3 2.9-15.6 3v1.7c12.2-0.2 23.1-3.4 35.7-9.1C31.2 106.3 28 106.7 25 107.2z" />
    <path
      d="M337.2 45.2c-3.3 3.4-6.4 4.6-11 6.5c-0.6 0.3-1.3 0.5-1.9 0.8c-0.6 0.3-1.2 0.5-1.8 0.8c0 0 0 0 0 0l0 0
		c-2.7 1.1-5.6 2-8.6 2.9c-7 2.2-14.3 4.5-19.9 9.1c-4.5 3.7-8.4 6.5-12.5 7.9c10.7-1.7 17.9-4.5 25.6-9.6c1.6-1 3-1.9 4.4-2.6l0 0
		c0 0 0.1 0 0.1 0c4.7-2.4 8.6-3.2 12.1-3.9c2.3-0.5 4.4-0.9 6.5-1.7l0 0c4.3-1.8 5.9-4.1 7.6-6.6c0.8-1.2 1.6-2.4 2.8-3.6
		c3.8-3.9 7.3-6 10.6-6.3c1.2-0.1 2.3 0.1 3.4 0.5c-0.6-0.4-1.2-0.8-1.8-1.1l0 0C346.9 35.2 341.1 41.2 337.2 45.2z" />
    <path
      d="M332.4 46.3c3.5-4.2 7.7-8.4 12.5-9.6c-0.6-0.3-1.2-0.5-2-0.4c-2.7 0.2-6.4 2.8-9.6 6.6
		c-1.3 1.6-2.3 2.2-3.2 2.7c-0.9 0.5-1.9 1.1-3.4 2.9c-1.6 2-3.6 3.6-6.4 5.1c0.7-0.2 1.3-0.5 2-0.8c0.6-0.3 1.2-0.5 1.7-0.7
		C327.3 50.6 330.2 48.8 332.4 46.3z" />
    <path
      d="M338.9 35.6c-3.2 1.6-5.8 4.9-8.3 8.2c-0.5 0.6-1 1.2-1.5 1.9c0.2-0.1 0.4-0.2 0.6-0.4c0.9-0.5 1.8-1 3.1-2.6
		c3.2-4 7-6.6 9.9-6.8c1-0.1 1.9 0.2 2.6 0.7c0.1 0 0.2 0 0.4-0.1c-0.4-0.5-0.7-1-1.1-1.4l0 0C344.4 34.7 343.4 33.4 338.9 35.6z" />
    <path
      d="M332.8 46.6c-1.3 1.5-2.8 2.8-4.6 3.9c3.4-1.4 6-2.7 8.6-5.5c1.9-1.9 4.5-4.6 7.3-6.2
		c1.9-1.1 3.6-1.7 5.3-1.7c-0.6-0.1-1.3-0.2-1.9-0.2c0 0-0.1 0-0.1 0C341.7 36.8 336.8 41.8 332.8 46.6z" />
    <path
      d="M310 47.7c-3.2 1.5-6.2 2.9-8.4 5.4c-3.1 3.5-6.3 5-9.7 6.7c-2.7 1.3-5.5 2.6-8.5 5
		c-3.3 2.7-8.6 4.2-14.6 4.3c-0.2 0-0.3 0-0.5 0c-3.9 0-7.5-0.6-10.5-1.8c7.7 5.1 13.7 7.1 19.4 6.5c5.4-0.6 10.2-3.6 16-8.3
		l0.2-0.2c5.5-4.5 8.5-7.1 13.4-8.5c4.7-1.4 10.5-3.2 14.6-6.4c2.3-1.7 4-4 5.8-6.5c1.4-1.9 2.9-3.9 4.7-5.6c2.8-2.7 6.9-5.6 10-5.5
		c0.4 0 0.8 0.1 1.2 0.2c-1.6-1.8-3.2-3.2-4.7-4l0 0c-2.3-1.3-5.3 0.5-6.9 1.6c-0.7 0.5-1.4 0.7-2 0.7c-0.4 0-0.7-0.1-0.9-0.3
		c-0.2-0.1-0.3-0.3-0.3-0.5c-1.7 1.6-3.4 3.9-5.2 6.8C319.4 43.3 314.4 45.6 310 47.7z" />
    <path
      d="M328.7 30.8c0.4 0.3 1.3 0.2 2.3-0.5c1.3-0.9 3.4-2.2 5.5-2.2c-0.9-0.3-1.7-0.4-2.6-0.4
		c-1.7 0.1-3.3 0.8-5 2.2l0 0C328.5 30.2 328.5 30.6 328.7 30.8z" />
    <path
      d="M332.1 38.6c-1.8 1.7-3.2 3.6-4.7 5.5c-1.9 2.5-3.6 4.8-5.9 6.6c-4.2 3.2-10 5-14.8 6.4c-3.4 1-5.9 2.6-9 5
		c4.9-2.8 10.4-4.6 15.8-6.3c0.2-0.1 0.4-0.1 0.6-0.2c6-2 9.5-4.1 12-7.3c0.5-0.6 0.9-1.1 1.3-1.5c0.9-1 1.8-2.2 2.6-3.3
		c2.5-3.3 5.2-6.6 8.5-8.3c2.3-1.2 4-1.6 5.2-1.2c0 0 0 0 0 0l0 0c-0.5-0.6-1.2-0.9-2.1-0.9C339.3 33.1 335.6 35.2 332.1 38.6z" />
    <path
      d="M351 40.5c-2.8 0.6-4.9 2.7-7.2 5c4.1-3.1 6.9-4.3 9.6-4.4c1.9 0 3.8 0.6 5.8 2c-0.5-0.5-0.9-0.9-1.4-1.4l0 0
		C356.7 40.7 354.3 39.8 351 40.5z" />
    <path
      d="M382.6 56.5c-3.9-1.4-7.6-1-12.3 5.1c-2.1 2.7-5.6 4.1-9.4 5.5c-2.1 0.8-4.3 1.7-6.4 2.8
		c1.4-0.5 2.9-0.7 4.5-1c2.9-0.5 6-1.1 8.7-3c0.4-0.3 0.7-0.5 1-0.8c1.2-0.9 2.3-2 3.4-3C375.4 59 378.6 56 382.6 56.5z" />
    <path
      d="M372.5 62.4c-0.6 0.6-1.3 1.2-2 1.8c0.3-0.1 0.6-0.2 0.9-0.3c1.2-0.4 2.3-0.8 4.1-2.5
		c2.2-2.2 5.4-3.5 8.2-3.5c0 0 0 0 0.1 0c0.6 0 1.2 0.1 1.8 0.2c-0.1-0.1-0.2-0.1-0.3-0.2C380.2 55.2 376.6 58.5 372.5 62.4z" />
    <path
      d="M361.3 52c-0.6 0.4-1.2 0.8-1.8 1.2c-1.1 0.7-1.1 1.2-1 1.8c0.1 0.6 0.1 1.4-1.5 2.1c-1.2 0.6-1.3 1-1.3 1.2
		c0 0.1 0.1 0.2 0.3 0.3c0.5 0.2 1.5 0.1 2.7-0.5c1.1-0.6 2.4-1.1 3.7-1.6c1.9-0.7 3.7-1.4 5-2.4l0.1-0.1c1.4-1.1 2.3-1.8 3.5-1.9
		c-1.3-0.6-2.6-1.2-3.8-2C365.4 49.2 363.3 50.6 361.3 52z" />
    <path
      d="M340.5 48.7c-0.2 0.2-0.5 0.4-0.7 0.6c-0.5 0.4-0.9 0.8-1.4 1.2c-2.8 2.5-5.4 3.9-7.8 4.9
		c-0.1 0-0.1 0-0.2 0.1l0 0c-2.2 0.8-4.4 1.3-6.6 1.7c-2.5 0.5-5.3 1.1-8.4 2.3c1.5-0.3 2.8-0.2 4.1-0.2c2 0 3.9 0.1 6.5-0.9
		c1.9-0.7 3.6-1.1 5.3-1.4c3.4-0.7 6.7-1.4 11-5.2c0.4-0.3 0.7-0.6 1-0.9c3.1-2.7 6-5.3 9-6.6c2.7-1.2 5.3-1.1 7.8 0.1
		c-2.5-2-4.6-2.9-6.8-2.8C350.1 41.6 346.5 43.6 340.5 48.7z" />
    <path
      d="M315.9 40.1c-1.2 1.2-2.5 2.5-4.1 3.4c2.1-0.6 4.1-1.3 5.8-3.3c1-1.2 1.9-2.4 2.8-3.6c2.2-3 4-5.4 6-4.9
		c0.1-0.1 0.1-0.1 0.2-0.2c-1.2-0.6-2.5-0.6-5.6 2.1c-0.9 0.8-1.3 1.7-1.8 2.5c-0.5 0.9-1 1.9-2.1 2.9
		C316.7 39.4 316.3 39.8 315.9 40.1z" />
    <path
      d="M341 45.2c-1.1 1.2-2 2.4-2.8 3.6c-0.9 1.4-1.8 2.7-3.2 3.9c1-0.7 2-1.4 3-2.4c0.5-0.4 0.9-0.8 1.4-1.2l0 0
		c0 0 0 0 0 0c0.2-0.2 0.5-0.4 0.7-0.6c1-0.9 1.9-1.8 2.8-2.7c2.5-2.5 4.8-4.9 7.9-5.6c2-0.5 3.7-0.3 5.1 0.1
		c-1.5-0.9-3.1-1.3-4.7-1.2C348.1 39.3 344.6 41.4 341 45.2z" />
    <path
      d="M153.3 89.4c1.1-0.7 2.3-1.3 3.5-2c-3.3 1.1-6.7 2.1-10 3.1c-2 0.6-4 1.2-5.8 1.7c0 0 0 0 0 0l0 0
		c-0.6 0.2-1.2 0.4-1.7 0.6c1.2-0.2 2.3-0.3 3.4-0.4C145.8 92.2 148.9 91.9 153.3 89.4z" />
    <path
      d="M369.9 61.4c2.3-2.9 4.4-4.7 6.5-5.4c1.2-0.4 2.4-0.6 3.7-0.4c-0.9-0.3-1.8-0.6-2.7-0.9
		c-1.7-0.6-3.4-1.2-5.1-1.9c-1.9-0.7-2.8-0.1-4.7 1.5l-0.1 0.1c-1.3 1-3.2 1.8-5.1 2.5c-1.2 0.5-2.5 1-3.6 1.6
		c-0.8 0.4-1.7 0.7-2.3 0.7c-0.3 0-0.6 0-0.8-0.1c-0.3-0.1-0.5-0.4-0.5-0.6c0-0.5 0.5-1 1.6-1.5c1.4-0.6 1.3-1.2 1.3-1.8
		c-0.1-0.6-0.1-1.3 1.2-2.1c0.6-0.3 1.2-0.7 1.8-1.1c1.7-1.1 3.5-2.3 5.1-2.3c-1.5-1-2.9-2.2-4.4-3.6c-3-2.2-5.9-2.6-9.1-1.2
		c-2.9 1.3-5.8 3.8-8.8 6.5c-0.3 0.3-0.7 0.6-1 0.9c-4.5 3.9-7.8 4.6-11.3 5.3c-1.6 0.3-3.4 0.7-5.2 1.4c-2.7 1.1-4.8 1-6.7 1
		c-2.3 0-4.5-0.1-7.7 1.4c-1.4 0.7-2.9 1.6-4.5 2.6c-8.7 5.8-16.9 8.6-30 10.3l0 0c-0.1 0-0.1 0-0.2 0c-6.1 0.7-12.6-1.6-21.1-7.5
		c-0.2-0.2-0.5-0.3-0.7-0.5c-0.6-0.3-1.1-0.7-1.6-1c-0.3-0.2-0.5-0.3-0.7-0.4c-0.5-0.3-1-0.5-1.4-0.8l0 0c-3.2-1.7-6-2.6-8.8-2.8
		l0 0c-0.1 0-0.1 0-0.2 0c-8.1-0.7-14.8 4.1-24 10.6c-1.7 1.2-3.4 2.4-5.3 3.7c-8.2 5.7-15.4 5.9-23 6.2c-8.1 0.3-17.3 0.6-29.3 7.7
		c-0.1 0-0.2 0.1-0.2 0.1c5.4-1.9 10.9-3 16.2-3.2c10.2-0.3 20 2.7 28.9 9c12.6 8.8 23.5 14.7 33.4 18c13.3 4.5 24.4 4 33-1.3
		c2.6-1.6 5-2.9 7.2-4l0 0c5.3-2.9 9.9-4.8 14.4-6.6c6.9-2.8 13.4-5.4 21.4-11.5c6.8-5.2 13.6-6.9 19.5-8.5
		c5.6-1.4 10.4-2.6 13.2-6.5c0.8-1.1 1.7-2 2.6-2.8l0 0c0.2-0.2 0.5-0.4 0.7-0.6c2.9-2.2 6.2-3.5 9.3-4.7
		C364.4 65.3 367.9 64 369.9 61.4z" />
    <path
      d="M342.9 119.7c0.3-0.1 0.7-0.2 1-0.3c0.7-0.2 1.4-0.5 2.1-0.8c3.7-1.6 5.7-1.5 7.7-1.4c1.3 0 2.6 0.1 4.4-0.4
		c1.4-0.4 2.3-0.7 3.1-1.1c0.9-0.4 1.7-0.7 2.7-0.8c-5.5-1.1-11.1-1.8-16.9 1c-5.8 2.7-10 4.3-14 4.3c-0.6 0-1.3 0-1.9-0.1
		C335.1 120.9 339 120.8 342.9 119.7z" />
    <path
      d="M170.6 84.3c5.6-2.2 10-3.4 13.6-4.1c-9.2 0.8-15.6 2.5-20.9 4.6l0 0c-0.4 0.2-0.7 0.3-1.1 0.5c0 0 0 0 0 0
		l0 0c-0.6 0.3-1.2 0.5-1.9 0.8c-2.4 1.1-4.6 2.3-6.8 3.6c-4.5 2.6-7.6 2.9-10.9 3.2c-2.4 0.2-4.9 0.4-8 1.6
		c-3.1 1.2-6.8 1.7-11.1 1.7c-0.6 0-1.3 0-1.9 0c-0.4 0-0.8 0-1.2-0.1c10.1 1.3 21.7 1.1 33-3.5c1.5-0.8 3.1-1.5 4.6-2.1
		c0.9-0.5 1.8-1 2.7-1.5C164.3 86.9 167.6 85.4 170.6 84.3L170.6 84.3z" />
    <path
      d="M358.2 117.1c-1.9 0.5-3.2 0.4-4.6 0.4c-1.9-0.1-3.9-0.1-7.4 1.4c-0.1 0.1-0.2 0.1-0.3 0.1
		c1.6-0.1 3 0.3 4.3 0.6c1.8 0.5 3.7 0.9 6.3 0.3c2-0.5 3.6-1.2 5.2-1.9c2.3-1 4.5-2 7.4-2.2c-0.3 0-0.5-0.1-0.8-0.1l0 0
		c0 0 0 0 0 0c-0.7-0.1-1.5-0.3-2.2-0.4c-2.3-0.3-3.3 0.1-4.7 0.7C360.6 116.3 359.6 116.7 358.2 117.1z" />
    <path
      d="M393 64.8c-1.7-2.5-3.6-4.3-5.7-5.7c-1-0.6-2.3-0.9-3.6-0.9c-2.7 0-5.7 1.3-7.9 3.4c-1.9 1.8-3.1 2.2-4.3 2.6
		c-0.8 0.3-1.5 0.5-2.5 1.2c-0.1 0.1-0.3 0.2-0.4 0.3c-3 2.3-6.3 2.9-9.5 3.5c-3 0.6-5.9 1.1-8.1 3l0 0c-0.9 0.8-1.8 1.7-2.6 2.7
		c-3 4-7.8 5.3-13.5 6.7c-5.9 1.5-12.6 3.2-19.3 8.4c-8 6.1-14.6 8.8-21.5 11.5c-3 1.2-6.1 2.4-9.4 4c3.7-1.3 7-1.8 10.2-1.6
		c6.2 0.4 11.7 3.4 19.4 7.9c7.6 4.4 12.2 7 16.5 7.6c4.1 0.6 8.1-0.5 15.8-4.1c6.7-3.1 13.1-1.8 19.3-0.6c0.1 0 0.1 0 0.2 0
		c0.6 0.1 1.3 0.2 2.2 0.4l0 0c1.1 0.2 2.3 0.4 3.4 0.6c0 0 0.1 0 0.1 0l0 0c5.5 0.7 10.8 0.4 16.4-3.9c4.1-3.2 8.2-5.1 12.2-6V72.1
		C397.9 70.7 395.5 68.4 393 64.8z" />
    <path
      d="M178.5 75.1c-1.1 1.1-3 1.7-5 2.4c-2.4 0.8-4.9 1.6-6.3 3.3c-0.8 1.1-1.6 2.2-2.7 3.1
		c0.7-0.3 1.5-0.5 2.3-0.8c3.3-1.1 6.9-1.9 10.8-2.5l0 0c3.8-0.5 4.7-1.5 5.6-2.6c0.2-0.3 0.5-0.6 0.8-0.9c0.2-0.2 0.4-0.4 0.6-0.6
		c1-1.1 2.3-2.4 4.3-1.9c-0.4-0.4-0.9-0.8-1.3-1.1c-0.4-0.4-0.7-0.7-1.1-1.1c-0.6-0.6-1.3-0.8-2-0.8
		C182.3 71.6 179.8 73.8 178.5 75.1z" />
    <path
      d="M184.9 76.7c-0.2 0.2-0.4 0.4-0.6 0.6c-0.3 0.3-0.5 0.6-0.8 0.9c-0.6 0.7-1.1 1.4-2.4 1.9
		c2.5-0.3 5.1-0.5 7.8-0.7c2.2-0.2 4.1-0.3 5.8-0.4c1.2-0.1 2.4-0.1 3.5-0.2c-3-0.3-5.9-1.6-8.2-3.3l0 0
		C187.5 74 186.2 75.4 184.9 76.7z" />
    <path
      d="M189 79.8L189 79.8C189 79.8 189 79.8 189 79.8c-3.3 0.4-7.3 1.1-12.4 2.8c5-1.1 9.6-1.3 13.8-1.4
		c7.5-0.3 14.6-0.5 22.7-6.1c1.8-1.3 3.6-2.5 5.3-3.7c6.9-4.9 12.4-8.8 18.2-10.2c1-0.2 1.9-0.4 2.9-0.5c-4.8-0.3-8.5 0.8-13.4 3.9
		c-1.5 1-3.2 2.1-4.9 3.2c-4.2 2.8-9 6.1-15.4 9.3c-1.1 0.6-2.2 1-3.2 1.3l0 0c0 0 0 0-0.1 0c-2.6 0.8-4.9 0.9-7.7 1
		C193 79.5 191.2 79.6 189 79.8z" />
    <path
      d="M160.1 85.8c0.8-0.4 1.6-0.7 2.5-1.1c2.2-1.2 3.3-2.7 4.5-4.4c1.3-1.8 2.6-3.6 5.2-5.1
		c1.7-0.9 3.2-2.1 4.6-3.2c2.1-1.7 4-3.2 6-2.8c-1.8-1.3-3.5-2.2-5.2-2.2c-2.3 0-3 0.7-4.4 1.9c-0.8 0.8-1.9 1.8-3.7 3
		c-1.9 1.2-3.4 2.9-5.1 4.8c-2.5 2.8-5 5.6-9 7c-3.1 1.1-5.1 2.7-7.1 4.3c-1.2 1-2.5 2-4.1 2.9c0.7-0.2 1.5-0.4 2.2-0.7
		C151.2 88.8 155.9 87.4 160.1 85.8z" />
    <path
      d="M282.9 64.5c3-2.4 5.9-3.8 8.6-5.1c3.4-1.6 6.6-3.1 9.6-6.6c2.3-2.6 5.4-4 8.6-5.5c4.6-2.1 9.3-4.3 12.8-10.1
		c1.2-2 2.4-3.8 3.6-5.2c-1.5-0.3-3.3 2.1-5.3 4.8c-0.9 1.2-1.8 2.4-2.8 3.6c-2.1 2.5-4.8 3.2-7.2 3.8c-0.4 0.1-0.7 0.2-1.1 0.3
		c-0.3 0.1-0.6 0.2-0.9 0.3c-1 0.3-2 0.8-2.7 1.5c-1.4 1.3-3.4 2.5-5.7 3.9c-2.3 1.4-4.8 2.9-7.1 4.8c-3.3 2.8-6.8 4.4-11.1 6.5
		c-2.2 1.1-4.7 2.3-7.5 3.8c-2.8 1.5-6.1 2.3-9.6 2.3c-1.1 0-2.3-0.1-3.4-0.2c-2-0.3-4.1-0.8-6-1.5c0 0 0 0 0 0
		C263.2 70.1 276.6 69.6 282.9 64.5z" />
    <path
      d="M177.2 72.3c-1.3 1.1-2.9 2.3-4.6 3.3c-2 1.1-3.2 2.4-4.2 3.7c1.4-0.9 3.2-1.5 4.9-2.1
		c1.9-0.6 3.8-1.2 4.8-2.3c1.6-1.7 4.1-3.7 6.3-3.7c0.3 0 0.6 0 0.9 0.1c-0.4-0.4-0.8-0.7-1.2-1.1C181.9 68.5 179.9 70.1 177.2 72.3
		z" />
    <path
      d="M305.7 46c1.1-0.9 2.4-1.4 3.8-1.8c2.7-0.9 4.5-2.7 6-4.3c0.4-0.4 0.8-0.8 1.1-1.1c1-1 1.5-1.9 2-2.8
		c0.1-0.2 0.2-0.3 0.3-0.5c0 0-0.1 0.1-0.1 0.1c-2.5 2.5-3.9 3.2-5.6 3.9c-1.4 0.6-3 1.3-5.5 3.4c-2.1 1.7-3.9 3.2-5.6 4.6
		c-1.7 1.4-3.4 2.7-5.3 4.2c1.1-0.7 2.2-1.4 3.2-2C302.3 48.4 304.3 47.2 305.7 46z" />
  </g>
  <path
    fill="#082C53"
    d="M393.4 64.6c-1.4-2.1-2.9-3.6-4.5-4.9l0 0c-0.4-0.4-0.8-0.7-1.2-0.9c-1.4-1-2.9-1.8-4.5-2.5l0 0c0 0 0 0 0 0
		c-1.8-0.8-3.6-1.4-5.5-2.1c-1.7-0.6-3.3-1.2-5-1.8l0 0c0 0 0 0 0 0c-1.7-0.7-3.4-1.5-5.1-2.6l0 0c-0.1 0-0.1-0.1-0.2-0.1
		c-2.3-1.4-4.5-3.2-6.8-5.7c-4.5-5.1-8.8-7.5-13-7.5c0 0-0.1 0-0.1 0c-0.4 0-0.8 0-1.1 0.1c-0.4-0.5-0.8-1.1-1.2-1.5h0c0 0 0 0 0 0
		c-4.1-5.3-7.7-7.7-11.2-7.6c-1.8 0.1-3.6 0.8-5.4 2.3l0 0c0 0 0 0 0 0c-0.6 0.5-1.1 1-1.7 1.6c-1.6-0.7-3.2-0.6-6.2 2l0 0
		c0 0-0.1 0-0.1 0.1c-0.6 0.6-1.4 1.2-2.2 2.1c-2.4 2.5-3.8 3.1-5.4 3.8c-1.4 0.6-3 1.4-5.6 3.5c-2.1 1.7-3.9 3.2-5.6 4.5
		c-2.7 2.2-5.3 4.2-8.5 7c-0.1 0.1-0.3 0.2-0.4 0.3c-0.3 0.2-0.5 0.4-0.8 0.6l0 0c-3.1 2.4-6.3 3.9-10.2 5.9
		c-2.2 1.1-4.7 2.3-7.6 3.8c-7.6 4.2-16.4 1.7-21.1-0.6c-3.7-2.2-7.1-3.4-10.4-3.7c-6.8-1.1-10.9-0.3-17 3.5c-1.6 1-3.2 2.1-4.9 3.2
		c-4.2 2.8-9 6-15.3 9.3c-1.2 0.6-2.2 1-3.3 1.3c-5.3 1.6-11-1.6-14.3-4.9c-0.4-0.4-0.7-0.7-1.1-1.1l0 0c0 0 0 0 0 0
		c-0.8-0.8-1.6-1.5-2.3-2.1l0 0c0 0 0 0-0.1 0c-2.3-2-4.5-3.3-6.8-3.3c-2.5 0-3.4 0.8-4.7 2.1c-0.8 0.8-1.9 1.8-3.7 3
		c-1.9 1.3-3.5 3-5.1 4.8c-2.4 2.7-5 5.5-8.8 6.9c-3.2 1.1-5.2 2.8-7.2 4.3c-2.1 1.7-4.1 3.3-7.3 4.2c-1.8 0.6-3.5 1.1-5 1.7l0 0
		c-0.5 0.1-0.9 0.3-1.4 0.5c-7.7 2.9-18.8 1.6-26.6-0.6l0 0c-4.2-1.1-7.9-2.3-10.6-3.2c-7.9-2.6-14.7-3.2-22.1-1.9
		c-7.5 1.3-16.2 4.7-28.2 10.8c-2 1-3.9 2-5.8 2.9l0 0c-7.8 3.4-12 4-16.1 4.6c-2.5 0.4-5.2 0.7-8.6 1.8c-0.3 0.1-0.6 0.2-0.9 0.3
		c-3.2 0.9-5.2 0.5-7.2 0.1c-1.9-0.4-3.9-0.8-6.8-0.2c-0.5 0.1-0.9 0.2-1.4 0.3v0.4c0.5-0.1 1-0.2 1.5-0.3c2.9-0.6 4.8-0.2 6.6 0.2
		c1.3 0.3 2.6 0.6 4.2 0.5c-4.2 1.2-8 1.9-12.2 2.1v0.4c5.3-0.2 10.1-1.4 15.6-3c0.1 0 0.3-0.1 0.4-0.1l0 0c0.1 0 0.3-0.1 0.4-0.1
		c3.4-1 5.9-1.4 8.5-1.7c3-0.4 6.1-0.9 10.7-2.4c-12.6 5.7-23.5 8.9-35.7 9.1v0.4c5.5-0.1 10.9-0.8 16.3-2.1
		c7.2-1.8 14.9-4.7 25-9.6c0 0 0 0 0 0c1.9-0.9 3.8-1.9 5.8-2.9C70.3 87.8 81.9 85.7 97 90.7c3.3 1.1 6.9 2.2 10.6 3.2l0 0
		c1.3 0.3 2.5 0.7 3.8 0.9c4.6 1.1 9.4 1.9 14.4 2.2c6.1 0.4 12 0.1 17.4-1c3.5-0.7 7-1.7 10.2-3l0 0c0 0 0 0 0 0
		c1.6-0.7 3.2-1.4 4.7-2.2c12.6-5.2 29.9-7.6 47.4 4.7c12.6 8.8 23.6 14.7 33.5 18.1c13.5 4.5 24.7 4.1 33.5-1.4
		c19.3-12 26.3-8.8 41.5 0c4.7 2.7 8.3 4.8 11.3 6.1l0 0c3.8 1.8 7.4 2.7 11.1 2.7c2.5 0 5-0.4 7.5-1.3c2.4-0.6 4.2-0.2 6 0.3
		c1.2 0.3 2.5 0.6 3.9 0.6c0.8 0 1.7-0.1 2.6-0.3c2-0.5 3.7-1.2 5.3-2c2.9-1.3 5.7-2.5 9.9-2.1l0 0c1.4 0.2 2.8 0.3 4.1 0.3
		c4.2 0 8.4-1 12.7-4.3c4-3.1 7.9-4.9 11.9-5.8V106c-4.1 0.9-8.1 2.8-12.2 6c-5.6 4.3-11 4.7-16.4 3.9l0 0c0 0-0.1 0-0.1 0
		c-1.1-0.2-2.3-0.4-3.4-0.6l0 0c-0.8-0.2-1.6-0.3-2.2-0.4c-0.1 0-0.1 0-0.2 0c-6.2-1.3-12.6-2.6-19.3 0.6
		c-7.7 3.6-11.7 4.7-15.8 4.1c-4.4-0.6-8.9-3.1-16.5-7.6c-7.7-4.5-13.2-7.5-19.4-7.9c-3.2-0.2-6.4 0.3-10.2 1.6
		c3.3-1.6 6.4-2.8 9.4-4c6.9-2.8 13.5-5.4 21.5-11.5c6.7-5.2 13.4-6.9 19.3-8.4c5.6-1.4 10.5-2.7 13.5-6.7c0.8-1.1 1.6-2 2.6-2.7
		l0 0c2.2-2 5.1-2.5 8.1-3c3.2-0.6 6.5-1.2 9.5-3.5c0.1-0.1 0.3-0.2 0.4-0.3c1-0.7 1.8-1 2.5-1.2c1.2-0.4 2.4-0.8 4.3-2.6
		c2.1-2.1 5.2-3.4 7.9-3.4c1.3 0 2.6 0.3 3.6 0.9c2 1.4 3.9 3.2 5.7 5.7c2.5 3.6 4.9 5.9 7.6 7.3v-0.5C398 70.2 395.7 68 393.4 64.6
		z M366.1 115.3c0.7 0.1 1.4 0.3 2.2 0.4c0 0 0 0 0 0l0 0c0.3 0.1 0.5 0.1 0.8 0.1c-2.9 0.2-5.1 1.2-7.4 2.2
		c-1.6 0.7-3.3 1.4-5.2 1.9c-2.6 0.6-4.5 0.2-6.3-0.3c-1.3-0.3-2.7-0.7-4.3-0.6c0.1 0 0.2-0.1 0.3-0.1c3.5-1.5 5.5-1.5 7.4-1.4
		c1.3 0 2.7 0.1 4.6-0.4c1.4-0.4 2.3-0.8 3.2-1.1C362.8 115.4 363.8 114.9 366.1 115.3z M333 120.1c4.1 0 8.2-1.6 14-4.3
		c5.8-2.7 11.4-2 16.9-1c-1 0.1-1.8 0.4-2.7 0.8c-0.8 0.4-1.7 0.7-3.1 1.1c-1.8 0.5-3.1 0.4-4.4 0.4c-2-0.1-4-0.1-7.7 1.4
		c-0.7 0.3-1.4 0.6-2.1 0.8c-0.3 0.1-0.6 0.2-1 0.3c-3.9 1.1-7.8 1.2-11.8 0.2C331.7 120 332.4 120.1 333 120.1z M370.8 52
		c-1.2 0.1-2.1 0.8-3.5 1.9l-0.1 0.1c-1.3 1-3.1 1.7-5 2.4c-1.2 0.5-2.5 1-3.7 1.6c-1.2 0.6-2.2 0.7-2.7 0.5
		c-0.2-0.1-0.3-0.2-0.3-0.3c0-0.1 0.1-0.6 1.3-1.2c1.6-0.8 1.6-1.5 1.5-2.1c0-0.6-0.1-1.1 1-1.8c0.6-0.3 1.2-0.7 1.8-1.2
		c2.1-1.4 4.2-2.8 5.7-2C368.2 50.8 369.5 51.5 370.8 52z M357.8 41.8c0.5 0.4 0.9 0.9 1.4 1.4c-2.1-1.4-3.9-2-5.8-2
		c-2.7 0-5.5 1.3-9.6 4.4c2.2-2.3 4.4-4.3 7.2-5C354.3 39.8 356.7 40.7 357.8 41.8L357.8 41.8z M360.2 44.4c-2.5-1.3-5-1.3-7.8-0.1
		c-3 1.3-5.9 3.9-9 6.6c-0.3 0.3-0.7 0.6-1 0.9c-4.4 3.9-7.6 4.5-11 5.2c-1.7 0.3-3.4 0.7-5.3 1.4c-2.6 1-4.5 1-6.5 0.9
		c-1.3 0-2.6-0.1-4.1 0.2c3.1-1.2 5.8-1.8 8.4-2.3c2.2-0.5 4.4-0.9 6.6-1.7l0 0c0.1 0 0.1 0 0.2-0.1c2.5-1 5.1-2.4 7.8-4.9
		c0.5-0.4 1-0.8 1.4-1.2c0.3-0.2 0.5-0.4 0.7-0.6c6-5.1 9.6-7.1 12.8-7.2C355.5 41.5 357.6 42.4 360.2 44.4z M350.9 40.2
		c-3.1 0.7-5.4 3.1-7.9 5.6c-0.9 0.9-1.8 1.8-2.8 2.7c-0.2 0.2-0.5 0.4-0.7 0.6c0 0 0 0 0 0l0 0c-0.5 0.4-0.9 0.8-1.4 1.2
		c-1 0.9-2 1.7-3 2.4c1.3-1.2 2.2-2.6 3.2-3.9c0.8-1.2 1.6-2.4 2.8-3.6c3.7-3.8 7.1-5.9 10.2-6.1c1.6-0.1 3.2 0.3 4.7 1.2
		C354.6 39.9 352.9 39.7 350.9 40.2z M352.8 38.1L352.8 38.1c0.6 0.3 1.2 0.7 1.8 1.1c-1.1-0.4-2.3-0.6-3.4-0.5
		c-3.2 0.2-6.8 2.3-10.6 6.3c-1.2 1.2-2 2.4-2.8 3.6c-1.7 2.5-3.3 4.9-7.6 6.6l0 0c-2.1 0.8-4.2 1.2-6.5 1.7
		c-3.5 0.7-7.4 1.5-12.1 3.9c0 0-0.1 0-0.1 0l0 0c-1.4 0.7-2.9 1.6-4.4 2.6c-7.7 5.1-14.9 7.9-25.6 9.6c4-1.4 7.9-4.2 12.5-7.9
		c5.6-4.6 12.9-6.9 19.9-9.1c3-0.9 5.9-1.9 8.6-2.9l0 0c0 0 0 0 0 0c0.6-0.2 1.2-0.5 1.8-0.8c0.7-0.3 1.3-0.5 1.9-0.8
		c4.6-1.9 7.7-3.1 11-6.5C341.1 41.2 346.9 35.2 352.8 38.1z M320.3 53.6c2.8-1.4 4.8-3 6.4-5.1c1.5-1.8 2.4-2.4 3.4-2.9
		c0.9-0.5 1.9-1.1 3.2-2.7c3.1-3.8 6.9-6.4 9.6-6.6c0.8-0.1 1.5 0.1 2 0.4c-4.8 1.2-9 5.4-12.5 9.6c-2.1 2.5-5 4.3-8.4 5.8
		c-0.5 0.2-1.1 0.5-1.7 0.7C321.6 53.1 321 53.4 320.3 53.6z M347.4 36.8C347.4 36.8 347.5 36.8 347.4 36.8c0.7 0 1.4 0.1 2 0.2
		c-1.7 0-3.4 0.6-5.3 1.7c-2.8 1.7-5.4 4.3-7.3 6.2c-2.7 2.7-5.2 4-8.6 5.5c1.8-1.1 3.3-2.4 4.6-3.9
		C336.8 41.8 341.7 36.8 347.4 36.8z M344.7 35.1L344.7 35.1c0.4 0.4 0.7 0.9 1.1 1.4c-0.1 0-0.2 0-0.4 0.1
		c-0.7-0.5-1.6-0.8-2.6-0.7c-2.9 0.2-6.7 2.8-9.9 6.8c-1.3 1.6-2.1 2-3.1 2.6c-0.2 0.1-0.4 0.2-0.6 0.4c0.5-0.6 1-1.2 1.5-1.9
		c2.5-3.2 5.1-6.5 8.3-8.2C343.4 33.4 344.4 34.7 344.7 35.1z M343.8 34.1C343.9 34.1 343.9 34.1 343.8 34.1
		c-1.2-0.3-2.9 0.1-5.2 1.3c-3.3 1.7-5.9 5-8.5 8.3c-0.9 1.1-1.7 2.2-2.6 3.3c-0.4 0.4-0.8 0.8-1.3 1.5c-2.5 3.2-6 5.3-12 7.3
		c-0.2 0.1-0.4 0.1-0.6 0.2c-5.4 1.7-11 3.5-15.8 6.3c3.1-2.4 5.6-4 9-5c4.7-1.4 10.6-3.2 14.8-6.4c2.3-1.8 4.1-4.1 5.9-6.6
		c1.4-1.9 2.9-3.8 4.7-5.5c3.4-3.3 7.2-5.5 9.6-5.4C342.6 33.2 343.3 33.5 343.8 34.1L343.8 34.1z M328.9 29.9
		c1.7-1.4 3.4-2.1 5-2.2c0.8 0 1.7 0.1 2.6 0.4c-2.1 0-4.2 1.3-5.5 2.2c-1 0.7-1.9 0.8-2.3 0.5C328.5 30.6 328.5 30.2 328.9 29.9
		L328.9 29.9z M328.1 30.6c0 0.2 0.1 0.4 0.3 0.5c0.2 0.2 0.6 0.3 0.9 0.3c0.6 0 1.3-0.2 2-0.7c1.6-1.2 4.6-2.9 6.9-1.6l0 0
		c1.5 0.9 3 2.2 4.7 4c-0.4-0.1-0.7-0.2-1.2-0.2c-3.1-0.1-7.2 2.8-10 5.5c-1.8 1.7-3.3 3.7-4.7 5.6c-1.8 2.4-3.6 4.7-5.8 6.5
		c-4.1 3.2-9.9 4.9-14.6 6.4c-4.9 1.5-7.9 4-13.4 8.5l-0.2 0.2c-5.8 4.7-10.5 7.7-16 8.3c-5.6 0.6-11.7-1.4-19.4-6.5
		c3 1.2 6.6 1.8 10.5 1.8c0.2 0 0.3 0 0.5 0c5.9-0.1 11.3-1.7 14.6-4.3c3-2.4 5.8-3.7 8.5-5c3.4-1.6 6.7-3.2 9.7-6.7
		c2.2-2.5 5.2-3.9 8.4-5.4c4.4-2 9.4-4.3 13-10.2C324.7 34.4 326.4 32.2 328.1 30.6z M320.9 33.7c3.1-2.7 4.5-2.6 5.6-2.1
		c-0.1 0.1-0.1 0.1-0.2 0.2c-1.9-0.5-3.7 1.9-6 4.9c-0.9 1.2-1.8 2.4-2.8 3.6c-1.7 2-3.8 2.8-5.8 3.3c1.7-1 3-2.3 4.1-3.4
		c0.4-0.4 0.8-0.8 1.1-1.1c1.1-1 1.6-1.9 2.1-2.9C319.6 35.3 320 34.5 320.9 33.7z M302.1 47.6c1.7-1.4 3.5-2.8 5.6-4.6
		c2.5-2.1 4.1-2.8 5.5-3.4c1.7-0.8 3.1-1.4 5.6-3.9c0 0 0.1-0.1 0.1-0.1c-0.1 0.2-0.2 0.3-0.3 0.5c-0.5 0.9-0.9 1.8-2 2.8
		c-0.4 0.3-0.7 0.7-1.1 1.1c-1.6 1.6-3.4 3.4-6 4.3c-1.4 0.4-2.8 0.9-3.8 1.8c-1.4 1.2-3.4 2.4-5.6 3.8c-1 0.6-2.1 1.3-3.2 2
		C298.7 50.3 300.4 49 302.1 47.6z M261.6 67.4c1.2 0.2 2.3 0.2 3.4 0.2c3.5 0 6.8-0.8 9.6-2.3c2.8-1.5 5.3-2.7 7.5-3.8
		c4.3-2.1 7.7-3.8 11.1-6.5c2.4-1.9 4.9-3.4 7.1-4.8c2.3-1.4 4.3-2.6 5.7-3.9c0.8-0.7 1.7-1.1 2.7-1.5c0.3-0.1 0.6-0.2 0.9-0.3
		c0.4-0.1 0.7-0.2 1.1-0.3c2.4-0.6 5.1-1.3 7.2-3.8c1-1.2 1.9-2.4 2.8-3.6c2-2.7 3.7-5 5.3-4.8c-1.2 1.4-2.4 3.1-3.6 5.2
		c-3.5 5.8-8.2 8-12.8 10.1c-3.2 1.5-6.3 2.9-8.6 5.5c-3 3.4-6.2 5-9.6 6.6c-2.7 1.3-5.6 2.7-8.6 5.1c-6.4 5.1-19.7 5.6-27.4 1.3
		c0 0 0 0 0 0C257.5 66.5 259.6 67.1 261.6 67.4z M202.4 78.4C202.4 78.4 202.5 78.4 202.4 78.4L202.4 78.4c1.1-0.3 2.2-0.8 3.3-1.3
		c6.4-3.3 11.2-6.5 15.4-9.3c1.7-1.2 3.4-2.3 4.9-3.2c4.9-3.1 8.6-4.2 13.4-3.9c-1 0.1-1.9 0.2-2.9 0.5c-5.8 1.4-11.3 5.3-18.2 10.2
		c-1.7 1.2-3.4 2.4-5.3 3.7c-8.1 5.6-15.2 5.8-22.7 6.1c-4.2 0.1-8.7 0.3-13.8 1.4c5.1-1.7 9.1-2.4 12.4-2.8c0 0 0 0 0 0l0 0
		c2.1-0.2 4-0.3 5.7-0.4C197.5 79.3 199.9 79.2 202.4 78.4z M190 75.5c2.3 1.7 5.2 3 8.2 3.3c-1.1 0.1-2.3 0.2-3.5 0.2
		c-1.7 0.1-3.6 0.2-5.8 0.4c-2.7 0.2-5.3 0.4-7.8 0.7c1.3-0.5 1.9-1.2 2.4-1.9c0.2-0.3 0.5-0.6 0.8-0.9c0.2-0.2 0.4-0.4 0.6-0.6
		C186.2 75.4 187.5 74 190 75.5L190 75.5z M187.6 73.4c0.4 0.4 0.8 0.8 1.3 1.1c-2-0.5-3.2 0.8-4.3 1.9c-0.2 0.2-0.4 0.4-0.6 0.6
		c-0.3 0.3-0.6 0.6-0.8 0.9c-0.9 1.1-1.7 2.1-5.6 2.6l0 0c-3.9 0.6-7.5 1.5-10.8 2.5c-0.8 0.3-1.6 0.5-2.3 0.8c1.1-0.9 2-2 2.7-3.1
		c1.4-1.8 3.9-2.6 6.3-3.3c2-0.6 3.9-1.3 5-2.4c1.3-1.3 3.8-3.5 6-3.5c0.8 0 1.5 0.3 2 0.8C186.8 72.7 187.2 73.1 187.6 73.4z
		 M185.4 71.3c-0.3-0.1-0.6-0.1-0.9-0.1c-2.3 0-4.7 2-6.3 3.7c-1 1.1-2.9 1.6-4.8 2.3c-1.7 0.6-3.5 1.1-4.9 2.1
		c1-1.3 2.2-2.6 4.2-3.7c1.8-1 3.3-2.2 4.6-3.3c2.7-2.2 4.7-3.8 6.9-2.1C184.5 70.5 184.9 70.9 185.4 71.3z M148.5 87.9
		c1.9-1.6 4-3.2 7.1-4.3c4-1.4 6.5-4.2 9-7c1.6-1.8 3.2-3.5 5.1-4.8c1.8-1.2 2.9-2.2 3.7-3c1.4-1.3 2-1.9 4.4-1.9
		c1.7 0 3.4 0.8 5.2 2.2c-2-0.4-3.9 1.1-6 2.8c-1.3 1.1-2.8 2.3-4.6 3.2c-2.7 1.4-4 3.3-5.2 5.1c-1.2 1.7-2.3 3.3-4.5 4.4
		c-0.9 0.4-1.7 0.7-2.5 1.1c-4.2 1.7-8.9 3.1-13.5 4.4c-0.8 0.2-1.5 0.4-2.2 0.7C145.9 90 147.2 88.9 148.5 87.9z M140.9 92.3
		L140.9 92.3C140.9 92.3 140.9 92.3 140.9 92.3c1.9-0.6 3.8-1.2 5.8-1.8c3.4-1 6.8-2 10-3.1c-1.2 0.7-2.4 1.3-3.5 2
		c-4.4 2.5-7.5 2.8-10.7 3.1c-1.1 0.1-2.2 0.2-3.4 0.4C139.8 92.7 140.3 92.5 140.9 92.3z M158 90.5c-1.5 0.6-3.1 1.3-4.6 2.1
		c-11.3 4.6-22.9 4.8-33 3.5c0.4 0 0.8 0 1.2 0.1c0.7 0 1.3 0 1.9 0c4.3 0 8-0.6 11.1-1.7c3.1-1.2 5.6-1.4 8-1.6
		c3.3-0.3 6.4-0.6 10.9-3.2c2.2-1.3 4.4-2.5 6.8-3.6c0.6-0.3 1.3-0.5 1.9-0.8l0 0c0 0 0 0 0 0c0.4-0.2 0.7-0.3 1.1-0.5l0 0
		c5.3-2.1 11.7-3.8 20.9-4.6c-3.6 0.7-8 2-13.6 4.1l0 0c-3.1 1.1-6.4 2.6-9.9 4.7C159.9 89.5 158.9 90 158 90.5z M350.7 72L350.7 72
		c-1 0.8-1.8 1.7-2.6 2.8c-2.9 3.9-7.7 5.1-13.2 6.5c-5.9 1.5-12.7 3.2-19.5 8.5c-8 6.1-14.5 8.7-21.4 11.5
		c-4.5 1.8-9.1 3.7-14.4 6.6l0 0c-2.2 1.1-4.6 2.4-7.2 4c-8.6 5.3-19.7 5.8-33 1.3c-9.9-3.3-20.8-9.2-33.4-18
		c-8.9-6.3-18.7-9.3-28.9-9c-5.4 0.2-10.8 1.2-16.2 3.2c0.1 0 0.2-0.1 0.2-0.1c12-7.1 21.2-7.5 29.3-7.7c7.6-0.3 14.8-0.5 23-6.2
		c1.8-1.3 3.6-2.5 5.3-3.7c9.2-6.5 15.9-11.3 24-10.6c0.1 0 0.1 0 0.2 0l0 0c2.7 0.3 5.6 1.2 8.8 2.8l0 0c0.5 0.3 0.9 0.5 1.4 0.8
		c0.2 0.1 0.5 0.3 0.7 0.4c0.5 0.4 1 0.7 1.6 1c0.2 0.2 0.5 0.3 0.7 0.5c8.5 5.9 15 8.2 21.1 7.5c0.1 0 0.1 0 0.2 0l0 0
		c13.2-1.7 21.3-4.5 30-10.3c1.6-1 3-1.9 4.5-2.6c3.2-1.5 5.4-1.5 7.7-1.4c2 0 4 0.1 6.7-1c1.9-0.7 3.6-1.1 5.2-1.4
		c3.5-0.7 6.8-1.4 11.3-5.3c0.4-0.3 0.7-0.6 1-0.9c3-2.7 5.9-5.3 8.8-6.5c3.2-1.4 6.1-1 9.1 1.2c1.4 1.4 2.9 2.6 4.4 3.6
		c-1.6 0-3.4 1.2-5.1 2.3c-0.6 0.4-1.2 0.8-1.8 1.1c-1.3 0.8-1.3 1.5-1.2 2.1c0 0.6 0.1 1.1-1.3 1.8c-1 0.5-1.6 1-1.6 1.5
		c0 0.3 0.2 0.5 0.5 0.6c0.2 0.1 0.5 0.1 0.8 0.1c0.7 0 1.5-0.2 2.3-0.7c1.1-0.6 2.4-1.1 3.6-1.6c1.9-0.7 3.8-1.5 5.1-2.5l0.1-0.1
		c2-1.6 2.8-2.2 4.7-1.5c1.7 0.7 3.4 1.3 5.1 1.9c0.9 0.3 1.8 0.6 2.7 0.9c-1.3-0.1-2.5 0-3.7 0.4c-2.2 0.8-4.2 2.5-6.5 5.4
		c-2 2.6-5.5 3.9-9.2 5.4c-3.1 1.2-6.5 2.5-9.3 4.7C351.2 71.6 351 71.8 350.7 72z M368.8 65.1c-0.3 0.2-0.6 0.5-1 0.8
		c-2.7 1.9-5.8 2.5-8.7 3c-1.6 0.3-3.1 0.6-4.5 1c2-1.1 4.2-2 6.4-2.8c3.8-1.5 7.3-2.8 9.4-5.5c4.7-6.1 8.3-6.5 12.3-5.1
		c-4-0.5-7.2 2.5-10.5 5.6C371 63.1 369.9 64.2 368.8 65.1z M383.8 57.8C383.8 57.8 383.8 57.8 383.8 57.8c-2.9 0-6.1 1.4-8.3 3.5
		c-1.8 1.8-2.9 2.1-4.1 2.5c-0.3 0.1-0.6 0.2-0.9 0.3c0.7-0.6 1.3-1.2 2-1.8c4.1-3.9 7.7-7.2 12.8-4.6c0.1 0.1 0.2 0.1 0.3 0.2
		C385 57.8 384.4 57.8 383.8 57.8z" />
</svg>
