<?xml version="1.0" encoding="utf-8"?><svg version="1.1" xmlns="http://www.w3.org/2000/svg" viewBox="0 0 4000 1642">
  <rect y="-4" fill="#0D4581" width="4000" height="1650" />
  <defs>
    <linearGradient id="lgrad1" gradientUnits="userSpaceOnUse" x1="-100" y1="570" x2="3520" y2="620">
      <stop offset="0.08" stop-color="#669DC4" />
      <stop offset="1" stop-color="#99BDD8" />
    </linearGradient>
    <linearGradient id="lgrad2" gradientUnits="userSpaceOnUse" x1="3510" y1="760" x2="-80" y2="1100">
      <stop offset="0" stop-color="#6EA9C4" />
      <stop offset="1" stop-color="#549AB9" />
    </linearGradient>
    <linearGradient id="grad3" gradientUnits="userSpaceOnUse" x1="4040" y1="710" x2="-260" y2="910">
      <stop offset="0" stop-color="#6EA9C4" />
      <stop offset="1" stop-color="#549AB9" />
    </linearGradient>
    <linearGradient id="grad4" gradientUnits="userSpaceOnUse" x1="-60" y1="1040" x2="3960" y2="790">
      <stop offset="0" stop-color="#6F95BF" />
      <stop offset="0.94" stop-color="#3F72A9" />
    </linearGradient>
    <linearGradient id="grad5" gradientUnits="userSpaceOnUse" x1="4010" y1="1000" x2="-250" y2="800">
      <stop offset="0" stop-color="#004679" />
      <stop offset="1" stop-color="#005B9D" />
    </linearGradient>
    <linearGradient id="grad6" gradientUnits="userSpaceOnUse" x1="4010" y1="1310" x2="-170" y2="910">
      <stop offset="0" stop-color="#0C3E74" />
      <stop offset="1" stop-color="#0F4F94" />
    </linearGradient>
  </defs>
  <path fill="#E2F3F8" d="M4028 528c-151 30-299 32-441-110-142-142-278-303-439-164s-232 174-385 141c-153-32-156 126-284 72-129-54-315-90-460 77s-329-21-472-133-336-382-531-238S802 494 464 368s-565-97-646 203c-81 300 323 766 687 694 364-73 754 48 971 198s519 101 868-68 942-391 1578-344z" />
  <path fill="url(#lgrad1)" d="M4142 681c81-44 63-150-126-122-189 28-282 33-413-96-148-146-289-205-410-105-202 168-342 37-463 121s-149 123-261 63c-57-30-174-97-387 62s-348 37-419-45s-262-243-576-77C890 586 718 494 434 388c-482-180-675 76-631 388z" />
  <path fill="url(#lgrad2)" d="M3615 518c-187-83-266-105-423-12c-157 92-333-11-481 78s-245-77-373 0c-128 77-230 164-434 27s-304-362-650-168c-392 220-570 140-875 78s-603 53-500 350s310 482 653 387s656-40 888 91s558 220 923 46s743-224 1184-197L3615 518z" />
  <path fill="url(#grad3)" d="M4084 927c177-63 159-243 44-314-115-71-292 47-424-41s-282-164-451-31-422 19-547 82c-125 63-208 132-378 145-170 13-230 6-434-141S1470 350 1149 533 710 650 482 597C254 544 113 530 48 589c-154 142-273 103-336 196 83 123 435 299 865 220s2136 131 2594 130z" />
  <path fill="url(#grad4)" d="M4156 1007c177-12 145-290-368-226-338 42-427 90-615-14-189-104-353-186-630 0s-495 27-613-61c-118-88-265-184-405-112-140 73-201-102-316-41S992 723 696 691S-39 581-117 794s-239 659 622 470c444-98 716-68 902 13s324 95 471 34c147-61 191 65 375-10c184-75 669-106 1089-73z" />
  <path fill="url(#grad5)" d="M4068 1136c265-29 169-263-77-260s-515 105-680 0-272-152-360-82c-88 71-243 16-331-75s-202-134-375-2-302 242-592 106S1030 597 843 680c-188 82-257 9-416 94S239 747-40 762c-280 15-478 374 302 356z" />
  <path fill="url(#grad6)" d="M3942 1001c499-36 383 428-137 330s-726 0-1030-94-691 58-1123-32-976-55-1506 75-451-255-34-279s383-255 691-188c309 67 672 63 853-51s270 12 500 137 490 216 657 78c167-137 383 124 544 54C3520 962 3780 1013 3942 1001z" />
  <path fill="#549AB9" d="M1244 479c26-32 49-60 84-73h2c31-12 73-12 136 5c3 1 6 2 10 3c24 7 51 16 82 28c8 3 15 6 23 9h1c138 53 237 79 309 79c38 0 69-6 96-19c25-13 46-32 64-58c1-1 0-2-1-2c-1-1-2 0-3 0c-37 36-76 55-117 58c-19 1-37-1-55-5c-32-9-60-26-80-41c-25-19-62-21-104-23c-34-2-71-3-109-15c-16-5-32-12-48-21c-24-14-44-26-62-36c-4-2-7-4-10-6c-50-29-86-50-138-104c-36-36-75-53-110-46c-4 1-7 2-11 3c-23-21-47-30-70-27c-25 3-46 20-65 43c-13-12-25-17-37-15c-27 4-45 42-64 83c-8 17-16 35-25 49c-34 55-66 92-109 144l-6 7c-37 38-101 57-174 68c-11 1-23 2-34 3c-28 2-56 5-83 8c-41 5-80 12-114 24C367 620 300 618 230 616c-114-4-243-8-360 73c-1 1-1 2 0 3c1 1 2 1 3 0c116-81 244-76 357-72c71 2 138 5 194-15c33-12 72-18 113-23c40-2 80-6 118-11c42-4 85-9 122-17c53-12 89-31 112-58v-1c30-28 71-43 111-58c30-11 58-21 78-36c12-8 24-15 35-21c15-7 29-11 40-15c25-7 45-13 65-45c2-3 3-5 5-8c15-22 41-38 67-41c21-2 41 4 58 17c9 8 18 16 26 22c-11-5-20-6-30-5c-17 3-33 19-52 52c-19 32-57 53-97 74c-40 22-82 45-108 81c-45 64-134 95-202 99c-47 1-97 8-158 38c-184 89-378 67-519 51c-7-1-13-1-20-2c-71-8-133-15-190-12c-62 3-117 17-172 45c-1 1-1 2-1 3c0 1 1 1 2 1h1c118-60 214-49 359-32c6 1 13 1 20 2c83 9 165 18 252 13c102-5 190-26 271-65c54-26 100-35 143-37c4 0 8 0 12 0c20 0 40 0 59 1c67 3 130 6 207-48C1193 540 1220 507 1244 479z M1214 216c14-3 29-1 45 4c-5 0-11 0-16 2c-21 5-40 21-51 42c-15 29-33 58-88 89c20-16 35-35 41-59C1156 251 1181 223 1214 216zM1065 234c-19 23-34 52-48 79c-12 23-32 44-55 64c14-17 26-38 34-66c6-20 24-82 46-88c5-1 9 0 14 4C1059 229 1062 232 1065 234z M947 350c9-14 17-32 25-50c18-38 36-77 60-81c3 0 7 0 10 1c-17 4-33 33-50 91c-14 47-37 72-75 103c-14 11-27 22-40 33C902 416 924 386 947 350z M703 562c60-13 110-35 138-72c23-29 55-54 86-79c40-31 77-60 95-96c13-27 29-56 48-79c18-23 39-40 63-43c21-3 43 6 65 25c-28 11-48 39-58 77c-8 32-32 54-64 73c-17 10-35 20-55 30c-47 24-100 51-137 95c-4 4-8 8-12 13C834 539 773 553 703 562z M1074 397c-20 14-48 25-77 35c-31 12-63 24-90 41c34-32 78-54 117-74c19-10 38-19 55-30c78-37 100-70 118-105c10-20 28-35 48-40c12-3 23-2 33 3c5 3 11 6 16 10c-10-4-19-5-28-4c-23 4-43 24-59 60c-17 40-48 56-83 74C1107 377 1091 386 1074 397z M1214 318c-19 31-38 36-62 43c-3 1-6 2-10 3c28-15 54-33 69-68c15-35 34-55 55-58c15-2 32 4 49 19c-10-5-19-6-29-5C1256 255 1233 287 1214 318z M1290 267c-17 2-34 9-49 20c13-16 29-29 47-31c14-2 29 4 45 17l1 1C1320 268 1305 265 1290 267z M2032 468c-34 41-79 59-143 58c-64-1-150-21-266-63c26 5 50 5 76 5c12 0 24 0 36 0c23 1 48 10 74 19c20 7 41 15 64 20c16 4 33 7 51 6C1962 511 1998 496 2032 468z M1791 465c11 9 25 18 40 26c-7-2-13-5-20-7c-27-10-52-19-76-20c-13 0-25 0-36 0c-38 0-74 0-117-16c-8-3-15-6-23-9c-19-8-38-14-55-20c6 1 12 1 18 2c17 1 35 3 57 9c38 12 76 14 110 15C1731 445 1766 447 1791 465z M1531 407c8 5 16 9 24 13c-11-2-22-3-32-3c-15-1-30-2-46-6c-55-16-96-20-130-14c6-3 12-7 19-10c33-19 65-37 93-21c3 2 7 4 10 6C1487 381 1508 393 1531 407z M945 614c-9 0-19-1-28-1c24-4 48-11 70-20c45-18 81-45 105-78c25-36 67-58 107-80c41-22 79-43 98-76c18-31 33-47 49-50c15-3 30 5 53 19c14 10 28 18 44 27c-26-3-53 12-79 27c-12 7-25 14-37 19c-36 14-60 42-86 74c-23 29-50 61-91 90C1073 619 1011 617 945 614z" />
  <path fill="#87B8CE" d="M2732 1350c0-1-2-2-3-1-35 9-159 30-295-57-66-43-134-47-195-51-54-4-105-7-147-37-50-35-86-50-120-51-16 0-32 2-47 8-3-2-6-4-8-6-1-1-2-1-3-2-3-2-6-3-10-5-4-2-8-4-12-4-5-1-11-2-17-2-36 1-70 30-102 58-6 5-12 10-17 15-14 12-28 20-41 25-32 11-65 14-96 17-37 4-73 7-108 22-30 13-69 11-111 9-46-2-94-5-128 15c-35 20-73 19-110 18c-30-1-58-1-85 8c-43 16-41 29-38 34c3 6 13 10 24 10c5 0 11-1 16-3c88-19 149-5 213 11c44 10 90 21 146 21c19 0 37 0 54 1c15 0 29 1 42 1c58 0 103-5 152-33h2c2-1 4-2 5-3c21-11 57-14 94-17c50-4 106-9 139-35c3-2 6-4 9-6c5-3 10-6 15-9c21-10 43-15 64-18c5-1 10-1 14-2c26-4 49-7 62-20c28-28 38-30 64-25c27 6 55 8 84 10c62 4 127 9 192 50c55 35 114 57 176 64c58 7 102-1 123-6C2732 1352 2732 1351 2732 1350z M1892 1148c3 1 6 1 8 3c-11 2-23 10-37 26c-27 31-50 56-85 68c-13 4-28 7-42 10c28-11 45-27 63-45c7-7 14-13 22-20C1854 1161 1875 1147 1892 1148z M1867 1179c13-16 25-24 35-25c3 0 7 0 10 2c1 1 2 1 3 2c2 1 4 3 6 5c-19 8-39 22-60 41c-15 14-33 24-53 31C1829 1221 1847 1202 1867 1179z M1760 1218c6-5 12-10 17-15c32-28 64-56 99-57h1c-17 6-36 21-59 41c-8 7-15 14-22 20c-25 24-46 44-98 54c-29 5-58 11-85 19c26-12 47-18 66-24c14-4 26-8 39-13C1732 1238 1745 1230 1760 1218z M1043 1361c-4-6 4-17 36-29c25-9 53-8 83-8c38 1 77 2 113-19c33-19 80-16 125-14c40 2 82 4 113-9c34-15 69-18 106-22c17-2 35-3 53-6c-26 8-55 17-93 38c-18 8-35 17-50 30c-50 41-150 35-247 30c-82-5-160-9-205 14C1063 1371 1047 1368 1043 1361z M1493 1398c-17 0-35-1-54-1c-56 0-101-11-145-21c-43-10-84-20-132-20c-20 0-41 2-64 5c45-14 113-11 185-7c98 5 199 11 251-31c46-38 109-49 170-61c62-11 120-22 161-58c22-19 41-33 61-41c1 0 1 0 2-1c41-16 82-8 135 24c-40-10-77 17-125 65c-26 26-48 26-74 27c-33 0-70 1-125 48c-16 14-31 25-46 34c-3 1-5 3-8 5C1625 1401 1573 1400 1493 1398z M1924 1311c-32 24-87 29-136 34c-29 3-56 5-78 11c10-7 21-15 32-25c54-46 90-47 121-47c27 0 50-1 78-28c63-63 100-78 139-56c3 2 6 4 10 7c3 2 6 4 9 6c-12 0-20 7-35 23c-4 4-8 8-12 13c-16 16-33 22-53 29c-15 5-31 11-52 21c-5 2-9 5-14 8C1930 1307 1927 1309 1924 1311z M2000 1279c21-7 38-13 55-30c5-5 9-9 12-13c20-21 25-26 44-18c1 0 2 1 2 1c-13 1-26 10-38 25c-13 17-34 28-63 32c-6 1-12 2-19 3C1997 1280 1998 1280 2000 1279z M2087 1257c-9 9-23 13-40 16c14-6 25-14 33-25c10-13 27-28 46-22c3 1 6 2 8 3C2119 1229 2107 1237 2087 1257z" />
  <rect x="-1" y="0" opacity=".94" fill="#035376" width="4007" height="1650" />
  <path fill="#082C53" d="M3934 646c-14-21-29-36-45-49-4-4-8-7-12-9-14-10-29-18-45-25-18-8-36-14-55-21-17-6-33-12-50-18-17-7-34-15-51-26c-1 0-1-1-2-1c-23-14-45-32-68-57c-45-51-88-75-130-75l-1 0c-4 0-8 0-11 1c-4-5-8-11-12-15c-41-53-77-77-112-76c-18 1-36 8-54 23c-6 5-11 10-17 16c-16-7-32-6-62 20c0 0-1 0-1 1c-6 6-14 12-22 21c-24 25-38 31-54 38c-14 6-30 14-56 35c-21 17-39 32-56 45c-27 22-53 42-85 70c-1 1-3 2-4 3c-3 2-5 4-8 6c-31 24-63 39-102 59c-22 11-47 23-76 38c-76 42-164 17-211-6c-37-22-71-34-104-37c-68-11-109-3-170 35c-16 10-32 21-49 32c-42 28-90 60-153 93c-12 6-22 10-33 13c-53 16-110-16-143-49c-4-4-7-7-11-11c-8-8-16-15-23-21h-1c-23-20-45-33-68-33c-25 0-34 8-47 21c-8 8-19 18-37 30c-19 13-35 30-51 48c-24 27-50 55-88 69c-32 11-52 28-72 43c-21 17-41 33-73 42c-18 6-35 11-50 17c-5 1-9 3-14 5c-77 29-188 16-266-6c-42-11-79-23-106-32c-79-26-147-32-221-19c-75 13-162 47-282 108c-20 10-39 20-58 29c-78 34-120 40-161 46c-25 4-52 7-86 18c-3 1-6 2-9 3c-32 9-52 5-72 1c-19-4-39-8-68-2c-5 1-9 2-14 3v4c5-1 10-2 15-3c29-6 48-2 66 2c13 3 26 6 42 5c-42 12-80 19-122 21v4c53-2 101-14 156-30c1 0 3-1 4-1c1 0 3-1 4-1c34-10 59-14 85-17c30-4 61-9 107-24c-126 57-235 89-357 91v4c55-1 109-8 163-21c72-18 149-47 250-96c19-9 38-19 58-29C703 878 819 857 970 907c33 11 69 22 106 32c13 3 25 7 38 9c46 11 94 19 144 22c61 4 120 1 174-10c35-7 70-17 102-30c16-7 32-14 47-22c126-52 299-76 474 47c126 88 236 147 335 181c135 45 247 41 335-14c193-120 263-88 415 0c47 27 83 48 113 61c38 18 74 27 111 27c25 0 50-4 75-13c24-6 42-2 60 3c12 3 25 6 39 6c8 0 17-1 26-3c20-5 37-12 53-20c29-13 57-25 99-21c14 2 28 3 41 3c42 0 84-10 127-43c40-31 79-49 119-58V1060c-41 9-81 28-122 60c-56 43-110 47-164 39l-1 0c-11-2-23-4-34-6c-8-2-16-3-22-4c-1 0-1 0-2 0c-62-13-126-26-193 6c-77 36-117 47-158 41c-44-6-89-31-165-76c-77-45-132-75-194-79c-32-2-64 3-102 16c33-16 64-28 94-40c69-28 135-54 215-115c67-52 134-69 193-84c56-14 105-27 135-67c8-11 16-20 26-27c22-20 51-25 81-30c32-6 65-12 95-35c1-1 3-2 4-3c10-7 18-10 25-12c12-4 24-8 43-26c21-21 52-34 79-34c13 0 26 3 36 9c20 14 39 32 57 57c25 36 49 59 76 73v-5C3980 702 3957 680 3934 646z M3661 1153c7 1 14 3 22 4c3 1 5 1 8 1c-29 2-51 12-74 22c-16 7-33 14-52 19c-26 6-45 2-63-3c-13-3-27-7-43-6c1 0 2-1 3-1c35-15 55-15 74-14c13 0 27 1 46-4c14-4 23-8 32-11C3628 1154 3638 1149 3661 1153z M3330 1201c41 0 82-16 140-43c58-27 114-20 169-10c-10 1-18 4-27 8c-8 4-17 7-31 11c-18 5-31 4-44 4c-20-1-40-1-77 14c-7 3-14 6-21 8c-3 1-6 2-10 3c-39 11-78 12-118 2C3317 1200 3324 1201 3330 1201z M3708 520c-12 1-21 8-35 19l-1 1c-13 10-31 17-50 24c-12 5-25 10-37 16c-12 6-22 7-27 5c-2-1-3-2-3-3c0-1 1-6 13-12c16-8 16-15 15-21c0-6-1-11 10-18c6-3 12-7 18-12c21-14 42-28 57-20C3682 508 3695 515 3708 520z M3578 418c5 4 9 9 14 14c-21-14-39-20-58-20c-27 0-55 13-96 44c22-23 44-43 72-50C3543 398 3567 407 3578 418L3578 418z M3602 444c-25-13-50-13-78-1c-30 13-59 39-90 66c-3 3-7 6-10 9c-44 39-76 45-110 52c-17 3-34 7-53 14c-26 10-45 10-65 9c-13 0-26-1-41 2c31-12 58-18 84-23c22-5 44-9 66-17c1 0 1 0 2-1c25-10 51-24 78-49c5-4 10-8 14-12c3-2 5-4 7-6c60-51 96-71 128-72C3555 415 3576 424 3602 444z M3509 402c-31 7-54 31-79 56c-9 9-18 18-28 27c-2 2-5 4-7 6c-5 4-9 8-14 12c-10 9-20 17-30 24c13-12 22-26 32-39c8-12 16-24 28-36c37-38 71-59 102-61c16-1 32 3 47 12C3546 399 3529 397 3509 402z M3528 381L3528 381c6 3 12 7 18 11c-11-4-23-6-34-5c-32 2-68 23-106 63c-12 12-20 24-28 36c-17 25-33 49-76 66c-21 8-42 12-65 17c-35 7-74 15-121 39l-1 0c-14 7-29 16-44 26c-77 51-149 79-256 96c40-14 79-42 125-79c56-46 129-69 199-91c30-9 59-19 86-29c6-2 12-5 18-8c7-3 13-5 19-8c46-19 77-31 110-65C3411 412 3469 352 3528 381z M3203 536c28-14 48-30 64-51c15-18 24-24 34-29c9-5 19-11 32-27c31-38 69-64 96-66c8-1 15 1 20 4c-48 12-90 54-125 96c-21 25-50 43-84 58c-5 2-11 5-17 7C3216 531 3210 534 3203 536z M3474 368C3474 368 3475 368 3474 368c7 0 14 1 20 2c-17 0-34 6-53 17c-28 17-54 43-73 62c-27 27-52 40-86 55c18-11 33-24 46-39C3368 418 3417 368 3474 368z M3447 351L3447 351c4 4 7 9 11 14c-1 0-2 0-4 1c-7-5-16-8-26-7c-29 2-67 28-99 68c-13 16-21 20-31 26c-2 1-4 2-6 4c5-6 10-12 15-19c25-32 51-65 83-82C3434 334 3444 347 3447 351z M3438 341C3439 341 3439 341 3438 341c-12-3-29 1-52 13c-33 17-59 50-85 83c-9 11-17 22-26 33c-4 4-8 8-13 15c-25 32-60 53-120 73c-2 1-4 1-6 2c-54 17-110 35-158 63c31-24 56-40 90-50c47-14 106-32 148-64c23-18 41-41 59-66c14-19 29-38 47-55c34-33 72-55 96-54C3426 332 3433 335 3438 341L3438 341z M3289 299c17-14 34-21 50-22c8 0 17 1 26 4c-21 0-42 13-55 22c-10 7-19 8-23 5C3285 306 3285 302 3289 299L3289 299z M3281 306c0 2 1 4 3 5c2 2 6 3 9 3c6 0 13-2 20-7c16-12 46-29 69-16c15 9 30 22 47 40c-4-1-7-2-12-2c-31-1-72 28-100 55c-18 17-33 37-47 56c-18 24-36 47-58 65c-41 32-99 49-146 64c-49 15-79 40-134 85l-2 2c-58 47-105 77-160 83c-56 6-117-14-194-65c30 12 66 18 105 18c2 0 3 0 5 0c59-1 113-17 146-43c30-24 58-37 85-50c34-16 67-32 97-67c22-25 52-39 84-54c44-20 94-43 130-102C3247 344 3264 322 3281 306z M3209 337c31-27 45-26 56-21c-1 1-1 1-2 2c-19-5-37 19-60 49c-9 12-18 24-28 36c-17 20-38 28-58 33c17-10 30-23 41-34c4-4 8-8 11-11c11-10 16-19 21-29C3196 353 3200 345 3209 337z M3021 476c17-14 35-28 56-46c25-21 41-28 55-34c17-8 31-14 56-39l1-1c-1 2-2 3-3 5c-5 9-9 18-20 28c-4 3-7 7-11 11c-16 16-34 34-60 43c-14 4-28 9-38 18c-14 12-34 24-56 38c-10 6-21 13-32 20C2987 503 3004 490 3021 476z M2616 674c12 2 23 2 34 2c35 0 68-8 96-23c28-15 53-27 75-38c43-21 77-38 111-65c24-19 49-34 71-48c23-14 43-26 57-39c8-7 17-11 27-15c3-1 6-2 9-3c4-1 7-2 11-3c24-6 51-13 72-38c10-12 19-24 28-36c20-27 37-50 53-48c-12 14-24 31-36 52c-35 58-82 80-128 101c-32 15-63 29-86 55c-30 34-62 50-96 66c-27 13-56 27-86 51c-64 51-197 56-274 13C2575 665 2596 671 2616 674z M2024 784C2024 784 2025 784 2024 784L2024 784c11-3 22-8 33-13c64-33 112-65 154-93c17-12 34-23 49-32c49-31 86-42 134-39c-10 1-19 2-29 5c-58 14-113 53-182 102c-17 12-34 24-53 37c-81 56-152 58-227 61c-42 1-87 3-138 14c51-17 91-24 124-28c21-2 40-3 57-4C1975 793 1999 792 2024 784z M1900 755c23 17 52 30 82 33c-11 1-23 2-35 2c-17 1-36 2-58 4c-27 2-53 4-78 7c13-5 19-12 24-19c2-3 5-6 8-9c2-2 4-4 6-6C1862 754 1875 740 1900 755L1900 755z M1876 734c4 4 8 8 13 11c-20-5-32 8-43 19c-2 2-4 4-6 6c-3 3-6 6-8 9c-9 11-17 21-56 26c-39 6-75 15-108 25c-8 3-16 5-23 8c11-9 20-20 27-31c14-18 39-26 63-33c20-6 39-13 50-24c13-13 38-35 60-35c8 0 15 3 20 8C1868 727 1872 731 1876 734zM1854 713c-3-1-6-1-9-1c-23 0-47 20-63 37c-10 11-29 16-48 23c-17 6-35 11-49 21c10-13 22-26 42-37c18-10 33-22 46-33c27-22 47-38 69-21C1845 705 1849 709 1854 713z M1485 879c19-16 40-32 71-43c40-14 65-42 90-70c16-18 32-35 51-48c18-12 29-22 37-30c14-13 20-19 44-19c17 0 34 8 52 22c-20-4-39 11-60 28c-13 11-28 23-46 32c-27 14-40 33-52 51c-12 17-23 33-45 44c-9 4-17 7-25 11c-42 17-89 31-135 44c-8 2-15 4-22 7C1459 900 1472 889 1485 879z M1409 923L1409 923C1409 923 1409 923 1409 923c19-6 38-12 58-18c34-10 68-20 100-31c-12 7-24 13-35 20c-44 25-75 28-107 31c-11 1-22 2-34 4C1398 927 1403 925 1409 923z M1580 905c-15 6-31 13-46 21c-113 46-229 48-330 35c4 0 8 0 12 1c7 0 13 0 19 0c43 0 80-6 111-17c31-12 56-14 80-16c33-3 64-6 109-32c22-13 44-25 68-36c6-3 13-5 19-8c4-2 7-3 11-5c53-21 117-38 209-46c-36 7-80 20-136 41c-31 11-64 26-99 47C1599 895 1589 900 1580 905z M3507 720L3507 720c-10 8-18 17-26 28c-29 39-77 51-132 65c-59 15-127 32-195 85c-80 61-145 87-214 115c-45 18-91 37-144 66c-22 11-46 24-72 40c-86 53-197 58-330 13c-99-33-208-92-334-180c-89-63-187-93-289-90c-54 2-108 12-162 32c1 0 2-1 2-1c120-71 212-75 293-77c76-3 148-5 230-62c18-13 36-25 53-37c92-65 159-113 240-106c1 0 1 0 2 0c27 3 56 12 88 28c5 3 9 5 14 8c2 1 5 3 7 4c5 4 10 7 16 10c2 2 5 3 7 5c85 59 150 82 211 75c1 0 1 0 2 0c132-17 213-45 300-103c16-10 30-19 45-26c32-15 54-15 77-14c20 0 40 1 67-10c19-7 36-11 52-14c35-7 68-14 113-53c4-3 7-6 10-9c30-27 59-53 88-65c32-14 61-10 91 12c14 14 29 26 44 36c-16 0-34 12-51 23c-6 4-12 8-18 11c-13 8-13 15-12 21c0 6 1 11-13 18c-10 5-16 10-16 15c0 3 2 5 5 6c2 1 5 1 8 1c7 0 15-2 23-7c11-6 24-11 36-16c19-7 38-15 51-25l1-1c20-16 28-22 47-15c17 7 34 13 51 19c9 3 18 6 27 9c-13-1-25 0-37 4c-22 8-42 25-65 54c-20 26-55 39-92 54c-31 12-65 25-93 47C3512 716 3510 718 3507 720z M3688 651c-3 2-6 5-10 8c-27 19-58 25-87 30c-16 3-31 6-45 10c20-11 42-20 64-28c38-15 73-28 94-55c47-61 83-65 123-51c-40-5-72 25-105 56C3710 631 3699 642 3688 651z M3838 578C3838 578 3838 578 3838 578c-29 0-61 14-83 35c-18 18-29 21-41 25c-3 1-6 2-9 3c7-6 13-12 20-18c41-39 77-72 128-46c1 1 2 1 3 2C3850 578 3844 578 3838 578z" />
</svg>
