<?xml version="1.0" encoding="UTF-8"?>
<svg id="Layer_1" data-name="Layer 1" xmlns="http://www.w3.org/2000/svg" xmlns:xlink="http://www.w3.org/1999/xlink" version="1.1" viewBox="0 0 101 101">
  <defs>
    <style>
      .cls-1 {
        clip-path: url(#clippath);
      }

      .cls-2 {
        fill: none;
      }

      .cls-2, .cls-3, .cls-4 {
        stroke-width: 0px;
      }

      .cls-3 {
        fill: #046b99;
      }

      .cls-4 {
        fill: #fff;
      }
    </style>
    <clipPath id="clippath">
      <rect class="cls-2" y="6.2" width="101" height="74"/>
    </clipPath>
  </defs>
  <circle class="cls-3" cx="49.8" cy="50.7" r="49.8"/>
  <g class="cls-1">
    <g>
      <path class="cls-4" d="M62.5,36.9c.3-.9,1-3.4,2.2-7.5.3-1,1-3.1,2.2-6.3,1.2-3.3,2.1-5.9,2.8-7.8-2.3,1.6-4.3,3.4-6.2,5.5-7.5,8.2-16.3,18-19.4,23.2,1.2-.3,3.5-2.8,11-5.4,2.4-.9,4.9-1.5,7.4-1.7ZM61.1,42.1c-23.7,0-34.1,38.1-50.5,38.1s-6.6-1.7-8.7-5.1c-1.3-2.2-2-4.8-2-7.4,0-6.9,3.3-15.7,9.8-26.3,5.6-9,11.4-16.3,17.6-21.7,5.3-4.7,9.9-7.1,13.7-7.1,1,0,1.9.1,2.8.5.9.4,1.6,1,2.2,1.8.9,1.3,1.4,2.8,1.4,4.4,0,3.1-1,6.7-3.1,10.7-1.8,3.4-4.1,6.5-6.8,9.3-1.8,1.8-3.2,2.7-4.2,2.7-.4,0-.7-.1-1-.3-.3-.2-.6-.4-.8-.7-.4-.5-.6-1-.6-1.6,0-1.1,1-2.4,2.9-3.9,2.5-1.9,4.8-4.1,6.5-6.8,2.4-3.6,3.6-6.6,3.6-9,0-.8-.2-1.6-.6-2.2-.3-.3-.6-.5-.9-.6-.3-.1-.7-.2-1-.1-1.8,0-4.2,1.3-7.5,3.9-4.3,3.5-8.2,7.5-11.6,11.8-4.8,5.7-8.8,12-11.9,18.7-2.8,6.4-4.2,11.8-4.2,16.3,0,2,.6,3.9,1.9,5.5.6.8,1.3,1.5,2.2,1.9.9.4,1.8.7,2.8.7,7.5-.3,16.9-17.6,19.8-21.6C61.4,14.1,63.6,14,68,9.9c2.5-2.4,4.5-3.6,5.8-3.6.4,0,.8,0,1.2.3.4.2.7.4,1,.7.5.6.8,1.3.8,2-.2,1.6-.6,3.2-1.3,4.7-1.5,4-3,8.2-4.4,12.7-1.2,4-2.1,7-2.5,9.2.4,0,.8,0,1.1,0,.9,0,1.7,0,2.3,0,1.8,0,2.8.7,2.8,2.1,0,.7-.2,1.3-.6,1.8-.3.5-.8.9-1.4,1.1-.5,0-1,.1-1.5,0-1.4,0-2.7,0-4.1.3-.3,1-1.2,9.6-2.5,9.9-4,3.5-3.7-7.8-3.5-8.9h0Z"/>
      <path class="cls-4" d="M37.7,68.2c.5,0,1,0,1.4.3.5.2.9.5,1.2.8.4.3.6.8.8,1.2.2.5.3,1,.3,1.5,0,1-.4,2-1.1,2.7-.7.7-1.7,1.1-2.7,1.1s-2-.4-2.7-1.1c-.7-.7-1.1-1.7-1.1-2.7,0-.5,0-1,.3-1.5.2-.5.5-.9.8-1.2.4-.4.8-.6,1.2-.8.5-.2,1-.3,1.4-.3Z"/>
      <path class="cls-4" d="M60.8,58.1l-2.6,2.6c-.7-.8-1.6-1.5-2.6-2s-2.1-.7-3.2-.7c-.9,0-1.8.1-2.6.5-.8.3-1.6.8-2.2,1.5-.6.6-1.1,1.3-1.5,2.2-.3.8-.5,1.7-.5,2.6,0,.9.2,1.8.5,2.7.4.8.9,1.6,1.5,2.2.7.7,1.5,1.2,2.3,1.5.9.3,1.8.5,2.7.5,1.2,0,2.3-.2,3.3-.8,1-.6,1.7-1.5,2.2-2.6h-5.7v-3.5h9.9v.8c0,1.7-.5,3.5-1.3,5-.8,1.5-2,2.7-3.5,3.6-1.5.8-3.3,1.3-5,1.2-1.9,0-3.8-.4-5.5-1.3-1.6-.9-2.9-2.2-3.8-3.8-.9-1.6-1.4-3.5-1.4-5.4,0-2.5.9-5,2.6-6.9,1-1.1,2.2-2,3.6-2.7,1.4-.6,2.9-.9,4.4-.8,1.6,0,3.3.3,4.8,1,1.4.7,2.7,1.6,3.7,2.8h0Z"/>
      <path class="cls-4" d="M73.7,54.3c1.3,0,2.7.2,3.9.8,1.2.5,2.4,1.3,3.3,2.3,1,1,1.8,2.1,2.3,3.4.5,1.3.8,2.7.7,4,0,1.4-.2,2.7-.7,4s-1.3,2.4-2.2,3.4c-1,1-2.1,1.7-3.4,2.3-1.3.5-2.6.8-4,.8-1.4,0-2.7-.3-4-.8-1.3-.5-2.4-1.3-3.3-2.3-1.4-1.5-2.4-3.3-2.8-5.4-.4-2-.2-4.1.6-6,.8-1.9,2.1-3.5,3.8-4.7,1.7-1.1,3.7-1.8,5.7-1.8h0ZM73.7,58c-.9,0-1.7.1-2.5.5-.8.3-1.5.8-2.1,1.4-.6.6-1.1,1.4-1.4,2.3-.3.8-.5,1.7-.4,2.6,0,1,.1,2,.5,2.9.4.9,1,1.7,1.8,2.3,1.2,1,2.7,1.5,4.2,1.5.8,0,1.7-.2,2.5-.5.8-.3,1.5-.8,2.1-1.5,1.2-1.3,1.9-3,1.9-4.8s-.7-3.5-1.9-4.8c-.6-.6-1.3-1.1-2.1-1.5-.8-.3-1.6-.5-2.5-.5h0Z"/>
      <path class="cls-4" d="M83.2,54.8h3.9l5,14.1,5.1-14.1h3.9l-7.1,19.9h-3.6l-7-19.9Z"/>
      <path class="cls-4" d="M97.5,63.7l-2.5,7h.5l2.5-6.5-.5-.5Z"/>
    </g>
  </g>
</svg>