<?xml version="1.0" encoding="utf-8"?>
<!-- Generator: Adobe Illustrator 27.4.1, SVG Export Plug-In . SVG Version: 6.00 Build 0)  -->
<svg version="1.1" id="Layer_1" xmlns="http://www.w3.org/2000/svg" xmlns:xlink="http://www.w3.org/1999/xlink" x="0px" y="0px"
	 viewBox="0 0 95.9 96" style="enable-background:new 0 0 95.9 96;" xml:space="preserve">
<style type="text/css">
	.st0{fill:url(#SVGID_1_);}
	.st1{clip-path:url(#SVGID_00000150077062783070558850000004298873018785915056_);}
	.st2{fill:#FDB81C;}
	.st3{fill:#FFFFFF;}
</style>
<radialGradient id="SVGID_1_" cx="-245.3059" cy="348.6116" r="1" gradientTransform="matrix(55.25 54 54 -55.25 -5208.1465 32560.8164)" gradientUnits="userSpaceOnUse">
	<stop  offset="0" style="stop-color:#076B9A"/>
	<stop  offset="0.5708" style="stop-color:#04597F"/>
</radialGradient>
<circle class="st0" cx="48" cy="48" r="48"/>
<g>
	<defs>
		<rect id="SVGID_00000042705704974559794990000012193191111917643696_" x="10" y="14" width="81" height="59"/>
	</defs>
	<clipPath id="SVGID_00000178927781436366119850000008652760067721480106_">
		<use xlink:href="#SVGID_00000042705704974559794990000012193191111917643696_"  style="overflow:visible;"/>
	</clipPath>
	<g style="clip-path:url(#SVGID_00000178927781436366119850000008652760067721480106_);">
		<path class="st2" d="M60.1,38.5c0.2-0.7,0.8-2.7,1.7-6c0.2-0.8,0.8-2.5,1.7-5c0.9-2.6,1.7-4.7,2.2-6.2c-1.8,1.3-3.5,2.7-5,4.4
			c-6,6.5-13,14.4-15.5,18.5c0.9-0.2,2.8-2.2,8.9-4.3C56.1,39.1,58.1,38.7,60.1,38.5z M59,42.6C40,42.6,31.7,73,18.5,73
			c-3,0-5.3-1.3-6.9-4c-1.1-1.8-1.6-3.8-1.6-5.9c0-5.5,2.6-12.5,7.9-21c4.5-7.2,9.2-13,14.1-17.3c4.3-3.8,7.9-5.7,11-5.7
			c0.8,0,1.5,0.1,2.2,0.4c0.7,0.3,1.3,0.8,1.7,1.4c0.8,1,1.1,2.3,1.1,3.5c0,2.5-0.8,5.3-2.5,8.5c-1.4,2.7-3.3,5.2-5.4,7.4
			c-1.4,1.4-2.6,2.1-3.4,2.1c-0.3,0-0.6-0.1-0.8-0.2c-0.3-0.1-0.5-0.3-0.6-0.6c-0.3-0.4-0.5-0.8-0.5-1.3c0-0.9,0.8-1.9,2.3-3.1
			c2-1.5,3.8-3.3,5.3-5.4c1.9-2.8,2.9-5.2,2.9-7.2c0.1-0.6-0.1-1.3-0.5-1.8c-0.2-0.2-0.4-0.4-0.7-0.5c-0.3-0.1-0.6-0.1-0.8-0.1
			c-1.4,0-3.4,1-6,3.1c-3.4,2.8-6.6,6-9.3,9.4c-3.8,4.5-7,9.5-9.5,14.9c-2.2,5.1-3.4,9.4-3.4,13c0,1.6,0.5,3.1,1.5,4.4
			c0.5,0.6,1.1,1.2,1.8,1.5c0.7,0.4,1.5,0.5,2.3,0.5c6-0.2,13.5-14,15.9-17.2c23-31.8,24.8-31.9,28.2-35.2c2-1.9,3.6-2.9,4.7-2.9
			c0.3,0,0.7,0.1,1,0.2c0.3,0.1,0.6,0.3,0.8,0.6c0.4,0.4,0.6,1,0.6,1.6c-0.2,1.3-0.5,2.6-1.1,3.8c-1.2,3.2-2.4,6.5-3.5,10.1
			c-1,3.2-1.7,5.6-2,7.3c0.3,0,0.6,0,0.9,0c0.7,0,1.4,0,1.9,0c1.5,0,2.2,0.6,2.2,1.7c0,0.5-0.2,1-0.5,1.4c-0.2,0.4-0.6,0.7-1.1,0.9
			c-0.4,0.1-0.8,0.1-1.2,0.1c-1.1,0-2.2,0.1-3.2,0.3c-0.3,0.8-1,7.7-2,7.9C58.7,52.6,58.9,43.6,59,42.6L59,42.6z"/>
		<path class="st3" d="M40.2,63.4c0.4,0,0.8,0.1,1.2,0.2c0.4,0.2,0.7,0.4,1,0.7c0.3,0.3,0.5,0.6,0.7,1c0.2,0.4,0.2,0.8,0.2,1.2
			c0,0.8-0.3,1.6-0.9,2.1c-0.6,0.6-1.3,0.9-2.1,0.9c-0.8,0-1.6-0.3-2.1-0.9c-0.6-0.6-0.9-1.3-0.9-2.1c0-0.4,0.1-0.8,0.2-1.2
			c0.2-0.4,0.4-0.7,0.7-1c0.3-0.3,0.6-0.5,1-0.7C39.4,63.5,39.8,63.4,40.2,63.4z"/>
		<path class="st3" d="M58.7,55.4l-2.1,2.1c-0.6-0.7-1.3-1.2-2.1-1.6c-0.8-0.4-1.7-0.6-2.6-0.6c-0.7,0-1.4,0.1-2.1,0.4
			c-0.7,0.3-1.3,0.7-1.8,1.2c-0.5,0.5-0.9,1.1-1.2,1.7c-0.3,0.6-0.4,1.3-0.4,2.1c0,0.7,0.1,1.4,0.4,2.1c0.3,0.7,0.7,1.3,1.2,1.8
			c0.5,0.5,1.2,0.9,1.9,1.2c0.7,0.3,1.4,0.4,2.2,0.4c0.9,0,1.8-0.2,2.6-0.7c0.8-0.5,1.4-1.2,1.7-2.1h-4.6v-2.8h8v0.7
			c0,1.4-0.4,2.8-1.1,3.9c-0.7,1.2-1.6,2.2-2.8,2.8c-1.2,0.7-2.6,1-4,1c-1.5,0-3.1-0.3-4.4-1.1c-1.3-0.7-2.3-1.8-3.1-3.1
			c-0.7-1.3-1.1-2.8-1.1-4.3c0-2,0.7-4,2.1-5.5c0.8-0.9,1.8-1.6,2.9-2.1c1.1-0.5,2.3-0.7,3.5-0.7c1.3,0,2.6,0.3,3.9,0.8
			C56.9,53.7,57.9,54.4,58.7,55.4L58.7,55.4z"/>
		<path class="st3" d="M69.1,52.4c1.1,0,2.2,0.2,3.1,0.6c1,0.4,1.9,1,2.6,1.8c0.8,0.8,1.4,1.7,1.8,2.7c0.4,1,0.6,2.1,0.6,3.2
			c0,1.1-0.2,2.2-0.6,3.2c-0.4,1-1,1.9-1.8,2.7c-0.8,0.8-1.7,1.4-2.7,1.8c-1,0.4-2.1,0.6-3.2,0.6c-1.1,0-2.2-0.2-3.2-0.6
			c-1-0.4-1.9-1-2.7-1.8c-1.2-1.2-1.9-2.7-2.2-4.3c-0.3-1.6-0.1-3.3,0.5-4.8c0.6-1.5,1.7-2.8,3.1-3.7C65.9,52.9,67.5,52.4,69.1,52.4
			L69.1,52.4z M69.1,55.3c-0.7,0-1.4,0.1-2,0.4c-0.6,0.3-1.2,0.7-1.7,1.2c-0.5,0.5-0.9,1.1-1.1,1.8c-0.3,0.7-0.4,1.4-0.4,2.1
			c0,0.8,0.1,1.6,0.4,2.3c0.3,0.7,0.8,1.4,1.4,1.9c0.9,0.8,2.1,1.2,3.3,1.2c0.7,0,1.4-0.1,2-0.4c0.6-0.3,1.2-0.7,1.7-1.2
			c1-1,1.5-2.4,1.5-3.8c0-1.4-0.5-2.8-1.5-3.8c-0.5-0.5-1-0.9-1.7-1.2C70.4,55.5,69.8,55.3,69.1,55.3L69.1,55.3z"/>
		<path class="st3" d="M76.8,52.8h3.1l4,11.3l4.1-11.3H91l-5.7,15.9h-2.9L76.8,52.8z"/>
	</g>
</g>
</svg>
