<?xml version="1.0" encoding="utf-8"?>
<!-- Generator: Adobe Illustrator 27.4.1, SVG Export Plug-In . SVG Version: 6.00 Build 0)  -->
<svg version="1.1" id="Layer_1" xmlns="http://www.w3.org/2000/svg" xmlns:xlink="http://www.w3.org/1999/xlink" x="0px" y="0px"
	 viewBox="0 0 95.9 96" style="enable-background:new 0 0 95.9 96;" xml:space="preserve">
<style type="text/css">
	.st0{fill:url(#SVGID_1_);}
	.st1{fill:url(#SVGID_00000157288642506831781790000014698813816840619960_);}
	.st2{fill:url(#SVGID_00000021802790688160338450000002074483134933532557_);}
	.st3{fill:url(#SVGID_00000172428485862148030450000008200923891838972856_);}
</style>
<g>
	
		<radialGradient id="SVGID_1_" cx="141.0736" cy="-21.4236" r="184.0627" gradientTransform="matrix(0.9962 0 0 0.9962 0.3621 0.3621)" gradientUnits="userSpaceOnUse">
		<stop  offset="0" style="stop-color:#046B99"/>
		<stop  offset="1" style="stop-color:#04618A"/>
	</radialGradient>
	<path class="st0" d="M12.9,71.6C20,71.3,29,54.8,31.8,50.9C59.2,12.8,61.3,12.7,65.4,8.7c1.7-1.6,3.1-2.6,4.2-3.1
		c0.5-0.2,1-0.3,1.4-0.3h-2c-6.3-3.1-13.5-4.9-21-4.9c-7.6,0-14.7,1.8-21,4.9C12,12.6,1.5,27.6,0.5,45c-0.1,1-0.1,1.9-0.1,2.9
		c0,1,0,1.9,0.1,2.9c0.1,2.3,0.4,4.5,0.9,6.7C2.7,52.2,5.5,46,9.8,39c5.3-8.6,10.9-15.5,16.8-20.8c5.1-4.5,9.5-6.8,13.1-6.8
		c0.9,0,1.8,0.1,2.6,0.5c0.8,0.4,1.5,1,2.1,1.7c0.9,1.2,1.4,2.7,1.3,4.2c0,3-1,6.4-3,10.2c-1.7,3.3-3.9,6.2-6.5,8.9
		c-1.7,1.7-3,2.5-4,2.5c-0.3,0-0.7-0.1-1-0.3c-0.3-0.2-0.6-0.4-0.8-0.7c-0.4-0.4-0.6-1-0.6-1.6c0-1.1,0.9-2.3,2.8-3.7
		c2.4-1.8,4.6-4,6.3-6.5c2.3-3.4,3.4-6.3,3.4-8.6c0.1-0.8-0.2-1.5-0.6-2.1c-0.2-0.2-0.5-0.4-0.9-0.6c-0.3-0.1-0.7-0.2-1-0.1
		c-1.7,0-4.1,1.2-7.1,3.7c-4.1,3.4-7.8,7.2-11.1,11.3c-4.6,5.4-8.4,11.4-11.4,17.9c-2.7,6.1-4,11.3-4,15.6c0,1.9,0.6,3.7,1.8,5.2
		c0.5,0.8,1.3,1.4,2.1,1.8C11,71.4,11.9,71.6,12.9,71.6z"/>
	
		<radialGradient id="SVGID_00000152981264710181447550000011024746047639934627_" cx="180.9687" cy="-18.6642" r="225.4736" gradientTransform="matrix(0.9962 0 0 0.9962 0.3621 0.3621)" gradientUnits="userSpaceOnUse">
		<stop  offset="0" style="stop-color:#046B99"/>
		<stop  offset="1" style="stop-color:#04618A"/>
	</radialGradient>
	<path style="fill:url(#SVGID_00000152981264710181447550000011024746047639934627_);" d="M73.8,8c0,0.1,0,0.1,0,0.2
		c-0.2,1.6-0.6,3.1-1.3,4.5c-1.5,3.8-2.9,7.8-4.2,12.1c-1.2,3.8-2,6.7-2.4,8.8c0.4,0,0.7,0,1.1,0c0.9,0,1.6,0,2.2,0
		c1.8,0,2.7,0.7,2.7,2c0,0.6-0.2,1.2-0.6,1.7c-0.3,0.5-0.8,0.9-1.3,1c-0.5,0.1-1,0.1-1.5,0.1c-1.3,0-2.6,0.1-3.9,0.3
		c-0.3,1-1.2,9.2-2.4,9.5c-3.8,3.4-3.5-7.5-3.3-8.6l-0.1,0C36.2,39.6,26.3,76,10.6,76c-0.4,0-0.7,0-1.1-0.1c0,0,0,0,0,0.1
		c8.7,11.8,22.6,19.5,38.4,19.5c15.8,0,29.7-7.7,38.4-19.5c1.2-1.7,2.4-3.4,3.4-5.3h-2.9l-6.7-19h3.7l4.7,13.5l4.8-13.5h2
		c0.1-1.3,0.2-2.5,0.2-3.8C95.5,31.2,86.9,16.5,73.8,8z M42.7,54.6c1-1.1,2.1-2,3.5-2.5c1.3-0.6,2.8-0.8,4.2-0.8
		c1.6,0,3.1,0.3,4.6,0.9c1.4,0.6,2.6,1.5,3.5,2.7h0L56,57.4c-0.7-0.8-1.6-1.4-2.5-1.9c-1-0.4-2-0.7-3.1-0.7c-0.9,0-1.7,0.1-2.5,0.4
		c-0.8,0.3-1.5,0.8-2.1,1.4c-0.6,0.6-1.1,1.3-1.4,2.1c-0.3,0.8-0.5,1.6-0.5,2.5c0,0.9,0.2,1.7,0.5,2.5c0.3,0.8,0.8,1.5,1.5,2.1
		c0.6,0.6,1.4,1.1,2.2,1.4c0.8,0.3,1.7,0.5,2.6,0.5c1.1,0,2.2-0.2,3.1-0.8c0.9-0.6,1.6-1.5,2.1-2.5h-5.5v-3.4h9.5v0.8
		c0,1.7-0.4,3.3-1.3,4.7c-0.8,1.4-1.9,2.6-3.3,3.4c-1.5,0.8-3.1,1.2-4.8,1.2c-1.8,0-3.6-0.4-5.3-1.3c-1.5-0.9-2.8-2.1-3.7-3.7
		c-0.9-1.6-1.4-3.3-1.3-5.1C40.2,58.7,41.1,56.4,42.7,54.6z M33.1,66.7c0.2-0.4,0.4-0.8,0.8-1.2c0.3-0.3,0.7-0.6,1.2-0.8
		c0.4-0.2,0.9-0.3,1.4-0.3c0.5,0,0.9,0.1,1.4,0.3c0.4,0.2,0.8,0.5,1.2,0.8c0.3,0.3,0.6,0.7,0.8,1.2c0.2,0.4,0.3,0.9,0.3,1.4
		c0,1-0.4,1.9-1.1,2.6c-0.7,0.7-1.6,1.1-2.6,1.1c-1,0-1.9-0.4-2.6-1.1c-0.7-0.7-1.1-1.6-1.1-2.6C32.9,67.7,33,67.2,33.1,66.7z
		 M80.7,61.3c0,1.3-0.2,2.6-0.7,3.8c-0.5,1.2-1.2,2.3-2.1,3.2c-0.9,0.9-2,1.7-3.2,2.2c-1.2,0.5-2.5,0.8-3.8,0.7
		c-1.3,0-2.6-0.3-3.8-0.8c-1.2-0.5-2.3-1.2-3.2-2.2c-1.4-1.4-2.3-3.2-2.7-5.1c-0.4-1.9-0.2-3.9,0.6-5.8c0.8-1.8,2-3.4,3.6-4.5
		c1.6-1.1,3.5-1.7,5.5-1.7h0c1.3,0,2.6,0.2,3.8,0.7c1.2,0.5,2.3,1.2,3.1,2.2c0.9,0.9,1.7,2,2.2,3.3C80.5,58.7,80.8,60,80.7,61.3z"/>
	
		<radialGradient id="SVGID_00000025419214014428084880000009327258587142137790_" cx="91.1754" cy="5.4109" r="68.371" gradientTransform="matrix(0.9962 0 0 0.9962 0.3621 0.3621)" gradientUnits="userSpaceOnUse">
		<stop  offset="0" style="stop-color:#046B99"/>
		<stop  offset="1" style="stop-color:#04618A"/>
	</radialGradient>
	<path style="fill:url(#SVGID_00000025419214014428084880000009327258587142137790_);" d="M61.1,19.2C53.9,27,45.5,36.4,42.5,41.4
		c1.1-0.3,3.4-2.7,10.6-5.1c2.3-0.9,4.7-1.4,7.1-1.6c0.3-0.9,1-3.3,2.1-7.1c0.3-1,1-3,2.1-6c1.1-3.1,2-5.6,2.7-7.5
		C64.8,15.5,62.8,17.2,61.1,19.2z"/>
	
		<radialGradient id="SVGID_00000077286144020103758600000012445239641407127961_" cx="89.3085" cy="50.7594" r="33.0102" gradientTransform="matrix(0.9962 0 0 0.9962 0.3621 0.3621)" gradientUnits="userSpaceOnUse">
		<stop  offset="0" style="stop-color:#046B99"/>
		<stop  offset="1" style="stop-color:#04618A"/>
	</radialGradient>
	<path style="fill:url(#SVGID_00000077286144020103758600000012445239641407127961_);" d="M73.3,55.3c-0.8-0.3-1.6-0.5-2.4-0.5
		c-0.8,0-1.6,0.1-2.4,0.5c-0.8,0.3-1.4,0.8-2,1.4c-0.6,0.6-1.1,1.4-1.4,2.2c-0.3,0.8-0.4,1.7-0.4,2.5c0,0.9,0.1,1.9,0.5,2.8
		c0.4,0.9,1,1.6,1.7,2.2c1.1,0.9,2.5,1.5,4,1.4c0.8,0,1.6-0.1,2.4-0.5c0.7-0.3,1.4-0.8,2-1.4c1.2-1.2,1.8-2.9,1.8-4.6
		s-0.6-3.4-1.8-4.6C74.7,56.1,74,55.6,73.3,55.3z"/>
</g>
</svg>
