<?xml version="1.0" encoding="UTF-8"?>
<svg id="Layer_1" data-name="Layer 1" xmlns="http://www.w3.org/2000/svg" width="232.4" height="60.6" version="1.1" viewBox="0 0 232.4 60.6">
  <defs>
    <style>
      .cls-1 {
        fill: #fff;
        stroke-width: 0px;
      }
    </style>
  </defs>
  <path class="cls-1" d="M36.4,21.2c-.1.7-.3,7.1,1.9,5.1.8-.1,1.3-5.1,1.5-5.7.4-.1,1.2-.1,2.3-.1h.9c.3-.1.5-.3.8-.7.3-.4.4-.7.4-1.1,0-.8-.5-1.2-1.6-1.2h-2c.1-1.2.7-3,1.3-5.3.8-2.6,1.6-5,2.6-7.3.5-1.3.8-2.2.8-2.7s-.1-.8-.4-1.2c-.3-.4-.7-.5-1.2-.5-.8,0-1.9.8-3.4,2.2-2.6,2.4-3.8,2.4-20.4,25.2-1.6,2.3-7,12.1-11.3,12.3-1.1,0-2-.5-2.8-1.5-.7-.8-1.1-1.9-1.1-3.1,0-2.6.8-5.7,2.4-9.3,1.5-3.5,3.8-7,6.6-10.8,2.4-2.8,4.6-5.1,6.7-6.7,1.9-1.5,3.4-2.2,4.3-2.2s.8.1,1.1.4c.3.3.4.7.4,1.2,0,1.3-.7,3.1-2,5.1-.9,1.5-2.2,2.7-3.8,3.9-1.1.8-1.6,1.5-1.6,2.2s.1.7.4.9c.3.4.7.5,1.1.5s1.3-.4,2.4-1.5c1.6-1.5,2.8-3.2,3.9-5.3,1.2-2.3,1.8-4.3,1.8-6.1s-.3-1.8-.7-2.3c-.7-.9-1.6-1.3-2.8-1.3-2.3,0-4.9,1.3-8,4-3.5,3.1-6.9,7.3-10.1,12.4-3.8,5.9-5.7,11.1-5.7,15s.3,3,1.1,4.2c1.2,1.9,2.8,2.8,5,2.8,9.6,0,15.5-21.7,29.1-21.7ZM37.5,8.9c1.2-1.2,2.4-2.3,3.6-3.1-.4,1.1-.9,2.6-1.6,4.4s-1.1,3-1.2,3.6c-.7,2.3-1.1,3.8-1.2,4.3,0,0-1.5,0-4.4.8-4.3,1.5-5.7,3-6.3,3.1,1.9-3,6.9-8.5,11.2-13.2Z"/>
  <path class="cls-1" d="M22.8,36c-.5,0-1.1.3-1.5.7s-.7.9-.7,1.5.3,1.1.7,1.5.9.7,1.5.7,1.1-.3,1.5-.7c.4-.4.7-.9.7-1.5s-.3-1.1-.7-1.5c-.4-.4-.9-.7-1.5-.7Z"/>
  <path class="cls-1" d="M31.4,36h3.2c-.3.7-.7,1.2-1.2,1.5-.5.3-1.1.4-1.9.4-1.2,0-2.2-.3-3-1.1-.8-.8-1.2-1.8-1.2-2.8s.3-1.9,1.1-2.7c.8-.7,1.8-1.1,2.8-1.1s2.4.4,3.4,1.5l1.5-1.5c-.7-.7-1.3-1.2-1.9-1.6-.9-.4-1.9-.5-2.8-.5-1.9,0-3.4.7-4.6,2-.9,1.1-1.5,2.4-1.5,3.9s.3,2.2.8,3.1c.5.9,1.2,1.6,2.2,2.2.8.5,1.9.8,3.1.8s2-.3,2.8-.7c.8-.4,1.5-1.1,2-2,.5-.9.8-1.9.8-2.8v-.5h-5.7v2Z"/>
  <path class="cls-1" d="M43.6,28.2c-1.1,0-2,.1-3.1.9-.9.5-1.6,1.2-2.2,2.2s-.8,1.9-.8,3c0,1.6.7,3,1.8,4.2,1.2,1.2,2.6,1.8,4.3,1.8s3.1-.5,4.2-1.8c1.2-1.1,1.8-2.6,1.8-4.2s-.5-3.1-1.8-4.3-2.6-1.8-4.2-1.8ZM46.1,36.8c-.7.7-1.5,1.1-2.6,1.1s-1.8-.3-2.4-.8c-.9-.7-1.3-1.8-1.3-3s.4-2.2,1.1-2.8c.8-.7,1.6-1.1,2.7-1.1s1.9.4,2.6,1.2c.7.7,1.1,1.6,1.1,2.7s-.4,1.9-1.1,2.7Z"/>
  <polygon class="cls-1" points="54.2 36.5 51.4 28.4 49.1 28.4 53.1 39.8 55.2 39.8 59.3 28.4 57.1 28.4 54.2 36.5"/>
  <path class="cls-1" d="M80.8,34c-.2-.4-.6-.7-1.1-1s-1.1-.5-1.9-.7l-2.2-.5c-.7-.1-1.2-.3-1.4-.6-.2-.2-.4-.5-.4-.9s0-.5.2-.6c.1-.2.3-.4.5-.5.2-.1.4-.2.7-.3.3,0,.6-.1.9-.1s.9,0,1.2.2.6.3.9.6c.2.3.4.6.4,1.1h2.6c0-.7-.2-1.4-.6-2-.4-.6-1-1.1-1.7-1.4-.8-.3-1.7-.5-2.8-.5s-1.8.2-2.5.5c-.8.3-1.3.8-1.8,1.4-.4.6-.7,1.3-.6,2.1,0,1,.3,1.8.9,2.4.6.6,1.3,1,2.3,1.2l2.2.5c.4,0,.8.2,1.1.3.3.1.6.3.8.5.2.2.3.5.3.8s-.1.7-.4.9c-.2.2-.5.4-.9.5-.4.1-.8.2-1.3.2s-.9,0-1.3-.2c-.4-.1-.7-.3-.9-.6-.2-.3-.4-.6-.5-1h-2.7c0,.6.3,1.2.6,1.7.3.5.7.9,1.3,1.2.5.3,1.1.6,1.7.7.6.2,1.2.2,1.9.2,1,0,1.9-.2,2.7-.5.8-.3,1.4-.8,1.8-1.3.4-.6.7-1.2.7-1.9s0-.7-.1-1.1c0-.4-.2-.8-.5-1.2Z"/>
  <path class="cls-1" d="M87,37.9c-.1,0-.2-.1-.3-.2,0-.1,0-.3,0-.5v-4.9s2,0,2,0v-1.8h-2.1v-2.8h-1.9l-.7,2.8h-1.6v1.8h1.5v5c0,.5,0,.9.3,1.3.2.4.5.7.9.9.4.2,1.1.3,1.9.3s.8,0,1.1,0c.3,0,.4,0,.6-.2v-1.6h-1.2c-.2,0-.3,0-.5,0Z"/>
  <path class="cls-1" d="M96.9,30.7c-.6-.2-1.3-.4-2.3-.4s-1.5.1-2.1.3c-.6.2-1.1.5-1.4,1-.4.4-.5,1-.6,1.6h2.2c.1-.4.4-.7.7-.9.3-.2.7-.3,1.1-.3.5,0,.9.1,1.1.3.2.2.4.6.4,1v.6h-1.1c-1.6,0-2.8.3-3.6.8-.8.5-1.1,1.3-1.1,2.3s.1,1.1.4,1.5c.3.4.6.7,1.1,1,.5.2,1,.3,1.6.3s1.2-.1,1.7-.4c.5-.3.9-.7,1.2-1.4l.2,1.6h2.2v-6.5c0-.6-.1-1.1-.4-1.6-.3-.4-.7-.8-1.2-1ZM96,36.6c0,.2,0,.4-.2.6-.1.2-.2.3-.4.5-.2.1-.4.3-.6.3-.2,0-.5.1-.7.1-.4,0-.8-.1-1.1-.4-.3-.2-.4-.6-.4-1s.1-.7.3-.9c.2-.2.5-.4.9-.5.4,0,.8-.2,1.2-.2h.9s0,1.3,0,1.3Z"/>
  <path class="cls-1" d="M104.4,37.9c-.1,0-.2-.1-.3-.2,0-.1,0-.3,0-.5v-4.9s2,0,2,0v-1.8h-2.1v-2.8h-1.9l-.7,2.8h-1.6v1.8h1.5v5c0,.5,0,.9.3,1.3.2.4.5.7.9.9.4.2,1.1.3,1.9.3s.8,0,1.1,0c.3,0,.4,0,.6-.2v-1.6h-1.2c-.2,0-.3,0-.5,0Z"/>
  <path class="cls-1" d="M114,30.9c-.6-.4-1.4-.6-2.4-.6s-1.7.2-2.4.6c-.7.4-1.2,1-1.5,1.8-.4.7-.5,1.6-.5,2.5s.2,1.8.6,2.5c.4.7.9,1.2,1.6,1.6.7.4,1.5.6,2.4.6s1.3-.1,1.9-.4c.6-.2,1.1-.6,1.5-1.1.4-.5.7-1,.8-1.7h-2.3c-.1.4-.4.7-.7.9-.3.2-.7.3-1.2.3s-.8,0-1.1-.3c-.3-.2-.5-.5-.7-.8-.2-.3-.2-.8-.2-1.2h6.2v-.7c0-.9-.2-1.7-.5-2.4-.3-.7-.8-1.3-1.4-1.6ZM109.8,34.2c0-.3,0-.7.2-1s.4-.6.6-.8c.3-.2.6-.3,1-.3s.8,0,1,.3c.3.2.5.4.6.7.1.3.2.6.2,1h-3.8Z"/>
  <path class="cls-1" d="M127.7,30.9c-.7-.4-1.5-.6-2.4-.6s-1.7.2-2.4.6c-.7.4-1.2,1-1.6,1.7-.4.7-.5,1.6-.5,2.5s.2,1.8.5,2.5c.4.7.9,1.3,1.6,1.6s1.5.6,2.4.6,1.7-.2,2.4-.6c.7-.4,1.2-1,1.5-1.7.4-.7.5-1.5.5-2.5s-.2-1.8-.5-2.6c-.4-.7-.9-1.3-1.5-1.7ZM127.1,36.5c-.1.4-.3.8-.6,1.1s-.6.4-1.1.4-.9-.1-1.1-.4c-.3-.3-.5-.6-.6-1.1-.1-.4-.2-.9-.2-1.4s0-1,.2-1.4c.1-.4.3-.8.6-1,.3-.3.7-.4,1.1-.4s.9.1,1.1.4.5.6.6,1.1c.1.4.2.9.2,1.4s0,1-.2,1.4Z"/>
  <path class="cls-1" d="M135.1,28.8c.1-.2.3-.2.7-.2h1.2v-1.7h-2.1c-.8,0-1.4.2-1.9.6-.4.4-.7,1-.7,1.7v1.3h-1.7v1.8h1.7v7.4h2.6v-7.4h1.9v-1.8h-2v-.9c0-.4,0-.6.2-.8Z"/>
  <path class="cls-1" d="M146.2,29.2c.4-.3,1-.4,1.6-.4s.9,0,1.3.3c.4.2.6.5.9.8.2.3.4.7.5,1.2h2.7c0-.8-.4-1.6-.8-2.3-.5-.7-1.1-1.2-1.8-1.6-.8-.4-1.6-.6-2.6-.6s-2.2.3-3.1.8c-.9.5-1.5,1.3-2,2.2-.5,1-.7,2.1-.7,3.5s.2,2.5.7,3.5c.5,1,1.1,1.8,2,2.4.9.6,1.9.8,3.1.8s1.7-.1,2.3-.4c.6-.2,1.2-.6,1.6-1,.4-.4.7-.9.9-1.5.2-.6.4-1.1.4-1.8h-2.7c0,.5-.2.9-.5,1.2-.2.4-.5.7-.9.9-.4.2-.8.3-1.3.3-.9,0-1.6-.4-2.1-1.1s-.8-1.9-.8-3.5.1-1.9.3-2.6c.2-.6.6-1.1,1-1.4Z"/>
  <path class="cls-1" d="M161.1,30.7c-.6-.2-1.3-.4-2.3-.4s-1.5.1-2.1.3c-.6.2-1.1.5-1.4,1-.4.4-.5,1-.6,1.6h2.2c.1-.4.4-.7.7-.9.3-.2.7-.3,1.1-.3.5,0,.9.1,1.1.3.2.2.4.6.4,1v.6h-1.1c-1.6,0-2.8.3-3.6.8-.8.5-1.1,1.3-1.1,2.3s.1,1.1.4,1.5c.3.4.6.7,1.1,1,.5.2,1,.3,1.6.3s1.2-.1,1.7-.4c.5-.3.9-.7,1.2-1.4l.2,1.6h2.2v-6.5c0-.6-.1-1.1-.4-1.6-.3-.4-.7-.8-1.2-1ZM160.2,36.6c0,.2,0,.4-.2.6-.1.2-.2.3-.4.5-.2.1-.4.3-.6.3-.2,0-.5.1-.7.1-.4,0-.8-.1-1.1-.4-.3-.2-.4-.6-.4-1s.1-.7.3-.9c.2-.2.5-.4.9-.5.4,0,.8-.2,1.2-.2h.9s0,1.3,0,1.3Z"/>
  <path class="cls-1" d="M167.8,37.6c-.1-.2-.2-.5-.2-.8v-10.3h-2.5v10.7c0,.3,0,.7,0,1,0,.3.2.6.4.9.2.3.5.5.9.6.4.2.9.2,1.6.2s.4,0,.5,0c.2,0,.4,0,.5-.2v-1.6h-.4c-.4,0-.7-.2-.8-.4Z"/>
  <rect class="cls-1" x="170.8" y="26.8" width="2.5" height="2.3"/>
  <rect class="cls-1" x="170.9" y="30.5" width="2.5" height="9.2"/>
  <path class="cls-1" d="M179.5,28.8c.1-.2.3-.2.7-.2h1.2v-1.7h-2.1c-.8,0-1.4.2-1.9.6-.4.4-.7,1-.7,1.7v1.3h-1.7v1.8h1.7v7.4h2.6v-7.4h1.9v-1.8h-2v-.9c0-.4,0-.6.2-.8Z"/>
  <path class="cls-1" d="M189.1,30.9c-.7-.4-1.5-.6-2.4-.6s-1.7.2-2.4.6c-.7.4-1.2,1-1.6,1.7-.4.7-.5,1.6-.5,2.5s.2,1.8.5,2.5c.4.7.9,1.3,1.6,1.6.7.4,1.5.6,2.4.6s1.7-.2,2.4-.6c.7-.4,1.2-1,1.5-1.7.4-.7.5-1.5.5-2.5s-.2-1.8-.5-2.6c-.4-.7-.9-1.3-1.5-1.7ZM188.5,36.5c-.1.4-.3.8-.6,1.1-.3.3-.6.4-1.1.4s-.9-.1-1.1-.4c-.3-.3-.5-.6-.6-1.1-.1-.4-.2-.9-.2-1.4s0-1,.2-1.4c.1-.4.3-.8.6-1,.3-.3.7-.4,1.1-.4s.9.1,1.1.4c.3.3.5.6.6,1.1.1.4.2.9.2,1.4s0,1-.2,1.4Z"/>
  <path class="cls-1" d="M198.4,30.3c-.5,0-.9,0-1.3.3-.4.2-.7.5-1,.8-.3.4-.5.8-.6,1.2v-2.2h-2.5v9.2h2.6v-5c0-.3,0-.6.2-.8s.3-.5.5-.6c.2-.2.5-.3.9-.4.4,0,.8,0,1.3,0,0,0,.1,0,.2,0,0,0,.1,0,.2,0v-2.5s0,0-.2,0c0,0-.2,0-.2,0Z"/>
  <path class="cls-1" d="M207,30.7c-.5-.2-1-.3-1.6-.3s-.9,0-1.2.2c-.4.1-.6.3-.9.5-.2.2-.4.4-.6.7v-1.3h-2.6v9.2h2.6v-5.9c0-.3,0-.5.2-.7.2-.2.4-.4.6-.5.3-.1.5-.2.8-.2.4,0,.8.1,1.1.4.3.2.5.6.5,1.1v5.8h2.6v-6.1c0-.8-.2-1.4-.5-1.8-.3-.5-.7-.8-1.2-1Z"/>
  <rect class="cls-1" x="210.9" y="26.8" width="2.5" height="2.3"/>
  <rect class="cls-1" x="210.9" y="30.5" width="2.5" height="9.2"/>
  <path class="cls-1" d="M223.3,31.7c-.3-.4-.7-.8-1.2-1-.6-.2-1.3-.4-2.3-.4s-1.5.1-2.1.3c-.6.2-1.1.5-1.4,1-.4.4-.5,1-.6,1.6h2.2c.1-.4.4-.7.7-.9.3-.2.7-.3,1.1-.3.5,0,.9.1,1.1.3.2.2.4.6.4,1v.6h-1.1c-1.6,0-2.8.3-3.6.8-.8.5-1.1,1.3-1.1,2.3s.1,1.1.4,1.5c.3.4.6.7,1.1,1,.5.2,1,.3,1.6.3s1.2-.1,1.7-.4c.5-.3.9-.7,1.2-1.4l.2,1.6h2.2v-6.5c0-.6-.1-1.1-.4-1.6ZM221.2,36.6c0,.2,0,.4-.2.6-.1.2-.2.3-.4.5-.2.1-.4.3-.6.3-.2,0-.5.1-.7.1-.4,0-.8-.1-1.1-.4-.3-.2-.4-.6-.4-1s.1-.7.3-.9c.2-.2.5-.4.9-.5.4,0,.8-.2,1.2-.2h.9s0,1.3,0,1.3Z"/>
  <path class="cls-1" d="M73.8,16c.7.4,1.6.7,2.6.7s1.9-.2,2.6-.7c.7-.4,1.3-1.1,1.7-1.9.4-.8.6-1.8.6-2.9s-.2-2.1-.6-3c-.4-.8-1-1.5-1.7-1.9-.7-.4-1.6-.7-2.6-.7s-1.9.2-2.6.7c-.7.4-1.3,1.1-1.7,1.9-.4.8-.6,1.8-.6,3s.2,2.1.6,2.9c.4.8,1,1.5,1.7,1.9ZM74.2,9c.2-.6.5-1,.9-1.2.4-.3.8-.4,1.4-.4s1,.1,1.4.4c.4.3.7.7.9,1.2.2.6.3,1.3.3,2.2s-.1,1.6-.3,2.1c-.2.5-.5.9-.9,1.2-.4.2-.8.4-1.4.4s-1-.1-1.4-.4c-.4-.2-.7-.6-.9-1.2-.2-.5-.3-1.2-.3-2.1s.1-1.6.3-2.2Z"/>
  <path class="cls-1" d="M83.9,16.5h2.2v-6.2h1.6v-1.5h-1.7v-.7c0-.3,0-.5.2-.7.1-.1.3-.2.6-.2h1v-1.4h-1.8c-.7,0-1.2.2-1.5.5-.4.3-.5.8-.5,1.4v1.1h-1.4v1.5h1.4v6.2Z"/>
  <rect class="cls-1" x="95.1" y="8.8" width="2.1" height="7.7"/>
  <rect class="cls-1" x="95.1" y="5.8" width="2.1" height="2"/>
  <path class="cls-1" d="M92.1,16.5v-6.2h1.6v-1.5h-1.7v-.7c0-.3,0-.5.2-.7.1-.1.3-.2.6-.2h1v-1.4h-1.8c-.7,0-1.2.2-1.5.5-.4.3-.5.8-.5,1.4v1.1h-1.4v1.5h1.4v6.2h2.2Z"/>
  <path class="cls-1" d="M102.4,16.7c.6,0,1.2-.1,1.6-.4.5-.2.8-.6,1.1-1,.3-.4.4-.9.5-1.4h-1.8c0,.2,0,.4-.2.6-.1.2-.3.4-.5.5-.2.1-.4.2-.7.2-.5,0-1-.2-1.3-.7-.3-.4-.5-1-.5-1.8s.2-1.4.5-1.8c.3-.4.7-.6,1.2-.6s.5,0,.7.2c.2.1.4.3.5.5.1.2.2.4.2.6h1.8c0-.5-.2-1-.5-1.5-.3-.4-.6-.8-1.1-1.1-.5-.3-1-.4-1.7-.4s-1.4.2-1.9.5c-.6.3-1,.8-1.3,1.4-.3.6-.5,1.3-.5,2.1s.2,1.5.5,2.1c.3.6.8,1,1.3,1.4.6.3,1.2.5,1.9.5Z"/>
  <rect class="cls-1" x="107.3" y="5.8" width="2.1" height="2"/>
  <rect class="cls-1" x="107.3" y="8.8" width="2.1" height="7.7"/>
  <path class="cls-1" d="M116.6,9c-.5-.2-1.1-.3-1.9-.3s-1.2,0-1.7.3c-.5.2-.9.4-1.2.8-.3.4-.5.8-.5,1.4h1.8c.1-.4.3-.6.6-.8.3-.1.6-.2.9-.2.4,0,.7,0,1,.3.2.2.3.5.3.8v.5h-1c-1.4,0-2.4.3-3,.7-.6.4-.9,1.1-.9,1.9s.1.9.3,1.3c.2.3.5.6.9.8.4.2.8.3,1.3.3s1-.1,1.4-.3c.4-.2.7-.6,1-1.2l.2,1.3h1.8v-5.4c0-.5-.1-.9-.3-1.3-.2-.4-.6-.6-1-.8ZM115.8,14c0,.2,0,.3-.1.5,0,.2-.2.3-.4.4-.1.1-.3.2-.5.3-.2,0-.4.1-.6.1-.4,0-.7-.1-.9-.3-.2-.2-.4-.5-.4-.8s0-.6.3-.7c.2-.2.4-.3.8-.4.3,0,.6-.1,1-.1h.8s0,1.1,0,1.1Z"/>
  <path class="cls-1" d="M122.3,16.7c.1,0,.3,0,.5,0,.2,0,.3,0,.5-.1v-1.3h-.4c-.3,0-.6-.2-.7-.3-.1-.2-.2-.4-.2-.7V5.5h-2.1v8.9c0,.3,0,.6,0,.8,0,.3.1.5.3.7.2.2.4.4.7.5.3.1.8.2,1.3.2Z"/>
  <polygon class="cls-1" points="135 13.6 134.9 13.6 133.5 8.8 132 8.8 130.5 13.6 130.5 13.6 129 8.8 127.1 8.8 129.6 16.5 131.3 16.5 132.7 11.9 134.1 16.5 135.8 16.5 138.4 8.8 136.4 8.8 135 13.6"/>
  <path class="cls-1" d="M144.2,16.4c.5-.2.9-.5,1.3-.9.3-.4.6-.9.6-1.4h-2c-.1.4-.3.6-.6.8-.3.2-.6.2-1,.2s-.6,0-.9-.2c-.2-.2-.4-.4-.6-.7-.1-.3-.2-.6-.2-1h5.2v-.6c0-.8-.1-1.4-.4-2-.3-.6-.7-1-1.2-1.4-.5-.3-1.2-.5-2-.5s-1.5.2-2,.5c-.6.4-1,.8-1.3,1.5-.3.6-.4,1.3-.4,2.1s.2,1.5.5,2.1c.3.6.8,1,1.3,1.4.6.3,1.2.5,2,.5s1-.1,1.5-.3ZM141.2,11.1c.1-.3.3-.5.5-.6.2-.2.5-.2.9-.2s.6,0,.9.2c.2.2.4.4.5.6.1.3.2.5.2.8h-3.1c0-.3,0-.6.2-.8Z"/>
  <path class="cls-1" d="M154.8,14.8c.2-.6.4-1.3.4-2.1,0-1.3-.3-2.2-.8-2.9s-1.3-1-2.2-1-.5,0-.8,0c-.2,0-.5.1-.7.3-.2.1-.4.2-.5.4-.1.1-.3.3-.4.5v-4.4h-2.2v11h1.6l.2-1.6c0,.2.2.4.3.6.1.2.3.4.5.6.2.2.4.3.7.4.3,0,.6.1,1,.1.7,0,1.3-.2,1.8-.5.5-.3.9-.8,1.1-1.4ZM152.6,14.5c-.3.4-.7.6-1.2.6s-1-.2-1.2-.6c-.3-.4-.4-1-.4-1.9,0-.5,0-1,.2-1.3.1-.3.3-.6.5-.8.2-.2.5-.3.9-.3s.9.2,1.2.6c.3.4.4,1,.4,1.8s-.2,1.5-.5,1.9Z"/>
  <path class="cls-1" d="M162.5,13c-.1-.2-.4-.4-.6-.6-.3-.2-.6-.3-1.1-.4l-1.2-.3c-.4,0-.7-.2-.9-.3-.2-.1-.3-.3-.3-.5s.1-.5.4-.6c.2-.1.6-.2.9-.2s.7,0,.9.2c.2.2.4.4.4.7h1.8c0-.8-.3-1.3-.9-1.8-.6-.4-1.3-.6-2.3-.6s-1.3.1-1.8.3c-.5.2-.8.5-1.1.9-.2.4-.4.8-.4,1.2,0,.6.2,1.1.6,1.5.4.3,1,.6,1.6.7l1.4.3c.3,0,.6.2.7.3.2.1.2.3.2.5s-.1.5-.4.6c-.3.1-.6.2-1,.2s-.4,0-.6-.1c-.2,0-.4-.2-.6-.3-.2-.2-.3-.4-.4-.6h-1.9c0,.6.3,1.1.7,1.5.3.4.8.7,1.3.8.5.2,1,.3,1.5.3s1.2,0,1.7-.3c.5-.2.9-.5,1.1-.8.3-.4.4-.8.4-1.3s0-.4,0-.6c0-.2-.2-.4-.3-.6Z"/>
  <rect class="cls-1" x="164.5" y="8.8" width="2.1" height="7.7"/>
  <rect class="cls-1" x="164.5" y="5.8" width="2.1" height="2"/>
  <path class="cls-1" d="M172.8,16.6c.2,0,.4,0,.5-.1v-1.3h-1c-.2,0-.3,0-.4,0-.1,0-.2,0-.2-.2,0,0,0-.2,0-.4v-4.1s1.7,0,1.7,0v-1.5h-1.7v-2.3h-1.5l-.5,2.3h-1.3v1.5h1.2v4.2c0,.4,0,.8.2,1.1.1.3.4.6.8.7.4.2.9.3,1.6.3s.7,0,.9,0Z"/>
  <path class="cls-1" d="M179.9,9.2c-.5-.3-1.2-.5-2-.5s-1.5.2-2,.5c-.6.4-1,.8-1.3,1.5-.3.6-.4,1.3-.4,2.1s.2,1.5.5,2.1c.3.6.8,1,1.3,1.4.6.3,1.2.5,2,.5s1-.1,1.5-.3c.5-.2.9-.5,1.3-.9.3-.4.6-.9.6-1.4h-2c-.1.4-.3.6-.6.8-.3.2-.6.2-1,.2s-.6,0-.9-.2c-.2-.2-.4-.4-.6-.7-.1-.3-.2-.6-.2-1h5.2v-.6c0-.8-.1-1.4-.4-2-.3-.6-.7-1-1.2-1.4ZM176.4,11.9c0-.3,0-.6.2-.8.1-.3.3-.5.5-.6.2-.2.5-.2.9-.2s.6,0,.9.2c.2.2.4.4.5.6.1.3.2.5.2.8h-3.1Z"/>
</svg>