<?xml version="1.0" encoding="UTF-8"?>
<svg id="Layer_1" data-name="Layer 1" xmlns="http://www.w3.org/2000/svg" xmlns:xlink="http://www.w3.org/1999/xlink" viewBox="0 0 3000 836.7">
  <defs>
    <linearGradient id="grad1" x1="1016.9" y1="394.6" x2="1016.9" y2="836.4" gradientUnits="userSpaceOnUse">
      <stop offset="0" stop-color="#8b5a24" />
      <stop offset="1" stop-color="#441a12" />
    </linearGradient>
  </defs>

  <path fill="#B91F39" d="M1550 250l-28 -80l-28 80h-84l68 52l-24 80l68 -52l68 52l-24 -80l68 -52h-84Z" />
  <g fill="#2f85b0">
    <path d="M1901 291c-48 0-93 19-126 54-34 36-53 87-53 143 0 112 79 197 184 197 47 0 82-15 116-48l3-3v4c0 34 0 63-25 86-18 17-48 26-83 26-42 0-71-11-90-33h-104c27 79 93 119 198 119 59 0 105-14 139-43 41-35 58-82 58-162V302h-94v44l-3-3c-38-36-76-52-121-52ZM2030 489c0 65-43 110-106 110s-108-47-108-111 45-111 106-111 107 46 107 112Z" />
    <path d="" />
  </g>
  <path fill="#326130" d="M422 836c89 0 155-18 214-50l13-32c-21 3-40 6-55 6h-7l-7-2c-15-4-33-14-54-30-8-6-20-16-30-30-22 5-46 8-72 8-117 0-209-55-256-144H23c54 167 203 274 399 274Z" />

  <path fill="url(#grad1)" d="M1454 635c-1-23-20-71-37-86 7-21-3-32-9-39-3-4-15-7-20-9-18-27-56-52-110-68-35-10-76-17-122-18-2 0-4 0-7 0-5 0-10 0-16 1-43 2-108 12-123 12h-1c-6 0-22-7-41-15-22-9-48-18-67-18-2 0-4 0-6 0-18 2-60 29-76 38-11 6-45 21-55 27-2 1-7 1-9 1-25 8-42 37-50 41-1-3-10-16-23-16-2 0-3 0-5 1-16 7-15 18-15 24-3-1-8-7-16-7-3 0-7 1-11 3-18 9-8 25-12 30-6 8-27 29-35 43-3 6 0 21-2 27-7 17-44 47-48 53-1 3 9 13 21 23 11 9 24 17 32 19 23 0 71-9 82-11h0c3 0 9 2 16 4 6 2 14 3 23 3 2 0 5 0 7 0 11-2 19-7 25-13 10-10 16-23 27-28 9-4 20-7 30-7 5 0 9 1 13 2-18 33-14 77-21 83-7 7-13 14-17 21-16 24-18 46-26 51-2 1-5 2-8 2-9 0-20-4-29-4-2 0-4 0-5 1-10 4-33 25-24 30 3 0 40 0 79 0h34c1 0 22-19 23-19h55c5-1 5-9 29-21 27-11 14-63 49-103 0 0 11-10 13-10 12 0 32 22 105 22s90-25 100-25c5 0 15 8 15 10-33 55 49 117 43 121 0 0-1 0-1 0-3 0-11-4-23-4-5 0-10 1-16 3-13 4-24 21-14 26 3 0 35 0 68 0 18 0 36 0 49 0 4-1 4-8 4-16 0-5 0-10 1-13 3-4 6-20 15-31 9-9 15-16 22-16 3 0 6 1 9 4 15 8 52 13 73 21 9 3 15 7 15 11 0 3-2 3-5 3-1 0-3 0-4 0-5-1-12-2-18-2-3 0-7 1-10 2-10 4-19 14-22 21-1 4-1 7 3 8h87c10 0 6-20 29-64 3-12-28-30-33-53-3-16-7-76-7-76Z" />

  <g fill="#326130">
    <path d="M1925 599c-34 0-63-14-82-37h-107c26 73 91 122 171 122 47 0 82-15 116-48l3-3v4c0 34 0 63-25 86-18 17-48 26-83 26-42 0-71-11-90-33h-104c27 79 93 119 198 119 59 0 105-14 139-43 41-35 58-82 58-162v-69h-113c-19 23-47 37-81 37Z" />
    <path d="M2397 606c-37 0-67-17-89-44h-103c27 78 100 133 188 133s163-55 191-133h-103c-19 27-50 44-89 44Z" />
    <polygon points="2777 685 2837 685 2889 562 2724 562 2777 685" />
  </g>
</svg>
