<?xml version="1.0" encoding="utf-8"?>
<!-- Generator: Adobe Illustrator 27.4.1, SVG Export Plug-In . SVG Version: 6.00 Build 0)  -->
<svg
  version="1.1"
  xmlns="http://www.w3.org/2000/svg"
  xmlns:xlink="http://www.w3.org/1999/xlink"
  viewBox="0 0 419 240"
  xml:space="preserve">
  <g>
    <path style="fill:#B91F39" d="M389,78l-6,-20l-6,20l-20,0l16,13l-6,20l16,-13l16,13l-6,-20l16,-13l-20,0Z" />
    <path
      style="fill:#2F85B0"
      d="M223,100c2,0,3,0,4,0c7,0,15,3,22,6c1,0,2,1,3,1c0,0,1,0,1,1l15-39l15,38c1,0,1,0,2,0h0h0h0c1,0,3,0,4,0c0,0,1,0,1,0c0,0,0,0,0,0h0c10,0,19,1,28,3l-33-86H250l-30,79C221,100,222,100,223,100z" />
    <path
      style="fill:#2F85B0"
      d="M106,225c22,0,39-4,54-13l3-8c-5,1-10,1-14,1h-2l-2,0c-4-1-8-3-13-7c-2-2-5-4-8-7c-6,1-12,2-18,2c-43,0-73-30-73-73c0-41,32-72,72-72c23,0,43,9,61,28L180,42c-21-17-47-27-74-27c-29,0-55,10-75,29C11,63,0,90,0,120C0,182,44,225,106,225z" />
    <path
      style="fill:#326130"
      d="M106,225c22,0,39-4,54-13l3-8c-5,1-10,1-14,1h-2l-2,0c-4-1-8-3-13-07c-2-2-5-4-8-7c-6,1-12,2-18,2c-29,0-53-14-65-36H6C19,198,57,225,106,225z" />
    <path
      class="st6"
      d="
      M36.5,17.4
      c0-0.6-0.5-1.8-0.9-2.2
      c0.2-0.5-0.1-0.8-0.2-1
      c-0.1-0.1-0.4-0.2-0.5-0.2
      c-0.5-0.7-1.4-1.3-2.8-1.7
		c-0.9-0.3-1.9-0.4-3.1-0.4
    c-0.1,0-0.1,0-0.2,0
    c-0.1,0-0.2,0-0.4,0
    c-1.1,0.1-2.7,0.3-3.1,0.3
    h0
    c-0.2,0-0.6-0.2-1-0.4
		c-0.6-0.2-1.2-0.5-1.7-0.5
    c-0.1,0-0.1,0-0.1,0
    c-0.5,0.1-1.5,0.7-1.9,0.9
    c-0.3,0.1-1.1,0.5-1.4,0.7
    c-0.1,0-0.2,0-0.2,0
		c-0.6,0.2-1.1,0.9-1.2,1
    c0-0.1-0.3-0.4-0.6-0.4
    c0,0-0.1,0-0.1,0
    c-0.4,0.2-0.4,0.5-0.4,0.6
    c-0.1,0-0.2-0.2-0.4-0.2
		c-0.1,0-0.2,0-0.3,0.1
    c-0.4,0.2-0.2,0.6-0.3,0.8
    c-0.2,0.2-0.7,0.7-0.9,1.1
    c-0.1,0.1,0,0.5-0.1,0.7
    c-0.2,0.4-1.1,1.2-1.2,1.3
		c0,0.1,0.2,0.3,0.5,0.6
    c0.3,0.2,0.6,0.4,0.8,0.5
    c0.6,0,1.8-0.2,2.1-0.3
    h0
    c0.1,0,0.2,0.1,0.4,0.1
    c0.2,0,0.3,0.1,0.6,0.1
		c0.1,0,0.1,0,0.2,0
    c0.3-0.1,0.5-0.2,0.6-0.3
    c0.3-0.3,0.4-0.6,0.7-0.7
    c0.2-0.1,0.5-0.2,0.7-0.2
    c0.1,0,0.2,0,0.3,0.1
		C20,18.7,20.2,19.8,20,20
    c-0.2,0.2-0.3,0.4-0.4,0.5
    c-0.4,0.6-0.5,1.2-0.6,1.3
    c-0.1,0-0.1,0-0.2,0
    c-0.2,0-0.5-0.1-0.7-0.1
		c-0.1,0-0.1,0-0.1,0
    c-0.2,0.1-0.8,0.6-0.6,0.7
    c0.1,0,1,0,2,0
    h0.9
    c0,0,0.6-0.5,0.6-0.5
    h1.4
    c0.1,0,0.1-0.2,0.7-0.5
		c0.7-0.3,0.4-1.6,1.2-2.6
    c0,0,0.3-0.2,0.3-0.2
    c0.3,0,0.8,0.5,2.6,0.5
    c1.8,0,2.3-0.6,2.5-0.6
    c0.1,0,0.4,0.2,0.4,0.3
		c-0.8,1.4,1.2,2.9,1.1,3
    c0,0,0,0,0,0
    c-0.1,0-0.3-0.1-0.6-0.1
    c-0.1,0-0.3,0-0.4,0.1
    c-0.3,0.1-0.6,0.5-0.3,0.7
    c0.1,0,0.9,0,1.7,0
		c0.5,0,0.9,0,1.2,0
    c0.1,0,0.1-0.2,0.1-0.4
    c0-0.1,0-0.2,0-0.3
    c0.1-0.1,0.2-0.5,0.4-0.8
    c0.2-0.2,0.4-0.4,0.6-0.4
    c0.1,0,0.1,0,0.2,0.1
		c0.4,0.2,1.3,0.3,1.8,0.5
    c0.2,0.1,0.4,0.2,0.4,0.3
    c0,0.1-0.1,0.1-0.1,0.1
    c0,0-0.1,0-0.1,0
    c-0.1,0-0.3-0.1-0.5-0.1
		c-0.1,0-0.2,0-0.2,0
    c-0.2,0.1-0.5,0.3-0.5,0.5
    c0,0.1,0,0.2,0.1,0.2
    h2.2
    c0.3,0,0.2-0.5,0.7-1.6
    c0.1-0.3-0.7-0.7-0.8-1.3
		C36.6,19,36.5,17.5,36.5,17.4
    L36.5,17.4z" />
  </g>
</svg>
