<?xml version="1.0" encoding="UTF-8"?>
<svg id="Layer_1" data-name="Layer 1" xmlns="http://www.w3.org/2000/svg" xmlns:xlink="http://www.w3.org/1999/xlink" viewBox="0 0 300 83.67">
  <defs>
    <linearGradient id="grad1" x1="101.69" y1="39.46" x2="101.69" y2="83.64" gradientUnits="userSpaceOnUse">
      <stop offset="0" stop-color="#8b5a24" />
      <stop offset="1" stop-color="#441a12" />
    </linearGradient>
  </defs>

  <path fill="#b91f39" d="M154.79 24.56h-.01c-.73-2.26-2.41-7.23-2.66-7.36-.82 2.5-1.64 4.99-2.44 7.48-.09.28-.28.29-.51.29-1.78-.03-7.09.09-8.1.09.18.16 4.4 3.17 6.47 4.63.26.18.39.31.27.69-.66 1.95-2.28 6.84-2.28 7.35.15.05 4.12-2.8 6.04-4.16q.77-.55 1.54 0c.06.04 4.05 2.84 6.01 4.21.11-.36-1.61-5.23-2.36-7.44-.1-.32-.08-.45.21-.66.34-.24 6.26-4.36 6.35-4.72h-7.88c-.31 0-.52 0-.64-.4Z" />

  <g fill="#2f85b0">
    <path d="M190.14 29.13c-4.83 0-9.3 1.91-12.58 5.37-3.41 3.59-5.29 8.65-5.29 14.25 0 11.23 7.9 19.7 18.39 19.7 4.66 0 8.23-1.47 11.6-4.75l.27-.26v.37c0 3.36 0 6.25-2.45 8.55-1.82 1.67-4.78 2.59-8.33 2.59-4.19 0-7.06-1.06-9.02-3.34h-10.4c2.65 7.9 9.31 11.9 19.78 11.9 5.94 0 10.5-1.39 13.93-4.25 4.14-3.53 5.83-8.22 5.83-16.17V30.15h-9.36v4.43l-.27-.25c-3.82-3.59-7.56-5.19-12.11-5.19ZM203.02 48.9c0 6.47-4.34 10.99-10.56 10.99s-10.77-4.65-10.77-11.07 4.47-11.14 10.63-11.14 10.7 4.61 10.7 11.21Z" />
    <path d="M253.89 34.95c-3.83-3.75-8.93-5.82-14.37-5.82-10.94 0-19.84 9.06-19.84 20.2s8.75 20.13 19.91 20.13 20.28-8.87 20.28-20.2c0-5.45-2.12-10.53-5.98-14.31ZM239.66 60.62c-6.22 0-10.56-4.67-10.56-11.36s4.44-11.28 10.56-11.28 10.78 4.67 10.78 11.36-4.43 11.28-10.78 11.28Z" />
    <polygon points="290.53 30.15 280.68 53.16 270.83 30.15 261.28 30.15 277.65 68.45 283.7 68.45 300 30.15 290.53 30.15" />
    <path d="M88.79 33.88c.61-.1 1.12-.1 1.43-.1 2.83 0 5.89 1.06 8.76 2.21.38.15.74.3 1.09.44.16.06.33.13.5.2l6.05-15.66 5.78 14.96c.24-.02.49-.03.72-.05h.04s.04 0 .04 0h.11c.55-.03 1.12-.05 1.67-.05.17 0 .34 0 .51 0 .06 0 .12 0 .18 0h.11c3.91.08 7.62.52 11.08 1.32L113.68 3.01h-14.34l-12.05 31.23c.51-.16 1.02-.29 1.5-.36Z" />

    <path d="M42.22 83.62c8.86 0 15.54-1.75 21.43-4.99l1.27-3.22c-2.1.32-4.04.57-5.53.57h-.71l-.69-.18c-1.53-.39-3.33-1.39-5.36-2.98-.77-.61-2.03-1.62-2.99-2.95-2.22.51-4.6.79-7.2.79-17.12 0-29.07-11.91-29.07-28.96 0-16.11 12.62-28.73 28.73-28.73 9.02 0 17.03 3.6 24.43 10.98l5.24-13.3C63.59 3.82 53.25 0 42.45 0c-11.38 0-21.95 4.05-29.77 11.41C4.55 19.06.07 29.81.07 41.7c0 24.68 17.33 41.92 42.15 41.92Z" />
  </g>
  <path fill="#326130" d="M42.22 83.62c8.86 0 15.54-1.75 21.43-4.99l1.27-3.22c-2.1.32-4.04.57-5.53.57h-.71l-.69-.18c-1.53-.39-3.33-1.39-5.36-2.98-.77-.61-2.03-1.62-2.99-2.95-2.22.51-4.6.79-7.2.79-11.66 0-20.92-5.53-25.64-14.44H2.3c5.42 16.66 20.34 27.4 39.92 27.4Z" />

  <path fill="url(#grad1)" d="M145.36 63.49c-.1-2.32-2-7.07-3.65-8.58.71-2.13-.28-3.21-.85-3.93-.34-.42-1.47-.71-1.97-.91-1.79-2.72-5.62-5.19-10.99-6.77-3.48-1.02-7.6-1.68-12.24-1.78-.21 0-.44-.01-.69-.01-.47 0-.99.02-1.55.05-4.26.23-10.8 1.18-12.32 1.18h-.13c-.64-.03-2.22-.73-4.09-1.47-2.2-.88-4.77-1.81-6.67-1.81-.2 0-.4 0-.58.03-1.79.22-6.01 2.91-7.56 3.77-1.07.59-4.53 2.07-5.52 2.7-.21.07-.67.07-.88.14-2.47.82-4.21 3.65-4.95 4.14-.08-.3-1.01-1.59-2.32-1.59-.15 0-.31.02-.47.06-1.59.66-1.48 1.84-1.48 2.41-.31-.12-.77-.69-1.64-.69-.31 0-.67.07-1.09.25-1.75.94-.81 2.49-1.23 3.02-.63.84-2.7 2.91-3.48 4.34-.33.59.03 2.13-.22 2.74-.69 1.68-4.4 4.65-4.75 5.33-.12.31.88 1.31 2.11 2.28 1.13.89 2.43 1.73 3.24 1.93 2.27 0 7.13-.94 8.19-1.06h.01c.31 0 .87.21 1.59.4.63.16 1.38.32 2.25.32.23 0 .48 0 .72-.03 1.11-.23 1.85-.74 2.46-1.35 1.01-1.02 1.59-2.31 2.73-2.82.88-.4 2-.69 2.97-.69.48 0 .93.07 1.29.24-1.83 3.28-1.43 7.67-2.07 8.3-.71.69-1.27 1.41-1.71 2.09-1.57 2.41-1.79 4.6-2.55 5.11-.21.14-.48.19-.78.19-.86 0-2.03-.41-2.85-.41-.2 0-.38.02-.54.08-.98.36-3.26 2.46-2.42 2.96.26.02 4 .02 7.93.02h3.41c.1 0 2.19-1.91 2.29-1.91h5.53c.52-.08.47-.91 2.86-2.13 2.7-1.06 1.42-6.28 4.88-10.27.03 0 1.06-.97 1.3-.97 1.2 0 3.22 2.18 10.49 2.18s9.03-2.51 10.03-2.51c.5 0 1.5.75 1.5 1-3.25 5.52 4.92 11.72 4.27 12.11-.02.02-.05.02-.08.02-.28 0-1.07-.44-2.26-.44-.48 0-1.02.07-1.62.27-1.32.44-2.39 2.11-1.36 2.62.27 0 3.51.01 6.75.01 1.8 0 3.6 0 4.88-.01.41-.05.38-.83.36-1.59-.01-.5-.02-.99.09-1.25.34-.44.64-2 1.51-3.08.85-.93 1.51-1.64 2.21-1.64.29 0 .57.13.88.4 1.52.84 5.23 1.3 7.33 2.06.87.32 1.48.67 1.52 1.14-.03.26-.24.34-.54.34-.13 0-.27-.01-.42-.03-.51-.07-1.18-.23-1.83-.23-.34 0-.66.05-.97.16-.95.36-1.91 1.39-2.18 2.14-.14.41-.09.73.29.82h8.69c1 0 .63-2 2.85-6.44.33-1.25-2.79-2.96-3.25-5.33-.29-1.55-.71-7.59-.71-7.59Z" />

  <g fill="#326130">
    <path d="M192.47 59.89c-3.4 0-6.28-1.39-8.21-3.68h-10.72c2.64 7.31 9.12 12.23 17.11 12.23 4.66 0 8.23-1.47 11.6-4.75l.27-.26v.37c0 3.36 0 6.25-2.45 8.55-1.82 1.67-4.78 2.59-8.33 2.59-4.19 0-7.06-1.06-9.02-3.34h-10.4c2.65 7.9 9.31 11.9 19.78 11.9 5.94 0 10.5-1.39 13.93-4.25 4.14-3.53 5.83-8.22 5.83-16.17v-6.87h-11.27c-1.87 2.31-4.72 3.68-8.14 3.68Z" />
    <path d="M239.66 60.62c-3.7 0-6.72-1.66-8.57-4.4h-10.26c2.72 7.8 10 13.25 18.76 13.25s16.3-5.45 19.09-13.25h-10.25c-1.89 2.74-4.98 4.4-8.77 4.4Z" />
    <polygon points="277.65 68.45 283.7 68.45 288.91 56.22 272.42 56.22 277.65 68.45" />
  </g>
</svg>
