<svg xmlns="http://www.w3.org/2000/svg" viewBox="0 0 8192 4563">
  <defs>
    <linearGradient id="linear-gradient" y1="2329" x2="0" y2="4499" gradientUnits="userSpaceOnUse">
      <stop offset="0" stop-color="#8b5a24" />
      <stop offset="1" stop-color="#441a12" />
    </linearGradient>

    <linearGradient id="linear-gradient-2" y1="396" x2="0" y2="4498" gradientUnits="userSpaceOnUse">
      <stop offset="0" stop-color="#1b93b8" />
      <stop offset=".6" stop-color="#1b93b8" />
      <stop offset="1" stop-color="#04628d" />
    </linearGradient>
  </defs>
  <path fill="url(#linear-gradient)" d="M7850 3454l-4 2c-6-125-107.8-382-197-462.9 39-114.9-15-173-46-212-18-23-79-39-106-48.9-96.8-146.8-304-279.8-593-365-188-55-410-91-660.9-96-11 0-24-1-37-1-25 0-53 1-84 3-229.8 13-582.8 63.8-665 63.8h-7c-35-2-119.9-40-220.5-79-118.8-47-257-97.9-360-97.9 0 0-21 0-31 2-96.8 12-324 157-409 203-58 31.9-334.8 150-345 153-133 45-227 196.8-267 223-4-15.9-54-85.8-125-85.8s-17 1-25 3c-85.8 36-80 99-80 130-17-7-42-38-89-37s-36.8 3.8-58.8 14c-95 50.6-44 134-66 163-34 45-146 157-188 234-18 31.9 2 114.9-12 147.9-37 91-238 251-256 288-7 17 47 70.9 113.8 123 61 47.8 82 79 174.8 103.9s385-50.6 443-57h.5c17 0 47 11 85.8 21 34 8.8 74.8 17 121 17s25.8 0 38.9-2c59.9-13 100-40 133-73 54-55 85.8-124.8 147.9-152 47-21 107.8-37 160.5-37s50 3.8 69.8 13c-99 177-77 414-112 447.8-39 37-69 75.9-92 113-85 130-96.8 248-137 276-11 8-25.8 10-42 10-46 0-109-22-153.9-22s-20 1-29 4c-52.8 19-175.9 133-130.9 160 14 1 216 1 428 1h184c6 0 118-102.8 124-102.8h299c28-4 25-48.9 154-114.9 146-57 76-339 263-554 2 0 57-52 70-52 64.9 0 174 118 566 118s487-135 541-135 81 41 81 53.9c-175 298 266 632 230 653-1 1-3 1-4 1-15 0-58-24-122-24s-55 3.8-87 14.8c-72 24-128.9 113.8-74 141 14.8 0 190 .5 364 .5s194 0 263-1c22-3 20-45 19-85.8-1-26.9-1-53 4.9-68 18-24 35-107.8 81-167 46-50 81-89 119-89s31 7 47 21c83 45 282 70 395 111 47 17 80 36 81.9 62-2 14-13 18-29 18s-14.8-1-23-2c-28-3.8-63.8-13-99-13s-36 3-52 8.8c-51 19-102.8 74.8-118 116-8 22-4.9 40 15.9 45h470c53.9 0 34-107.8 153.9-348 18-68-150.6-160-175-288-15.9-84-31.9-250-34-412l3-1 1-.6hZ" />
  <path fill="url(#linear-gradient-2)" d="M5362 193h774l710.9 1842.9c-186.9-43-388-67-598-72h-44c-30 0-60.5 1-90 3h-10c-13 .5-25.8 2-38.9 3l-312-807-327 846c-9-3.8-18-8-26.9-11-19-8-39-15.9-58.8-24-156-62-269-113-422-121-153-7-208 25-208 25l650.5-1685ZM2278.9 4542c478 0 838-95 1156.8-263.9l69-174c-113 17-258 48.9-374 20.9s-179.8-74.8-289-161c-42-33-109-87-161-159-119.9 28-248 42.9-389 42.9-924 0-1569-643-1569-1563s681-1568 1550-1550c476 10 919 194 1318 593l283-718C3432 235.9 2874 30 2292 30S1107 249 685 646C246 1058 4 1638.8 4 2280.6c0 1332 935.8 2262 2275 2262v-1h0Z" />
  <path fill="#b91f39" d="M2886 1844l-148-424-148 424h-446l361 276-128 424 361-276 361 276-128-424 361-276h-446 1-Z" />
</svg>
