<?xml version="1.0" encoding="utf-8"?>
<!-- Generator: Adobe Illustrator 27.4.1, SVG Export Plug-In . SVG Version: 6.00 Build 0)  -->
<svg
  version="1.1"
  xmlns="http://www.w3.org/2000/svg"
  xmlns:xlink="http://www.w3.org/1999/xlink"
  viewBox="0 0 419 240"
  xml:space="preserve">
  <g>
    <path
      style="fill:#B91F39"
      d="
      M389,77
      L389,77
      c-2-6-6-18-7-19
      c-2,6-4,13-6,19
      c0,1-1,1-1,1
      c-4,0-18,0-20,0
      c0,0,11,8,16,12
      c1,0,1,1,1,2
      c-2,5-6,17-6,18
      c0,0,10-7,15-10
      c1-1,3-1,4,0
      c0,0,10,7,15,11
      c0-1-4-13-6-19
      c0-1,0-1,1-2
      c1-1,16-11,16-12
      h-20
      C390,78,390,78,389,77
      L389,77z" />
  </g>
</svg>
