<?xml version="1.0" encoding="utf-8"?>
<!-- Generator: Adobe Illustrator 27.4.1, SVG Export Plug-In . SVG Version: 6.00 Build 0)  -->
<svg
  version="1.1"
  xmlns="http://www.w3.org/2000/svg"
  xmlns:xlink="http://www.w3.org/1999/xlink"
  viewBox="0 0 419 240"
  xml:space="preserve">
  <g>
    <path style="fill:#B91F39" d="M389,78l-6,-20l-6,20l-20,0l16,13l-6,20l16,-13l16,13l-6,-20l16,-13l-20,0Z" />
    <path
      style="fill:#2F85B0"
      d="
      M106,225
      c22,0,39-4,54-13
      l3-8
      c-5,1-10,1-14,1
      h-2
      l-2,0
      c-4-1-8-3-13-7
			c-2-2-5-4-8-7
      c-6,1-12,2-18,2
      c-43,0-73-30-73-73
      c0-41,32-72,72-72
      c23,0,43,9,61,28
      L180,42
			c-21-17-47-27-74-27
      c-29,0-55,10-75,29
      C11,63,0,90,0,120
      C0,182,44,225,106,225z" />
    <path
      style="fill:#326130"
      d="M106,225c22,0,39-4,54-13l3-8c-5,1-10,1-14,1h-2l-2,0c-4-1-8-3-13-07c-2-2-5-4-8-7c-6,1-12,2-18,2c-29,0-53-14-65-36H6C19,198,57,225,106,225z" />
  </g>
</svg>
