<?xml version="1.0" encoding="utf-8"?>
<!-- Generator: Adobe Illustrator 27.4.1, SVG Export Plug-In . SVG Version: 6.00 Build 0)  -->
<svg version="1.1" id="Layer_1" xmlns="http://www.w3.org/2000/svg" xmlns:xlink="http://www.w3.org/1999/xlink" x="0px" y="0px"
	 viewBox="0 0 300 83.7" style="enable-background:new 0 0 300 83.7;" xml:space="preserve">
<style type="text/css">
	.st0{fill:#FFFFFF;}
</style>
<g>
	<path class="st0" d="M154.8,24.6L154.8,24.6L154.8,24.6c-0.8-2.3-2.4-7.2-2.7-7.4c-0.8,2.5-1.6,5-2.4,7.5c-0.1,0.3-0.3,0.3-0.5,0.3
		c-1.8,0-7.1,0.1-8.1,0.1c0.2,0.2,4.4,3.2,6.5,4.6c0.3,0.2,0.4,0.3,0.3,0.7c-0.7,1.9-2.3,6.8-2.3,7.3c0.1,0,4.1-2.8,6-4.2
		c0.5-0.4,1-0.4,1.5,0c0.1,0,4,2.8,6,4.2c0.1-0.4-1.6-5.2-2.4-7.4c-0.1-0.3-0.1-0.5,0.2-0.7c0.3-0.2,6.3-4.4,6.4-4.7h-7.9
		C155.1,25,154.9,25,154.8,24.6z"/>
	<path class="st0" d="M202.5,34.6l-0.3-0.2c-3.8-3.6-7.6-5.2-12.1-5.2l0,0c-4.8,0-9.3,1.9-12.6,5.4c-3.4,3.6-5.3,8.6-5.3,14.2
		c0,2.7,0.5,5.2,1.3,7.5h0c0,0.1,0,0.1,0.1,0.2c0.1,0.2,0.2,0.4,0.3,0.6c0.1,0.3,0.3,0.6,0.4,0.9c0.1,0.2,0.2,0.5,0.3,0.7
		c0.1,0.3,0.3,0.6,0.5,0.8c0.1,0.2,0.2,0.4,0.4,0.6c0.3,0.4,0.5,0.8,0.8,1.2c0.2,0.2,0.3,0.4,0.5,0.6c0.2,0.2,0.4,0.4,0.5,0.6
		c0.2,0.2,0.4,0.4,0.6,0.6c0.2,0.2,0.4,0.4,0.6,0.6c0.2,0.2,0.4,0.4,0.6,0.5c0.4,0.3,0.7,0.6,1.1,0.9c0.2,0.1,0.4,0.3,0.6,0.4
		c0.2,0.2,0.5,0.3,0.7,0.4c0.2,0.1,0.5,0.3,0.7,0.4c0.2,0.1,0.5,0.2,0.7,0.4c0.2,0.1,0.5,0.2,0.7,0.3c0.3,0.1,0.7,0.3,1,0.4
		c0.4,0.1,0.7,0.2,1.1,0.3c0.3,0.1,0.5,0.2,0.8,0.2c0.3,0.1,0.6,0.1,0.8,0.2c0.3,0,0.5,0.1,0.8,0.1c0.3,0,0.6,0.1,0.9,0.1
		c0.3,0,0.5,0,0.8,0c0.3,0,0.5,0,0.8,0c4.7,0,8.2-1.5,11.6-4.8l0.3-0.3v0.4c0,3.4,0,6.2-2.5,8.5c-1.8,1.7-4.8,2.6-8.3,2.6
		c-3.7,0-6.3-0.8-8.2-2.5c-0.3-0.2-0.5-0.5-0.8-0.8h0c0,0,0,0,0,0h-10.4c0.8,2.5,2.1,4.6,3.7,6.3c3.5,3.8,8.9,5.6,16.1,5.6
		c5.9,0,10.5-1.4,13.9-4.2c4.1-3.5,5.8-8.2,5.8-16.2V30.1h-9.4V34.6z M203,48.9c0,2.9-0.9,5.4-2.4,7.3h0c-0.5,0.6-1,1.1-1.6,1.5
		c0,0,0,0,0,0c-0.3,0.2-0.5,0.4-0.8,0.6c0,0-0.1,0-0.1,0.1c-0.3,0.2-0.5,0.3-0.8,0.4c-0.1,0-0.1,0.1-0.2,0.1
		c-0.3,0.1-0.5,0.2-0.8,0.3c-0.1,0-0.2,0.1-0.2,0.1c-0.3,0.1-0.6,0.2-0.8,0.2c-0.1,0-0.2,0-0.3,0.1c-0.3,0.1-0.6,0.1-0.9,0.1
		c-0.1,0-0.2,0-0.3,0c-0.4,0-0.8,0.1-1.2,0.1c-0.4,0-0.8,0-1.2-0.1c-0.1,0-0.2,0-0.3,0c-0.3,0-0.6-0.1-0.9-0.1c-0.1,0-0.2,0-0.3-0.1
		c-0.3-0.1-0.6-0.1-0.8-0.2c-0.1,0-0.2-0.1-0.2-0.1c-0.3-0.1-0.6-0.2-0.8-0.3c-0.1,0-0.1-0.1-0.2-0.1c-0.3-0.1-0.6-0.3-0.8-0.4
		c0,0-0.1,0-0.1-0.1c-0.3-0.2-0.6-0.4-0.8-0.6c0,0,0,0,0,0c-0.6-0.4-1.1-1-1.6-1.5h0c-1.6-1.9-2.6-4.5-2.6-7.4
		c0-6.4,4.5-11.1,10.6-11.1C198.5,37.7,203,42.3,203,48.9L203,48.9z"/>
	<path class="st0" d="M253.9,34.9L253.9,34.9c-3.8-3.7-8.9-5.8-14.4-5.8c-10.9,0-19.8,9.1-19.8,20.2c0,2.4,0.4,4.7,1.2,6.9h-0.1
		c2.5,7.2,8.9,12.3,16.7,13.1c0,0,0,0,0,0c0.7,0.1,1.4,0.1,2,0.1c0.7,0,1.4,0,2-0.1c0,0,0.1,0,0.1,0c0.6-0.1,1.3-0.2,1.9-0.3
		c0,0,0.1,0,0.1,0c6.9-1.4,12.6-6.3,14.9-12.8h-0.1c0.8-2.2,1.2-4.5,1.2-7C259.9,43.8,257.8,38.7,253.9,34.9z M229.1,49.3
		c0-6.7,4.4-11.3,10.6-11.3s10.8,4.7,10.8,11.4c0,2.7-0.7,5-2,6.9h0c-1.2,1.7-2.8,3-4.8,3.7c0,0-0.1,0-0.1,0c-0.3,0.1-0.7,0.2-1,0.3
		c-0.1,0-0.2,0-0.3,0.1c-0.3,0.1-0.6,0.1-1,0.2c-0.1,0-0.2,0-0.3,0c-0.4,0-0.9,0.1-1.3,0.1c-0.4,0-0.9,0-1.3-0.1
		c-0.1,0-0.2,0-0.4-0.1c-0.3,0-0.6-0.1-0.9-0.1c-0.1,0-0.3-0.1-0.4-0.1c-0.3-0.1-0.5-0.2-0.8-0.2c-0.1,0-0.2-0.1-0.3-0.1
		c-0.3-0.1-0.6-0.3-0.9-0.4c0,0-0.1,0-0.1-0.1c-1.4-0.8-2.6-1.8-3.6-3.2h0C229.8,54.3,229.1,52,229.1,49.3z"/>
	<polygon class="st0" points="300,30.1 290.5,30.1 280.7,53.2 270.8,30.1 261.3,30.1 272.4,56.2 272.4,56.2 277.7,68.4 283.7,68.4 
		288.9,56.2 288.9,56.2 	"/>
	<path class="st0" d="M90.2,33.8c2.8,0,5.9,1.1,8.8,2.2c0.4,0.2,0.7,0.3,1.1,0.4c0.2,0.1,0.3,0.1,0.5,0.2l6-15.7l5.8,15
		c0.2,0,0.5,0,0.7,0h0h0h0.1c0.5,0,1.1-0.1,1.7-0.1c0.2,0,0.3,0,0.5,0c0.1,0,0.1,0,0.2,0h0.1c3.9,0.1,7.6,0.5,11.1,1.3L113.7,3H99.3
		L87.3,34.2c0.5-0.2,1-0.3,1.5-0.4C89.4,33.8,89.9,33.8,90.2,33.8z"/>
	<path class="st0" d="M145.3,63.5L145.3,63.5c-0.1-2.3-2-7.1-3.6-8.6c0.7-2.1-0.3-3.2-0.9-3.9c-0.3-0.4-1.5-0.7-2-0.9
		c-1.8-2.7-5.6-5.2-11-6.8c-3.5-1-7.6-1.7-12.2-1.8c-0.2,0-0.4,0-0.7,0c-0.5,0-1,0-1.6,0c-4.3,0.2-10.8,1.2-12.3,1.2H101
		c-0.6,0-2.2-0.7-4.1-1.5c-2.2-0.9-4.8-1.8-6.7-1.8c-0.2,0-0.4,0-0.6,0c-1.8,0.2-6,2.9-7.6,3.8c-1.1,0.6-4.5,2.1-5.5,2.7
		c-0.2,0.1-0.7,0.1-0.9,0.1c-2.5,0.8-4.2,3.7-5,4.1c-0.1-0.3-1-1.6-2.3-1.6c-0.2,0-0.3,0-0.5,0.1c-1.6,0.7-1.5,1.8-1.5,2.4
		c-0.3-0.1-0.8-0.7-1.6-0.7c-0.3,0-0.7,0.1-1.1,0.2c-1.8,0.9-0.8,2.5-1.2,3c-0.6,0.8-2.7,2.9-3.5,4.3c-0.3,0.6,0,2.1-0.2,2.7
		c-0.7,1.7-4.4,4.7-4.8,5.3c-0.1,0.3,0.9,1.3,2.1,2.3c1.1,0.9,2.4,1.7,3.2,1.9c2.3,0,7.1-0.9,8.2-1.1h0c0.3,0,0.9,0.2,1.6,0.4
		c0.6,0.2,1.4,0.3,2.2,0.3c0.2,0,0.5,0,0.7,0c1.1-0.2,1.8-0.7,2.5-1.4c1-1,1.6-2.3,2.7-2.8c0.9-0.4,2-0.7,3-0.7
		c0.5,0,0.9,0.1,1.3,0.2c-1.8,3.3-1.4,7.7-2.1,8.3c-0.7,0.7-1.3,1.4-1.7,2.1c-1.6,2.4-1.8,4.6-2.5,5.1C75.1,81,74.8,81,74.5,81
		c-0.9,0-2-0.4-2.9-0.4c-0.2,0-0.4,0-0.5,0.1c-1,0.4-3.3,2.5-2.4,3c0.3,0,4,0,7.9,0H80c0.1,0,2.2-1.9,2.3-1.9h5.5
		c0.5-0.1,0.5-0.9,2.9-2.1c2.7-1.1,1.4-6.3,4.9-10.3c0,0,1.1-1,1.3-1c1.2,0,3.2,2.2,10.5,2.2c7.3,0,9-2.5,10-2.5
		c0.5,0,1.5,0.8,1.5,1c-3.2,5.5,4.9,11.7,4.3,12.1c0,0-0.1,0-0.1,0c-0.3,0-1.1-0.4-2.3-0.4c-0.5,0-1,0.1-1.6,0.3
		c-1.3,0.4-2.4,2.1-1.4,2.6c0.3,0,3.5,0,6.8,0c1.8,0,3.6,0,4.9,0c0.4,0,0.4-0.8,0.4-1.6c0-0.5,0-1,0.1-1.2c0.3-0.4,0.6-2,1.5-3.1
		c0.9-0.9,1.5-1.6,2.2-1.6c0.3,0,0.6,0.1,0.9,0.4c1.5,0.8,5.2,1.3,7.3,2.1c0.9,0.3,1.5,0.7,1.5,1.1c0,0.3-0.2,0.3-0.5,0.3
		c-0.1,0-0.3,0-0.4,0c-0.5-0.1-1.2-0.2-1.8-0.2c-0.3,0-0.7,0.1-1,0.2c-1,0.4-1.9,1.4-2.2,2.1c-0.1,0.4-0.1,0.7,0.3,0.8h8.7
		c1,0,0.6-2,2.8-6.4c0.3-1.2-2.8-3-3.2-5.3C145.7,69.6,145.3,63.5,145.3,63.5z"/>
	<path class="st0" d="M58.7,76L58,75.8c-1.5-0.4-3.3-1.4-5.4-3c-0.8-0.6-2-1.6-3-3c-2.2,0.5-4.6,0.8-7.2,0.8c-0.7,0-1.3,0-1.9-0.1
		c-0.2,0-0.4,0-0.5,0c-0.5,0-1-0.1-1.4-0.1c-0.2,0-0.3,0-0.5-0.1c-0.6-0.1-1.2-0.2-1.8-0.3c-0.1,0-0.1,0-0.2,0
		c-0.5-0.1-1.1-0.2-1.6-0.3c-0.2,0-0.3-0.1-0.5-0.1c-0.5-0.1-1-0.3-1.4-0.4c-0.1,0-0.2-0.1-0.3-0.1c-0.6-0.2-1.1-0.4-1.7-0.6
		c-0.1,0-0.1-0.1-0.2-0.1c-0.5-0.2-0.9-0.4-1.4-0.6c-0.1-0.1-0.2-0.1-0.3-0.2c-0.5-0.2-1-0.5-1.5-0.8c0,0,0,0,0,0
		c-0.5-0.3-1-0.6-1.5-0.9c-0.1,0-0.1-0.1-0.2-0.1c-0.4-0.3-0.9-0.6-1.3-0.9c-0.1-0.1-0.1-0.1-0.2-0.2c-0.9-0.7-1.8-1.5-2.6-2.3
		c0,0-0.1-0.1-0.1-0.1c-0.4-0.4-0.7-0.8-1.1-1.2c0,0-0.1-0.1-0.1-0.1c-0.8-0.9-1.5-1.9-2.1-2.9c0-0.1-0.1-0.1-0.1-0.2
		c-0.3-0.5-0.6-1-0.9-1.5c-2.2-4.2-3.4-9.1-3.4-14.5C13.4,25.6,26,13,42.1,13c9,0,17,3.6,24.4,11l5.2-13.3C63.6,3.8,53.2,0,42.5,0
		c-11.4,0-22,4-29.8,11.4C4.5,19.1,0.1,29.8,0.1,41.7c0,5.8,1,11.2,2.8,16c0,0,0,0,0,0c0.9,2.5,2.1,4.9,3.4,7.1c0,0,0.1,0.1,0.1,0.1
		c1.1,1.7,2.2,3.3,3.5,4.8C10,69.9,10,70,10.1,70c0.3,0.3,0.6,0.6,0.9,1c0.1,0.1,0.2,0.2,0.3,0.3c0.3,0.3,0.6,0.6,0.9,0.9
		c0,0,0.1,0.1,0.1,0.1c0.7,0.6,1.4,1.3,2.1,1.9c0.1,0.1,0.1,0.1,0.2,0.2c0.3,0.2,0.6,0.5,0.9,0.7c0.2,0.1,0.3,0.2,0.5,0.4
		c0.3,0.2,0.6,0.4,0.9,0.6c0.2,0.1,0.4,0.3,0.5,0.4c0.3,0.2,0.6,0.4,0.9,0.6c0.2,0.1,0.4,0.2,0.6,0.3c0.5,0.3,1.1,0.6,1.6,0.9
		c0.2,0.1,0.5,0.3,0.7,0.4c0.3,0.1,0.6,0.3,0.8,0.4c0.3,0.1,0.5,0.3,0.8,0.4c0.3,0.1,0.5,0.3,0.8,0.4c0.3,0.1,0.6,0.3,0.9,0.4
		c0.2,0.1,0.5,0.2,0.7,0.3c0.5,0.2,1.1,0.4,1.6,0.6c0.2,0.1,0.4,0.1,0.7,0.2c0.4,0.1,0.8,0.2,1.2,0.4c0.3,0.1,0.5,0.1,0.8,0.2
		c0.4,0.1,0.8,0.2,1.2,0.3c0.2,0.1,0.5,0.1,0.7,0.2c0.5,0.1,1,0.2,1.5,0.3c0.2,0,0.3,0.1,0.4,0.1c0.6,0.1,1.3,0.2,1.9,0.3
		c0.2,0,0.4,0,0.6,0.1c0.5,0.1,0.9,0.1,1.4,0.2c0.2,0,0.5,0,0.7,0.1c0.5,0,1,0.1,1.4,0.1c0.2,0,0.4,0,0.6,0c0.7,0,1.4,0,2.1,0
		c8.9,0,15.5-1.8,21.4-5l1.3-3.2c-2.1,0.3-4,0.6-5.5,0.6H58.7z"/>
</g>
</svg>
