<?xml version="1.0" encoding="utf-8"?>
<!-- Generator: Adobe Illustrator 27.4.1, SVG Export Plug-In . SVG Version: 6.00 Build 0)  -->
<svg
  version="1.1"
  xmlns="http://www.w3.org/2000/svg"
  xmlns:xlink="http://www.w3.org/1999/xlink"
  viewBox="0 0 41.9 24"
  xml:space="preserve">
  <g>
    <path
      style="fill:#B91F39"
      d="
      M38.9,7.7
      L38.9,7.7
      c-0.2-0.6-0.6-1.8-0.7-1.9
      c-0.2,0.6-0.4,1.3-0.6,1.9
      c0,0.1-0.1,0.1-0.1,0.1
      c-0.4,0-1.8,0-2,0
      c0,0,1.1,0.8,1.6,1.2
      c0.1,0,0.1,0.1,0.1,0.2
      c-0.2,0.5-0.6,1.7-0.6,1.8
      c0,0,1-0.7,1.5-1
      c0.1-0.1,0.3-0.1,0.4,0
      c0,0,1,0.7,1.5,1.1
      c0-0.1-0.4-1.3-0.6-1.9
      c0-0.1,0-0.1,0.1-0.2
      c0.1-0.1,1.6-1.1,1.6-1.2
      h-2
      C39,7.8,39,7.8,38.9,7.7
      L38.9,7.7z" />
  </g>
</svg>
