<svg xmlns="http://www.w3.org/2000/svg" viewBox="0 0 8192 4563">
  <defs>
    <linearGradient id="linear-gradient" y1="9270" x2="0" y2="4931" gradientTransform="translate(3865 6965) scale(.5 -.5)" gradientUnits="userSpaceOnUse">
      <stop offset="0" stop-color="#8b5a24" />
      <stop offset="1" stop-color="#441a12" />
    </linearGradient>
    <linearGradient id="linear-gradient-2" y1="396" x2="0" y2="4498" gradientUnits="userSpaceOnUse">
      <stop offset="0" stop-color="#1b93b8" />
      <stop offset=".6" stop-color="#1b93b8" />
      <stop offset="1" stop-color="#04628d" />
    </linearGradient>
  </defs>
  <path fill="url(#linear-gradient)" d="M7850 3454l-4 1.6c-5.5-125-107.8-381.6-197-462.9 38.5-114.9-15-173-45.6-212-18-22.5-79-38.5-106-48.9-96.8-146.8-303.5-279.8-593-365-188-55-410-90.7-660.9-96-11 0-23.6-.5-37-.5-25 0-53 1-83.6 2.7-229.8 12.6-582.8 63.8-665 63.8h-7c-34.6-1.6-119.9-39.6-220.5-79-118.8-47-257-97.9-360-97.9 0 0-21 0-31 1.6-96.8 12-324 157-408.5 203-57.7 31.9-334.8 149.5-345 153-133 44.5-227 196.8-267 223-4-15.9-54-85.8-125-85.8s-16.5 1-25 3c-85.8 35.7-79.7 99-79.7 130-16.5-6.6-41.8-38-88.5-37s-36.8 3.8-58.8 13.5c-94.6 50.6-44 134-66 162.7-34 45-145.7 157-188 234-17.6 31.9 1.6 114.9-12 147.9-37 90.7-237.5 251-256 287.5-6.6 16.5 47 70.9 113.8 123 61 47.8 82 79 174.8 103.9s385-50.6 442.6-57h.5c16.5 0 46.7 11 85.8 21 34 8.8 74.8 17 121 17s25.8 0 38.9-1.6c59.9-12.6 100-40 132.5-73 54-55 85.8-124.8 147.9-152 47-21 107.8-37 160.5-37s50 3.8 69.8 13c-99 177-77 414-111.6 447.8-38.5 37-68.7 75.9-92 112.7-84.7 130-96.8 248-137 276-11 7.7-25.8 10-42 10-46 0-109-22-153.9-22s-20 1-29 4c-52.8 19-175.9 132.5-130.9 160 13.7 1 216 1 427.7 1h184c5.5 0 118-102.8 123.7-102.8h298.5c28-4 25-48.9 154-114.9 145.7-57 76-338.7 263-554 1.6 0 57-52 70-52 64.9 0 173.7 117.7 565.7 117.7s487-135 541-135 80.8 40.7 80.8 53.9c-175 298 265.6 632 230 653-1 1-2.7 1-4 1-15 0-57.7-23.6-122-23.6s-55 3.8-87 14.8c-71.5 23.6-128.9 113.8-73.7 141 14.8 0 189.7.5 364 .5s194 0 263-.5c22-2.7 20-45 19-85.8-.5-26.9-1-53 4.9-67.6 18-23.6 34.6-107.8 81-166.6 45.6-50 81-88.5 119-88.5s30.8 7 47 21c82.5 45 282 70 395 111 46.7 17 79.7 36 81.9 61.6-1.6 13.7-13 18-29 18s-14.8-.5-22.5-1.6c-27.5-3.8-63.8-12.6-99-12.6s-35.7 2.7-52 8.8c-51 19-102.8 74.8-117.7 115.5-7.7 22-4.9 39.6 15.9 44.5h469.5c53.9 0 34-107.8 153.9-347.5 17.6-67.6-150.6-160-175-287.5-15.9-83.6-31.9-249.6-34-411.8l3-.5 1-.6hZ" />
  <path fill="url(#linear-gradient-2)" d="M5362 192.5h773.6l710.9 1842.9c-186.9-43-387.6-67-597.6-71.5h-44c-29.7 0-60.5 1-90 2.7h-10c-12.6.5-25.8 1.6-38.9 2.7l-311.7-807-326.6 845.6c-9-3.8-18-7.7-26.9-11-18.7-7.7-38.5-15.9-58.8-23.6-155.6-62-268.5-113-422-120.7-152.5-7-207.5 24.5-207.5 24.5l650.5-1684.5ZM2278.9 4542c478 0 838-94.6 1156.8-263.9l68.7-173.7c-113 17-258 48.9-374 20.9s-179.8-74.8-289-161c-42-33-109-87-161-159-119.9 27.5-248 42.9-388.7 42.9-923.7 0-1569-642.7-1569-1563s680.8-1568 1550-1550c476 9.6 918.7 194 1318 592.7l282.6-717.5C3432 235.9 2874 29.7 2291.6 29.7S1106.7 248.5 684.5 645.5C246 1058 4 1638.8 4 2280.6c0 1332 935.8 2262 2274.5 2262v-.5h0Z" />
  <path fill="#b91f39" d="M2886 1844l-148-424-148 424h-445.8l360.7 276-127.6 424 360.7-276 360.7 276-127.6-424 360.7-276h-445.8 1-Z" />
</svg>
