<?xml version="1.0" encoding="utf-8"?>
<!-- Generator: Adobe Illustrator 27.4.1, SVG Export Plug-In . SVG Version: 6.00 Build 0)  -->
<svg version="1.1" id="Layer_1" xmlns="http://www.w3.org/2000/svg" xmlns:xlink="http://www.w3.org/1999/xlink" x="0px" y="0px"
	 viewBox="0 0 41.9 24" style="enable-background:new 0 0 41.9 24;" xml:space="preserve">
<style type="text/css">
	.st0{fill:#481E13;}
	.st1{fill:#481D13;}
	.st2{fill:#461C12;}
	.st3{fill:#451B12;}
	.st4{fill:#B91F39;}
	.st5{fill:#2F85B0;}
	.st6{fill:url(#SVGID_1_);}
	.st7{fill:#326130;}
</style>
<g id="Horizontal_lockup">
	<polygon class="st0" points="36.9,9.3 36.9,9.3 36.9,9.3 36.9,9.3 	"/>
	<polygon class="st1" points="36.9,9.3 36.9,9.3 36.9,9.3 36.9,9.3 	"/>
	<polygon class="st2" points="36.9,9.3 36.9,9.3 36.9,9.3 36.9,9.3 	"/>
	<polygon class="st3" points="36.9,9.3 36.9,9.3 36.9,9.3 36.9,9.3 	"/>
	<path class="st4" d="M38.9,7.7L38.9,7.7c-0.2-0.6-0.6-1.8-0.7-1.9c-0.2,0.6-0.4,1.3-0.6,1.9c0,0.1-0.1,0.1-0.1,0.1
		c-0.4,0-1.8,0-2,0c0,0,1.1,0.8,1.6,1.2c0.1,0,0.1,0.1,0.1,0.2c-0.2,0.5-0.6,1.7-0.6,1.8c0,0,1-0.7,1.5-1c0.1-0.1,0.3-0.1,0.4,0
		c0,0,1,0.7,1.5,1.1c0-0.1-0.4-1.3-0.6-1.9c0-0.1,0-0.1,0.1-0.2c0.1-0.1,1.6-1.1,1.6-1.2h-2C39,7.8,39,7.8,38.9,7.7L38.9,7.7z"/>
	<path class="st5" d="M22.3,10c0.2,0,0.3,0,0.4,0c0.7,0,1.5,0.3,2.2,0.6c0.1,0,0.2,0.1,0.3,0.1c0,0,0.1,0,0.1,0.1l1.5-3.9l1.5,3.8
		c0.1,0,0.1,0,0.2,0h0h0h0c0.1,0,0.3,0,0.4,0c0,0,0.1,0,0.1,0c0,0,0,0,0,0h0c1,0,1.9,0.1,2.8,0.3l-3.3-8.6H25l-3,7.9
		C22.1,10,22.2,10,22.3,10z"/>
	
		<linearGradient id="SVGID_1_" gradientUnits="userSpaceOnUse" x1="25.5571" y1="14.9275" x2="25.5571" y2="3.8058" gradientTransform="matrix(1 0 0 -1 0 26.33)">
		<stop  offset="0" style="stop-color:#8B5A24"/>
		<stop  offset="1" style="stop-color:#441A12"/>
	</linearGradient>
	<path class="st6" d="M36.5,17.4c0-0.6-0.5-1.8-0.9-2.2c0.2-0.5-0.1-0.8-0.2-1c-0.1-0.1-0.4-0.2-0.5-0.2c-0.5-0.7-1.4-1.3-2.8-1.7
		c-0.9-0.3-1.9-0.4-3.1-0.4c-0.1,0-0.1,0-0.2,0c-0.1,0-0.2,0-0.4,0c-1.1,0.1-2.7,0.3-3.1,0.3h0c-0.2,0-0.6-0.2-1-0.4
		c-0.6-0.2-1.2-0.5-1.7-0.5c-0.1,0-0.1,0-0.1,0c-0.5,0.1-1.5,0.7-1.9,0.9c-0.3,0.1-1.1,0.5-1.4,0.7c-0.1,0-0.2,0-0.2,0
		c-0.6,0.2-1.1,0.9-1.2,1c0-0.1-0.3-0.4-0.6-0.4c0,0-0.1,0-0.1,0c-0.4,0.2-0.4,0.5-0.4,0.6c-0.1,0-0.2-0.2-0.4-0.2
		c-0.1,0-0.2,0-0.3,0.1c-0.4,0.2-0.2,0.6-0.3,0.8c-0.2,0.2-0.7,0.7-0.9,1.1c-0.1,0.1,0,0.5-0.1,0.7c-0.2,0.4-1.1,1.2-1.2,1.3
		c0,0.1,0.2,0.3,0.5,0.6c0.3,0.2,0.6,0.4,0.8,0.5c0.6,0,1.8-0.2,2.1-0.3h0c0.1,0,0.2,0.1,0.4,0.1c0.2,0,0.3,0.1,0.6,0.1
		c0.1,0,0.1,0,0.2,0c0.3-0.1,0.5-0.2,0.6-0.3c0.3-0.3,0.4-0.6,0.7-0.7c0.2-0.1,0.5-0.2,0.7-0.2c0.1,0,0.2,0,0.3,0.1
		C20,18.7,20.2,19.8,20,20c-0.2,0.2-0.3,0.4-0.4,0.5c-0.4,0.6-0.5,1.2-0.6,1.3c-0.1,0-0.1,0-0.2,0c-0.2,0-0.5-0.1-0.7-0.1
		c-0.1,0-0.1,0-0.1,0c-0.2,0.1-0.8,0.6-0.6,0.7c0.1,0,1,0,2,0h0.9c0,0,0.6-0.5,0.6-0.5h1.4c0.1,0,0.1-0.2,0.7-0.5
		c0.7-0.3,0.4-1.6,1.2-2.6c0,0,0.3-0.2,0.3-0.2c0.3,0,0.8,0.5,2.6,0.5c1.8,0,2.3-0.6,2.5-0.6c0.1,0,0.4,0.2,0.4,0.3
		c-0.8,1.4,1.2,2.9,1.1,3c0,0,0,0,0,0c-0.1,0-0.3-0.1-0.6-0.1c-0.1,0-0.3,0-0.4,0.1c-0.3,0.1-0.6,0.5-0.3,0.7c0.1,0,0.9,0,1.7,0
		c0.5,0,0.9,0,1.2,0c0.1,0,0.1-0.2,0.1-0.4c0-0.1,0-0.2,0-0.3c0.1-0.1,0.2-0.5,0.4-0.8c0.2-0.2,0.4-0.4,0.6-0.4c0.1,0,0.1,0,0.2,0.1
		c0.4,0.2,1.3,0.3,1.8,0.5c0.2,0.1,0.4,0.2,0.4,0.3c0,0.1-0.1,0.1-0.1,0.1c0,0-0.1,0-0.1,0c-0.1,0-0.3-0.1-0.5-0.1
		c-0.1,0-0.2,0-0.2,0c-0.2,0.1-0.5,0.3-0.5,0.5c0,0.1,0,0.2,0.1,0.2h2.2c0.3,0,0.2-0.5,0.7-1.6c0.1-0.3-0.7-0.7-0.8-1.3
		C36.6,19,36.5,17.5,36.5,17.4L36.5,17.4z"/>
	<g>
		<path class="st5" d="M10.6,22.5c2.2,0,3.9-0.4,5.4-1.3l0.3-0.8c-0.5,0.1-1,0.1-1.4,0.1h-0.2l-0.2,0c-0.4-0.1-0.8-0.3-1.3-0.7
			c-0.2-0.2-0.5-0.4-0.8-0.7c-0.6,0.1-1.2,0.2-1.8,0.2c-4.3,0-7.3-3-7.3-7.3c0-4.1,3.2-7.2,7.2-7.2c2.3,0,4.3,0.9,6.1,2.8L18,4.2
			c-2.1-1.7-4.7-2.7-7.4-2.7c-2.9,0-5.5,1-7.5,2.9C1.1,6.3,0,9,0,12C0,18.2,4.4,22.5,10.6,22.5z"/>
		<path class="st7" d="M10.6,22.5c2.2,0,3.9-0.4,5.4-1.3l0.3-0.8c-0.5,0.1-1,0.1-1.4,0.1h-0.2l-0.2,0c-0.4-0.1-0.8-0.3-1.3-0.7
			c-0.2-0.2-0.5-0.4-0.8-0.7c-0.6,0.1-1.2,0.2-1.8,0.2c-2.9,0-5.3-1.4-6.5-3.6H0.6C1.9,19.8,5.7,22.5,10.6,22.5z"/>
	</g>
</g>
</svg>
