<?xml version="1.0" encoding="UTF-8"?>
<svg id="Layer_1" data-name="Layer 1" xmlns="http://www.w3.org/2000/svg" xmlns:xlink="http://www.w3.org/1999/xlink" version="1.1" viewBox="0 0 300 83.7">
  <defs>
    <style>
      .cls-1 {
        fill: #2f85b0;
      }

      .cls-1, .cls-2, .cls-3, .cls-4, .cls-5, .cls-6, .cls-7, .cls-8 {
        stroke-width: 0px;
      }

      .cls-2 {
        fill: url(#linear-gradient);
      }

      .cls-3 {
        fill: #481e13;
      }

      .cls-4 {
        fill: #451b12;
      }

      .cls-5 {
        fill: #461c12;
      }

      .cls-6 {
        fill: #481d13;
      }

      .cls-7 {
        fill: #326130;
      }

      .cls-8 {
        fill: #b91f39;
      }
    </style>
    <linearGradient id="linear-gradient" x1="101.7" y1="39.5" x2="101.7" y2="83.6" gradientUnits="userSpaceOnUse">
      <stop offset="0" stop-color="#8b5a24"/>
      <stop offset="1" stop-color="#441a12"/>
    </linearGradient>
  </defs>
  <g id="Horizontal_lockup" data-name="Horizontal lockup">
    <polygon class="cls-3" points="146.6 31.2 146.6 31.2 146.6 31.2 146.6 31.2 146.6 31.2"/>
    <polygon class="cls-6" points="146.6 31.2 146.6 31.2 146.7 31.2 146.7 31.2 146.6 31.2"/>
    <polygon class="cls-5" points="146.7 31.2 146.7 31.2 146.7 31.2 146.7 31.2 146.7 31.2"/>
    <polygon class="cls-4" points="146.7 31.2 146.7 31.2 146.7 31.2 146.7 31.2 146.7 31.2"/>
    <path class="cls-8" d="M154.8,24.6h0c-.7-2.3-2.4-7.2-2.7-7.4-.8,2.5-1.6,5-2.4,7.5,0,.3-.3.3-.5.3-1.8,0-7.1,0-8.1,0,.2.2,4.4,3.2,6.5,4.6.3.2.4.3.3.7-.7,1.9-2.3,6.8-2.3,7.3.2,0,4.1-2.8,6-4.2q.8-.5,1.5,0c0,0,4,2.8,6,4.2.1-.4-1.6-5.2-2.4-7.4-.1-.3,0-.4.2-.7.3-.2,6.3-4.4,6.3-4.7h-7.9c-.3,0-.5,0-.6-.4Z"/>
    <path class="cls-1" d="M190.1,29.1c-4.8,0-9.3,1.9-12.6,5.4-3.4,3.6-5.3,8.7-5.3,14.3,0,11.2,7.9,19.7,18.4,19.7s8.2-1.5,11.6-4.8l.3-.3v.4c0,3.4,0,6.3-2.4,8.6-1.8,1.7-4.8,2.6-8.3,2.6s-7.1-1.1-9-3.3h-10.4c2.7,7.9,9.3,11.9,19.8,11.9s10.5-1.4,13.9-4.3c4.1-3.5,5.8-8.2,5.8-16.2V30.2h-9.4v4.4l-.3-.2c-3.8-3.6-7.6-5.2-12.1-5.2ZM203,48.9c0,6.5-4.3,11-10.6,11s-10.8-4.7-10.8-11.1,4.5-11.1,10.6-11.1,10.7,4.6,10.7,11.2Z"/>
    <path class="cls-1" d="M253.9,35c-3.8-3.8-8.9-5.8-14.4-5.8-10.9,0-19.8,9.1-19.8,20.2s8.7,20.1,19.9,20.1,20.3-8.9,20.3-20.2-2.1-10.5-6-14.3ZM239.7,60.6c-6.2,0-10.6-4.7-10.6-11.4s4.4-11.3,10.6-11.3,10.8,4.7,10.8,11.4-4.4,11.3-10.8,11.3Z"/>
    <polygon class="cls-1" points="290.5 30.2 280.7 53.2 270.8 30.2 261.3 30.2 277.7 68.5 283.7 68.5 300 30.2 290.5 30.2"/>
    <path class="cls-1" d="M88.8,33.9c.6,0,1.1,0,1.4,0,2.8,0,5.9,1.1,8.8,2.2.4.1.7.3,1.1.4.2,0,.3.1.5.2l6-15.7,5.8,15c.2,0,.5,0,.7,0h0s0,0,0,0h.1c.5,0,1.1,0,1.7,0s.3,0,.5,0c0,0,.1,0,.2,0h.1c3.9,0,7.6.5,11.1,1.3L113.7,3h-14.3l-12,31.2c.5-.2,1-.3,1.5-.4Z"/>
    <path class="cls-2" d="M145.4,63.5c-.1-2.3-2-7.1-3.7-8.6.7-2.1-.3-3.2-.8-3.9-.3-.4-1.5-.7-2-.9-1.8-2.7-5.6-5.2-11-6.8-3.5-1-7.6-1.7-12.2-1.8-.2,0-.4,0-.7,0-.5,0-1,0-1.5,0-4.3.2-10.8,1.2-12.3,1.2h-.1c-.6,0-2.2-.7-4.1-1.5-2.2-.9-4.8-1.8-6.7-1.8s-.4,0-.6,0c-1.8.2-6,2.9-7.6,3.8-1.1.6-4.5,2.1-5.5,2.7-.2,0-.7,0-.9.1-2.5.8-4.2,3.7-4.9,4.1,0-.3-1-1.6-2.3-1.6s-.3,0-.5,0c-1.6.7-1.5,1.8-1.5,2.4-.3-.1-.8-.7-1.6-.7s-.7,0-1.1.3c-1.7.9-.8,2.5-1.2,3-.6.8-2.7,2.9-3.5,4.3-.3.6,0,2.1-.2,2.7-.7,1.7-4.4,4.7-4.7,5.3-.1.3.9,1.3,2.1,2.3,1.1.9,2.4,1.7,3.2,1.9,2.3,0,7.1-.9,8.2-1.1h0c.3,0,.9.2,1.6.4.6.2,1.4.3,2.2.3s.5,0,.7,0c1.1-.2,1.9-.7,2.5-1.4,1-1,1.6-2.3,2.7-2.8.9-.4,2-.7,3-.7s.9,0,1.3.2c-1.8,3.3-1.4,7.7-2.1,8.3-.7.7-1.3,1.4-1.7,2.1-1.6,2.4-1.8,4.6-2.5,5.1-.2.1-.5.2-.8.2-.9,0-2-.4-2.9-.4s-.4,0-.5,0c-1,.4-3.3,2.5-2.4,3,.3,0,4,0,7.9,0h3.4c.1,0,2.2-1.9,2.3-1.9h5.5c.5,0,.5-.9,2.9-2.1,2.7-1.1,1.4-6.3,4.9-10.3,0,0,1.1-1,1.3-1,1.2,0,3.2,2.2,10.5,2.2s9-2.5,10-2.5,1.5.8,1.5,1c-3.2,5.5,4.9,11.7,4.3,12.1,0,0,0,0,0,0-.3,0-1.1-.4-2.3-.4s-1,0-1.6.3c-1.3.4-2.4,2.1-1.4,2.6.3,0,3.5,0,6.8,0s3.6,0,4.9,0c.4,0,.4-.8.4-1.6,0-.5,0-1,0-1.3.3-.4.6-2,1.5-3.1.8-.9,1.5-1.6,2.2-1.6s.6.1.9.4c1.5.8,5.2,1.3,7.3,2.1.9.3,1.5.7,1.5,1.1,0,.3-.2.3-.5.3s-.3,0-.4,0c-.5,0-1.2-.2-1.8-.2s-.7,0-1,.2c-1,.4-1.9,1.4-2.2,2.1-.1.4,0,.7.3.8h8.7c1,0,.6-2,2.9-6.4.3-1.3-2.8-3-3.2-5.3-.3-1.5-.7-7.6-.7-7.6Z"/>
    <g>
      <path class="cls-1" d="M42.2,83.6c8.9,0,15.5-1.8,21.4-5l1.3-3.2c-2.1.3-4,.6-5.5.6h-.7l-.7-.2c-1.5-.4-3.3-1.4-5.4-3-.8-.6-2-1.6-3-3-2.2.5-4.6.8-7.2.8-17.1,0-29.1-11.9-29.1-29s12.6-28.7,28.7-28.7,17,3.6,24.4,11l5.2-13.3C63.6,3.8,53.3,0,42.4,0S20.5,4.1,12.7,11.4C4.5,19.1,0,29.8,0,41.7c0,24.7,17.3,41.9,42.2,41.9Z"/>
      <path class="cls-7" d="M42.2,83.6c8.9,0,15.5-1.8,21.4-5l1.3-3.2c-2.1.3-4,.6-5.5.6h-.7l-.7-.2c-1.5-.4-3.3-1.4-5.4-3-.8-.6-2-1.6-3-3-2.2.5-4.6.8-7.2.8-11.7,0-20.9-5.5-25.6-14.4H2.3c5.4,16.7,20.3,27.4,39.9,27.4Z"/>
    </g>
    <g>
      <path class="cls-7" d="M192.5,59.9c-3.4,0-6.3-1.4-8.2-3.7h-10.7c2.6,7.3,9.1,12.2,17.1,12.2s8.2-1.5,11.6-4.8l.3-.3v.4c0,3.4,0,6.3-2.4,8.6-1.8,1.7-4.8,2.6-8.3,2.6s-7.1-1.1-9-3.3h-10.4c2.7,7.9,9.3,11.9,19.8,11.9s10.5-1.4,13.9-4.3c4.1-3.5,5.8-8.2,5.8-16.2v-6.9h-11.3c-1.9,2.3-4.7,3.7-8.1,3.7Z"/>
      <path class="cls-7" d="M239.7,60.6c-3.7,0-6.7-1.7-8.6-4.4h-10.3c2.7,7.8,10,13.3,18.8,13.3s16.3-5.4,19.1-13.3h-10.2c-1.9,2.7-5,4.4-8.8,4.4Z"/>
      <polygon class="cls-7" points="277.7 68.5 283.7 68.5 288.9 56.2 272.4 56.2 277.7 68.5"/>
    </g>
  </g>
</svg>