<?xml version="1.0" encoding="utf-8"?><svg version="1.1" xmlns="http://www.w3.org/2000/svg" xmlns:xlink="http://www.w3.org/1999/xlink" fill="#69A6C2" viewBox="0 0 3260 1670">
  <path d="M3260 258h-1075l-33-113c-13-45-61-72-106-58l-264 76c-7-10-19-20-40-26c-21-6-30-18-39-31c-13-18-26-37-74-31c-42 11-44 54-44 75c0 4 0 9-1 11c-4 12-10 19-17 26c-9 10-20 20-22 44l-258 74c-45 13-72 61-59 106L1533 1490c3 12 1 24-6 34c-7 10-19 15-31 15H358v14h1138c17 0 32-8 42-21c10-13 13-30 9-47L1242 407c-11-38 11-77 49-88l254-73c1 10 5 17 8 22c5 8 7 13-3 29c-7 11-25 20-46 30c-37 18-82 40-101 91c-1 4 0 8 3 11c15 15 107-12 321-83c63-21 117-39 135-42c18-4 31-1 33 6c2 8-9 24-31 31c-46 14-497 151-502 152l-7 2l2 7c6 20 56 199 60 210c8 19 29 25 30 25c35 6 44-11 46-16c4-12-2-27-15-33c-19-10-39-26-41-37c0-2 0-4 2-6c5-6 8-5 16 0c7 4 16 9 27 6c11-3 18-19 30-48c8-21 19-49 30-53c2-1 3-1 5 0c18 9-24 95-38 123c-7 14-12 24-14 30c-3 9 0 15 3 18c12 12 44 1 105-20c21-7 42-15 63-21c63-19 304-88 404-117c11-3 22 3 25 13l8 27c2 5 1 11-2 16c-3 5-7 8-12 10C1964 663 1451 810 1451 810l-7 2l37 132c6 19 19 33 37 39l1 0c35 6 44-11 46-16c4-12-2-27-15-33c-19-10-39-26-41-37c0-2 0-4 2-6c5-6 8-5 16 0c7 4 16 9 27 6c11-3 18-19 30-48c8-21 19-49 30-53c2-1 3 0 5 0c18 9-24 95-38 123c-7 14-12 24-14 30c-3 9 0 15 3 18c12 12 44 1 105-20c21-7 42-15 63-21c65-20 320-96 403-121c11-3 22 3 25 13l9 31c2 5 1 11-2 16c-3 5-7 8-12 10l-641 184l-7 2l38 137c6 19 19 33 37 39l1 0c35 6 44-11 46-16c4-12-2-27-15-33c-19-10-39-26-41-37c0-2 0-4 2-6c5-6 8-5 16 0c7 4 16 9 27 6c11-3 19-19 30-48c8-21 19-49 30-53c2-1 3 0 5 0c18 9-24 95-38 123c-7 14-12 24-14 30c-3 9 0 15 3 18c12 12 44 1 105-20c21-7 42-15 63-21c56-17 253-76 360-108c34-10 71 9 81 43l25 82c5 17 3 35-5 51c-9 16-23 27-40 32l-563 150c-29 8-46 37-39 66c4 14 13 26 25 33s28 9 42 5l712-199c22-6 41-21 52-41c11-20 14-44 7-66l-279-956H3260V258M2050 101c38-11 77 11 88 49l32 109h-127c-18 0-36-6-51-18c-22-16-49-21-76-21c-18 0-36 2-53 4c-22 2-43 5-51 1c-13-8-16-19-19-33c-1-5-3-10-5-16L2050 101M1577 197c7-8 16-16 21-31c1-3 1-8 2-15c1-27 4-53 33-61c6-1 11-1 15-1c26 0 34 12 45 26c10 14 21 29 46 36c14 4 23 10 29 16l-207 60C1563 212 1570 205 1577 197M2455 1233c5 18 3 38-6 55c-9 17-25 29-43 34l-712 199c-10 3-21 2-31-4c-9-5-16-14-19-25c-5-21 7-43 28-49l563-150c21-6 39-19 49-38c11-19 13-41 6-62l-25-82c-11-34-42-56-76-56c-8 0-15 1-23 3c-106 32-304 91-360 108c-21 6-42 14-63 21c-33 12-83 29-90 24c0 0 0-1 1-3c1-4 7-15 13-28c33-67 60-128 31-142c-5-3-11-3-17-1c-16 6-27 34-38 61c-6 14-15 37-20 39c-6 1-11-1-17-4c-8-4-20-11-33 3c-5 5-7 11-6 18c4 22 41 43 48 47c6 3 10 11 8 16c-2 7-14 9-29 7c-9-4-22-12-28-30l-34-123l634-182c9-3 16-9 21-17c4-8 5-18 3-27l-9-31c-6-18-25-28-43-23c-83 25-338 101-403 121c-21 6-42 14-63 21c-33 12-83 29-90 24c0 0 0-1 1-3c1-4 7-15 13-28c33-67 60-128 31-142c-5-3-11-3-17-1c-16 6-27 34-38 61c-6 14-15 37-20 39c-6 1-11-1-17-4c-8-4-20-11-33 3c-5 5-7 11-6 18c4 22 41 43 48 47c6 3 10 11 8 16c-2 7-14 9-29 7c-9-4-22-12-28-30l-33-118c61-17 515-147 631-180c9-3 16-9 21-17s5-18 3-27l-8-27c-6-18-25-28-43-23c-101 29-341 98-404 117c-21 6-42 14-63 21c-33 12-83 29-90 24c0 0 0-1 1-3c1-4 7-15 13-28c33-67 60-128 31-142c-5-3-11-3-17-1c-16 6-27 34-38 61c-6 14-15 37-20 39c-6 1-11-1-17-4c-8-4-20-11-33 3c-5 5-7 11-6 18c3 22 41 43 48 47c6 3 10 11 8 16c-2 7-14 9-30 7c0 0-15-4-19-16c-3-7-35-122-57-201c57-17 453-137 495-150c27-9 46-30 41-49c-2-6-10-25-50-17c-19 4-71 21-136 43c-104 34-275 91-304 87c17-43 57-63 93-80c23-11 43-21 52-35c14-22 10-32 4-44c-3-5-6-10-7-19l216-62c2 5 3 10 5 15c4 14 8 30 26 42c13 6 34 4 60 1c39-4 87-10 118 14c17 13 39 20 60 20h131L2455 1233" />
</svg>
