<?xml version="1.0" encoding="utf-8"?>
<!-- Generator: Adobe Illustrator 27.4.1, SVG Export Plug-In . SVG Version: 6.00 Build 0)  -->
<svg version="1.1" id="Layer_1" xmlns="http://www.w3.org/2000/svg" xmlns:xlink="http://www.w3.org/1999/xlink" x="0px" y="0px"
	 viewBox="0 0 326 167" style="enable-background:new 0 0 326 167;" xml:space="preserve">
<style type="text/css">
	.st0{fill:#69A6C2;}
</style>
<path class="st0" d="M326,25.8H218.5l-3.3-11.3c-1.3-4.5-6.1-7.2-10.6-5.8l-26.4,7.6c-0.7-1-1.9-2-4-2.6c-2.1-0.6-3-1.8-3.9-3.1
	c-1.3-1.8-2.6-3.7-7.4-3.1c-4.2,1.1-4.4,5.4-4.4,7.5c0,0.4,0,0.9-0.1,1.1c-0.4,1.2-1,1.9-1.7,2.6c-0.9,1-2,2-2.2,4.4l-25.8,7.4
	c-4.5,1.3-7.2,6.1-5.9,10.6L153.3,149c0.3,1.2,0.1,2.4-0.6,3.4c-0.7,1-1.9,1.5-3.1,1.5H35.8v1.4h113.8c1.7,0,3.2-0.8,4.2-2.1
	c1-1.3,1.3-3,0.9-4.7L124.2,40.7c-1.1-3.8,1.1-7.7,4.9-8.8l25.4-7.3c0.1,1,0.5,1.7,0.8,2.2c0.5,0.8,0.7,1.3-0.3,2.9
	c-0.7,1.1-2.5,2-4.6,3c-3.7,1.8-8.2,4-10.1,9.1c-0.1,0.4,0,0.8,0.3,1.1c1.5,1.5,10.7-1.2,32.1-8.3c6.3-2.1,11.7-3.9,13.5-4.2
	c1.8-0.4,3.1-0.1,3.3,0.6c0.2,0.8-0.9,2.4-3.1,3.1c-4.6,1.4-49.7,15.1-50.2,15.2l-0.7,0.2l0.2,0.7c0.6,2,5.6,19.9,6,21
	c0.8,1.9,2.9,2.5,3,2.5c3.5,0.6,4.4-1.1,4.6-1.6c0.4-1.2-0.2-2.7-1.5-3.3c-1.9-1-3.9-2.6-4.1-3.7c0-0.2,0-0.4,0.2-0.6
	c0.5-0.6,0.8-0.5,1.6,0c0.7,0.4,1.6,0.9,2.7,0.6c1.1-0.3,1.8-1.9,3-4.8c0.8-2.1,1.9-4.9,3-5.3c0.2-0.1,0.3-0.1,0.5,0
	c1.8,0.9-2.4,9.5-3.8,12.3c-0.7,1.4-1.2,2.4-1.4,3c-0.3,0.9,0,1.5,0.3,1.8c1.2,1.2,4.4,0.1,10.5-2c2.1-0.7,4.2-1.5,6.3-2.1
	c6.3-1.9,30.4-8.8,40.4-11.7c1.1-0.3,2.2,0.3,2.5,1.3l0.8,2.7c0.2,0.5,0.1,1.1-0.2,1.6c-0.3,0.5-0.7,0.8-1.2,1
	C196.4,66.3,145.1,81,145.1,81l-0.7,0.2l3.7,13.2c0.6,1.9,1.9,3.3,3.7,3.9l0.1,0c3.5,0.6,4.4-1.1,4.6-1.6c0.4-1.2-0.2-2.7-1.5-3.3
	c-1.9-1-3.9-2.6-4.1-3.7c0-0.2,0-0.4,0.2-0.6c0.5-0.6,0.8-0.5,1.6,0c0.7,0.4,1.6,0.9,2.7,0.6c1.1-0.3,1.8-1.9,3-4.8
	c0.8-2.1,1.9-4.9,3-5.3c0.2-0.1,0.3,0,0.5,0c1.8,0.9-2.4,9.5-3.8,12.3c-0.7,1.4-1.2,2.4-1.4,3c-0.3,0.9,0,1.5,0.3,1.8
	c1.2,1.2,4.4,0.1,10.5-2c2.1-0.7,4.2-1.5,6.3-2.1c6.5-2,32-9.6,40.3-12.1c1.1-0.3,2.2,0.3,2.5,1.3l0.9,3.1c0.2,0.5,0.1,1.1-0.2,1.6
	c-0.3,0.5-0.7,0.8-1.2,1l-64.1,18.4l-0.7,0.2l3.8,13.7c0.6,1.9,1.9,3.3,3.7,3.9l0.1,0c3.5,0.6,4.4-1.1,4.6-1.6
	c0.4-1.2-0.2-2.7-1.5-3.3c-1.9-1-3.9-2.6-4.1-3.7c0-0.2,0-0.4,0.2-0.6c0.5-0.6,0.8-0.5,1.6,0c0.7,0.4,1.6,0.9,2.7,0.6
	c1.1-0.3,1.9-1.9,3-4.8c0.8-2.1,1.9-4.9,3-5.3c0.2-0.1,0.3,0,0.5,0c1.8,0.9-2.4,9.5-3.8,12.3c-0.7,1.4-1.2,2.4-1.4,3
	c-0.3,0.9,0,1.5,0.3,1.8c1.2,1.2,4.4,0.1,10.5-2c2.1-0.7,4.2-1.5,6.3-2.1c5.6-1.7,25.3-7.6,36-10.8c3.4-1,7.1,0.9,8.1,4.3l2.5,8.2
	c0.5,1.7,0.3,3.5-0.5,5.1c-0.9,1.6-2.3,2.7-4,3.2l-56.3,15c-2.9,0.8-4.6,3.7-3.9,6.6c0.4,1.4,1.3,2.6,2.5,3.3s2.8,0.9,4.2,0.5
	l71.2-19.9c2.2-0.6,4.1-2.1,5.2-4.1c1.1-2,1.4-4.4,0.7-6.6l-27.9-95.6H326V25.8z M205,10.1c3.8-1.1,7.7,1.1,8.8,4.9l3.2,10.9h-12.7
	c-1.8,0-3.6-0.6-5.1-1.8c-2.2-1.6-4.9-2.1-7.6-2.1c-1.8,0-3.6,0.2-5.3,0.4c-2.2,0.2-4.3,0.5-5.1,0.1c-1.3-0.8-1.6-1.9-1.9-3.3
	c-0.1-0.5-0.3-1-0.5-1.6L205,10.1z M157.7,19.7c0.7-0.8,1.6-1.6,2.1-3.1c0.1-0.3,0.1-0.8,0.2-1.5c0.1-2.7,0.4-5.3,3.3-6.1
	c0.6-0.1,1.1-0.1,1.5-0.1c2.6,0,3.4,1.2,4.5,2.6c1,1.4,2.1,2.9,4.6,3.6c1.4,0.4,2.3,1,2.9,1.6l-20.7,6
	C156.3,21.2,157,20.5,157.7,19.7z M245.5,123.3c0.5,1.8,0.3,3.8-0.6,5.5c-0.9,1.7-2.5,2.9-4.3,3.4l-71.2,19.9
	c-1,0.3-2.1,0.2-3.1-0.4c-0.9-0.5-1.6-1.4-1.9-2.5c-0.5-2.1,0.7-4.3,2.8-4.9l56.3-15c2.1-0.6,3.9-1.9,4.9-3.8
	c1.1-1.9,1.3-4.1,0.6-6.2l-2.5-8.2c-1.1-3.4-4.2-5.6-7.6-5.6c-0.8,0-1.5,0.1-2.3,0.3c-10.6,3.2-30.4,9.1-36,10.8
	c-2.1,0.6-4.2,1.4-6.3,2.1c-3.3,1.2-8.3,2.9-9,2.4c0,0,0-0.1,0.1-0.3c0.1-0.4,0.7-1.5,1.3-2.8c3.3-6.7,6-12.8,3.1-14.2
	c-0.5-0.3-1.1-0.3-1.7-0.1c-1.6,0.6-2.7,3.4-3.8,6.1c-0.6,1.4-1.5,3.7-2,3.9c-0.6,0.1-1.1-0.1-1.7-0.4c-0.8-0.4-2-1.1-3.3,0.3
	c-0.5,0.5-0.7,1.1-0.6,1.8c0.4,2.2,4.1,4.3,4.8,4.7c0.6,0.3,1,1.1,0.8,1.6c-0.2,0.7-1.4,0.9-2.9,0.7c-0.9-0.4-2.2-1.2-2.8-3
	l-3.4-12.3l63.4-18.2c0.9-0.3,1.6-0.9,2.1-1.7c0.4-0.8,0.5-1.8,0.3-2.7l-0.9-3.1c-0.6-1.8-2.5-2.8-4.3-2.3
	c-8.3,2.5-33.8,10.1-40.3,12.1c-2.1,0.6-4.2,1.4-6.3,2.1c-3.3,1.2-8.3,2.9-9,2.4c0,0,0-0.1,0.1-0.3c0.1-0.4,0.7-1.5,1.3-2.8
	c3.3-6.7,6-12.8,3.1-14.2c-0.5-0.3-1.1-0.3-1.7-0.1c-1.6,0.6-2.7,3.4-3.8,6.1c-0.6,1.4-1.5,3.7-2,3.9c-0.6,0.1-1.1-0.1-1.7-0.4
	c-0.8-0.4-2-1.1-3.3,0.3c-0.5,0.5-0.7,1.1-0.6,1.8c0.4,2.2,4.1,4.3,4.8,4.7c0.6,0.3,1,1.1,0.8,1.6c-0.2,0.7-1.4,0.9-2.9,0.7
	c-0.9-0.4-2.2-1.2-2.8-3l-3.3-11.8c6.1-1.7,51.5-14.7,63.1-18c0.9-0.3,1.6-0.9,2.1-1.7s0.5-1.8,0.3-2.7l-0.8-2.7
	c-0.6-1.8-2.5-2.8-4.3-2.3c-10.1,2.9-34.1,9.8-40.4,11.7c-2.1,0.6-4.2,1.4-6.3,2.1c-3.3,1.2-8.3,2.9-9,2.4c0,0,0-0.1,0.1-0.3
	c0.1-0.4,0.7-1.5,1.3-2.8c3.3-6.7,6-12.8,3.1-14.2c-0.5-0.3-1.1-0.3-1.7-0.1c-1.6,0.6-2.7,3.4-3.8,6.1c-0.6,1.4-1.5,3.7-2,3.9
	c-0.6,0.1-1.1-0.1-1.7-0.4c-0.8-0.4-2-1.1-3.3,0.3c-0.5,0.5-0.7,1.1-0.6,1.8c0.3,2.2,4.1,4.3,4.8,4.7c0.6,0.3,1,1.1,0.8,1.6
	c-0.2,0.7-1.4,0.9-3,0.7c0,0-1.5-0.4-1.9-1.6c-0.3-0.7-3.5-12.2-5.7-20.1c5.7-1.7,45.3-13.7,49.5-15c2.7-0.9,4.6-3,4.1-4.9
	c-0.2-0.6-1-2.5-5-1.7c-1.9,0.4-7.1,2.1-13.6,4.3c-10.4,3.4-27.5,9.1-30.4,8.7c1.7-4.3,5.7-6.3,9.3-8c2.3-1.1,4.3-2.1,5.2-3.5
	c1.4-2.2,1-3.2,0.4-4.4c-0.3-0.5-0.6-1-0.7-1.9l21.6-6.2c0.2,0.5,0.3,1,0.5,1.5c0.4,1.4,0.8,3,2.6,4.2c1.3,0.6,3.4,0.4,6,0.1
	c3.9-0.4,8.7-1,11.8,1.4c1.7,1.3,3.9,2,6,2h13.1L245.5,123.3z"/>
</svg>
