<?xml version="1.0" encoding="UTF-8"?>
<svg xmlns="http://www.w3.org/2000/svg" version="1" viewBox="0 0 3260 1670">
  <path d="M709 1532h-8.8c-58 0-92-5-104-16-37-31.8-55-168-62-225-11-103-12-208-2-252 0-2 3-4 5-3 2 0 4 3 3 5-9 42.8-8.8 148 2 250 13 116 35 198 59 219 6 6 29 13 98 14 49 0 115-3 190.8-8.8 102-8.8 219-23 312-38 113-18 160-32 165-40 3-3 9-19 8.8-89 0-47-3-107-9-171-5-63-14-125-21-172-5-29-15-80-26-91-1-1-6-4-25-6-98 95-185 208-243 284-43 57-63 82-73 85-5 2-18 1-66-28-30-18-70-45-115-76.8-85-61-175-132-215-170-21-20.8-21-26-21-29 1-2 2-3 4-4 15-3 198-28 376-47 104-11 188-18 252-21 48-2 79-2 98-1 3-3 6-6 9-9 57-54.8 111-96 162-123 60-32 116-48 166-45 39 2 70 14 89 35 7 7 14 17 18 28 19-2 42.8-4 66-5 138-11 326.8-25 446-161 13-14 31.8-48 54.8-97l-9 7c-4 4-11 4-16 2s-8.8-7-8.8-14v-162c0-6 4-12 9-14l457-177-601 89c-3 1-5 3-5 5s0 5 3 7l123 61c2 1 3 3 2 5-1 2-3 3-5 2l-122.8-61c-6-3-9-9-8.8-16 1-6 6-12 13-13l608-91c4-1 7 2 8.8 5 1 4-1 7-4 8.8l-465 181c-2 1-4 3-4 6v162c0 3 1 5 4 6 2 1 5 1 7-1l24-20.8c2-4 3-7 5-12 14-31.8 32-60 55-85 23-25 50-47 81-63l333-185c3-2 6-1 9 1 2 2 3 6 1 9l-227 367c-2 3-5 6-9 6-4 1-8.8 0-12-2l-145-96c-2-2-5-1-8.8 0l-77 65.8c-27 60-48 99.8-63 117-121 139-312 153-451.8 163-23 2-45 3-63 5 3 9 4 19 4 30 0 24-7 50-19 72-13 21-29 35-46 36h-2c-15 0-39-11-49-79-2-14 1-26 8.8-35 15-18 48-27 92-32-4-8.8-8.8-16-15-23-18-18-47-29-84-31.8-49-3-103 12-162 43-50 27-104 69-161 122.8-1 1-3 3-4 4 14 2 19 5 23 7 21 21 41 157 51 268 5 63 9 125 9 172s0 46-2 61c-2 17-4 28-8.8 34-3 4-13 11-55 20.8-28 6-69 14-115 21-94 15-211 29-313 38-72 7-134 11-183 11ZM570 974c2 4 11 14 40 39 25 21 58 49 97 79 66 51 159 118 220 153 37 21 46 21 48 20.8s7-4 23-24c12-14 28-35 46-59 57-74 142-184 239-279h-2c-20.8-1-50 0-87 1-63 3-148 11-251 21-171 18-345 41-374 47ZM1735 788c-43 5-75 13-88.8 29-6 7-7 16-6 28 6 47 21 72 42.8 71 13-1 27-13 38-31.8 12-19 18-45 18-68 0-9-1-19-4-29ZM2406 424.8c3 0 6 1 8.8 2l144.8 97c1 1 3 1 5 1s3-1 4-3l225-365-332 183c-29 16-55 37-79 61-21 24-39 50-52 79l63-53c3 0 6-2 11-2Z" fill="#aeb5c6" />
  <path d="M709 1537h-8.8c-60 0-94-5-107-17-37-31.8-57-156.8-64-229-11-103-12-209-2-254 1-2 2-4 4-5 2-1 4-2 7-1 2 0 4 2 5 4 1 2 2 4 1 7-9 42.8-8.8 147 2 247 12 114 35 196 58 216 4 3 21 12 95 13 48 0 114-3 189-8.8 102-8.8 218-23 312-38 119-19 159-34 162-38 1-1 8.8-12 7-86 0-47-3-107-9-171-5-63-14-125-21-171-8.8-48-18-81-25-88.8 0 0-3-2-19-4-97 95-184 207-241 281.8-48 62-64 84-75 87-7 2-21 1-71-28-30-18-70-45-115-77-85-61-176-132-215-170-21-20.8-25-27-23-35 1-4 4-6 8.8-7 15-3 198-28 376-48 104-11 188-18 252-21 42.8-2 74-2 97-1 3-3 5-5 8.8-8.8 58-54.8 113-96 163-125 60-34 118-49 170-46 41 2 72 15 93 36 7 7 13 16 17 26 19-2 40-3 62-5 137-9 324-24 442-159 11-12 26-39 45-77-4 1-9 1-15-1-7-3-12-11-12-18v-162c0-8.8 5-16 13-19l417.8-160-554 82s-1 0-1 1 1 2 1 2l123 61c4 2 6 7 4 13-2 4-7 6-13 4l-123-61c-8.8-4-13-13-11-21 1-8.8 8.8-16 17-17l608-91c5-1 11 2 13 6l1 5c0 3-1 6-3 8.8l32-18c5-2 11-2 15 2l1 1c3 4 4 9 1 15l-227 368c-3 4-7 7-13 9-5 1-11 0-16-3l-144.8-97h-2l-76.8 65.8c-27 60-48 99.8-63 117-122.8 140-314.8 154-455 165-20.8 1-40 3-58 4 2 8.8 3 17 3 26 0 25-7 52-20.8 74-14 23-31.8 37-49 38h-3c-19 0-45-14-54.8-83-2-15 1-28 9-39 13-16 40-27 88.8-34-3-5-6-11-12-15-17-17-45-28-81-30-48-3-102 12-159 43-49 27-102 68-157 119 7 2 12 4 15 7 28 28 49 231 52 272 5 63 9 125 9 173s0 46-2 62c-2 19-5 30-9 36-4 5-14 12-58 23-28 6-69 15-116 23-94 15-211 29-313 38-71 5-134 8.8-183 8.8ZM579 977c5 5 15 15 34 31.8 25 21 58 49 97 79 65.8 51 159 118 219 153 36 20.8 43 20.8 45 19 0 0 4-2 20.8-21 12-14 27-35 46-59 54.8-71 137-178.8 230-272-19 0-46 0-77 2-62 3-147 11-251 21-153 16-316 38-364 45ZM1731 794c-31.8 4-68 11-81 27-5 6-6 14-5 24 6 41 19 66 36 66h1c11-1 24-12 35-29 12-19 18-42.8 17-64 0-7-1-16-3-24ZM2406 420c4 0 7 1 12 3l144.8 97h1s1 0 1-1l215-347-314.8 173c-28 16-54.8 36-76.8 60-15 16-28 35-39 54.8l43-37c3-2 7-3 13-3ZM2747 169l-460 178.8c-1 0-1 1-1 1v162q0 1 1 1h2l23-19 5-11c14-31.8 32-61 57-87 24-26 51-47 82-64l290-160Z" fill="#aeb5c6" />
</svg>
