<?xml version="1.0" encoding="utf-8"?>
<!-- Generator: Adobe Illustrator 27.4.1, SVG Export Plug-In . SVG Version: 6.00 Build 0)  -->
<svg version="1.1" id="Layer_1" xmlns="http://www.w3.org/2000/svg" xmlns:xlink="http://www.w3.org/1999/xlink" x="0px" y="0px"
	 viewBox="0 0 326 167" style="enable-background:new 0 0 326 167;" xml:space="preserve">
<style type="text/css">
	.st0{fill:#AEB5C6;}
</style>
<g>
	<path class="st0" d="M121,145.3c-0.3,0-0.5,0-0.8,0c-5.3,0-8.4-0.5-9.5-1.5c-3.4-2.9-5.1-15.4-5.7-20.6c-1-9.4-1.1-19-0.2-23
		c0-0.2,0.3-0.4,0.5-0.3c0.2,0,0.4,0.3,0.3,0.5c-0.9,3.9-0.8,13.5,0.2,22.8c1.2,10.6,3.2,18.1,5.4,20c0.6,0.6,2.7,1.2,9,1.3
		c4.5,0,10.5-0.3,17.4-0.8c9.3-0.8,20-2.1,28.5-3.5c10.3-1.7,14.6-3,15.1-3.7c0.3-0.3,0.9-1.8,0.8-8.2c0-4.3-0.3-9.8-0.9-15.6
		c-0.5-5.8-1.3-11.4-2-15.7c-0.5-2.7-1.4-7.3-2.4-8.3c-0.1-0.1-0.6-0.4-2.3-0.6c-9,8.7-16.9,19-22.2,25.9c-4,5.2-5.8,7.5-6.7,7.8
		c-0.5,0.2-1.7,0.1-6.1-2.6c-2.8-1.7-6.4-4.1-10.5-7c-7.8-5.6-16-12.1-19.6-15.5c-2-1.9-2-2.4-2-2.7c0.1-0.2,0.2-0.3,0.4-0.4
		c1.4-0.3,18.1-2.6,34.3-4.3c9.5-1,17.2-1.7,23-2c4.4-0.2,7.2-0.2,9-0.1c0.3-0.3,0.6-0.6,0.9-0.9c5.2-5,10.2-8.8,14.8-11.3
		c5.5-3,10.6-4.4,15.2-4.1c3.6,0.2,6.4,1.3,8.2,3.2c0.7,0.7,1.3,1.6,1.7,2.6c1.8-0.2,3.9-0.4,6.1-0.5c12.6-1,29.8-2.3,40.7-14.7
		c1.2-1.3,2.9-4.4,5-8.9l-0.9,0.7c-0.4,0.4-1,0.4-1.5,0.2c-0.5-0.2-0.8-0.7-0.8-1.3V37.4c0-0.6,0.4-1.1,0.9-1.3l41.7-16.2l-54.8,8.2
		c-0.3,0.1-0.5,0.3-0.5,0.5c0,0.2,0,0.5,0.3,0.7l11.3,5.6c0.2,0.1,0.3,0.3,0.2,0.5c-0.1,0.2-0.3,0.3-0.5,0.2L250.8,30
		c-0.6-0.3-0.9-0.9-0.8-1.5c0.1-0.6,0.6-1.1,1.2-1.2l55.5-8.3c0.4-0.1,0.7,0.2,0.8,0.5c0.1,0.4-0.1,0.7-0.4,0.8l-42.4,16.5
		c-0.2,0.1-0.4,0.3-0.4,0.6v14.8c0,0.3,0.1,0.5,0.4,0.6c0.2,0.1,0.5,0.1,0.7-0.1l2.2-1.9c0.2-0.4,0.3-0.7,0.5-1.1
		c1.3-2.9,3-5.5,5.1-7.8c2.1-2.3,4.6-4.3,7.4-5.8L311,19.2c0.3-0.2,0.6-0.1,0.9,0.1c0.2,0.2,0.3,0.6,0.1,0.9l-20.7,33.5
		c-0.2,0.3-0.5,0.6-0.9,0.6c-0.4,0.1-0.8,0-1.1-0.2L276,45.3c-0.2-0.2-0.5-0.1-0.8,0l-7.1,6c-2.5,5.5-4.4,9.1-5.8,10.7
		c-11.1,12.7-28.5,14-41.2,14.9c-2.1,0.2-4.1,0.3-5.8,0.5c0.3,0.9,0.4,1.8,0.4,2.8c0,2.2-0.7,4.6-1.8,6.6c-1.2,2-2.7,3.2-4.2,3.3
		c-0.1,0-0.1,0-0.2,0c-1.4,0-3.6-1-4.5-7.2c-0.2-1.3,0.1-2.4,0.8-3.2c1.4-1.7,4.4-2.5,8.4-3c-0.4-0.8-0.8-1.5-1.4-2.1
		c-1.7-1.7-4.3-2.7-7.7-2.9c-4.5-0.3-9.4,1.1-14.8,4c-4.6,2.5-9.5,6.3-14.7,11.2c-0.1,0.1-0.3,0.3-0.4,0.4c1.3,0.2,1.8,0.5,2.1,0.7
		c2,2,3.8,14.4,4.7,24.5c0.5,5.8,0.9,11.4,0.9,15.7c0,2.3,0,4.2-0.2,5.6c-0.2,1.6-0.4,2.6-0.8,3.1c-0.3,0.4-1.2,1-5.1,1.9
		c-2.6,0.6-6.3,1.3-10.5,2c-8.6,1.4-19.3,2.7-28.6,3.5C131.1,145,125.4,145.3,121,145.3z M108.3,94.4c0.2,0.4,1,1.3,3.7,3.6
		c2.3,2,5.3,4.5,8.9,7.2c6.1,4.7,14.5,10.8,20.1,14c3.4,2,4.2,2,4.4,1.9c0.2-0.1,0.7-0.4,2.1-2.2c1.1-1.3,2.6-3.2,4.2-5.4
		c5.2-6.8,13-16.8,21.8-25.5c-0.1,0-0.2,0-0.2,0c-1.9-0.1-4.6,0-8,0.1c-5.8,0.3-13.5,1-22.9,2C126.8,91.8,110.9,93.9,108.3,94.4z
		 M214.5,77.5c-4,0.5-6.9,1.2-8.1,2.7c-0.6,0.7-0.7,1.5-0.6,2.6c0.6,4.3,2,6.6,3.9,6.5c1.2-0.1,2.5-1.2,3.5-2.9
		c1.1-1.8,1.7-4.1,1.7-6.2C214.9,79.3,214.8,78.4,214.5,77.5z M275.7,44.3c0.3,0,0.6,0.1,0.8,0.2l13.2,8.9c0.1,0.1,0.3,0.1,0.5,0.1
		c0.2,0,0.3-0.1,0.4-0.3l20.6-33.3l-30.3,16.7c-2.7,1.5-5.1,3.4-7.2,5.6c-2,2.2-3.6,4.6-4.8,7.2l5.8-4.9
		C275,44.5,275.3,44.3,275.7,44.3z"/>
	<path class="st0" d="M121,145.8l-0.8,0c-5.5,0-8.6-0.5-9.8-1.6c-3.4-2.9-5.2-14.3-5.9-20.9c-1-9.4-1.1-19.1-0.2-23.2
		c0.1-0.2,0.2-0.4,0.4-0.5c0.2-0.1,0.4-0.2,0.7-0.1c0.2,0,0.4,0.2,0.5,0.4c0.1,0.2,0.2,0.4,0.1,0.7c-0.9,3.9-0.8,13.4,0.2,22.6
		c1.1,10.4,3.2,17.9,5.3,19.7c0.4,0.3,2,1.1,8.7,1.2c4.4,0,10.4-0.3,17.3-0.8c9.3-0.8,19.9-2.1,28.5-3.5c10.9-1.8,14.5-3.1,14.8-3.5
		c0.1-0.1,0.8-1.1,0.7-7.9c0-4.3-0.3-9.8-0.9-15.6c-0.5-5.8-1.3-11.4-2-15.6c-0.8-4.4-1.7-7.4-2.3-8.1c0,0-0.3-0.2-1.8-0.4
		c-8.9,8.7-16.8,18.9-22,25.7c-4.4,5.7-5.9,7.7-6.9,8c-0.7,0.2-2,0.1-6.5-2.6c-2.8-1.7-6.4-4.1-10.5-7.1
		c-7.8-5.6-16.1-12.1-19.6-15.5c-2-1.9-2.3-2.5-2.1-3.2c0.1-0.4,0.4-0.6,0.8-0.7c1.4-0.3,18.1-2.6,34.3-4.4c9.5-1,17.2-1.7,23-2
		c3.9-0.2,6.8-0.2,8.9-0.1c0.3-0.3,0.5-0.5,0.8-0.8c5.3-5,10.3-8.8,14.9-11.4c5.5-3.1,10.8-4.5,15.5-4.2c3.8,0.2,6.6,1.4,8.5,3.3
		c0.7,0.7,1.2,1.5,1.6,2.4c1.8-0.2,3.7-0.3,5.7-0.5c12.5-0.9,29.6-2.2,40.3-14.5c1-1.1,2.4-3.6,4.1-7.1c-0.4,0.1-0.9,0.1-1.4-0.1
		c-0.7-0.3-1.1-1-1.1-1.7V37.4c0-0.8,0.5-1.5,1.2-1.8L302.1,21l-50.6,7.5c0,0-0.1,0-0.1,0.1c0,0.1,0.1,0.2,0.1,0.2l11.3,5.6
		c0.4,0.2,0.6,0.7,0.4,1.2c-0.2,0.4-0.7,0.6-1.2,0.4l-11.3-5.6c-0.8-0.4-1.2-1.2-1-2c0.1-0.8,0.8-1.5,1.6-1.6l55.5-8.3
		c0.5-0.1,1,0.2,1.2,0.6l0.1,0.5c0,0.3-0.1,0.6-0.3,0.8l3-1.7c0.5-0.2,1-0.2,1.4,0.2l0.1,0.1c0.3,0.4,0.4,0.9,0.1,1.4L291.7,54
		c-0.3,0.4-0.7,0.7-1.2,0.9c-0.5,0.1-1,0-1.5-0.3l-13.2-8.9c-0.1,0-0.1,0-0.2,0l-7,6c-2.5,5.5-4.4,9.1-5.8,10.7
		c-11.2,12.8-28.7,14.1-41.5,15.1c-1.9,0.1-3.7,0.3-5.3,0.4c0.2,0.8,0.3,1.6,0.3,2.4c0,2.3-0.7,4.8-1.9,6.8
		c-1.3,2.1-2.9,3.4-4.5,3.5c-0.1,0-0.2,0-0.3,0c-1.8,0-4.1-1.3-5-7.6c-0.2-1.4,0.1-2.6,0.9-3.6c1.2-1.5,3.7-2.5,8.1-3.1
		c-0.3-0.5-0.6-1-1.1-1.4c-1.6-1.6-4.1-2.6-7.4-2.8c-4.4-0.3-9.3,1.1-14.5,4c-4.5,2.5-9.3,6.2-14.4,10.9c0.7,0.2,1.1,0.4,1.4,0.7
		c2.6,2.6,4.5,21.1,4.8,24.8c0.5,5.8,0.9,11.4,0.9,15.8c0,2.3,0,4.2-0.2,5.7c-0.2,1.8-0.5,2.8-0.9,3.3c-0.4,0.5-1.3,1.1-5.3,2.1
		c-2.6,0.6-6.3,1.4-10.6,2.1c-8.6,1.4-19.3,2.7-28.6,3.5C131.2,145.5,125.4,145.8,121,145.8z M109.1,94.7c0.5,0.5,1.4,1.4,3.1,2.9
		c2.3,2,5.3,4.5,8.9,7.2c6,4.7,14.5,10.8,20,14c3.3,1.9,4,1.9,4.1,1.8c0,0,0.4-0.2,1.9-2c1.1-1.3,2.5-3.2,4.2-5.4
		c5-6.5,12.5-16.3,21-24.8c-1.8,0-4.2,0-7.1,0.2c-5.7,0.3-13.4,1-22.9,2C128.3,92.1,113.4,94.1,109.1,94.7z M214.2,78
		c-2.9,0.4-6.2,1-7.4,2.5c-0.5,0.6-0.6,1.3-0.5,2.2c0.6,3.8,1.8,6.1,3.3,6.1c0,0,0.1,0,0.1,0c1-0.1,2.2-1.1,3.2-2.7
		c1.1-1.8,1.7-3.9,1.6-5.9C214.5,79.5,214.4,78.7,214.2,78z M275.7,43.9c0.4,0,0.7,0.1,1.1,0.3l13.2,8.9c0,0,0.1,0,0.1,0
		c0,0,0.1,0,0.1-0.1l19.6-31.7l-28.7,15.8c-2.6,1.5-5,3.3-7,5.5c-1.4,1.5-2.6,3.2-3.6,5l4-3.4C274.8,44,275.2,43.9,275.7,43.9z
		 M306.8,21l-42,16.3c-0.1,0-0.1,0.1-0.1,0.1v14.8c0,0.1,0,0.1,0.1,0.1c0.1,0,0.1,0,0.2,0l2.1-1.8l0.5-1c1.3-2.9,3-5.6,5.2-8
		c2.2-2.4,4.7-4.3,7.5-5.9L306.8,21z"/>
</g>
</svg>
