<?xml version="1.0" encoding="utf-8"?>
<!-- Generator: Adobe Illustrator 27.4.1, SVG Export Plug-In . SVG Version: 6.00 Build 0)  -->
<svg version="1.1" id="_x2014_ÎÓÈ_x5F_1" xmlns="http://www.w3.org/2000/svg" xmlns:xlink="http://www.w3.org/1999/xlink"
	 x="0px" y="0px" viewBox="0 0 607.5 300" style="enable-background:new 0 0 607.5 300;" xml:space="preserve">
<style type="text/css">
	.st0{fill:#FFFFFF;}
	.st1{fill:#69A6C2;stroke:#69A6C2;stroke-width:1.1232;stroke-miterlimit:10;}
</style>
<rect x="2718.9" y="-828.3" class="st0" width="2200" height="2200"/>
<path class="st1" d="M1,223.7h136.2c4.8,0,9.8,0.3,14.5-0.9c6.4-1.6,12.4-6.1,15-12.4c1.1-2.8,0.5-5.8-0.2-8.6
	c-1.2-4.7-1.9-9.1-1.3-13.9c0.9-8.2,3.9-16.7,8.5-23.5c0.5-0.8,1.3-2.1,1.8-1.6c0.6,0.5,0.1,2.4,0,3c-0.5,2.8-1.7,5.6-2.7,8.3
	c-1.9,4.7-4.3,9.8-4.6,14.9c-0.3,6.7,4.9,10.8,10.4,13.3c6.2,2.8,13,4.4,19.6,6.2c6.3,1.6,12.8,3,19.2,4.1c16,2.7,32.3,3.6,48.6,4.1
	c9.9,0.3,20.1,1.3,30,0.1c6.5-0.8,12.9-2.3,17-7.7c4.4-5.7,7.1-12.6,10.3-19c2.9-5.8,6.9-11,11.3-15.7
	c11.7-12.8,26.6-22.5,42.3-29.8c4.8-2.3,9.8-4.3,14.8-6.1c1.3-0.5,14-4.6,14-3.9c0.1,1.3-10.2,3.9-11.7,4.4c-4.4,1.6-8.7,3.4-13,5.2
	c-16.7,7.3-32,17.7-44.4,31.1c-11,11.9-17.7,27.5-21.6,43c-1.6,6.5-3.9,15.2-11.3,17.1c-2.4,0.6-5.2,0.5-7.7,0.6c-3,0.1-6,0.2-9,0.2
	c-5.8,0-11.5-0.1-17.3-0.5c-21-1.2-42.2-3.9-62.6-8.9c-5.7-1.4-11.2-3-16.7-5c-3.9-1.4-7.8-2.8-11.6-4.5c-1.8-0.8-4.5-2.6-6.6-2.4
	c-4.4,0.5-0.5,8.7,0.5,10.5c2,3.4,4.6,6.4,7.7,8.8c2.1,1.6,4.7,2.5,7,3.5c29.6,13.1,61.4,16.9,93.3,20.1c12.7,1.3,25.5,2.3,38.3,2.7
	c4.2,0.1,8.5,0.2,12.7,0.2c3.9,0,7.7-0.7,11.6-1.2c3.6-0.4,6.6-0.5,8.3,3c1.6,3.3,3,6.7,5.4,9.5c0.7,0.8,1.7,1.5,2.3,2.4
	c1,1.4-0.1,0.8-1.3,0.6c-2.5-0.5-4.9-1.1-7.2-2c-3.6-1.5-6.8-3.7-8.9-7c-0.3-0.5-1.6-2.2-1.3-2.6c0.3-0.4,1.6-0.4,2.1-0.4
	c4.1-0.4,8.5,0.1,12.4-1.6c5.2-2.4,3.2-7.3,2.9-11.8c-1.3-16.4,0.5-34.3,10.2-48.1c6.3-9,20-20.2,30.4-10.6c4.7,4.4,7.1,10.9,8.5,17
	c1.8,8,1.9,16.4,1,24.6c-1.1,9.6-3.5,19.3-8.5,27.6c-4.1,6.8-10.1,13.4-18,15.7c-6.5,1.9-13.7,0.3-18.3-4.8
	c-4.6-5.1-6.8-12.3-8.1-18.9c-3-15.8-1-32.6,5-47.5c6.7-16.4,17.8-30.9,31.1-42.4c1.7-1.5,3.4-2.9,5.1-4.3c1.2-1,2.4-1.9,3.6-2.8
	c0.3-0.2,0.9-0.9,1.3-1c1.3-0.3-0.2-0.3,0.9,0.1c0.7,0.3,1.2,1.2,2,1.4c1.1,0.4,2.2,0.1,3.1-0.4c1.3-0.7,2.4-1.9,3-3.3
	c0.5-1.4-0.1-3.3,0.7-4.3c1-1.4,3.9-2.4,5.4-3.2c2-1.1,4-2.1,6-3.1c7.4-3.6,15.2-6.4,23.1-8.8c4.4-1.4,8.8-2.7,13.3-4
	c2.3-0.7,4.5-1.4,6.7-2c1.1-0.3,2.9-1.3,3.9-0.9c0.4,0.1,0.8,0.8,1.2,1.1c0.8,0.4,1.6,0.6,2.5,0.6c3.4,0.1,7.5-1.1,10.4-2.8
	c1.6-0.9,2.3-1.7,2.4-3.5c0.1-0.8-0.6-0.5,0.7-0.7c1.9-0.3,3.8-1,5.7-1.6c15.7-4.4,31.2-8.6,47.2-11.8c5.1-1,11.6-3.4,16.3-0.1
	c4.1,2.9,5.5,8.5,6.3,13.1c0.8,4.5,1,9,1.8,13.5c0.4,2.4,1,6,3.8,6.9c0.8,0.3,1.3-0.5,1.2-1.2c-1-6.6-4.3-20.6-14.1-15.9
	c-3.9,1.9-6.7,5.6-9,9.1c-3.1,4.8-5.5,10.2-7.2,15.7c-4.2,13.6-4.1,28.7,1.4,41.9c1.6,3.9,4,8.3,8.7,8.9c5.9,0.8,10.5-5,13-9.5
	c6.1-11.1,8.1-25.2,6.2-37.7c-0.9-6.1-6.2-22.6-15.2-17.6c-4.9,2.7-7.8,8-9.8,13c-2.3,5.9-3.3,12.2-3.8,18.4
	c-0.2,2.2-0.3,4.4-0.3,6.6c0,1.4,0.5,3.9-0.3,5.1c-0.9,1.4-3.8,1.9-5.4,2.1c-2.4,0.3-4.8,0.7-7.1,1.5c-1.9,0.6-4.2,0.8-4.2,3.2
	c0,2.3,1.8,5,3,6.9c1.8,2.5,3.8,4.6,6.6,5.9c1.4,0.7,10.5,4.4,11,1c0.1-1-0.8-2.1-1.3-2.8c-0.9-1.5-1.8-3-2.5-4.6
	c-0.8-1.8-1.5-3.5-2.1-5.4c-0.7-2-0.9-4.3-1.8-6.1c-2.3-5-11.1-0.4-14.2,0.9c-9.3,3.9-18.6,7.8-27.9,11.7
	c-17.8,7.4-35.7,14.8-53.5,22.3c-4.2,1.8-8.3,3.5-12.5,5.3c-2.3,1-4.5,2-6.8,2.9c-2,0.9-5.5,1.6-7,3.1c-2.5,2.4-2.4,10.3-0.5,12.9
	c2.1,3,3.3-1.7,3.6-3.3c0.9-5.2,0.8-10.6,0.8-15.9c-0.1-11.1-0.7-22.2-6-32.3c-5.5-10.3-15.7-17.7-27.7-15.2
	c-6.9,1.4-14.2,6.1-18.8,11.6c-8.5,10.2-13.9,23.5-17.6,36.1c-3.2,11-4.6,22.4-7.2,33.5c-0.1,0.5-0.5,0.8-0.3-2.5
	c0.3-5.5,1.4-10.9,2.5-16.3c1.3-6.2,2.8-12.3,4.6-18.4c2-6.7,4.7-13.1,7.2-19.7c0.6-1.5,1.5-3.5,1.2-5.2c-0.3-1.7-1.8-3.2-2.8-4.5
	c-4.3-5.3-10.1-10.8-16.5-13.4c-6.7-2.7-13.6,0.1-20.2,1.3c-5.6,1-11.9,1.4-17.3-0.5c-5.4-1.9-7.3-6.3-5.7-11.7
	c0.8-2.7,2.1-6.1,4.4-7.9c2-1.7,4.8-2.5,7.3-3c5.7-1.3,11.7-1.4,17.6-1c4.7,0.3,9.8,0.7,14.3,2.2c1,0.4,2.5,0.8,3.1,1.8
	c0.7,1.3-0.7,2.6-1.6,3.6c-3.2,3.3-7.3,6.1-11.1,8.6c-6.4,4.2-14.1,6.5-21.8,6.5c-3.5,0-6.7,0-9.9,1.3c-3,1.2-5.7,2.8-8.8,3.8
	c-11.9,3.8-25.3,3.5-37.7,3.3c-12.8-0.2-25.7-1-38.2-3.8c-9.8-2.2-21.4-5.7-27.6-14.2c-1.2-1.6-2.3-3.6-2.8-5.6
	c-0.7-3.3,1.1-7.5,2.7-10.4c2.7-5,6.8-9.3,11.2-13c1.1-0.9,2.6-2.4,3.2-2.6c0.5-0.1,1.1,0.1,1.5,0.3c6.2,3.1-1.5,12.9-4.1,15.8
	c-2,2.2-4.3,4.1-6.9,5.6c-1,0.6-2,1.1-3.1,1.4c-0.4,0.1-0.8,0.1-0.8-0.6c0.6-2.5,1.1-3.4,2.1-5.1c1.3-2.3,2.9-4.4,4.6-6.4
	c7.1-8.1,16.3-14.4,25.5-19.8c6.4-3.8,13.5-8,20.7-10.3c0.5-0.1,0.7-0.1,0.4,0c-3.4,2.2-7.1,4-10.7,5.9c-4.3,2.3-8.6,4.5-12.8,6.9
	c-2.8,1.6-6.1,3.2-8.3,5.6c-0.5,0.6-1,1.3-1,2.5c0,1.5,0.3,2.5-0.2,4.1c-0.6,2.1-2.1,4.1-2.4,6.3c-0.2,2,1,3.1,2.6,4.1
	c2.8,1.6,6.2,2.3,9.2,3c4.6,1,9.3,1.6,14,2.1c10.9,1.3,21.9,1.9,32.9,2.3c4.2,0.1,8.4,0.2,12.7,0.1c2.6,0,5.4,0.1,7.9-0.7
	c2.8-0.9,5.4-2.5,8.1-3.6c4.9-2.1,10.2-3.5,15.5-4.4c6.2-1,12.4-0.9,18.6-2c5.3-0.9,10.6-2.4,15.7-4.2c13.3-4.6,26.2-10.8,38-18.5
	c6.2-4,12-8.4,17.4-13.3c4-3.7,6.4-8.4,8.7-13.3c3.1-6.7,5.8-13.5,8.7-20.2c3-7,6.9-13.4,10.2-20.2c1.4-2.9,2.9-6.3-1.3-6.9
	c-8.4-1.1-16.8-2-25.2-2.5c-16.3-1.1-32.7-1.2-49-0.2c-10.5,0.6-21.7,1.2-31.7,4.3c-3.7,1.1-6.8,3.4-9.9,5.6
	c-5.9,4.3-11.5,9-17,13.8c-7,6.1-13.9,12.3-20.8,18.6c-3,2.8-5.9,5.7-9.2,8.1c-1.5,1-3.5,2.2-3.4-0.7c0.1-2.2,2.4-4,4.1-4.9
	c0.8-0.4,4-2,4.6-0.5c0.2,0.6-1.5,2.6-1.8,3c-2.8,3.6-6.4,6.5-9.6,9.6c-1.6,1.5-3.1,3-4.6,4.6c-0.5,0.5-1.5,1.2-1.7,2
	c-0.2,0.9,0.4,1.8,1,2.4c2.4,2.1,6.5,2.5,9.4,3c6.3,1.1,12.7,1.6,19,2.2c13.6,1.1,27.2,1.7,40.8,1.7c14.5,0,29-0.3,43.4-1
	c6.8-0.3,13.7-1.3,20.5-1.2c7.4,0.1,14.1,2.5,20.2,6.6c2.8,1.9,5.8,3.7,8,6.3c2,2.4,3.5,5.4,4.5,8.3c2.1,5.9,3,12.3,3.5,18.6
	c0.8,11.1,0.8,22.2,1.5,33.3c0.4,5.5,0.8,11,1.6,16.4c0.4,2.5,0.4,6.2,3.5,6.8c4.8,0.9,10.8-1.9,15.2-3.4c6-2.1,11.8-4.7,17.7-7.3
	c6.5-2.9,13.1-5.9,19.6-8.9c1.8-0.8,3.7-1.7,5.5-2.5c1.1-0.5,2.8-0.9,3.7-1.8c0.7-0.7,1-1.7,1.3-2.6c1.3-4.1,1.8-8.6,2.5-12.9
	c0.9-6.3,1.8-12.6,2.6-18.8c0.9-7,1.9-14,3-21c1.1-7.3,2.4-14.5,2.6-21.8c0.5-16.3-3.5-32.2-9-47.4c-2.1-5.6-4.4-11.2-6.9-16.6
	c-1.3-2.8-2.5-6-4.2-8.6c-1.3-2-4-2-6.2-2.1C463.4,36,458,37,453,38.5c-6.8,1.9-13.4,4.9-19.1,9c-5.5,3.9-9.1,9.4-12.1,15.4
	c-5.8,11.6-10.1,24.4-12.9,37.1c-1.1,5-3.7,12.4,1.8,15.8c4.6,2.9,11.2,1.1,16.2,0.4c9.1-1.3,32.2-6,25.8-19.8
	c-5.3-11.6-21.5-4.7-28.3,1.8c-3.5,3.4-6,8.1-4.1,12.9c1.4,3.6,4.9,5.2,8.5,5.5c10.9,1,22.2-4.9,32.4-7.9c13.8-4,27.5-8,41.2-12.2
	c5.9-1.8,11.9-3.4,17.8-5.3c4.1-1.3,8.5-2.6,12.3-4.8c2.4-1.4,3.3-2.5,2.6-5.2c-5.4-21.6-22.5-38.4-42.8-46.5
	c-26.7-10.7-57-9.2-85.1-6.5c-28.4,2.7-57,7.2-84.5,15.2c-1.3,0.4-0.7,2.1,0.5,1.9c27.4-4.2,55.3-4.9,82.9-3
	c6.4,0.4,12.7,1.2,19.1,1.9c2.5,0.3,4.7-1.5,7-2.4c8.5-3.5,17.5-5.7,26.5-7c12.8-1.8,26.8-2.1,39.3,1c21.2,5.2,34.7,22.2,43,41.5
	c1.2,2.8,3.2,6.3,3.3,9.3c0.1,4.5-5.4,4.9-8.7,5.9c-7.6,2.1-15.2,4.3-22.7,6.4c-15.5,4.4-31.1,8.7-46.6,13.2
	c-12.5,3.6-25.1,6.7-37.4,10.9c-2.8,1-7.4,1.9-9.6,4.2c-1.1,1.2-0.8,2.4,0.7,2.9c1.5,0.5,3.5,0,5-0.3c3.1-0.5,6.3-1.3,9.3-2
	c8.4-2.1,16.7-4.6,25.1-7c8.2-2.4,16.3-4.8,24.5-7c2.9-0.8,5.7-1.4,8.6-2c6.9-1.5,13.7-3.9,20.6-5.6c7.9-2,15.8-3.7,23.8-5.5
	c6-1.3,12.8-4.1,18.9-2.3c6.4,2,9.1,7.5,9.9,13.7c1,7.8,2.9,15.4,3.6,23.2c0.3,3.4,0.3,7.9,2.1,10.9c1.4,2.3,3.6,2,5.9,1.9
	c7.9,0,27.2,0,29,0c1.3,0,1.3-2,0-2c-6.2,0-25.6,0-29.2,0c-1,0-2.6,0.3-3.5-0.4c-1.5-1.2-1.6-4.8-1.8-6.5
	c-0.8-6.4-1.5-12.8-2.7-19.1c-1-5.6-1-12.2-4.1-17.1c-2.4-3.8-6.4-6.4-10.9-7.1c-5.9-0.9-12.1,1.5-17.8,2.8
	c-7.8,1.7-15.5,3.4-23.2,5.3c-7.1,1.8-14.1,4.1-21.2,5.7c-6.8,1.5-13.4,3.3-20.1,5.2c-8.9,2.5-17.7,5.2-26.6,7.7
	c-6.9,1.9-13.8,4-20.9,5.1c-1,0.2-2.1,0.2-3.1,0.3c-0.2,0-0.5-0.1-0.7,0c-0.5,0.1-0.5,0.5,0,0.4c1.5-0.4,3-1.6,4.5-2.2
	c2.5-1,5.1-1.8,7.7-2.6c12.9-4.1,26-7.5,39-11.2c15.4-4.4,30.9-8.7,46.3-13.1c4-1.1,8-2.3,12-3.4c3.9-1.1,8.2-1.9,12-3.4
	c4.4-1.8,4.8-5.8,3.3-9.8c-6.7-18.6-17.9-36.9-36.5-45.4c-10.4-4.8-21.9-5.8-33.2-5.8c-11.6,0-23.2,1.6-34.2,4.8
	c-4.7,1.4-9.8,2.9-14.1,5.3c-0.9,0.5-1.5,0.6-2.6,0.4c-2.5-0.3-5.1-0.6-7.6-0.9c-23.8-2.4-48-2.6-71.8-0.6
	c-7.6,0.6-15.1,1.6-22.6,2.7c0.2,0.6,0.4,1.3,0.5,1.9c27.9-8.1,57-12.6,85.9-15.3c27.3-2.5,56.7-3.8,82.7,6.6
	c9.5,3.8,18.8,9.6,25.8,17.2c4.7,5,8.4,10.9,11.4,17.1c1.1,2.4,2.2,4.8,3,7.2c0.4,1.2,1.6,3.5,1.4,4.8c-0.4,2.3-6.7,3.9-8.5,4.6
	c-4.2,1.5-8.4,2.8-12.7,4c-6.4,1.8-12.7,3.8-19.1,5.7c-6.3,1.9-12.6,4-19,5.8c-8.1,2.3-16.3,4.2-24.2,7.1c-4.4,1.6-9,3.1-13.6,4
	c-4,0.7-10.2,1.6-13.3-1.9c-4.6-5.3,1.1-11.9,5.5-15c4.4-3,12.9-7.1,18.2-4.5c3,1.5,5,5.2,4.9,8.5c-0.1,4.3-5.5,7-8.9,8.7
	c-7.1,3.4-15.1,4.2-22.7,5.1c-2.4,0.3-4.9,0.5-7.2-0.4c-4.5-1.7-3.8-6.6-2.9-10.5c1.3-6.1,2.7-12.3,4.7-18.1
	c4.4-12.7,8.8-28.7,20.2-36.9c9.6-6.9,22.9-11.8,34.9-11c3,0.2,3.3,0.7,4.6,3.1c1.9,3.8,3.7,7.5,5.4,11.4
	c6.1,13.9,11.5,29.2,13,44.3c1.5,14.7-1.3,28.9-3.3,43.4c-1.8,12.3-3.1,24.6-5.2,36.8c-0.3,1.9-0.7,3.8-1.1,5.7
	c-0.2,1-0.4,2.8-1.2,3.6c-0.9,0.9-3.2,1.5-4.4,2c-1.6,0.8-3.3,1.5-4.9,2.3c-3.5,1.6-6.9,3.2-10.4,4.8c-11.5,5.2-23.2,11.2-35.6,13.9
	c-1.5,0.3-4.5,1.3-5.6-0.1c-0.8-1-0.8-3.6-1-4.8c-0.8-5.5-1.2-11.1-1.6-16.7c-0.7-10.6-0.7-21.2-1.4-31.8c-0.7-10.3-2.2-23-10-30.6
	c-4-3.9-9.8-7.5-15.1-9.5c-6.7-2.5-13.4-2.8-20.4-2.1c-13,1.3-26.3,1.4-39.4,1.6c-12.4,0.2-24.9,0.4-37.4-0.2
	c-13.7-0.6-28-1-41.5-3.9c-1.6-0.3-3.3-0.7-4.8-1.3c-1.8-0.8-2.1-0.9-0.7-2.3c3-2.9,5.9-5.7,8.9-8.5c2.4-2.3,5-4.7,6.7-7.5
	c2.1-3.4,0.1-5.7-3.6-4.8c-3.9,0.9-9.2,4.9-8,9.6c1.2,5.2,7.5-0.1,9.4-1.8c6.8-5.8,13.2-12,19.8-18c6.1-5.4,12.2-10.7,18.5-15.8
	c3.9-3.1,8.1-6.8,12.7-8.9c3.2-1.5,6.9-2.1,10.3-2.7c5.7-1,11.4-1.6,17.2-2c15.2-1.2,30.5-1.3,45.8-0.7c8.5,0.4,17,1,25.5,1.9
	c1.8,0.2,9.8,0.3,10,1.8c0.1,0.9-0.9,2.4-1.3,3.2c-0.7,1.4-1.4,2.8-2.2,4.1c-3.5,6.4-6.7,12.8-9.5,19.5c-2.8,6.6-5.4,13.3-8.6,19.8
	c-1.1,2.3-2.3,4.6-3.8,6.7c-1.8,2.4-4.3,4.4-6.6,6.3c-5.7,4.8-11.9,9.1-18.4,13c-11.6,6.9-24.1,12.7-37,16.6
	c-4.6,1.4-9.4,2.7-14.2,3.2c-6.4,0.7-12.7,0.9-19.1,2.2c-4.5,1-8.9,2.3-13.1,4.2c-2.5,1.1-5,2.7-7.7,3.4c-2.6,0.7-5.6,0.4-8.2,0.5
	c-4.4,0-8.8-0.1-13.2-0.2c-10.6-0.4-21.2-1-31.7-2.3c-4.6-0.5-9.2-1.2-13.8-2.2c-2.7-0.6-6.2-1.2-8.5-3c-0.6-0.4-0.9-0.7-1-1.4
	c-0.3-1.6,1.5-3.9,2.1-5.4c0.6-1.6,1-3.1,0.8-4.8c-0.2-1.4-0.4-1.3,0.8-2.4c1.2-1.1,2.7-2,4.1-2.9c7.5-4.7,15.6-8.4,23.3-12.7
	c1.8-1,5.2-2.3,6.2-4.2c0.8-1.3,0-2.2-1.4-2.3c-2.1-0.1-4.6,1.3-6.4,2c-3.7,1.5-7.3,3.3-10.8,5.1c-9.1,4.8-17.9,10.3-25.8,17
	c-5.9,5-14.3,12.6-15,20.9c-0.3,3.1,3.3,1.9,5.1,1.1c5-2.2,9.3-6.3,12.3-10.8c2.3-3.4,5.7-9.2,2.9-13.2c-0.9-1.3-3.1-2.9-4.8-2.6
	c-2.1,0.5-4.6,3.4-6.2,4.8c-4,3.6-7.7,7.8-10.1,12.6c-2.2,4.3-3.6,9.1-1.6,13.7c1.6,3.6,4.3,6.7,7.4,9.1c8.1,6.3,18.7,9,28.7,10.8
	c11.8,2.1,23.9,2.8,35.9,2.9c11.7,0.1,24,0.2,35.3-3.2c3.1-1,6-2.5,9-3.8c3.2-1.4,6.3-1.4,9.8-1.4c6.2,0,12.5-1.5,18.1-4.1
	c3.7-1.8,7-4.2,10.3-6.7c2.4-1.8,5.2-3.7,7-6.1c6.1-7.9-11.2-9.2-15.4-9.5c-5.5-0.5-11.1-0.5-16.7,0.2c-4.1,0.5-8.7,1.4-12.1,4
	c-3.6,2.7-5.8,8.8-5.9,13.2c-0.1,3.8,1.8,6.9,5,8.8c3.9,2.3,8.9,2.7,13.4,2.6c6.5-0.2,12.6-2.6,19-3.1c8.5-0.6,15.4,5.1,20.9,10.9
	c1.5,1.6,4.2,3.9,4.8,6.1c0.5,1.8-1,4.3-1.6,6c-4.8,12.1-8.7,24.3-11.3,37.1c-1,5.1-2,10.2-2.4,15.4c-0.1,1.7-0.8,5.9,1.1,7
	c1.8,1,2.5-1,2.9-2.4c1-3.9,1.5-8,2.3-12c2.5-13.2,5.4-26.8,11.2-39c4-8.5,8.6-17.8,16.4-23.3c3.9-2.7,7.7-5.1,12.4-6.1
	c6.5-1.3,12.9,0.5,18,4.7c9.2,7.8,12.4,20.2,13,31.7c0.3,5.5,0.4,11.1,0.2,16.6c-0.1,2.5-0.2,4.9-0.5,7.4c-0.1,0.8-0.3,2.8-0.5,1.9
	c-0.5-2.1-1-6.9,0.5-8.7c1.3-1.6,4.9-2.4,6.8-3.2c2.3-1,4.5-2,6.8-2.9c9-3.9,18-7.7,27-11.4c17.3-7.2,34.7-14.4,52-21.6
	c3.8-1.6,7.7-3.2,11.5-4.8c2.5-1.1,5-2.3,7.6-3.1c1.6-0.5,4.3-1.5,6-0.9c1.7,0.6,1.7,3.2,2.2,4.8c0.5,1.6,1.1,3.2,1.7,4.8
	c0.3,0.6,2,4.7,4.6,8.4c0.5,0.6-2.9-0.2-3.1-0.2c-1.6-0.3-3.2-0.8-4.7-1.5c-3.5-1.6-5.9-4.7-7.6-8c-1-2-1.5-2.9,0.7-3.9
	c1.2-0.6,2.8-0.9,4.1-1.2c1.9-0.4,3.8-0.4,5.6-0.9c1.4-0.3,3.2-0.9,4.3-1.9c1.6-1.5,1.2-3.8,1.2-5.7c-0.1-7.3,0.7-14.9,2.8-21.9
	c1.7-5.7,4.5-12.2,9.8-15.4c4.9-2.9,8.5,4.1,10.2,7.7c2.6,5.4,3,11.9,2.9,17.8c-0.1,6.8-1.3,13.7-3.5,20.2
	c-2,5.6-6.8,16.7-14.4,15.3c-5.6-1-7.7-9.3-9-13.9c-2.2-7.5-2.4-15.3-1.5-23.1c1.3-11,5.3-23.2,13.1-31.4c2.2-2.3,5.8-5.5,9.3-3.8
	c3.6,1.8,5.5,7.2,6.3,11.5c0.1,0.8,0,1.2-0.6-0.3c-0.9-2.5-1-6.2-1.2-7.6c-0.6-5-0.9-10.2-2.6-15c-1.5-4.2-4-8.1-8.4-9.5
	c-5.3-1.7-11.4,0.5-16.6,1.5c-16.5,3.3-32.7,8-48.9,12.4c-1.5,0.4-4.4,0.5-4.8,2.4c-0.1,0.4,0.3,0.9,0.1,1.3
	c-0.4,1.5-3.1,2.1-4.4,2.5c-2.9,0.9-6.2,2.2-8.7,0.3c-1.7-1.3-2.6-0.7-4.8,0c-16.9,5.2-34.1,9.6-49.8,18.1c-2,1.1-3.9,2.1-5.8,3.3
	c-1.1,0.7-1.7,1.1-1.8,2.4c-0.1,0.7,0.2,1.4,0.1,2.2c-0.3,1.5-1.8,4-3.7,3.6c-1-0.2-1.6-1.5-2.5-1.9c-1.1-0.4-1.7,0.1-2.6,0.8
	c-2,1.4-3.9,2.9-5.7,4.5c-3.3,2.7-6.4,5.4-9.5,8.4c-23.7,23-38.9,57-30.7,90.3c1.5,6.3,4,12.9,8.8,17.5c4.3,4.1,10.6,5.8,16.4,4.9
	c16.4-2.4,25.6-20.7,28.9-35.1c3.5-14.7,4.1-32.2-2.7-46.2c-2.3-4.7-5.9-9.2-11-11.1c-5.3-1.9-10.9-0.3-15.6,2.4
	c-11.4,6.8-18.2,19.7-21.1,32.2c-2.1,9.1-2.5,18.5-1.8,27.7c0.1,2,0.4,4,0.8,6c0.3,1.4,0.3,2.8-0.6,3.9c-1.4,1.7-4.2,2.1-6.2,2.3
	c-2.2,0.3-4.4,0.2-6.5,0.4c-1.3,0.1-3.1,0.1-4.1,1c-2.9,2.9,4.6,9.2,6.6,10.5c2.1,1.4,16.4,8,16.4,2.9c0-1.4-1.6-2.5-2.4-3.3
	c-1.8-1.8-3.2-4-4.3-6.3c-1.1-2.2-1.9-5-3.7-6.8c-2.4-2.3-6.2-1.7-9.2-1.3c-3.8,0.5-7.5,1.1-11.3,1.1c-4.4,0-8.9-0.1-13.3-0.3
	c-13.8-0.5-27.6-1.7-41.3-3.1c-20.3-2.1-40.6-4.4-60.4-9.6c-6.4-1.7-12.6-3.7-18.7-6.1c-4.9-1.9-10.9-3.8-15.3-6.7
	c-3.8-2.6-7-6.8-8.8-11c-0.5-1.1-1.4-3.4-1-4.6c0.2-0.6-0.3-0.4,0.4-0.6c0.5-0.1,1.4,0.5,1.9,0.6c6.5,2.6,13,5.5,19.7,7.7
	c16.6,5.5,34.3,8.1,51.7,10.3c11.8,1.5,23.7,2.4,35.7,2.6c5.8,0.1,11.6,0,17.4-0.3c3.6-0.2,6.9-0.5,9.8-2.9
	c5.2-4.1,6.8-11.3,8.3-17.4c1.9-7.5,4.5-14.7,8-21.6c4.6-9.1,10.3-17.1,17.6-24.2c6.8-6.6,14.3-12.2,22.4-17.1
	c9.3-5.7,19.1-10.1,29.3-13.8c1.9-0.7,16.3-3.9,12.7-7.7c-0.6-0.6-1.6-0.9-2.4-0.9c-2.6,0-6,1.7-8.5,2.5c-4.8,1.6-9.5,3.3-14.2,5.3
	c-8.9,3.7-17.4,8.2-25.5,13.4c-12.9,8.4-24.5,18.8-32.9,31.7c-3.9,6-6.2,12.8-9.9,19c-1.9,3.1-4,6.5-7.4,7.9
	c-4,1.7-8.4,2.5-12.7,2.9c-10.4,0.8-21.1-0.1-31.6-0.5c-9.2-0.3-18.5-0.8-27.7-1.7c-14.2-1.4-28.1-4-41.9-7.9
	c-6.8-1.9-16.1-3.6-20.6-9.7c-3.8-5.1-0.8-12.1,1.4-17.4c1.2-2.9,2.4-5.8,3.3-8.8c0.6-1.9,1.4-4.4,0.8-6.4c-1.7-5.8-6.4,2.2-7.4,4
	c-3.9,7.4-6.7,15.2-7.2,23.6c-0.3,4.5,0.8,8.6,1.8,12.9c1.1,4.6-0.1,8.1-3.2,11.6c-5.7,6.5-13.9,7-21.9,7H1c-1.3,0-1.3,2,0,2V223.7z
	"/>
</svg>
