<?xml version="1.0" encoding="utf-8"?>
<!-- Generator: Adobe Illustrator 27.4.1, SVG Export Plug-In . SVG Version: 6.00 Build 0)  -->
<svg version="1.1" id="_x2014_ÎÓÈ_x5F_1" xmlns="http://www.w3.org/2000/svg" xmlns:xlink="http://www.w3.org/1999/xlink"
	 x="0px" y="0px" viewBox="0 0 607.5 300" style="enable-background:new 0 0 607.5 300;" xml:space="preserve">
<style type="text/css">
	.st0{fill:#FFFFFF;}
	.st1{fill:#69A6C2;}
</style>
<rect x="2718.9" y="-828.3" class="st0" width="2200" height="2200"/>
<g>
	<path class="st1" d="M604.4,231.6h-72c-12,0-16.8-2.2-18.6-3.5c-0.6-0.4-1-0.3-1.2,0c-0.5,0.5-0.2,0.9,0.4,1.8
		c4.4,6.3,6.1,10.6,5.1,12.9c-1.1,2.6-7.5,2.9-11.6,1.9c-4.4-1-9.4-4.2-10.8-8.9c-0.5-1.7-0.3-2.8,0.1-4.3c0.3-1.3,0.6-2.8,0.6-5.2
		c-0.1-4.3-1.5-6.8-2.8-9c-0.2-0.3-0.3-0.5-0.5-0.8c3.6-2.2,8.8-2.3,11.9-0.2c2.1,1.4,2.8,3.5,3.4,5.4c0.6,1.8,1.1,3.4,2.8,3.9
		c4.3,1.3,10-7.2,13.9-13.6c1.2-1.9,2.2-3.6,3.2-5.2c4.4-6.9,7.6-12,14-29.9c4.9-13.7,5.8-19.6,3.5-21.5c-1.5-1.2-4-0.6-8.2,0.5
		c-3.1,0.8-6.9,1.8-11.8,2.4c-1,0.1-1.3,0-1.4-0.1c-0.3-0.3-0.3-1.4-0.2-2.4c0.1-2.1,0.3-4.9-1.8-7.4c-1-1.2-3.1-1.5-5.2-1.8
		c-1.3-0.2-3.2-0.5-3.4-0.9c-0.5-0.9,3.7-4.1,5.3-5.3c1.1-0.8,2.1-1.6,2.8-2.2c1.1-1,1.5-2,1.4-3c1.9-0.1,3.4-0.9,4.2-1.2
		c0.1,0,0.2-0.1,0.3-0.1c6.9-3.2,11.3-3.9,17.8,1.4c0.7,0.5,6.6,5.5,5.8,11.1c-0.4,2.8-2.4,4.7-3.4,5.7c-0.6,0.5-1.3,1.2-0.6,1.9
		c0.5,0.5,1.2,0.3,1.5,0.1c3-1,11.9-6.3,12.7-14c0.5-5.1-2.8-8.9-8.9-15.8c-0.2-0.3-0.8-1-1.5-1.9c-5.3-6.7-21.5-27.2-31.8-29.4
		c-7.9-1.7-17.3-3.2-22-2.3c-0.5-1-0.9-2.1-1.2-3.7c-0.8-4.9,1-8.3,2.9-11.8c1.9-3.6,3.9-7.3,3.5-12.8c-0.6-8.6-6.5-14.3-7.7-15.4
		c-7.9-7.1-18.4-6.1-20.4-5.9c-3.1,0.4-5,1.3-6.8,2.2c-2.1,1-4.2,2-8.4,2.4c-2.6,0.3-4.6,0.2-6.2,0.2c-2.5-0.1-4.1-0.2-5,1.3
		c-0.5,0.8-0.6,2-0.2,3.4c0.8,2.9,3.7,7.1,7.9,9.5c2,1.1,3.4,1.4,5,1.6c1.6,0.3,3.5,0.6,6.3,1.9c1.6,0.7,4.2,2,6.9,4.4
		c2.5,2.3,3.6,4.4,4.5,6.1c1,1.9,1.8,3.3,3.7,3.6c2.3,0.4,4.1-1.2,5.8-2.7c1.1-0.9,2.2-1.9,2.9-1.6c0.7,0.3,0.9,2.1,0.9,3.2
		c0.3,4.7-2.2,10.1-4.9,10.4c-0.8,0.1-1.5-0.3-2.2-0.7c-0.8-0.5-1.7-1.1-2.9-0.7c-1.7,0.6-1.9,2.4-2.1,4.2c-0.2,1.8-0.5,3.9-2,5.5
		c-1.2,1.2-3,1.9-4.6,2.6c-1.6,0.6-3,1.2-3.7,2.2c-0.7-0.1-1.4-0.1-2.2,0c-2.2,0.5-6.3,1.4-7.9,0.9c-3.2-1-3.1-3.2-2.9-5.8
		c0.1-1.9,0.2-3.9-1.5-4.9c-1.9-1.1-9.7,0.4-15.4,4.1c-12.9,8.6-21.6,21.3-23.8,26.1c-0.5,1-2.7,6.4-1.8,12.1
		c0.9,6.1,5.4,11.2,11.4,15.2c-1.4,0.5-2.8,1.2-3.9,2.3c-9.7,9.3,1.3,27.1,7.2,36.6c0.7,1.1,1.3,2.1,1.8,2.9
		c2.3,3.8,7.4,10.2,12.9,16.9c5.5,6.8,12,14.7,15.3,20.1c-6.9,4.9-24.3,11.2-53.5,14.9c1.9-2.6,3-4.8,3.5-6.1
		c7.7-20.1,6.8-46.9,6.2-61.3c-0.1-3.4-0.2-6-0.2-7.8c0-0.1,0.2-14.1-4.6-35.3c-0.6-2.6-1.8-7.9-4.9-8.4c-2-0.3-3.3,1.5-5,3.7
		c-1.5,2.1-3.4,4.7-6.6,6.6c-3.5,2.2-7.5,2.7-10.7,2.6c3.1-1.8,5.6-3.9,7.1-5.2c3.2-2.8,8.7-7.4,10.2-14.6c1.1-5.2-1-9.8-6.1-20.8
		l-0.7-1.4c-10.1-21.7-21.6-34.8-34.2-39c-9.3-3.1-17-0.6-21.9,2c-4.5,2.4-6.6,6.2-8.8,10.3c-5.2,9.4-6.3,16.4-5.4,35.6
		c0.6,13.4,1.7,16,4,17c2.8,1.2,5.8-0.8,9-3c3.5-2.4,7.1-4.9,11-3.7c1.2,0.3,1.4,0.7,2.5,2.2c1,1.4,2.7,3.7,6.4,7.6
		c7.3,7.5,12.8,10.5,17.4,12.7c0.9,0.4,1.8,0.7,2.9,1c0.2,0.1,0.5,0.1,0.7,0.2c-2.4,0.7-4.9,0.9-7.4,0.3c-1.9-0.5-2.7-1.1-4.3-2.5
		c-1.4-1.3-3.4-3-7.1-5.5c-7.3-4.9-10.9-7.4-16.3-7.9c-9-0.9-18.9,1.7-19.8,2.3c-7,5.9-8.1,14.3-8.4,17.6c-0.2,1.7-0.2,2.9-0.2,4.6
		c-0.1,5.2,0.6,8.8,1.2,11.7c0.2,1,0.4,1.9,0.5,2.7c0.8,5.8,0.3,8.9-0.7,15.8c-0.2,1.5-0.5,3.1-0.7,4.9c-0.1,0.5-0.1,0.9-0.2,1.4
		c-1.7-0.4-3.5-0.7-4.9-1c-3.5-5.1-8.7-10.1-15.2-14.2c-1-0.6-11.5-5.1-17.5-0.8c-6,4.2-6.9,13.5-2.6,26.3c-2.8,2.4-5.6,5.1-8.4,8.1
		c-2.9,3.2-5.1,7-6.6,11c0,0-0.1,0-0.1,0c0.6-0.9,0.6-2-0.3-4c-3.3-7-6.7-20.5-6.4-33.4c0.2-6.8,1.4-9.8,2.9-13.3
		c1.5-3.5,3.1-7.5,3.9-16c1.7-18.6-3.2-30.7-6.3-36.3c-0.9-1.7-2.8-4.7-4.8-7.4c-0.2-1.1-0.4-2.2-0.7-3.4
		c-1.5-7.6-2.9-11.1-4.3-14.8c-1.2-3-2.4-6.2-3.8-12c1.1-7.2,1.5-20.6-8.8-29.8c-5.4-4.8-11.3-7.2-17.6-7.1
		c-3.9,0.1-9.7,1.2-15.5,6.1c-5.7,4.7-7.7,10.6-9.8,16.8c-3.2,9.4-3.8,18.3-4.1,22.1c-0.2,2.4-0.2,4.4-0.3,6.3
		c-0.2,5.6-0.3,9-3,12.3c-0.8,1-1.7,1.9-2.5,2.6c-1.5,1.4-2.7,2.5-2.3,3.9c0.4,1.2,1.7,1.2,3.2,1.1c1.5,0,3.6-0.1,5.8,0.8
		c1.2,0.5,3.3,1.5,4.9,3.6c1.2,1.6,1.8,3.3,2.9,16.4l0.1,0.8c0.1,0.9,0.1,1.4,0.1,1.6c0.4,6.1,0,12.2-1.4,20.3
		c-0.7,4.2-1.5,7.5-2,10.2c-1.5,6.6-2.1,9.6,0.2,12.6c0.4,0.6,0.8,0.9,1.2,1.3c-3.7,2.5-6.6,4.7-7.6,5.3c-2.1,1.5-4.1,2.9-5.8,4.2
		c-2.8,2-5.4,3.9-7.1,5c2.2-2.2,5.9-6.1,6.4-11.8c1.1-13-2.9-34.6-8.2-44.5c-4.7-8.6-9.8-10.2-16.7-9.9c-5.9,0.2-9.8,6.9-10.5,8.2
		c-3.7,6.7-2,13.3,1.3,26.5c0.3,1.2,0.7,2.5,1,3.9c6.2,24.9,9.7,38.6,8.1,46.7c-0.3,1.5-0.7,3.1-1.1,4.7c-1.3,5.4-2.6,10.6,0.1,12.4
		c2,1.4,5-0.1,6.9-1.1l0.3-0.2c6.6-3.3,11.2-3.2,17.6-3c5.7,0.2,12.9,0.3,23.8-1.9c4.2-0.9,7.3-1.8,9.8-2.5c9,5.3,20.7,10,27.7,12.6
		c1,9.4-8.3,17.9-8.4,18c-3.7,3.4-17.1,7.8-34.7,9.4c-14.4,1.3-27.4,1.7-41.1-7.8c-2.1-1.5-5-3.4-8.3-5.6c0.5-1,0.8-2.1,0.9-3.1
		c1.2-11.1-15.8-19.7-30.3-24.9c-7.9-2.9-18.7-4.4-27.4-5.6c-5.2-0.7-11.2-1.6-11.9-2.3c-2.1-2.1-0.3-6,2.3-12.1
		c3-7,7.2-16.5,8.4-29.6c0.1-0.7,0.1-1.4,0.2-2.1c0.4-4.3,0.7-8.1,3.4-12.1c2.3-3.4,4.9-4.9,9.7-7.6c1.6-0.9,3.5-2,5.6-3.3
		c4.7-2.9,6.5-4.4,8.4-5.9c1.7-1.4,3.5-2.9,7.9-5.6c12.3-7.8,19.8-12.5,28.2-11.1c3,0.5,5.2,1.6,7,2.5c2.2,1.1,3.9,1.9,5.5,0.8
		c2.1-1.5,1.4-4.4,0.6-8c-1-4.2-2.2-9.5,0.4-14.7c1-2,2.1-3.1,3.4-4.4c1.7-1.7,3.4-3.4,4.8-7.2c0.8-2.3,1.2-4.5,1.5-6.1
		c0.2-0.9,0.4-2,0.6-2.4c0.7,0.6,1.9,3.8,2.5,5.1c1,2.7,1.5,4.7,1.8,6.1c0.3,1.4,0.5,2.2,1.4,2.2c0.2,0,0.6-0.1,0.9-0.5
		c1-1.4,2-7.2,0.2-12.7c-1.4-4.3-4-7.1-6.3-9.1c-8.2-7.4-16.1-10.5-23.7-9.2c-8.1,1.3-15.4,7.6-21.6,18.6c-2,3.6-4.6,8.6-7.3,13.9
		c-4.7,9.1-12.4,24.5-14.5,24.9c-1.8,0.3-3-1-5.2-3.5c-2.2-2.5-5.1-6-10.2-8.3c-1.2-0.5-2.4-1-3.6-1.3c0.3-0.2,0.7-0.4,1-0.7
		c1.9-1.3,4.6-3.2,7-6.7c1-1.4,1.5-2.5,1.9-3.5c0.6-1.3,1-2.3,2.4-3.4c1.2-1,2.1-1.3,3-1.6c1.1-0.4,2.2-0.8,3.2-2.2
		c0.8-1.1,1.1-2.1,1.3-3c0.3-1,0.5-1.8,1.3-2.7c0.6-0.6,1-0.7,1.6-1c0.5-0.2,1.2-0.4,2-0.9c2.5-1.6,3.5-4,4.2-5.5
		c0.2-0.6,0.6-1.3,0.7-1.4c0.7,0,2.2,3.3,2.6,7.7c0.2,2.5-0.1,4.4-0.3,5.5c-0.2,0.9-0.3,1.7,0.5,2c0.5,0.2,1-0.2,1.1-0.4
		c1.2-1.1,5-7.1,3.7-13.5c-1.6-7.4-9.3-10.7-16.7-13.8c-0.5-0.2-1.1-0.5-1.8-0.8C99.3,53.9,89,49,79.4,61.4
		c-1.2,1.5-2.5,3.2-3.9,4.7c-2.7,3.2-5.2,6.2-6.1,8.1c-4.2,8.6-2.4,11.1-0.9,13.2c0.9,1.2,1.5,2,0.5,4.3c-2,4.6-2.9,6.8-2,8.8
		c1.2,2.6,4.3,2.6,8.3,2.6c1.3,0,2.7,0,4.2,0.1c-1.3,0.2-2.5,0.2-3.7,0.3c-2.6,0.1-5.1,0.1-7.5,1.9c-0.7,0.5-1.4,1.2-2,1.9
		c-1.4,0.5-2.9,1.1-4.3,1.8c-0.3,0.1-0.5,0.2-0.7,0.3c-6.2,2.7-9.3,11.3-15.3,28.2c-1.3,3.6-2.2,6.5-3,9.1
		c-1.9,6.1-2.9,9.4-6.7,13.7c-1.2,1.3-2.5,2.6-3.7,3.8c-2.9,2.8-5,4.9-4.2,6.6c0.8,1.6,3.5,1.4,5.6,1.2c0.3,0,0.7-0.1,0.9-0.1
		c12.8-0.7,29.2,20.8,33,43.3c0.4,2.2,0.9,14.2-1.6,16.8c-2.7,2.7-7.2,2-11.8-0.2c3.4-0.8,6.3-1.9,7.8-3.7
		c7.9-9.6-1.2-30.2-10.8-41.4C45,178.9,36,175.9,33,177.2c-5.9,2.7-0.1,30.5,0.5,32.5c3.4,11.2,7.9,14.7,13.2,18.8
		c1,0.8,2.1,1.5,3.2,2.3c-4.2,0.5-8.4,0.7-10.8,0.7H3.4c-0.5,0-0.8,0.4-0.8,0.8s0.4,0.8,0.8,0.8H39c0.5,0,6.9,0,13-1
		c5.8,3.2,11.9,4.6,15.5,0.8c3.6-3.7,2.1-18.1,2.1-18.2c-1.8-10.8-6.7-22.1-13.3-30.9c-6.9-9.1-14.7-14.2-21.4-13.8
		c-0.3,0-0.6,0-1,0.1c-1,0.1-3.7,0.3-4-0.3c-0.3-0.7,2.2-3.1,3.9-4.7c1.2-1.2,2.6-2.5,3.8-3.9c4.1-4.6,5.2-8.2,7-14.3
		c0.8-2.5,1.7-5.4,2.9-9c5.9-16.5,8.9-24.8,14.5-27.3c0.2-0.1,0.4-0.2,0.7-0.3c0.6-0.3,1.3-0.6,2.2-1c-1,1.9-1.6,4.2-1.9,6.8
		c-0.9,7.8,1.5,16.2,6.2,21.7c4.9,5.7,13.9,9.7,18.7,6.6c1.3-0.9,17.3-22.4,14.5-26.8c-0.7-1-1.7-1.5-3.2-2.1
		c-2-0.8-4.7-1.9-8.4-5.2c-5.5-4.9-12.3-6.3-20.4-4.4c1.7-0.8,3.5-0.9,5.6-0.9c2.4-0.1,5-0.1,8-1.4c1.7,0.3,3.4,0.8,5.2,1.6
		c4.8,2.1,7.5,5.3,9.6,7.8c2.2,2.6,3.9,4.6,6.7,4.1c2.6-0.5,7.7-10.1,15.7-25.8c2.7-5.3,5.2-10.3,7.3-13.9
		c5.9-10.5,12.8-16.5,20.4-17.7c7.1-1.2,14.6,1.8,22.3,8.8c2.2,2,4.5,4.5,5.9,8.4c1.2,3.8,1,7.5,0.6,9.6c-0.3-1.3-0.8-3.3-1.7-5.7
		c-1.5-3.9-2.6-6.4-4.2-6.3c-1.3,0.1-1.5,1.6-2,3.9c-0.3,1.6-0.7,3.6-1.4,5.8c-1.3,3.5-2.8,5-4.4,6.6c-1.3,1.3-2.6,2.5-3.7,4.8
		c-2.8,5.7-1.5,11.5-0.5,15.8c0.7,3,1.2,5.4,0.1,6.3c-0.8,0.6-1.8,0.1-3.8-0.9c-1.8-0.9-4.2-2.1-7.4-2.6c-9-1.5-16.7,3.3-29.4,11.3
		c-4.4,2.8-6.3,4.3-8,5.7c-1.8,1.5-3.6,2.9-8.2,5.8c-2.1,1.3-4,2.4-5.6,3.3c-4.8,2.7-7.7,4.4-10.3,8.1c-2.9,4.4-3.3,8.5-3.7,12.9
		c-0.1,0.7-0.1,1.4-0.2,2.1c-1.3,12.8-5.4,22.2-8.3,29.1c-2.9,6.6-4.8,11-1.9,13.9c1,1,4.9,1.6,12.8,2.8c8.6,1.2,19.3,2.7,27.1,5.6
		c13.9,5,30.3,13.1,29.2,23.2c-0.1,0.8-0.3,1.6-0.6,2.4c-19.7-13-54.4-34.1-62.7-27.3c-2.9,2.3-4,8.6-2.9,15.6
		c1.8,11.8,9,21.3,19.2,25.3c12.9,5.1,29.5,1.7,39.3-4.2c3.5-2.1,6.1-4.6,7.7-7.1c2.7,1.8,5.4,3.6,8.1,5.5
		c14.2,9.8,27.5,9.5,42.2,8.1c15.7-1.5,31.1-5.7,35.7-9.8c0.4-0.4,9.6-8.8,9-18.6c2.2,0.8,3.6,1.2,4.1,1.4c2.7,0.6,4.7,0.4,6-0.7
		c2-1.5,2.1-4.5,2.2-6.9c0-1.3,0.1-2.6,0.4-3.1c2.2-3.2,4.4-4.5,6-5.4c0.3-0.2,0.6-0.3,0.8-0.5c0.3,0.2,0.6,0.3,0.9,0.4
		c-3.1,9.6-2.5,20.4,0.4,28.2c2.9,7.7,7.8,12.4,13.9,13.1c14,1.7,34.1,1.5,35.2,1.1c0.7-0.3,1-0.7,1.1-1.1c0.5-1.6-1.3-4.1-5.3-9.8
		c-2.7-3.7-6.3-8.9-10.5-15.4c-2.1-3.3-3.9-6.4-5.5-9.3c2.2-0.2,4.3-0.7,6.3-1.5l1.4-0.6c5.6-2.3,13.7-5.5,19.8-10.2
		c3.2,5.3,8.2,9.3,12.2,10.8c2.2,0.8,4.1,0.8,5.5,0c0.2-0.1,0.3-0.2,0.4-0.3c1.3,1.6,2.3,3.2,3.3,4.8c-0.6,0.9-1.2,1.6-1.8,2.3
		l-0.3,0.3c-1.7,1.8-5.8,5.9-5.2,11c0.5,4.4,4.5,7.4,7.8,9.5c10.6,6.7,22.4,14,35.7,14c4,0,8.2-0.7,12.5-2.2
		c9-3.2,15.3-9.1,19.4-14.2c28.2-3.4,47.5-9.4,55.7-15.3c1,1.7,1.5,3.1,1.4,3.9c0,0.2-0.1,0.7-0.2,1.2c-0.7,3-2,9.3-0.3,12.8
		c3.1,6.3,12.2,4.2,16.1,3.3c2.4-0.5,7.6-4.8,6.9-9.5c-0.6-4-2.1-6.3-3-7.8c-0.2-0.3-0.5-0.7-0.6-0.9c1.1-0.5,1.4-0.7,1.7-0.8
		c0.1-0.1,0.6-0.2,1.2-0.5l1.4-0.5c2.9-1,3.7-3.7,4.5-6.2c0.7-2.1,1.4-4.3,3.2-6c0.1,0.2,0.2,0.4,0.3,0.6c1.3,2.2,2.5,4.3,2.6,8.2
		c0,2.1-0.3,3.5-0.5,4.7c-0.4,1.6-0.7,3-0.1,5.1c1.5,5.4,7.1,8.9,12,10.1c4.5,1.1,11.8,0.9,13.4-2.9c1.4-3.3-1.2-8.4-3.9-12.5
		c3.8,1.5,9.6,2.4,16.8,2.4h72c0.5,0,0.8-0.4,0.8-0.8C605.2,231.9,604.8,231.5,604.4,231.6L604.4,231.6z M47.6,227.3
		c-5-3.9-9.4-7.3-12.6-18c-1.6-5.2-5.1-28.9-1.4-30.5c0.3-0.1,0.7-0.2,1.2-0.2c3.2,0,10,2.9,15.4,9.1C60.7,199.9,67.7,219,61.1,227
		c-1.4,1.7-4.9,2.8-8.8,3.5C50.7,229.5,49.1,228.4,47.6,227.3L47.6,227.3z M89.6,111.7c3.9,3.4,6.9,4.7,8.9,5.5
		c1.3,0.5,2.1,0.8,2.5,1.5c1.8,2.8-12,23.1-14,24.6c-3.6,2.3-11.8-0.8-16.5-6.3c-4.4-5.1-6.7-13.1-5.8-20.4c0.4-3.2,1.4-6,2.8-8
		C73.2,106.6,82.1,105.1,89.6,111.7L89.6,111.7z M83.7,102c-2.7-0.5-5.2-0.5-7.5-0.5c-0.3,0-0.6,0-0.9,0c-3.9,0-6.1-0.1-6.8-1.6
		c-0.6-1.3,0.3-3.5,2-7.4c1.4-3.2,0.3-4.6-0.7-5.9c-1.3-1.7-2.7-3.7,1-11.5c0.8-1.7,3.3-4.6,5.9-7.8c1.3-1.6,2.7-3.2,3.9-4.8
		c8.8-11.3,18-7,23.5-4.4c0.7,0.3,1.3,0.6,1.9,0.9c7.1,3,14.3,6,15.8,12.6c0.8,3.9-0.6,7.7-1.8,10c0.1-1.1,0.2-2.5,0-4.1
		c-0.2-2.4-1.4-9.2-4.2-9.2c-1.2,0-1.7,1.2-2.3,2.4c-0.6,1.5-1.5,3.4-3.6,4.8c-0.7,0.4-1.2,0.6-1.6,0.8c-0.7,0.2-1.4,0.5-2.2,1.4
		c-1.1,1.2-1.4,2.3-1.7,3.4c-0.2,0.8-0.4,1.6-1.1,2.5c-0.8,1-1.5,1.3-2.5,1.6c-0.9,0.3-2.1,0.8-3.5,1.9c-1.6,1.4-2.1,2.6-2.8,4
		c-0.4,0.9-0.9,2-1.8,3.3c-2.2,3.2-4.8,5-6.6,6.2C85.3,101.1,84.4,101.6,83.7,102L83.7,102z M133.5,248.3c-9.5,5.7-25.5,9-37.9,4.1
		c-14.3-5.6-17.6-19.8-18.2-24.1c-1-6.3,0-12.2,2.4-14.1c0.8-0.7,2-1,3.6-1c9,0,30.1,10.4,57.3,28.4
		C139.3,244,136.9,246.3,133.5,248.3z M246.7,114.5c0.6,8.6,1,14.3-1,15.5c-0.3,0.2-0.7,0.3-1.1,0.4c-1.5-6.2-2.7-12.7-3.5-18.1
		c-2-13.6-0.3-14.6-0.3-14.6c0,0,0.1,0,0.1,0c0.7,0,2.4,1.6,4.5,4.2C246.2,106.3,246.4,109.6,246.7,114.5L246.7,114.5z M216.4,114.2
		c-1.5-2.9-3.5-6.8-5-14.5c-1.7-9.1-2.9-15.2-0.4-21.9c0.5-1.4,1.2-2.7,1.7-3.8c1.3-2.5,2.5-4.9,2.7-8.9c0.1-2.3-0.2-3.8-0.4-5.2
		c-0.3-1.4-0.5-2.7-0.3-5c0-0.1,1.2-9.9,6.2-11.1c0.3-0.1,0.7-0.1,1.1-0.1c1.6,0,3.9,0.8,6.9,3.7c3.8,3.6,4.4,7.3,5.6,13.9
		c0.5,2.7,1,5.9,1.9,9.6c-0.4,2.5-0.8,4.1-0.9,4.3c-0.1,0.3-0.2,0.8-0.3,1.2c0,0,0,0,0,0c-0.1-0.5-0.4-0.9-0.8-1.3
		c-1.7-1.4-4.7-0.5-6.2,0.3c-1.2,0.7-2.2,1.2-3.1,1.7c-1,0.6-1.9,1.1-2.9,1.6c-0.5,0.2-0.7,0.7-0.7,1.2c0,1.5,2.1,3.7,3.5,4.4
		c0.1,0,0.2,0.1,0.3,0.2c0.9,0.5,2.7,1.6,4.6,1.3c1.1-0.2,2-0.6,2.7-1.1c0,0.5,0,1.1,0,1.7c0,1.1,0.1,1.9,0.1,2.6
		c0.1,1.5,0.1,2-0.3,2.5c-1.2,1.3-4,0.8-6.8,0.3c-1.5-0.3-4.1-0.7-6.8-2.3c-3.2-1.9-5.1-4.5-6.1-5.8c-0.6-0.8-1.1-1.5-1.9-1.1
		c-0.8,0.5-1.1,0.7,3.7,9.5l0.3,0.5c4.5,8.4,6.4,13.3,8,17.2c1.5,3.8,2.6,6.6,5.3,10.6c3.7,5.7,10.4,10.8,15.2,11.3
		c0.7,2.9,1.3,5.4,1.9,7.3l0.1,0.3c0.8,2.9,1.9,6.9,0.5,11.3c-0.4,1.4-1.2,2.6-2.2,3.8c0-1-0.1-2.1-0.5-3.2
		c-0.8-2.9-2.6-5.3-4.8-6.3c-2.7-1.3-5.2-0.2-10.3,1.9c-0.8,0.3-1.7,0.7-2.6,1.1c-3.8,1.6-7,2.2-9.6,2.7c-3.5,0.7-6.4,1.2-8.4,4
		c-0.4,0.6-0.7,1.1-1,1.6c0-2.3,0.5-7,1.8-11.7c1.7-6.4,4-9.5,6.1-12.2c1.9-2.5,3.5-4.8,4.1-8.8
		C219.2,119.4,218.1,117.2,216.4,114.2L216.4,114.2z M233.4,79.4c-0.2,0.8-0.3,1.7-0.5,2.9c-0.8,1.1-1.8,1.9-3.2,2.1
		c-1.4,0.2-2.8-0.6-3.5-1.1c-0.2-0.1-0.3-0.2-0.5-0.3c-1.2-0.6-2.4-2.2-2.6-2.8c1-0.5,1.9-1,2.8-1.5c0.9-0.5,1.9-1.1,3.1-1.7
		c1.2-0.7,3.5-1.2,4.4-0.5C233.9,76.8,233.8,77.5,233.4,79.4z M237.5,74.6c1.1,3.9,2,6.4,3,8.9c1.4,3.6,2.7,7,4.2,14.5
		c0,0.2,0.1,0.4,0.1,0.6c-1.7-1.9-3.5-3-4.7-2.5c-3.7,1.7-0.3,20.8,2.8,34.2c-3.9-0.8-9.8-5.2-13.4-10.5c-2.6-3.9-3.7-6.6-5.1-10.3
		c-1.6-3.9-3.5-8.9-8-17.4l-0.3-0.5c-0.7-1.3-1.3-2.4-1.7-3.3c1,1,2.2,2,3.7,2.9c3,1.8,5.9,2.3,7.4,2.5c3.2,0.5,6.5,1.1,8.3-0.9
		c0.9-1,0.8-2.1,0.7-3.7c0-0.7-0.1-1.5-0.1-2.5c0-1.4,0.1-2.6,0.2-3.7c1.3-2,1.9-4.4,2.3-6.1c0.1-0.4,0.2-0.8,0.3-1.2
		C237.3,75.4,237.4,75.1,237.5,74.6L237.5,74.6z M189.5,159.3c0.6-2.7,1.3-6.1,2-10.3c1.4-8.3,1.9-14.4,1.4-20.7
		c0-0.3-0.1-0.8-0.1-1.7l-0.1-0.8c-1.1-13-1.7-15.3-3.2-17.3c-1.9-2.4-4.3-3.6-5.6-4.1c-2.1-0.8-4-0.9-5.5-0.9c-0.3,0-0.6,0-0.9,0
		c-0.6,0-1.4,0-1.7-0.1c0-0.4,1-1.3,1.8-2.1c0.8-0.8,1.8-1.7,2.7-2.8c3-3.8,3.2-7.6,3.4-13.3c0.1-1.8,0.1-3.9,0.3-6.2
		c0.3-3.7,0.9-12.5,4-21.7c2-6,4-11.6,9.3-16.1c5.5-4.6,10.9-5.6,14.5-5.7c5.9-0.1,11.4,2.2,16.5,6.7c7.5,6.8,8.9,16.1,8.7,23.1
		c-0.3-1.6-0.6-3.1-0.8-4.5c-1.2-6.8-1.9-10.8-6.1-14.8c-3.5-3.3-6.8-4.7-9.6-3.9c-6.1,1.6-7.3,12.1-7.4,12.5c-0.3,2.5,0,4,0.3,5.5
		c0.2,1.3,0.5,2.6,0.4,4.7c-0.2,3.7-1.3,5.8-2.5,8.3c-0.6,1.2-1.2,2.5-1.8,4c-2.7,7.2-1.5,13.4,0.3,22.8c1.5,7.9,3.6,12,5.2,14.9
		c1.5,3,2.5,4.8,1.9,8.5c-0.5,3.7-2,5.6-3.8,8.1c-2,2.7-4.5,6.1-6.3,12.8c-1.4,5.3-2.4,12.7-1.5,14.3c0.2,0.3,0.5,0.5,0.7,0.5
		c0.9,0.2,1.3-0.6,1.8-1.5c0.3-0.5,0.6-1.2,1.1-1.9c1.6-2.2,3.9-2.7,7.4-3.4c2.6-0.5,5.9-1.2,9.9-2.8c0.9-0.4,1.8-0.8,2.6-1.1
		c4.7-2,6.9-2.9,8.9-2c1.7,0.8,3.2,2.8,3.9,5.3c0.5,1.7,0.5,3.4,0.1,4.7c-1.1,1-2.3,2-3.9,3.1c-2.1,0.5-5.1,0.6-9.3,0.8
		c-2.4,0.1-5.4,0.3-5.9-0.2c0.1-1.1,4.9-4.1,6.8-5.3c3.3-2.1,4.1-2.6,3.7-3.6c-0.1-0.1-0.2-0.4-0.6-0.5c-1.8-0.5-16.4,4.5-31.7,14
		c-3.1,1.9-6.7,4.3-9.9,6.6c-0.5-0.3-0.9-0.7-1.4-1.3C187.6,168.1,188.1,165.5,189.5,159.3L189.5,159.3z M221,161.1
		c0.6,1.6,3.1,1.4,7.6,1.2c2.5-0.1,4.6-0.2,6.4-0.4c-0.9,0.7-1.9,1.4-2.9,2.1c-8.9,6.4-13.3,9.6-18.6,9.4c-1.2,0-2.2-0.2-3-0.3
		c-1.5-0.3-2.8-0.5-4.6,0.2c-4,1.5-5.9,5.5-7.2,8.3c-0.5,0.9-1.1,2.2-1.4,2.5c-0.2-0.3-0.3-1.1-0.5-1.8c-0.4-2-1-5-3.3-8
		c-0.5-0.7-0.9-1.1-1.3-1.5c3.1-2.1,6.5-4.4,9.5-6.2c12-7.5,22.7-11.7,27.6-13.2c-0.3,0.2-0.5,0.3-0.7,0.5
		C223.5,157,220.3,159.2,221,161.1L221,161.1z M209.9,213.9c4.3-1.3,6.6-1.9,10.7-0.9c1.9,0.5,11.7,3.4,14.3,11.6
		c0.1,0.2,0.1,0.4,0.2,0.7C228.4,222.9,218.1,218.6,209.9,213.9L209.9,213.9z M248.4,217.6c-0.6,0.9-0.7,2.3-0.7,4
		c-0.1,2.1-0.1,4.5-1.5,5.6c-0.9,0.7-2.5,0.8-4.7,0.4c-0.6-0.2-2.3-0.7-4.6-1.5c-0.1-0.6-0.3-1.2-0.4-1.8
		c-2.8-9.1-13.4-12.2-15.5-12.7c-4.7-1.2-7.5-0.3-12.2,1.1c-0.3,0.1-0.5,0.2-0.8,0.3c-6-3.5-10.6-7.3-11.3-10.5
		c-0.8-3.4-0.2-6.2,1.8-8.3c3.3-3.5,10-4.5,14.9-3.7c9.7,1.6,20.1,6.9,35.8,18.1c1.1,0.8,3.1,2,5.7,3.3
		C253.2,212.7,250.7,214.1,248.4,217.6L248.4,217.6z M256.4,210.7c-3-1.4-5.2-2.7-6.4-3.6c-15.9-11.4-26.5-16.7-36.5-18.3
		c-5.2-0.9-12.5,0.1-16.4,4.2c-2.4,2.5-3.1,5.8-2.2,9.7c0.8,3.5,5.1,7.2,10.8,10.8c-2.2,0.7-4.9,1.4-8.3,2.1
		c-10.8,2.2-17.8,2-23.5,1.9c-6.4-0.2-11.5-0.3-18.4,3.2l-0.3,0.2c-1.5,0.8-4,2.1-5.2,1.2c-1.7-1.2-0.5-6.2,0.6-10.6
		c0.4-1.6,0.8-3.2,1.1-4.7c1.6-8.1-1.4-20.4-8.1-47.4c-0.3-1.4-0.7-2.7-1-3.9c-3.3-13.1-4.8-19.1-1.5-25.3c0.7-1.2,4.2-7.1,9.1-7.4
		c0.5,0,0.9,0,1.4,0c5.7,0,9.8,1.7,13.8,9.1c5.2,9.6,9.1,30.8,8,43.5c-0.4,5.4-4,8.9-6.2,11.1c-1.1,1.1-1.7,1.7-1.7,2.4
		c0,0.3,0.1,0.6,0.3,0.8c1.1,1.1,3-0.2,10.8-5.9c1.7-1.2,3.6-2.7,5.8-4.2c1-0.7,4.2-3,8-5.6c0.4,0.3,0.9,0.8,1.4,1.5
		c2,2.7,2.6,5.4,3,7.3c0.3,1.7,0.6,2.9,1.8,3.2c1.4,0.2,2.2-1.3,3.2-3.5c1.3-2.6,3-6.2,6.4-7.5c1.4-0.5,2.4-0.4,3.8-0.1
		c0.9,0.2,1.9,0.3,3.2,0.4c5.8,0.2,10.4-3.1,19.6-9.7c2.1-1.5,3.9-2.8,5.5-4c1.8-0.5,3.1-1.2,3.9-2.5c0.3-0.4,0.5-0.8,0.6-1.3
		c2.2-2,3.6-4,4.3-6.2c1.6-4.9,0.4-9.1-0.5-12.3l-0.1-0.3c-0.6-2.2-1.2-4.5-1.8-6.9c0.6-0.1,1.1-0.3,1.6-0.6c2.8-1.7,2.4-6.8,1.7-17
		c-0.2-3.7-0.4-6.6-0.8-9.7c1,1.4,1.9,3,2.8,4.6c3,5.4,7.7,17.2,6.1,35.3c-0.8,8.3-2.4,12.1-3.8,15.5c-1.5,3.5-2.8,6.8-3,13.9
		c-0.3,13.2,3.1,26.7,6.5,34.1C256.8,209.6,256.9,210.2,256.4,210.7L256.4,210.7z M376.5,134.9c-1-0.3-1.8-0.6-2.6-0.9
		c-4.4-2.1-9.8-5-16.9-12.3c-3.6-3.7-5.2-5.9-6.2-7.4c-1.1-1.5-1.6-2.3-3.4-2.8c-0.8-0.2-1.6-0.3-2.4-0.3c-3.6,0-7,2.3-10,4.3
		c-2.9,2-5.4,3.7-7.4,2.8c-1.5-0.7-2.5-3.4-3.1-15.6c-0.9-18.8,0.2-25.6,5.2-34.7c2.2-4,4.1-7.4,8.2-9.6c4.6-2.5,11.8-4.8,20.6-1.9
		c12.2,4,23.4,16.9,33.2,38.1l0.7,1.4c5.1,11,7,15.1,6,19.7c-1.4,6.7-6.4,10.9-9.7,13.7c-1.7,1.5-5.1,4.3-9.1,6.2
		C378.3,135.4,377.1,135.1,376.5,134.9z M314.6,184.1c3.2,1,6.1,2.5,6.6,4.8c1.2,5.3-0.5,9.8-3.6,13.5
		C315.5,198.6,313.9,192.8,314.6,184.1z M313,183.7c-0.3,3-0.3,5.6-0.1,8c-0.1-0.6-0.3-1.2-0.4-1.9c-0.6-2.3-1.6-4.6-3-6.9
		C310.6,183.2,311.8,183.4,313,183.7L313,183.7z M276.5,167.3c1.6-1.1,3.6-1.5,5.7-1.5c4.4,0,9.1,1.8,10,2.4
		c5.8,3.7,10.5,8,13.9,12.5c-11-1.4-21.3,2-31.7,10.4C271.9,183.6,269.7,172.2,276.5,167.3L276.5,167.3z M265.8,201.6
		c2.6-2.9,5.2-5.4,7.8-7.6l0.2,0.5c2.3,6.4,4.9,13.8,10.3,23.8c-8.1,0-17.5-3.1-24.5-6.2C261,208.2,263,204.6,265.8,201.6z
		 M290.9,230c4.2,6.6,7.8,11.7,10.5,15.5c2.8,3.9,5.4,7.5,5.1,8.3c0,0,0,0-0.1,0c-1.4,0.2-20.4,0.5-34.5-1.1
		c-5.5-0.7-9.9-4.9-12.6-12c-2.8-7.4-3.3-17.7-0.4-26.9c7.4,3.2,17.3,6.5,25.9,6.2C286.6,223,288.6,226.4,290.9,230L290.9,230z
		 M293.8,216.3l-1.4,0.6c-2,0.8-4.2,1.2-6.5,1.4c-5.6-10.3-8.3-17.9-10.6-24.3l-0.3-0.8c0,0-0.1-0.2-0.1-0.3
		c10.5-8.6,20.8-12,31.8-10.3c0.2,0,0.4,0.1,0.7,0.1c1.7,2.5,2.9,5.1,3.5,7.6c0.8,3.2,0.8,5.1,0.7,7c-0.1,2.1-0.2,4.1,1.1,7.3
		c0.2,0.6,0.5,1.1,0.8,1.7C307.6,210.7,299.7,213.9,293.8,216.3z M314.2,203.9c-1.1-2.8-1.1-4.6-1-6.6c0-0.8,0.1-1.8,0-2.8
		c0.6,3.9,1.8,6.9,3.2,9.1c-0.5,0.5-1.1,1-1.7,1.5C314.6,204.7,314.4,204.3,314.2,203.9L314.2,203.9z M331.2,217
		c-0.9,0.5-2.4,0.5-4.2-0.2c-3.7-1.3-8.5-5.1-11.5-10.2c0.6-0.5,1.2-1,1.8-1.6c0.5,0.7,1,1.4,1.6,1.9c1.3,1.4,2.1,1.8,3.3,2.5
		c0.7,0.4,1.6,1,2.9,1.8c2.6,1.8,4.6,3.7,6.3,5.6C331.3,216.9,331.2,216.9,331.2,217L331.2,217z M333.4,216.8c0.7-1.5,0.6-3.7,0.5-7
		c-0.1-2.7-0.2-6.1-0.1-10.5c0.3-7.7,1.2-12.9,1.9-17.4c0.5-3.2,1.1-6.1,1.3-9.5c4.4,23.5,4.3,39.9-0.4,49
		C335.7,219.8,334.6,218.3,333.4,216.8z M383.8,256.3c-17.9,6.5-33.3-3.2-46.8-11.6c-3.2-2-6.6-4.6-7.1-8.3c-0.5-4.2,3.2-8,4.8-9.6
		l0.3-0.3c0.6-0.6,1.1-1.2,1.6-1.9c0.3,0.5,0.5,0.9,0.8,1.4c1.9,3.4,3.7,6.6,6.8,9.5c9,8.3,26.7,11,34.2,10.6
		c8.1-0.5,15.8-1.1,22.9-1.9C397.4,248.4,391.6,253.4,383.8,256.3L383.8,256.3z M402.7,242.1c-7.4,0.9-15.6,1.6-24.5,2.1
		c-7,0.4-24.5-2.3-33-10.1c-2.9-2.6-4.6-5.7-6.5-9.1c-0.4-0.7-0.8-1.4-1.2-2.1c6-10.3,5.7-30.5-0.8-60c0-0.3-0.1-0.7-0.1-1
		c-0.9-7.1-2.5-11.8-3.2-12.3c-0.2-0.1-0.4-0.2-0.7-0.1s-0.4,0.2-0.5,0.4c-0.2,0.2,0.1,1.6,0.7,3.9c0.8,3.2,1.5,6.4,2.2,9.4
		c0.8,7.7,0,12.5-1,18.4c-0.8,4.6-1.7,9.9-2,17.7c-0.2,4.5,0,8.1,0.1,10.6c0.1,2.7,0.2,4.4-0.1,5.5c-1.7-1.8-3.7-3.7-6.2-5.4
		c-1.3-0.9-2.2-1.5-3-1.9c-1.1-0.7-1.8-1.1-2.9-2.2c-0.5-0.6-1.1-1.2-1.6-2c3.7-4.1,5.8-9.1,4.4-15.2c-0.7-3.1-4.3-5-8.1-6.1
		c0.1-0.5,0.1-1,0.2-1.5c0.3-1.8,0.5-3.4,0.7-4.9c1-7,1.5-10.2,0.7-16.2c-0.1-0.9-0.3-1.8-0.5-2.8c-0.5-2.8-1.2-6.3-1.2-11.4
		c0-1.6,0-2.8,0.2-4.4c0.4-3,1.4-11,7.8-16.4c1-0.5,10.1-2.9,18.6-2c5,0.5,8.5,2.9,15.6,7.7c3.6,2.5,5.6,4.1,7,5.4
		c1.7,1.5,2.7,2.4,5,2.9c3.9,0.9,7.7,0.1,11-1.4c3.9,0.5,9.5,0.4,14.4-2.6c3.4-2.1,5.4-4.9,7-7.1c1.5-2.1,2.4-3.2,3.4-3.1
		c2,0.3,3.2,5.3,3.6,7.2c4.8,21,4.6,34.8,4.6,34.9c0,1.8,0,4.5,0.2,7.9c0.5,14.3,1.4,40.8-6.1,60.6
		C406.7,236.3,405.3,239,402.7,242.1L402.7,242.1z M496.1,93c0.1-0.1,0.3-0.3,0.5-0.4c0.1,0.2,0.2,0.3,0.3,0.5
		c0.9,1.5,1.6,2.6,1.6,5c0,4.2-2.2,9.2-5.6,12.6c-2.3,2.3-4.7,3.5-7,3.5h0c-2.4,0-4.4-1.5-6.2-3.5c3.7,0.9,6.2,0.2,6.4,0.1
		c4.9-1.4,7.4-5.2,8.3-6.8c1.2-2.1,1.6-4.1,1.8-5.1c0.3-2.2,0.1-3.7-0.1-4.7C496,93.4,495.9,93.2,496.1,93L496.1,93z M473.6,99.5
		c1.7-0.7,3.7-1.5,5.2-2.9c2-2,2.3-4.5,2.5-6.4c0.2-1.6,0.4-2.7,1-2.9c0.4-0.2,0.8,0,1.5,0.5c0.8,0.5,1.8,1.1,3.3,1
		c4.1-0.5,6.8-7,6.4-12.2c-0.1-1.6-0.3-3.8-1.9-4.6c-1.6-0.7-3.1,0.6-4.6,1.9c-1.4,1.2-2.9,2.5-4.4,2.3c-1-0.2-1.5-1-2.5-2.7
		c-0.9-1.7-2.2-4.1-4.9-6.6c-2.8-2.6-5.7-4-7.3-4.7c-3-1.4-5-1.8-6.8-2.1c-1.6-0.3-2.8-0.5-4.5-1.4c-3.7-2.1-6.5-5.9-7.2-8.4
		c-0.2-0.9-0.2-1.6,0-2.1c0.4-0.6,1.4-0.6,3.5-0.5c1.6,0.1,3.8,0.1,6.5-0.2c4.5-0.5,6.7-1.5,8.9-2.6c1.8-0.8,3.4-1.6,6.3-2
		c1.9-0.3,11.7-1.2,19.1,5.4c1.1,1,6.6,6.3,7.1,14.3c0.3,5.1-1.5,8.5-3.3,11.9c-1.9,3.6-3.9,7.4-3,12.9c0.3,1.7,0.7,2.9,1.2,3.9
		c-0.4,0.2-0.8,0.5-1,0.8c-0.6,0.8-0.4,1.7-0.3,2.6c0.2,0.9,0.4,2.2,0.1,4.2c-0.2,0.9-0.5,2.7-1.6,4.6c-0.8,1.4-3.1,4.8-7.4,6.1
		c-0.2,0-3.4,0.9-7.8-0.9c-0.4-0.5-0.7-1-1.1-1.5c-1.8-2.5-3.6-5-5.9-6.1C471.5,100.4,472.5,100,473.6,99.5L473.6,99.5z
		 M474.4,106.5c-0.8-0.5-1.6-1.2-2.4-2c-0.4-0.4-1.2-1.1-1.5-2.1C471.9,103.3,473.1,104.8,474.4,106.5L474.4,106.5z M459.8,225.9
		c-3-4.8-8.4-11.6-15.3-20.1c-5.4-6.7-10.6-13-12.8-16.7c-0.5-0.9-1.1-1.9-1.8-3c-5.7-9.2-16.2-26.3-7.5-34.6
		c1.2-1.2,2.9-1.9,4.6-2.2c7.4,4.6,16.5,7.6,23.6,8.8c0.2,0,0.4,0.1,0.7,0.1c2.2,2.4,4.4,5.4,6.5,9.2c4.2,7.7,5.5,12.8,7,18.7
		c0.9,3.6,1.8,7.4,3.5,12.1c1.7,4.7,3.6,8.2,5.1,11c2.2,4.1,3.5,6.5,2.4,8.9c-0.1,0.2-0.1,0.3-1.5-0.2c-2.5-0.9-7.2-2.6-12.6,6.1
		C461.2,224.6,460.6,225.3,459.8,225.9z M429.7,148.9c2.7-0.1,5.3,0.3,6.8,0.6c3.6,0.7,8.1,2.5,12.6,6.6c-2-0.4-4.2-1-6.7-1.8
		C440,153.5,434.9,151.7,429.7,148.9L429.7,148.9z M486.9,223c-0.8,2.4-1.4,4.4-3.5,5.1l-1.4,0.5c-1.1,0.4-1.1,0.4-1.5,0.6
		c-0.2,0.1-0.5,0.3-1.6,0.8c-0.5,0.2-0.8,0.5-0.9,0.9c-0.2,0.7,0.2,1.4,0.8,2.4c0.9,1.4,2.2,3.5,2.8,7.1c0.5,3.7-4,7.2-5.7,7.6
		c-5.8,1.3-12,2.1-14.2-2.4c-1.5-3-0.1-9.1,0.4-11.7c0.2-0.7,0.2-1.1,0.3-1.4c0.1-1.2-0.5-2.9-1.7-5.1c1-0.8,1.7-1.7,2.2-2.5
		c4.8-7.6,8.3-6.3,10.7-5.4c1.2,0.4,2.8,1,3.5-0.7c1.4-3.2-0.1-6-2.4-10.4c-1.5-2.8-3.3-6.2-5-10.8c-1.7-4.6-2.6-8.3-3.5-11.9
		c-1.4-5.8-2.8-11.3-7.1-19.1c-1.7-3.2-3.5-5.8-5.4-8c3.1,0.3,6,0.3,6.7-1c0.7-1.3-0.8-2.5-2.9-4.1c-2-1.5-4.6-3.6-4.1-4.9
		c0.6-1.5,3.2-1.9,5.5-2.3c2-0.3,4-0.6,4.8-1.8c1.9,1.7,4,3.4,6.5,4.8c-0.3,0.1-0.7,0.3-1,0.5c-3.9,2.2-5.1,7.2-3.8,10.5
		c0.7,1.9,2.3,3,5.2,5c1.8,1.2,4.2,2.5,7.1,3.9c4.8,2.2,9.7,3.8,9.7,3.8c0.2,0.1,0.4,0,0.6,0c2.3-1.1,3.3-2.1,3.2-3.2
		c-0.2-1.4-1.9-1.9-3.8-2.4c-1.4-0.4-3.4-1-3.5-1.7c0-0.3,0.1-0.8,1-1.6c2.7-2.4,9-1.8,12.5,1.3c0.5,0.4,0.8,0.8,1.2,1.2
		c0.7,0.7,1.3,1.4,2.4,1.5c1.2,0.2,2.4-0.4,3.4-1.2c-1.7,3.4-4.8,7.9-9.6,9.9c-6.5,2.7-13.4,0.3-18.9-1.7c-4.6-1.7-8.3-2.9-10.5-0.8
		c-0.7,0.7-1,1.6-0.9,2.9c0.4,5.4,8.6,16.1,16.1,21.3c4.6,3.2,8.7,3.4,12.1,2.3c-2.5,4-3.8,7.9-3,11.9c0.2,1.3,0.7,2.4,1.2,3.5
		C488.5,218,487.7,220.6,486.9,223z M479.4,150.7c0.6-0.3,1.2-0.6,1.7-0.8c0.3-0.2,0.6-0.3,0.9-0.5c1.5-0.8,2.2-0.7,6.8-0.6
		c2.2,0.1,5.1,0.2,9.4,0.2c0.8,0,1.5,0,2.2,0c4.9,0,6.7,0,9.7,0.9c3,0.9,5.4,1.8,5.9,3.6c0.5,2-1.2,5-3.4,5.7
		c-1.9,0.7-4.1-0.5-6.1-1.5c-1.9-1-3.7-1.9-5.1-0.8c-0.8,0.7-0.9,1.8-1,2.6c0,0.8-0.1,1.3-0.5,1.5c-0.7,0.4-2.2,0.1-2.9-0.8
		c-0.9-1.2-0.1-3.7,0.2-4.7c0.2-0.6,0.3-0.8,0.1-1.2c-0.1-0.2-0.3-0.3-0.5-0.4c-0.1,0-0.2,0-0.2,0c-0.1,0-0.3,0-0.4,0.1
		c-0.3,0.2-0.4,0.4-0.6,1.1c-0.3,1.2-1.3,4.3-2.9,4.7c-0.6,0.2-1.3,0-1.8-0.4c1.3-2.4,2.2-5.4,2.2-5.4c0.2-0.9,0.5-1.9-0.3-2.3
		c-0.7-0.3-1.2,0.3-1.4,0.5c-1.1,1.1-3.6,4.9-2.5,7.3c-0.2,0.3-0.4,0.5-0.6,0.7c-0.3,0.3-0.5,0.3-0.5,0.3c-0.1,0-0.2-0.1-0.4-0.3
		c-0.6-0.7-1.1-2.1-1-3.5c0.1-1.4,0.9-2.4,1.5-3.2c0.5-0.7,1.2-1.5,0.6-2.3c-0.2-0.3-0.7-0.7-1.7-0.7c-1.6-0.1-3.9,0.8-5.1,2.4
		c-0.7,1-0.9,2-1.1,2.8c-0.2,0.9-0.3,1.2-0.7,1.5c-0.5,0.3-1.3,0.2-1.8-0.2c-0.9-0.7-0.8-2.3-0.3-3.2c0.3-0.5,0.7-0.7,1-1
		c0.4-0.2,1-0.6,1-1.3C479.9,151.3,479.7,151,479.4,150.7L479.4,150.7z M476.5,153.2c-0.9,1.6-0.9,4.1,0.7,5.3
		c1,0.8,2.6,0.9,3.6,0.3c1.1-0.6,1.3-1.7,1.4-2.6c0.1-0.7,0.3-1.4,0.8-2.1c1-1.4,3-1.8,3.8-1.8c-0.1,0.1-0.2,0.2-0.3,0.4
		c-0.7,0.9-1.7,2.2-1.8,4.1c-0.1,1.7,0.5,3.5,1.4,4.7c-0.9,0.3-1.6,0.7-2.3,1.3c-0.4,0.4-1.8,1.6-1.5,3.1c0.3,1.8,2.6,2.4,4.6,3
		c0.9,0.3,2.5,0.7,2.6,1c0,0-0.1,0.5-1.9,1.4c-1.2-0.4-5.2-1.8-9.3-3.7c-2.8-1.3-5.1-2.5-6.8-3.7c-2.7-1.9-4.1-2.8-4.6-4.2
		c-1-2.6,0-6.7,3.1-8.5c0.7-0.4,1.4-0.6,2.1-0.7c0.8,0.4,1.7,0.8,2.9,0.9c0.8,0.1,1.6,0,2.4-0.1c0.2,0.1,0.4,0.2,0.6,0.3
		C477.6,151.9,476.9,152.3,476.5,153.2L476.5,153.2z M491.4,212.2c-0.8-4.2,1-8.3,4.2-12.8c2.2-1.1,4-2.6,5.5-3.9
		c0.7-0.5,1.2-1,1.8-1.4c13.4-9.5,22.2-19.7,22.4-22.5c0-0.5-0.2-0.8-0.4-1c-0.2-0.2-0.4-0.3-0.8-0.3c-2.6,0-13.4,10-18.5,15.4
		c-4.3,4.5-8.2,8.6-11,12.5c-3.4,1.7-7.7,2.2-12.8-1.2c-6.9-4.7-15-15.2-15.4-20c-0.1-0.7,0.1-1.2,0.4-1.5c1.5-1.4,4.9-0.2,8.8,1.2
		c5.7,2,12.9,4.6,20,1.6c8.5-3.5,12.1-14.3,12.2-15.3c0-0.5-0.2-0.7-0.3-0.8c-0.2-0.1-0.4-0.2-0.6-0.1c-0.4,0.1-0.5,0.3-0.9,0.8
		c-0.7,1-2.7,3.9-4.6,3.6c-0.5-0.1-0.8-0.3-1.4-1c-0.3-0.4-0.8-0.8-1.3-1.3c-1.4-1.2-3.1-2-4.9-2.6c0.6-0.3,1.2-0.7,1.6-1.3
		c0.1,0.4,0.3,0.8,0.5,1.1c1.2,1.5,3.6,2.1,5.1,1.2c1.1-0.7,1.2-1.9,1.2-2.9c0-0.7,0.1-1.2,0.3-1.4c0.5-0.4,1.9,0.3,3.3,1
		c2.1,1.1,4.7,2.5,7.3,1.6c3-1,5.3-4.8,4.5-7.7c-0.8-2.9-4.2-3.9-7-4.8c-3.2-1-5.2-1-10.2-1c-0.7,0-1.4,0-2.2,0
		c-4.3,0-7.2-0.1-9.4-0.2c-4.7-0.1-5.6-0.2-7.6,0.8c-0.3,0.2-0.6,0.3-1,0.5c-0.8,0.5-1.7,0.9-2.7,1.2c-1.4-0.6-3.2-1-5.1-0.8
		c-0.2-0.1-0.4-0.3-0.6-0.4c-0.3-0.2-0.5-0.3-0.8-0.5c-2.8-1.6-5.2-3.5-7.1-5.4c-0.3-0.8-1.2-1.6-2.3-2.5c-1.8-2.1-3.1-4-4-5.3
		c-0.3-0.5-0.6-0.9-0.9-1.2c-6.9-9.3-11.8-14-14.5-14.1c-0.7,0-1.4,0.2-1.8,0.8c-0.3,0.4-0.7,0.8,2.2,4.7c1.4,1.9,3.8,4.8,7.4,8
		c3.2,2.9,6,5,8.3,6.6c0.8,0.5,1.5,1.1,2.1,1.6c0.6,0.7,1.3,1.4,2,2.2c0,0,0,0.1,0,0.1c-0.2,0.7-2.2,1-3.8,1.2
		c-2.7,0.4-5.8,0.9-6.8,3.2c-1,2.5,2.1,4.9,4.6,6.9c0.8,0.6,2,1.6,2.4,2c-0.7,0.4-3.2,0.4-6.9-0.2c-5.4-5.7-11-8-15.2-8.8
		c-2.4-0.5-6.1-0.9-9.5-0.4c-5.7-3.6-11-8.6-11.9-14.9c-0.8-5.3,1.3-10.3,1.7-11.2c1.4-3,9.3-16.2,23.2-25.4
		c5.3-3.5,12.5-4.7,13.6-4.1c0.8,0.4,0.8,1.5,0.7,3.3c-0.2,2.6-0.4,6.1,4.1,7.4c1.9,0.6,5.3-0.1,8.7-0.8c0.5-0.1,0.9-0.1,1.4-0.1
		c0,0.1,0,0.2,0,0.2c0.1,1.9,1.4,3.1,2.1,3.7c2,1.9,4.1,3.2,5.9,4c2.4,3.1,5.2,6.1,9.1,6.1h0c2.7,0,5.6-1.4,8.1-4
		c3.7-3.7,6.1-9.1,6.1-13.8c0-2.9-0.9-4.3-1.9-5.8c0,0,0,0,0-0.1c3.6-0.4,11.3,0.4,20.8,2.4c9.7,2,25.6,22.2,30.8,28.8
		c0.8,1,1.3,1.7,1.6,2c6.2,7,8.9,10.3,8.5,14.5c-0.5,5.2-5.6,9.4-9,11.4c0.9-1.2,1.8-2.7,2.1-4.7c0.9-6.5-5.7-12-6.4-12.7
		c-7.1-5.8-12.2-5.1-19.5-1.6c-0.1,0-0.2,0.1-0.3,0.2c-0.7,0.4-2.2,1.1-4,1.1c-0.3-0.5-0.7-1-1-1.5c-1.2-1.6-2.4-3.2-1.9-5.7
		c0.7-3.7,1.7-5.4,2.2-6.2c0.3-0.5,0.7-1.2,0.2-1.7c-0.6-0.6-1.6-0.7-2.8-0.1c-2.3,1.1-5.7,4.6-5,9.6c0.5,3.5,3.6,6.7,7.3,7.3
		c0,0,0.1,0,0.1,0c0.2,0.6-0.1,1.2-0.8,1.8c-0.6,0.6-1.6,1.3-2.7,2.1c-3.4,2.5-7,5.2-5.8,7.4c0.7,1.2,2.5,1.5,4.6,1.8
		c1.6,0.2,3.6,0.5,4.2,1.3c1.7,2,1.5,4.2,1.4,6.2c-0.1,1.5-0.2,2.9,0.7,3.7c0.6,0.6,1.5,0.7,2.8,0.5c5-0.7,9-1.7,12-2.5
		c3.4-0.9,5.9-1.5,6.7-0.8c2.3,1.9-2.3,14.8-4,19.7c-6.3,17.8-9.5,22.7-13.8,29.6c-1,1.6-2.1,3.2-3.2,5.2
		c-7.4,12.2-10.7,13.3-12,12.9c-0.8-0.2-1.2-1.2-1.7-2.9c-0.7-2-1.5-4.5-4-6.2c-1.8-1.2-4.1-1.8-6.6-1.8c-2.4,0-5,0.6-7.1,1.9
		C491.9,214.2,491.5,213.3,491.4,212.2L491.4,212.2z M499.1,195.1c2.3-2.6,4.9-5.4,7.7-8.3c6.3-6.6,14-13.1,16.6-14.6
		c-1.4,2.8-8.7,11.5-21.5,20.6c-0.6,0.4-1.2,0.9-1.9,1.5C499.7,194.6,499.4,194.9,499.1,195.1z M456.9,136.5
		c-1.7-1.3-3.7-2.8-5.8-4.7c-5.4-5-8.4-9.3-9.1-10.7c0,0,0.1,0,0.2,0c0.8,0,4.1,1.1,13.3,13.4c0.2,0.3,0.5,0.7,0.8,1.2
		C456.5,135.9,456.7,136.2,456.9,136.5L456.9,136.5z M520.5,133C520.5,133,520.5,133.1,520.5,133c-2.3-0.8-4.2-3-4.5-5.4
		c-0.5-3.9,2-6.3,2.8-7c0.7-0.5,1.2-0.8,1.6-1c-0.6,1-1.5,2.9-2.2,6.4C517.7,129.2,519.2,131.3,520.5,133z"/>
	<path class="st1" d="M371.8,261.2c-13.6,0-25.6-7.5-36.2-14.2c-3.6-2.3-7.8-5.5-8.4-10.3c-0.7-5.5,3.7-10,5.5-11.9l0.4-0.4
		c0.5-0.5,0.9-1,1.3-1.6c-0.7-1.2-1.5-2.3-2.2-3.3c-1.6,0.7-3.7,0.6-6-0.2c-3.6-1.3-8.7-4.9-12.1-10.2c-6.2,4.4-13.9,7.5-19.1,9.6
		l-1.4,0.6c-1.5,0.6-3.2,1.1-4.9,1.3c1.4,2.4,2.9,5,4.7,7.8c4.1,6.5,7.8,11.6,10.4,15.4l0.1,0.1c4.3,6,6.1,8.5,5.4,10.6
		c-0.2,0.8-0.9,1.5-1.8,1.8c-1.4,0.5-21.9,0.6-35.8-1c-6.5-0.8-11.8-5.7-14.8-13.8c-3-8.1-3.3-18.4-0.8-27.3
		c-1.6,0.9-3.4,2.1-5.3,4.8c-0.2,0.3-0.2,1.7-0.2,2.5c-0.1,2.5-0.2,5.8-2.6,7.7c-1.6,1.3-3.9,1.6-7,0.9c-0.4-0.1-1.3-0.4-2.7-0.9
		c-0.4,9.6-9,17.5-9.4,17.8c-4.8,4.3-20.4,8.6-36.3,10.1c-14.9,1.4-28.4,1.7-42.9-8.3c-2.5-1.7-4.9-3.4-7.2-4.9
		c-1.7,2.3-4.3,4.6-7.4,6.5c-10,6.1-27.1,9.5-40.3,4.3c-10.6-4.2-18.1-14-19.9-26.2c-1.2-7.5,0.1-14.1,3.3-16.7
		c8.3-6.7,38.4,10.4,62.8,26.4c0.1-0.2,0.1-0.5,0.1-0.7c1-9.8-17.4-18-28.5-22c-7.7-2.8-18.3-4.3-26.9-5.5c-9-1.3-12.2-1.8-13.5-3.1
		c-3.4-3.4-1.3-8.3,1.6-15l0-0.1c2.9-6.8,7-16.1,8.3-28.8c0.1-0.5,0.1-0.9,0.1-1.3l0.1-0.8c0.4-4.5,0.8-8.7,3.9-13.3
		c0.5-0.7,1-1.3,1.5-1.9c-5.5,2.5-14.3-1.6-19.2-7.3c-4.9-5.6-7.4-14.5-6.5-22.5c0.2-1.6,0.5-3.1,0.9-4.5c0,0-0.1,0-0.1,0.1
		l-0.2,0.1c-5.2,2.3-8.2,10.9-13.9,26.6c-1.2,3.3-2,6-2.8,8.4l-0.2,0.6c-1.9,6.2-3,9.9-7.2,14.6c-1.2,1.3-2.5,2.6-3.6,3.7l-0.3,0.2
		c-0.7,0.7-2.3,2.2-3.1,3.2c0.5,0,1.2,0,2.3-0.1l0.4,0c0.3,0,0.5,0,0.7,0c7-0.4,15.2,4.8,22.3,14.3c6.8,9,11.7,20.4,13.5,31.4
		c0,0.2,1.7,15-2.4,19.2c-3.5,3.6-9.4,3.5-16.5-0.5c-5.5,0.9-11.1,0.9-12.7,0.9H3.4c-1.1,0-2-0.9-2-2s0.9-2,2-2H39
		c1.8,0,4.7-0.1,7.7-0.3c-0.2-0.2-0.5-0.4-0.8-0.6c-5.2-4-10.1-7.8-13.5-19.4c-0.1-0.3-7.2-30.5,0.1-33.9c3.9-1.8,13.4,2.1,19.9,9.6
		c9.9,11.5,19.1,32.8,10.8,42.9c-1.1,1.3-2.8,2.3-5.2,3.2c2.6,0.8,5.6,1.2,7.5-0.8c2-2,1.8-13,1.3-15.9
		c-3.7-22.1-19.5-43.1-31.8-42.4c-0.2,0-0.4,0-0.5,0c-0.1,0-0.3,0-0.4,0c-2.3,0.2-5.6,0.5-6.7-1.9c-1.2-2.5,1.3-4.9,4.4-7.9l0.3-0.3
		c1.1-1,2.3-2.2,3.4-3.4c3.6-4.1,4.6-7.4,6.4-13.2l0.1-0.4c0.8-2.5,1.6-5.3,2.8-8.7c6.2-17.3,9.2-25.9,15.9-28.9
		c0,0,0.1-0.1,0.3-0.1c0.1,0,0.2-0.1,0.4-0.2c1.5-0.7,2.8-1.2,4.2-1.7c0.6-0.7,1.3-1.3,2-1.8c0.4-0.3,0.8-0.6,1.2-0.8
		c-1.2-0.5-2.2-1.2-2.9-2.6c-1.1-2.4,0-5,2-9.7c0.7-1.7,0.4-2.1-0.4-3.2c-1.6-2.1-3.7-5.1,0.8-14.3c0.9-1.9,3.3-4.8,6.2-8.3
		c1.2-1.4,2.6-3.1,3.9-4.7c10.2-13.1,21.4-7.7,26.8-5.2c0.7,0.3,1.3,0.6,1.8,0.8c7.7,3.2,15.7,6.6,17.4,14.6c0.9,4-0.2,7.9-1.5,10.6
		c1.1-2,2-3.9,2.9-5.4c6.3-11.3,13.9-17.7,22.4-19.1c7.9-1.3,16.2,1.9,24.6,9.5c2.4,2.2,5.1,5.1,6.6,9.6c1.8,5.5,1,11.8-0.4,13.7
		c-0.3,0.5-0.8,0.8-1.3,1l-0.2,1.2l-0.3-1.1c-1.7,0-2.1-1.6-2.4-3.1l-0.1-0.3c-0.3-1.4-0.7-3.2-1.7-5.7l-0.1-0.3
		c-0.3-0.8-0.6-1.5-0.9-2.1c-0.3,1.5-0.7,3.6-1.5,5.8c-1.5,4.1-3.4,6-5.1,7.7c-1.2,1.2-2.2,2.2-3.1,4.1c-2.4,4.8-1.2,9.8-0.3,13.9
		c0.9,3.7,1.7,7.2-1,9.2c-2.2,1.6-4.5,0.4-6.7-0.7c-2-1-4-1.9-6.6-2.4c-8-1.3-15.2,3.2-27.3,10.8l-0.2,0.1c-4.3,2.7-6,4.1-7.7,5.5
		c-1.8,1.5-3.7,3-8.6,6c-1.9,1.1-3.5,2.1-5,2.9l-0.7,0.4c-4.8,2.7-7.2,4.1-9.3,7.3c-2.5,3.8-2.9,7.4-3.2,11.5l-0.2,2.1
		c-1.3,13.3-5.5,22.9-8.5,29.9c-2.3,5.4-4,9.3-2.5,10.8c0.9,0.5,7.4,1.4,11.3,2c8.7,1.2,19.6,2.8,27.6,5.7
		c14.9,5.4,32.3,14.2,31.1,26.1c-0.1,0.8-0.3,1.7-0.6,2.5c3.5,2.3,6,4,7.5,5.1c13.4,9.2,26.2,8.9,40.3,7.6
		c16.7-1.6,30.5-5.9,34.1-9.1c0.9-0.8,8.5-8.3,8.1-16.3c-5.3-2-17.2-6.6-26.7-12.2c-2.6,0.8-5.6,1.6-9.4,2.4
		c-11.2,2.3-18.3,2.1-24.1,2c-6.2-0.2-10.7-0.3-17.1,2.9l-0.4,0.2c-2,1.1-5.5,2.8-8.1,1.1c-3.3-2.2-2-7.8-0.5-13.6l0.2-0.8
		c0.3-1.3,0.6-2.6,0.9-3.9c1.5-7.8-1.9-21.4-8.1-46.2l-0.2-0.9c-0.3-1.1-0.5-2.1-0.8-3.1c-3.4-13.4-5.1-20.1-1.2-27.3
		c0.8-1.4,4.9-8.5,11.4-8.8c7.1-0.3,12.8,1.4,17.7,10.5c5.4,10,9.4,31.9,8.3,45.1c-0.2,2.5-1,4.6-1.9,6.5c0.3-0.2,0.6-0.4,0.8-0.6
		l1.8-1.3c1.2-0.9,2.6-1.9,4-2.9c0.4-0.2,0.9-0.6,1.7-1.2c1.2-0.9,2.9-2,4.8-3.4c-0.1-0.1-0.2-0.3-0.4-0.4
		c-2.6-3.4-1.9-6.8-0.4-13.5l0.1-0.5c0.6-2.5,1.3-5.7,1.9-9.6c1.4-8,1.8-14,1.4-20l0-0.3c0-0.3-0.1-0.7-0.1-1.3L190,126
		c-1.1-12.7-1.6-14.5-2.6-15.8c-1.3-1.7-3.2-2.7-4.4-3.2c-2-0.8-3.8-0.7-5.3-0.7c-1.7,0-3.8,0.1-4.4-1.9c-0.6-2,1-3.5,2.5-5
		c1-0.9,1.8-1.6,2.5-2.5c2.5-3,2.6-6.1,2.7-11.6c0-1.9,0.1-3.9,0.3-6.3c0.3-3.8,0.9-12.8,4.2-22.4c2.2-6.4,4.3-12.4,10.1-17.3
		c6.1-5.1,12.2-6.3,16.2-6.3c6.6-0.1,12.8,2.4,18.4,7.4c10.6,9.5,10.3,23.2,9.2,30.6c1.4,5.7,2.6,8.9,3.7,11.7
		c1.4,3.7,2.8,7.3,4.3,15c0.3,1.2,0.5,2.2,0.6,3.2c2,2.6,3.8,5.5,4.7,7.3c3.1,5.7,8.1,18,6.4,36.9c-0.8,8.7-2.5,12.7-4,16.3
		c-1.4,3.4-2.6,6.2-2.8,12.9c-0.3,12.7,3.1,26,6.3,32.9c0,0,0,0.1,0,0.1c1.4-2.7,3.1-5.2,5-7.4c2.7-2.9,5.4-5.5,7.9-7.7
		c-4.2-12.9-3-22.4,3.2-26.8c6.5-4.6,17.5,0,18.8,0.8c6.4,4.1,11.7,9,15.3,14.2c1.2,0.2,2.2,0.4,3.2,0.6c0,0,0,0,0-0.1
		c0.2-1.8,0.5-3.2,0.7-4.6l0.1-0.5c1-6.6,1.5-9.7,0.7-15.3c-0.1-0.7-0.2-1.5-0.4-2.3l-0.1-0.5c-0.5-2.9-1.2-6.5-1.2-11.8
		c0-1.6,0-2.9,0.2-4.7c0.4-3.3,1.5-12.1,8.8-18.3c0.5-0.4,2.6-1.1,5.5-1.7c0,0-0.1,0-0.1,0c-2.9-1.3-4.1-4.2-4.7-18
		c-0.9-19.4,0.2-26.5,5.6-36.2c2.3-4.2,4.5-8.1,9.3-10.7c5-2.7,13.1-5.3,22.8-2.1c13,4.3,24.7,17.6,34.9,39.5l0.7,1.4
		c5.2,11.2,7.4,15.9,6.2,21.5c-1.6,7.6-7.2,12.4-10.5,15.2l-0.2,0.2c-0.8,0.7-2,1.7-3.5,2.7c2.2-0.4,4.2-1.1,6-2.2
		c2.9-1.7,4.7-4.2,6.2-6.2l0.1-0.1c1.8-2.4,3.4-4.6,6.1-4.2c3.9,0.6,5.2,6.5,5.8,9.3c4.7,20.4,4.7,34.1,4.7,35.6
		c0,1.5,0,3.6,0.1,6.2l0.1,1.7c0.5,14.5,1.4,41.4-6.3,61.6c-0.5,1.2-1.3,2.7-2.3,4.3c32-4.3,45.3-11,49.6-13.8
		c-3.5-5.4-9.9-13.3-14.7-19.1c-5.5-6.8-10.7-13.2-13-17.1l-0.5-0.8c-0.4-0.6-0.8-1.3-1.3-2.1c-6.1-9.8-17.4-28.2-7-38.1
		c0.7-0.7,1.5-1.2,2.4-1.7c-5.9-4.4-9.4-9.4-10.2-14.8c-0.9-6.1,1.4-11.7,1.9-12.7c2.2-4.9,11-17.8,24.2-26.6
		c5.8-3.8,14-5.5,16.5-4.2c2.3,1.3,2.2,3.8,2.1,5.8c-0.2,2.8-0.1,4,2.1,4.7c1.3,0.4,5.5-0.5,7.3-0.9c0.7-0.1,1.3-0.2,1.9-0.1
		c1-1,2.4-1.5,3.8-2.1c1.5-0.6,3.1-1.2,4.2-2.3c1.3-1.3,1.5-3.1,1.7-4.8c0.2-1.9,0.5-4.4,2.9-5.2c1.7-0.6,3.1,0.2,3.9,0.8
		c0.7,0.4,1,0.6,1.4,0.6c2-0.3,4.3-4.9,4-9.2c0-0.5-0.1-1.5-0.3-2.1c-0.4,0.3-1.1,0.9-1.6,1.3c-1.8,1.5-3.9,3.4-6.7,3
		c-2.5-0.4-3.5-2.3-4.5-4.2c-0.9-1.7-2-3.7-4.3-5.8c-2.5-2.3-5.1-3.5-6.6-4.2c-2.7-1.3-4.4-1.6-6-1.8c-1.6-0.3-3.3-0.5-5.5-1.8
		c-4.7-2.6-7.7-7.1-8.5-10.1c-0.4-1.7-0.3-3.1,0.4-4.2c1.2-2,3.4-1.9,5.9-1.9c1.4,0.1,3.5,0.1,6.1-0.1c4-0.4,6-1.4,8-2.3
		c1.9-0.9,3.9-1.8,7.1-2.3c2.1-0.3,13.1-1.3,21.3,6.1c1.2,1.1,7.4,7.2,8.1,16.2c0.4,5.8-1.7,9.8-3.6,13.3c-1.9,3.6-3.5,6.6-2.8,11.2
		c0.2,1,0.4,1.8,0.7,2.6c4.2-0.5,11.4,0.3,21.5,2.4c10.7,2.3,27.1,23,32.4,29.8l0.7,0.8c0.4,0.5,0.7,0.9,0.9,1.1
		c6.3,7.1,9.7,11.1,9.1,16.6c-0.9,8.3-10.2,13.9-13.5,15c-0.3,0.1-1.2,0.4-2,0.1c2,2.7,0.9,8.7-3.8,22c-6.4,18-9.6,23.1-14.1,30.1
		l-0.7,1.1c-0.8,1.3-1.6,2.6-2.5,4.1c-3.7,6.2-8.4,13-12.7,14.1c0.4,0,0.7,0.2,1.1,0.5c1.4,1,5.8,3.3,18,3.3h70.1l0,0h1.9
		c1.1,0,2,0.9,2,2s-0.9,2-2,2h-72c-5.6,0-10.5-0.5-14.2-1.5c2.8,4.9,3.5,8.4,2.4,11c-1.9,4.4-9.8,4.7-14.7,3.5
		c-5.2-1.2-11.1-5.1-12.8-10.8c-0.7-2.5-0.3-4.1,0.1-5.7c0.3-1.3,0.6-2.5,0.5-4.5c-0.1-3.2-1-5.1-2-7c-1,1.3-1.5,2.9-2,4.5
		c-0.8,2.5-1.8,5.7-5.2,6.9l-1.4,0.5c-0.9,0.3-1.1,0.4-1.1,0.4c-0.1,0.1-0.2,0.1-0.5,0.3c0.9,1.4,2.5,3.9,3.1,8
		c0.8,5.4-5,10.1-7.8,10.7c-4.1,1-13.9,3.2-17.3-3.9c-1.9-3.8-0.5-10.4,0.2-13.5c0-0.2,0.1-0.4,0.1-0.6s0.1-0.3,0.1-0.4
		c0-0.2,0-0.7-0.7-2.2c-9.5,6.2-29.8,11.6-54.7,14.7c-3.8,4.7-10.1,10.7-19.6,14.2C380.5,260.4,376.2,261.2,371.8,261.2z
		 M336.4,226.5c-0.2,0.2-0.4,0.4-0.6,0.7l-0.3,0.3c-1.5,1.5-4.9,5-4.5,8.7c0.4,3.2,3.5,5.6,6.6,7.5c13,8.1,27.7,17.3,44.5,12
		l1.3-0.5c6.6-2.4,11.6-6.3,15-9.8c-6.2,0.7-12.9,1.2-20,1.6c-7.7,0.4-25.8-2.3-35.1-10.9C340.2,233.2,338.3,230,336.4,226.5
		L336.4,226.5z M83.4,214.4c-1.3,0-2.3,0.3-2.9,0.7c-1.7,1.4-2.9,6.7-1.9,13c0.6,4.1,3.8,17.8,17.5,23.2c12.1,4.7,27.7,1.6,36.9-4
		l0,0c2.7-1.6,4.8-3.4,6.2-5.3C112.9,224.7,92.1,214.4,83.4,214.4z M259.7,215.3c-2.3,8.2-2,17.6,0.7,25c2.5,6.7,6.6,10.7,11.7,11.3
		c12.3,1.5,28.2,1.4,32.9,1.2c-0.9-1.5-2.9-4.4-4.5-6.6c-3-4.1-6.5-9.2-10.5-15.5l-0.1-0.1c-2.1-3.2-3.9-6.4-5.7-9.5
		C275.3,221.2,265.5,217.7,259.7,215.3z M462.1,227.6c1.1,2.1,1.6,3.7,1.4,4.9c-0.1,0.3-0.1,0.8-0.3,1.5c-0.5,2.3-1.8,8.4-0.5,11
		c1.9,3.8,7.6,3,13,1.8c1.3-0.3,5.2-3.4,4.8-6.3c-0.5-3.4-1.7-5.2-2.6-6.6c-0.7-1-1.3-2.1-1-3.3c0.1-0.5,0.5-1.2,1.5-1.6
		c1-0.5,1.4-0.6,1.5-0.7c0.4-0.2,0.5-0.2,1-0.4l2.1-0.7c1.5-0.5,2-1.9,2.8-4.4v0c0.7-2.2,1.5-4.8,3.7-7c-0.3-0.8-0.7-1.8-0.9-3
		c-0.6-3.4,0-6.8,1.9-10.5c-3.5,0.4-7-0.6-10.5-3c-4.6-3.2-9.4-8.2-12.6-13c0.8,3.4,1.7,6.8,3.3,11.1c1.6,4.5,3.4,7.9,4.9,10.6
		l0.1,0.1c2.4,4.5,4.1,7.7,2.5,11.4c-1.2,2.6-3.8,1.7-5,1.2c-2.3-0.8-5.1-1.8-9.4,5C463.4,226.2,462.8,226.9,462.1,227.6z
		 M494.6,216.9c1.3,2.2,2.7,4.9,2.8,9.3c0,2.5-0.3,4.2-0.6,5.4c-0.3,1.4-0.5,2.2-0.1,3.7c1.2,4.3,5.9,7.2,10,8.1
		c4.3,1,9.6,0.4,10.3-1.2c0.5-1.1,0.4-4.1-5-11.8c-0.6-0.8-1.5-2.1-0.2-3.3c0.2-0.1,0.3-0.3,0.5-0.4c-0.5,0-0.9,0-1.4-0.2
		c-2.3-0.7-3-2.8-3.6-4.6c-0.6-1.8-1.2-3.6-3-4.8C501.9,215.5,497.8,215.4,494.6,216.9z M338.9,222.9c0.3,0.5,0.6,1,0.9,1.6
		c1.8,3.2,3.5,6.2,6.2,8.8c8.3,7.6,25.3,10.2,32.2,9.8c8.3-0.5,16.4-1.2,24-2c2.3-3,3.5-5.4,3.9-6.4c7.5-19.6,6.6-46,6.1-60.2
		c-0.1-3.6-0.2-6.2-0.2-8c0-1.4,0-14.7-4.6-34.6c-1.3-5.8-2.5-6.3-2.7-6.3c-0.4-0.1-1.7,1.8-2.3,2.6c-1.6,2.2-3.7,5.2-7.4,7.4
		c-5.1,3.1-10.8,3.3-14.8,2.8c-4,1.7-7.9,2.2-11.4,1.3c-2.6-0.6-3.7-1.6-5.5-3.2c-1.3-1.1-3.2-2.8-6.9-5.3c-6.9-4.6-10.4-7-15.1-7.5
		c-7.9-0.8-16.5,1.3-17.9,1.8c-6,5.1-6.9,12.7-7.3,15.6c-0.2,1.5-0.2,2.8-0.2,4.2c-0.1,5,0.6,8.5,1.1,11.2l0.2,0.9
		c0.1,0.7,0.2,1.3,0.3,2c0.8,6.2,0.3,9.5-0.7,16.5c-0.2,1.5-0.5,3.1-0.7,4.9l-0.1,0.6c4.6,1.5,7.3,3.7,7.9,6.6
		c1.3,5.6-0.1,10.8-4,15.5c0.3,0.4,0.7,0.8,1,1.2c1,1,1.6,1.4,2.6,2l-0.4,1.1l0.6-1c0.8,0.4,1.7,1,3,1.9c1.7,1.2,3.2,2.4,4.5,3.7
		c0-0.8,0-1.8-0.1-2.8l0-0.7c-0.1-2.5-0.2-5.9-0.1-10c0.3-8,1.2-13.4,2-17.8c1-5.9,1.8-10.5,1-18c-0.6-2.9-1.3-5.9-2.2-9.3
		c-0.9-3.6-0.8-4.3-0.5-4.8c0.3-0.4,0.7-0.8,1.2-0.9c0.5-0.1,1.1,0,1.5,0.3c1.4,0.9,3,7.5,3.7,13.1l0.1,1
		C344.3,191.9,344.7,212.2,338.9,222.9z M46.5,225l1.8,1.4c1.3,1,2.7,2,4.2,2.9c5.1-1,7-2.2,7.7-3c6.1-7.3-0.7-26-10.8-37.9
		c-5.1-5.9-11.7-8.7-14.5-8.7c-0.4,0-0.7,0.1-0.8,0.1c-2.4,1.3,0,22.6,2,29.2C38.8,218,42.4,221.7,46.5,225L46.5,225z M237.8,225.2
		c1.9,0.7,3.4,1.1,3.9,1.3c1.7,0.4,3.1,0.3,3.7-0.2c1-0.8,1-2.9,1.1-4.7c0-1.8,0.1-3.4,0.9-4.6l0.8-1.1l0.1,0.1c1.5-1.9,3-3.2,4.2-4
		c-1.7-0.9-3.1-1.8-4.1-2.4c-15.5-11.1-25.7-16.3-35.3-17.9c-4.5-0.8-10.9,0.2-13.9,3.3c-1.7,1.8-2.2,4.2-1.5,7.2
		c0.4,1.8,2.5,4.8,10.4,9.5c0.1,0,0.2-0.1,0.3-0.1c4.7-1.5,7.8-2.4,12.8-1.1c2.2,0.5,13.3,3.8,16.3,13.5
		C237.7,224.4,237.8,224.8,237.8,225.2z M426.8,150.5c-1.6,0.4-2.8,1-3.7,1.9c-8.1,7.7,2.2,24.3,7.7,33.2c0.7,1.1,1.3,2.1,1.8,3
		c2.1,3.6,7,9.6,12.7,16.6c7,8.6,11.7,14.6,14.7,19.1c0.3-0.3,0.4-0.5,0.6-0.7c6-9.5,11.4-7.5,14-6.6c0.1,0,0.2,0.1,0.3,0.1
		c0.4-1.7-0.6-3.6-2.6-7.2l-0.1-0.2c-1.5-2.8-3.4-6.3-5.1-11c-1.8-4.9-2.7-8.7-3.6-12.2l0-0.1c-1.5-5.8-2.7-10.9-6.8-18.4
		c-1.8-3.3-3.9-6.2-6.1-8.7c-0.1,0-0.2,0-0.3-0.1C442.3,157.8,433.5,154.5,426.8,150.5z M212.8,214.3c7.6,4,15.9,7.4,20.3,9.1
		c-3.1-6.4-11.2-8.8-12.9-9.3C217.4,213.4,215.4,213.6,212.8,214.3z M499.3,212c2.8,0,5.2,0.7,7.2,2c2.9,1.9,3.8,4.7,4.5,6.8
		c0.3,0.8,0.7,2,1,2.1c0.1,0,2.8,0.7,10.7-12.4c1-1.7,2.1-3.4,3.3-5.2c4.4-6.9,7.5-11.8,13.7-29.4c5.4-15.2,4.8-18,4.4-18.5
		c-0.6-0.3-3.4,0.5-5.7,1l-0.3,0.1c-2.9,0.7-6.9,1.7-11.8,2.4c-1.6,0.2-2.8,0-3.7-0.8c-1.3-1.2-1.2-2.9-1.1-4.5
		c0.1-2,0.2-3.9-1.2-5.5c-0.4-0.4-2.6-0.7-3.5-0.9c-0.4-0.1-0.8-0.1-1.2-0.2c1.4,0.8,2.6,2,3.1,3.7c0.9,3.5-1.6,7.9-5.2,9
		c-1.7,0.6-3.3,0.3-4.8-0.1c0.2,0.3,0.3,0.7,0.2,1.2c-0.1,1.1-3.9,12.5-12.9,16.2c-7.5,3.1-14.9,0.5-20.8-1.6
		c-3-1.1-6.7-2.4-7.7-1.5l0,0c0,0-0.1,0.2,0,0.6c0.3,4.5,8.3,14.7,14.9,19.2c3.9,2.7,7.6,3.1,11.4,1.3c2.9-3.9,6.8-8,10.9-12.3
		c2.5-2.6,15.7-15.7,19.3-15.7c0.6,0,1.2,0.2,1.6,0.6l0.4-0.2l-0.2,0.4c0.4,0.5,0.6,1.1,0.6,1.8c-0.3,3.6-9.7,14-22.9,23.4
		c-0.4,0.3-0.8,0.6-1.2,1l-0.5,0.4c-1.4,1.2-3.2,2.7-5.4,3.8c-3.3,4.6-4.4,8.2-3.8,11.7l0.2,1l0,0c0,0.1,0.1,0.3,0.1,0.4
		C494.8,212.5,497.1,212,499.3,212z M151.7,123.9c-0.2,0-0.4,0-0.7,0c-0.2,0-0.5,0-0.7,0c-4.4,0.2-7.8,6.1-8.1,6.8
		c-3.2,5.8-1.7,11.7,1.6,24.4c0.2,0.9,0.5,1.9,0.7,2.9l0.3,1c6.8,27.2,9.8,39.6,8.2,47.9c-0.3,1.7-0.8,3.4-1.1,4.8
		c-0.7,2.8-2.1,8.7-1.1,9.4c0.7,0.5,3.2-0.8,4-1.2l0.5-0.2c7.1-3.6,12.3-3.5,18.9-3.4l0.1,1.1l0-1.1c5.6,0.1,12.5,0.3,23.1-1.9
		c2-0.4,3.9-0.9,5.8-1.4c-5.5-3.7-8.5-7-9.2-10.1c-1-4.3-0.1-8,2.5-10.8c4.1-4.4,11.9-5.4,17.4-4.5c10.2,1.7,20.8,7.1,36.9,18.5
		c1,0.7,2.6,1.6,4.5,2.6c0,0,0-0.1-0.1-0.1c-3.5-7.6-6.9-21.2-6.6-34.6c0.2-7.3,1.6-10.7,3.1-14.3c1.4-3.3,2.9-7,3.7-15.2
		c1.6-17.9-3-29.4-5.9-34.7c-0.1-0.1-0.1-0.3-0.2-0.4c0.1,1.5,0.2,3,0.3,4.9l0,0.1c0.7,10.5,1,15.8-2.3,17.9
		c-0.2,0.2-0.5,0.3-0.8,0.4c0.5,2,1,3.9,1.5,5.8l0.1,0.3c0.9,3.3,2.1,7.7,0.5,12.9c-0.7,2.3-2.1,4.3-4.4,6.5
		c-0.2,0.4-0.4,0.9-0.7,1.2c-0.9,1.4-2.3,2.3-4.3,2.9c-1.6,1.2-3.3,2.5-5.3,3.9l-0.1,0.1c-9.3,6.7-14,10-20.2,9.8
		c-1.4,0-2.4-0.2-3.3-0.4c-1.4-0.2-2.1-0.4-3.2,0.1c-2.9,1.1-4.5,4.5-5.7,6.9c-1.1,2.3-2.2,4.5-4.4,4.1c-1.9-0.4-2.3-2.2-2.7-4
		l1.1-0.3l-1.1,0.2c-0.4-1.9-0.9-4.3-2.8-6.8c-0.2-0.3-0.4-0.5-0.6-0.8c-3.5,2.4-6.4,4.5-7.3,5.1c-1.3,0.9-2.5,1.8-3.7,2.7
		c-0.7,0.5-1.4,1-2.1,1.5c-8.1,5.9-10.3,7.5-12.1,6l-4.7,3l4-3.9c-0.1-0.2-0.1-0.5-0.1-0.8c0-1.1,0.7-1.9,1.9-3.1l0.1-0.1
		c2-2,5.4-5.4,5.8-10.4c1-12.6-2.8-33.5-7.9-42.9C160.7,125.3,156.8,123.9,151.7,123.9z M334.7,216.6c0.6,0.8,1.2,1.5,1.7,2.4
		c3.3-8,3.6-21.1,0.8-39c-0.1,0.5-0.2,1-0.3,1.6l-0.1,0.4c-0.8,4.6-1.7,9.7-1.9,17.3c-0.2,4.5,0,7.9,0.1,10.5
		C335.1,213,335.2,215,334.7,216.6z M261,211.5c5,2.1,13.3,5.1,21.2,5.6c-4.5-8.7-7.1-15.6-9.1-21.2c-2.1,1.9-4.2,4-6.4,6.4l0,0
		C264.3,204.9,262.4,208,261,211.5z M276.2,193.2l0.1,0.3c2.3,6.5,4.9,13.7,10.2,23.5c2-0.2,3.9-0.6,5.4-1.3l1.5-0.6
		c5.5-2.2,12.9-5.2,18.6-9.4c-0.1-0.3-0.3-0.6-0.4-0.9c-1.4-3.4-1.3-5.6-1.2-7.7l0-0.1c0.1-1.8,0.1-3.6-0.7-6.6
		c-0.6-2.3-1.6-4.6-3.1-6.9l-0.1,0C296.1,182.1,286.2,185.2,276.2,193.2z M317,206.8c2.9,4.7,7.3,7.8,10.4,8.9
		c0.7,0.2,1.3,0.4,1.8,0.4c-1.4-1.4-3-2.8-4.7-4c-1.3-0.9-2.2-1.4-2.8-1.8l-0.1-0.1c-1.2-0.7-2.1-1.2-3.4-2.6
		c-0.3-0.3-0.6-0.6-0.9-1C317.1,206.7,317.1,206.7,317,206.8z M474.3,208.6L474.3,208.6l0.5-0.2L474.3,208.6z M315.6,185.7
		c-0.3,5.8,0.4,10.7,2.2,14.6c2.5-3.5,3.3-7.1,2.3-11.1C319.8,187.8,318.3,186.6,315.6,185.7z M498.6,194.8c-0.9,1-1.7,2-2.5,3
		c1.2-0.7,2.2-1.5,3.2-2.3L498.6,194.8z M312.4,191.8c0.2,1,0.3,1.9,0.3,2.6l1-0.1c-0.1-0.9-0.2-1.7-0.3-2.7L312.4,191.8z
		 M277.4,168.1l-0.3,0.2c-5.9,4.2-4.2,14.4-2.2,21c9.4-7.2,18.8-10.4,28.6-9.9c-3.1-3.7-7.2-7.2-12-10.2c-0.6-0.4-5-2.2-9.4-2.2
		C280.3,167,278.7,167.3,277.4,168.1z M516.2,179.4c-1.9,1.7-4,3.6-6,5.6C512.5,182.9,514.5,181.1,516.2,179.4z M311.7,184.5
		c0,0.1,0.1,0.2,0.1,0.2c0-0.1,0-0.1,0-0.2C311.8,184.6,311.7,184.6,311.7,184.5z M313,183.6l0.5,0l0-0.4l-0.4-0.1L313,183.6z
		 M193.8,173c0.2,0.2,0.3,0.4,0.5,0.6c2.1,2.7,2.8,5.4,3.3,7.5l0,0c1.4-2.9,3.4-7.2,7.9-8.9c2.2-0.8,3.7-0.5,5.2-0.3
		c0.8,0.1,1.7,0.3,2.8,0.3c4.8,0.2,9.1-2.9,17.6-9c-0.7,0-1.4,0.1-2.2,0.1l-0.3,0c-5.1,0.2-7.8,0.4-8.7-1.9l-0.6-1.5h0.5
		c0.2-0.9,0.8-1.7,1.6-2.6c-5.5,2.3-12.3,5.7-19.3,10.1C199.6,169.1,196.6,171.2,193.8,173z M468.6,171.9c2.3,0,4.9,1,7.8,2
		c5.3,1.9,11.9,4.3,18,1.7c3.3-1.4,5.8-4.1,7.4-6.5c-0.3,0-0.6,0-0.8,0c-1.6-0.2-2.4-1.1-3.1-1.9l-0.2-0.3c-0.3-0.3-0.5-0.6-0.9-0.8
		c-3.1-2.7-8.8-3.4-11-1.3c-0.3,0.2-0.4,0.4-0.5,0.5c0.6,0.3,1.8,0.7,2.4,0.9l0.1,0c2.2,0.6,4.4,1.3,4.6,3.4
		c0.2,2.1-1.9,3.4-3.8,4.3c-0.5,0.2-1,0.3-1.5,0.1l-0.2-0.1c-3.4-1.2-6.9-2.5-9.7-3.8c-3-1.4-5.4-2.7-7.3-4c-3-2-4.8-3.3-5.6-5.5
		c-1.4-3.5-0.2-8.7,3.6-11.4c-1.5-0.9-2.9-2-4.2-3.2c-1.1,0.8-2.8,1-4.5,1.3l-0.3,0c-1.7,0.3-4.1,0.7-4.5,1.6c0,0.7,2.7,2.8,3.7,3.6
		c2.3,1.8,4.4,3.4,3.3,5.6c-0.7,1.2-2.4,1.8-5.2,1.7c1.4,1.8,2.7,3.9,3.9,6.2c1.7,3.1,2.9,5.7,3.9,8.2c0.2-0.4,0.4-0.7,0.8-1
		C465.9,172.3,467.1,171.9,468.6,171.9z M192.6,150.3l-2,9.2c-1.4,6.4-1.8,8.4-0.3,10.3c0.2,0.2,0.4,0.4,0.5,0.6
		c3.2-2.2,6.5-4.4,9.3-6.1c2.2-1.4,4.4-2.7,6.7-3.9c-0.3,0.1-0.6,0.1-1,0l-0.3,0.5l0-0.6c-0.5-0.1-0.9-0.5-1.2-1
		c-1.4-2.3,0.2-11.1,1.3-15.2c1.9-6.9,4.4-10.4,6.5-13.2c1.8-2.4,3.1-4.2,3.6-7.6c0.5-3.4-0.3-5-1.8-7.8c-1.5-2.8-3.7-7.1-5.3-15.2
		c-1.8-9.6-3.1-15.9-0.3-23.4c0.6-1.6,1.3-2.9,1.9-4.1c1.2-2.4,2.2-4.4,2.4-7.9c0.1-1.9-0.1-3.2-0.4-4.4l0-0.1
		c-0.3-1.5-0.6-3.1-0.3-5.8c0-0.1,1.2-11.7,8.2-13.5c1.8-0.5,3.8-0.2,5.8,0.7c-4.4-3.5-9.2-5.2-14.2-5.1c-3.4,0.1-8.5,1.1-13.8,5.4
		c-5.1,4.2-7,9.7-8.9,15.5c-3.1,9.1-3.7,17.8-4,21.5c-0.1,1.9-0.2,3.5-0.2,5l0,1.1c-0.2,5.8-0.3,9.9-3.6,14c-0.9,1.1-1.9,2-2.7,2.8
		l-0.1,0.1c-0.1,0.1-0.1,0.1-0.2,0.2h0.2c1.6,0,3.7,0.1,5.9,1c1.4,0.6,4.1,1.9,6.1,4.5c1.8,2.4,2.4,5.1,3.5,17.9l0.1,0.8
		c0,0.4,0.1,0.7,0.1,1c0,0.4,0.1,0.6,0.1,0.8c0.4,6.3,0,12.6-1.5,20.9c-0.1,0.6-0.2,1.1-0.3,1.6L192.6,150.3z M488.6,169.3
		L488.6,169.3L488.6,169.3z M472,151.7c-0.5,0.1-1,0.3-1.4,0.5c-2.5,1.4-3.5,4.9-2.6,7.1c0.4,1.1,1.6,1.9,4.2,3.7
		c1.7,1.1,3.9,2.4,6.7,3.6c1.3,0.6,2.5,1.1,3.7,1.6c-0.7-0.5-1.2-1.2-1.3-2.1c-0.4-2.1,1.3-3.6,1.8-4.1c0.4-0.4,0.9-0.7,1.4-1
		c-0.6-1.3-1-2.8-0.9-4.3c0.1-0.8,0.2-1.5,0.5-2.2c-0.1,0.1-0.2,0.2-0.2,0.3c-0.3,0.4-0.4,1-0.6,1.6c-0.2,1-0.5,2.5-2,3.3
		c-1.5,0.8-3.5,0.7-4.9-0.4c-1.8-1.4-2.1-3.9-1.4-5.9l-0.1-0.1l0.4-0.7c0,0,0,0,0,0c-0.2,0-0.3,0-0.5,0
		C474,152.4,473,152.1,472,151.7z M485.1,165.5L485.1,165.5L485.1,165.5z M500.2,163.9c0.2,0.2,0.4,0.4,0.6,0.6
		c0.5,0.6,0.6,0.6,0.7,0.6c0.4,0,1.4-0.2,3.5-3.1c0.4-0.5,0.7-1,1.5-1.2c-0.4-0.2-0.8-0.4-1.1-0.6l-0.1-0.1
		c-0.5-0.3-1.4-0.7-1.9-0.9c0,0.1,0,0.3,0,0.4c0,1-0.1,2.7-1.7,3.7C501.1,163.7,500.7,163.8,500.2,163.9z M489.7,161.3
		c0.4,0,0.9,0,1.3,0.1l0.7-0.3c-0.5-0.1-1.1-0.3-1.5-0.6l-0.3-0.2l-0.1,0.1c-0.3,0.3-0.5,0.6-0.7,0.8c-0.1,0.1-0.2,0.2-0.3,0.2
		C489.2,161.3,489.4,161.3,489.7,161.3z M496.7,152.8c0.2,0,0.4,0,0.5,0.1c0.6,0.2,1,0.5,1.2,1c0.4,0.8,0.2,1.5,0,2.1
		c-0.8,2.5-0.6,3.3-0.4,3.6c0.3,0.4,0.9,0.6,1.2,0.5c0-0.2,0-0.5,0.1-0.7c0-0.9,0.1-2.4,1.4-3.4c1.9-1.6,4.3-0.4,6.3,0.7
		c1.8,0.9,3.7,1.9,5.2,1.4c1.6-0.5,3.1-2.9,2.7-4.3c-0.3-1.3-2.5-2-5.1-2.9c-2.8-0.9-4.6-0.9-9.4-0.9h-2.2c-4.4,0-7.3-0.1-9.5-0.2
		c-0.1,0-0.2,0-0.2,0c0.5,0.3,0.8,0.6,1,0.9c0.5,0.7,0.5,1.4,0.3,2c0.4-0.5,0.7-0.9,0.9-1.1c1.1-1.3,2.2-1,2.7-0.7
		c1.6,0.8,1.1,2.7,0.8,3.6l0,0.1c-0.5,1.6-1,3.1-1.6,4.3c0.4-0.2,1.1-0.9,2-3.9l0-0.2c0.2-0.7,0.4-1.3,1.2-1.7
		C496,152.9,496.4,152.8,496.7,152.8z M241.4,158.3c-0.6,0.5-1.2,1-1.9,1.5C240.4,159.5,241,159,241.4,158.3z M235.9,147.4
		c-1.3,0-3.2,0.8-6.7,2.3l-2.6,1.1c-4,1.7-7.3,2.3-10,2.8l-0.1,0c-3.6,0.7-5.4,1.1-6.7,2.9c-0.4,0.6-0.8,1.2-1,1.7
		c-0.3,0.5-0.6,1.1-1.1,1.6c11.8-6.4,22.9-10.4,25.1-9.8c0.5,0.1,0.8,0.4,1.1,0.8l4.2-1.3l-3.7,2.2c0.3,1.5-1.2,2.4-4.3,4.4
		c-2.7,1.7-4.2,2.8-5.1,3.5c0.9,0,2.1,0,3.6-0.1c3.7-0.2,6.8-0.3,8.9-0.8c1.2-0.9,2.3-1.8,3.3-2.7c0.3-1.1,0.2-2.5-0.2-3.8
		c-0.6-2.2-1.9-3.9-3.3-4.6C236.8,147.4,236.4,147.4,235.9,147.4z M223.1,159.5L223.1,159.5z M506,158.7l-0.2,0.5L506,158.7
		C506.1,158.7,506.1,158.7,506,158.7C506,158.7,506,158.7,506,158.7z M492.2,153.2c-1.2,1.3-2.8,4.2-2.3,5.9l0,0
		c0.7-1.3,1.5-3.1,2.1-5.1c0,0,0-0.1,0-0.1C492.1,153.6,492.2,153.4,492.2,153.2z M488.6,154.5c-0.5,0.6-1,1.4-1.1,2.4
		c0,0.3,0,0.7,0.1,1C487.7,156.7,488.1,155.5,488.6,154.5z M515.3,145c0.7,0.2,1.6,0.3,2.1,0.4c2.2,0.3,4.7,0.7,6,2.2
		c2.4,2.8,2.2,6,2.1,8.1c0,0.4-0.1,1-0.1,1.4c0.1,0,0.2,0,0.4,0c4.8-0.7,8.6-1.6,11.6-2.4l0.1,0c4.1-1,6.8-1.7,8.6-0.6
		c-0.6-1.3,0.6-2.5,1-2.9l0.9,0.7l-0.8-0.8c1-1,2.7-2.6,3-5c0.7-5.1-5.2-9.9-5.4-10.1c-6.1-4.9-10-4.3-16.6-1.2
		c-0.1,0.1-0.2,0.1-0.3,0.2c-0.6,0.3-1.6,0.8-2.9,1.1l0.1,0.1l-0.2-0.1c-0.2,0-0.3,0.1-0.5,0.1c-0.2,1-0.7,1.9-1.7,2.8
		c-0.7,0.6-1.7,1.4-2.9,2.3C517,143.3,515.8,144.4,515.3,145z M537.6,155.8l0.1,0.5l0,0c0,0,0,0,0,0L537.6,155.8z M480.1,153.5
		c-0.3,0.2-0.5,0.4-0.6,0.4c-0.3,0.2-0.5,0.3-0.6,0.5c-0.3,0.5-0.3,1.5,0,1.7c0.2,0.1,0.4,0.1,0.5,0.1c0.1-0.2,0.1-0.5,0.2-0.7
		C479.6,155,479.8,154.3,480.1,153.5z M452.6,155.6c1.5,0.2,2.7,0.3,3.6,0.4c-0.1-0.1-0.2-0.2-0.4-0.3c-2.7-2.1-6.3-4.9-4.9-8.2
		c1.2-3,4.8-3.5,7.6-3.9l0.1,0c0.6-0.1,1.4-0.2,2.1-0.4c-0.4-0.4-0.7-0.8-1.1-1.2c-0.6-0.5-1.3-1-2-1.5c-2.5-1.8-5.3-3.8-8.4-6.7
		c-2.8-2.6-5.4-5.4-7.5-8.2c-2.7-3.6-3.2-5-2.2-6.2c0.7-0.8,1.6-1.2,2.7-1.2c2,0.1,5.8,1.6,15.4,14.5c0.2,0.3,0.5,0.6,0.8,1l0.1,0.2
		c0.7,1.1,2.1,3,3.9,5.1c1,0.8,2,1.6,2.5,2.6c2.1,2,4.4,3.8,6.8,5.1c0.2,0.1,0.4,0.2,0.6,0.3l0.3,0.2c0.1,0.1,0.2,0.1,0.3,0.2
		c1.6-0.1,3.2,0.1,4.7,0.7l-0.5-1.6l1.4,1.4c0.5-0.2,0.9-0.4,1.4-0.7c0.2-0.1,0.3-0.2,0.4-0.2c0.2-0.1,0.4-0.2,0.6-0.3
		c2.1-1,3.3-1,7.8-0.9l0.2,0c2.5,0.1,5.3,0.2,9.4,0.2l2.5,0c4.8,0,7,0.1,10.2,1.1c0.3,0.1,0.6,0.2,0.9,0.3c-0.2-0.2-0.3-0.4-0.4-0.6
		c-1.7-3.1,2.3-6,6.1-8.8c1-0.7,2-1.5,2.6-2c0.1-0.1,0.1-0.1,0.2-0.2c-3.6-1.1-6.5-4.4-7.1-8c-0.8-5.6,3.1-9.6,5.7-10.8
		c1.6-0.8,3.2-0.6,4.1,0.4c1.1,1.2,0.3,2.5,0,3.1c-0.5,0.8-1.4,2.3-2,5.9c-0.4,2,0.6,3.3,1.7,4.8c0.2,0.3,0.5,0.7,0.7,1
		c1.2-0.1,2.2-0.6,2.8-0.9l0.4-0.2c7.6-3.6,13.2-4.4,20.7,1.7c0.8,0.6,7.9,6.5,6.8,13.7c0,0.3-0.1,0.7-0.2,1
		c2.2-1.9,4.5-4.7,4.9-7.9c0.4-3.7-2.2-6.9-8.2-13.6c-0.3-0.3-0.8-1-1.7-2.1c-13.8-17.5-24-27.1-30.2-28.4
		c-7.9-1.7-14.7-2.6-18.7-2.5c0.6,1.2,1.1,2.7,1.1,4.9c0,4.9-2.5,10.7-6.4,14.6c-2.8,2.8-6,4.3-8.9,4.3c-4.3,0-7.3-3-9.9-6.3
		c-2.1-1-4.1-2.3-6-4.1c-0.6-0.6-1.9-1.8-2.3-3.6c0,0-0.1,0-0.1,0c-3.7,0.8-7.2,1.5-9.3,0.8c-5.3-1.6-5.1-6-4.9-8.6
		c0-0.7,0.1-2-0.1-2.3c-0.9-0.3-7.4,0.6-12.5,4c-13.6,9.1-21.4,22-22.8,24.9c-0.6,1.3-2.3,5.8-1.6,10.6c0.8,5,4.5,9.7,11.1,13.9
		c3.5-0.5,7,0,9.4,0.4C441,147.5,446.9,149.7,452.6,155.6z M435.4,150.4c3.3,1.5,6.1,2.4,7.5,2.9c0.4,0.1,0.8,0.2,1.1,0.4
		c-2.5-1.5-5-2.5-7.7-3C436,150.5,435.7,150.5,435.4,150.4z M217,112.8l0.4,0.9c1.6,3.1,2.9,5.6,2.2,10.2c-0.6,4.4-2.4,6.8-4.3,9.4
		c-2,2.7-4.2,5.7-5.9,11.9c-0.7,2.7-1.2,5.5-1.5,7.8c2.1-1.9,4.8-2.4,7.8-3c2.5-0.5,5.6-1.1,9.4-2.7c0.9-0.4,1.8-0.8,2.6-1.1
		c5.2-2.2,8-3.4,11.2-1.9c2.4,1.2,4.5,3.8,5.4,7c0,0.1,0.1,0.3,0.1,0.4c0.2-0.3,0.3-0.7,0.4-1.1c1.3-4.1,0.2-7.9-0.5-10.6l-0.1-0.3
		c-0.5-1.7-1.1-3.9-1.7-6.6c-4.9-0.9-11.3-5.8-15.2-11.7c-2.8-4.1-3.9-6.9-5.4-10.8c-1.6-3.9-3.5-8.7-7.9-17.1l-0.3-0.5
		c-1.3-2.5-2.3-4.4-3-5.8c0.1,3.7,0.9,7.6,1.8,12.5C213.8,106.3,215.6,110.1,217,112.8L217,112.8z M480.9,151.2
		c0,0.2,0.1,0.3,0.1,0.5c0,0.2,0,0.3,0,0.5c1-1.2,2.3-1.9,3.6-2.3c-1,0.1-1.4,0.2-2.1,0.5c-0.3,0.2-0.6,0.3-0.9,0.4
		C481.4,150.9,481.2,151,480.9,151.2z M473.5,149.8c0.6,0.2,1.2,0.4,1.8,0.5c0.4,0,0.9,0,1.3,0C475.5,150,474.5,149.8,473.5,149.8z
		 M428,148.6c0.2,0.1,0.4,0.2,0.6,0.4v-0.4C428.4,148.5,428.2,148.5,428,148.6z M103.7,118.3c0.7,5.7-9.3,19.9-13.5,25.1
		c1.8-1.4,3.9-2.6,6.5-4.1l0.2-0.1c1.6-0.9,3.3-1.9,5.3-3.1c4.6-2.9,6.3-4.2,8.1-5.7c1.7-1.4,3.6-3,8.1-5.8
		c12.9-8.1,20.7-13,30.1-11.4c3.5,0.6,6.1,1.9,7.8,2.7c1,0.5,2.4,1.2,2.6,1c0.6-0.4,0-3.1-0.5-5.1c-1-4.4-2.4-10.5,0.6-16.5
		c1.2-2.4,2.6-3.8,3.8-5l0.1-0.1c1.6-1.6,3-3,4.2-6.2c0.8-2.2,1.1-4.2,1.4-5.6c0.5-2.5,0.8-4.6,3-4.8c2.3-0.3,3.6,2.4,4.9,5.8
		c-0.1-0.6-0.3-1.2-0.5-1.9c-1.2-3.7-3.4-6-5.5-8c-7.5-6.7-14.7-9.6-21.4-8.5c-7.3,1.2-13.9,7-19.6,17.2c-2,3.6-4.7,8.8-7.2,13.9
		c-9.3,18.3-13.4,25.8-16.5,26.4C105,118.5,104.4,118.5,103.7,118.3z M68.1,109.5c-1.2,1.8-2.1,4.3-2.4,7.2
		c-0.8,7,1.4,14.7,5.6,19.5c4.7,5.4,12.2,7.9,15,6.1c2.5-2,14.4-20.5,13.7-23.1c-0.2-0.3-1.1-0.6-1.9-1c-1.6-0.7-4.1-1.7-7.3-4.1
		v0.1l-1.9-1.7C83.4,107.7,76.4,106.7,68.1,109.5z M457.4,137.5c0.5,0.4,1.1,0.8,1.6,1.1c0.1,0.1,0.2,0.1,0.2,0.2
		c-0.5-0.6-0.9-1.2-1.3-1.8L457.4,137.5z M337.4,119.7c1.4,0,2.8,0.1,4.2,0.2c5.7,0.6,9.4,3.1,16.8,8.1c4,2.7,6,4.4,7.3,5.6
		c1.6,1.4,2.2,1.9,3.8,2.3c0.8,0.2,1.7,0.3,2.6,0.3c-4.6-2.2-10.1-5.3-17.2-12.7c-3.8-3.9-5.5-6.3-6.5-7.7c-1-1.4-1.1-1.5-1.9-1.7
		c-3.3-1-6.7,1.3-10,3.5c-1.2,0.8-2.3,1.6-3.5,2.2C334.5,119.8,336,119.7,337.4,119.7z M376.7,133.9c0.5,0.1,1.5,0.4,2.8,0.6
		c3.7-1.8,6.8-4.4,8.5-5.8c3.2-2.7,8-6.8,9.3-13.1c0.9-4.3-1-8.3-5.9-19l-0.7-1.4c-9.7-20.9-20.7-33.6-32.6-37.5
		c-8.4-2.8-15.3-0.5-19.7,1.9c-3.8,2-5.6,5.3-7.7,9.2c-4.9,8.9-5.9,15.6-5.1,34.1c0.3,6.4,0.8,13.9,2.4,14.6c1.4,0.6,3.8-1,6.3-2.7
		c3.2-2.1,6.7-4.5,10.6-4.5c0.9,0,1.8,0.1,2.7,0.4c2.1,0.6,2.8,1.6,4,3.2c1,1.4,2.5,3.6,6.1,7.2c7,7.2,12.2,10,16.6,12.1
		C375.1,133.4,375.9,133.6,376.7,133.9L376.7,133.9z M241.4,99.1c-0.2,1.3-0.4,4.8,0.8,12.9c0.7,5,1.9,10.9,3.2,16.7
		c1-1.6,0.6-7.6,0.2-13.9l-0.1-1.4h0c-0.3-4.1-0.5-7.1-1.2-11.1C243,100.6,242,99.6,241.4,99.1z M217.8,92.2
		c4.2,8,6.1,12.8,7.6,16.6l0.1,0.2c1.4,3.6,2.4,6.2,5,10.1c3,4.5,7.5,8.1,10.9,9.5c-4.7-20.7-5.3-32-1.8-33.5c1-0.4,2.1-0.3,3.3,0.5
		c-1.3-5.6-2.4-8.6-3.6-11.7l-0.1-0.2c-0.6-1.5-1.2-3.1-1.8-4.9c-0.3,1-0.6,2-1.1,3.1v4.5l-0.7-3.2c0,0,0,0,0,0
		c-0.1,1-0.2,2.1-0.2,3.3c0,0.9,0,1.6,0.1,2.2l0,0.2c0.1,1.7,0.2,3.2-1,4.5c-2.2,2.4-6,1.8-9.3,1.2C223.7,94.5,220.9,94,217.8,92.2z
		 M517.5,124.3c-0.3,0.7-0.4,1.4-0.4,2.3c0-0.2,0.1-0.5,0.1-0.7C517.2,125.3,517.3,124.7,517.5,124.3z M88.8,102.1
		c0.5,0.2,1,0.4,1.5,0.6c5.3,2.4,8.3,5.9,10.5,8.5l0.1,0.1c2,2.4,3,3.3,4,3.2c2.1-1.3,10.1-17.2,13.6-24l1.2-2.3
		c0.9-1.8,1.8-3.6,2.7-5.2c-0.7,1.2-1.3,2-1.8,2.5c-0.5,0.5-1.2,0.8-1.8,0.7l-0.4,0.7l0.1-0.8c0,0,0,0,0,0c-1.8-0.5-1.5-2.4-1.3-3.2
		c0.2-1,0.5-2.8,0.3-5.2c-0.2-2.5-0.8-4.4-1.3-5.6c-0.7,1.6-1.9,4-4.5,5.7c-0.9,0.6-1.7,0.9-2.2,1.1c-0.6,0.2-0.8,0.3-1.1,0.7
		c-0.6,0.7-0.8,1.3-1,2.2c-0.2,0.9-0.6,2.1-1.5,3.4c-1.3,1.7-2.6,2.2-3.7,2.6c-0.9,0.3-1.7,0.6-2.7,1.4c-1.1,0.9-1.4,1.7-2,2.9
		L97,92.3c-0.4,0.9-1,2.1-1.9,3.5C93,98.9,90.6,100.8,88.8,102.1z M83.6,105c2.9,0.9,5.5,2.4,7.9,4.5c2.7,2.3,4.8,3.5,6.5,4.3
		c-2.1-2.5-4.7-5.5-9.2-7.5c-1.5-0.7-3.1-1.2-4.7-1.5C83.9,104.9,83.7,105,83.6,105z M483.3,112.4c0.9,0.5,1.7,0.8,2.6,0.8
		c2,0,4.2-1.1,6.2-3.2c2.9-2.9,4.9-7,5.2-10.7c-0.2,0.9-0.6,3.1-1.9,5.4c-1,1.7-3.8,5.8-9,7.4C486.1,112.1,485,112.4,483.3,112.4z
		 M478.6,107.6c3.5,1.4,6.1,0.9,6.8,0.7c4-1.2,6.1-4.5,6.7-5.5c0.9-1.6,1.3-3.2,1.4-4.2c0.3-1.7,0.1-2.9-0.1-3.8
		c-0.2-1-0.4-2.3,0.5-3.5c0.1-0.2,0.3-0.4,0.5-0.5c-0.4-1-0.7-2.1-0.9-3.3c-0.2-1.2-0.3-2.4-0.2-3.4c-1.3,3-3.4,5.4-6.1,5.7
		c-1.9,0.2-3.1-0.6-4-1.1c-0.1-0.1-0.3-0.2-0.5-0.3c-0.2,0.4-0.3,1.4-0.3,1.9c-0.3,2.1-0.6,4.9-2.8,7.1c-1.3,1.3-3,2.1-4.6,2.8
		l0,0.1l-1,0.4c-0.3,0.1-0.6,0.3-0.9,0.4c1.8,1.4,3.2,3.5,4.6,5.4l0.4,0.6C478.3,107.2,478.4,107.4,478.6,107.6z M474.2,106.9
		c0.7,0.5,1.3,0.9,2,1.2l-0.3-0.4c-0.3-0.5-0.7-0.9-1-1.4L474.2,106.9z M79.6,102.7l0.1,1c0.9-0.1,1.9-0.3,2.9-0.7
		C81.6,102.8,80.6,102.8,79.6,102.7z M93.7,56.2c-3.8,0-8,1.7-12.1,7c-1.2,1.6-2.7,3.3-3.9,4.8c-2.4,2.9-4.9,5.9-5.7,7.5
		c-3.5,7.2-2.3,8.8-1.1,10.3c1,1.4,2.4,3.3,0.8,7c-1.3,3-2.5,5.7-2.1,6.5c0.4,0.9,2.5,1,5.8,1h0.9c2.1,0,4.6,0,7.2,0.5
		c0.7-0.3,1.5-0.8,2.2-1.3c1.6-1.1,4.2-2.8,6.3-5.9c0.8-1.2,1.2-2.2,1.7-3.1c0.7-1.5,1.3-2.9,3.1-4.4c1.5-1.3,2.7-1.8,3.9-2.1
		c0.9-0.3,1.4-0.5,1.9-1.2c0.5-0.7,0.7-1.3,0.9-2.1l0-0.2c0.3-1.1,0.7-2.4,2-3.7c1-1,1.8-1.4,2.7-1.7c0.5-0.1,0.9-0.3,1.4-0.6
		c1.9-1.2,2.6-2.9,3.2-4.3c0.6-1.3,1.4-3.1,3.3-3.1c3.2,0,4.5,5.1,5,8.1c0.1-1.1,0.1-2.2-0.2-3.4c-1.3-6-8.3-8.9-15.1-11.8
		c-0.6-0.3-1.3-0.6-2-0.9C100.9,57.8,97.5,56.2,93.7,56.2z M240.8,98.7C240.8,98.7,240.8,98.7,240.8,98.7
		C240.8,98.7,240.8,98.7,240.8,98.7z M211.5,81.5c1,0,1.8,1,2.3,1.6c1,1.4,2.8,3.8,5.8,5.6c2.5,1.5,4.8,1.9,6.3,2.2l0.1,0
		c2.1,0.4,5,0.8,5.7,0c0.1-0.1,0.1-0.5,0-1.7l0-0.3c0-0.6-0.1-1.3-0.1-2.2c-0.4,0.2-0.9,0.3-1.4,0.4c-2.4,0.4-4.4-0.9-5.3-1.4
		c-0.1-0.1-0.2-0.1-0.3-0.2c-1.5-0.8-4.2-3.3-4.2-5.5c0-1,0.5-1.8,1.4-2.2c0.8-0.4,1.7-0.9,2.8-1.5c1.1-0.6,2.1-1.2,3.2-1.8
		c2-1,4.9-1.7,7-0.5c0.3-1.1,0.5-2.2,0.6-3.1c-0.9-3.7-1.4-6.8-1.9-9.5c-1.2-6.6-1.8-9.9-5.3-13.3c-2.9-2.8-5-3.3-6.1-3.3
		c-0.3,0-0.6,0-0.8,0.1c-3.6,0.9-5.2,8.4-5.3,10.2c-0.2,2.1,0,3.2,0.2,4.6l0,0.2c0.3,1.4,0.5,2.9,0.4,5.3c-0.3,4.3-1.6,6.9-2.8,9.4
		c-0.6,1.2-1.2,2.4-1.7,3.7c-0.4,1.1-0.7,2.2-0.9,3.3C211.3,81.5,211.4,81.5,211.5,81.5z M226.3,81.9c0.2,0.1,0.3,0.2,0.5,0.3
		l0.1,0.1c0.5,0.3,1.7,1.1,2.8,1c0.9-0.1,1.6-0.6,2.3-1.4c0.1-1,0.3-1.9,0.4-2.6c0.1-0.6,0.3-1.6,0.3-2c-0.5-0.1-1.9,0.1-3,0.7
		c-1.1,0.6-1.9,1-2.7,1.5l-0.3,0.2c-0.6,0.3-1.2,0.7-1.8,1C225.2,81.1,225.7,81.7,226.3,81.9z M234.7,78.8c0,0.3-0.1,0.6-0.2,0.9
		l0,0c-0.1,0.5-0.2,1-0.3,1.5c0.2-0.5,0.4-1,0.6-1.5L234.7,78.8z M490.6,70.6c0.5,0,0.9,0.1,1.4,0.3c2.2,1,2.4,3.7,2.5,5.4
		c0,0.6,0.1,1.2,0,1.9c0.6-1.5,1.4-3,2.1-4.3c1.7-3.2,3.5-6.6,3.2-11.3c-0.5-7.5-5.7-12.6-6.8-13.5c-7.1-6.3-16.4-5.4-18.2-5.2
		c-2.6,0.3-4.2,1.1-5.9,1.9l-0.1,0c-2.2,1-4.6,2.2-9.3,2.7c-3,0.3-5.4,0.2-6.7,0.2c-0.8,0-2.1-0.1-2.5,0.1c0,0.1-0.1,0.5,0.1,1.1
		c0.6,2.3,3.3,5.9,6.6,7.7c1.6,0.9,2.7,1.1,4.1,1.3c1.6,0.3,3.8,0.6,7,2.2c1.3,0.6,4.5,2.1,7.6,4.9c2.9,2.7,4.2,5.2,5.1,6.9
		c0.9,1.7,1.2,2.1,1.7,2.2c1,0.2,2.2-0.9,3.5-2C487.5,71.9,488.9,70.6,490.6,70.6z M490.3,74.3L490.3,74.3L490.3,74.3z M237.2,73.5
		h0.2l-0.1-0.6C237.3,73.1,237.2,73.3,237.2,73.5z M116.7,70.5C116.7,70.5,116.7,70.5,116.7,70.5C116.7,70.5,116.7,70.5,116.7,70.5z
		"/>
</g>
</svg>
