<?xml version="1.0" encoding="UTF-8"?>
<svg xmlns="http://www.w3.org/2000/svg" viewBox="0 0 326 167" fill="#69a6c2">
  <path
    d="M266.17 157.6c-.53-.37-1.06-.74-1.52-1.06-1.95-2.07-3.56-3.95-4.94-5.75-1.06-1.39-1.97-2.82-2.94-4.34l-.34-.52c-.27-.68-.67-1.55-1.3-2.3-.2-.23-.42-.45-.65-.65-.44-.66-.88-1.32-1.3-1.99-.74-1.17-1.38-2.42-2-3.63-.37-.73-.75-1.46-1.14-2.18-.6-1.08-1.28-2.23-2.05-3.41-.71-1.79-1.94-3.35-3.12-4.86-.36-.46-.71-.91-1.05-1.36l-.07-.1c-.79-1.06-1.6-2.16-2.15-3.35-.4-.86-.53-1.79-.67-2.77-.06-.43-.12-.85-.2-1.28-.5-2.57-2.16-4.93-3.71-6.9-.82-1.04-1.74-2.07-2.72-3.05-.42-.42-.87-.82-1.31-1.22-.53-.48-1.08-.98-1.58-1.5-.48-.52-.95-1.08-1.39-1.62-.38-.46-.76-.92-1.16-1.37-.58-.64-1.22-1.22-1.84-1.77-.27-.24-.54-.48-.8-.73-1.36-1.27-1.93-2.73-2.54-4.51l-.04-.11c-.48-1.39-1.46-4.29-3.11-4.6-.68-.13-1.34.18-1.97.92-2.27 2.69-2.57 6.64-.79 10.56.79 1.75 1.86 3.37 2.88 4.93 1.05 1.6 2.14 3.26 2.91 5.03 1.13 2.58 1.52 6.07-1.1 7.38-2.35 1.18-5.59.55-8.15-.12-2.84-.75-5.49-1.92-8.1-3.59-1.28-.82-2.54-1.66-3.81-2.51-2.99-2-6.08-4.08-9.38-5.7-2.51-1.23-4.85-2.07-7.17-2.57-1.31-.28-3.25-.59-4.82 0-.7.26-1.22.8-1.44 1.49-.1.3-.13.62-.1.92-1.55-.42-2.88-.19-3.88.66-1.18 1-2.07 2.84-1.23 4.5.18.37.42.69.69.99-.82-.19-1.63-.24-2.3.04-.68.28-1.13.82-1.36 1.62-.62 2.23.9 4.63 2.73 5.85.42.28.86.56 1.39.88-.17.17-.3.36-.4.58-.46 1-.13 2.15.26 3.14 1 2.55 2.75 4.92 5.19 7.06 2.47 2.15 5.12 4.17 7.68 6.11l1.78 1.35c1.95 1.49 3.42 2.82 4.64 4.17.6.66 1.17 1.34 1.74 2.03.7.84 1.43 1.72 2.2 2.54 1.01 1.07 2.17 2.06 3.55 3.01-.05.32-.05.63-.02.94.02.18.07.46.17.78-.72.19-1.42.43-2.03.66l-1.19.45c-1.4.53-2.85 1.08-4.31 1.52l-1.65.5c-1.85.56-3.76 1.15-5.66 1.64-2.15.56-4.38.97-6.54 1.36l-2.53.47c-9.52 1.76-19.37 3.58-29.19 4.19-4 .25-7.91.3-11.63.14.23-.22.46-.44.69-.66.52-.5 1.05-1.01 1.61-1.47.55-.45 1.15-.87 1.72-1.28.49-.34.97-.69 1.45-1.05.69-.53 1.3-1.13 1.9-1.7.26-.25.52-.5.78-.75 1.36-1.26 2.86-1.73 4.68-2.21l.11-.03c1.42-.37 4.38-1.15 4.81-2.77.18-.67-.08-1.35-.78-2.03-2.52-2.46-6.44-3.04-10.48-1.55-1.8.67-3.49 1.61-5.12 2.51-1.67.93-3.41 1.9-5.23 2.54-2.66.94-6.16 1.08-7.28-1.63-1-2.42-.15-5.61.71-8.12.95-2.78 2.31-5.34 4.16-7.82.91-1.22 1.84-2.42 2.78-3.62 2.22-2.83 4.51-5.76 6.36-8.94 1.41-2.41 2.42-4.69 3.08-6.97.38-1.29.82-3.19.36-4.81-.21-.71-.71-1.28-1.38-1.54-.3-.12-.61-.16-.91-.16.53-1.51.4-2.85-.38-3.92-.91-1.25-2.68-2.27-4.4-1.55-.38.16-.72.37-1.04.62.25-.8.35-1.61.13-2.29-.23-.69-.74-1.19-1.52-1.47-2.17-.78-4.68.57-6.03 2.3-.31.4-.62.82-.98 1.32-.15-.18-.34-.33-.55-.44-.97-.53-2.14-.28-3.16.03-2.62.82-5.11 2.39-7.41 4.67-2.32 2.3-4.51 4.78-6.63 7.19l-1.5 1.7c-1.63 1.84-3.06 3.21-4.49 4.33-.7.55-1.43 1.06-2.15 1.58-.89.64-1.82 1.3-2.69 2.01-1.15.93-2.21 2.02-3.26 3.32-.31-.07-.63-.09-.94-.09-.32.01-.89.11-1.42.28l-.16.05-.1.13c-.24.35-.47.64-.7.88l-.11.13v.17c-.02.12-.06.2-.13.27l-.08.11c-.43.72-.72 1.49-.98 2.23-.58 1.64-.98 3.34-1.19 5.05-.04.28-.06.57-.08.85-1.06 2.36-1.97 4.8-2.69 7.23-.6 2.01-1.01 3.84-1.27 5.58-.07.47-.13.95-.19 1.43-.21 1.62-.43 3.29-.95 4.83-1.06 3.18-3.65 5.59-6.16 7.92h2.27c.19-.18.39-.36.58-.55 1.2-1.18 2.57-2.59 3.62-4.21.93-1.43 1.56-3.15 1.98-5.41.17-.88.28-1.77.4-2.64.14-1.06.29-2.15.51-3.2.38-1.75.89-3.56 1.57-5.53.18-.53.38-1.06.58-1.61.46 2.22 1.46 4.21 2.96 5.83 1.55 1.68 3.46 3.04 5.33 4.38 1.86 1.33 3.83 2.57 5.85 3.69.33.19.67.37 1.01.55-1.2 2.5-2.13 5.36-2.85 8.7h1.83c.64-2.88 1.53-5.5 2.69-7.84 3.05 1.5 6.3 2.79 9.66 3.83 5.09 1.58 10.62 2.64 16.46 3.17-.26.18-.52.35-.77.52-.19.12-.36.21-.55.32h3.06c.28-.2.56-.42.85-.64 2.58.16 5.26.23 7.97.19 10.78-.15 21.45-1.93 30.61-3.59 1.01-.18 2.01-.36 3.02-.54 4.22-.74 8.58-1.5 12.78-2.7l.85-.24c2.14-.61 4.35-1.23 6.49-1.97.85-.29 1.69-.64 2.5-.98.99-.41 2.01-.84 3.04-1.15.09-.03.18-.06.28-.08.28.42.66.74 1.12.93.76.32 1.28.07 1.52-.1.55-.41.72-1.16.7-1.79.67.33 1.38.67 2.15 1.03 3.75 1.7 7.64 3 11.57 3.86 2.05.45 3.9.73 5.66.86.47.03.95.06 1.43.09 1.63.09 3.32.19 4.9.59 3.27.83 5.87 3.26 8.39 5.61.22.21.44.4.66.61h2.32c-.59-.53-1.18-1.06-1.76-1.59-.67-.62-1.34-1.25-2.03-1.85-1.26-1.11-2.77-2.37-4.46-3.3-1.5-.82-3.25-1.33-5.54-1.58-.89-.1-1.79-.15-2.65-.21-1.06-.06-2.17-.13-3.23-.28-1.77-.25-3.61-.63-5.63-1.16-3.9-1.03-7.62-2.44-11.05-4.19-1.14-.58-2.04-1.07-2.85-1.56.41-.77 1.09-1.43 1.64-1.98 2.07-2.02 3.44-3.67 4.57-5.5.69-1.11 1.34-2.27 1.96-3.39.62-1.12 1.27-2.28 1.95-3.38 1.06-1.71 2-3.48 2.92-5.2.3-.56.59-1.12.9-1.67l.07-.13c.07-.13.14-.26.21-.39.75 1.8 1.79 3.86 3.3 5.51 3.86 4.21 9.94 6.73 18.56 7.69 2.05.23 3.78.31 5.42.28l.81-.02c1.66-.05 3.38-.1 4.97.31.88.23 1.58.64 2.1 1.17l.58.87c.14.21.27.41.37.56.28.59.5 1.21.74 1.86.2.56.41 1.14.66 1.7 1.66 3.73 4.71 6.14 7.37 8.05.43.46.86.91 1.29 1.37l.28.29c2.31 2.4 4.7 4.89 7.24 7.12.24.21.49.43.75.65h2.51c-.79-1.7-2.04-3.4-3.71-5.05-1.67-1.65-3.64-3.02-5.54-4.35ZM246.71 141.27h-.38c-7.91.09-14.68-1.47-19.68-4.56-1.58-.98-2.84-2.02-3.84-3.19-.96-1.12-1.61-2.41-2.19-3.64-.37-.79-.76-1.64-1.06-2.49.69-1.73.81-3.17.36-4.52-.09-.27-.28-.48-.54-.58-.25-.1-.53-.08-.78.05-1.46.79-1.79 2.48-.98 5.02-.28.59-.6 1.17-.91 1.73-.19.34-.38.68-.55 1.01-.21.4-.41.8-.61 1.2-.41.81-.82 1.64-1.29 2.43-.41.7-.83 1.38-1.25 2.06-.31.5-.62 1.01-.93 1.52-.52.87-1.01 1.76-1.51 2.65-.83 1.5-1.68 3.05-2.69 4.47-.71.99-1.51 1.92-2.47 2.84l-.21.21c-.68.65-1.39 1.32-1.97 2.11-.18.24-.33.48-.47.72-.18-.12-.35-.25-.53-.38-1.52-1.13-2.82-2.61-3.92-3.91l-.59-.7c-1.05-1.25-2.14-2.55-3.36-3.71-1.37-1.29-2.85-2.42-4.5-3.65-1.43-1.07-2.86-2.21-4.23-3.31l-1.4-1.12c-1.2-.95-2.43-1.93-3.54-3-1.02-.99-3.45-3.61-4.03-6.42-.06-.29-.09-.69.08-.92.1-.13.27-.21.51-.24l.1.06c.59.34 1.19.68 1.77 1.03l-.04.4c.3.04.6.09.9.13 1.44.92 2.81 2 4.14 3.04l1.1.86c1.53 1.19 3.2 2.34 5.23 3.6.41.26.83.54 1.24.83.57.4 1.16.81 1.72 1.12.51.39.94.74 1.33 1.09.15.13.3.27.45.42.9.84 1.92 1.78 3.18 2.05.68.14 1.71 0 2.28-.53.34-.32.49-.75.42-1.21-.2-1.41-1.93-2.07-2.92-2.23-.34-.06-.68-.09-1.02-.12-.47-.04-.92-.09-1.35-.19-.46-.11-.95-.33-1.49-.65-1.08-.82-2.23-1.57-3.34-2.29-1.73-1.13-3.51-2.29-5.03-3.71-.43-.4-.84-.82-1.27-1.25-1.89-1.91-3.84-3.88-6.73-4.1-.09 0-.18-.01-.27-.01l-.38-.22c-1.98-1.13-4.69-2.68-4.3-5.19.08-.53.3-.68.46-.75.88-.39 2.85.44 5.84 2.46l.25.17c1.38.91 3.05 1.96 4.9 2.77 1.46.64 2.97 1.23 4.43 1.8l.75.3c2.22.88 4.22 1.68 6.1 2.64.24.15.47.3.7.46 2.09 1.43 3.51 3.06 4.34 5 .17.39.62.54.97.45.91-.22 1.43-.65 1.53-1.27.27-1.6-2.69-3.71-3.97-4.55-.89-.58-1.87-1.14-2.94-1.67-1.26-.79-2.58-1.48-3.86-2.15l-1.43-.74c-1.86-.97-3.79-1.97-5.63-3.03-.46-.27-.92-.54-1.38-.81-1.15-.69-2.34-1.4-3.6-2l-.41-.19c-1.28-.6-2.6-1.22-3.58-2.17-.48-.46-.72-.99-.71-1.54.01-.58.33-1.17.9-1.66 1.18-1.03 2.96-.26 4.39.53.64.35 1.26.74 1.88 1.13.89.56 1.81 1.14 2.79 1.61 1.45.69 2.96 1.29 4.43 1.86.94.37 1.88.74 2.82 1.14 1.14.49 2.44 1.04 3.57 1.77.24.15.46.32.69.49.69.97 1.31 1.66 2.02 2.23.97.79 2.07 1.42 3.11 2 .24.13.53.27.84.41.78.36 1.76.8 2.02 1.38.1.22.12.49.14.77.04.5.09 1.06.52 1.55.59.67 1.72.97 2.47.64.56-.24.84-.78.76-1.46-.17-1.57-1.49-2.83-2.67-3.48-.55-.3-1.12-.59-1.68-.87-.64-.32-1.27-.64-1.89-.99-1.21-.68-2.27-1.55-3.24-2.39-.35-.3-.71-.59-1.07-.86-.16-.22-.31-.44-.46-.66-.75-1.08-1.53-2.2-2.76-3.04-1.96-1.34-4.27-2.04-6.55-2.74-1.24-.37-2.48-.81-3.67-1.22-.69-.24-1.38-.48-2.16-.74-.6-.2-1.28-.43-1.63-.85-.14-.17-.19-.36-.14-.54.06-.21.25-.38.5-.47 1.36-.45 3.12-.11 4.67.28 2.15.55 4.34 1.41 6.7 2.63 2.54 1.32 4.98 2.97 7.34 4.57 3.88 2.62 7.89 5.33 12.53 6.72 2.23.67 7.77 1.99 10.94-.11 1.29-.86 2.04-2.17 2.24-3.91.38-3.4-1.34-6.41-3.29-9.45-.28-.43-.57-.87-.86-1.32-1.69-2.55-3.44-5.2-3.65-8.15-.12-1.77.41-3.64 1.43-4.99.42-.56.55-.48.61-.45.3.18.55.69.77 1.14.4.82.7 1.72 1 2.59.16.46.31.93.48 1.38.75 2.02 2.13 3.34 3.47 4.53.91.8 1.71 1.75 2.48 2.67.76.9 1.54 1.83 2.44 2.65 1.77 1.62 3.63 3.4 5.19 5.49.79 1.05 1.43 2.05 1.95 3.06.57 1.09.92 2.25 1.13 3.75.16 1.14.39 2.37 1.01 3.57.59 1.16 1.38 2.21 2.15 3.25.35.47.72.94 1.1 1.41 1.11 1.4 2.26 2.84 2.89 4.43.09.23.26.4.48.48.47.78.93 1.57 1.38 2.37.45.8.87 1.65 1.27 2.47.44.89.89 1.81 1.39 2.69.24.42.49.84.78 1.3-1.63-.4-3.4-.38-5.01-.35ZM197.27 135.12c.34.03.66.08.97.16.37.1 1.02.44 1.19.66-.17.05-.52.06-.74.02-.28-.06-.58-.24-.86-.43-.19-.13-.38-.26-.56-.41ZM192.84 113.75c-.71-.29-1.42-.56-2.14-.84-.56-.21-1.13-.43-1.69-.66.91.28 1.83.59 2.71.94.57.23 1.23.51 1.89.88-.25-.11-.5-.21-.77-.32ZM204.01 153.09c.14.08.27.16.41.24-.1 0-.21 0-.32.02-.04-.09-.07-.17-.1-.25ZM94.1 131.99c-.2.3-.4.61-.6.93.17-.34.37-.68.6-.93ZM91.58 140c.84-1.81 1.78-3.58 2.78-5.24.67-1.1 1.22-1.96 1.76-2.73.67.42 1.24 1.06 1.85 1.78 1.86 2.21 3.41 3.69 5.16 4.96 1.06.77 2.17 1.5 3.25 2.21 1.07.7 2.17 1.43 3.22 2.19 1.62 1.18 3.32 2.25 4.97 3.28.54.34 1.07.68 1.61 1.02l.17.11c.11.07.21.14.32.21-1.85.62-3.98 1.5-5.73 2.89-1.91 1.51-3.57 3.5-4.95 5.93-2.47-1.3-4.83-2.77-7.1-4.41-1.74-1.26-3.53-2.55-4.9-4.15-1.19-1.38-1.97-3.09-2.27-4.94-.16-.97-.2-2.01-.14-3.1ZM109.02 155.42c1.09-1.51 2.22-2.69 3.46-3.6 1.19-.88 2.52-1.43 3.78-1.92.82-.31 1.69-.64 2.56-.88 1.68.82 3.11 1.03 4.48.69.27-.07.5-.25.61-.5.12-.24.12-.52 0-.77-.68-1.51-2.34-1.96-4.93-1.34-.57-.32-1.12-.68-1.66-1.03-.33-.21-.65-.42-.96-.62-.38-.24-.77-.46-1.15-.69-.78-.46-1.58-.94-2.34-1.46-.66-.46-1.31-.93-1.97-1.4-.48-.35-.96-.7-1.45-1.04-.83-.59-1.68-1.14-2.54-1.7-1.44-.93-2.92-1.9-4.26-3-.94-.77-1.81-1.65-2.66-2.67l-.2-.24c-.6-.72-1.21-1.47-1.96-2.11-.22-.19-.45-.37-.68-.52.14-.17.27-.33.42-.5c1.24-1.44 2.81-2.62 4.18-3.62l.75-.54c1.33-.96 2.7-1.95 3.94-3.08 1.38-1.27 2.62-2.66 3.97-4.22 1.19-1.36 2.44-2.71 3.64-4.01l1.19-1.29c1.03-1.12 2.1-2.29 3.25-3.31 1.07-.95 3.85-3.18 6.7-3.55.29-.04.7-.04.91.15.12.11.19.28.2.53l-.03.04c-.53.79-1.06 1.58-1.62 2.34-1.07 1.45-2.31 2.82-3.51 4.14l-.92 1.01c-1.3 1.45-2.56 3.02-3.97 4.96-.29.39-.6.78-.92 1.18-.44.54-.89 1.1-1.25 1.64-.42.48-.81.89-1.19 1.25-.14.14-.29.28-.45.42-.9.84-1.92 1.79-2.27 3.03-.19.67-.13 1.71.37 2.31.29.36.72.53 1.18.51 1.42-.1 2.2-1.78 2.44-2.75.08-.33.14-.67.2-1.01.08-.47.15-.91.29-1.33.15-.45.4-.92.76-1.44.89-1.02 1.73-2.11 2.53-3.17 1.25-1.64 2.54-3.34 4.06-4.74.43-.4.88-.78 1.34-1.17 2.04-1.74 4.14-3.54 4.58-6.41.01-.09.02-.17.03-.26l.25-.37c1.27-1.89 3.02-4.48 5.49-3.91.52.12.65.35.71.51.32.9-.65 2.8-2.87 5.65l-.19.24c-1.01 1.32-2.17 2.9-3.12 4.69-.74 1.4-1.43 2.85-2.1 4.25l-.37.76c-1.04 2.15-1.98 4.08-3.08 5.89-.17.23-.34.45-.51.67-1.57 1.98-3.31 3.28-5.3 3.97-.42.14-.58.59-.52.94.15.92.54 1.47 1.16 1.62 1.59.39 3.9-2.41 4.82-3.63.65-.86 1.28-1.79 1.88-2.81.88-1.21 1.7-2.53 2.42-3.7l.84-1.36c1.1-1.79 2.24-3.64 3.44-5.4.3-.44.61-.88.92-1.32.77-1.1 1.57-2.23 2.25-3.44l.22-.39c.69-1.23 1.41-2.51 2.42-3.41.49-.44 1.04-.65 1.58-.59.58.06 1.15.42 1.59 1.01.94 1.25.04 2.98-.84 4.34-.4.61-.83 1.2-1.26 1.79-.62.85-1.27 1.72-1.81 2.67-.8 1.4-1.5 2.87-2.18 4.28-.44.91-.88 1.82-1.34 2.72-.57 1.1-1.21 2.35-2.03 3.43-.17.22-.35.44-.53.65-1.02.62-1.75 1.19-2.37 1.85-.86.92-1.57 1.96-2.21 2.95-.15.23-.3.51-.47.81-.41.76-.93 1.7-1.52 1.92-.22.08-.5.08-.78.09-.5 0-1.06 0-1.58.41-.71.54-1.09 1.64-.82 2.41.2.58.72.9 1.41.87 1.58-.05 2.93-1.28 3.66-2.41.34-.53.66-1.07.98-1.61.37-.61.73-1.23 1.13-1.82.77-1.16 1.72-2.15 2.62-3.05.33-.33.64-.66.93-1.01.23-.14.46-.28.69-.41 1.14-.67 2.31-1.37 3.24-2.53 1.48-1.86 2.35-4.11 3.2-6.33.46-1.21.99-2.42 1.49-3.59.29-.67.57-1.33.89-2.09.24-.59.52-1.25.97-1.57.18-.13.37-.16.55-.1.2.08.37.27.43.53.35 1.39-.11 3.12-.62 4.64-.7 2.11-1.72 4.23-3.11 6.49-1.5 2.44-3.33 4.76-5.09 7-2.9 3.68-5.89 7.48-7.61 12.01-.83 2.18-2.55 7.6-.68 10.92.76 1.35 2.02 2.2 3.74 2.52 3.37.62 6.5-.87 9.67-2.59.46-.25.92-.51 1.38-.77 2.66-1.5 5.41-3.04 8.35-3.04h.04c1.78 0 3.6.68 4.87 1.79.52.46.44.58.4.64-.2.29-.73.5-1.2.69-.85.34-1.77.58-2.65.8-.47.12-.95.24-1.42.38-2.06.6-3.49 1.88-4.77 3.13-.87.85-1.87 1.58-2.85 2.28-.95.69-1.94 1.41-2.82 2.24-1.1 1.04-1.98 1.83-2.83 2.54-4.27-.29-8.38-.86-12.23-1.7-5.39-1.18-10.51-2.95-15.23-5.26.42-.72.87-1.41 1.33-2.05ZM112.73 126.23c-.06.33-.12.65-.23.95-.12.37-.52.98-.74 1.14-.04-.17-.03-.53.04-.74.08-.27.28-.55.49-.82.14-.18.29-.36.45-.53ZM136.14 119.66c-.35.89-.72 1.78-1.13 2.64-.27.55-.6 1.19-1.01 1.82.12-.24.25-.49.38-.75.34-.68.66-1.38.99-2.07.25-.54.51-1.09.78-1.64Z" />
  <path d="M186.89 42.31c1.43-1.65 3.1-3.18 4.97-4.55.97-.71 1.92-1.46 2.87-2.22 2.57-2.03 5.23-4.14 8.33-5.45 5.43-2.3 11.58-2.5 17.53-2.7 2.13-.07 4.33-.14 6.47-.31 3.67-.29 6.98-1.47 10.11-3.61 2.93-2 5.46-4.52 7.9-6.96l.37-.37c2.02-2.01 4.19-3.94 6.3-5.79 1.02-.9 2.04-1.8 3.04-2.71 1.66-1.5 3.31-3 4.99-4.47.21.12.41.23.62.35.89.49 1.88.94 2.93.87 1.01-.06 2.01-.61 2.83-1.54.75-.85 1.19-1.88 1.28-2.85h-1.8c-.14.8-.77 1.64-1.37 2.14-.66.54-1.44.57-2.48.08-.18-.08-.35-.18-.53-.27.26-.27.52-.56.81-.91.35-.35.66-.7.96-1.05h-2.46c-.3.34-.6.68-.93 1.03-.17-.09-.34-.18-.51-.26-.59-.29-1.23-.54-1.94-.76h-18.59c-2.16.52-4.43 1.2-6.92 2.07-1.58.56-3.16 1.15-4.73 1.74-3.57 1.34-7.27 2.73-11.02 3.68-4.98 1.26-10.39 1.8-16.09 1.6-5.8-.21-11.18-1.23-15.98-3.02C179.35 4.38 175.73 2.37 172.96 0h-2.7c2.22 2.24 5.07 4.18 8.62 5.88 9.98 4.77 22.1 6.22 34.11 4.07 5.05-.9 9.9-2.72 14.59-4.47 1.02-.38 2.03-.76 3.05-1.13 5.13-1.87 11.24-3.78 17.74-3.78h.11c3.4.01 6.24.44 8.67 1.31.4.14.79.32 1.14.5l-.43.36c-.79.67-1.6 1.35-2.38 2.07-1.83 1.69-3.74 3.36-5.59 4.97l-.31.27c-1.85 1.62-3.62 3.35-5.33 5.03-1.13 1.11-2.27 2.23-3.43 3.32-2.61 2.44-5.81 5.1-9.72 6.37-1.85.6-3.84.75-6.05.88-1.55.09-3.11.14-4.66.19l-1.93.07c-3.97.15-8.57.4-12.87 1.63-2.28.65-4.36 1.54-6.18 2.64-1.88 1.13-3.6 2.5-5.26 3.82l-.55.44c-.62.49-1.25.97-1.88 1.45-1.32 1-2.69 2.03-3.92 3.19-1.52 1.44-2.97 3.15-4.56 5.38l-.18.25c-.72 1-1.62 2.24-1.22 3.7.48 1.76 2.39 2.71 3.95 2.71h.03c1.45-.01 2.73-.55 3.98-1.08.33-.14.66-.28.98-.4.33-.13.65-.25.98-.37.53-.19 1.06-.39 1.59-.61-.32.27-.65.54-.97.81-1.25 1.05-2.54 2.13-3.86 3.13-1.19.91-2.41 1.79-3.63 2.67-.88.64-1.77 1.28-2.64 1.93-4.8 3.56-8.94 7.59-12.32 11.97l-.37.48c-1.18 1.52-2.53 3.23-2.82 5.17-.14.9.22 1.46.55 1.77.31.3.74.51 1.22.6-.87.73-1.8 1.6-2.61 2.58-1.82 2.18-2.01 4.22-.54 5.75 1.61 1.67 4.38 1.21 6.26.3 1.06-.51 1.97-1.25 2.85-1.97l.56-.45c1.01-.81 2.01-1.64 3-2.47l.82-.68c2.35-1.95 5.18-4.2 8.4-6.08.88-.52 1.78-1.02 2.68-1.52 1.58-.89 3.21-1.8 4.77-2.79.24-.15.48-.31.74-.48 1.13-.74 2.47-1.62 3.82-1.97-.63.55-1.39 1.02-2.13 1.47l-.53.33c-1.28.8-2.43 1.75-3.54 2.67-.32.27-.64.53-.97.8-3.25 2.62-6.78 4.75-10.41 6.89-2.88 1.69-5.65 3.4-7.82 5.69-.59.62-1.35 1.59-1.13 2.81.28 1.58 1.93 2.64 2.43 2.92 2.58 1.48 5.22.19 6.97-.91 2.71-1.7 5.34-3.57 7.9-5.41-.35.44-.64.94-.76 1.5-.2.88-.07 2.15.96 2.85.93.63 2.13.57 3.07.43 1.29-.18 2.51-.58 3.53-.94 6.3-2.26 11.92-5.93 17.36-9.47l1.79-1.17c1.01-.65 2.01-1.31 3.02-1.97 2.71-1.78 5.52-3.62 8.35-5.29 1.4-.82 2.98-1.39 4.51-1.94l.84-.3c2.17-.79 3.89-1.69 5.44-2.82 2.46-1.81 4.66-4.01 6.78-6.15l.5-.5.07-.09c.23-.37.49-.72.75-1.07.32-.43.66-.88.94-1.38.13-.23.25-.46.36-.68.16-.32.31-.62.5-.88l.08-.11.03-.19c.21-.41.38-.85.53-1.25.07-.17.13-.33.19-.48l.08-.2c.28-.66.63-1.47.58-2.27.24-1.07.36-2.13.36-3.16 1.39.46 2.89.23 4.23-.66 1.06-.71 1.76-1.68 2.51-2.79.82-1.22 1.65-2.22 2.53-3.07 1.25-1.2 2.62-2.35 3.94-3.46.67-.56 1.34-1.12 2-1.7 1.96-1.7 4.07-3.49 6.42-5.02 2.37-1.54 4.84-2.97 6.97-4.19 1.28-.73 2.45-1.36 3.56-1.93.62-.31 1.24-.62 1.87-.91.07-.03.14-.06.22-.09.33-.13.74-.3.98-.66.18-.26.2-.59.07-.88-.14-.31-.44-.53-.78-.58-.05 0-.14 0-.24 0l-.15-.08-.16.15-.44.19-.4.2-.03.11c-.13.05-.25.09-.32.12-.27.13-.54.26-.81.4-.63.32-1.26.64-1.88.97-1.12.6-2.3 1.26-3.7 2.09l-.93.55c-2.04 1.2-4.16 2.44-6.11 3.82-2.02 1.43-3.88 3.03-5.92 4.83-.61.53-1.24 1.06-1.86 1.58-1.26 1.06-2.56 2.15-3.74 3.32-.87.86-1.66 1.81-2.35 2.83l-.24.36c-.51.77-1 1.5-1.66 2.05-1.18.98-2.49 1.12-3.73.39-.35-1.96-1.24-3.76-2.7-5.51-.38-.45-.78-.89-1.17-1.33-.54-.6-1.09-1.21-1.59-1.85-.23-.3-.46-.6-.69-.91-.47-.63-.96-1.28-1.5-1.89-1.4-1.61-3.34-3.44-5.81-3.39-.21 0-.41.1-.56.26-.16.17-.24.39-.23.6.06 1.55 1.43 2.91 2.43 3.91l.13.13c.79.78 1.62 1.53 2.43 2.26.68.61 1.36 1.22 2.02 1.86.89.86 1.61 1.92 2.37 3.03.93 1.37 1.89 2.79 3.22 3.83.06.57.07 1.17.03 1.77-.22 3.44-1.73 6.81-4.48 10.03l-.1.1c-.58.55-1.15 1.12-1.72 1.69-2.41 2.39-4.9 4.86-8.09 6.26-.86.37-1.76.7-2.63 1.01-.83.3-1.68.6-2.5.96-1.66.71-3.16 1.68-4.61 2.62l-.48.31c-3.42 2.21-6.84 4.42-10.25 6.63l-.77.5c-5.3 3.45-10.79 7.01-16.95 9.12-2.2.75-3.61.93-4.21.52-.12-.08-.27-.23-.29-.6-.05-.98.94-1.8 1.8-2.51 1-.82 2.06-1.53 3.25-2.31 1.38-.9 2.67-1.88 3.96-3.01.27-.24.54-.48.82-.72 1.16-1.04 2.36-2.11 3.74-2.85.59-.32 1.25-.61 1.95-.92 2.11-.93 4.5-1.99 5.52-4.17.18-.38-.02-.79-.29-1.01-1.21-.99-3.05 0-4.05.54l-.18.1c-1.95 1.04-3.7 2.29-5.62 3.69-1.25.91-2.48 1.85-3.71 2.79l-.85.65c-1.27.97-2.62 1.89-3.93 2.79-.65.44-1.29.88-1.94 1.33l-1.69 1.19c-2.43 1.71-4.95 3.49-7.48 5.14l-.4.26c-1.86 1.23-3.98 2.63-6.03 1.31-.72-.46-1.18-.99-1.28-1.47-.06-.29 0-.58.2-.88.58-.88 1.52-1.62 2.43-2.34l.32-.25c2.15-1.71 4.59-3.16 6.95-4.55.61-.36 1.21-.72 1.82-1.08 2.9-1.75 5.76-3.84 8.76-6.38.88-.74 1.82-1.35 2.82-2l.79-.51c1.17-.77 2.37-1.63 3.08-2.9.12-.23.13-.5.02-.73-.12-.23-.34-.4-.61-.44-2.21-.34-4.29 1.02-5.97 2.11l-.57.37c-1.61 1.03-3.34 1.94-5 2.83-1.12.6-2.25 1.19-3.35 1.83-2.45 1.41-4.83 3.1-7.75 5.5-.65.53-1.29 1.08-1.94 1.64-1.68 1.44-3.42 2.93-5.29 4.11-1.14.72-3.08 1.18-4.23.67-.58-.26-.92-.73-1.04-1.45-.15-.88.43-1.71.99-2.42.58-.73 1.29-1.46 2.31-2.35.82-.71 1.68-1.42 2.55-2.11 1.47-.74 2.79-1.9 3.82-2.79 1.95-1.36 3.98-2.7 5.95-3.98.79-.52 1.58-1.04 2.37-1.56 2.63-1.75 5.55-3.29 8.09-4.61l.71-.36c1.89-.96 4.03-2.04 5.07-3.94.11-.2.13-.43.06-.64-.07-.22-.23-.4-.46-.51-1.7-.82-3.46.19-4.04.52-.98.56-1.87 1.25-2.72 1.91-.31.24-.63.49-.95.72-1.31.98-2.8 1.82-4.24 2.63-1.96 1.11-3.99 2.25-5.68 3.8-.75.68-1.48 1.39-2.21 2.1-.83.81-1.69 1.65-2.57 2.43l-.82.74c-1.01.71-2.02 1.43-3.01 2.18l-.27.21c-.48.24-.94.4-1.39.49-.47.1-1.22.05-1.35-.35-.15-.46.27-1.24.53-1.71l.05-.1c1.11-2.06 2.69-3.9 4.22-5.67 1.4-1.62 2.68-3.01 3.92-4.24 2.72-2.69 5.89-4.99 8.97-7.22l1.24-.9c1.48-1.07 3.41-2.51 5.29-4.08.41-.34.81-.68 1.22-1.03 1.27-1.08 2.57-2.19 3.94-3.17 1.52-1.09 3.2-1.66 4.97-2.27 1.55-.53 3.31-1.13 4.44-2.51.23-.29.2-.75-.08-1.01-2.01-1.9-4.14-.7-5.85.27-.28.16-.56.32-.83.46-.57.29-2.13.66-3.62.64-.55-.73-1.33-1.32-2.03-1.84-.23-.17-.45-.33-.66-.5-.21-.16-.47-.21-.71-.12-.25.1-.44.33-.49.6-.12.75 0 1.39.39 1.92.48.66 1.32 1.09 2.5 1.3.13.32.14.61.03.92-.24.67-.97 1.08-1.75 1.47-.84.42-1.73.76-2.58 1.08-.48.18-.97.39-1.46.6-1.17.5-2.38 1.01-3.61 1.16-.71.08-1.71 0-2.46-.85-.48-.54-.53-1.12-.14-1.88.78-1.53 1.95-2.92 3.29-4.46ZM197.24 44.41c.55 0 1.11-.04 1.61-.12 1.21-.19 2.19-.73 3.14-1.26l.31-.17c.98-.54 1.93-.99 2.8-.68-.97.77-2.33 1.2-3.65 1.62-.41.13-.82.26-1.2.39-1.16.41-2.21.97-3.17 1.59.17-.44.23-.9.16-1.36ZM206.39 72.74c.42-.27.85-.53 1.29-.77.45-.26.96-.54 1.52-.78-.81.64-1.85 1.12-2.81 1.55ZM237.69 32.21c1.64.66 3.07 2.53 4.07 3.83l.07.09c.13.17.25.33.39.49-.15-.14-.3-.27-.46-.41-.81-.72-1.64-1.47-2.42-2.25l-.29-.29c-.44-.42-.98-.95-1.36-1.48ZM190.18 62.75c.53-.36 1.04-.76 1.52-1.15.49-.39.99-.78 1.51-1.14.74-.5 1.62-1.03 2.45-1.13-.71.72-1.64 1.28-2.49 1.77-.71.41-1.43.8-2.16 1.19-.28.15-.56.3-.84.45Z" />
  <path d="M78.19 143.13c-.91.99-1.92 1.92-2.9 2.83-1.13 1.05-2.3 2.13-3.35 3.32-1.85 2.1-3.39 4.36-4.59 6.7-1.29 2.53-2.3 5.33-3.01 8.33-.21.89-.39 1.79-.56 2.69h1.65c.18-.91.36-1.82.58-2.72 1.53-6.19 4.6-11.57 9.11-15.99.55-.53 1.11-1.05 1.66-1.57 1.62-1.5 3.29-3.05 4.58-4.96 1.55-2.31 2.46-5.02 2.62-7.85.57-10.01-5.78-17.79-11.91-25.3-1.73-2.12-3.36-4.12-4.84-6.16-1.53-2.12-3.02-4.43-4.46-6.66-3.03-4.69-6.15-9.53-10.12-13.42 1.55.41 2.95.96 4.26 1.68 1.81 1 3.37 2.41 5.21 4.16 1.26 1.19 2.49 2.41 3.73 3.63l1.48 1.46c3.13 3.07 6.81 6.55 10.9 9 2.17 1.3 4.34 2.24 6.46 2.81 2.18.58 4.4.84 6.55 1.09l.71.08c.8.09 1.59.21 2.39.33 1.67.24 3.39.5 5.1.53 2.12.03 4.35-.2 7.04-.74l.3-.06c1.16-.23 2.74-.53 3.4-2.06.78-1.8-.06-4.06-1.23-5.28-1.11-1.14-2.45-1.73-3.74-2.3-.34-.15-.68-.3-1.01-.46-.33-.16-.66-.32-.99-.48-.66-.33-1.34-.67-2.03-.96.53.05 1.06.09 1.59.14 1.65.14 3.35.29 5.02.53 1.52.22 3.04.47 4.55.73 1.09.18 2.18.37 3.27.54 6.02.93 11.84.96 17.31.08l.6-.09c1.82-.28 4.08-.63 5.59-1.99.52-.47.78-1.08.74-1.76-.03-.54-.25-1.1-.61-1.6 1.15.1 2.45.14 3.73-.01 2.83-.33 4.33-1.84 4.22-4.24-.12-2.6-2.52-4.42-4.54-5.18-1.15-.43-2.34-.56-3.49-.68l-.71-.08c-1.31-.15-2.61-.27-3.92-.39l-1.08-.1c-3.08-.28-6.72-.71-10.42-1.76-1.02-.29-2.04-.6-3.05-.91-1.79-.54-3.64-1.1-5.47-1.54-.28-.07-.57-.13-.88-.2-1.44-.32-3.16-.69-4.46-1.61.89.04 1.83.28 2.75.51l.62.16c1.51.37 3.01.51 4.46.65.42.04.84.08 1.27.13 4.21.46 8.31 1.55 12.48 2.72 3.32.93 6.56 1.75 9.73 1.62.87-.04 2.11-.22 2.75-1.41.81-1.49.25-3.63.07-4.26-.98-3.24-3.83-4.29-5.89-4.8-3.39-.83-6.84-1.44-10.18-2.02.74-.03 1.5-.2 2.12-.68.72-.55 1.45-1.68 1.14-3.03-.28-1.22-1.23-2.11-2.02-2.75-1.11-.89-2.29-1.54-3.31-2.06-5.93-3.02-12.21-4.54-18.33-5.92 4.46-1.09 8.46-3.62 11.01-7.04 1.96-2.63 3.14-5.73 4.28-8.72l.23-.6c1.42-3.71 2.66-7.45 3.68-11.11 1.96-7.01 3.33-14.45 4.18-22.74.11-1.1.2-2.21.27-3.32h-1.78c-.35 5.61-1.16 11.54-2.43 17.65-1.52 7.35-3.82 14.79-6.83 22.11-1.05 2.55-2.44 5.46-4.79 7.72-1.88 1.8-4.31 3.15-7.22 4-1.88.55-3.4.83-4.8.88-.35.01-.7 0-.96 0l-1.64-.36c-1.82-.4-3.65-.81-5.41-1.22-1.43-.53-2.86-1.14-4.24-1.74-1.16-.5-2.36-1.01-3.55-1.48-3.32-1.29-7.25-2.68-11.24-3.22-1.93-.26-3.81-.27-5.58-.04-.65.09-1.33.22-2.08.4h-.64c-.4 0-.81.02-1.21.03h-.15s-.12.09-.12.09c-.69.5-1.3.82-1.91 1l-.19.11c-2.84.89-6.05 1.88-9.35 1.89h-.05c-2.84 0-5.7-.64-8.47-1.26-1.04-.23-2.07-.46-3.1-.66-4.47-.86-8.2-1.17-11.77-.97-1.37.08-2.73.19-4.1.31-1.02.09-2.04.18-3.07.25-.67-.19-1.34-.39-2.01-.58-1.47-.43-2.77-.85-3.99-1.27-.68-.24-1.36-.49-2.03-.75-.07-.03-.15-.06-.23-.1-.34-.15-.77-.35-1.21-.25-.27.06-.49.26-.6.52-.04.01-.08.03-.12.04-.92.35-1.27 1.36-1.53 2.1l-.04.12c-.07.2-.05.41.04.61.1.2.29.36.5.43 3.65 1.12 7.41 1.1 10.29.95l.96.27c2.36.66 4.81 1.35 7.23 1.79 2.68.48 5.47.66 7.71.8.82.05 1.64.12 2.47.19 1.66.14 3.39.27 5.05.28 1.24 0 2.48-.16 3.68-.44l.43-.1c.89-.22 1.73-.42 2.59-.34 1.58.14 2.69 1.14 3.15 2.8-1.03 1.89-1.54 4.08-1.57 6.69 0 .68 0 1.36.02 2.04.02.92.04 1.87 0 2.8-.02.44-.04.88-.07 1.32-.05.89-.1 1.81-.1 2.73 0 2.42.26 5.44 2.17 7.35.16.16.38.24.63.23.24-.02.45-.13.59-.32.96-1.3.82-3.4.71-5.09v-.21c-.1-1.27-.24-2.56-.38-3.8-.12-1.05-.24-2.1-.32-3.15-.12-1.44.04-2.95.19-4.42.19-1.88.39-3.82.05-5.75.34-.53.73-1.03 1.16-1.5 2.45-2.66 5.84-4.21 10.04-4.63.83.01 1.67 0 2.51 0 3.41-.03 6.94-.05 10.29 1.37.9.38 1.8.84 2.68 1.29.83.42 1.68.86 2.55 1.23 1.73.75 3.53 1.16 5.26 1.56l3.33.76c1.42.45 2.71.74 3.92.9l6.43 1.47c6.32 1.43 12.86 2.92 18.96 6.15.82.43 3.3 1.75 3.6 3.03.07.29.01.55-.18.82-.59.83-1.87.71-2.98.6-1.29-.12-2.58-.4-4-.72-1.64-.37-3.28-.6-5.01-.72-.37-.02-.73-.04-1.1-.06-1.57-.08-3.19-.16-4.72-.66-.66-.22-1.36-.51-2.09-.81-2.24-.93-4.77-2-7.01-1.01-.39.17-.5.62-.44 1 .26 1.71 2.3 2.37 3.4 2.72l.2.07c2.18.71 4.43 1.12 6.73 1.5 1.56.26 3.13.48 4.69.69l1.05.15c1.61.23 3.25.55 4.84.87.79.16 1.57.31 2.36.46l2.08.38c2.98.55 6.07 1.12 9.09 1.79l.48.1c2.25.49 4.8 1.04 5.51 3.84.27 1.06.26 1.91-.04 2.41-.14.24-.36.4-.67.47-1.01.25-2.21.11-3.37-.03l-.41-.05c-2.77-.32-5.58-1.1-8.29-1.84-.7-.19-1.41-.39-2.11-.57-3.37-.89-6.93-1.48-10.91-1.81-1.15-.09-2.27-.35-3.46-.63l-.95-.22c-1.41-.31-2.9-.57-4.29-.09-.23.08-.41.27-.49.51-.08.26-.03.56.13.8 1.45 2.03 3.94 2.59 5.94 3.04l.68.16c1.9.45 3.82 1.09 5.68 1.7 1.23.41 2.5.83 3.77 1.2 2.76.8 5.8 1.35 9.54 1.72.85.08 1.7.15 2.56.21 2.23.17 4.54.34 6.75.88 1.13.28 3.02 1.33 3.67 2.81.33.74.29 1.48-.12 2.22-.46.83-1.4 1.04-2.32 1.18-.92.14-1.94.16-3.3.07-1.07-.07-2.21-.18-3.38-.34-1.6-.56-3.35-.67-4.71-.76-2.38-.45-4.8-.99-7.14-1.51-.95-.21-1.91-.42-2.85-.63-3.16-.68-6.41-1.76-9.21-2.72l-.77-.27c-2.08-.74-4.44-1.57-6.5-.83-.21.07-.37.22-.46.42-.1.22-.11.48 0 .74.5 1.34 1.61 2.25 3.39 2.77 1.13.33 2.26.48 3.36.63.4.05.79.1 1.18.17 1.64.25 3.33.76 4.96 1.25 2.23.67 4.54 1.36 6.85 1.46 1.02.04 2.04.05 3.06.05 1.17 0 2.38 0 3.57.08l1.11.05c1.24.23 2.49.44 3.73.63l.39.06c.51.19.94.42 1.34.7.45.32 1.03 1.03.84 1.53-.19.51-.99.79-1.52.98l-.11.04c-2.2.8-4.61 1.03-6.95 1.26-2.14.21-4.03.31-5.78.33-3.86.01-7.8-.64-11.61-1.29l-1.52-.25c-1.84-.3-4.26-.68-6.73-.9-.53-.05-1.06-.09-1.59-.13-1.68-.14-3.41-.28-5.11-.57-1.88-.33-3.53-1.2-5.29-2.13-1.54-.81-3.29-1.73-5.07-1.5-.38.05-.66.43-.63.83.28 3.09 2.67 3.8 4.6 4.38.32.1.64.19.93.29.63.22 2.12 1.2 3.24 2.44-.08 1.04.13 2.12.33 3.17.06.32.12.64.17.94.05.29.23.52.49.61.26.09.54.04.75-.14 1.32-1.15 1.28-2.88-.12-4.89.11-.41.3-.68.6-.85.6-.34 1.41-.1 2.26.21.93.33 1.87.79 2.68 1.18.49.24 1 .46 1.51.69 1.22.53 2.49 1.08 3.53 1.95.61.52 1.35 1.42 1.37 2.79.01.87-.34 1.39-1.12 1.7-1.59.62-3.4.83-5.43 1.02-2.17.2-4.45.12-6.78-.26-1.22-.2-2.46-.34-3.66-.49-3.3-.4-6.71-.81-9.94-2.23-5.67-2.49-10.5-7.27-15.18-11.89-1.67-1.66-3.41-3.37-5.15-4.95-2.99-2.71-6.29-4.4-10.1-5.16-.46-.09-.91-.17-1.37-.24-1.82-1.46-3.69-2.62-5.7-3.54-3.08-1.42-6.47-2.1-9.75-2.76l-.22-.04c-4.38-.88-8.22-1.22-11.73-1.02-.34.02-.69.03-1.05.05-2.47.1-5.27.22-7.3 2.05-.86.78-1.87 2.16-1.9 3.5-.02.69.23 1.3.71 1.78l.07.05c.56.72 1.83.53 2.61.42l.38-.04c.33-.03.97-.08 1.47-.21l.23.04h.06c1.32 0 2.67.11 3.98.22 1.03.09 2.1.18 3.16.21 2.56.08 5.17.25 7.69.42l.27.02c2.48.16 4.97.16 7.39.15 1.57 0 3.2 0 4.8.03 1.55.04 2.84.13 4.04.28 1.89 1.57 3.73 3.47 5.63 5.81 2.75 3.39 5.16 7.14 7.48 10.76.55.86 1.1 1.71 1.65 2.56 2.02 3.11 4.38 6.01 6.67 8.82 1.16 1.42 2.35 2.89 3.49 4.37 3.08 4.01 6.39 8.86 7.61 14.42.66 3.02.66 5.8 0 8.26-.59 2.21-1.83 4.35-3.7 6.38ZM97.02 94.21c-.5.21-.92.57-1.21 1.06-.41-.43-.86-.84-1.28-1.17-1.04-.81-2.15-1.15-3.22-1.48l-.36-.11c-1.16-.36-2.23-.78-2.67-1.84 1.25.15 2.56.89 3.84 1.6.4.23.8.45 1.18.64 1.25.64 2.5 1.04 3.72 1.3ZM107.92 64.73c.09.04.19.07.28.11-.74-.16-1.47-.34-2.2-.56-.63-.19-1.35-.41-2.06-.76 1.12.07 2.35.56 3.46 1.01l.52.21ZM15.06 44.92c.12.03.24.03.36-.01.01 0 .02 0 .04-.01.08.04.15.07.2.09.29.11.59.22.88.33.19.07.38.14.56.2-1.08-.11-2.14-.28-3.21-.53.13-.31.23-.41.3-.45.1.14.23.24.38.31.15.07.32.09.47.07ZM47.35 48.62c-.45.04-.89.05-1.33.05-1.74-.02-3.54-.18-5.27-.33-.88-.08-1.77-.15-2.65-.21-2.62-.18-5.4-.41-8.2-1.04-.32-.07-.65-.15-.99-.23 2.67-.21 5.38-.35 8-.1 3.11.3 6.22.96 9.24 1.61l1.21.26ZM56.26 66.26v-.14c.02-.24.03-.48.04-.72.03.26.06.52.09.77.14 1.24.29 2.53.37 3.79l.04.46c.06.7.12 1.56.07 2.31-.83-1.9-.69-4.59-.6-6.48ZM57.38 50.75c-.25-.49-.56-.94-.92-1.32.86-.08 1.71-.2 2.54-.37-.59.52-1.13 1.09-1.62 1.69ZM115.09 86.34c-.53-.14-1.07-.27-1.6-.39-.71-.15-1.43-.24-2.12-.32-.62-.08-1.27-.16-1.9-.28-1.02-.21-2.1-.51-2.78-1.19 1.04-.03 2.11.24 3.15.54.81.23 1.62.5 2.43.76.68.22 1.36.44 2.04.64.26.08.51.16.77.23ZM16.46 78.76c-.1.02-.18.03-.25.04l-.23.03c-.6.07-1.16.13-1.67-.02-.38-.59.17-1.46.54-1.94 1.67-2.12 4.37-2.25 6.98-2.36l.64-.03c3.49-.17 6.99.08 10.75.79 3.21.61 6.53 1.23 9.53 2.44 1.34.54 2.67 1.24 3.97 2.09-1.97-.1-3.94-.09-5.85-.06h-.51c-2.85.03-5.78-.14-8.6-.3-1.38-.08-2.75-.16-4.13-.22-2.1-.09-4.53-.2-6.92-.35-.78-.05-1.7-.09-2.66-.09-.44-.17-1.01-.1-1.61 0Z" />
  <path d="M145.11 0s0 .08 0 .13c.08.77.31 1.48.68 2.1-.06.04-.12.08-.18.12-2.15 1.43-3.47 4-4.53 6.3-1.36 2.94-2.17 5.4-2.54 7.73-.21 1.36-.19 2.49.07 3.45-.73.84-.92 1.91-1.12 2.95-.11.61-.22 1.19-.42 1.68-.62 1.51-1.77 2.61-2.97 3.78-.23.22-.45.44-.68.66-1.62 1.61-3.01 3.14-4.25 4.67-.83 1.03-1.56 2.14-2.26 3.2-.25.39-.51.77-.77 1.16-.29.42-.59.84-.89 1.26-.96 1.33-1.96 2.71-2.53 4.31-.41 1.13-.36 2.03.14 2.67.57.73 1.59.99 3.04.78 1.72-.25 3.03-1.5 4.19-2.61l.17-.16c.65-.62 1.37-1.22 2.06-1.79.93-.77 1.88-1.57 2.74-2.47.36-.38.84-1.13 1.44-2.08 1.26-1.97 3.36-5.27 4.83-5.34.2-.02.52.03.89.5.54.69.29 1.6-.09 2.71-.5 1.45-1.19 2.82-1.85 4.1-.21.4-.43.8-.64 1.2-.36.65-.71 1.31-1.04 1.98-.78 1.6-1.45 3.28-2.1 4.9-.2.5-.4 1-.6 1.5-.35.85-.74 1.7-1.13 2.56-.85 1.85-1.72 3.77-2.2 5.77-.28 1.17-.46 2.8.26 3.94.39.62 1 1.03 1.8 1.2.96.21 1.66.19 2.09-.04.34-.19.55-.58.74-.92.06-.11.11-.21.16-.28.2-.3.42-.59.63-.88l.29-.4c.85-1.19 1.5-2.47 2.14-3.71.38-.75.78-1.53 1.21-2.27.68-1.17 1.44-2.32 2.16-3.44.57-.88 1.15-1.77 1.7-2.67.85-1.39 1.51-2.79 2.17-4.23.08-.17.16-.37.25-.58.38-.9.9-2.13 1.6-2.46.06-.03.1-.04.13-.05.04.16.04.58-.24 1.68l-.06.25c-.4 1.6-.82 3.25-1.1 4.92-.23 1.38-.43 2.76-.62 4.15-.14 1.02-.28 2.04-.44 3.06-.17 1.11-.42 2.24-.65 3.33-.3 1.37-.6 2.78-.78 4.21-.19 1.57-.65 5.24 1.69 6.72.82.52 1.64.63 2.45.34 2.51-.88 4.09-5.5 4.76-7.47l.08-.24c1.64-4.75 2.66-9.6 3.44-13.72.21-1.09.23-2.13.23-3v-.2c0-.68 0-1.36.04-2.04v-.2c.04-.54.07-1.2.33-1.59.21-.32.35-.38.38-.38.15.01.6.67.87 1.83.39 1.68.4 3.38.35 4.98-.07 2.32-.13 4.51.36 6.79.18.86.4 1.71.62 2.57.29 1.15.6 2.33.82 3.58.25 1.45.54 3.08 1.69 4.25 1.02 1.03 2.83 1.79 4.16 1.15 1.23-.59 1.59-2.07 1.85-3.15l.05-.2c.48-1.97.69-4.13.64-6.6-.06-2.87-.27-5.78-.48-8.59-.12-1.74-.25-3.47-.34-5.21-.23-4.2-.33-9.05 1.38-13.39.88-2.23 2.23-4.26 3.82-5.71.88-.8 2.01-1.24 3.27-1.26 2.32-.05 4.69.93 6.95 1.87.42.18.84.35 1.26.52 2.48.99 5.58 2.23 8.66 1.86 1.61-.2 4.93-1.62 5.54-3.65.2-.67.19-1.7-1.03-2.74-1.04-.89-2.37-1.22-3.65-1.55-.31-.08-.62-.16-.92-.24-1.99-.58-3.87-1.49-5.61-2.38-2.12-1.1-3.91-2.27-5.46-3.58-.84-.71-1.67-1.44-2.5-2.16-.94-.82-1.88-1.65-2.84-2.45-2.03-1.69-3.77-3.03-5.48-4.23C171.94 1.99 170.95 1.04 170.25 0h-1.87c1.23 2.24 3.3 3.69 5.32 5.09.61.42 1.22.84 1.8 1.28 1.54 1.17 3.01 2.49 4.44 3.77 1.81 1.63 3.69 3.31 5.75 4.72 3.11 2.13 6.65 3.73 10.83 4.9.67.19 1.5.42 2.14.84.43.28.68.66.73 1.06.04.4-.13.81-.48 1.17-1.03 1.04-2.73 1.71-4.45 1.75-.06 0-.12 0-.18 0-2.45 0-4.86-.96-7.19-1.88l-1.58-.62c-2.25-.89-4.81-1.9-7.35-1.74-2.82.17-5.22 2.13-7.33 6-2.34 4.29-2.54 9.28-2.49 12.66.06 4.05.36 8.16.66 12.14l.11 1.45c.15 2.07.28 4.27.1 6.44-.09 1.04-.26 2.1-.51 3.13l-.06.24c-.15.63-.31 1.28-.64 1.75-.21.3-.48.44-.86.42-.83-.04-1.9-.84-2.3-1.53-.53-.92-.71-2.08-.88-3.19-.08-.49-.15-.98-.25-1.45-.15-.69-.33-1.38-.5-2.06-.39-1.54-.8-3.13-.89-4.72-.06-1.09-.03-2.21 0-3.29.04-1.11.08-2.26 0-3.4-.12-1.9-.41-4.54-1.68-5.52-.42-.32-.92-.43-1.46-.33-1.1.22-1.83 1.19-2.05 2.73-.15 1.03-.15 2.07-.14 3.08 0 .5 0 1-.01 1.5-.04 1.24-.34 2.54-.63 3.79-.09.37-.17.74-.25 1.11-.6 2.78-1.2 5.19-1.84 7.37-.63 2.16-1.41 4.64-2.6 6.86-.48.9-1.5 2.76-2.63 2.48-1.98-.48-1.48-4.11-1.26-5.66.18-1.3.46-2.62.74-3.89.25-1.18.52-2.41.7-3.64.13-.88.25-1.76.38-2.64.22-1.62.45-3.29.75-4.92.17-.95.41-1.9.64-2.82.13-.51.26-1.03.38-1.55l.03-.15c.2-.87.51-2.18-.19-3.01-.28-.33-.66-.5-1.1-.51-.71.03-1.45.41-1.84.84-.79.86-1.3 2.01-1.75 3.03l-.23.52c-.72 1.61-1.44 2.97-2.26 4.29-.45.72-.91 1.43-1.37 2.14-.79 1.21-1.6 2.47-2.33 3.75-.41.71-.77 1.43-1.14 2.15-.63 1.23-1.22 2.4-2 3.51l-.28.39c-.22.3-.43.6-.64.91-.07.1-.13.2-.19.3-.18.31-.2.31-.32.32-.63.02-1.08-.08-1.37-.3-.46-.35-.6-1.09-.41-2.25.29-1.75 1.09-3.46 1.87-5.1.31-.66.62-1.31.89-1.96.33-.79.66-1.58.99-2.37 1.09-2.63 2.22-5.36 3.59-7.93.63-1.19 1.3-2.48 1.88-3.84.46-1.08 1.04-2.42 1.04-3.77 0-1.02-.53-2.01-1.4-2.57-.81-.53-1.77-.61-2.64-.23-1.89.83-3.2 2.86-4.25 4.49l-.23.36c-.18.27-.35.55-.52.83-.29.47-.58.95-.9 1.39-.75 1.03-1.82 1.88-2.85 2.71-.42.34-.84.68-1.24 1.02-.37.32-.73.67-1.09 1.03-.86.84-1.75 1.71-2.81 2.17-.51.22-1.53.38-1.97.15-.11-.05-.16-.12-.18-.23-.12-.59.38-1.47.71-2.05l.09-.15c.53-.93 1.14-1.81 1.83-2.79.42-.58.8-1.18 1.19-1.78.21-.32.41-.64.62-.96 1.06-1.6 2.38-3.22 4.16-5.11.61-.65 1.27-1.28 1.92-1.89.82-.78 1.67-1.58 2.43-2.44 1.2-1.36 1.95-2.95 2.28-4.86l.03-.2c.06-.35.12-.71.22-1.03.17.18.35.34.55.49 1.38 1.01 3.17 1.28 4.76 1.52.36.05.71.11 1.05.17.52.09 1.03.2 1.52.33.58.53 1.26 1.14 2.02 1.63.81.53 1.71.93 2.58 1.31.43.19.86.38 1.28.59l.42.21c.18.23.36.47.52.73.19.31.39.67.61 1.06 1.06 1.92 2.5 4.53 5.01 4.26.26-.03.49-.15.64-.34.15-.19.21-.43.17-.69-.43-3.2-3.33-5.12-5.84-6.43-1.39-1.6-3.36-2.91-5.56-3.69-.33-.12-.66-.22-1-.31l-.26-.26c-.26-.26-.52-.52-.79-.77-2.8-2.65-5.19-3.61-7.12-2.86 0 0 0 0 0 0-.21-2.31.76-4.9 1.46-6.79.68-1.81 1.77-4.46 3.45-6.62.54-.7 1.19-1.25 1.92-1.65 1.32 1.06 3 1.46 4.22 1.61.39.05.8.07 1.22.08.62.02 1.26.05 1.83.2.64 1.11 1.02 2.45 1.38 3.75l.65 2.33v.05c0 .49-.02.97 0 1.46.02.89.13 1.76.22 2.42.25 1.85.59 3.65 1.01 5.37l.04.16c.51 2.1 1.58 6.48 3.94 7.66.77.38 1.6.39 2.47.02.29-.13.5-.46.49-.79-.09-2.45-1.31-4.52-2.48-6.53-.28-.48-.56-.96-.83-1.44-1.4-2.56-2.28-5.49-3.05-8.27 0-1.19 0-2.27-.18-3.37-.24-1.52-.71-2.69-1.38-3.48-.3-.34-.65-.61-1.09-.8-.46-.67-.99-1.2-1.61-1.64-1.78-1.23-4.27-1.58-6.44-.92-.11-.17-.2-.35-.28-.54-.13-.31-.19-.63-.23-.96h-1.81ZM145.08 21.95c-.65-.11-1.31-.23-1.94-.4-.97-.25-1.68-.61-2.17-1.11.39-.12.82-.14 1.23-.08 1.04.17 1.99.83 2.88 1.58ZM158.62 31.91c-.57-.42-1.07-1.12-1.5-1.85.68.59 1.17 1.2 1.5 1.85ZM151.67 3.27c.21.07.41.15.6.25-1.03-.1-2.07-.22-2.95-.55.78-.05 1.57.05 2.35.31ZM159.03 19.51c.04.09.08.18.13.27.4.85.89 1.68 1.37 2.49.94 1.58 1.91 3.22 2.17 5-.56-.08-1.13-.67-1.72-1.78-.86-1.62-1.37-3.47-1.79-5.24-.06-.24-.11-.49-.17-.73Z" />
</svg>
