<svg xmlns="http://www.w3.org/2000/svg" viewBox="0 0 239 71"><rect width="239" height="71" rx="9" ry="9"/><g transform="scale(.1)"><path fill="#a6a6a6" d="M2302 14c41 0 74 33 74 74v532c0 41-33 74-74 74H88c-41 0-74-33-74-74V89c-1-41 33-75 74-75h2215m-1-14H88C39 0-1 40-1 89v532c0 49 40 89 89 89h2215c49 0 89-40 89-89V89c0-49-40-89-89-89"/><g fill="#fff"><path stroke="#fff" stroke-width="2" d="M839 182c0 15-4 27-13 36-10 11-23 16-39 16s-28-5-39-16c-11-11-16-24-16-40s5-29 16-40c11-11 24-16 39-16c8 0 15 2 22 4c7 3 13 7 17 12l-9 9c-7-8-17-13-29-13-11 0-21 4-29 12s-12 18-12 31s4 23 12 31c8 8 18 12 29 12c12 0 22-4 30-12c5-5 8-12 9-21h-39v-13h52c1 3 1 5 1 8m80-45h-48v34h44v13h-44v34h48v13h-62v-106h62v13m57 92h-14v-93h-30v-13h73v13h-30v93m84 0v-106h14v106h-14m74 0h-14v-93h-30v-13h73v13h-30v93m169-13c-10 11-23 16-39 16s-28-5-39-16c-10-11-16-24-16-39s5-29 16-39c10-11 23-16 39-16s28 5 39 16c11 11 16 24 16 39s-5 29-16 39m-68-9c8 8 18 12 29 12s21-4 29-12c8-8 12-18 12-30s-4-23-12-30c-8-8-17-12-29-12s-21 4-29 12c-8 8-12 18-12 31s4 23 12 31m103 20v-106h17l52 83h1l-1-20v-62h14v106h-14l-54-87h-1l1 21v66h-14"/><path d="M1206 385c-42 0-76 32-76 75s34 75 76 75s76-32 76-75s-34-75-76-75m0 121c-23 0-42-19-42-46s20-46 43-46s43 19 43 46s-20 46-42 46m-167-121c-42 0-76 32-76 75s34 75 76 75s76-32 76-75s-34-75-76-75m0 121c-23 0-42-19-42-46s20-46 43-46s43 19 43 46s-20 46-42 46m-198-97v32h77c-2 18-8 31-17 40-11 11-28 23-59 23-47 0-84-38-84-85s37-85 84-85c25 0 44 10 58 23l23-23c-19-18-44-32-80-32-64 0-119 53-119 117s54 117 119 117c35 0 61-11 82-33c21-21 28-51 28-75c0-7-1-14-2-20h-108m801 25c-6-17-25-48-64-48s-71 31-71 75c0 42 32 75 75 75c35 0 55-21 63-33l-26-17c-9 13-20 21-37 21s-29-8-36-23l101-42-3-9m-105 26c-1-29 23-44 39-44c13 0 24 7 28 16l-67 28m-82 74h33v-221h-33v222m-54-131h-1c-7-9-22-17-40-17-38 0-72 33-72 76s35 75 72 75c18 0 32-8 40-17h1v11c0 29-15 44-40 44-20 0-33-15-38-27l-29 12c8 20 30 45 67 45c39 0 72-23 72-78v-135h-31v12m-39 103c-23 0-42-19-42-45s19-46 42-46s40 19 40 46s-18 45-40 45m432-196h-79v222h33v-84h46c37 0 73-26 73-69s-36-69-73-69m0 107h-47v-76h47c25 0 39 21 39 38s-14 38-39 38m205-32c-24 0-49 11-59 34l29 12c6-12 18-16 30-16c17 0 35 10 35 29v2c-6-3-19-9-34-9-32 0-64 17-64 50c0 30 26 49 55 49c22 0 35-10 42-22h1v17h32v-85c0-39-29-61-67-61m-4 121c-11 0-26-5-26-19c0-17 19-24 35-24c15 0 21 3 30 7-3 21-20 35-39 35m187-115l-38 96h-1l-39-96h-36l59 134-34 75h35l91-209h-37m-297 142h33v-221h-33v222"/></g><path fill="#ea4335" d="M366 344l-189 200c6 22 26 38 49 38c9 0 18-3 26-7h1l212-122-99-108"/><path fill="#fbbc04" d="M557 310l-92-53-103 92l104 104l91-53c16-9 27-25 27-45s-11-36-26-45"/><path fill="#4285f4" d="M177 164c-1 4-2 9-2 13v354c0 5 1 9 2 13l195-195-195-185"/><path fill="#34a853" d="M367 354l98-98-212-123c-8-5-17-7-26-7-24 0-43 16-49 38l190 190"/></g></svg>