<?xml version="1.0" encoding="utf-8"?>
<svg version="1.1" xmlns="http://www.w3.org/2000/svg" xmlns:xlink="http://www.w3.org/1999/xlink" viewBox="0 0 8041 5967" style="fill:#046B9A;stroke:#046B9A;stroke-width:2.8;stroke-miterlimit:10;">
  <path
    d="M7458 1528h-6h-1l-1 1c-3 2-7 4-11 4h-2l-2 1c0 1-1 2 0 4c-6 2-11 4-14 5c-7 3-14 6-21 9c-16 7-32 15-48 23c-32 16-63 33-95 50c-61 33-123 66-180 104c-53 35-102 75-151 114c-48 39-98 75-143 117c-22 20-42 42-59 66c-15 21-30 43-51 60c-35 27-77 31-116 7c-8-48-31-91-68-131c-23-26-49-50-71-76c-19-22-36-45-56-66c-36-38-82-78-139-77c-4 0-8 5-8 8c2 34 37 65 62 88c37 34 77 65 114 98c55 49 85 123 147 166c2 16 3 33 1 49c-7 95-55 179-120 248c-80 70-153 151-257 193c-43 17-89 30-132 47c-46 18-88 44-129 69c-88 53-176 106-263 158c-144 87-291 178-457 230c-29 9-131 43-134-12c-2-30 29-53 51-70c27-21 56-38 85-56c35-21 69-45 100-71c38-31 75-64 119-87c63-32 154-52 186-116c2-3-1-8-4-10c-26-20-73 6-94 17c-50 25-97 56-143 87c-40 27-78 54-117 82c-49 35-101 66-151 99c-78 51-156 103-236 151c-49 30-115 76-179 38c-30-18-52-44-32-73c18-25 48-46 73-65c70-52 150-92 227-136c80-45 153-96 224-151c29-23 62-41 94-61c29-18 58-37 75-65c3-4 0-10-6-10c-58-8-115 32-159 58c-69 41-144 73-215 111c-71 38-135 82-197 130c-61 47-120 99-187 138c-44 26-142 45-155-26c-5-26 12-48 28-67c18-21 39-40 61-58c22-18 45-35 68-52c36-17 68-43 97-66c70-46 143-89 214-132c66-41 138-76 209-111c51-24 115-50 143-98c3-4 1-9-4-11c-32-14-65-2-92 12c-33 18-62 41-93 62c-80 56-180 90-254 153c-42 35-81 73-123 108c-7 6-15 12-22 18c-26 17-52 34-77 52c-3 2-6 4-9 6c-13 6-25 10-39 13c-16 3-43 2-50-16c-6-17 8-39 16-53c29-50 70-95 110-138c32-35 66-69 102-102c80-73 173-133 264-195c46-31 91-63 135-97c44-34 87-69 133-101c40-27 84-41 131-56c40-13 82-26 108-56c2-2 1-6-1-8c-53-46-110-3-157 19c-19 9-65 18-106 16c-17-24-47-41-70-58c-5-3-9 0-10 4c-7 42 29 59 70 64c7 11 9 23 4 37c-8 21-31 32-51 42c-22 10-44 18-67 26c-43 15-87 37-133 43c-28 3-55-4-75-24c-18-19-16-39-5-58c22-39 55-76 86-109c39-41 82-78 130-111c94-64 180-141 291-184c192-75 412-58 621-73c95-7 178-36 254-84c78-50 144-112 210-174c77-71 160-136 241-203c44-37 87-73 132-109c1-1 2-1 3-2c1 0 2 0 2 0c7 4 15 8 23 12c21 11 44 21 68 19c51-3 98-60 95-106c-3-37-40-62-79-53c-6 1-11 3-16 6c0 1 0 1 0 2c-11 7-21 20-26 27c-19 25-42 48-65 70c-7-4-14-7-21-11c-27-12-57-21-87-28c-66-15-135-20-203-18c-140 2-274 35-406 78c-135 44-267 97-406 130c-136 32-278 43-417 39c-141-5-282-27-415-73c-158-55-312-137-399-270c-5-43-3-87-5-129c-6-118-13-236-19-354c-3-52-3-106-10-157c-2-16-5-32-8-48c3-10-6-27-10-33c-6-8-13-13-22-18c-1-1-3-2-5-3c-11-3-25-6-33 2c-12 3-23 11-30 20c-14 17-15 39-13 59c3 26 11 51 19 76c9 28 13 56 17 85c12 82 21 164 27 246c4 60 10 119 31 177c12 32 27 63 46 92c4 27 11 54 23 80c36 76 119 114 187 162c90 63 168 143 261 202c84 54 177 90 274 115c20 5 41 11 59 22c29 18 33 48 8 71c-31 29-80 44-123 45c-76 1-150-30-219-55c-62-23-131-50-199-47c-84 5-140 73-178 137c-53 90-64 195-62 296c2 108 11 216 20 324c4 52 7 104 3 156c-2 26-7 51-13 77c-5 17-9 37-20 52c-27 36-86 0-103-27c-21-34-22-77-30-114c-13-54-33-108-36-164c-3-53 4-106 1-159c-2-32-9-139-65-128c-28 5-39 32-42 55c-6 36-3 72-4 108c-2 40-14 80-23 119c-14 59-29 118-48 177c-18 57-38 114-68 166c-15 25-43 74-82 65c-61-14-48-107-42-148c9-61 27-119 37-180c10-60 17-121 29-181c7-35 18-70 26-105c5-18 14-49-1-65c-15-16-43-5-56 8c-22 22-35 54-49 81c-17 36-36 70-59 104c-31 47-65 92-95 140c-28 45-49 93-81 136c-8 10-16 21-23 31c-7 10-10 20-23 20c-15 0-31-1-43-10c-21-15-19-44-15-65c11-60 47-116 72-171c38-83 72-167 118-247c17-30 34-60 48-91c12-26 26-56 26-85c0-41-44-73-86-56c-49 20-82 72-109 111c-12 18-24 37-37 54c-28 36-71 62-107 91c-33 26-63 62-104 78c-17 7-67 16-73-10c-4-20 12-44 22-61c14-23 31-46 48-68c16-21 31-43 46-65c32-44 69-85 108-123c36-35 77-67 112-103c30-32 48-69 56-110c3-17 6-35 17-49c6 9 14 17 24 24c40 27 96 30 144 38c14 2 29 5 43 9c17 14 34 28 53 40c30 18 66 30 98 45c4 2 9 4 13 6c6 6 11 13 16 21c29 42 65 129 132 122c7-1 11-5 10-11c-10-72-82-115-145-145c-36-40-87-69-139-86c-9-3-19-5-28-8c-10-9-20-18-29-26c-45-40-121-95-183-59c-2-5-3-11-3-17c-6-56 17-116 38-167c23-56 51-114 90-161c17-20 38-36 61-46c28 24 68 36 108 41c27 3 59 0 85 8c19 29 30 65 40 99c5 18 11 37 16 55c0 12-1 25 0 37c1 19 3 38 5 56c6 43 15 85 26 127c14 54 54 217 148 179c3-1 5-5 5-8c-3-69-49-126-84-185c-37-63-59-132-80-201c0-27 0-54-5-80c-4-26-14-57-33-77c-8-8-17-14-27-17c-11-15-24-28-40-39c-46-29-110-36-163-18c-5-6-10-14-14-22c-14-32-7-67-4-100c3-36 1-73 1-109c0-78 2-157-10-235c-13-81-56-152-90-227c-13-28-23-58-30-88c-1-1-2-3-2-5c-3-12-3-41-11-57c0-1 0-2 0-3c-2-8-10-17-18-18c-2 0-3 0-5 0c-4-1-9-1-13-1c-3 0-5 2-6 4c-4 0-7 1-9 3c-73 25-118 93-148 158c-46 103-65 215-79 325c-13 104-19 208-25 312c-9 146-32 292-64 436c-41 181-100 359-176 530c-31 69-67 136-126 188c-53 48-120 79-191 98c-41 11-84 20-127 21c-9 0-19 0-28 0c-61-13-122-25-183-38c-68-23-133-53-200-77c-91-33-188-64-286-76c-47-6-94-7-140-1c-18 2-36 5-53 10c-6 0-12 0-18 0c-10 0-21 0-31 1c-16 11-34 20-53 26c-1 1-2 1-2 2c-81 23-162 46-247 46c-102 0-202-28-301-46c-99-18-198-28-299-23c-62 3-124 10-186 14c-18-5-36-10-54-15c-34-9-69-20-103-31c-17-6-35-12-53-18c-9-3-20-10-30-8c-5 1-8 6-8 11c-3 0-6 0-9 1c-19 7-27 30-33 46c-2 4 2 8 6 9c86 25 173 26 262 22c70 18 141 37 211 49c66 11 131 15 197 19c64 4 128 12 192 11c31 0 62-4 92-10c27-6 54-13 82-11c46 4 81 32 94 80c-28 46-40 98-41 158c-1 38 2 77 1 116c-2 32-4 64-4 96c0 58 7 126 52 167c3 3 10 2 12-1c23-29 18-81 15-119c-4-55-13-111-18-166c-7-81 23-165 5-246c10-15 21-29 34-42c72-73 169-105 268-114c111 2 224-10 334 34c45 18 89 42 134 60c48 20 98 29 148 40c24 5 48 10 72 15c33 10 66 17 100 21c47 10 95 20 142 30c171 36 348 71 512 152c28 14 131 63 94 110c-20 26-59 22-88 19c-35-3-70-10-104-17c-42-9-84-14-127-17c-51-3-103-3-153-18c-70-21-155-73-225-44c-4 1-5 7-4 11c6 36 60 50 84 57c56 17 114 26 171 35c49 8 98 14 148 20c62 8 124 21 186 32c96 16 192 32 288 52c59 12 142 24 164 103c10 37 8 75-27 83c-32 7-69 2-102-2c-90-10-180-36-269-58c-93-23-185-36-278-43c-39-3-76-12-115-20c-34-7-70-13-103-3c-5 2-7 8-3 13c39 50 111 60 163 72c82 18 162 48 243 69c81 22 161 33 243 41c79 7 162 8 241 26c52 12 140 69 100 138c-15 25-44 31-69 34c-29 4-58 4-88 2c-30-2-59-5-89-8c-39-13-82-16-120-18c-86-15-172-34-257-51c-80-16-160-40-238-65c-56-18-123-45-179-26c-5 2-7 7-4 12c14 35 48 51 79 59c38 11 77 13 115 19c101 14 201 60 302 64c57 2 114 0 171 3c10 0 20 1 30 1c32 5 64 10 95 15c4 0 7 1 11 2c14 5 26 11 39 19c14 9 34 31 26 51c-7 18-34 26-49 31c-58 20-121 25-182 31c-50 5-99 8-150 8c-113 1-226-20-340-37c-57-9-115-17-172-21c-58-5-115-8-173-17c-50-8-93-29-140-52c-39-19-81-40-123-35c-3 0-5 4-5 7c7 77 81 85 134 101c21 7 63 34 93 66c-4 32 7 69 12 100c1 6 7 7 11 4c35-29 19-70-8-105c3-14 10-26 23-33c21-11 47-3 69 4c24 8 47 18 70 29c43 20 93 34 132 64c23 18 39 44 40 76c0 29-15 44-37 52c-44 16-96 21-143 25c-59 5-118 3-178-6c-118-17-237-19-353-66c-200-82-356-261-526-404c-78-65-161-103-253-120c-13-2-25-4-38-6c-44-33-93-62-146-85c-80-34-168-50-253-66c-98-18-198-29-298-24c-70 4-151 0-207 47c-32 26-64 77-30 109h1c9 16 49 9 63 7c4 0 31-2 44-6c2 0 3 1 4 2h1c62 0 124 9 185 10c68 2 136 6 205 11c105 6 208 2 313 4c36 1 72 3 109 7c55 42 105 91 149 143c88 100 160 211 236 319c78 111 174 209 261 314c86 104 167 218 198 349c15 66 19 137 0 203c-17 60-53 112-98 157c-51 51-110 94-160 147c-45 48-85 101-116 158c-34 62-59 128-76 196c-20 79-30 161-53 240c-13 43-31 85-51 126c-26 12-53 25-79 38c-23 11-45 23-67 36c-17 7-34 14-51 21c-1 0-2 1-2 2c-17 11-35 29-22 49c12 19 41 25 63 26c68 3 104-46 134-96c13-22 26-45 38-68c99-46 199-91 289-151c38-25 72-53 105-84c36-33 75-65 111-98c33-30 66-62 91-99c26-38 40-81 49-125c9-46 13-94 24-140c11-45 25-90 41-133c10-27 21-55 33-81c4 66 30 128 79 178c39 39 88 72 135 103c48 32 98 61 149 87c12 6 24 12 37 18c-43 80-69 170-86 254c-8 42-15 84-17 127c-3 47-2 95-19 140c-8 22-22 41-40 54c-8 4-16 8-23 12c-6 3-11 6-17 9c-31 11-63 17-94 27c-93 31-156 93-216 160c-13 9-25 19-37 28c-69 53-139 107-203 166c-14 13-29 27-45 42c-19 7-39 11-60 14c-29 3-61 3-88 15c-28 12-38 36-38 64c0 4 3 9 8 9c72 4 133-41 183-85c50-17 96-47 135-78c57-46 103-104 152-159c51-38 103-75 158-108c42-25 85-47 129-69c2-1 3-2 5-2c20-6 40-14 58-25c6-4 12-9 17-14c18-10 37-19 56-29c50-25 104-43 155-65c31-13 62-28 93-43c60-17 112-56 164-87c30-18 61-36 95-48c35-12 72-10 108-14c64-7 125-41 178-74c16-10 32-21 48-32c69 4 139 6 209 5c264-3 525-42 785-85c135-23 272-42 405-77c63-16 126-33 188-53c48-15 94-37 143-51c6-2 11-3 17-5c6 11 15 20 28 25c29 11 41-14 39-37c0-3-2-7-6-8c-15-2-30-2-46-1c-1-1-1-2-2-3c-4-6-6-13-8-20c-1-6-1-12-1-18c43 25 89 47 135 66c94 40 194 71 295 91c47 10 95 17 144 20c55 4 111 4 165 17c105 25 183 106 261 171c36 30 73 59 106 93c35 36 66 75 94 115c55 76 103 157 155 235c25 37 52 73 80 107c4 5 14-2 9-7c-115-140-190-305-313-440c-30-33-63-63-98-91c-39-31-75-64-113-96c-35-29-71-56-112-77c-42-22-90-32-137-37c-50-5-101-5-152-12c-49-6-98-16-146-28c-99-24-195-58-287-101c-28-13-57-27-84-43c1-1 1-2 2-4c10-22 30-40 48-57c44-40 83-80 116-129c35-53 65-109 101-162c35-53 66-108 98-164c7-11 13-23 20-35c23 54 50 109 93 152c117 118 303 163 469 180c46 5 91 8 137 6c50-1 103-5 152 7c25 6 45 17 61 33c5 7 10 14 15 21c4 5 7 10 11 15c14 27 23 57 36 85c40 84 111 138 187 189c11 11 22 22 33 32c62 60 125 121 192 176c15 12 32 25 48 39c8 17 15 36 19 55c6 27 8 56 23 80c15 25 42 32 71 30c5 0 9-4 9-8c-1-67-54-120-105-164c-22-45-57-86-94-119c-54-49-120-88-182-130c-45-44-88-90-128-138c-30-37-56-76-83-115c-1-1-2-3-3-4c-8-18-17-36-31-52c-5-6-11-11-17-15c-12-16-23-33-35-49c-30-45-54-93-81-139c-17-28-35-56-53-83c-23-54-69-100-106-146c-21-27-43-54-59-84c-15-32-16-66-23-99c-12-59-53-113-93-159c-21-25-44-49-69-72c-24-22-51-42-75-65c-23-23-43-48-66-72c-21-21-44-39-67-59c-37-32-53-69-69-112c-13-36-53-149-109-87c-62 68-56 163-18 239c41 84 109 153 149 238c29 62 43 155-34 191c-65 30-152 14-218-2c-76-19-146-48-212-87c-112-66-218-141-338-195c-58-26-118-48-181-60c-36-7-81-13-117-1c-30 10-40 42-23 66h-1c-36-14-79-20-112 6c-28 22-46 60-29 93c17 32 55 51 88 67c36 18 75 32 109 52c56 33 114 62 173 91c-6-2-12-4-18-6c-48-17-97-34-143-58c-45-23-86-52-130-76c-39-21-135-64-154 1c-15 48 24 101 65 127c17 11 35 21 53 30c-10 3-18 10-23 19c-10 21-1 46 7 66c27 64 75 119 130 164c78 63 161 120 242 178c43 31 85 63 121 101c34 36 66 74 101 109c29 28 61 53 96 74c-2 9-3 17-2 27c1 6 4 18 8 28c-22 4-44 11-64 18c-48 16-94 34-142 47c-62 17-125 36-188 51c-64 16-129 26-194 37c-262 45-525 92-792 107c-110 6-221 8-332 2c3-2 5-4 8-6c26-21 49-44 76-64c26-20 55-37 82-56c24-18 45-38 68-58c37-32 78-44 126-55c40-10 164-38 101-95c-69-63-171-64-256-34c-93 32-173 90-266 121c-68 22-170 29-203-46c-28-63-4-142 18-202c25-69 62-132 109-190c79-99 167-192 234-299c32-52 60-106 78-164c10-33 20-74 9-108c-9-29-43-40-69-26c18-33 27-72 2-104c-22-28-61-47-98-33c-35 14-59 48-78 76c-22 32-40 67-64 98c-40 49-75 101-110 153c3-5 5-11 8-16c22-43 44-88 72-128c28-40 62-76 91-115c25-34 79-120 10-143c-51-17-110 15-141 51c-13 15-25 31-36 47c-3-9-9-17-19-23c-21-11-49-5-71 2c-71 21-133 60-185 109c-73 67-140 140-208 211c-36 38-74 74-117 105c-41 29-84 56-124 86c-33 25-61 53-87 84c-9-3-19-4-29-4c-7 0-21 2-33 6c-6 8-12 15-19 22c-1 6-3 11-7 14c-10 16-18 34-24 51c-14 38-25 78-30 118c-1 7-2 15-2 22c-27 56-51 114-70 173c-14 43-25 87-32 132c-8 51-12 103-30 152c-34 95-127 162-203 230c-35 32-69 63-108 91c-41 29-85 55-130 79c-53 28-108 53-162 79c15-32 29-65 40-98c28-86 37-176 60-263c40-149 120-280 238-387c55-50 115-94 159-154c39-54 61-116 65-181c18-301-255-521-428-743c-131-168-238-369-408-508c54 9 108 25 159 51c50 26 93 63 136 101c45 40 89 81 134 122c87 80 177 157 278 213c52 29 107 52 163 66c61 15 123 21 184 28c64 7 127 19 191 21c61 1 119-6 178-17c30-6 70-10 86-44c17-37-1-86-29-113c-34-33-78-46-118-64c-41-18-82-40-125-49c-32-7-68-1-80 35c0 1-1 2-1 3c-15-17-32-31-45-41c-28-20-57-27-88-36c-34-10-74-24-82-68c51-3 105 33 152 55c57 27 113 35 172 41c66 6 131 10 197 18c67 9 134 21 201 30c148 21 296 24 441 2c49-7 112-13 152-47c30-25 11-64-19-84c-2-1-4-2-6-4c44 5 88 8 131 4c46-5 100-25 97-89c-3-58-65-98-108-113c-34-12-70-14-105-17c-43-5-85-8-128-11c-90-8-180-19-270-42c-73-19-145-42-219-58c-51-11-123-20-165-64c39-8 81 5 121 14c49 11 97 13 145 18c109 11 215 37 323 65c81 21 165 42 246 38c23-1 47-5 60-27c15-25 10-64 1-92c-23-69-86-93-142-106c-94-21-188-36-282-51c-71-11-143-26-214-35c-48-6-96-11-144-18c-56-8-112-16-168-32c-20-5-41-12-60-21c-7-4-18-9-24-16c44-13 98 10 142 26c52 19 100 32 154 36c57 4 113 5 170 16c42 9 84 18 125 22c29 3 65 5 89-12c17-12 31-35 25-60c-6-26-29-45-48-59c-26-20-54-34-83-48c-171-81-352-116-530-153c131-15 259-76 337-174c53-66 83-144 114-220c36-87 67-175 94-264c53-177 87-358 107-541c10-91 12-184 20-275c9-115 23-230 54-342c24-85 60-192 147-240c11-6 22-11 34-14c5 0 9 0 14 0c1 0 2 0 3 0c1 1 2 3 3 4c1 8 3 16 4 22c4 28 9 55 18 82c24 75 71 142 95 217c25 80 23 166 22 249c0 42 2 83 1 124c-1 32-9 64-5 97c3 22 11 41 23 56c-6 3-11 5-16 9c-53 33-86 93-112 145c-29 57-53 119-64 181c-5 28-6 58 4 84l-1 1c-31 28-25 76-41 111c-20 45-60 76-97 110c-38 35-75 72-108 111c-29 33-52 68-77 103c-31 42-68 82-86 130c-6 16-11 37 2 52c15 18 45 17 66 14c42-6 76-37 105-63c40-35 85-64 123-101c35-34 140-240 204-164c19 22 9 51 0 76c-13 35-30 67-48 100c-14 25-30 50-43 76c-26 49-47 101-69 152c-28 65-67 129-85 197c-11 41-13 97 43 108c12 2 34 6 45 0c8-4 14-18 19-25c8-10 16-21 24-31c34-45 56-95 86-142c31-50 67-97 99-146c21-32 38-65 55-100c12-23 27-67 54-78c35-15 18 41 14 55c-11 40-22 79-29 120c-11 57-17 115-27 172c-10 60-29 119-37 180c-6 47-13 119 38 149c90 53 150-119 169-170c39-106 66-216 88-326c5-23 6-46 6-69c0-18 0-36 1-54c1-15 1-35 11-49c29-41 50 16 55 39c10 40 11 81 10 122c-2 54-3 106 9 159c11 49 27 96 37 146c6 34 13 71 40 97c21 20 62 38 92 25c28-12 35-47 42-72c13-51 17-102 16-154c-3-110-15-220-21-329c-6-109-7-222 36-325c22-52 57-103 102-141c26-22 58-33 93-33c75-1 148 32 216 58c67 25 142 52 216 44c58-6 188-69 109-132c-31-24-75-30-113-41c-51-14-100-35-146-58c-51-24-99-53-143-87c-46-36-91-74-137-110c-45-35-92-69-140-100c-35-23-68-49-90-84c-14-21-22-43-28-66c3 3 5 6 7 10c68 83 164 143 265 187c269 119 577 144 869 96c156-26 303-83 451-133c150-51 302-91 463-91c77 0 155 8 227 32c17 5 32 13 48 21c-29 23-58 45-86 69c-50 43-101 84-152 125c-78 63-149 133-225 199c-73 64-155 125-254 155c-51 15-105 19-159 21c-57 3-113 4-170 6c-111 4-222 11-328 38c-55 15-108 35-156 62c-53 30-100 66-148 101c-50 37-102 70-148 110c-44 38-81 81-116 127c-18 23-44 52-34 84c10 35 53 56 90 56c44 0 84-21 123-35c40-15 82-27 119-48c27-16 49-43 35-75c0-1-1-2-1-2c21 1 42 0 57-2c32-5 57-19 84-33c30-16 67-32 99-8c-34 35-94 46-142 61c-57 19-102 49-147 84c-50 38-99 78-151 115c-53 37-108 73-161 110c-118 82-225 176-314 283c-31 37-72 81-80 129c-6 36 32 49 65 43c2 0 4-1 6-1c-34 25-68 52-95 82c-29 33-56 81-15 121c38 37 106 23 146 5c31-14 58-37 85-56c33-25 66-50 98-75c69-53 140-104 218-146c63-34 129-66 191-103c43-25 99-66 157-64c-23 30-61 49-94 69c-41 24-77 53-115 82c-84 63-175 114-269 165c-70 38-142 79-198 134c-15 15-30 34-26 57c5 26 32 48 56 62c58 31 118 6 166-21c80-46 156-97 232-148c58-38 117-75 174-115c38-27 75-54 114-81c45-31 90-62 139-87c18-10 36-19 56-25c7-2 18-6 27-4c-23 37-76 57-117 74c-49 21-91 44-132 76c-43 34-84 70-131 99c-35 21-70 42-103 66c-22 17-49 38-56 65c-5 19-1 43 19 56c20 13 48 11 70 8c30-4 60-12 88-22c178-59 334-159 490-253c97-58 193-119 293-174c43-24 92-38 140-54c49-17 95-37 136-66c67-46 127-102 186-158c13-20 31-37 43-58c8-13 14-27 23-38c0-1 1-3 1-4c8-14 14-30 19-42c7-16 18-37 16-55c7-28 10-58 9-87c0-2 0-4-1-6c40 20 81 14 115-7c26-16 44-40 61-63c20-27 41-52 67-75c49-43 102-82 153-123c53-43 107-85 166-121c58-35 119-68 180-100c30-16 61-32 92-46c16-8 32-15 48-22c8-4 20-7 26-14c5-6-1-15-9-16L7458 1528z M6461 1990c-21-28-43-53-70-77c-32-28-66-54-97-83c-19-17-50-43-57-68c59 5 107 64 140 104c36 43 77 82 112 125c21 26 35 54 43 83C6504 2050 6482 2019 6461 1990L6461 1990z M4787 2647c70-59 161-96 240-145c29-18 54-39 82-57c24-16 62-37 95-27c-20 27-52 46-83 62c-34 18-68 34-102 52c-42 22-84 43-125 66c-41 23-80 49-120 74c-20 12-39 24-59 37C4740 2689 4763 2667 4787 2647L4787 2647z M5128 2005c16 11 36 25 49 40C5150 2041 5128 2029 5128 2005z M6877 1028c21-19 39-40 55-62c8-3 17-4 26-3c19 4 32 19 33 37c2 27-20 55-41 72c-24 18-51 15-77 4c-10-5-20-10-29-15C6856 1050 6866 1039 6877 1028L6877 1028z M4422 786c-17-57-19-114-24-173c-6-71-14-143-25-213c-4-27-7-54-15-80c-7-23-16-46-21-70c-5-22-8-50 10-68c6-6 12-10 17-11h1c3 1 6 0 9 0h1c4 0 7 1 10 2c7 4 14 10 21 18c4 5 7 10 10 16c2 12 4 23 6 34c9 54 8 109 11 164c6 116 13 231 19 347c2 36 1 74 3 112C4442 839 4431 813 4422 786L4422 786z M4250 1794c-48-5-77-70-99-105C4196 1714 4238 1746 4250 1794z M4069 1630c-15-6-31-13-45-21c-9-5-18-10-26-16C4023 1603 4047 1615 4069 1630z M3808 1485c41 6 76 37 106 62c2 2 5 4 7 6c-31-5-63-9-94-16c-31-7-58-20-72-43C3770 1486 3790 1483 3808 1485z M4253 1478c32 63 88 122 94 195c-33 9-56-24-70-48c-23-40-36-84-47-128c-10-40-18-79-24-120c-1-7-2-13-2-20C4218 1399 4234 1439 4253 1478z M4174 1196c-3-8-5-16-8-24C4170 1180 4172 1188 4174 1196z M4054 1078c23 7 41 19 55 33c-51-6-115-5-156-35C3984 1067 4019 1067 4054 1078L4054 1078z M639 2112c-50-1-98-8-147-19c4-11 10-26 20-30c4-2 8-1 13 0c3 7 10 10 15 8c4 2 7 0 8-2c4 2 8 4 11 5c7 3 15 5 23 8c18 6 35 11 53 17c16 5 32 10 49 14C668 2113 654 2113 639 2112L639 2112z M1439 2173c-34 8-69 12-104 12c-68-1-136-9-204-13c-71-5-142-10-213-25c-33-7-67-15-100-23c95-7 190-16 284-8c102 9 202 32 303 51c12 2 24 4 36 6C1440 2173 1439 2173 1439 2173L1439 2173z M1619 2779c-42-48-36-133-33-190c3-62-1-125 3-187c2-37 12-71 26-101c4 41-2 83-6 123c-4 39-5 75-1 116c5 47 12 94 15 141C1625 2708 1631 2752 1619 2779L1619 2779z M1712 2166c-2 2-3 4-5 5c-3 3-6 5-10 4c-26 18-50 40-70 66c-1 2-3 4-4 5c-11-30-30-52-54-66c32-1 65-4 97-11c21-4 42-9 63-15C1723 2159 1717 2162 1712 2166L1712 2166z M3352 3135c-96-3-191-42-286-60c-34-7-69-8-103-14c-30-5-74-16-92-49c34-7 72 1 107 11c39 10 77 23 115 34c47 13 95 27 142 39c48 11 96 20 144 29c24 5 47 9 71 14C3418 3136 3385 3137 3352 3135L3352 3135z M1190 2926c-109 1-218-8-328-13c-59-2-118-5-178-8c-23-1-47-2-70-2c-11-6-35 0-44 1c-20 2-39 5-58-2c-19-19-3-47 12-64c50-59 131-58 205-62c94-4 186 3 278 19c83 15 170 30 248 59c51 19 99 45 143 76C1329 2924 1259 2926 1190 2926z M1684 5356c-29 52-65 111-138 102c-12-1-26-5-35-12c1-2 2-5 0-6c-2-4-4-6-2-10c2-5 5-9 9-12c1 0 1 0 2-1c10-6 19-11 29-17c26-9 50-21 74-32c24-12 51-23 75-37C1694 5339 1689 5347 1684 5356L1684 5356z M1906 5888c3-25 17-40 45-47c26-6 53-6 79-10c4-1 9-1 13-2C2002 5862 1957 5888 1906 5888L1906 5888z M2238 5697c-34 32-73 62-116 85c52-45 104-90 159-133c6-5 13-10 19-15C2279 5656 2259 5678 2238 5697L2238 5697z M2556 5438c-42 23-83 49-123 76c29-26 60-49 95-67c16-8 33-15 50-21C2571 5430 2563 5434 2556 5438L2556 5438z M5407 4707c0 0-1-5-1-4c1-1 1-2 1-3c6 0 13 0 19 0c1 15-7 23-23 14C5405 4712 5407 4709 5407 4707z M7306 5160c-27 0-44-13-53-38c-8-23-10-48-16-72c-1-4-2-8-3-12C7270 5073 7302 5113 7306 5160z M7076 4867c36 29 72 63 100 101c-52-45-104-90-154-137c-6-5-12-11-18-17C7029 4831 7053 4848 7076 4867z M6775 4590c28 38 59 74 91 108c-30-25-57-52-79-83c-10-14-19-29-26-45C6765 4577 6770 4584 6775 4590L6775 4590z M5771 4020c-4-18-6-38 4-52C5778 3986 5776 4003 5771 4020z M5367 4616c-9-5-18-11-26-17c-39-27-72-61-103-95c-32-36-64-72-100-104c-36-31-75-59-114-86c-43-30-84-61-125-91c-38-28-77-55-112-87c-45-41-94-100-107-159c-5-25 4-41 31-42c23 12 46 24 68 37c50 29 95 64 141 97c43 31 87 58 133 85c25 15 50 33 77 47c12 9 24 17 35 27c25 21 53 49 87 56c20 4 58-3 54-28c-4-26-41-40-65-43c-21-3-42-3-62-8c-15-3-29-10-43-18c-71-50-151-88-216-144c-58-50-112-118-198-125c-3 0-6 0-9 0c-2-1-3-2-5-3c-54-29-136-69-124-140c13-78 158 18 188 37c40 25 80 47 124 65c44 18 88 34 133 50c53 20 107 40 159 64c6 4 12 7 18 11c50 32 92 72 116 125c2 3 7 5 10 4c87-20-41-102-67-117c-24-15-50-28-75-40c-32-18-66-35-98-51c-61-30-122-58-182-90c-42-23-83-47-127-67c-36-16-76-32-106-58c-32-29-29-67 5-94c38-30 90-8 127 11c41 21 78 47 119 65c60 27 124 47 186 71c32 13 64 26 94 43c7 4 14 9 20 13c15 19 31 37 51 52c24 18 51 32 78 47c23 12 67 24 79 48c8 17 1 37 15 53c17 18 65 23 61-10c-4-32-34-59-62-74c-30-16-62-29-92-44c-31-16-58-37-85-58c-9-7-19-14-28-21c-24-32-44-64-81-87c-49-31-108-48-165-64c-50-14-98-31-148-46c-17-5-38-11-50-25c-15-16-5-37 15-43c39-12 88-3 127 6c61 14 119 37 175 64c173 84 319 216 509 269c105 29 305 59 322-86c10-80-38-153-82-218c-49-70-112-145-118-232c-3-44 11-91 39-127c8-10 19-21 32-14c12 6 19 21 25 32c16 31 26 64 39 96c18 44 49 73 86 104c47 39 80 88 127 127c49 41 95 83 135 133c19 24 36 48 51 75c17 30 25 60 30 93c4 29 10 56 25 82c15 27 34 52 54 76c36 45 82 90 104 142c2 4 5 5 8 5c13 20 26 41 38 61c24 40 44 83 68 123c12 20 26 40 40 59c-51-22-116-19-169-19c-174 2-362-25-513-111c-38-22-73-47-102-79c-25-27-42-58-58-90c-11-21-21-43-29-65c15-33 23-69 11-104c-2-6-9-9-15-6c-42 21-31 72-18 110c-12 25-27 48-40 70c-16 29-31 59-49 87c-18 29-38 57-56 86c-37 57-67 116-108 171c-19 25-41 48-65 69c-19 17-39 34-55 54c-7 9-13 18-17 27L5367 4616z M4756 3969c28 2 53 6 75 10c4 1 9 2 13 3h-1C4815 3977 4786 3973 4756 3969z M5181 4220c2 0 5 1 7 1c20 3 41 3 61 7c11 2 50 18 39 34c-5 8-26 7-33 5c-10-2-19-7-26-12C5211 4246 5197 4233 5181 4220L5181 4220z M5293 4050c12 9 24 18 35 28c5 5 11 11 15 17c5 10 2 14-7 17C5324 4089 5310 4068 5293 4050L5293 4050z M4862 3634c11 3 22 6 31 10c62 22 128 36 190 58c31 12 63 26 89 47c13 11 24 22 33 35c-33-18-67-33-103-47c-65-25-134-45-195-78C4892 3651 4877 3642 4862 3634L4862 3634z M5451 3952c15 9 26 20 34 34c5 8 19 31-1 27c-30-5-23-30-29-50C5456 3959 5454 3955 5451 3952L5451 3952z M3554 5000c-27 16-55 30-84 42c-34 14-66 19-103 21c-31 2-60 5-89 17c-30 12-58 28-85 45c-51 30-102 69-160 86c-4 1-6 4-6 7c-23 11-45 21-69 31c-45 20-92 35-137 54c-23 10-45 21-67 32c27-46 29-106 32-155c8-131 38-268 103-387c83 39 169 71 258 96c148 42 300 67 455 78C3587 4979 3571 4990 3554 5000L3554 5000z M2650 4109c32-34 71-62 110-88c41-27 82-54 119-85c36-31 69-65 101-100c35-37 71-73 107-110c33-33 65-67 101-97c47-39 114-80 179-88c27-3 43 6 43 32c-15 20-29 41-45 61c-35 44-76 83-115 124c-36 37-69 77-101 117c-18 22-39 44-56 68c-10 11-20 21-31 31c-24 21-57 46-67 77c-6 18-1 54 26 52c28-2 45-35 51-57c5-19 6-38 13-57c5-14 13-26 22-39c58-62 105-134 170-190c58-50 135-95 148-174c1-3 1-6 1-9c1-1 2-3 3-5c35-48 84-121 160-105c82 18-31 145-53 172c-29 35-57 71-79 110c-22 39-43 79-63 119c-25 48-50 97-80 143c-4 5-9 11-13 16c-38 44-84 80-142 99c-4 1-5 6-5 9c15 82 112-31 131-53c17-21 33-44 48-67c22-28 42-58 62-87c36-54 71-109 110-162c27-38 57-73 81-113c20-33 40-69 70-94c33-27 73-21 100 12c30 37 2 84-21 117c-25 36-56 69-79 106c-33 54-60 111-90 167c-16 29-32 58-53 84c-5 6-10 12-16 18c-22 12-42 26-60 43c-21 21-39 45-56 69c-14 21-31 61-58 70c-19 6-40-2-58 10c-21 15-30 58 7 57c34-1 66-27 84-52c19-27 35-55 54-82c20-28 44-51 69-75c9-8 17-16 25-25c35-21 72-37 99-69c37-43 59-97 80-148c19-45 40-89 60-134c7-16 15-35 30-45c19-12 40-2 45 17c10 37-3 82-16 117c-20 55-48 108-81 157c-103 155-255 280-325 452c-39 95-86 278 69 305c85 15 168-24 240-61c79-40 164-93 257-92c48 0 97 16 134 46c10 8 21 19 12 31c-8 11-24 16-36 21c-34 13-71 19-106 29c-48 13-82 40-117 72c-45 41-100 68-146 108c-25 22-51 44-77 64c-108-6-216-20-321-41c-141-29-278-72-407-132c13-21 26-42 42-61c26-33 56-64 92-89c31-21 65-35 100-47c24-8 47-16 72-22c35 16 72 27 110 17c7-2 10-8 7-14c-20-40-75-34-117-24c-25-13-50-29-72-42c-30-17-61-33-90-52c-30-19-58-39-88-58c-58-38-120-71-175-113c-26-20-49-42-70-65c-17-19-34-38-54-55c-9-7-18-13-28-18C2637 4125 2644 4118 2650 4109L2650 4109z M3401 3615c-11 25-30 48-51 67c-4 4-8 7-13 11C3360 3667 3381 3641 3401 3615L3401 3615z M3070 3988c-1 2-1 4-2 6c-5 18-6 38-13 56c-3 10-23 45-39 34c-8-6-6-24-4-32c3-9 9-16 15-24C3039 4014 3055 4001 3070 3988L3070 3988z M3244 4104c-10 11-21 21-32 31c-6 5-12 10-19 12c-11 4-15 0-17-7C3200 4131 3223 4119 3244 4104L3244 4104z M3722 3735c-4 10-8 20-13 28c-28 56-47 116-77 172c-15 28-32 57-56 79c-12 11-26 20-40 28c22-29 40-60 57-92c31-58 58-121 97-175C3701 3762 3711 3748 3722 3735z M3338 4259c-10 13-23 22-39 29c-9 4-35 16-29-2c8-27 33-19 56-23C3330 4262 3334 4260 3338 4259L3338 4259z M3241 4549c19-3 42-3 56 8C3278 4558 3259 4555 3241 4549z M2538 4187c7-14 16-30 29-39c2-1 3-3 4-5c3-1 7-1 10-2c7-1 13 0 20 1c-30 38-57 79-81 121c-7 12-14 24-21 36C2507 4259 2521 4221 2538 4187z M2493 4350c22-44 46-87 73-128c16-25 34-50 52-74c1 0 3 1 4 2c23 11 41 31 58 49c40 44 80 83 130 116c54 37 112 69 166 105c55 37 112 69 168 102c12 7 24 14 36 21c-60 17-121 39-170 75c-54 40-97 91-130 148c-67-32-132-69-194-111c-45-31-93-62-130-102c-33-35-53-78-61-124C2492 4404 2491 4377 2493 4350z M2637 3407c-4-21-10-47-9-70C2646 3362 2654 3387 2637 3407z" />
</svg>
