<?xml version="1.0" encoding="utf-8"?>
<!-- Generator: Adobe Illustrator 27.4.1, SVG Export Plug-In . SVG Version: 6.00 Build 0)  -->
<svg version="1.1" id="Layer_1" xmlns="http://www.w3.org/2000/svg" xmlns:xlink="http://www.w3.org/1999/xlink" x="0px" y="0px"
	 viewBox="0 0 804.1 596.7" style="enable-background:new 0 0 804.1 596.7;" xml:space="preserve">
<path style="fill:#046B9A;stroke:#046B9A;stroke-width:0.28;stroke-miterlimit:10;" d="M745.8,152.8c0,0-0.4,0-0.6,0c0,0,0,0-0.1,0
	c0,0-0.1,0-0.1,0.1c0,0,0,0,0,0c-0.3,0.2-0.7,0.4-1.1,0.4h-0.2c0,0-0.2,0.1-0.2,0.1c0,0.1-0.1,0.2,0,0.4c-0.6,0.2-1.1,0.4-1.4,0.5
	c-0.7,0.3-1.4,0.6-2.1,0.9c-1.6,0.7-3.2,1.5-4.8,2.3c-3.2,1.6-6.3,3.3-9.5,5c-6.1,3.3-12.3,6.6-18,10.4c-5.3,3.5-10.2,7.5-15.1,11.4
	c-4.8,3.9-9.8,7.5-14.3,11.7c-2.2,2-4.2,4.2-5.9,6.6c-1.5,2.1-3,4.3-5.1,6c-3.5,2.7-7.7,3.1-11.6,0.7c-0.8-4.8-3.1-9.1-6.8-13.1
	c-2.3-2.6-4.9-5-7.1-7.6c-1.9-2.2-3.6-4.5-5.6-6.6c-3.6-3.8-8.2-7.8-13.9-7.7c-0.4,0-0.8,0.5-0.8,0.8c0.2,3.4,3.7,6.5,6.2,8.8
	c3.7,3.4,7.7,6.5,11.4,9.8c5.5,4.9,8.5,12.3,14.7,16.6c0.2,1.6,0.3,3.3,0.1,4.9c-0.7,9.5-5.5,17.9-12,24.8c-8,7-15.3,15.1-25.7,19.3
	c-4.3,1.7-8.9,3-13.2,4.7c-4.6,1.8-8.8,4.4-12.9,6.9c-8.8,5.3-17.6,10.6-26.3,15.8c-14.4,8.7-29.1,17.8-45.7,23
	c-2.9,0.9-13.1,4.3-13.4-1.2c-0.2-3,2.9-5.3,5.1-7c2.7-2.1,5.6-3.8,8.5-5.6c3.5-2.1,6.9-4.5,10-7.1c3.8-3.1,7.5-6.4,11.9-8.7
	c6.3-3.2,15.4-5.2,18.6-11.6c0.2-0.3-0.1-0.8-0.4-1c-2.6-2-7.3,0.6-9.4,1.7c-5,2.5-9.7,5.6-14.3,8.7c-4,2.7-7.8,5.4-11.7,8.2
	c-4.9,3.5-10.1,6.6-15.1,9.9c-7.8,5.1-15.6,10.3-23.6,15.1c-4.9,3-11.5,7.6-17.9,3.8c-3-1.8-5.2-4.4-3.2-7.3
	c1.8-2.5,4.8-4.6,7.3-6.5c7-5.2,15-9.2,22.7-13.6c8-4.5,15.3-9.6,22.4-15.1c2.9-2.3,6.2-4.1,9.4-6.1c2.9-1.8,5.8-3.7,7.5-6.5
	c0.3-0.4,0-1-0.6-1c-5.8-0.8-11.5,3.2-15.9,5.8c-6.9,4.1-14.4,7.3-21.5,11.1c-7.1,3.8-13.5,8.2-19.7,13c-6.1,4.7-12,9.9-18.7,13.8
	c-4.4,2.6-14.2,4.5-15.5-2.6c-0.5-2.6,1.2-4.8,2.8-6.7c1.8-2.1,3.9-4,6.1-5.8c2.2-1.8,4.5-3.5,6.8-5.2c3.6-1.7,6.8-4.3,9.7-6.6
	c7-4.6,14.3-8.9,21.4-13.2c6.6-4.1,13.8-7.6,20.9-11.1c5.1-2.4,11.5-5,14.3-9.8c0.3-0.4,0.1-0.9-0.4-1.1c-3.2-1.4-6.5-0.2-9.2,1.2
	c-3.3,1.8-6.2,4.1-9.3,6.2c-8,5.6-18,9-25.4,15.3c-4.2,3.5-8.1,7.3-12.3,10.8c-0.7,0.6-1.5,1.2-2.2,1.8c-2.6,1.7-5.2,3.4-7.7,5.2
	c-0.3,0.2-0.6,0.4-0.9,0.6c-1.3,0.6-2.5,1-3.9,1.3c-1.6,0.3-4.3,0.2-5-1.6c-0.6-1.7,0.8-3.9,1.6-5.3c2.9-5,7-9.5,11-13.8
	c3.2-3.5,6.6-6.9,10.2-10.2c8-7.3,17.3-13.3,26.4-19.5c4.6-3.1,9.1-6.3,13.5-9.7c4.4-3.4,8.7-6.9,13.3-10.1c4-2.7,8.4-4.1,13.1-5.6
	c4-1.3,8.2-2.6,10.8-5.6c0.2-0.2,0.1-0.6-0.1-0.8c-5.3-4.6-11-0.3-15.7,1.9c-1.9,0.9-6.5,1.8-10.6,1.6c-1.7-2.4-4.7-4.1-7-5.8
	c-0.5-0.3-0.9,0-1,0.4c-0.7,4.2,2.9,5.9,7,6.4c0.7,1.1,0.9,2.3,0.4,3.7c-0.8,2.1-3.1,3.2-5.1,4.2c-2.2,1-4.4,1.8-6.7,2.6
	c-4.3,1.5-8.7,3.7-13.3,4.3c-2.8,0.3-5.5-0.4-7.5-2.4c-1.8-1.9-1.6-3.9-0.5-5.8c2.2-3.9,5.5-7.6,8.6-10.9c3.9-4.1,8.2-7.8,13-11.1
	c9.4-6.4,18-14.1,29.1-18.4c19.2-7.5,41.2-5.8,62.1-7.3c9.5-0.7,17.8-3.6,25.4-8.4c7.8-5,14.4-11.2,21-17.4
	c7.7-7.1,16-13.6,24.1-20.3c4.4-3.7,8.7-7.3,13.2-10.9c0.1-0.1,0.2-0.1,0.3-0.2c0.1,0,0.2,0,0.2,0c0.7,0.4,1.5,0.8,2.3,1.2
	c2.1,1.1,4.4,2.1,6.8,1.9c5.1-0.3,9.8-6,9.5-10.6c-0.3-3.7-4-6.2-7.9-5.3c-0.6,0.1-1.1,0.3-1.6,0.6c0,0.1,0,0.1,0,0.2
	c-1.1,0.7-2.1,2-2.6,2.7c-1.9,2.5-4.2,4.8-6.5,7c-0.7-0.4-1.4-0.7-2.1-1.1c-2.7-1.2-5.7-2.1-8.7-2.8c-6.6-1.5-13.5-2-20.3-1.8
	c-14,0.2-27.4,3.5-40.6,7.8c-13.5,4.4-26.7,9.7-40.6,13c-13.6,3.2-27.8,4.3-41.7,3.9c-14.1-0.5-28.2-2.7-41.5-7.3
	c-15.8-5.5-31.2-13.7-39.9-27c-0.5-4.3-0.3-8.7-0.5-12.9c-0.6-11.8-1.3-23.6-1.9-35.4c-0.3-5.2-0.3-10.6-1-15.7
	c-0.2-1.6-0.5-3.2-0.8-4.8c0.3-1-0.6-2.7-1-3.3c-0.6-0.8-1.3-1.3-2.2-1.8c-0.1-0.1-0.3-0.2-0.5-0.3c-1.1-0.3-2.5-0.6-3.3,0.2
	c-1.2,0.3-2.3,1.1-3,2c-1.4,1.7-1.5,3.9-1.3,5.9c0.3,2.6,1.1,5.1,1.9,7.6c0.9,2.8,1.3,5.6,1.7,8.5c1.2,8.2,2.1,16.4,2.7,24.6
	c0.4,6,1,11.9,3.1,17.7c1.2,3.2,2.7,6.3,4.6,9.2c0.4,2.7,1.1,5.4,2.3,8c3.6,7.6,11.9,11.4,18.7,16.2c9,6.3,16.8,14.3,26.1,20.2
	c8.4,5.4,17.7,9,27.4,11.5c2,0.5,4.1,1.1,5.9,2.2c2.9,1.8,3.3,4.8,0.8,7.1c-3.1,2.9-8,4.4-12.3,4.5c-7.6,0.1-15-3-21.9-5.5
	c-6.2-2.3-13.1-5-19.9-4.7c-8.4,0.5-14,7.3-17.8,13.7c-5.3,9-6.4,19.5-6.2,29.6c0.2,10.8,1.1,21.6,2,32.4c0.4,5.2,0.7,10.4,0.3,15.6
	c-0.2,2.6-0.7,5.1-1.3,7.7c-0.5,1.7-0.9,3.7-2,5.2c-2.7,3.6-8.6,0-10.3-2.7c-2.1-3.4-2.2-7.7-3-11.4c-1.3-5.4-3.3-10.8-3.6-16.4
	c-0.3-5.3,0.4-10.6,0.1-15.9c-0.2-3.2-0.9-13.9-6.5-12.8c-2.8,0.5-3.9,3.2-4.2,5.5c-0.6,3.6-0.3,7.2-0.4,10.8c-0.2,4-1.4,8-2.3,11.9
	c-1.4,5.9-2.9,11.8-4.8,17.7c-1.8,5.7-3.8,11.4-6.8,16.6c-1.5,2.5-4.3,7.4-8.2,6.5c-6.1-1.4-4.8-10.7-4.2-14.8
	c0.9-6.1,2.7-11.9,3.7-18c1-6,1.7-12.1,2.9-18.1c0.7-3.5,1.8-7,2.6-10.5c0.5-1.8,1.4-4.9-0.1-6.5c-1.5-1.6-4.3-0.5-5.6,0.8
	c-2.2,2.2-3.5,5.4-4.9,8.1c-1.7,3.6-3.6,7-5.9,10.4c-3.1,4.7-6.5,9.2-9.5,14c-2.8,4.5-4.9,9.3-8.1,13.6c-0.8,1-1.6,2.1-2.3,3.1
	c-0.7,1-1,2-2.3,2c-1.5,0-3.1-0.1-4.3-1c-2.1-1.5-1.9-4.4-1.5-6.5c1.1-6,4.7-11.6,7.2-17.1c3.8-8.3,7.2-16.7,11.8-24.7
	c1.7-3,3.4-6,4.8-9.1c1.2-2.6,2.6-5.6,2.6-8.5c0-4.1-4.4-7.3-8.6-5.6c-4.9,2-8.2,7.2-10.9,11.1c-1.2,1.8-2.4,3.7-3.7,5.4
	c-2.8,3.6-7.1,6.2-10.7,9.1c-3.3,2.6-6.3,6.2-10.4,7.8c-1.7,0.7-6.7,1.6-7.3-1c-0.4-2,1.2-4.4,2.2-6.1c1.4-2.3,3.1-4.6,4.8-6.8
	c1.6-2.1,3.1-4.3,4.6-6.5c3.2-4.4,6.9-8.5,10.8-12.3c3.6-3.5,7.7-6.7,11.2-10.3c3-3.2,4.8-6.9,5.6-11c0.3-1.7,0.6-3.5,1.7-4.9
	c0.6,0.9,1.4,1.7,2.4,2.4c4,2.7,9.6,3,14.4,3.8c1.4,0.2,2.9,0.5,4.3,0.9c1.7,1.4,3.4,2.8,5.3,4c3,1.8,6.6,3,9.8,4.5
	c0.4,0.2,0.9,0.4,1.3,0.6c0.6,0.6,1.1,1.3,1.6,2.1c2.9,4.2,6.5,12.9,13.2,12.2c0.7-0.1,1.1-0.5,1-1.1c-1-7.2-8.2-11.5-14.5-14.5
	c-3.6-4-8.7-6.9-13.9-8.6c-0.9-0.3-1.9-0.5-2.8-0.8c-1-0.9-2-1.8-2.9-2.6c-4.5-4-12.1-9.5-18.3-5.9c-0.2-0.5-0.3-1.1-0.3-1.7
	c-0.6-5.6,1.7-11.6,3.8-16.7c2.3-5.6,5.1-11.4,9-16.1c1.7-2,3.8-3.6,6.1-4.6c2.8,2.4,6.8,3.6,10.8,4.1c2.7,0.3,5.9,0,8.5,0.8
	c1.9,2.9,3,6.5,4,9.9c0.5,1.8,1.1,3.7,1.6,5.5c0,1.2-0.1,2.5,0,3.7c0.1,1.9,0.3,3.8,0.5,5.6c0.6,4.3,1.5,8.5,2.6,12.7
	c1.4,5.4,5.4,21.7,14.8,17.9c0.3-0.1,0.5-0.5,0.5-0.8c-0.3-6.9-4.9-12.6-8.4-18.5c-3.7-6.3-5.9-13.2-8-20.1c0-2.7,0-5.4-0.5-8
	c-0.4-2.6-1.4-5.7-3.3-7.7c-0.8-0.8-1.7-1.4-2.7-1.7c-1.1-1.5-2.4-2.8-4-3.9c-4.6-2.9-11-3.6-16.3-1.8c-0.5-0.6-1-1.4-1.4-2.2
	c-1.4-3.2-0.7-6.7-0.4-10c0.3-3.6,0.1-7.3,0.1-10.9c0-7.8,0.2-15.7-1-23.5c-1.3-8.1-5.6-15.2-9-22.7c-1.3-2.8-2.3-5.8-3-8.8
	c-0.1-0.1-0.2-0.3-0.2-0.5c-0.3-1.2-0.3-4.1-1.1-5.7c0-0.1,0-0.2,0-0.3c-0.2-0.8-1-1.7-1.8-1.8c-0.2,0-0.3,0-0.5,0
	c-0.4-0.1-0.9-0.1-1.3-0.1c-0.3,0-0.5,0.2-0.6,0.4c-0.4,0-0.7,0.1-0.9,0.3c-7.3,2.5-11.8,9.3-14.8,15.8c-4.6,10.3-6.5,21.5-7.9,32.5
	c-1.3,10.4-1.9,20.8-2.5,31.2c-0.9,14.6-3.2,29.2-6.4,43.6c-4.1,18.1-10,35.9-17.6,53c-3.1,6.9-6.7,13.6-12.6,18.8
	c-5.3,4.8-12,7.9-19.1,9.8c-4.1,1.1-8.4,2-12.7,2.1c-0.9,0-1.9,0-2.8,0c-6.1-1.3-12.2-2.5-18.3-3.8c-6.8-2.3-13.3-5.3-20-7.7
	c-9.1-3.3-18.8-6.4-28.6-7.6c-4.7-0.6-9.4-0.7-14-0.1c-1.8,0.2-3.6,0.5-5.3,1c-0.6,0-1.2,0-1.8,0c-1,0-2.1,0-3.1,0.1
	c-1.6,1.1-3.4,2-5.3,2.6c-0.1,0.1-0.2,0.1-0.2,0.2c-8.1,2.3-16.2,4.6-24.7,4.6c-10.2,0-20.2-2.8-30.1-4.6
	c-9.9-1.8-19.8-2.8-29.9-2.3c-6.2,0.3-12.4,1-18.6,1.4c-1.8-0.5-3.6-1-5.4-1.5c-3.4-0.9-6.9-2-10.3-3.1c-1.7-0.6-3.5-1.2-5.3-1.8
	c-0.9-0.3-2-1-3-0.8c-0.5,0.1-0.8,0.6-0.8,1.1c-0.3,0-0.6,0-0.9,0.1c-1.9,0.7-2.7,3-3.3,4.6c-0.2,0.4,0.2,0.8,0.6,0.9
	c8.6,2.5,17.3,2.6,26.2,2.2c7,1.8,14.1,3.7,21.1,4.9c6.6,1.1,13.1,1.5,19.7,1.9c6.4,0.4,12.8,1.2,19.2,1.1c3.1,0,6.2-0.4,9.2-1
	c2.7-0.6,5.4-1.3,8.2-1.1c4.6,0.4,8.1,3.2,9.4,8c-2.8,4.6-4,9.8-4.1,15.8c-0.1,3.8,0.2,7.7,0.1,11.6c-0.2,3.2-0.4,6.4-0.4,9.6
	c0,5.8,0.7,12.6,5.2,16.7c0.3,0.3,1,0.2,1.2-0.1c2.3-2.9,1.8-8.1,1.5-11.9c-0.4-5.5-1.3-11.1-1.8-16.6c-0.7-8.1,2.3-16.5,0.5-24.6
	c1-1.5,2.1-2.9,3.4-4.2c7.2-7.3,16.9-10.5,26.8-11.4c11.1,0.2,22.4-1,33.4,3.4c4.5,1.8,8.9,4.2,13.4,6c4.8,2,9.8,2.9,14.8,4
	c2.4,0.5,4.8,1,7.2,1.5c3.3,1,6.6,1.7,10,2.1c4.7,1,9.5,2,14.2,3c17.1,3.6,34.8,7.1,51.2,15.2c2.8,1.4,13.1,6.3,9.4,11
	c-2,2.6-5.9,2.2-8.8,1.9c-3.5-0.3-7-1-10.4-1.7c-4.2-0.9-8.4-1.4-12.7-1.7c-5.1-0.3-10.3-0.3-15.3-1.8c-7-2.1-15.5-7.3-22.5-4.4
	c-0.4,0.1-0.5,0.7-0.4,1.1c0.6,3.6,6,5,8.4,5.7c5.6,1.7,11.4,2.6,17.1,3.5c4.9,0.8,9.8,1.4,14.8,2c6.2,0.8,12.4,2.1,18.6,3.2
	c9.6,1.6,19.2,3.2,28.8,5.2c5.9,1.2,14.2,2.4,16.4,10.3c1,3.7,0.8,7.5-2.7,8.3c-3.2,0.7-6.9,0.2-10.2-0.2c-9-1-18-3.6-26.9-5.8
	c-9.3-2.3-18.5-3.6-27.8-4.3c-3.9-0.3-7.6-1.2-11.5-2c-3.4-0.7-7-1.3-10.3-0.3c-0.5,0.2-0.7,0.8-0.3,1.3c3.9,5,11.1,6,16.3,7.2
	c8.2,1.8,16.2,4.8,24.3,6.9c8.1,2.2,16.1,3.3,24.3,4.1c7.9,0.7,16.2,0.8,24.1,2.6c5.2,1.2,14,6.9,10,13.8c-1.5,2.5-4.4,3.1-6.9,3.4
	c-2.9,0.4-5.8,0.4-8.8,0.2c-3-0.2-5.9-0.5-8.9-0.8c-3.9-1.3-8.2-1.6-12-1.8c-8.6-1.5-17.2-3.4-25.7-5.1c-8-1.6-16-4-23.8-6.5
	c-5.6-1.8-12.3-4.5-17.9-2.6c-0.5,0.2-0.7,0.7-0.4,1.2c1.4,3.5,4.8,5.1,7.9,5.9c3.8,1.1,7.7,1.3,11.5,1.9c10.1,1.4,20.1,6,30.2,6.4
	c5.7,0.2,11.4,0,17.1,0.3c1,0,2,0.1,3,0.1c3.2,0.5,6.4,1,9.5,1.5c0.4,0,0.7,0.1,1.1,0.2c1.4,0.5,2.6,1.1,3.9,1.9
	c1.4,0.9,3.4,3.1,2.6,5.1c-0.7,1.8-3.4,2.6-4.9,3.1c-5.8,2-12.1,2.5-18.2,3.1c-5,0.5-9.9,0.8-15,0.8c-11.3,0.1-22.6-2-34-3.7
	c-5.7-0.9-11.5-1.7-17.2-2.1c-5.8-0.5-11.5-0.8-17.3-1.7c-5-0.8-9.3-2.9-14-5.2c-3.9-1.9-8.1-4-12.3-3.5c-0.3,0-0.5,0.4-0.5,0.7
	c0.7,7.7,8.1,8.5,13.4,10.1c2.1,0.7,6.3,3.4,9.3,6.6c-0.4,3.2,0.7,6.9,1.2,10c0.1,0.6,0.7,0.7,1.1,0.4c3.5-2.9,1.9-7-0.8-10.5
	c0.3-1.4,1-2.6,2.3-3.3c2.1-1.1,4.7-0.3,6.9,0.4c2.4,0.8,4.7,1.8,7,2.9c4.3,2,9.3,3.4,13.2,6.4c2.3,1.8,3.9,4.4,4,7.6
	c0,2.9-1.5,4.4-3.7,5.2c-4.4,1.6-9.6,2.1-14.3,2.5c-5.9,0.5-11.8,0.3-17.8-0.6c-11.8-1.7-23.7-1.9-35.3-6.6
	c-20-8.2-35.6-26.1-52.6-40.4c-7.8-6.5-16.1-10.3-25.3-12c-1.3-0.2-2.5-0.4-3.8-0.6c-4.4-3.3-9.3-6.2-14.6-8.5
	c-8-3.4-16.8-5-25.3-6.6c-9.8-1.8-19.8-2.9-29.8-2.4c-7,0.4-15.1,0-20.7,4.7c-3.2,2.6-6.4,7.7-3,10.9h0.1c0.9,1.6,4.9,0.9,6.3,0.7
	c0.4,0,3.1-0.2,4.4-0.6c0.2,0,0.3,0.1,0.4,0.2c0,0,0,0,0.1,0c6.2,0,12.4,0.9,18.5,1c6.8,0.2,13.6,0.6,20.5,1.1
	c10.5,0.6,20.8,0.2,31.3,0.4c3.6,0.1,7.2,0.3,10.9,0.7c5.5,4.2,10.5,9.1,14.9,14.3c8.8,10,16,21.1,23.6,31.9
	c7.8,11.1,17.4,20.9,26.1,31.4c8.6,10.4,16.7,21.8,19.8,34.9c1.5,6.6,1.9,13.7,0,20.3c-1.7,6-5.3,11.2-9.8,15.7
	c-5.1,5.1-11,9.4-16,14.7c-4.5,4.8-8.5,10.1-11.6,15.8c-3.4,6.2-5.9,12.8-7.6,19.6c-2,7.9-3,16.1-5.3,24c-1.3,4.3-3.1,8.5-5.1,12.6
	c-2.6,1.2-5.3,2.5-7.9,3.8c-2.3,1.1-4.5,2.3-6.7,3.6c-1.7,0.7-3.4,1.4-5.1,2.1c-0.1,0-0.2,0.1-0.2,0.2c-1.7,1.1-3.5,2.9-2.2,4.9
	c1.2,1.9,4.1,2.5,6.3,2.6c6.8,0.3,10.4-4.6,13.4-9.6c1.3-2.2,2.6-4.5,3.8-6.8c9.9-4.6,19.9-9.1,28.9-15.1c3.8-2.5,7.2-5.3,10.5-8.4
	c3.6-3.3,7.5-6.5,11.1-9.8c3.3-3,6.6-6.2,9.1-9.9c2.6-3.8,4-8.1,4.9-12.5c0.9-4.6,1.3-9.4,2.4-14c1.1-4.5,2.5-9,4.1-13.3
	c1-2.7,2.1-5.5,3.3-8.1c0.4,6.6,3,12.8,7.9,17.8c3.9,3.9,8.8,7.2,13.5,10.3c4.8,3.2,9.8,6.1,14.9,8.7c1.2,0.6,2.4,1.2,3.7,1.8
	c-4.3,8-6.9,17-8.6,25.4c-0.8,4.2-1.5,8.4-1.7,12.7c-0.3,4.7-0.2,9.5-1.9,14c-0.8,2.2-2.2,4.1-4,5.4c-0.8,0.4-1.6,0.8-2.3,1.2
	c-0.6,0.3-1.1,0.6-1.7,0.9c-3.1,1.1-6.3,1.7-9.4,2.7c-9.3,3.1-15.6,9.3-21.6,16c-1.3,0.9-2.5,1.9-3.7,2.8
	c-6.9,5.3-13.9,10.7-20.3,16.6c-1.4,1.3-2.9,2.7-4.5,4.2c-1.9,0.7-3.9,1.1-6,1.4c-2.9,0.3-6.1,0.3-8.8,1.5c-2.8,1.2-3.8,3.6-3.8,6.4
	c0,0.4,0.3,0.9,0.8,0.9c7.2,0.4,13.3-4.1,18.3-8.5c5-1.7,9.6-4.7,13.5-7.8c5.7-4.6,10.3-10.4,15.2-15.9c5.1-3.8,10.3-7.5,15.8-10.8
	c4.2-2.5,8.5-4.7,12.9-6.9c0.2-0.1,0.3-0.2,0.5-0.2c2-0.6,4-1.4,5.8-2.5c0.6-0.4,1.2-0.9,1.7-1.4c1.8-1,3.7-1.9,5.6-2.9
	c5-2.5,10.4-4.3,15.5-6.5c3.1-1.3,6.2-2.8,9.3-4.3c6-1.7,11.2-5.6,16.4-8.7c3-1.8,6.1-3.6,9.5-4.8c3.5-1.2,7.2-1,10.8-1.4
	c6.4-0.7,12.5-4.1,17.8-7.4c1.6-1,3.2-2.1,4.8-3.2c6.9,0.4,13.9,0.6,20.9,0.5c26.4-0.3,52.5-4.2,78.5-8.5
	c13.5-2.3,27.2-4.2,40.5-7.7c6.3-1.6,12.6-3.3,18.8-5.3c4.8-1.5,9.4-3.7,14.3-5.1c0.6-0.2,1.1-0.3,1.7-0.5c0.6,1.1,1.5,2,2.8,2.5
	c2.9,1.1,4.1-1.4,3.9-3.7c0-0.3-0.2-0.7-0.6-0.8c-1.5-0.2-3-0.2-4.6-0.1c-0.1-0.1-0.1-0.2-0.2-0.3c-0.4-0.6-0.6-1.3-0.8-2
	c-0.1-0.6-0.1-1.2-0.1-1.8c4.3,2.5,8.9,4.7,13.5,6.6c9.4,4,19.4,7.1,29.5,9.1c4.7,1,9.5,1.7,14.4,2c5.5,0.4,11.1,0.4,16.5,1.7
	c10.5,2.5,18.3,10.6,26.1,17.1c3.6,3,7.3,5.9,10.6,9.3c3.5,3.6,6.6,7.5,9.4,11.5c5.5,7.6,10.3,15.7,15.5,23.5
	c2.5,3.7,5.2,7.3,8,10.7c0.4,0.5,1.4-0.2,0.9-0.7c-11.5-14-19-30.5-31.3-44c-3-3.3-6.3-6.3-9.8-9.1c-3.9-3.1-7.5-6.4-11.3-9.6
	c-3.5-2.9-7.1-5.6-11.2-7.7c-4.2-2.2-9-3.2-13.7-3.7c-5-0.5-10.1-0.5-15.2-1.2c-4.9-0.6-9.8-1.6-14.6-2.8
	c-9.9-2.4-19.5-5.8-28.7-10.1c-2.8-1.3-5.7-2.7-8.4-4.3c0.1-0.1,0.1-0.2,0.2-0.4c1-2.2,3-4,4.8-5.7c4.4-4,8.3-8,11.6-12.9
	c3.5-5.3,6.5-10.9,10.1-16.2c3.5-5.3,6.6-10.8,9.8-16.4c0.7-1.1,1.3-2.3,2-3.5c2.3,5.4,5,10.9,9.3,15.2c11.7,11.8,30.3,16.3,46.9,18
	c4.6,0.5,9.1,0.8,13.7,0.6c5-0.1,10.3-0.5,15.2,0.7c2.5,0.6,4.5,1.7,6.1,3.3c0.5,0.7,1,1.4,1.5,2.1c0.4,0.5,0.7,1,1.1,1.5
	c1.4,2.7,2.3,5.7,3.6,8.5c4,8.4,11.1,13.8,18.7,18.9c1.1,1.1,2.2,2.2,3.3,3.2c6.2,6,12.5,12.1,19.2,17.6c1.5,1.2,3.2,2.5,4.8,3.9
	c0.8,1.7,1.5,3.6,1.9,5.5c0.6,2.7,0.8,5.6,2.3,8c1.5,2.5,4.2,3.2,7.1,3c0.5,0,0.9-0.4,0.9-0.8c-0.1-6.7-5.4-12-10.5-16.4
	c-2.2-4.5-5.7-8.6-9.4-11.9c-5.4-4.9-12-8.8-18.2-13c-4.5-4.4-8.8-9-12.8-13.8c-3-3.7-5.6-7.6-8.3-11.5c-0.1-0.1-0.2-0.3-0.3-0.4
	c-0.8-1.8-1.7-3.6-3.1-5.2c-0.5-0.6-1.1-1.1-1.7-1.5c-1.2-1.6-2.3-3.3-3.5-4.9c-3-4.5-5.4-9.3-8.1-13.9c-1.7-2.8-3.5-5.6-5.3-8.3
	c-2.3-5.4-6.9-10-10.6-14.6c-2.1-2.7-4.3-5.4-5.9-8.4c-1.5-3.2-1.6-6.6-2.3-9.9c-1.2-5.9-5.3-11.3-9.3-15.9
	c-2.1-2.5-4.4-4.9-6.9-7.2c-2.4-2.2-5.1-4.2-7.5-6.5c-2.3-2.3-4.3-4.8-6.6-7.2c-2.1-2.1-4.4-3.9-6.7-5.9c-3.7-3.2-5.3-6.9-6.9-11.2
	c-1.3-3.6-5.3-14.9-10.9-8.7c-6.2,6.8-5.6,16.3-1.8,23.9c4.1,8.4,10.9,15.3,14.9,23.8c2.9,6.2,4.3,15.5-3.4,19.1
	c-6.5,3-15.2,1.4-21.8-0.2c-7.6-1.9-14.6-4.8-21.2-8.7c-11.2-6.6-21.8-14.1-33.8-19.5c-5.8-2.6-11.8-4.8-18.1-6
	c-3.6-0.7-8.1-1.3-11.7-0.1c-3,1-4,4.2-2.3,6.6c0,0,0,0-0.1,0c-3.6-1.4-7.9-2-11.2,0.6c-2.8,2.2-4.6,6-2.9,9.3
	c1.7,3.2,5.5,5.1,8.8,6.7c3.6,1.8,7.5,3.2,10.9,5.2c5.6,3.3,11.4,6.2,17.3,9.1c-0.6-0.2-1.2-0.4-1.8-0.6c-4.8-1.7-9.7-3.4-14.3-5.8
	c-4.5-2.3-8.6-5.2-13-7.6c-3.9-2.1-13.5-6.4-15.4,0.1c-1.5,4.8,2.4,10.1,6.5,12.7c1.7,1.1,3.5,2.1,5.3,3c-1,0.3-1.8,1-2.3,1.9
	c-1,2.1-0.1,4.6,0.7,6.6c2.7,6.4,7.5,11.9,13,16.4c7.8,6.3,16.1,12,24.2,17.8c4.3,3.1,8.5,6.3,12.1,10.1c3.4,3.6,6.6,7.4,10.1,10.9
	c2.9,2.8,6.1,5.3,9.6,7.4c-0.2,0.9-0.3,1.7-0.2,2.7c0.1,0.6,0.4,1.8,0.8,2.8c-2.2,0.4-4.4,1.1-6.4,1.8c-4.8,1.6-9.4,3.4-14.2,4.7
	c-6.2,1.7-12.5,3.6-18.8,5.1c-6.4,1.6-12.9,2.6-19.4,3.7c-26.2,4.5-52.5,9.2-79.2,10.7c-11,0.6-22.1,0.8-33.2,0.2
	c0.3-0.2,0.5-0.4,0.8-0.6c2.6-2.1,4.9-4.4,7.6-6.4c2.6-2,5.5-3.7,8.2-5.6c2.4-1.8,4.5-3.8,6.8-5.8c3.7-3.2,7.8-4.4,12.6-5.5
	c4-1,16.4-3.8,10.1-9.5c-6.9-6.3-17.1-6.4-25.6-3.4c-9.3,3.2-17.3,9-26.6,12.1c-6.8,2.2-17,2.9-20.3-4.6c-2.8-6.3-0.4-14.2,1.8-20.2
	c2.5-6.9,6.2-13.2,10.9-19c7.9-9.9,16.7-19.2,23.4-29.9c3.2-5.2,6-10.6,7.8-16.4c1-3.3,2-7.4,0.9-10.8c-0.9-2.9-4.3-4-6.9-2.6
	c0,0,0,0,0,0c1.8-3.3,2.7-7.2,0.2-10.4c-2.2-2.8-6.1-4.7-9.8-3.3c-3.5,1.4-5.9,4.8-7.8,7.6c-2.2,3.2-4,6.7-6.4,9.8
	c-4,4.9-7.5,10.1-11,15.3c0.3-0.5,0.5-1.1,0.8-1.6c2.2-4.3,4.4-8.8,7.2-12.8c2.8-4,6.2-7.6,9.1-11.5c2.5-3.4,7.9-12,1-14.3
	c-5.1-1.7-11,1.5-14.1,5.1c-1.3,1.5-2.5,3.1-3.6,4.7c-0.3-0.9-0.9-1.7-1.9-2.3c-2.1-1.1-4.9-0.5-7.1,0.2c-7.1,2.1-13.3,6-18.5,10.9
	c-7.3,6.7-14,14-20.8,21.1c-3.6,3.8-7.4,7.4-11.7,10.5c-4.1,2.9-8.4,5.6-12.4,8.6c-3.3,2.5-6.1,5.3-8.7,8.4
	c-0.9-0.3-1.9-0.4-2.9-0.4c-0.7,0-2.1,0.2-3.3,0.6c-0.6,0.8-1.2,1.5-1.9,2.2c-0.1,0.6-0.3,1.1-0.7,1.4c-1,1.6-1.8,3.4-2.4,5.1
	c-1.4,3.8-2.5,7.8-3,11.8c-0.1,0.7-0.2,1.5-0.2,2.2c-2.7,5.6-5.1,11.4-7,17.3c-1.4,4.3-2.5,8.7-3.2,13.2c-0.8,5.1-1.2,10.3-3,15.2
	c-3.4,9.5-12.7,16.2-20.3,23c-3.5,3.2-6.9,6.3-10.8,9.1c-4.1,2.9-8.5,5.5-13,7.9c-5.3,2.8-10.8,5.3-16.2,7.9c1.5-3.2,2.9-6.5,4-9.8
	c2.8-8.6,3.7-17.6,6-26.3c4-14.9,12-28,23.8-38.7c5.5-5,11.5-9.4,15.9-15.4c3.9-5.4,6.1-11.6,6.5-18.1c1.8-30.1-25.5-52.1-42.8-74.3
	c-13.1-16.8-23.8-36.9-40.8-50.8c5.4,0.9,10.8,2.5,15.9,5.1c5,2.6,9.3,6.3,13.6,10.1c4.5,4,8.9,8.1,13.4,12.2
	c8.7,8,17.7,15.7,27.8,21.3c5.2,2.9,10.7,5.2,16.3,6.6c6.1,1.5,12.3,2.1,18.4,2.8c6.4,0.7,12.7,1.9,19.1,2.1
	c6.1,0.1,11.9-0.6,17.8-1.7c3-0.6,7-1,8.6-4.4c1.7-3.7-0.1-8.6-2.9-11.3c-3.4-3.3-7.8-4.6-11.8-6.4c-4.1-1.8-8.2-4-12.5-4.9
	c-3.2-0.7-6.8-0.1-8,3.5c0,0.1-0.1,0.2-0.1,0.3c-1.5-1.7-3.2-3.1-4.5-4.1c-2.8-2-5.7-2.7-8.8-3.6c-3.4-1-7.4-2.4-8.2-6.8
	c5.1-0.3,10.5,3.3,15.2,5.5c5.7,2.7,11.3,3.5,17.2,4.1c6.6,0.6,13.1,1,19.7,1.8c6.7,0.9,13.4,2.1,20.1,3c14.8,2.1,29.6,2.4,44.1,0.2
	c4.9-0.7,11.2-1.3,15.2-4.7c3-2.5,1.1-6.4-1.9-8.4c-0.2-0.1-0.4-0.2-0.6-0.4c4.4,0.5,8.8,0.8,13.1,0.4c4.6-0.5,10-2.5,9.7-8.9
	c-0.3-5.8-6.5-9.8-10.8-11.3c-3.4-1.2-7-1.4-10.5-1.7c-4.3-0.5-8.5-0.8-12.8-1.1c-9-0.8-18-1.9-27-4.2c-7.3-1.9-14.5-4.2-21.9-5.8
	c-5.1-1.1-12.3-2-16.5-6.4c3.9-0.8,8.1,0.5,12.1,1.4c4.9,1.1,9.7,1.3,14.5,1.8c10.9,1.1,21.5,3.7,32.3,6.5
	c8.1,2.1,16.5,4.2,24.6,3.8c2.3-0.1,4.7-0.5,6-2.7c1.5-2.5,1-6.4,0.1-9.2c-2.3-6.9-8.6-9.3-14.2-10.6c-9.4-2.1-18.8-3.6-28.2-5.1
	c-7.1-1.1-14.3-2.6-21.4-3.5c-4.8-0.6-9.6-1.1-14.4-1.8c-5.6-0.8-11.2-1.6-16.8-3.2c-2-0.5-4.1-1.2-6-2.1c-0.7-0.4-1.8-0.9-2.4-1.6
	c4.4-1.3,9.8,1,14.2,2.6c5.2,1.9,10,3.2,15.4,3.6c5.7,0.4,11.3,0.5,17,1.6c4.2,0.9,8.4,1.8,12.5,2.2c2.9,0.3,6.5,0.5,8.9-1.2
	c1.7-1.2,3.1-3.5,2.5-6c-0.6-2.6-2.9-4.5-4.8-5.9c-2.6-2-5.4-3.4-8.3-4.8c-17.1-8.1-35.2-11.6-53-15.3c13.1-1.5,25.9-7.6,33.7-17.4
	c5.3-6.6,8.3-14.4,11.4-22c3.6-8.7,6.7-17.5,9.4-26.4c5.3-17.7,8.7-35.8,10.7-54.1c1-9.1,1.2-18.4,2-27.5c0.9-11.5,2.3-23,5.4-34.2
	c2.4-8.5,6-19.2,14.7-24c1.1-0.6,2.2-1.1,3.4-1.4c0.5,0,0.9,0,1.4,0c0.1,0,0.2,0,0.3,0c0.1,0.1,0.2,0.3,0.3,0.4
	c0.1,0.8,0.3,1.6,0.4,2.2c0.4,2.8,0.9,5.5,1.8,8.2c2.4,7.5,7.1,14.2,9.5,21.7c2.5,8,2.3,16.6,2.2,24.9c0,4.2,0.2,8.3,0.1,12.4
	c-0.1,3.2-0.9,6.4-0.5,9.7c0.3,2.2,1.1,4.1,2.3,5.6c-0.6,0.3-1.1,0.5-1.6,0.9c-5.3,3.3-8.6,9.3-11.2,14.5
	c-2.9,5.7-5.3,11.9-6.4,18.1c-0.5,2.8-0.6,5.8,0.4,8.4c0,0-0.1,0-0.1,0.1c-3.1,2.8-2.5,7.6-4.1,11.1c-2,4.5-6,7.6-9.7,11
	c-3.8,3.5-7.5,7.2-10.8,11.1c-2.9,3.3-5.2,6.8-7.7,10.3c-3.1,4.2-6.8,8.2-8.6,13c-0.6,1.6-1.1,3.7,0.2,5.2c1.5,1.8,4.5,1.7,6.6,1.4
	c4.2-0.6,7.6-3.7,10.5-6.3c4-3.5,8.5-6.4,12.3-10.1c3.5-3.4,14-24,20.4-16.4c1.9,2.2,0.9,5.1,0,7.6c-1.3,3.5-3,6.7-4.8,10
	c-1.4,2.5-3,5-4.3,7.6c-2.6,4.9-4.7,10.1-6.9,15.2c-2.8,6.5-6.7,12.9-8.5,19.7c-1.1,4.1-1.3,9.7,4.3,10.8c1.2,0.2,3.4,0.6,4.5,0
	c0.8-0.4,1.4-1.8,1.9-2.5c0.8-1,1.6-2.1,2.4-3.1c3.4-4.5,5.6-9.5,8.6-14.2c3.1-5,6.7-9.7,9.9-14.6c2.1-3.2,3.8-6.5,5.5-10
	c1.2-2.3,2.7-6.7,5.4-7.8c3.5-1.5,1.8,4.1,1.4,5.5c-1.1,4-2.2,7.9-2.9,12c-1.1,5.7-1.7,11.5-2.7,17.2c-1,6-2.9,11.9-3.7,18
	c-0.6,4.7-1.3,11.9,3.8,14.9c9,5.3,15-11.9,16.9-17c3.9-10.6,6.6-21.6,8.8-32.6c0.5-2.3,0.6-4.6,0.6-6.9c0-1.8,0-3.6,0.1-5.4
	c0.1-1.5,0.1-3.5,1.1-4.9c2.9-4.1,5,1.6,5.5,3.9c1,4,1.1,8.1,1,12.2c-0.2,5.4-0.3,10.6,0.9,15.9c1.1,4.9,2.7,9.6,3.7,14.6
	c0.6,3.4,1.3,7.1,4,9.7c2.1,2,6.2,3.8,9.2,2.5c2.8-1.2,3.5-4.7,4.2-7.2c1.3-5.1,1.7-10.2,1.6-15.4c-0.3-11-1.5-22-2.1-32.9
	c-0.6-10.9-0.7-22.2,3.6-32.5c2.2-5.2,5.7-10.3,10.2-14.1c2.6-2.2,5.8-3.3,9.3-3.3c7.5-0.1,14.8,3.2,21.6,5.8
	c6.7,2.5,14.2,5.2,21.6,4.4c5.8-0.6,18.8-6.9,10.9-13.2c-3.1-2.4-7.5-3-11.3-4.1c-5.1-1.4-10-3.5-14.6-5.8
	c-5.1-2.4-9.9-5.3-14.3-8.7c-4.6-3.6-9.1-7.4-13.7-11c-4.5-3.5-9.2-6.9-14-10c-3.5-2.3-6.8-4.9-9-8.4c-1.4-2.1-2.2-4.3-2.8-6.6
	c0.3,0.3,0.5,0.6,0.7,1c6.8,8.3,16.4,14.3,26.5,18.7c26.9,11.9,57.7,14.4,86.9,9.6c15.6-2.6,30.3-8.3,45.1-13.3
	c15-5.1,30.2-9.1,46.3-9.1c7.7,0,15.5,0.8,22.7,3.2c1.7,0.5,3.2,1.3,4.8,2.1c-2.9,2.3-5.8,4.5-8.6,6.9c-5,4.3-10.1,8.4-15.2,12.5
	c-7.8,6.3-14.9,13.3-22.5,19.9c-7.3,6.4-15.5,12.5-25.4,15.5c-5.1,1.5-10.5,1.9-15.9,2.1c-5.7,0.3-11.3,0.4-17,0.6
	c-11.1,0.4-22.2,1.1-32.8,3.8c-5.5,1.5-10.8,3.5-15.6,6.2c-5.3,3-10,6.6-14.8,10.1c-5,3.7-10.2,7-14.8,11
	c-4.4,3.8-8.1,8.1-11.6,12.7c-1.8,2.3-4.4,5.2-3.4,8.4c1,3.5,5.3,5.6,9,5.6c4.4,0,8.4-2.1,12.3-3.5c4-1.5,8.2-2.7,11.9-4.8
	c2.7-1.6,4.9-4.3,3.5-7.5c0-0.1-0.1-0.2-0.1-0.2c2.1,0.1,4.2,0,5.7-0.2c3.2-0.5,5.7-1.9,8.4-3.3c3-1.6,6.7-3.2,9.9-0.8
	c-3.4,3.5-9.4,4.6-14.2,6.1c-5.7,1.9-10.2,4.9-14.7,8.4c-5,3.8-9.9,7.8-15.1,11.5c-5.3,3.7-10.8,7.3-16.1,11
	c-11.8,8.2-22.5,17.6-31.4,28.3c-3.1,3.7-7.2,8.1-8,12.9c-0.6,3.6,3.2,4.9,6.5,4.3c0.2,0,0.4-0.1,0.6-0.1c-3.4,2.5-6.8,5.2-9.5,8.2
	c-2.9,3.3-5.6,8.1-1.5,12.1c3.8,3.7,10.6,2.3,14.6,0.5c3.1-1.4,5.8-3.7,8.5-5.6c3.3-2.5,6.6-5,9.8-7.5c6.9-5.3,14-10.4,21.8-14.6
	c6.3-3.4,12.9-6.6,19.1-10.3c4.3-2.5,9.9-6.6,15.7-6.4c-2.3,3-6.1,4.9-9.4,6.9c-4.1,2.4-7.7,5.3-11.5,8.2
	c-8.4,6.3-17.5,11.4-26.9,16.5c-7,3.8-14.2,7.9-19.8,13.4c-1.5,1.5-3,3.4-2.6,5.7c0.5,2.6,3.2,4.8,5.6,6.2
	c5.8,3.1,11.8,0.6,16.6-2.1c8-4.6,15.6-9.7,23.2-14.8c5.8-3.8,11.7-7.5,17.4-11.5c3.8-2.7,7.5-5.4,11.4-8.1c4.5-3.1,9-6.2,13.9-8.7
	c1.8-1,3.6-1.9,5.6-2.5c0.7-0.2,1.8-0.6,2.7-0.4c-2.3,3.7-7.6,5.7-11.7,7.4c-4.9,2.1-9.1,4.4-13.2,7.6c-4.3,3.4-8.4,7-13.1,9.9
	c-3.5,2.1-7,4.2-10.3,6.6c-2.2,1.7-4.9,3.8-5.6,6.5c-0.5,1.9-0.1,4.3,1.9,5.6c2,1.3,4.8,1.1,7,0.8c3-0.4,6-1.2,8.8-2.2
	c17.8-5.9,33.4-15.9,49-25.3c9.7-5.8,19.3-11.9,29.3-17.4c4.3-2.4,9.2-3.8,14-5.4c4.9-1.7,9.5-3.7,13.6-6.6
	c6.7-4.6,12.7-10.2,18.6-15.8c1.3-2,3.1-3.7,4.3-5.8c0.8-1.3,1.4-2.7,2.3-3.8c0-0.1,0.1-0.3,0.1-0.4c0.8-1.4,1.4-3,1.9-4.2
	c0.7-1.6,1.8-3.7,1.6-5.5c0.7-2.8,1-5.8,0.9-8.7c0-0.2,0-0.4-0.1-0.6c4,2,8.1,1.4,11.5-0.7c2.6-1.6,4.4-4,6.1-6.3
	c2-2.7,4.1-5.2,6.7-7.5c4.9-4.3,10.2-8.2,15.3-12.3c5.3-4.3,10.7-8.5,16.6-12.1c5.8-3.5,11.9-6.8,18-10c3-1.6,6.1-3.2,9.2-4.6
	c1.6-0.8,3.2-1.5,4.8-2.2c0.8-0.4,2-0.7,2.6-1.4c0.5-0.6-0.1-1.5-0.9-1.6L745.8,152.8z M646.1,199c-2.1-2.8-4.3-5.3-7-7.7
	c-3.2-2.8-6.6-5.4-9.7-8.3c-1.9-1.7-5-4.3-5.7-6.8c5.9,0.5,10.7,6.4,14,10.4c3.6,4.3,7.7,8.2,11.2,12.5c2.1,2.6,3.5,5.4,4.3,8.3
	C650.4,205,648.2,201.9,646.1,199L646.1,199z M478.7,264.7c7-5.9,16.1-9.6,24-14.5c2.9-1.8,5.4-3.9,8.2-5.7c2.4-1.6,6.2-3.7,9.5-2.7
	c-2,2.7-5.2,4.6-8.3,6.2c-3.4,1.8-6.8,3.4-10.2,5.2c-4.2,2.2-8.4,4.3-12.5,6.6c-4.1,2.3-8,4.9-12,7.4c-2,1.2-3.9,2.4-5.9,3.7
	C474,268.9,476.3,266.7,478.7,264.7L478.7,264.7z M512.8,200.5c1.6,1.1,3.6,2.5,4.9,4C515,204.1,512.8,202.9,512.8,200.5z
	 M687.7,102.8c2.1-1.9,3.9-4,5.5-6.2c0.8-0.3,1.7-0.4,2.6-0.3c1.9,0.4,3.2,1.9,3.3,3.7c0.2,2.7-2,5.5-4.1,7.2
	c-2.4,1.8-5.1,1.5-7.7,0.4c-1-0.5-2-1-2.9-1.5C685.6,105,686.6,103.9,687.7,102.8L687.7,102.8z M442.2,78.6
	c-1.7-5.7-1.9-11.4-2.4-17.3c-0.6-7.1-1.4-14.3-2.5-21.3c-0.4-2.7-0.7-5.4-1.5-8c-0.7-2.3-1.6-4.6-2.1-7c-0.5-2.2-0.8-5,1-6.8
	c0.6-0.6,1.2-1,1.7-1.1c0,0,0,0,0.1,0c0.3,0.1,0.6,0,0.9,0c0,0,0,0,0.1,0c0.4,0,0.7,0.1,1,0.2c0.7,0.4,1.4,1,2.1,1.8
	c0.4,0.5,0.7,1,1,1.6c0.2,1.2,0.4,2.3,0.6,3.4c0.9,5.4,0.8,10.9,1.1,16.4c0.6,11.6,1.3,23.1,1.9,34.7c0.2,3.6,0.1,7.4,0.3,11.2
	C444.2,83.9,443.1,81.3,442.2,78.6L442.2,78.6z M425,179.4c-4.8-0.5-7.7-7-9.9-10.5C419.6,171.4,423.8,174.6,425,179.4z M406.9,163
	c-1.5-0.6-3.1-1.3-4.5-2.1c-0.9-0.5-1.8-1-2.6-1.6C402.3,160.3,404.7,161.5,406.9,163z M380.8,148.5c4.1,0.6,7.6,3.7,10.6,6.2
	c0.2,0.2,0.5,0.4,0.7,0.6c-3.1-0.5-6.3-0.9-9.4-1.6c-3.1-0.7-5.8-2-7.2-4.3C377,148.6,379,148.3,380.8,148.5z M425.3,147.8
	c3.2,6.3,8.8,12.2,9.4,19.5c-3.3,0.9-5.6-2.4-7-4.8c-2.3-4-3.6-8.4-4.7-12.8c-1-4-1.8-7.9-2.4-12c-0.1-0.7-0.2-1.3-0.2-2
	C421.8,139.9,423.4,143.9,425.3,147.8z M417.4,119.6c-0.3-0.8-0.5-1.6-0.8-2.4C417,118,417.2,118.8,417.4,119.6z M405.4,107.8
	c2.3,0.7,4.1,1.9,5.5,3.3c-5.1-0.6-11.5-0.5-15.6-3.5C398.4,106.7,401.9,106.7,405.4,107.8L405.4,107.8z M63.9,211.2
	c-5-0.1-9.8-0.8-14.7-1.9c0.4-1.1,1-2.6,2-3c0.4-0.2,0.8-0.1,1.3,0c0.3,0.7,1,1,1.5,0.8c0.4,0.2,0.7,0,0.8-0.2
	c0.4,0.2,0.8,0.4,1.1,0.5c0.7,0.3,1.5,0.5,2.3,0.8c1.8,0.6,3.5,1.1,5.3,1.7c1.6,0.5,3.2,1,4.9,1.4C66.8,211.3,65.4,211.3,63.9,211.2
	L63.9,211.2z M143.9,217.3c-3.4,0.8-6.9,1.2-10.4,1.2c-6.8-0.1-13.6-0.9-20.4-1.3c-7.1-0.5-14.2-1-21.3-2.5c-3.3-0.7-6.7-1.5-10-2.3
	c9.5-0.7,19-1.6,28.4-0.8c10.2,0.9,20.2,3.2,30.3,5.1c1.2,0.2,2.4,0.4,3.6,0.6C144,217.3,143.9,217.3,143.9,217.3L143.9,217.3z
	 M161.9,277.9c-4.2-4.8-3.6-13.3-3.3-19c0.3-6.2-0.1-12.5,0.3-18.7c0.2-3.7,1.2-7.1,2.6-10.1c0.4,4.1-0.2,8.3-0.6,12.3
	c-0.4,3.9-0.5,7.5-0.1,11.6c0.5,4.7,1.2,9.4,1.5,14.1C162.5,270.8,163.1,275.2,161.9,277.9L161.9,277.9z M171.2,216.6
	c-0.2,0.2-0.3,0.4-0.5,0.5c-0.3,0.3-0.6,0.5-1,0.4c-2.6,1.8-5,4-7,6.6c-0.1,0.2-0.3,0.4-0.4,0.5c-1.1-3-3-5.2-5.4-6.6
	c3.2-0.1,6.5-0.4,9.7-1.1c2.1-0.4,4.2-0.9,6.3-1.5C172.3,215.9,171.7,216.2,171.2,216.6L171.2,216.6z M335.2,313.5
	c-9.6-0.3-19.1-4.2-28.6-6c-3.4-0.7-6.9-0.8-10.3-1.4c-3-0.5-7.4-1.6-9.2-4.9c3.4-0.7,7.2,0.1,10.7,1.1c3.9,1,7.7,2.3,11.5,3.4
	c4.7,1.3,9.5,2.7,14.2,3.9c4.8,1.1,9.6,2,14.4,2.9c2.4,0.5,4.7,0.9,7.1,1.4C341.8,313.6,338.5,313.7,335.2,313.5L335.2,313.5z
	 M119,292.6c-10.9,0.1-21.8-0.8-32.8-1.3c-5.9-0.2-11.8-0.5-17.8-0.8c-2.3-0.1-4.7-0.2-7-0.2c-1.1-0.6-3.5,0-4.4,0.1
	c-2,0.2-3.9,0.5-5.8-0.2c-1.9-1.9-0.3-4.7,1.2-6.4c5-5.9,13.1-5.8,20.5-6.2c9.4-0.4,18.6,0.3,27.8,1.9c8.3,1.5,17,3,24.8,5.9
	c5.1,1.9,9.9,4.5,14.3,7.6C132.9,292.4,125.9,292.6,119,292.6z M168.4,535.6c-2.9,5.2-6.5,11.1-13.8,10.2c-1.2-0.1-2.6-0.5-3.5-1.2
	c0.1-0.2,0.2-0.5,0-0.6c-0.2-0.4-0.4-0.6-0.2-1c0.2-0.5,0.5-0.9,0.9-1.2c0.1,0,0.1,0,0.2-0.1c1-0.6,1.9-1.1,2.9-1.7
	c2.6-0.9,5-2.1,7.4-3.2c2.4-1.2,5.1-2.3,7.5-3.7C169.4,533.9,168.9,534.7,168.4,535.6L168.4,535.6z M190.6,588.8
	c0.3-2.5,1.7-4,4.5-4.7c2.6-0.6,5.3-0.6,7.9-1c0.4-0.1,0.9-0.1,1.3-0.2C200.2,586.2,195.7,588.8,190.6,588.8L190.6,588.8z
	 M223.8,569.7c-3.4,3.2-7.3,6.2-11.6,8.5c5.2-4.5,10.4-9,15.9-13.3c0.6-0.5,1.3-1,1.9-1.5C227.9,565.6,225.9,567.8,223.8,569.7
	L223.8,569.7z M255.6,543.8c-4.2,2.3-8.3,4.9-12.3,7.6c2.9-2.6,6-4.9,9.5-6.7c1.6-0.8,3.3-1.5,5-2.1
	C257.1,543,256.3,543.4,255.6,543.8L255.6,543.8z M540.7,470.7c0,0-0.1-0.5-0.1-0.4c0.1-0.1,0.1-0.2,0.1-0.3c0.6,0,1.3,0,1.9,0
	c0.1,1.5-0.7,2.3-2.3,1.4C540.5,471.2,540.7,470.9,540.7,470.7z M730.6,516c-2.7,0-4.4-1.3-5.3-3.8c-0.8-2.3-1-4.8-1.6-7.2
	c-0.1-0.4-0.2-0.8-0.3-1.2C727,507.3,730.2,511.3,730.6,516z M707.6,486.7c3.6,2.9,7.2,6.3,10,10.1c-5.2-4.5-10.4-9-15.4-13.7
	c-0.6-0.5-1.2-1.1-1.8-1.7C702.9,483.1,705.3,484.8,707.6,486.7z M677.5,459c2.8,3.8,5.9,7.4,9.1,10.8c-3-2.5-5.7-5.2-7.9-8.3
	c-1-1.4-1.9-2.9-2.6-4.5C676.5,457.7,677,458.4,677.5,459L677.5,459z M577.1,402c-0.4-1.8-0.6-3.8,0.4-5.2
	C577.8,398.6,577.6,400.3,577.1,402z M536.7,461.6c-0.9-0.5-1.8-1.1-2.6-1.7c-3.9-2.7-7.2-6.1-10.3-9.5c-3.2-3.6-6.4-7.2-10-10.4
	c-3.6-3.1-7.5-5.9-11.4-8.6c-4.3-3-8.4-6.1-12.5-9.1c-3.8-2.8-7.7-5.5-11.2-8.7c-4.5-4.1-9.4-10-10.7-15.9c-0.5-2.5,0.4-4.1,3.1-4.2
	c2.3,1.2,4.6,2.4,6.8,3.7c5,2.9,9.5,6.4,14.1,9.7c4.3,3.1,8.7,5.8,13.3,8.5c2.5,1.5,5,3.3,7.7,4.7c1.2,0.9,2.4,1.7,3.5,2.7
	c2.5,2.1,5.3,4.9,8.7,5.6c2,0.4,5.8-0.3,5.4-2.8c-0.4-2.6-4.1-4-6.5-4.3c-2.1-0.3-4.2-0.3-6.2-0.8c-1.5-0.3-2.9-1-4.3-1.8
	c-7.1-5-15.1-8.8-21.6-14.4c-5.8-5-11.2-11.8-19.8-12.5c-0.3,0-0.6,0-0.9,0c-0.2-0.1-0.3-0.2-0.5-0.3c-5.4-2.9-13.6-6.9-12.4-14
	c1.3-7.8,15.8,1.8,18.8,3.7c4,2.5,8,4.7,12.4,6.5c4.4,1.8,8.8,3.4,13.3,5c5.3,2,10.7,4,15.9,6.4c0.6,0.4,1.2,0.7,1.8,1.1
	c5,3.2,9.2,7.2,11.6,12.5c0.2,0.3,0.7,0.5,1,0.4c8.7-2-4.1-10.2-6.7-11.7c-2.4-1.5-5-2.8-7.5-4c-3.2-1.8-6.6-3.5-9.8-5.1
	c-6.1-3-12.2-5.8-18.2-9c-4.2-2.3-8.3-4.7-12.7-6.7c-3.6-1.6-7.6-3.2-10.6-5.8c-3.2-2.9-2.9-6.7,0.5-9.4c3.8-3,9-0.8,12.7,1.1
	c4.1,2.1,7.8,4.7,11.9,6.5c6,2.7,12.4,4.7,18.6,7.1c3.2,1.3,6.4,2.6,9.4,4.3c0.7,0.4,1.4,0.9,2,1.3c1.5,1.9,3.1,3.7,5.1,5.2
	c2.4,1.8,5.1,3.2,7.8,4.7c2.3,1.2,6.7,2.4,7.9,4.8c0.8,1.7,0.1,3.7,1.5,5.3c1.7,1.8,6.5,2.3,6.1-1c-0.4-3.2-3.4-5.9-6.2-7.4
	c-3-1.6-6.2-2.9-9.2-4.4c-3.1-1.6-5.8-3.7-8.5-5.8c-0.9-0.7-1.9-1.4-2.8-2.1c-2.4-3.2-4.4-6.4-8.1-8.7c-4.9-3.1-10.8-4.8-16.5-6.4
	c-5-1.4-9.8-3.1-14.8-4.6c-1.7-0.5-3.8-1.1-5-2.5c-1.5-1.6-0.5-3.7,1.5-4.3c3.9-1.2,8.8-0.3,12.7,0.6c6.1,1.4,11.9,3.7,17.5,6.4
	c17.3,8.4,31.9,21.6,50.9,26.9c10.5,2.9,30.5,5.9,32.2-8.6c1-8-3.8-15.3-8.2-21.8c-4.9-7-11.2-14.5-11.8-23.2
	c-0.3-4.4,1.1-9.1,3.9-12.7c0.8-1,1.9-2.1,3.2-1.4c1.2,0.6,1.9,2.1,2.5,3.2c1.6,3.1,2.6,6.4,3.9,9.6c1.8,4.4,4.9,7.3,8.6,10.4
	c4.7,3.9,8,8.8,12.7,12.7c4.9,4.1,9.5,8.3,13.5,13.3c1.9,2.4,3.6,4.8,5.1,7.5c1.7,3,2.5,6,3,9.3c0.4,2.9,1,5.6,2.5,8.2
	c1.5,2.7,3.4,5.2,5.4,7.6c3.6,4.5,8.2,9,10.4,14.2c0.2,0.4,0.5,0.5,0.8,0.5c1.3,2,2.6,4.1,3.8,6.1c2.4,4,4.4,8.3,6.8,12.3
	c1.2,2,2.6,4,4,5.9c-5.1-2.2-11.6-1.9-16.9-1.9c-17.4,0.2-36.2-2.5-51.3-11.1c-3.8-2.2-7.3-4.7-10.2-7.9c-2.5-2.7-4.2-5.8-5.8-9
	c-1.1-2.1-2.1-4.3-2.9-6.5c1.5-3.3,2.3-6.9,1.1-10.4c-0.2-0.6-0.9-0.9-1.5-0.6c-4.2,2.1-3.1,7.2-1.8,11c-1.2,2.5-2.7,4.8-4,7
	c-1.6,2.9-3.1,5.9-4.9,8.7c-1.8,2.9-3.8,5.7-5.6,8.6c-3.7,5.7-6.7,11.6-10.8,17.1c-1.9,2.5-4.1,4.8-6.5,6.9
	c-1.9,1.7-3.9,3.4-5.5,5.4c-0.7,0.9-1.3,1.8-1.7,2.7L536.7,461.6z M475.6,396.9c2.8,0.2,5.3,0.6,7.5,1c0.4,0.1,0.9,0.2,1.3,0.3
	c0,0,0,0-0.1,0C481.5,397.7,478.6,397.3,475.6,396.9z M518.1,422c0.2,0,0.5,0.1,0.7,0.1c2,0.3,4.1,0.3,6.1,0.7
	c1.1,0.2,5,1.8,3.9,3.4c-0.5,0.8-2.6,0.7-3.3,0.5c-1-0.2-1.9-0.7-2.6-1.2C521.1,424.6,519.7,423.3,518.1,422L518.1,422z M529.3,405
	c1.2,0.9,2.4,1.8,3.5,2.8c0.5,0.5,1.1,1.1,1.5,1.7c0.5,1,0.2,1.4-0.7,1.7C532.4,408.9,531,406.8,529.3,405L529.3,405z M486.2,363.4
	c1.1,0.3,2.2,0.6,3.1,1c6.2,2.2,12.8,3.6,19,5.8c3.1,1.2,6.3,2.6,8.9,4.7c1.3,1.1,2.4,2.2,3.3,3.5c-3.3-1.8-6.7-3.3-10.3-4.7
	c-6.5-2.5-13.4-4.5-19.5-7.8C489.2,365.1,487.7,364.2,486.2,363.4L486.2,363.4z M545.1,395.2c1.5,0.9,2.6,2,3.4,3.4
	c0.5,0.8,1.9,3.1-0.1,2.7c-3-0.5-2.3-3-2.9-5C545.6,395.9,545.4,395.5,545.1,395.2L545.1,395.2z M355.4,500c-2.7,1.6-5.5,3-8.4,4.2
	c-3.4,1.4-6.6,1.9-10.3,2.1c-3.1,0.2-6,0.5-8.9,1.7c-3,1.2-5.8,2.8-8.5,4.5c-5.1,3-10.2,6.9-16,8.6c-0.4,0.1-0.6,0.4-0.6,0.7
	c-2.3,1.1-4.5,2.1-6.9,3.1c-4.5,2-9.2,3.5-13.7,5.4c-2.3,1-4.5,2.1-6.7,3.2c2.7-4.6,2.9-10.6,3.2-15.5c0.8-13.1,3.8-26.8,10.3-38.7
	c8.3,3.9,16.9,7.1,25.8,9.6c14.8,4.2,30,6.7,45.5,7.8C358.7,497.9,357.1,499,355.4,500L355.4,500z M265,410.9
	c3.2-3.4,7.1-6.2,11-8.8c4.1-2.7,8.2-5.4,11.9-8.5c3.6-3.1,6.9-6.5,10.1-10c3.5-3.7,7.1-7.3,10.7-11c3.3-3.3,6.5-6.7,10.1-9.7
	c4.7-3.9,11.4-8,17.9-8.8c2.7-0.3,4.3,0.6,4.3,3.2c-1.5,2-2.9,4.1-4.5,6.1c-3.5,4.4-7.6,8.3-11.5,12.4c-3.6,3.7-6.9,7.7-10.1,11.7
	c-1.8,2.2-3.9,4.4-5.6,6.8c-1,1.1-2,2.1-3.1,3.1c-2.4,2.1-5.7,4.6-6.7,7.7c-0.6,1.8-0.1,5.4,2.6,5.2c2.8-0.2,4.5-3.5,5.1-5.7
	c0.5-1.9,0.6-3.8,1.3-5.7c0.5-1.4,1.3-2.6,2.2-3.9c5.8-6.2,10.5-13.4,17-19c5.8-5,13.5-9.5,14.8-17.4c0.1-0.3,0.1-0.6,0.1-0.9
	c0.1-0.1,0.2-0.3,0.3-0.5c3.5-4.8,8.4-12.1,16-10.5c8.2,1.8-3.1,14.5-5.3,17.2c-2.9,3.5-5.7,7.1-7.9,11c-2.2,3.9-4.3,7.9-6.3,11.9
	c-2.5,4.8-5,9.7-8,14.3c-0.4,0.5-0.9,1.1-1.3,1.6c-3.8,4.4-8.4,8-14.2,9.9c-0.4,0.1-0.5,0.6-0.5,0.9c1.5,8.2,11.2-3.1,13.1-5.3
	c1.7-2.1,3.3-4.4,4.8-6.7c2.2-2.8,4.2-5.8,6.2-8.7c3.6-5.4,7.1-10.9,11-16.2c2.7-3.8,5.7-7.3,8.1-11.3c2-3.3,4-6.9,7-9.4
	c3.3-2.7,7.3-2.1,10,1.2c3,3.7,0.2,8.4-2.1,11.7c-2.5,3.6-5.6,6.9-7.9,10.6c-3.3,5.4-6,11.1-9,16.7c-1.6,2.9-3.2,5.8-5.3,8.4
	c-0.5,0.6-1,1.2-1.6,1.8c-2.2,1.2-4.2,2.6-6,4.3c-2.1,2.1-3.9,4.5-5.6,6.9c-1.4,2.1-3.1,6.1-5.8,7c-1.9,0.6-4-0.2-5.8,1
	c-2.1,1.5-3,5.8,0.7,5.7c3.4-0.1,6.6-2.7,8.4-5.2c1.9-2.7,3.5-5.5,5.4-8.2c2-2.8,4.4-5.1,6.9-7.5c0.9-0.8,1.7-1.6,2.5-2.5
	c3.5-2.1,7.2-3.7,9.9-6.9c3.7-4.3,5.9-9.7,8-14.8c1.9-4.5,4-8.9,6-13.4c0.7-1.6,1.5-3.5,3-4.5c1.9-1.2,4-0.2,4.5,1.7
	c1,3.7-0.3,8.2-1.6,11.7c-2,5.5-4.8,10.8-8.1,15.7c-10.3,15.5-25.5,28-32.5,45.2c-3.9,9.5-8.6,27.8,6.9,30.5
	c8.5,1.5,16.8-2.4,24-6.1c7.9-4,16.4-9.3,25.7-9.2c4.8,0,9.7,1.6,13.4,4.6c1,0.8,2.1,1.9,1.2,3.1c-0.8,1.1-2.4,1.6-3.6,2.1
	c-3.4,1.3-7.1,1.9-10.6,2.9c-4.8,1.3-8.2,4-11.7,7.2c-4.5,4.1-10,6.8-14.6,10.8c-2.5,2.2-5.1,4.4-7.7,6.4c-10.8-0.6-21.6-2-32.1-4.1
	c-14.1-2.9-27.8-7.2-40.7-13.2c1.3-2.1,2.6-4.2,4.2-6.1c2.6-3.3,5.6-6.4,9.2-8.9c3.1-2.1,6.5-3.5,10-4.7c2.4-0.8,4.7-1.6,7.2-2.2
	c3.5,1.6,7.2,2.7,11,1.7c0.7-0.2,1-0.8,0.7-1.4c-2-4-7.5-3.4-11.7-2.4c-2.5-1.3-5-2.9-7.2-4.2c-3-1.7-6.1-3.3-9-5.2
	c-3-1.9-5.8-3.9-8.8-5.8c-5.8-3.8-12-7.1-17.5-11.3c-2.6-2-4.9-4.2-7-6.5c-1.7-1.9-3.4-3.8-5.4-5.5c-0.9-0.7-1.8-1.3-2.8-1.8
	C263.7,412.5,264.4,411.8,265,410.9L265,410.9z M340.1,361.5c-1.1,2.5-3,4.8-5.1,6.7c-0.4,0.4-0.8,0.7-1.3,1.1c0,0,0,0,0,0
	C336,366.7,338.1,364.1,340.1,361.5L340.1,361.5z M307,398.8c-0.1,0.2-0.1,0.4-0.2,0.6c-0.5,1.8-0.6,3.8-1.3,5.6
	c-0.3,1-2.3,4.5-3.9,3.4c-0.8-0.6-0.6-2.4-0.4-3.2c0.3-0.9,0.9-1.6,1.5-2.4C303.9,401.4,305.5,400.1,307,398.8L307,398.8z
	 M324.4,410.4c-1,1.1-2.1,2.1-3.2,3.1c-0.6,0.5-1.2,1-1.9,1.2c-1.1,0.4-1.5,0-1.7-0.7C320,413.1,322.3,411.9,324.4,410.4
	L324.4,410.4z M372.2,373.5c-0.4,1-0.8,2-1.3,2.8c-2.8,5.6-4.7,11.6-7.7,17.2c-1.5,2.8-3.2,5.7-5.6,7.9c-1.2,1.1-2.6,2-4,2.8
	c2.2-2.9,4-6,5.7-9.2c3.1-5.8,5.8-12.1,9.7-17.5C370.1,376.2,371.1,374.8,372.2,373.5z M333.8,425.9c-1,1.3-2.3,2.2-3.9,2.9
	c-0.9,0.4-3.5,1.6-2.9-0.2c0.8-2.7,3.3-1.9,5.6-2.3C333,426.2,333.4,426,333.8,425.9L333.8,425.9z M324.1,454.9
	c1.9-0.3,4.2-0.3,5.6,0.8C327.8,455.8,325.9,455.5,324.1,454.9z M253.8,418.7c0.7-1.4,1.6-3,2.9-3.9c0.2-0.1,0.3-0.3,0.4-0.5
	c0.3-0.1,0.7-0.1,1-0.2c0.7-0.1,1.3,0,2,0.1c-3,3.8-5.7,7.9-8.1,12.1c-0.7,1.2-1.4,2.4-2.1,3.6C250.7,425.9,252.1,422.1,253.8,418.7
	z M249.3,435c2.2-4.4,4.6-8.7,7.3-12.8c1.6-2.5,3.4-5,5.2-7.4c0.1,0,0.3,0.1,0.4,0.2c2.3,1.1,4.1,3.1,5.8,4.9c4,4.4,8,8.3,13,11.6
	c5.4,3.7,11.2,6.9,16.6,10.5c5.5,3.7,11.2,6.9,16.8,10.2c1.2,0.7,2.4,1.4,3.6,2.1c-6,1.7-12.1,3.9-17,7.5c-5.4,4-9.7,9.1-13,14.8
	c-6.7-3.2-13.2-6.9-19.4-11.1c-4.5-3.1-9.3-6.2-13-10.2c-3.3-3.5-5.3-7.8-6.1-12.4C249.2,440.4,249.1,437.7,249.3,435z M263.7,340.7
	c-0.4-2.1-1-4.7-0.9-7C264.6,336.2,265.4,338.7,263.7,340.7z"/>
</svg>
