<?xml version="1.0" encoding="utf-8"?>
<!-- Generator: Adobe Illustrator 27.4.1, SVG Export Plug-In . SVG Version: 6.00 Build 0)  -->
<svg version="1.1" id="_x2014_ÎÓÈ_x5F_1" xmlns="http://www.w3.org/2000/svg" xmlns:xlink="http://www.w3.org/1999/xlink"
	 x="0px" y="0px" viewBox="0 0 607.5 300" style="enable-background:new 0 0 607.5 300;" xml:space="preserve">
<style type="text/css">
	.st0{fill:#FFFFFF;}
	.st1{fill:#69A6C2;}
</style>
<rect x="2718.9" y="-828.3" class="st0" width="2200" height="2200"/>
<g>
	<path class="st1" d="M598.7,275.9c-0.2,0-0.5,0-0.7-0.1c-23-6.5-57.4-11.7-82.3-14.9c-21.6-2.8-40.1-4.6-47-5.2
		c-0.2,0.5-0.5,1-0.9,1.5c-1.3,1.7-3.8,3.8-8.5,4.4c-5.9,0.8-10.3-2.8-11.9-6.5c-0.4-0.9-0.6-1.7-0.7-2.5c-1-0.1-2.1-0.4-3.1-0.8
		c-2.1-0.8-4-2.2-5.5-4c-2.3-2.7-3.3-5.8-3.1-8.7c-28.6-4.1-82.6-9-144.1-9.9c-10.2-0.2-17.9-0.6-23.5-1.4
		c-7.9-1.1-11.5-2.8-12.2-5.8c-0.8-3.7,3.1-7,13.5-11.4c8.1-3.4,17.9-7.4,28.2-11.6l1.5-0.6c18.7-7.6,38-15.6,47.3-19.9
		c5.2-2.4,6-3.8,6.1-4.1c-0.2-0.4-2.5-3.1-19.7-5.6c-31.4-4.5-106.4-9.7-108.4-9.7c-0.5,0-5.5-0.4-19.8-1.6l-10.8-0.9
		c-9-0.7-19.2-1.6-19.9-1.6c-0.6,0-2.1-0.2-3.3-0.5c-1.1-0.3-3.9-1-4.1-3.4c-0.2-2.6,2.8-3.6,3.8-3.9c1.8-0.6,4.5-1.1,8.5-1.7
		c20.8-2.9,37.5-2,45.6-1.2c7.2,0.7,16.2,3.1,21.3,4.7c0.1-0.8,0.3-1.5,0.7-2.2c1-2.2,3.1-3.8,6.1-4.8c2.5-0.8,5.2-0.3,7.4,1.6
		c0.6,0.5,1.2,1.1,1.7,1.7c2.2-2.3,3.5-4.9,0.7-8.3c-2.9-3.6-8.6-1.8-8.8-1.7c-1,0.4-2.2,0-2.9-1c-0.7-1.1-0.5-2.4,0.4-3.2
		c0,0,0,0,0,0c1-1,1.8-2.1,2.4-3.3c1.2-2.5,1-4.9-0.5-7.4c-1.3-2-3.2-3-5.8-2.9c-2.1,0.1-3.9,0.8-3.9,0.8c-1,0.4-2.2,0.2-2.9-0.6
		c-0.8-0.9-0.9-2.2-0.1-3.1c0.6-0.8,2.1-3.3,1.8-5.1c-0.1-0.6-0.4-1-0.9-1.4c-1.8-1.3-3.3-1.8-4.6-1.5c-2,0.5-3.2,2.9-3.3,3.1
		c-0.3,0.8-1.1,1.4-1.9,1.5c-0.8,0.1-1.6-0.1-2.2-0.7c-0.5-0.5-2.7-2.1-6.3-0.2c-1.9,1-2.9,2.3-2.9,3.6c0.1,0.4,0.2,0.9,0.3,1.3
		c0.1,1.3-0.7,2.4-2,2.7c-1.2,0.3-2.4-0.4-2.9-1.5c-0.2-0.3-0.3-0.9-0.4-1.6c-0.3-0.9-0.9-2.4-2.2-3.3c-1.1-0.8-2.7-1.1-4.5-0.8
		c-0.9,0.1-1.8-0.2-2.4-1c-0.6-0.9-0.7-1.8,0-2.9c2.4-4.2,3-8,1.7-10.8c-1.2-2.5-4.1-4.2-8.6-5.2c-4.4-1-8.8-0.2-12,2.1
		c-2.1,1.6-3.5,3.8-3.5,5.6c0,4.4,2.1,6.9,2.2,7c0,0,0,0,0,0c0.8,0.9,0.8,2.3,0.1,3.2c-0.7,0.9-1.9,1.1-2.9,0.7c0,0,0,0,0,0
		c-0.5-0.2-2.2-0.8-4.4-0.6c-3.3,0.3-5.9,2.2-8,5.9c-0.6,1-0.7,2-0.3,3c1,3.5,6.2,6.8,8,7.7c0.6,0.3,1.1,0.8,1.3,1.5
		c0.2,0.6,0.1,1.3-0.2,1.9c-0.6,1.1-1.9,1.6-3.1,1.2c0,0,0,0,0,0c-1.2-0.4-3.1-0.7-4.2-0.3c-0.4,0.2-0.7,0.5-0.9,1
		c-1,2.6,2,4.5,2.1,4.6c0.6,0.4,1,0.9,1.1,1.6c0.1,0.7,0,1.3-0.4,1.9c-0.8,1.1-2.3,1.4-3.4,0.7c-0.9-0.6-4.3-2.2-5.8-0.8
		c-0.3,0.3-0.4,0.5-0.3,0.8c0.1,0.7,0.7,1.6,1.1,2.1c0.5,0.3,0.8,0.6,1,1.1c0.5,1.2,0.1,2.5-1.1,3.2c-0.7,0.4-1.6,0.4-2.3,0.1
		c-2.6-0.6-16.5-3.4-34.3-5.9c-7.9-1.1-16.2-2.1-23.9-2.8c-0.9-0.1-1.6-0.8-1.6-1.7c0-0.2-0.1-0.4-0.2-0.6c-0.3-0.6-0.3-1.3,0.1-1.8
		c0.4-0.5,1-0.8,1.7-0.8c8.1,0.8,16.7,1.8,25.4,3c11.2,1.6,20.1,3.2,24.5,4c1.7,0.3,3.2,0.6,4.6,0.9c-0.2-1.9,0.4-3.6,1.8-5
		c1.3-1.3,2.9-1.9,4.8-2c-0.3-1.4-0.1-2.8,0.4-4.2c0.6-1.6,1.7-2.9,3.2-3.6c-0.1-0.1-0.1-0.1-0.2-0.2c-5.9-5.6-4.5-10.4-3.2-12.8
		c3.6-6.5,8.6-8.2,12.1-8.4c0.4,0,0.8,0,1.2,0c-0.5-1.5-0.8-3.3-0.8-5.4c0-3.4,2.1-7,5.6-9.5c4.4-3.2,10.3-4.3,16.1-3
		c6.1,1.4,10.1,4,12,7.9c1.6,3.3,1.5,7.5-0.2,12c1.4,0.3,2.8,0.8,3.9,1.7c0.4,0.3,0.8,0.7,1.2,1c0.9-1,2-1.9,3.4-2.6
		c3.8-2,6.9-1.7,8.8-1c0.3,0.1,0.6,0.2,0.9,0.3c1.1-1.4,2.8-2.9,5.2-3.5c2.8-0.7,5.8,0.1,8.8,2.3c2.6,1.9,3.6,4.9,2.6,8.4
		c0.1,0,0.2,0,0.2,0c4.4-0.2,8,1.7,10.3,5.2c2.4,3.8,2.7,8,0.8,12c3.4,0.2,6.3,1.6,8.3,4c3.1,3.7,5.1,9.6-2.7,16.3
		c-0.1,0.1-0.2,0.1-0.2,0.2c-0.3,0.5-0.9,0.9-1.5,1c-1.8,0.5-2.8-1-3.1-1.5c-1.7-2.8-3.2-3.8-4.7-3.3c-1.6,0.5-2.7,1.3-3.1,2.2
		c-0.5,1.1-0.1,2.4,0,2.6c0,0,0,0,0,0c0.4,0.9,0.1,1.9-0.5,2.6c-0.8,0.7-1.8,0.9-2.7,0.6c-1.5-0.5-14.5-4.7-23.9-5.6
		c-7.9-0.8-24.2-1.6-44.4,1.2c-0.2,0-0.3,0-0.5,0.1c3.2,0.3,8.1,0.7,15.3,1.3l9.8,0.8c9.2,0.8,19.5,1.6,20.3,1.6
		c0.8,0,21,1.4,42.9,3.1c30.6,2.5,52.8,4.7,66.2,6.6c7.7,1.1,13.6,2.4,17.4,3.9c2.6,1,6.1,2.7,6.6,5.8c0.7,4.2-4.1,7-8.9,9.3
		c-9.7,4.6-30.4,13-48.7,20.5l-0.4,0.2c-10.3,4.2-20,8.2-28.1,11.6c-7.6,3.2-9.7,5.1-10.3,5.8c0.6,0.4,2.5,1.3,7.8,2
		c5.3,0.7,12.8,1.1,22.9,1.3c62.9,0.9,117.7,6,146.1,10.2c1.9-2.5,4.4-4.2,7.3-4.9c3.6-0.9,7.1-0.2,9.8,0.6c0.1-1.8,0.6-4,2-6.2
		c2.1-3.2,5.8-5.5,11-6.9c-0.3-9.1-0.5-18.3-0.7-24.8c-0.1-2-0.1-3.7-0.2-5.1c-0.7,0.3-1.4,0.5-2.2,0.7c-4.8,1.4-9.6,1-13.9-1
		c-5.1-2.4-8-5.5-8.8-9.3c-0.1-0.6-0.2-1.1-0.2-1.7c-1.2,0.5-2.3,0.8-3.5,1c-5,0.8-9.6-0.7-13.9-4.4c-5.3-4.7-7.8-9.4-7.3-14.1
		c0.2-2.5,1.5-6.2,5.8-9.7c-0.3-0.3-0.6-0.6-0.9-1c-1.4-1.9-1.7-4.2-0.8-6.5c0.8-2.1,2.3-3.6,4.2-4.4c0.3-0.1,0.5-0.2,0.8-0.3
		c-0.2-0.4-0.4-0.7-0.6-1.1c-2.4-4.6-2.5-9.4-0.1-13.9c1.9-3.7,4.8-6.2,8.4-7.3c1.7-0.5,3.7-0.7,5.7-0.6c-1.6-2.3-3.2-5.3-3.8-8.7
		c-0.7-4.6,0.6-8.7,3.9-12.2c3.7-3.9,7.9-6,12.5-6.3c1.2-0.1,2.4,0,3.7,0.2c-0.3-2.6,0.4-5.3,2.2-8.1c2.3-3.6,5.9-5.7,10.6-6
		c0.7,0,1.3,0,1.9,0c-0.2-1.7-0.1-3.9,0.8-6.1c1.3-3.1,4-5.4,8-6.9c4.5-1.7,8.5-1.9,11.7-0.6c0.9,0.4,1.8,0.9,2.5,1.5
		c0.4-0.5,0.9-0.9,1.4-1.2c2.7-1.9,6.6-2.6,11.6-1.8c6.5,1,9.5,3.9,10.9,6.2c0.2,0.4,0.5,0.8,0.7,1.2c2.2-1.2,5.7-2.8,10-3.9
		c4.5-1.1,8.9-1.3,13-0.7c5.2,0.8,9.9,3,14.1,6.6c6.8,5.8,10.3,12,10.3,18.5c0.1,5.7-2.4,11.3-7.4,16.8c0.7,0,1.4,0.1,2.1,0.2
		c4.6,0.8,8.1,3.6,10.2,8.2c1.8,3.9,1.4,8.1-1,12c-0.6,0.9-1.2,1.8-1.9,2.6c1.2,0.1,2.5,0.2,4,0.4c4.3,0.6,10.4,1.9,15.8,5.3
		c6.5,4.1,10,10.1,10.5,17.6c0.6,9.4-2.1,16.6-8,21.3c-5.7,4.6-13.3,5.8-18.7,6c-2.4,0.1-4.8,0-7.2-0.2l0.1,3.4
		c1.5-0.3,3.2-0.1,5.2,0.7c2.5,0.9,3.4,2.5,3.8,3.7c0,0.1,0.1,0.2,0.1,0.3c3.3-0.6,6.9,0.2,10.6,2.4c3.8,2.3,5.3,5.4,4,8.5
		c-1,2.4-3.7,4.4-7.6,5.6c-3.7,1.1-8.2,1.3-12.6,0.7c-2.3-0.4-4.1-0.7-5.6-0.9l-0.6-0.1c-2.9-0.5-4.3-0.7-5.4-0.7
		c-0.6,0-1.3,0.2-2.3,0.6c1.2,2.2,2.7,5.3,3.3,8.4c0.6,2.8-0.3,5.9-2.4,8.5c-2.2,2.8-5.4,4.7-8.6,5c-0.8,0.1-1.4,0.1-1.9,0.1
		c-6,0-8.1-3.3-8.9-5.2c-0.1-0.2-0.1-0.4-0.2-0.6c-4.2,1.9-12.4,4.3-18.6-2.2c-3.9-4.1-4.4-9.1-1.4-13.7c-3.6-1-6.2-2.6-7.7-4.9
		c-1.1-1.7-2.2-4.7-0.6-9c1.4-3.8,4.4-6.5,8.5-7.6c4.2-1.1,8.5-0.3,11.2,0.9c5.3-4,10.6-3,13.9-1.6c-0.9-1.1-2.2-2-3.5-2.6
		c-3-1.2-6.3-1-8.5-0.7c-2.3,0.4-3.9,1-4.3,1.2c-0.1,0-0.1,0.1-0.2,0.1c0,0-0.1,0.1-0.1,0.1c-1,0.5-2.2,0.3-3-0.5
		c-1-1.1-5.7-2.7-11.4-2.4c-3.3,0.2-9.4,1.3-13,6.3c-4.5,6.2-3.9,11.7-2.6,15.1c1.3,3.5,3.7,5.6,4.3,5.9c1.2,0.3,1.9,1.5,1.8,2.7
		c-0.1,1.1-1.1,2-2.2,2.1c-1.5,0.1-2.9,1.3-3.7,3.1c-1,2.2-1.1,5.7,1.6,8.8c4.5,5.2,14.7,1.9,14.8,1.8c0.7-0.2,1.6-0.2,2.2,0.2
		c0.7,0.4,1.2,1.2,1.2,2.1v13.8c0,1.4-1.1,2.5-2.5,2.5c-1.2,0.1-2.4-0.9-2.5-2.2l0,0c0,0-0.2-1-1.1-2.3c-1.4-1.9-3.8-3.3-7-4.2
		c-4.3-0.7-6.4,1-7.6,2c-0.7,0.6-1.6,1.4-3,1c-1-0.3-1.6-0.9-1.9-1.7c0,0,0-0.1,0-0.1c-0.1-0.3-0.1-0.5-0.1-0.7c0-0.1,0-0.2,0-0.3
		c0-0.3-0.4-1.8-2.6-3.8c-3.4-3.1-7.9-4.6-12.1-4.1c0.3,12.3,0.6,22.8,0.6,25.7c0,1-0.6,1.8-1.4,2.2c-0.8,0.4-1.8,0.3-2.6-0.2
		c-0.2-0.1-2.3-1.5-7-3.3c-4.3-1.7-11.5-3.9-21.9-5.7c-0.1,1.5,0.6,3.3,1.9,4.8c2.1,2.5,4.9,3.5,7.7,2.9c1.2-0.3,2.4,0.3,2.9,1.3
		c0.5,1.1,0.2,2.4-0.7,3.1c0,0.2,0,0.6,0.2,1.3c0.9,2,3.3,4,6.5,3.5c5.2-0.7,5.9-3.7,5.9-4c0.2-1.3,1.4-2.3,2.8-2.2
		c0.2,0,22,2,49.2,5.4c25.1,3.2,59.8,8.5,83.1,15.1c0.4,0.1,0.7,0.3,0.9,0.6c0.3,0.2,0.5,0.5,0.7,0.8c0.3,0.6,0.3,1.3,0.1,1.9
		C600.7,275.3,599.7,275.9,598.7,275.9z M598.3,274.5L598.3,274.5L598.3,274.5z M598.9,272.4C598.9,272.4,598.9,272.4,598.9,272.4
		C598.9,272.4,598.9,272.4,598.9,272.4z M449.6,248.9C449.6,248.9,449.5,248.9,449.6,248.9C449.5,248.9,449.6,248.9,449.6,248.9z
		 M443,235.3c9.8,1.7,16.6,4,20.8,5.6c1.6,0.6,2.9,1.2,4,1.7c-0.1-4.2-0.3-10.9-0.5-20.5c-3.3,1-5.6,2.5-6.9,4.4
		c-1.9,2.8-1,6-0.8,6.7c0,0,0,0,0,0c0.3,1,0,2.1-0.9,2.7c-0.8,0.6-2,0.7-2.9,0.1c0,0-5.6-3-10.3-1.9c0,0-0.1,0-0.1,0
		C444.5,234.5,443.7,234.8,443,235.3z M511.1,234.7C511.1,234.7,511.1,234.8,511.1,234.7C511.1,234.8,511.1,234.7,511.1,234.7z
		 M503.6,224.8c1.6,0.7,3,1.4,4.1,2.2v-2.7C506.5,224.6,505.1,224.8,503.6,224.8C503.6,224.8,503.6,224.8,503.6,224.8z M474,216
		c5,0,10.1,2,13.9,5.6c1.3,1.2,2.4,2.5,3.1,3.8c1.2-0.7,2.8-1.4,4.7-1.6c-2-0.8-3.7-2-5.1-3.5c-4.2-4.9-4-10.5-2.4-14
		c0.8-1.7,1.9-3.1,3.2-4.1c-1.4-1.6-2.7-3.7-3.5-5.9c-1.1-2.9-1.5-6-1.1-9.1c0.4-3.7,1.9-7.2,4.4-10.6c3.6-5,9.6-7.9,16.8-8.4
		c3-0.2,6.2,0.1,9.1,0.8c1.9,0.5,3.6,1.1,4.8,1.9c1-0.4,2.5-0.8,4.4-1.2c4.2-0.7,8.1-0.4,11.5,0.9c5,2,9.2,7.1,7.5,13
		c-0.3,1.2-1.6,2-3,1.8c-0.7-0.2-1.2-0.5-1.5-1c-0.5-0.4-3.1-2.6-6.6-2.9c-2.4-0.2-4.7,0.7-6.8,2.7c-0.9,0.9-2.3,0.9-3.3,0.1
		c-1.3-1-5.2-2-8.6-1.1c-2.5,0.7-4.2,2.1-5,4.4c-0.7,2-0.7,3.5,0.1,4.7c1.1,1.7,3.7,2.8,7.8,3.4c0.8,0.1,2.1,0.3,2.6,1.8
		c0.3,0.9,0.1,1.8-0.6,2.5c0,0-0.1,0.1-0.1,0.1c-0.7,0.6-3.1,2.9-3.2,5.6c-0.1,1.5,0.6,3,2,4.5c1.7,1.8,3.7,2.7,6.2,2.7h0.1
		c4.1,0,8.3-2.4,9.6-3.4c0.2-0.2,0.4-0.4,0.7-0.6c0.6-0.4,1.3-0.5,2-0.3c0.7,0.2,1.3,0.7,1.6,1.4c0.2,0.5,0.5,1.6-0.6,2.7
		c-0.1,0.3-0.2,1.1,0.2,1.9c0.8,1.9,3.4,2,5.5,1.8c1.8-0.2,3.8-1.4,5.2-3.1c1.2-1.5,1.7-3.1,1.4-4.5c-0.6-3.1-2.6-6.7-3.6-8.4
		l-0.1-0.1c-0.7-1.2-1.1-1.9-0.7-3.1c0,0,0-0.1,0.1-0.1c0.3-0.6,0.8-1,1.4-1.3l1-0.4c5-1.9,5.5-1.9,12.1-0.8c1.6,0.3,3.6,0.6,6.2,1
		c7.6,1.2,13.8-1.1,14.7-3.2c0.4-1-1.4-2.1-2-2.5c-4.3-2.6-7.9-2.5-10.6,0.1l-0.2,0.2c-1.2,1-2.6,0.8-3.5,0
		c-0.5-0.5-0.8-1.1-0.8-1.7c0-0.5,0.1-1.2,0.7-1.8c1.3-1.4,1.4-2.3,1.4-2.5c0,0-0.1-0.2-0.7-0.4c-1.2-0.5-2.2-0.6-2.7-0.3
		c-0.4,0.2-0.6,0.8-0.6,0.8c-0.2,1.1-1.4,2-2.6,1.9c-1.4-0.1-2.4-1.2-2.4-2.5l-0.2-11.3c0-0.8,0.3-1.5,0.9-2
		c0.6-0.5,1.3-0.6,2.1-0.5c0,0,0.1,0,0.1,0c0.3,0,4.2,0.7,9.1,0.5c4.6-0.2,11.1-1.2,15.7-4.9c4.6-3.7,6.6-9.4,6.1-17.2
		c-0.4-5.9-3.1-10.5-8.2-13.7c-4.5-2.9-9.9-4.1-13.7-4.6c-4.7-0.6-8-0.3-8.5-0.2c-2.1,0.6-3-0.4-3.4-1c-0.5-0.8-0.7-2.1,0.6-3.3
		c0.1-0.1,0.3-0.3,0.5-0.5l0.3-0.2c3.8-3.2,7.8-7.5,5.5-12.6c-2.8-6.2-8.2-6-13-4.9c-0.6,0.1-1,0.2-1.5,0.2c-1.1,0-2-0.6-2.4-1.6
		c-0.3-0.6-0.4-1.7,0.7-2.9c0,0,0.1-0.1,0.1-0.1c0.2-0.2,0.4-0.4,0.8-0.7c2.5-2.2,10.1-8.9,10-17.2c-0.1-5-3-10-8.6-14.8
		c-6.3-5.4-13.9-7-22.6-4.8c-6.5,1.6-11.1,4.8-11.3,4.9c0,0,0,0-0.1,0c-0.7,0.5-1.7,0.6-2.5,0.2c-0.9-0.4-1.4-1.3-1.4-2.3
		c0,0,0-1.2-0.9-2.6c-1.3-2-3.7-3.3-7.3-3.8c-3.5-0.5-6.3-0.2-7.9,1c-1.2,0.9-1.4,2-1.4,2c-0.2,1.1-1.1,2-2.2,2.1
		c-1.1,0.1-2.2-0.5-2.6-1.5c-0.2-0.4-0.9-1.7-2.6-2.4c-2-0.8-4.7-0.6-7.9,0.6c-2.6,1-4.3,2.4-5.1,4.2c-1.1,2.5-0.1,5.4,0.3,6.2
		c0,0,0,0,0,0c0.4,0.9,0.2,2-0.5,2.7c-0.7,0.7-1.7,0.9-2.5,0.7c0,0,0,0,0,0c-0.5-0.1-2.3-0.6-4.3-0.4c-3,0.2-5.1,1.4-6.5,3.7
		c-1.4,2.2-1.8,4.1-1.3,5.7c0.3,0.8,0.8,1.6,1.6,2.3c1,0.6,1.7,1.1,1.9,1.3c0,0,0.2,0.1,0.2,0.2c1,0.9,1.1,2.3,0.3,3.3
		c-0.7,1-2.1,1.3-3.1,0.7c-0.5-0.2-1.3-0.7-2.2-1.4c-1.7-0.9-4.3-2-7.2-1.8c-3.2,0.2-6.3,1.8-9.1,4.7c-2.3,2.4-3.1,5-2.6,8
		c1,6.1,6.8,11.3,8,11.9c0.5,0.3,1,0.8,1.2,1.5c0.2,0.6,0.1,1.3-0.3,1.9c-0.7,1.1-2.1,1.5-3.3,0.9c-0.1,0-5.9-3-10.9-1.4
		c-2.3,0.7-4.1,2.3-5.4,4.8c-1.6,3.1-1.6,6.2,0.1,9.4c1.3,2.4,3.1,4,3.1,4c1,0.9,1.1,2.2,0.4,3.3c-0.6,0.9-1.9,1.3-2.9,1
		c0,0,0,0,0,0c-0.9-0.3-2.3-0.5-3.3,0c-0.7,0.3-1.1,0.8-1.5,1.7c-0.3,0.8-0.1,1.3,0.1,1.6c0.5,0.8,1.6,1.3,1.9,1.4
		c1,0.1,1.8,0.8,2,1.7c0.2,0.5,0.4,2-1.4,3c-5,3-6.3,6-6.4,8c-0.3,3,1.6,6.4,5.7,9.9c4.8,4.2,10,4.5,15.7,0.7c0.7-0.4,2-1.3,3.4-0.3
		c0.9,0.7,1.3,1.8,1,2.9c0,0.1-0.1,0.2-0.1,0.4l-0.1,0.1c-0.9,2.2-2.6,6.2,5.4,10c7.5,3.6,14.7-1.2,14.8-1.3c0,0,0,0,0,0
		c0.6-0.4,1.4-0.6,2.1-0.4c0.2,0,0.4,0.1,0.5,0.1c0.9,0.4,1.4,1.2,1.5,2.2c0.1,1.3,0.6,17.7,1,33C472.8,216,473.4,216,474,216z
		 M495.9,203.8C495.9,203.8,495.9,203.8,495.9,203.8C495.9,203.8,495.9,203.8,495.9,203.8z M568.5,189.2
		C568.5,189.2,568.5,189.2,568.5,189.2C568.5,189.2,568.5,189.2,568.5,189.2z M561.9,183.8L561.9,183.8
		C561.9,183.8,561.9,183.8,561.9,183.8z M559.8,183.6C559.7,183.6,559.7,183.6,559.8,183.6C559.7,183.6,559.7,183.6,559.8,183.6z
		 M543.9,182.3C543.9,182.3,543.9,182.3,543.9,182.3C543.9,182.3,543.9,182.3,543.9,182.3z M431.1,137.9
		C431.2,137.9,431.2,137.9,431.1,137.9C431.2,137.9,431.2,137.9,431.1,137.9z M251.4,132.1C251.4,132.1,251.3,132.1,251.4,132.1
		C251.3,132.1,251.4,132.1,251.4,132.1z M176,126.9C176,126.9,176,126.9,176,126.9C176,126.9,176,126.9,176,126.9z M446.2,119
		C446.2,119,446.3,119.1,446.2,119C446.3,119.1,446.2,119,446.2,119z M242,116.9C242,116.9,242,116.9,242,116.9
		C242,116.9,242,116.9,242,116.9z M240.7,115.2C240.7,115.2,240.7,115.2,240.7,115.2C240.7,115.2,240.7,115.2,240.7,115.2z"/>
	<path class="st1" d="M97.1,268c-0.6,0-1.9-0.4-3-0.9c0,0-0.1,0-0.1,0c-2.2,0.6-4,0.5-5.5-0.4c-2.2-1.3-2.7-3.7-3.1-5.3
		c-0.6-2.7,2-4.5,4-5.9l0.3-0.2c0.3-0.2,0.6-0.4,0.9-0.7c0,0,0-0.1,0-0.1c-0.4-1.4-1.1-3.7,0-8.4c1.2-5.2,0.3-8.2-1.2-11.8
		c-0.8-2.1-4.4-9-7.9-15.5c-0.4,1.3-0.9,3.1-1.3,5.7c-0.1,0.5-0.2,1.1-0.2,1.5c-0.9,6.1-1.3,8.6-5.9,15c-2.2,3-4.4,4.5-6.8,4.5
		c-2,0-3.7-1-5.2-2.9c-1.1-1.4-0.4-3.2,0.5-5.8l0-0.1c0.6-1.7,1.3-3.7,1.4-5.4c0.2-2.6-1.6-9.1-2.2-11.6l-0.1-0.2
		c-0.4-1.6-0.6-2.2-0.6-2.7c-0.1-0.2-0.3-0.5-0.4-0.7l-0.2-0.3c-0.3-0.5-0.8-1.1-1.2-1.9c-0.6-1.1-2-2.3-4.2-4.3
		c-0.8-0.7-1.6-1.4-2.5-2.3c-2.4-2.2-14.7-9.2-22.1-13.3l-1.3-0.8c-3-1.7-5.3-3-6.4-3.7c-6.2-3.9-5.8-11.2-5.7-13.6
		c0.3-5.6,12.4-20.6,12.5-20.8c0-0.1,0.1-0.1,0.1-0.1c7.3-7,7.7-8,7.7-11.8c0-3.2-4.5-17.4-6.2-22.7c-0.5-1.6-0.9-2.8-1.2-3.7
		c-1,1.2-2.2,2-3,2.3c-1.8,0.9-3.9,1.1-5.3,0.5c-3-1.3-7-11.5-7.3-14.5c-0.1-1.2-0.6-4-1.1-6.7l0-0.1c-0.6-3.7-1.4-8-1.5-10.1
		c-0.2-2.5,0-4.9,0.1-6.9l0-0.3c0.1-0.7,0.1-1.7,0.1-2.3c0-3.8,3.4-4.9,5.9-5.6c1.1-0.3,2.3-0.6,3.4-0.1c2-2.6,7.8-6,8.9-6.2
		c1.2-0.2,3.4-1.4,4.4-3c-0.3-1.3-1-3.3-1.3-4.1c-0.3-0.1-0.9-0.4-2.2-1l-0.3-0.1c-2.1-0.9-3.3-1.4-4-2.2c-1-1.2-0.7-2.9,0.1-7.1
		l0.1-0.5c0.1-0.7,0.4-2,0.5-2.7c-0.8-0.8-1.2-1.7-1.2-2.9c0-1.4,1.1-2.5,2.9-3.9c0.2-0.1,0.4-0.3,0.5-0.4c-0.1-0.3-0.2-0.6-0.3-0.8
		c-0.1-0.2-0.1-0.3-0.1-0.4c0,0,0-0.1,0-0.1c-0.7-2.1,0.7-3.6,2.8-5.7c0-0.7,0.2-1.3,0.5-1.9c1.2-2.3,6.2-5.9,17-3.2
		c4.7,1.2,8.4,4.1,10.5,8.1c1.8,3.5,2.1,7.6,0.9,10.6c-1.3,3.2-3.8,5.2-5.7,6.6l-0.1,0.1c-0.7,0.6-1.6,1.3-1.8,1.7
		c-0.5,0.9-0.5,0.9,0.4,2.4l0.1,0.1c0.1,0.2,0.2,0.4,0.3,0.6c0.5,0.8,2.7,1.1,5.4,1.5c1.4,0.2,3.1,0.4,4.9,0.8
		c6.9,1.3,12,3.7,14.5,5.6c0.9,0.7,3.2,1.7,5.9,2.8l0.5,0.2c3,1.3,6.7,2.9,11.1,5.1c5.1,2.5,7.5,4.8,7.6,7.4c0.1,1.2-0.4,2-0.8,2.5
		c-1.3,6.3-8.6,15.2-15.5,23.1c-0.8,0.9-2.3,2.6-2.5,3c-0.1,0.2,0.2,1,0.8,2.4c0.4,0.9,0.8,1.9,1,2.8c0.6,2.6,0.2,6.4-0.8,7.9
		c-1,1.5-2.6,1.4-3.6,1.4c-0.2,0-0.6,0-0.8,0c-1.3,0.3-2.3-0.1-2.8-0.3c-0.2-0.1-0.3-0.1-0.4-0.1c-0.1,0-0.2,0-0.4,0.1l-0.1,0
		c-0.4,0.1-1,0.4-1.9,0.4c-0.6,0-1.2-0.2-1.6-0.5l0.1,0.9c1.3,10.9,2.2,17.7,2,19.4c-0.2,2.1-1.4,4.7-3,7.8l-0.2,0.4
		c-0.5,1-1.1,2.3-1.3,2.8c0.2,0.9,1.5,3.9,2.1,5.4c1.6,3.7,3.4,8,3.9,11.1c0.8,5.6,4.7,16.3,6.1,17.5c2.5,2.2,6.9,9.2,9.9,14.9
		c2.3,4.4,2.5,5.6,2.3,7.6c-0.1,0.6-0.1,1,0,1.8c0.2,3,6.6,18.5,8.2,20.6c0.1,0.1,0.2,0.3,0.3,0.4c2.8,0,6.6,3,10.4,6.4
		c0.2,0.2,0.4,0.4,0.6,0.5c0.1,0.1,0.2,0.1,0.2,0.2c1.1,0.9,1.6,2,1.7,3.2c0.1,2.1-1.2,4.5-4.7,8.4c-0.6,0.7-1.2,1.4-1.8,1.9
		c-0.3,0.3-0.6,0.6-0.8,0.9c-2.4,2.6-3.6,3.9-6.4,7.9c-1.8,2.6-4.1,3.4-6.1,3.6c-0.2,0.6-0.8,1.1-1.4,1.2
		C97.2,268,97.2,268,97.1,268z M89.5,260.8c0.2,0.9,0.5,2.1,1.1,2.4c0.5,0.3,1.3,0.2,2,0c0,0,0,0,0,0c0.8-1.1,2.2-0.9,3.1-0.8l0.1,0
		c2.2,0.4,4.1,0.5,5.6-1.6c2.9-4.1,4.2-5.6,6.7-8.2l0.1-0.1c0.3-0.3,0.6-0.6,0.9-0.9c0.5-0.6,1.1-1.2,1.7-1.9
		c3.4-3.8,3.6-5.1,3.6-5.3c0,0,0.1,0-0.3-0.3l-0.2-0.2c-0.2-0.1-0.4-0.3-0.6-0.5c-4.9-4.4-6.8-5.2-7.4-5.4c-0.4,0.5-0.7,1.5-1,2.4
		l0,0.1c-0.6,1.9-1.5,4.6-4.1,5.5c-2.6,1-4.6,1.5-6.1,1.5c-0.7,3.4-0.3,4.9,0,6c0.2,0.6,0.4,1.2,0.4,1.8c0,1.6-1.4,2.6-3.1,3.7
		C91.1,259.4,89.8,260.3,89.5,260.8z M60.4,183.8c1.9,0.9,3.9,3.8,6.4,8.2l0.2,0.4c0.4,0.6,2.9,3.2,4.5,4.8l0.5,0.5
		c2.6,2.6,5,5,5.9,6.4c1.5,2.3,13.4,24.6,15.1,28.8c1.2,3,2.2,5.9,2,9.9c0.4-0.1,0.9-0.2,1.4-0.5c2-1.2,5.1-4.6,5.4-6.3c0,0,0,0,0,0
		c0-0.1,0-0.1,0-0.1c-2.2-2.9-8.8-19-9-22.7c-0.1-0.9,0-1.6,0-2.1l0-0.2c0.1-1.1,0.1-1.6-1.9-5.5c-3.4-6.5-7.4-12.4-9-13.7
		c-2.9-2.5-6.8-15.5-7.5-20c-0.4-2.5-2.1-6.5-3.5-9.8l-0.1-0.3c-2-4.6-2.6-6.2-2.4-7.5c0.1-1,0.8-2.4,1.9-4.5c1-1.9,2.4-4.8,2.5-6.3
		c0.1-1.3-1.1-10.8-2-18.4l-0.3-2.4c-1.1-9.1-2.2-17.7-2.2-20.3c0-2.9,0.1-8.5,0.4-13.2c0.5-9,0.8-11.1,3.2-11.1
		c0.8,0,1.8,0.4,3.5,1.1c1.2,0.5,2.8,1.2,4.3,1.6c1.2,0.3,2.8,0.4,4,0.5c2.9,0.3,5.7,0.5,5.7,3c0,0.9-0.5,2.1-1.7,5.2l-0.1,0.1
		c-0.5,1.1-1,2.4-1.2,3.1c-0.5,1.8-1.7,5.9-4.8,9.9c-0.8,1-1.5,1.9-2.2,2.6c-1.5,1.7-2,2.3-2.1,3.6c0,0.6-0.1,1.2-0.2,1.9
		c-0.1,0.4-0.1,0.9-0.2,1.3c-0.2,1.4-0.5,4.3-0.5,5c0.1,0.2,0.1,0.4,0.2,0.7c0.2,0.9,0.3,1.5,0.5,1.9c0.4-0.1,0.9-0.3,1.6-0.3
		c0.9,0,1.5,0.3,2,0.5c0.1,0,0.2,0.1,0.2,0.1c0.7-0.1,1.3-0.1,1.8-0.1h0.1c0,0,0.1,0,0.1,0c0.2-0.9,0.4-2.7,0.1-4.2
		c-0.1-0.6-0.4-1.3-0.8-2c-0.8-1.9-1.8-4.1-0.6-6.2c0.3-0.6,1.1-1.5,2.9-3.6c3.8-4.4,13.8-16,14.6-21.7v0c0-0.5,0.2-1,0.6-1.4
		c-0.2-0.4-1.2-1.7-5.2-3.7c-4.6-2.3-8.3-3.9-11.4-5.2l-0.6-0.3c-3-1.3-4.9-2.2-6.1-3.1c-2-1.5-6.5-3.7-12.8-4.9
		c-1.7-0.3-3.2-0.6-4.6-0.8l-0.3,0c-2.6-0.4-4.6-0.7-6.1-1.5c-1,0.4-2.6,0.8-5,1.5l-0.5,0.1c-0.2,0.1-0.4,0.1-0.7,0.2
		c-0.2,0.1-0.4,0.2-0.6,0.2l-0.4,0.2c-4.1,1.7-6.2,2.6-7.5,2.8c-1.8,2.7-5.1,4.3-7.1,4.6c-1,0.3-5.1,3.3-6.2,4.4
		c0,0.1,0,0.3-0.1,0.5l-0.1,0.5c-0.3,1.7-0.9,5.7-1.1,11.4c-0.2,6.5-0.6,8.2-1,9.4c-0.1,0.2-0.1,0.4-0.1,0.6c-0.2,1-1.1,1.8-2.2,1.7
		c-2-0.2-1.9-2.6-1.8-3.7l0.2-3.7c0.6-9.4,0.6-12.3,0.5-13c-0.1-0.7-0.1-1.3-0.1-1.8c-2.9,0.9-2.9,1.3-2.9,1.7c0,0.6,0,1.4-0.1,2.6
		l0,0.3c-0.1,1.9-0.3,4.2-0.1,6.4c0.1,1.8,0.8,5.4,1.3,8.7l0.2,1.4c0.5,3,1,5.6,1.1,6.9c0.2,2.5,3.6,9.9,4.9,11.1
		c0.3,0.1,1,0,1.9-0.4c1-0.5,2.3-1.5,2.8-3.7c0.6-2.3,1.2-8.3,1.7-13.1c0.8-8.1,1.2-11.3,1.9-12.5c0.7-1.3,1.9-1.4,2.7-1.2
		c1.7,0.6,1.9,2.4,1.8,6.1c0,2.2-0.2,4.8-0.5,6.3c-0.1,0.8-0.3,1.9-0.6,3.2c-0.7,3.3-2.3,11-1.8,12.9c0.2,0.9,1,3.4,1.8,5.8
		c3.2,10.2,6.4,20.5,6.4,24c0,5.6-1.7,7.8-8.9,14.7l0,0c-6.7,8.7-11.4,16-11.5,18.3c-0.3,5.1,0.9,8.1,3.7,9.9
		c1.3,0.8,4.2,2.5,7.6,4.3l0.5,0.3c10.8,6.1,19.9,11.3,22.4,13.6c0.5,0.5,1,1,1.5,1.4c0.3,0.3,0.7,0.6,1,0.9l0.4,0.3
		c2.2,2,3.7,3.4,4.6,5c0.3,0.5,0.5,0.9,0.8,1.2l0.3,0.5c0.6,0.9,1.2,1.8,1.3,2.9c0,0.2,0.2,1,0.6,2.2c1.3,5,2.5,10.1,2.3,13
		c-0.1,2.2-1,4.6-1.7,6.5l-0.1,0.2c-0.2,0.7-0.6,1.7-0.7,2.3c0.4,0.4,0.9,0.9,1.5,0.9c0.5,0,1.7-0.3,3.5-2.8
		c4.1-5.6,4.3-7.5,5.2-13.2c0-0.3,0.1-0.4,0.1-0.6c0-0.3,0.1-0.7,0.2-1c0.5-3.6,1.3-6,1.8-7.4c0.2-0.5,0.4-1.2,0.4-1.5
		c-0.1-0.2-0.3-0.6-0.5-1.1l-0.1-0.2c-2.5-5.2-3.6-6.8-4-7.2c-1,0.1-2.4,0.2-5.8-0.6c-7.2-1.6-15.9-16.1-16.4-17.1
		c-0.6-1.3-3.9-5.4-8.6-7.5l-5.6-2.5c-0.6-0.3-1-0.8-1.1-1.4c-0.1-0.6,0.2-1.3,0.7-1.6l0.3-0.3c8.8-6.7,11.2-6.2,12.5-4.7
		c0.3,0.4,1.1,1.4,2,2.6C57.8,181.2,59.8,183.4,60.4,183.8z M102,235.9C102,235.9,102,235.9,102,235.9
		C102,235.9,102,235.9,102,235.9z M73.8,206.5C73.8,206.5,73.8,206.5,73.8,206.5C73.8,206.5,73.8,206.5,73.8,206.5z M42.7,176.6
		l2,0.9c5.6,2.5,9.7,7.3,10.7,9.7c0.9,2.1,9,13.7,13.5,14.7c0.8,0.2,1.5,0.3,2,0.4c-0.3-0.3-0.6-0.6-0.9-0.9l-0.8-0.8
		c-3.1-3.1-5-5-5.6-6.1l-0.2-0.4c-3-5.3-4.2-6.4-4.6-6.6c-1.4-0.6-3.7-3.2-10.1-11.7l-0.3-0.4c-0.4-0.5-0.8-1-1.1-1.4
		C46.4,174.3,44.8,175.2,42.7,176.6z M81.1,119.7C81.1,119.7,81.1,119.7,81.1,119.7C81.1,119.7,81.1,119.7,81.1,119.7z M73.6,82.5
		c-0.5,3.9-0.9,13.5-0.9,19.6c0,1.2,0.3,3.9,0.7,7.4c0.1-0.5,0.1-0.9,0.1-1.3c0.3-2.8,1.5-4.2,3.1-6c0.5-0.6,1.2-1.4,2.1-2.4
		c2.6-3.2,3.5-6.5,4-8.3l0-0.1c0.2-0.8,0.7-2,1.3-3.4l0.2-0.4c0.3-0.6,0.6-1.5,0.9-2.2c-0.5-0.1-1.1-0.1-1.4-0.1
		C82,85,80.4,84.8,79,84.5c-1.8-0.4-3.5-1.1-4.8-1.7l-0.2-0.1C73.9,82.6,73.7,82.6,73.6,82.5z M19.1,96.7
		C19.1,96.7,19.1,96.8,19.1,96.7C19.1,96.8,19.1,96.7,19.1,96.7z M37,57.1c0.5,0.8,1.1,2.5,1.5,4c1.7-0.7,4-1.4,6.9-2.1
		c1.9-0.8,3.3-1.4,4.4-1.7c-0.7-1.5-1-2.8,0.1-5.1c0.1-0.2,0.2-0.4,0.3-0.6c-1.5-1-4.4-3.5-11.6-10.1l-1.2-1.1
		c-0.5-0.5-1-0.9-1.3-1.2c-1-0.9-1.8-1.8-2.4-2.8c-0.1,0.1-0.1,0.1-0.2,0.2c0,0,0,0,0,0c0.4,1,1.3,3.3-0.4,4.9
		c-0.3,0.3-0.7,0.6-1.1,0.9L32,42.6c-0.2,0.2-0.6,0.5-0.9,0.8c1.3,1.1,1,2.9,0.2,6.7l0,0.2c-0.2,0.9-0.5,2.6-0.6,3.5
		c0.4,0.2,1.1,0.5,2.3,1C35.3,55.7,36.4,56.2,37,57.1z M33.8,59.7L33.8,59.7L33.8,59.7z M36.7,31.5c0.5,0.3,1.1,0.6,1.7,1.1
		c3.5,2.6,8.1,7.4,9.9,9.4c1.5,1.6,2.9,3.3,3.9,4.6c0.5,0.7,1,1.2,1.3,1.8c1.5-1.2,3.1-2.6,3.9-4.6c0.8-1.9,0.5-4.7-0.8-7.2
		c-1.1-2.1-3.3-4.8-7.8-6C41.2,28.8,37.5,30.7,36.7,31.5z M33.6,36.2C33.6,36.2,33.6,36.2,33.6,36.2C33.6,36.2,33.6,36.2,33.6,36.2z
		"/>
</g>
</svg>
