<?xml version="1.0" encoding="utf-8"?>
<!-- Generator: Adobe Illustrator 27.4.1, SVG Export Plug-In . SVG Version: 6.00 Build 0)  -->
<svg version="1.1" id="_x2014_ÎÓÈ_x5F_1" xmlns="http://www.w3.org/2000/svg" xmlns:xlink="http://www.w3.org/1999/xlink"
	 x="0px" y="0px" viewBox="0 0 607.5 300" style="enable-background:new 0 0 607.5 300;" xml:space="preserve">
<style type="text/css">
	.st0{fill:#FFFFFF;}
	.st1{fill-rule:evenodd;clip-rule:evenodd;fill:#69A6C2;}
	.st2{fill:#69A6C2;}
</style>
<rect x="2718.9" y="-828.3" class="st0" width="2200" height="2200"/>
<g>
	<path class="st1" d="M483.1,127.3l-22.7,21.9c-0.3,0.3-0.8,0.3-1.1,0l-1.6-1.7l-36.1,36.3c-0.3,0.3-0.8,0.3-1.2,0l-15-17.6
		c-0.2-0.2-0.3-0.4-0.3-0.7c0-0.3,0.1-0.5,0.3-0.7l2.9-3.2l-3.3,2.9c-0.3,0.3-0.8,0.3-1.1-0.1l-14.2-16.7c-0.2-0.2-0.3-0.5-0.3-0.8
		c0-0.3,0.1-0.5,0.3-0.7l15.9-15.4c0.3-0.3,0.8-0.3,1.1,0l5.9,5.7l-4.8-6.5c-0.2-0.2-0.2-0.5-0.2-0.7c0-0.3,0.1-0.5,0.3-0.7
		l15.9-15.4c0.3-0.3,0.8-0.3,1.1,0l14.9,16.3l1.5-1.5c0.3-0.3,0.8-0.3,1.1,0l15.4,16.7l21.9-22l-32.4-35.1c-0.2-0.2-0.2-0.4-0.3-0.6
		l-0.8-6.5c0-0.4,0.1-0.7,0.3-0.9l4.1-3.9l-4.9-4.8l-74.2,7.6c1.7,4.4,6.6,15.1,3.1,17.2c-0.3,0.2-0.6,0.3-1,0.3
		c-1.7-0.1-3.1-3.8-3.8-5.3c-1.5-3.4-3.1-6.6-5.2-9.6c-0.4-0.5-0.9-1.2-1.5-1.8c-2.3,1.5-3.8,3.9-5.1,7.2l-6.1,31.9
		c-0.1,0.4-0.3,0.6-0.6,0.7c-0.3,0.1-0.6,0-0.8-0.2l-5.1-5.7c-0.8-0.8-2.7-2.5-3.7-1.5l-12.9,12.5c0.2,0.3,0.5,0.5,0.7,0.8
		l17.3,21.1c0.2,0.2,0.3,0.5,0.2,0.9l-4,27.2c-0.5,3.2,2.4,3.6,3.7,2.6l7.8-7.9c3-3.1,3.3-1.7,6.1,1.5l56.5,65.6
		c3.1,3.6,6.4,3.4,9.6,0.2l77.7-79.1c0.3-0.3,0.7-0.3,1-0.1s0.5,0.7,0.4,1.1c-1.2,5.4-4,10.3-7.6,13.9l-73.9,75.4
		c-2.9,2.9-7.1,3.7-10,0.4l-55.4-62.9c-1.7-1.9-5.3-4.8-7.5-2.6l-5.3,5.2c-4.9,4.9-9.1-2.9-8.2-8.6l3.7-23.3l-16.2-19
		c-0.2-0.2-0.3-0.5-0.2-0.9l1.5-10.6c-0.9-0.7-1.7-1.1-2.5-1.4c-0.6,8.9-4.8,17.9-9.3,24.2c-8.6,12-21.6,19.9-35.1,19.1
		c-2.9-0.2-4.3-8-6-9.3c-2.3-1.8-15.2-12-17.8-13c-9.6,18.7-18.3,38.9-26.7,58.4c-5.4,12.6-10.8,25.3-16,38.1
		c-3.7,9.2-7.5,18.5-10.8,27.9c-2.4,6.6,10.8,8.1,12.3,5.1l53.8-116c0.1-0.2,0.1-0.3,0.3-0.4c0.3-0.3,0.8-0.3,1.1,0
		c0.3,0.3,0.4,0.7,0.3,1.1c0.7,2.5,7.4,9.4,6.6,12.4c-1.3,4.8-2.2,12.4-4.8,16.3c-2.2,3.4-5.1-0.5-7.1,0.2c-1.3,0.4-2.6,4.4-3.5,5.6
		c-1.6,2.3-7.9,3.3-8.8,5.1c-0.8,1.6-3.1,5.3-2.9,7.1c0.3,3.4,3.1,6.4,1.8,10.1c-0.8,2.3-2.5,3.9-3.2,6c-0.5,1.5,0.2,3.3-0.7,5
		c-1.9,3.8-5.3,1.7-7.4,5c-1,1.6-2.5,4.4-2.6,6.5c-0.1,2.2,1.4,4.1,0.8,6.5c-0.7,3-5.3,1.9-5.8,3.1c-0.6,1.5-2.4,4.3-2.4,5.9
		c0,2.4,2.1,6.1,1.2,7.8c-0.8,1.7-5.2,1.9-6,2.8c-0.8,1.8-1.6,3.7-2.5,5.4c-0.9,1.8,3.3,8.4-0.3,8.8c-2.1,0.3-3.5,0.5-5.2,1.8
		c-0.7,0.5-1.4,0.8-2.2,1c-3.1,0.6-6.7,1.3-9.8,0.9c-1.7-0.2-4-1-5.3-2.3c-5.5-5.3-8.8-19.3-5.4-26.7l43.4-96.9
		c1.9-4.3,3.3-14.3,1.1-18.6c-11-21.6-11.1-41.9,1.7-61.9c6.7-10.5,17.3-15.3,28.1-16.4c6.5-0.6,13.9,0.8,20.1,3.3
		c7.2,2.9,13.4,8.2,18.6,14.6c3.3,4,5.4,7.9,8.4,11.9c0.2,0.3,0.3,0.6,0.2,0.9c-0.1,0.3-0.3,0.6-0.6,0.7c-4.3,1.5-13.8,0.9-18.1-0.6
		c-0.3-0.1-0.5-0.3-0.6-0.7c-1.2-5-4.8-9.9-9.3-10.7c-4.8-0.9-10.5,1.4-12.3,7.2c-1.5,4.8,0,9.8,2.8,13.4c4.5,5.7,10,6.7,15.8,3.7
		c0.2-0.1,0.3-0.1,0.5,0c15.6,4.7,29.5,3.8,44-4.4c6.2-3.4,13-9.2,17.4-15.3c1.8-2.4,3.2-4.9,4.2-7.3c-0.5-0.5-1-1-1.6-1.4
		c-4,6.5-9.4,12.1-14.7,16.2c-13,10.1-33.3,12.8-48.3,9.3c-4.9-1.1-9.5-3.5-14-6.1c-1.7-1-3.3-1.9-4.9-3.3c-3.6-3.4,4.3-9.8,6.8-7.3
		c0.3,0.3,0.5,0.5,0.9,0.7c15.3,12.7,35.4,10.8,51.4,1c6.3-3.8,12-9.1,15.4-15.7c-0.9-0.4-1.7-0.7-2.3-0.8c-1.2-0.2-1.8,3.3-1.3,4.6
		c0.1,0.3,0.1,0.5,0,0.8c-0.5,1.1-2.5,3.5-3.6,3.6c-0.4,0-0.7-0.2-0.8-0.6c-1.9-5.3,0-13.7,5.3-15c1.4-0.3,3.3,0.3,5.2,1.2
		c1.1-4.3,1.3-9.1,0.3-14.3c-0.2-1.1-0.7-2.4-1.4-3.6c-10-9.8-26.7-14.5-38.8-12.7c-7.7,1.1-15.3,5.1-21.9,9.7
		c-2.4,1.7-4.8,3.5-7.1,5.4c-0.6,0.5-3.1,3.3-3.9,2.1c-1.7-2.9,3.2-7.9,4.8-9.5c4.4-4.3,9.9-7.9,15.2-10.4c7.9-3.6,18-5.1,26.3-3.7
		c8.1,1.3,16.1,4.7,22.2,11.4c1.4,1.6,3.2,4,4.5,6.5c1.1,1.1,2.2,2.3,3.1,3.5c3,3.9,4.9,7.8,6,11.6c0.5-3,0.6-6.1,0.2-9.2
		c-0.9-7.1-4.4-12.8-9.1-17.1c-10.7-9.8-27.2-13-40.4-11.7c-16.1,1.5-31.6,9.5-41.2,25.3c-0.2,0.3-0.1,0.7,0.2,1.2
		c0.1,0,0.2,0.1,0.3,0.1c2.7,1.1,5.6,3,8.2,4.6c1.2,0.8,10.2,6.2,9.3,8.4c-0.2,0.4-0.5,0.6-0.9,0.7c-2.9,0.4-14.2-6.6-17.8-12
		c-12.3-4.9-25.4-4.6-36.7,3.5c-10.4,7.4-17,18.1-19.6,32c-1.1,5.9-0.7,11.6-1.4,17.4c-0.4,3.6-3.2,11.8-5.9,14L122.9,187
		c-0.7,1.2-1.4,6.9-1.8,11.7c2-0.3,3.5-0.8,4.3-1.4l95.8-79.6c6.6-5.5,14.6,26.6,13.8,28.3c-1.3,2.9-6.4,11.7-8.4,13.3
		c-1.6,1.3-4.4-0.3-5.8-1.4c-0.6-0.5-1.8-2.2-2.3-2.2c-1.3-0.1-3.5,3.5-4.5,4.3c-1,0.8-7.8-0.9-9.3-0.9L198,164
		c-0.7,2.9-0.7,9.5-3.2,11c-1.8,1.1-3.2,3.1-4.9,4.4c-1.1,0.9-2.2,1.9-3.2,2.8c-2.7,2.2-8.4,0.9-9.6,1.8c-1.3,0.9-2.5,2.7-3.6,3.4
		c-0.7,1.3-0.9,6.2-2.2,6.9c-1.9,1-6.6-1-7.4,0l-4.3,5.3c-0.5,0.6,0.1,3.6-1.4,5.1c-1.8,1.7-6.5,0.2-7.8,1c-0.7,0.5-3.3,2.3-3.7,3.1
		c-1,2.2,0.1,6.8-1.9,7.3c-4.1,1.1-24.3-5.1-25.3-10.3c-0.2-0.8-0.2-2.6-0.1-4.9c-9.2,0.9-23.5-0.5-28.1-0.9
		c-20.4-1.4-40.8-2.4-61.2-0.2c-0.5,0-0.9-0.3-0.9-0.9c0-0.5,0.3-1,0.8-1.1c20.4-2.3,41-1.2,61.4,0.2c4.3,0.3,19.3,1.8,28.1,0.9
		c0.3-5.6,1.2-12.5,2.4-13.5l85.1-71c2.2-1.9,4.8-9.6,5.2-12.6c0.7-5.9,0.3-11.6,1.4-17.5c2.7-14.4,9.6-25.6,20.4-33.3
		c11.3-8,24.2-8.7,36.5-4.3c-0.1-0.6,0-1.2,0.3-1.7c9.9-16.2,25.8-24.5,42.5-26.1c13.7-1.3,30.6,2,41.6,12.1
		c5.1,4.7,8.8,10.8,9.7,18.4c0.6,4.7,0.1,9.3-1.1,13.7c0.3,2.4,0.2,4.8-0.2,7.1c2.9,2.5,6.1,5.7,5.2,7c-0.2,0.3-0.4,0.4-0.7,0.5
		c-1,0.1-2,0.3-2.8,0.6c0.4,0.5,0.8,0.9,1.1,1.3c2.2,3.1,3.8,6.4,5.4,9.9c0.3,0.5,1.8,4.2,2.4,4.2c1-0.6-1-7-1.3-7.9
		c-0.6-1.9-1.3-3.7-2.1-5.5c-0.3-0.7-1.9-3.7-0.3-3.9l75.8-7.7c0.2,0,0.4,0,0.6,0.2l5.9,5.9c0.2,0.2,0.3,0.5,0.3,0.8
		c0,0.3-0.1,0.6-0.3,0.8l-4.6,4.4l0.7,5.6l32.9,35.6c0.2,0.2,0.3,0.5,0.3,0.8c0,0.3-0.1,0.5-0.3,0.7l-22.4,22.5l0.9,1l22.7-21.9
		c0.3-0.3,0.8-0.3,1.1,0l21.8,24.8c1.2,1.6,0.7,2.4,1.1,3.1c0.3,0.6,0.7,1.1,1.1,1.6c4.4,5.1,14.9,3.4,20.4,2.5
		c11-1.9,21.8-4.9,32.8-6.7c12.6-2,27.1-2.9,39,3.4c0.4,0.2,0.6,0.8,0.4,1.3c-0.2,0.5-0.7,0.7-1.1,0.5c-11.5-6.1-25.8-5.2-38.1-3.3
		c-11,1.8-21.8,4.9-32.8,6.7c-6.2,1-16.9,2.6-21.8-3.1c-0.5-0.6-1-1.2-1.3-1.9c-0.6-1.1-0.1-1.7-0.9-2.8l-21.2-24.1L483.1,127.3z
		 M456.4,146.1l-14.7-15.9l-0.8,0.8l13.2,14.5c0.2,0.2,0.3,0.5,0.3,0.8s-0.1,0.5-0.3,0.7l-17.2,17.3c-0.3,0.3-0.8,0.3-1.1,0
		l-13.9-15.7c-0.2-0.2-0.3-0.5-0.3-0.8c0-0.3,0.1-0.5,0.3-0.7l16.5-16.1l-14.2-15.5l-14.7,14.2l11.4,15.3c0.3,0.4,0.3,1,0,1.4
		c-0.3,0.4-0.8,0.4-1.1,0.1l-13.6-13.4L391.5,147l13,15.3l15-13.2c0.4-0.3,0.9-0.3,1.2,0.2c0.3,0.4,0.3,1-0.1,1.4l-13.5,14.8
		l13.8,16.3L456.4,146.1L456.4,146.1z M439.7,132.2l-16,15.6l12.7,14.3l15.9-16L439.7,132.2z M361.9,77.9c-0.2-0.2-0.4-0.4-0.7-0.7
		c-0.3,0.7-0.6,1.4-1,2.1C360.8,78.8,361.3,78.3,361.9,77.9z M357,73.4c-1.5-1.2-3-2.3-4.5-3.2c-3.6,7-9.5,12.6-16.2,16.6
		c-16.6,10.1-37.3,11.9-53.1-1.1c-0.3-0.3-0.7-0.5-1-0.8c-0.8-0.8-6.1,2.8-4.6,4.2c1.4,1.3,2.9,2.2,4.5,3.1
		c4.3,2.5,8.9,4.8,13.6,5.9c14.6,3.4,34.4,0.7,47-9C347.8,85.1,353.1,79.7,357,73.4z M354.9,64c1.7,1,3.3,2.2,4.4,3
		c0.1,0.1,0.4,0.3,0.7,0.6c0.7-1.6,1.2-3.1,1.7-4.7c-0.7-4.7-2.8-9.4-6.4-14.1C356.4,54.3,356.2,59.4,354.9,64L354.9,64z
		 M361.4,68.8c0.1,0.1,0.3,0.2,0.4,0.3c0.1-0.5,0.1-1,0.1-1.5C361.7,68,361.6,68.4,361.4,68.8L361.4,68.8z M328.4,126.4l-1.2,8.9
		l16.2,19c0.2,0.3,0.3,0.5,0.2,0.9l-3.7,23.9c-0.6,3.8,1.8,10.3,5.4,6.8l5.3-5.2c3.1-3,7.4,0,9.8,2.7l55.4,62.9
		c2.3,2.6,5.5,1.8,7.8-0.4l73.9-75.4c2.5-2.6,4.6-5.8,6-9.4l-75.2,76.6c-3.9,4-8.2,4.1-11.9-0.3l-56.5-65.6
		c-0.3-0.3-2.2-2.6-2.6-2.7c-0.2,0-1.1,1.1-1.3,1.3l-7.8,7.9c-2.2,2.2-7.2,0.9-6.5-4.4l3.9-26.7L328.4,126.4
		C328.4,126.5,328.4,126.4,328.4,126.4z M322.6,122.9c-0.5-0.2-1-0.5-1.6-0.8c-8-4.8-2.1-19.8,1.8-9.8c1.1,2.9,1.6,6.1,1.6,9.3
		c1.1,0.4,2.1,0.7,3.2,1.5l13.2-12.8c1.9-1.8,4.5-0.1,6,1.6l4,4.4l5.8-30.3c0,0,0-0.1,0.1-0.2c0.1-0.3,0.2-0.6,0.3-0.8
		c-4.6,6.4-11.2,11.7-17.8,15.5c-14.8,8.3-29,9.3-44.9,4.6c-6.5,3.1-12.6,1.9-17.5-4.4c-3.3-4.2-4.9-9.9-3.2-15.4
		c2.1-6.7,8.5-9.5,14.2-8.4c5.1,0.9,9.1,6,10.6,11.6c3.8,1.1,11.2,1.7,15.4,0.8c-2.5-3.6-4.5-7-7.4-10.6c-5.1-6.1-11.1-11.3-18-14.1
		c-6-2.4-13.1-3.8-19.4-3.2c-10.4,1-20.5,5.6-26.9,15.6c-12.5,19.4-12.3,38.8-1.7,59.7c2.5,5,1.1,15.7-1.1,20.6L195.9,254
		c-3,6.6,0.1,19.5,5,24.2c1,1,3.1,1.6,4.4,1.8c3,0.3,6.4-0.3,9.3-0.9c0.6-0.1,1.1-0.3,1.6-0.7c2-1.5,3.6-1.8,6-2.1
		c0.1-1.3-2.2-5.4-1-7.9c0.9-1.7,1.7-3.5,2.4-5.3c0.8-1.8,5.2-1.9,6.1-2.9c0.1-0.3-1.4-5.4-1.5-6.8c0-2.4,1.7-4.8,2.6-6.9
		c1-2.4,5.4-1.5,5.7-2.7c0.3-1.4-0.9-3.9-0.9-6c0.1-2.5,1.6-5.6,2.9-7.6c2.5-3.9,6-2.1,7.3-4.8c0.5-1,0-3.2,0.6-4.7
		c0.8-2.3,2.5-3.9,3.2-6c0.8-2.3-1.3-5.7-1.8-8.4l-31.8,68.5c-2.4,5.2-18.6,2.4-15.3-6.8c3.3-9.4,7.1-18.8,10.9-28
		c5.2-12.8,10.6-25.5,16-38.2c8.5-19.6,17.3-40.1,27-58.9c0.9-1.6,4.1,0.9,5,1.6c2.6,1.8,5.2,3.8,7.7,5.7c2.4,1.8,4.8,3.7,7.2,5.6
		c1.8,1.4,3.9,8.9,5.2,9c13,0.7,25.5-6.9,33.8-18.4C318,140.4,322.2,131.5,322.6,122.9z M360.7,74.1c0.3-1,0.6-1.9,0.8-2.9
		c-0.3-0.2-0.6-0.5-0.9-0.7c-0.4,0.8-0.8,1.6-1.3,2.4C359.8,73.3,360.2,73.7,360.7,74.1L360.7,74.1z M354.3,66
		c-0.3,0.8-0.6,1.6-0.9,2.4c1.5,0.9,3.1,2.1,4.6,3.3c0.4-0.8,0.8-1.6,1.2-2.3C357.5,68.2,355.8,67,354.3,66z M276.1,51.8
		c3.3,2.8,7.9,5.9,10.7,7.1C284.3,56.8,279.6,53.9,276.1,51.8z M120.9,200.8c-0.1,2.1-0.1,3.9,0,4.7c0.7,3.7,20.1,9.7,23.1,9
		c0.3-0.7-0.1-4.2,0.9-6.4c0.6-1.3,3.2-3.2,4.4-3.9c1.7-1.1,6.6,0.1,7.6-0.8c0.8-0.8,0.3-3.6,1.3-4.9l4.3-5.3
		c1.8-2.2,6.2,0.4,7.7-0.3c0.7-1.2,1-6,2-6.7c1.2-0.9,2.5-2.6,3.8-3.6c1.8-1.3,7.3,0.1,9.5-1.7c1.1-0.9,2.2-2,3.3-2.9
		c1.7-1.4,3.1-3.3,5.1-4.5c1.8-1.1,1.9-10.1,2.9-10.8l7.1-5c0.9-0.7,7.7,1.1,9.2,0.9c1.6-1.3,3.1-4.8,5.5-4.6c1.6,0.1,2,1.7,3.1,2.5
		c0.7,0.5,3.1,2.1,3.9,1.4c2.1-1.9,6.6-9.6,7.8-12.3c0.1-3.1-7.5-29.2-11.3-26L126.3,199C125.3,199.9,123.4,200.5,120.9,200.8
		L120.9,200.8z M351.8,67.6c0.3-0.8,0.7-1.6,0.9-2.4c-1.8-1-3.3-1.5-4.2-1.3c-3.9,0.9-5.4,7-4.4,11.2c0.5-0.5,1.2-1.3,1.5-1.8
		c-0.6-2.8,0.6-7.3,3.3-6.8C349.7,66.7,350.7,67.1,351.8,67.6L351.8,67.6z M348.5,39.8c-0.2-0.3-0.5-0.6-0.7-0.8
		c-5.8-6.4-13.5-9.6-21.2-10.8c-8-1.3-17.8,0.1-25.4,3.6c-5.1,2.4-10.5,5.9-14.7,10.1c-0.5,0.5-3.4,3.6-4.3,5.5
		c0.7-0.6,1.3-1.2,1.9-1.7c2.4-1.9,4.8-3.8,7.2-5.5c6.6-4.5,14.2-8.4,21.9-9.5C323.9,29,338.1,32.4,348.5,39.8L348.5,39.8z
		 M362.8,72.4c-0.2,1-0.5,2-0.8,2.9c0.5,0.5,1.1,1.1,1.6,1.6c0.9-0.4,1.8-0.7,2.8-0.9C365.6,75.1,364.3,73.8,362.8,72.4L362.8,72.4z
		 M253.1,195.3c2.4-1.4,5.9-2.1,6.9-3.4c1.3-1.8,2.1-5.5,4.4-6.3c2.5-0.8,5,2.3,6.2,0.5c2.3-3.5,3.3-11.4,4.5-15.7
		c0.1-1.7-4.1-6.5-5.9-9.8L253.1,195.3z M322.7,120.8c-0.1-2.7-0.5-5.3-1.5-7.7c-2.5-6.4-4.2,4.4,0.6,7.2
		C322.1,120.5,322.4,120.6,322.7,120.8L322.7,120.8z"/>
	<path class="st2" d="M207.3,283.3c-0.7,0-1.5,0-2.2-0.1c-1.8-0.2-4.4-1-6-2.6c-5.5-5.4-9.3-19.9-5.7-28l43.4-96.9
		c1.9-4.2,3.1-13.8,1.2-17.6c-11.5-22.6-10.9-43.2,1.8-63.1c6.2-9.7,16.5-15.7,29-16.9c3.7-0.4,7.9-0.1,12.1,0.8
		c-4-2.5-8.1-5.8-10.2-8.9c-12.6-4.9-25.2-3.7-35.3,3.5c-10.1,7.2-16.6,17.7-19.1,31.3c-0.6,3.3-0.8,6.7-0.9,10
		c-0.1,2.4-0.2,4.8-0.5,7.3c-0.4,3.6-3.2,12.1-6.3,14.7l-84.9,70.7c-0.4,1-1,4.8-1.4,9.6c1.4-0.3,2.1-0.7,2.4-0.9l95.8-79.5
		c1.4-1.2,3.1-1.2,4.7,0c6,4.5,11.8,27.5,10.8,29.6c-1.2,2.8-6.4,11.9-8.7,13.7c-1.7,1.3-4.2,0.8-7.2-1.3c-0.4-0.3-0.7-0.7-1.1-1.1
		c-0.2-0.2-0.5-0.6-0.7-0.8c-0.5,0.3-1.5,1.6-2,2.3c-0.6,0.7-1.1,1.3-1.5,1.7c-1,0.8-3.1,0.5-7.2-0.2c-0.9-0.2-1.8-0.3-2.4-0.4
		l-6.2,4.4c-0.1,0.7-0.3,1.6-0.4,2.5c-0.5,3.5-1,7.4-3.2,8.8c-1,0.6-1.8,1.5-2.8,2.4c-0.6,0.6-1.3,1.3-2,1.9c-0.6,0.5-1.1,1-1.7,1.5
		c-0.5,0.5-1,0.9-1.6,1.4c-2,1.6-4.9,1.7-7.3,1.7c-0.9,0-2.1,0-2.4,0.2c-0.5,0.4-1.1,1-1.6,1.6c-0.6,0.6-1.1,1.2-1.7,1.6
		c-0.2,0.5-0.3,1.4-0.5,2.1c-0.5,2.7-0.9,4.4-2.1,5c-1.3,0.7-3.1,0.4-4.9,0.1c-0.7-0.1-1.8-0.3-2.2-0.2l-4.1,5
		c0,0.2-0.1,0.6-0.1,0.8c-0.1,1.3-0.3,3.2-1.5,4.4c-1.4,1.4-3.7,1.2-5.7,1.1c-0.8,0-2-0.1-2.3,0.1c-1,0.6-3,2.2-3.3,2.6
		c-0.3,0.7-0.4,1.9-0.4,3c-0.1,2-0.2,4.4-2.2,4.9c-3.7,1-16.3-2.7-22.5-6.6c-2.5-1.6-3.9-3.1-4.2-4.6c-0.1-0.7-0.2-2-0.2-3.9
		c-7.7,0.6-18.3-0.3-24.2-0.8c-1.2-0.1-2.1-0.2-2.9-0.2c-20.6-1.4-40.7-2.4-61-0.2c-0.5,0-1-0.1-1.4-0.4c-0.4-0.4-0.7-0.9-0.7-1.5
		c-0.1-1.2,0.7-2.2,1.8-2.3c20.5-2.3,40.8-1.2,61.6,0.2c0.6,0,1.4,0.1,2.4,0.2c5.6,0.4,17,1.4,24.6,0.8c0.3-4.8,1.1-11.9,2.8-13.3
		l85.1-71c1.8-1.5,4.4-8.7,4.8-11.9c0.3-2.4,0.4-4.9,0.5-7.2c0.1-3.4,0.3-6.8,0.9-10.4c2.8-14.7,9.8-26.1,20.8-34
		c10.4-7.4,23.2-9.2,36.2-4.9c0.1-0.3,0.2-0.5,0.4-0.7c9.4-15.4,24.8-24.9,43.3-26.6c12.7-1.2,30.5,1.4,42.5,12.4
		c5.7,5.2,9.2,11.8,10.1,19.1c0.6,4.6,0.2,9.2-1.1,13.9c0.2,2.2,0.2,4.4-0.1,6.5c2.8,2.5,4.4,4.3,5,5.8c0.2-0.1,0.4-0.1,0.6-0.2
		l75.8-7.7c0.6-0.1,1.1,0.1,1.6,0.6l5.9,5.9c0.4,0.5,0.6,1,0.6,1.6c0,0.6-0.2,1.1-0.6,1.5l-4.2,4l0.6,4.7l32.6,35.3
		c0.4,0.5,0.6,1,0.6,1.5c0,0.4-0.1,0.7-0.3,1.1c0.2-0.1,0.4-0.1,0.6-0.1c0.5,0,1,0.2,1.4,0.6l21.8,24.8c1,1.3,1.1,2.2,1.2,2.8
		c0,0.2,0.1,0.4,0.1,0.5c0.3,0.6,0.6,1,0.9,1.4c4.1,4.7,14.8,2.9,19.4,2.1c5.2-0.9,10.6-2.1,15.7-3.2c5.6-1.3,11.4-2.6,17.1-3.5
		c10.9-1.8,26.8-3.3,39.7,3.6c0.9,0.5,1.3,1.7,0.9,2.7c-0.2,0.6-0.6,1-1.2,1.2c-0.5,0.2-1.1,0.1-1.5-0.1c-11.8-6.3-27-4.8-37.3-3.2
		c-5.7,0.9-11.4,2.2-17,3.5c-5.2,1.2-10.5,2.4-15.8,3.3c-5.2,0.9-15.6,2.6-21.5-2.1c0,0.1,0,0.1,0,0.2c-1.3,5.4-4.1,10.6-7.9,14.4
		l-73.9,75.4c-1.9,1.9-4.2,2.9-6.5,2.9c-2-0.1-3.8-0.9-5.2-2.6l-55.4-62.9c-1.3-1.5-3.2-3-4.7-3c-0.5,0-0.9,0.1-1.2,0.5l-5.3,5.2
		c-2.5,2.5-4.8,1.9-5.9,1.4c-3.3-1.7-4.8-7-4.2-11l3.6-22.8l-15.9-18.6c-0.4-0.5-0.6-1.2-0.5-1.8l1.4-9.9c-0.1-0.1-0.2-0.1-0.3-0.2
		c-0.9,7.6-4.3,16.1-9.4,23.2c-9.3,13-22.9,20.3-36.1,19.6c-2.5-0.1-3.8-3.4-5-6.3c-0.5-1.2-1.2-2.9-1.7-3.3
		c-0.4-0.3-1.2-0.9-2.1-1.6c-3.6-2.8-11.5-8.9-14.5-10.8c-9.2,18.1-17.6,37.5-25.7,56.4l-0.4,0.9c-5.6,13-11,25.8-16,38.1
		c-3.7,9-7.5,18.4-10.8,27.8c-0.7,1.8,0.2,3.3,2.6,4.2c3.3,1.4,7.2,0.8,7.6,0l53.8-116c0.1-0.3,0.3-0.6,0.6-0.8
		c0.7-0.7,1.8-0.7,2.6,0c0.5,0.5,0.7,1.2,0.6,1.8c0.3,0.8,1.4,2.3,2.4,3.8c2.3,3.3,4.7,6.7,4.1,9c-0.4,1.4-0.7,3.1-1.1,4.8
		c-0.9,4.2-1.9,8.9-3.8,11.8c-1.9,2.9-4.4,1.8-5.9,1.1c-0.7-0.3-1.4-0.6-1.7-0.5c-0.4,0.2-1.4,2.2-1.8,3.1c-0.4,0.9-0.8,1.6-1.1,2.1
		c-1,1.4-3.2,2.3-5.3,3.2c-1.2,0.5-3.1,1.3-3.4,1.8c-0.2,0.3-0.4,0.8-0.7,1.3c-0.8,1.5-2.2,4.1-2.1,5.2c0.1,1.1,0.5,2.2,1,3.4
		c0.8,2.1,1.7,4.5,0.8,7.1c-0.4,1.3-1.1,2.3-1.8,3.3c-0.6,0.9-1.1,1.7-1.4,2.7c-0.2,0.5-0.2,1.1-0.1,1.7c0,1,0,2.2-0.6,3.4
		c-1.2,2.5-3.1,2.9-4.6,3.3c-1.2,0.3-2.2,0.6-3,1.8c-1.1,1.6-2.3,4.2-2.4,6c0,0.8,0.2,1.6,0.4,2.4c0.3,1.2,0.7,2.6,0.3,4.3
		c-0.6,2.6-3.2,3-4.8,3.2c-0.4,0.1-0.9,0.1-1.1,0.2c-0.2,0.4-0.4,0.9-0.7,1.4c-0.6,1.2-1.6,3-1.5,3.9c0,0.8,0.3,2,0.7,3
		c0.6,1.9,1.1,3.9,0.4,5.3c-0.7,1.5-2.7,2-4.5,2.5c-0.5,0.1-1.3,0.3-1.6,0.5c-0.7,1.7-1.5,3.5-2.4,5.2c-0.1,0.4,0.3,1.9,0.6,2.8
		c0.6,2,1.2,4.2,0.3,5.6c-0.3,0.4-0.9,1-2,1.1c-2.1,0.3-3.2,0.4-4.7,1.5c-0.9,0.6-1.6,1-2.7,1.2
		C212.7,282.8,209.9,283.3,207.3,283.3z M271.9,62.3c-1,0-1.9,0-2.8,0.1c-8,0.7-18.9,3.9-26.1,15.1c-11.8,18.4-12.3,37.5-1.6,58.6
		c2.7,5.4,1.2,16.5-1,21.6L197,254.5c-2.8,6.3,0.4,18.7,4.8,23c0.8,0.7,2.5,1.3,3.8,1.5c2.8,0.3,6.3-0.3,9-0.8
		c0.5-0.1,0.8-0.2,1.2-0.5c1.8-1.4,3.3-1.8,5.3-2.1c-0.1-0.3-0.2-0.6-0.3-0.9c-0.5-1.5-1.1-3.3-0.9-5l-2.7,5.7
		c-1.7,3.6-7.9,4-12.4,2.2c-4.6-1.9-6.5-5.6-5-9.8c3.5-9.7,7.4-19.5,10.9-28c5.1-12.5,10.5-25.3,16-38.2l0.1-0.1
		c8.5-19.7,17.3-40,26.9-58.9c0.3-0.6,0.8-0.9,1.4-1.1c1.5-0.4,3.4,0.8,5,2l0.3,0.2c2.3,1.6,4.6,3.4,6.9,5.1l0.9,0.7
		c1.1,0.8,2.2,1.7,3.2,2.5c1.3,1,2.7,2.1,4,3.1c1.1,0.8,1.9,2.7,3.1,5.4c0.5,1.2,1.3,2.9,1.7,3.4c11.9,0.5,24.1-6.1,32.5-17.9
		c4.9-6.9,8.2-15.1,8.7-22.2c-0.4-0.2-0.7-0.3-1-0.5c-4.2-2.5-5.1-7.5-4.2-11.2c0.4-1.5,1-2.6,1.7-3.3c-7.5,0.8-15.3,0-23.6-2.4
		c-7,3.2-13.5,1.5-18.5-4.9c-3.8-4.9-5.1-11.1-3.4-16.4c2.4-7.5,9.6-10.3,15.4-9.2c5.7,1,9.7,6.6,11.3,11.8
		c3.3,0.8,8.7,1.3,12.6,0.9c-0.4-0.6-0.8-1.2-1.2-1.9c-1.6-2.4-3.1-4.8-5.1-7.1c-5.5-6.7-11.4-11.3-17.5-13.7
		C282.7,63.5,277,62.3,271.9,62.3z M227.2,253.7l-3.7,8c1-0.8,2.4-1.2,3.7-1.5c0.4-0.1,1-0.3,1.3-0.4c-0.1-0.5-0.3-1.1-0.4-1.7
		C227.7,256,227.3,254.5,227.2,253.7z M233.6,248C233.6,248,233.6,248,233.6,248C233.6,248,233.6,248,233.6,248z M353.5,178.3
		c0.1,0,0.1,0,0.2,0c3.4,0.1,6.3,3.1,7.5,4.3l55.4,62.9c0.7,0.8,1.5,1.2,2.5,1.2c1.2,0.1,2.5-0.6,3.6-1.7l73.9-75.4
		c0.5-0.5,0.9-1,1.4-1.5l-69,70.3c-2.2,2.2-4.6,3.4-7,3.3c-2.4-0.1-4.6-1.3-6.6-3.6l-56.7-65.7c-0.8-0.9-1.2-1.4-1.6-1.8
		c-0.1,0.1-0.2,0.2-0.3,0.3l-0.2,0.2l-7.8,7.9c-1.4,1.4-3.7,1.8-5.6,0.8c-0.8-0.4-1.5-1-2-1.8l-0.2,1.2c-0.4,2.4,0.6,5.7,1.9,6.4
		c0.2,0.1,0.6,0.3,1.6-0.6l5.3-5.2C350.8,178.8,352.1,178.3,353.5,178.3z M234.7,237.7l-3.1,6.7c1-0.5,2.1-0.7,3-0.8
		c0.3-0.1,0.8-0.1,1.1-0.2c0-0.5-0.2-1.3-0.4-2.1c-0.3-1.1-0.6-2.3-0.5-3.5C234.7,237.8,234.7,237.7,234.7,237.7z M357.3,166.1
		c0,0,0.1,0,0.1,0c1.3,0.1,2.2,1.1,3.4,2.5c0.3,0.3,0.6,0.7,0.9,1.1l56.5,65.6c1.2,1.4,2.5,2.2,3.8,2.2c1.3,0,2.7-0.7,4.2-2.1
		l77.7-79.1c0.3-0.3,0.7-0.5,1.1-0.6c-0.2-0.3-0.4-0.7-0.6-1c-0.4-0.7-0.4-1.2-0.5-1.7c0-0.4-0.1-0.6-0.3-1l-20.4-23.2l-22,21.2
		c-0.4,0.4-0.9,0.6-1.4,0.5c-0.5,0-1-0.2-1.3-0.6l-0.8-0.9l-35.3,35.5c-0.4,0.4-0.9,0.6-1.4,0.6c-0.5,0-1-0.2-1.4-0.7l-15-17.7
		c-0.3-0.3-0.5-0.7-0.5-1.2c-0.4-0.1-0.7-0.3-1-0.6l-14.2-16.7c-0.3-0.4-0.5-0.9-0.5-1.5c0-0.6,0.2-1.1,0.7-1.6l15.9-15.4
		c0.4-0.4,1-0.6,1.6-0.5c0-0.1,0-0.1,0-0.2c0-0.5,0.2-1,0.7-1.4l15.9-15.4c0.4-0.4,0.9-0.6,1.4-0.5c0.5,0,1,0.2,1.4,0.6l14.1,15.5
		l0.7-0.6c0.4-0.4,0.9-0.6,1.4-0.6c0.5,0,1,0.3,1.3,0.7l14.5,15.8l20.3-20.4l-31.7-34.3c-0.3-0.3-0.5-0.7-0.6-1.2l-0.8-6.6
		c-0.1-0.7,0.2-1.4,0.6-1.8l3.3-3.2l-3.7-3.6l-72.2,7.4c0,0.1,0,0.1,0.1,0.2c3,7.4,5.6,14.8,2.1,17c-0.5,0.3-1.1,0.5-1.6,0.4
		c-2.2-0.1-3.5-3.1-4.5-5.3c-0.1-0.2-0.2-0.4-0.3-0.6c-1.5-3.3-3-6.5-5.1-9.4c-0.2-0.3-0.5-0.6-0.7-0.9c-1.5,1.2-2.7,3.2-3.8,6
		l-6.1,31.8c-0.2,0.8-0.7,1.4-1.4,1.6c-0.6,0.2-1.4,0.1-2-0.5l-5.1-5.7c-0.8-0.9-1.9-1.5-2.1-1.4l-12.1,11.8c0,0,0,0,0,0l17.3,21.1
		c0.4,0.4,0.6,1.1,0.5,1.7l-4,27.2c-0.1,0.6-0.1,1.4,0.5,1.7c0.4,0.2,1,0.1,1.3-0.1l7.8-7.8C355.1,166.9,356.1,166.1,357.3,166.1z
		 M247.8,209.4l-8.6,18.6c1.2-1.1,2.6-1.4,3.6-1.7c1.2-0.3,1.8-0.5,2.2-1.3c0.1-0.3,0.1-1,0.2-1.7c0-0.9,0-2,0.4-2.9
		c0.4-1.3,1.1-2.4,1.8-3.4c0.6-0.9,1.1-1.7,1.4-2.6c0.4-1.1-0.3-2.9-0.9-4.7C247.8,209.6,247.8,209.5,247.8,209.4z M122,201.8
		c-0.1,2.4,0,3.2,0.1,3.4c0,0,0.1,0.5,1.7,1.6c4.9,3.2,16,6.3,19.3,6.5c0-0.2,0-0.4,0-0.6c0-1.5,0.1-3.6,0.9-5.2
		c0.9-1.9,4.6-4.3,4.8-4.4c1.2-0.7,3-0.7,4.9-0.6c0.8,0,2.1,0.1,2.5-0.1c0.1-0.3,0.2-0.9,0.2-1.4c0.1-1.1,0.2-2.4,1-3.4l4.3-5.3
		c1.6-1.9,4.2-1.3,6.2-0.9c0.5,0.1,1.2,0.3,1.6,0.3c0.2-0.5,0.3-1.4,0.4-2c0.5-2.4,0.8-4,1.8-4.6c0.5-0.4,1.1-1,1.7-1.6
		c0.7-0.7,1.3-1.4,2.1-1.9c1.1-0.8,2.9-0.8,4.8-0.9c1.8,0,3.8-0.1,4.7-0.8c0.5-0.4,1-0.9,1.5-1.3c0.6-0.5,1.2-1.1,1.8-1.6
		c0.7-0.5,1.3-1.1,1.9-1.8c1-1,2-2,3.3-2.8c0.6-0.5,1.1-4.1,1.4-5.8c0.5-3.1,0.7-4.4,1.5-4.9l7.1-5c0.8-0.6,2.3-0.4,6.2,0.3
		c1.1,0.2,2.5,0.4,3.2,0.5c0.3-0.3,0.7-0.8,1-1.3c1.2-1.6,2.7-3.6,5-3.4c1.5,0.1,2.3,1.1,2.9,1.9c0.3,0.3,0.5,0.6,0.8,0.8
		c0.9,0.7,2.2,1.3,2.7,1.4c1.8-1.8,5.9-8.7,7.3-11.6c-0.2-4.3-6.9-24.5-9.5-24.9L127,199.9C126,200.7,124.4,201.4,122,201.8z
		 M248.6,203.6l0.1,0.3c0.2-0.6,0.4-1.4,0.8-2.1L248.6,203.6z M251.5,197.5l-1.8,3.8c0.4-0.7,0.8-1.5,1.2-2.3
		c0.3-0.5,0.5-0.9,0.6-1.2c0.1-0.2,0.2-0.3,0.3-0.4L251.5,197.5z M160.5,200.3L160.5,200.3C160.5,200.3,160.5,200.3,160.5,200.3z
		 M160.6,200.2L160.6,200.2L160.6,200.2z M30,199C30,199,30,199,30,199C30,199,30,199,30,199z M269.3,163l-13.9,30
		c0.2-0.1,0.3-0.1,0.5-0.2c1.2-0.5,2.8-1.1,3.2-1.6c0.4-0.5,0.7-1.3,1.1-2c0.9-1.9,1.9-4,3.8-4.6c1.6-0.5,3.1,0.1,4.2,0.6
		c0.4,0.2,1.1,0.5,1.4,0.4c1.5-2.3,2.5-6.8,3.3-10.8c0.4-1.6,0.7-3.2,1-4.5c-0.1-0.8-1.7-3-2.8-4.6
		C270.5,164.8,269.9,163.9,269.3,163z M408.7,165.4l12.4,14.6l14.6-14.6c-0.3-0.1-0.5-0.3-0.8-0.5l-12.9-14.5
		c-0.1,0.4-0.3,0.7-0.5,1.1L408.7,165.4z M356.6,170.2L356.6,170.2C356.6,170.2,356.6,170.2,356.6,170.2z M407.8,160.9l1,1l8.7-9.6
		L407.8,160.9z M393.1,147l11.6,13.6l14.2-12.4c0.4-0.4,0.9-0.5,1.5-0.5c0,0,0.1,0,0.1,0c0-0.1,0-0.2,0-0.2c0,0,0,0,0,0
		c-0.1,0-0.1,0-0.2,0c-0.5,0-1-0.2-1.3-0.6l-12.8-12.6L393.1,147z M425.3,147.8l11.2,12.6l14.3-14.4l-11.1-12.2L425.3,147.8z
		 M328.3,135l15.2,17.8l0.8-5.2l-15.1-18.4L328.3,135z M456.4,146.1L456.4,146.1L456.4,146.1z M420.6,145.4L420.6,145.4
		C420.6,145.4,420.6,145.4,420.6,145.4z M411.1,129.6l10.8,14.5c0.2,0.3,0.3,0.6,0.4,0.9l14.6-14.2l-12.7-13.9L411.1,129.6z
		 M412.1,137l6.7,6.5l-5.6-7.5L412.1,137z M322.3,121.5c0.2,0.1,0.5,0.2,0.7,0.3l0.2,0.1l0-0.4c0-0.2,0-0.5,0-0.7l-0.6,0
		L322.3,121.5z M325.5,120.7c0.6,0.2,1.3,0.5,1.9,0.9l12.5-12.2c0.8-0.8,1.8-1.1,2.8-1.1c2.3,0.1,4.3,2.1,4.8,2.8l2.5,2.7l4.7-24.4
		c-4.1,4.6-9.3,8.7-15.1,11.9c-6.1,3.4-12.2,5.7-18.5,6.8c0.9,0.5,1.8,1.5,2.7,3.7C324.9,114.5,325.4,117.5,325.5,120.7z M319.9,113
		c-0.1,0.6-0.1,1.5,0.1,2.5c0.2,0.8,0.5,2,1.3,3c-0.2-1.8-0.6-3.5-1.2-5C320.1,113.3,320,113.1,319.9,113z M294.3,101.7
		c0.2,0,0.4,0,0.6,0.1c15.9,4.8,29.2,3.5,43.1-4.3c6.4-3.6,12.9-9.3,17.1-15c1.5-2.1,2.8-4.2,3.7-6.4l0,0
		c-3.7,5.7-8.7,11.1-14.2,15.3c-12.3,9.5-32.6,13.4-49.3,9.5c-5.2-1.2-10.1-3.8-14.3-6.2c-1.7-0.9-3.4-1.9-5-3.4
		c0.3,2.5,1.4,4.9,3.1,7.1c4,5.1,8.9,6.2,14.4,3.4C293.7,101.8,294,101.7,294.3,101.7z M278.5,88.3c1.3,1.1,2.6,1.9,4.1,2.8l0.1,0.1
		c3.9,2.2,8.6,4.7,13.3,5.8c12.8,3,32.7,1.5,46.1-8.8c5.3-4.1,10-9.2,13.4-14.5c-0.9-0.7-1.7-1.3-2.6-1.9c-3.5,6.2-9,11.8-16,16
		c-18.8,11.4-39.6,11-54.4-1.2c-0.2-0.2-0.5-0.4-0.8-0.7C280.8,86.1,278.7,87.6,278.5,88.3z M290.4,62c6.3,2.8,12.4,7.6,18.1,14.5
		c2.1,2.5,3.7,5,5.3,7.4c1,1.5,2,3,3.1,4.5c0.4,0.5,0.5,1.2,0.4,1.8c-0.1,0.3-0.2,0.6-0.4,0.9c5.8-1,11.9-3.2,18.3-7.1
		c2.8-1.7,5.4-3.7,7.6-5.7c-0.4-0.2-0.6-0.6-0.8-1c-1.4-3.7-1-8.6,0.9-12.1c1.3-2.3,3.1-3.9,5.2-4.4c1.2-0.3,2.8-0.1,4.7,0.7
		c0.9-4,0.8-8.2-0.1-12.5c-0.2-0.9-0.6-2-1.2-3.2c-9.1-8.8-25.3-14.1-37.7-12.3c-6.5,1-13.7,4.2-21.4,9.5c-2.3,1.6-4.6,3.4-7,5.4
		c-0.1,0.1-0.2,0.2-0.4,0.3c-1.3,1.2-2.5,2.3-3.7,2.3h0c0.1,0,0.1,0.1,0.2,0.1l0.4,0.3c7.4,4.6,10.1,7.4,9.3,9.5l2.4,1.9l-2.8-1.2
		C290.7,61.8,290.6,61.9,290.4,62z M282,81.6c0.9,0,1.7,0.3,2.3,0.9c0.2,0.2,0.4,0.4,0.6,0.5l0.2,0.1c3,2.5,6.6,4.6,10.7,6.1
		c-1.1-4.1-4.1-8.7-8.3-9.5c-3.3-0.6-7.1,0.4-9.4,3.4c0.9-0.6,1.8-1.1,2.6-1.4C281.1,81.7,281.6,81.6,282,81.6z M367,79.1
		C367,79.1,367,79.1,367,79.1c2.3,3.1,3.9,6.4,5.3,9.5c-0.2-0.8-0.4-1.5-0.7-2.1c-0.7-2-1.4-3.9-2.1-5.5c0-0.1-0.1-0.2-0.2-0.4
		c-0.3-0.6-0.5-1.2-0.7-1.8c-0.2,0.1-0.5,0.2-0.7,0.2C367.6,79,367.3,79,367,79.1z M281.4,85.6C281.4,85.6,281.4,85.6,281.4,85.6
		C281.4,85.6,281.4,85.6,281.4,85.6z M363.3,75c0.2,0.2,0.4,0.4,0.5,0.6c0.2-0.1,0.3-0.1,0.5-0.2c-0.3-0.3-0.6-0.6-0.9-0.9
		C363.4,74.7,363.3,74.9,363.3,75z M348.9,69.6c-0.2,0.4-0.4,1.2-0.4,2c0.4-0.6,0.8-1.2,1.1-1.8C349.3,69.8,349.1,69.7,348.9,69.6z
		 M354.7,68c0.9,0.6,1.9,1.3,2.8,2c0-0.1,0.1-0.2,0.1-0.3c-1-0.7-2-1.4-2.9-2C354.8,67.8,354.8,67.9,354.7,68z M348.5,65.3
		c0.2,0,0.4,0,0.6,0.1c0.6,0.1,1.3,0.3,2.1,0.7c0-0.1,0.1-0.2,0.1-0.3c-1.8-0.9-2.5-0.7-2.6-0.7c-0.3,0.1-0.6,0.2-0.9,0.4
		C348,65.4,348.2,65.3,348.5,65.3z M356.2,63.5c1,0.7,2.1,1.4,3.3,2.3c0.4-1,0.8-2,1-3c-0.5-3.1-1.6-6.3-3.5-9.4
		C357.3,56.9,357,60.3,356.2,63.5z M354.6,43.2c1.1,1.1,2.2,2.3,3.1,3.5c1.8,2.4,3.3,4.8,4.4,7.2c0-1.3-0.1-2.7-0.2-4
		c-0.8-6.3-3.7-11.9-8.7-16.5c-11-10.1-27.7-12.5-39.6-11.4c-17.2,1.6-31.5,10.3-40.2,24.6c2.1,0.9,4.2,2.1,6.3,3.4l0-0.1
		c-1.5-3.1,1.9-7.4,5.1-10.6c4.2-4.2,9.7-7.9,15.5-10.6c8.1-3.8,18.5-5.2,27-3.8c9.4,1.6,17.3,5.6,22.8,11.7
		C351.7,38.6,353.4,41,354.6,43.2z M272.6,48.8c0.8,1.1,1.8,2.3,3.1,3.4l1-1.3C275.2,50.1,273.9,49.4,272.6,48.8z M349,40.9
		c1.1,0.8,2.2,1.7,3.2,2.6c-0.5-0.9-1.1-1.7-1.7-2.6H349z M320.3,28.8c-6.3,0-13,1.4-18.7,4c-1.8,0.8-3.5,1.7-5.2,2.8
		c5.8-3.3,11.4-5.3,16.6-6.1c7.6-1.1,16.5,0.2,24.7,3.3c-3.3-1.7-7.1-2.8-11.3-3.5C324.5,29,322.4,28.8,320.3,28.8z"/>
</g>
</svg>
