<svg xmlns="http://www.w3.org/2000/svg" viewBox="0 0 480 480"><path fill="#3b3a48" d="M342 252l-93-91c-12-11-21-24-30-37-8-14-12-29-12-45s7-38 22-53c14-14 32-22 53-22s23 3 34 8c11 5 20 12 27 21c8-9 17-15 27-21c11-5 22-8 34-8c21 0 38 7 53 22c14 14 22 32 22 53s-4 31-12 45c-8 14-18 26-29 37l-94 91h-2zm0-63l61-60c7-7 14-15 20-23s9-17 9-27s-3-15-8-21c-6-6-13-8-21-8s-10 0-15 3c-5 2-9 5-12 9l-34 41-34-41c-3-4-7-7-12-9-5-2-10-3-15-3-8 0-15 3-21 8-6 6-8 13-8 21s3 19 9 27s13 16 20 23l61 60zM140 376l157 43l134-42c-2-3-5-6-8-9-4-2-8-4-12-4h-138c-6 0-12-2-19-5l-52-17l12-44l46 15c6 2 14 3 23 5c9 1 21 2 38 2c0-4 0-8-4-12-2-4-5-6-9-7l-132-48h-36v124zM5 455v-248h179c3 0 5 1 7 2l132 49c12 5 22 12 30 24c8 11 12 24 12 37h45c19 0 35 6 48 19c13 12 20 29 20 49v23l-180 56-158-44v33H5zm45-45h45v-158h-45v158z" /></svg>
