<?xml version="1.0" encoding="UTF-8"?>
<svg id="Layer_1" xmlns="http://www.w3.org/2000/svg" version="1.1" viewBox="0 0 48 48">
  <!-- Generator: Adobe Illustrator 30.0.0, SVG Export Plug-In . SVG Version: 2.1.1 Build 123)  -->
  <path d="M0,44.4v-8.7c0-1.2.4-2.3,1.3-3.1.8-.8,1.9-1.2,3.1-1.2h7.1c.7,0,1.4.2,2.1.5.6.4,1.2.8,1.6,1.5,1,1.4,2.3,2.5,3.9,3.3,1.5.8,3.2,1.2,4.9,1.2s3.4-.4,5-1.2c1.5-.8,2.8-1.9,3.8-3.3.5-.6,1-1.1,1.7-1.5.6-.4,1.3-.5,2-.5h7.1c1.2,0,2.3.4,3.1,1.2s1.2,1.9,1.2,3.1v8.7h-15.2v-4.9c-1.3.9-2.6,1.6-4.1,2.1-1.5.5-3,.7-4.6.7s-3.1-.2-4.5-.7c-1.5-.5-2.9-1.2-4.1-2.1v5H0ZM6.4,29.3c-1.8,0-3.3-.6-4.6-1.9C.6,26.1,0,24.6,0,22.8s.6-3.4,1.9-4.6c1.3-1.2,2.8-1.9,4.6-1.9s3.4.6,4.6,1.9c1.2,1.2,1.9,2.8,1.9,4.6s-.6,3.3-1.9,4.6c-1.2,1.3-2.8,1.9-4.6,1.9ZM41.1,29.3c-1.8,0-3.3-.6-4.6-1.9-1.3-1.3-1.9-2.8-1.9-4.6s.6-3.4,1.9-4.6c1.3-1.2,2.8-1.9,4.6-1.9s3.4.6,4.6,1.9c1.2,1.2,1.9,2.8,1.9,4.6s-.6,3.3-1.9,4.6c-1.2,1.3-2.8,1.9-4.6,1.9ZM23.8,24.9c-2.5-2.2-4.5-4.1-6-5.7-1.6-1.5-2.8-2.9-3.6-4-.9-1.1-1.5-2.1-1.8-2.9-.3-.8-.5-1.7-.5-2.6,0-1.8.6-3.3,1.9-4.6,1.3-1.3,2.8-1.9,4.7-1.9s2,.2,2.9.7c.9.5,1.7,1.1,2.4,1.8.7-.8,1.5-1.4,2.4-1.8.9-.5,1.9-.7,2.9-.7,1.8,0,3.4.6,4.7,1.9,1.3,1.3,1.9,2.8,1.9,4.6s-.2,1.7-.5,2.6c-.3.8-.9,1.8-1.8,2.9-.9,1.1-2.1,2.4-3.6,4-1.6,1.5-3.6,3.4-6,5.7ZM23.8,19.1c2.6-2.4,4.5-4.3,5.7-5.8,1.2-1.5,1.8-2.7,1.8-3.5s-.2-1.1-.6-1.5c-.4-.4-1-.6-1.6-.6s-.9.1-1.3.4c-.4.3-.8.6-1.3,1.1l-2.8,3.2-2.8-3.1c-.5-.6-1-1-1.4-1.2-.4-.3-.8-.4-1.3-.4-.6,0-1.1.2-1.6.6-.4.4-.6.9-.6,1.5s.6,2,1.8,3.5c1.2,1.5,3.1,3.4,5.7,5.8Z" style="fill: #3b3a48;"/>
</svg>