<?xml version="1.0" encoding="UTF-8"?>
<svg id="Layer_1" xmlns="http://www.w3.org/2000/svg" version="1.1" viewBox="0 0 48 48">
  <!-- Generator: Adobe Illustrator 30.0.0, SVG Export Plug-In . SVG Version: 2.1.1 Build 123)  -->
  <path d="M34.2,25.2l-9.3-9.1c-1.2-1.1-2.1-2.4-3-3.7-.8-1.4-1.2-2.9-1.2-4.5s.7-3.8,2.2-5.3c1.4-1.4,3.2-2.2,5.3-2.2s2.3.3,3.4.8c1.1.5,2,1.2,2.7,2.1.8-.9,1.7-1.5,2.7-2.1,1.1-.5,2.2-.8,3.4-.8,2.1,0,3.8.7,5.3,2.2,1.4,1.4,2.2,3.2,2.2,5.3s-.4,3.1-1.2,4.5c-.8,1.4-1.8,2.6-2.9,3.7l-9.4,9.1h-.2ZM34.2,18.9l6.1-6c.7-.7,1.4-1.5,2-2.3s.9-1.7.9-2.7-.3-1.5-.8-2.1c-.6-.6-1.3-.8-2.1-.8s-1,0-1.5.3c-.5.2-.9.5-1.2.9l-3.4,4.1-3.4-4.1c-.3-.4-.7-.7-1.2-.9-.5-.2-1-.3-1.5-.3-.8,0-1.5.3-2.1.8-.6.6-.8,1.3-.8,2.1s.3,1.9.9,2.7,1.3,1.6,2,2.3l6.1,6ZM14,37.6l15.7,4.3,13.4-4.2c-.2-.3-.5-.6-.8-.9-.4-.2-.8-.4-1.2-.4h-11.4c-1,0-1.8,0-2.4,0-.6,0-1.2-.2-1.9-.5l-5.2-1.7,1.2-4.4,4.6,1.5c.6.2,1.4.3,2.3.5.9.1,2.1.2,3.8.2,0-.4,0-.8-.4-1.2-.2-.4-.5-.6-.9-.7l-13.2-4.8h-3.6s0,12.4,0,12.4ZM.5,45.5v-24.8h17.9c.3,0,.5.1.7.2l13.2,4.9c1.2.5,2.2,1.2,3,2.4.8,1.1,1.2,2.4,1.2,3.7h4.5c1.9,0,3.5.6,4.8,1.9,1.3,1.2,2,2.9,2,4.9v2.3l-18,5.6-15.8-4.4v3.3H.5ZM5,41h4.5v-15.8h-4.5v15.8Z" style="fill: #3b3a48;"/>
</svg>