<?xml version="1.0" encoding="UTF-8"?>
<svg id="Layer_1" xmlns="http://www.w3.org/2000/svg" xmlns:xlink="http://www.w3.org/1999/xlink" version="1.1" viewBox="0 0 48 48">
  <!-- Generator: Adobe Illustrator 30.0.0, SVG Export Plug-In . SVG Version: 2.1.1 Build 123)  -->
  <defs>
    <mask id="mask" x="-4.4" y="-4.2" width="56.2" height="56.2" maskUnits="userSpaceOnUse">
      <g id="mask0_7472_13263">
        <rect x="-4.4" y="-4.2" width="56.2" height="56.2" style="fill: #dad9d9;"/>
      </g>
    </mask>
  </defs>
  <g style="mask: url(#mask);">
    <path d="M33.1,47.3c-3.9,0-7.2-1.4-10-4.1-2.7-2.7-4.1-6.1-4.1-10s1.4-7.2,4.1-10c2.7-2.7,6.1-4.1,10-4.1s7.2,1.4,10,4.1c2.7,2.7,4.1,6.1,4.1,10s-1.4,7.2-4.1,10c-2.7,2.7-6.1,4.1-10,4.1ZM33.1,42.6c2.6,0,4.8-.9,6.6-2.8,1.8-1.8,2.8-4,2.8-6.6s-.9-4.8-2.8-6.6c-1.8-1.8-4-2.8-6.6-2.8s-4.8.9-6.6,2.8c-1.8,1.8-2.8,4-2.8,6.6s.9,4.8,2.8,6.6c1.8,1.8,4,2.8,6.6,2.8ZM5,42.6c-1.3,0-2.4-.5-3.3-1.4-.9-.9-1.4-2-1.4-3.3v-17.8c0-.3,0-.6,0-.9,0-.3.1-.6.3-.9L5.3,7.5h-.4c-.7,0-1.2-.2-1.7-.7-.4-.4-.7-1-.7-1.7v-2.3c0-.7.2-1.2.7-1.7.4-.4,1-.7,1.7-.7h16.4c.7,0,1.2.2,1.7.7.4.4.7,1,.7,1.7v2.3c0,.7-.2,1.2-.7,1.7-.4.4-1,.7-1.7.7h-.4l3.9,8.9c-.7.4-1.4.8-2.1,1.2-.7.4-1.3.9-1.9,1.5l-4.9-11.6h-5.6l-5.4,12.6v17.8h10c.2.8.5,1.6.8,2.4.3.8.7,1.6,1.2,2.3H5ZM33.1,16.9c-1.6,0-3-.6-4.2-1.7-1.1-1.1-1.7-2.5-1.7-4.2s.6-3,1.7-4.2c1.1-1.1,2.5-1.7,4.2-1.7v11.7c0-1.6.6-3,1.7-4.2,1.1-1.1,2.5-1.7,4.2-1.7s3,.6,4.2,1.7c1.1,1.1,1.7,2.5,1.7,4.2h-11.7Z" style="fill: #3b3a48;"/>
  </g>
</svg>