<svg xmlns="http://www.w3.org/2000/svg" viewBox="0 0 480 480"><path fill="#3b3a48" d="M0 444v-87c0-12 4-23 13-31c8-8 19-12 31-12h71c7 0 14 2 21 5c6 4 12 8 16 15c10 14 23 25 39 33c15 8 32 12 49 12s34-4 50-12c15-8 28-19 38-33c5-6 10-11 17-15c6-4 13-5 20-5h71c12 0 23 4 31 12s12 19 12 31v87h-152v-49c-13 9-26 16-41 21-15 5-30 7-46 7s-31-2-45-7c-15-5-29-12-41-21v50H0zm64-151c-18 0-33-6-46-19C6 261 0 246 0 228s6-34 19-46c13-12 28-19 46-19s34 6 46 19c12 12 19 28 19 46s-6 33-19 46c-12 13-28 19-46 19zm347 0c-18 0-33-6-46-19-13-13-19-28-19-46s6-34 19-46c13-12 28-19 46-19s34 6 46 19c12 12 19 28 19 46s-6 33-19 46c-12 13-28 19-46 19zm-173-44c-25-22-45-41-60-57-16-15-28-29-36-40-9-11-15-21-18-29-3-8-5-17-5-26c0-18 6-33 19-46c13-13 28-19 47-19s20 2 29 7c9 5 17 11 24 18c7-8 15-14 24-18c9-5 19-7 29-7c18 0 34 6 47 19c13 13 19 28 19 46s-2 17-5 26c-3 8-9 18-18 29-9 11-21 24-36 40-16 15-36 34-60 57zm0-58c26-24 45-43 57-58c12-15 18-27 18-35s-2-11-6-15c-4-4-10-6-16-6s-9 1-13 4c-4 3-8 6-13 11l-28 32-28-31c-5-6-10-10-14-12-4-3-8-4-13-4-6 0-11 2-16 6-4 4-6 9-6 15s6 20 18 35c12 15 31 34 57 58z"/></svg>