<?xml version="1.0" encoding="UTF-8"?>
<svg id="Layer_1" xmlns="http://www.w3.org/2000/svg" xmlns:xlink="http://www.w3.org/1999/xlink" version="1.1" viewBox="0 0 48 48">
  <!-- Generator: Adobe Illustrator 30.0.0, SVG Export Plug-In . SVG Version: 2.1.1 Build 123)  -->
  <defs>
    <mask id="mask" x="-10.1" y="-8" width="63.1" height="63.1" maskUnits="userSpaceOnUse">
      <g id="mask0_7481_13297">
        <rect x="-10.1" y="-8" width="63.1" height="63.1" style="fill: #dad9d9;"/>
      </g>
    </mask>
  </defs>
  <g style="mask: url(#mask);">
    <path d="M.4,44.6v-7.4c0-1.5.4-2.9,1.1-4.1.8-1.2,1.8-2.2,3.1-2.9,2.7-1.4,5.5-2.4,8.3-3.1,2.8-.7,5.7-1,8.5-1h.9c-.5.8-.8,1.6-1.1,2.5-.2.9-.4,1.8-.4,2.7-2.4,0-4.7.4-7.1,1s-4.6,1.5-6.9,2.6c-.4.2-.7.5-1,.9-.2.4-.4.8-.4,1.3v2.1h18.6l5.3,5.3H.4ZM21.4,23.6c-2.9,0-5.4-1-7.4-3.1-2.1-2.1-3.1-4.5-3.1-7.4s1-5.4,3.1-7.4c2.1-2.1,4.5-3.1,7.4-3.1s5.4,1,7.4,3.1c2.1,2.1,3.1,4.5,3.1,7.4s-1,5.4-3.1,7.4-4.5,3.1-7.4,3.1ZM21.4,18.3c1.4,0,2.7-.5,3.7-1.5,1-1,1.5-2.3,1.5-3.7s-.5-2.7-1.5-3.7c-1-1-2.3-1.5-3.7-1.5s-2.7.5-3.7,1.5c-1,1-1.5,2.3-1.5,3.7s.5,2.7,1.5,3.7c1,1,2.3,1.5,3.7,1.5ZM36.9,44.6l-9.2-9.2c-.6-.6-1-1.2-1.2-1.8-.2-.7-.4-1.3-.4-2,0-1.4.5-2.6,1.5-3.7,1-1.1,2.3-1.6,3.9-1.6s2.2.3,2.9.9c.7.6,1.5,1.3,2.5,2.3.9-.9,1.7-1.6,2.4-2.2.7-.6,1.7-.9,3-.9s2.9.6,3.9,1.7,1.5,2.4,1.5,3.8-.1,1.3-.4,2c-.3.7-.7,1.2-1.2,1.8l-9.2,9.2Z" style="fill: #3b3a48;"/>
  </g>
</svg>