<?xml version="1.0" encoding="utf-8"?>
<!-- Generator: Adobe Illustrator 27.4.1, SVG Export Plug-In . SVG Version: 6.00 Build 0)  -->
<svg version="1.1" id="Layer_1" xmlns="http://www.w3.org/2000/svg" xmlns:xlink="http://www.w3.org/1999/xlink" x="0px" y="0px"
	 viewBox="0 0 326 167" style="enable-background:new 0 0 326 167;" xml:space="preserve">
<style type="text/css">
	.st0{fill:#69A6C2;}
</style>
<path class="st0" d="M325.4,154.3h-95.3c1.4-5.5,9.1-33.3,17.2-39c0.3-0.2,1.4,0,2.3,0.3c1.8,0.5,4.3,1.1,5.8-0.8
	c0.6-0.7,1.4-2.1,2.4-3.8c1.9-3.2,5.8-9.7,7.6-9.1c1.2,0.4,2.3,0.7,3.5,1.1c9.2,2.9,16.4,5.2,21.6,2.1c3.7-2.2,6.2-7,7.7-15.1
	c3.7-19.6-4.5-22.1-15.9-25.5c-1-0.3-1.9-0.6-2.9-0.9c-0.2-0.1-0.9-0.3-1.2,0.3c-0.3,0.5,0,1,0.5,1.5c1.6,1.8,6.5,7.2,5.7,18.6
	c-0.6,8.6-3.3,14.3-8.2,17.1l-0.2,0.1c0,0-0.1,0-0.1,0l-2.1-0.3c2.4-1.9,6.7-6.8,7.4-17.4c1-15.3-9.9-22.6-10-22.7l-0.2-0.1
	c-0.4-0.1-37.9-10-58.2-15.7c-4.2-1.2-4.8-1.2-5.1-0.4c-0.4,1.1-0.4,1.1,20.8,9.5c13.3,5.3,29.9,11.8,33.7,14.3
	c5.2,3.4,11.3,10.4,10.2,13c-0.5,1.1-2.6,1.4-6,0.7c-14.2-2.8-52.6-28.5-69.2-43.1c-3.3-2.9-6.6-4.9-9.6-6.6c-5.1-3-9.2-5.4-11-11.4
	c-2-6.8-3.9-13.3-11-13.3c-0.1,0-0.2,0-0.4,0c-9.7,0.3-22.1,25.7-24.6,61.8c-1.7,26,1.3,46.8,7.9,54.3c1.7,1.9,3.6,3,5.7,3.1
	c3.7,0.2,8.7-5.1,13.2-14.4c1.5-0.8,11.6-5.9,29.6-9.2c13.3-2.4,23.6-2.6,31.4-0.4c0,0,0,0,0.1,0.1c0.9,2.7-9.2,19.1-20.4,33
	c-0.7,0.9-4,5.5-0.7,9.8c1.1,1.4,5.6,6,9.5,8.4H1.9c-0.4,0-0.8,0.3-0.8,0.8s0.3,0.8,0.8,0.8h218.8l0.1-1.5
	c-3.4-0.3-10.5-7.2-12.2-9.3c-2.6-3.4,0.1-7.2,0.7-7.9c7.1-8.9,22.2-29.8,20.7-34.4c-0.2-0.5-0.6-0.9-1.1-1.1
	c-8-2.2-18.5-2.1-32.1,0.4c-14.8,2.7-24.4,6.7-28.3,8.5c4.5-10.1,8.5-24.3,9.9-40.8c2.9-34.8-4.2-54.4-12.5-55.2
	c-8.1-0.8-16.8,19.3-21.2,48.8c-3.2,21.6-0.6,56.2,9.5,57.7c0.1,0,0.2,0,0.3,0c5.1,0,10.7-18.9,13.7-30.2c0.9,8.6-1.4,18.9-1.9,20.8
	c-4.3,8.9-8.8,14-11.8,14c-0.1,0-0.1,0-0.2,0c-1.7-0.1-3.2-1-4.6-2.6c-6.3-7.2-9.2-27.6-7.5-53.2c2.5-37.1,15.1-60.2,23.1-60.4
	c0.1,0,0.2,0,0.3,0c6,0,7.6,5.7,9.6,12.2c1.9,6.6,6.4,9.2,11.7,12.3c2.9,1.7,6.1,3.6,9.4,6.4c16.7,14.7,55.5,40.6,69.9,43.5
	c4.4,0.9,7,0.3,7.7-1.6c1.5-3.8-5.5-11.4-10.8-14.8c-3.9-2.5-19.9-8.8-33.9-14.4c-4.7-1.9-9.4-3.7-13.1-5.2
	c20.2,5.6,52.3,14.1,54.6,14.7c1,0.7,10.1,7.6,9.2,21.3c-0.8,11.8-6.2,16-7.8,17c-0.3,0.2-0.5,0.6-0.5,1c0.1,0.4,0.4,0.7,0.8,0.8
	l3.4,0.5c0.4,0,0.7,0,1.1-0.2l0.2-0.1c5.4-3,8.4-9.2,9-18.3c0.6-10-2.9-15.7-5-18.4c0.3,0.1,0.7,0.2,1,0.3
	c11.1,3.3,18.4,5.5,14.9,23.8c-1.4,7.6-3.7,12.1-7,14.1c-4.6,2.8-11.6,0.5-20.4-2.3c-1.1-0.4-2.3-0.7-3.5-1.1
	c-2.7-0.9-5.7,3.7-9.4,9.8c-0.9,1.6-1.8,2.9-2.3,3.6c-0.9,1.1-2.3,0.8-4.3,0.3c-1.4-0.3-2.6-0.7-3.5,0c-9.5,6.7-17.7,39.4-18.1,40.8
	l-0.2,0.9h97.3c0.4,0,0.8-0.3,0.8-0.8S325.8,154.3,325.4,154.3z M176.8,69.1c-1.2,14.1-4.2,26.2-7.8,35.6c0.8-5.2,1.3-12.2,0-18
	c0.7-2.8,1.1-4.6,1.1-4.7c1.5-8.2,3.2-19.6,3.2-27.4c0.2-16.9-1.3-29.4-2.5-35c0,0,0-0.1,0-0.1C175.3,26.6,179,42.9,176.8,69.1z
	 M154.3,119.1c-8.2-1.3-11.6-33.2-8.2-56c4.6-31.1,13.3-47.5,19.3-47.5c0.1,0,0.2,0,0.3,0c1.5,0.1,3.2,1.3,4.7,3.5
	c-0.2-0.2-0.5-0.1-0.5-0.1c-0.7,0.1-0.7,0.1-0.4,3.3c1.8,18.6,1.7,29-0.4,31c-0.2,0.2-0.4,0.2-0.6,0.2c-0.7-0.1-1.3-0.3-2-0.4
	c-4.5-1-8.7-2-11.8,5.1c-1.6,3.8-2.3,8.3-2.1,11.8c-0.1,2.7,0.1,5.3,1,7.1c1.9,3.8,5.6,4.3,8.6,4.8c2,0.3,3.7,0.5,4.1,1.6
	c0.5,1,0.9,2.2,1.1,3.4C164.5,99,158,119.7,154.3,119.1z M156.8,59.2c0.6-1.1,1-1.1,1-1.1c0.2,0.1,0.8,1.3,0.6,5
	c-0.3,5.8-2,11.6-2.8,11.9c-0.2,0-0.4-0.2-0.6-0.6c-0.5-0.9-0.9-2.5-1-4.4C154.3,65.9,155.5,61.4,156.8,59.2z M168.1,83.9
	c-0.1-0.4-0.3-0.7-0.5-1.1c-0.8-1.8-3-2.1-5.3-2.4c-2.8-0.4-6-0.9-7.5-4c0-0.1-0.1-0.1-0.1-0.2c0.2,0.1,0.5,0.2,0.7,0.2
	c1.1,0.1,2-1.1,2.9-3.9c1.3-4.1,2.8-14.4,0.2-15.9c-0.3-0.2-0.9-0.3-1.5,0c2.4-3.8,5.1-3.2,9.1-2.3c0.7,0.2,1.3,0.3,2,0.4
	c0.7,0.1,1.4,0,1.9-0.5c0.9-0.8,1.4-2.5,1.8-4.8c0,1.7,0,3.4,0,5.1c-0.1,7.6-1.7,19-3.2,27.1C168.5,82.4,168.3,83.1,168.1,83.9z"/>
</svg>
