<svg version="1.1" xmlns="http://www.w3.org/2000/svg" viewBox="0 0 3260 1670"><path fill="#69A6C2" d="M3254 1543h-953c14-55 91-333 172-390c3-2 14 0 23 3c18 5 43 11 58-8c6-7 14-21 24-38c19-32 58-97 76-91c12 4 23 7 35 11c92 29 164 52 216 21c37-22 62-70 77-151c37-196-45-221-159-255c-10-3-19-6-29-9c-2-1-9-3-12 3c-3 5 0 10 5 15c16 18 65 72 57 186c-6 86-33 143-82 171l-2 1h-1l-21-3c24-19 67-68 74-174c10-153-99-226-100-227l-2-1c-4-1-379-100-582-157c-42-12-48-12-51-4c-4 11-4 11 208 95c133 53 299 118 337 143c52 34 113 104 102 130c-5 11-26 14-60 7c-142-28-526-285-692-431c-33-29-66-49-96-66c-51-30-92-54-110-114c-20-68-39-133-110-133h-4c-97 3-221 257-246 618c-17 260 13 468 79 543c17 19 36 30 57 31c37 2 87-51 132-144c15-8 116-59 296-92c133-24 236-26 314-4l1 1c9 27-92 191-204 330c-7 9-40 55-7 98c11 14 56 60 95 84H19c-4 0-8 3-8 8s3 8 8 8h2188l1-15c-34-3-105-72-122-93c-26-34 1-72 7-79c71-89 222-298 207-344c-2-5-6-9-11-11c-80-22-185-21-321 4c-148 27-244 67-283 85c45-101 85-243 99-408c29-348-42-544-125-552c-81-8-168 193-212 488c-32 216-6 562 95 577h3c51 0 107-189 137-302c9 86-14 189-19 208c-43 89-88 140-118 140h-2c-17-1-32-10-46-26c-63-72-92-276-75-532c25-371 151-602 231-604h3c60 0 76 57 96 122c19 66 64 92 117 123c29 17 61 36 94 64c167 147 555 406 699 435c44 9 70 3 77-16c15-38-55-114-108-148c-39-25-199-88-339-144c-47-19-94-37-131-52c202 56 523 141 546 147c10 7 101 76 92 213c-8 118-62 160-78 170c-3 2-5 6-5 10c1 4 4 7 8 8l34 5c4 0 7 0 11-2l2-1c54-30 84-92 90-183c6-100-29-157-50-184c3 1 7 2 10 3c111 33 184 55 149 238c-14 76-37 121-70 141c-46 28-116 5-204-23c-11-4-23-7-35-11c-27-9-57 37-94 98c-9 16-18 29-23 36c-9 11-23 8-43 3c-14-3-26-7-35 0c-95 67-177 394-181 408l-2 9h973c4 0 8-3 8-8S3258 1543 3254 1543zM1768 691c-12 141-42 262-78 356c8-52 13-122 0-180c7-28 11-46 11-47c15-82 32-196 32-274c2-169-13-294-25-350v-1C1753 266 1790 429 1768 691zM1543 1191c-82-13-116-332-82-560c46-311 133-475 193-475h3c15 1 32 13 47 35c-2-2-5-1-5-1c-7 1-7 1-4 33c18 186 17 290-4 310c-2 2-4 2-6 2c-7-1-13-3-20-4c-45-10-87-20-118 51c-16 38-23 83-21 118c-1 27 1 53 10 71c19 38 56 43 86 48c20 3 37 5 41 16c5 10 9 22 11 34C1645 990 1580 1197 1543 1191zM1568 592c6-11 10-11 10-11c2 1 8 13 6 50c-3 58-20 116-28 119c-2 0-4-2-6-6c-5-9-9-25-10-44C1543 659 1555 614 1568 592zM1681 839c-1-4-3-7-5-11c-8-18-30-21-53-24c-28-4-60-9-75-40c0-1-1-1-1-2c2 1 5 2 7 2c11 1 20-11 29-39c13-41 28-144 2-159c-3-2-9-3-15 0c24-38 51-32 91-23c7 2 13 3 20 4c7 1 14 0 19-5c9-8 14-25 18-48v51c-1 76-17 190-32 271C1685 824 1683 831 1681 839z"></path></svg>