<?xml version="1.0" encoding="utf-8"?>
<!-- Generator: Adobe Illustrator 27.4.1, SVG Export Plug-In . SVG Version: 6.00 Build 0)  -->
<svg version="1.1" id="_x2014_ÎÓÈ_x5F_1" xmlns="http://www.w3.org/2000/svg" xmlns:xlink="http://www.w3.org/1999/xlink"
	 x="0px" y="0px" viewBox="0 0 607.5 300" style="enable-background:new 0 0 607.5 300;" xml:space="preserve">
<style type="text/css">
	.st0{fill:#FFFFFF;}
	.st1{fill:#69A6C2;}
</style>
<rect x="2718.9" y="-828.3" class="st0" width="2200" height="2200"/>
<g>
	<path class="st1" d="M84.4,280.5c-0.2,0-0.4-0.1-0.6-0.2c-0.2-0.2-0.2-0.4-0.2-0.6v-23.4H54.3c-0.5,0-0.8-0.4-0.8-0.8
		c0-0.5,0.4-0.8,0.8-0.8h29.4v-3.9c0-0.5,0.4-0.8,0.8-0.8c18.4,0,137.5-0.1,148.7-0.1c0-0.7,0-2.5,0-3.3c-22.5,0-45.8,0-71.6,0
		c-23.3,0-46.5,0-69.8,0c-0.5,0-0.8-0.4-0.8-0.8l0-21.9c0-0.2,0.1-0.4,0.2-0.6c0.2-0.2,0.4-0.2,0.6-0.3l129.6-0.2v-4.5
		c-37.7,0-139.6,0.1-140.8,0.1c-0.2,0-0.4-0.1-0.6-0.2c-0.2-0.2-0.2-0.4-0.2-0.6l0-31.2c0-0.5,0.4-0.8,0.8-0.8H92l0.3-27.5
		c0-0.5,0.4-0.8,0.8-0.8h126.8v-5.3l-142,0.3c-0.2,0-0.4-0.1-0.6-0.2c-0.2-0.2-0.2-0.4-0.2-0.6c0-11,0.1-27.7,0-28.6
		c0-0.2,0-0.5,0.2-0.7c0.2-0.2,0.4-0.3,0.6-0.3c2.2,0,142-0.2,142.8-0.2c0.5,0,0.8,0.4,0.8,0.8l0,27.7h11.9c0.2,0,0.4,0.1,0.6,0.2
		c0.2,0.2,0.2,0.4,0.2,0.6l-0.1,35.6c0,0.5-0.4,0.8-0.8,0.8l-139.8-0.2v4.8h128.5c0.5,0,0.8,0.4,0.8,0.8v23.7c5.1,0,8.9,0,10.7,0
		c0.1,0,0.1,0,0.2,0c0.8,0,0.8,0.8,0.8,1.2c0,0.2,0,0.6,0,1c0,0.9,0,2.2,0,3.7c0,3,0,7.1,0,11.1c0,4.1,0,8.3,0,11.3
		c15.6,0,30.8,0,46.3,0c8.9,0,17.9,0,26.8,0c0.9,0,1.9,0,2.9,0.1c7.5,0.3,13.2,0,14.2-5.8c1.2-7.1-4.2-14.1-9.4-20.9
		c-3.3-4.3-6.4-8.3-8-12.4c-4.6-12.1-4.2-25.5,1.2-36.9c2-4.2,5.7-9.9,11.7-13.2c4.9-2.7,10.6-3,15.5-1c0-0.1-0.1-0.2-0.1-0.4
		c-0.7-2.7-1.2-4.5-4.1-6.1c-3.4-1.8-7.9-1.9-12.1-0.2c-3.5,1.4-6.8,3.9-10.1,7.7c-9.2,10.5-13.7,25-11.8,38.8
		c0.9,7.1,3.5,13.9,7.6,20c0.6,0.9,1.4,2,2.3,3.1c3.9,5.3,9.3,12.6,6.5,18.3c-1.2,2.4-3.8,4.2-6.9,4.6c-2.4,0.3-4.9-0.1-8-1.2
		c-9.7-3.6-16.3-11-20.2-16.6c-5.9-8.5-9.6-18.2-11.2-28.7c-1.4-9.7-0.9-20,1.5-30.5c4.5-19.7,15.5-39.1,30.2-53.3
		c9-8.7,19.6-15.8,31.3-21c8.4-3.7,17.1-6.4,26-8c-0.4-0.5-0.7-1.1-1-1.7c-4.7-9.7,0-23.4,3.2-30.7c3.1-7.2,8.2-13.9,14.6-19.4
		c6.2-5.4,13.7-9.5,21.4-11.8c14.1-4.3,28.1-2.7,39.4,4.4c5.7,3.6,10.4,8.4,15,13c4.2,4.3,8.6,8.7,13.7,12.2
		c7.2,4.8,15.7,7.2,24,9.5c2.5,0.7,5.1,1.4,7.6,2.2c14.2,4.4,23.3,10.7,27.8,19.2c4.1,7.7,3.8,16.5,2.8,22.4
		c-1.7,10.7-9.2,19.7-21.1,25.3c-1,0.5-2,0.9-3,1.3c4.9,6.9,8.9,14.1,12.1,21.6c7.6,17.6,10.1,35.4,7.5,52.9
		c-2.1,14-8,23.9-18.6,31.1c-1.4,1-4.4,2.9-8.1,4.4c-1.1,0.8-2.2,1.5-3.3,2.1c-2.3,1.2-4.9,2.4-7.5,3.6l116,0.3
		c0.5,0,0.8,0.4,0.8,0.8s-0.4,0.8-0.8,0.8l-120.2-0.3c-4.9,1.9-9.7,3.2-12.6,3.2c-1.3,0-5.6,0.1-11.9,0.2c1.6,0,2.7,0,3.2,0.1
		c0.4,0,0.9,0,1.4,0c2.9,0,6.5,0.1,7.7,2.2c0.6,1.1,0.4,2.6-0.7,4.5h61.6c0.2,0,0.4,0.1,0.6,0.3c0.2,0.2,0.2,0.4,0.2,0.6l-0.2,23.7
		c0,0.5-0.4,0.8-0.8,0.8L84.4,280.5L84.4,280.5z M85.3,256.2v22.5l441.7-0.5l0.2-22H85.3z M85.3,254.6H332c-1.2-0.7-1.6-2.1-1.6-5.4
		c0-0.8,0.8-0.8,1.2-0.9c0.2,0,0.6,0,1.1,0c0.9,0,2.3,0,4.1-0.1c3.5-0.1,8.6-0.2,14.7-0.3c0.1,0,0.1,0,0.2,0
		c-8.9-0.2-16.3-0.5-21-0.8c-0.4,0-0.8-0.4-0.8-0.8c-0.7-8.3-9.4-84.2-9.8-86.6c0-0.1,0-0.1,0-0.2c0-0.5,0.4-0.8,0.8-0.8
		c21.9,0,155.9,0,155.9,0c0.2,0,0.5,0.1,0.6,0.3c0.2,0.2,0.2,0.4,0.2,0.7l-9.4,83.1h10.9c2.7-1,5.4-2.2,8-3.4
		c-6.1,1.1-10.9-0.5-13.9-4.5c-3.2-4.2-1.4-10,1.1-13.7c1.1-1.7,2.3-3.3,3.5-4.8c3.4-4.6,6.7-8.9,7.4-15.2
		c0.9-8.4-1.4-16.9-6.4-23.3l-0.1-0.1c-1.1-1.5-2.5-3.3-2.2-5.4c0.5-2.8,3.8-4,6.5-3.7c8.4,0.8,16,5.7,21.2,13.8
		c6.3,9.9,8.2,22.8,4.7,32.9c-1.9,5.5-5,12.3-9.8,17.6c0.9-0.5,1.7-1.1,2.5-1.6c10.2-6.9,15.8-16.5,17.9-30
		c3.8-25-3.2-50.8-19.5-73.7c-9.2,3.4-19.8,4.7-29.1,3.4c-8-1.1-15.4-3.6-21.9-7.6c-6.2-3.8-11.5-8.7-15.7-14.7
		c-4.8-6.8-8-14.7-9.6-23.2c-2.2,1.6-4,3.6-6,5.7c-2.7,2.9-5.4,5.9-9.1,7.7c-5.2,2.6-11.5,2.7-16.8,0.4c-10.3-4.5-14.5-16.6-14-26.4
		c0.3-8,2.7-15.5,6.9-21.6c4.5-6.5,10.7-11.1,18.2-13.4c5.2-1.6,9.7-1.7,13.6-0.3c5.3,1.9,8.4,5.2,9.5,10c0.9,4.1,0.2,8.9-0.6,13.5
		c-0.3,1.7-0.5,3.5-0.7,5.2c-0.6,5.7-0.5,11.3,0.3,16.6c0.5-0.3,1.1-0.6,1.7-0.8c8.9-3.6,19.1-2.4,30.4,3.7
		c9.5,5.1,18.1,12.6,25.3,19.2c6.8,6.4,13,13.3,18.3,20.6c1.1-0.4,2.2-0.9,3.3-1.4c8-3.8,18.1-11.1,20.2-24.1
		c0.9-5.7,1.2-14.1-2.6-21.4c-4.3-8.1-13-14.1-26.8-18.4c-2.5-0.8-5-1.5-7.5-2.2c-8.4-2.3-17.1-4.8-24.5-9.7c-5.2-3.5-9.7-8-14-12.4
		c-4.5-4.6-9.1-9.3-14.7-12.8c-10.9-6.9-24.4-8.4-38-4.2c-15.4,4.7-28.8,16.4-34.9,30.3c-2.5,5.7-7.7,19.9-3.2,29.3
		c0.4,0.8,0.8,1.5,1.3,2.1c2.9-0.5,5.8-0.8,8.7-1.1c1.7-0.1,3.3-0.2,4.9,0.3c1.6,0.5,3.3,1.9,3.4,3.9c0.1,1.1-0.3,2.2-1.1,3.1
		c-1,1.1-2.6,1.8-4.2,1.8c-0.9,0-1.9-0.1-2.9-0.4c-4.1-1.1-7.3-3-9.6-5.8c-21.7,3.7-41.7,13.7-57.3,28.7
		c-28.5,27.4-43.8,76.2-20.3,110.4c3.7,5.4,10.1,12.5,19.4,16c2.8,1.1,5.1,1.4,7.2,1.1c2.5-0.3,4.6-1.7,5.6-3.6
		c2.3-4.8-2.7-11.6-6.4-16.5c-0.9-1.2-1.7-2.3-2.3-3.2c-4.2-6.4-6.8-13.3-7.8-20.7c-1.9-14.2,2.7-29.3,12.2-40.1
		c3.5-4,7-6.6,10.7-8.1c4.6-1.9,9.6-1.7,13.5,0.3c3.6,1.9,4.2,4.3,4.9,7.1c0.2,0.7,0.4,1.4,0.6,2.1c0.1,0.3,0,0.7-0.3,0.9
		c-0.3,0.2-0.6,0.3-0.9,0.1c-4.8-2.6-10.6-2.6-15.6,0.2c-5.6,3-9.1,8.4-11,12.4c-5.2,11-5.7,24-1.2,35.6c1.5,3.9,4.5,7.8,7.7,12
		c5.4,7.1,11,14.4,9.7,22.2c-1.3,7.8-9.7,7.5-15.9,7.2c-1,0-2-0.1-2.9-0.1c-8.9,0-17.9,0-26.8,0c-15.5,0-30.7,0-46.3,0
		c0,1.8,0,3.9,0,4.1c0,0,0,0,0,0c0,0.8-0.8,0.8-1.2,0.8h-67.2c-31.1,0-69.9,0.1-81.1,0.1L85.3,254.6L85.3,254.6z M332.1,250
		c0,1.6,0.2,2.6,0.6,3c0.5,0.4,1.9,0.4,3.8,0.4c1.2,0,118.1,0,128.8-0.1c0.5-0.8,0.8-1.8,0.5-2.5c-0.7-1.3-4.2-1.3-6.3-1.3
		c-0.5,0-1.1,0-1.5,0c-1.8-0.1-11-0.2-23.9-0.3c-10.5-0.1-23.2-0.3-36.2-0.4C367.4,249.3,337.2,249.9,332.1,250L332.1,250z
		 M331.5,245.5c12,0.7,39.8,1.2,66.4,1.6c32.4-0.6,65.6-1.1,68.8-1.1c1.7,0,4.4-0.6,7.5-1.6h-7c-0.2,0-0.5-0.1-0.6-0.3
		c-0.2-0.2-0.2-0.4-0.2-0.7l9.4-83.1c-11.8,0-130.6,0-154,0c0.1,0.6,0.2,1.4,0.3,2.5c0.3,2.1,0.6,5.2,1.1,9.1c0.9,7.5,2,17.7,3.2,28
		C328.6,218.7,330.9,240,331.5,245.5L331.5,245.5z M92.5,244.7c23,0,46,0,69,0c25.8,0,49.1,0,71.6,0c0-9.1-0.1-23.1-0.1-26.6
		c-2,0-5.5,0-10.1,0v5.3c0,0.5-0.4,0.8-0.8,0.8l-129.6,0.2L92.5,244.7L92.5,244.7z M482.1,170.1c-1.9,0-3.8,0.8-4.1,2.4
		c-0.3,1.4,0.8,2.7,1.8,4.1l0.1,0.1c5.3,6.8,7.7,15.7,6.8,24.5c-0.7,6.8-4.1,11.3-7.7,16c-1.1,1.5-2.3,3.1-3.4,4.7
		c-2.3,3.5-3.6,8.5-1.1,11.8c4.4,5.8,12.3,4.6,19.1,1.8c7.1-5.4,11.3-14.1,13.6-20.9c3.3-9.6,1.5-22-4.6-31.4
		c-4.9-7.6-12-12.3-19.9-13.1C482.5,170.2,482.3,170.1,482.1,170.1L482.1,170.1z M81.2,187.1l0,29.5c9.9,0,104.1-0.1,140-0.1v-22.9
		H92.7c-0.2,0-0.4-0.1-0.6-0.3c-0.2-0.2-0.2-0.4-0.2-0.6v-5.7L81.2,187.1L81.2,187.1z M93.6,185.5l138.9,0.2l0.1-33.9h-11.1v6.1
		c0,0.2-0.1,0.4-0.2,0.6c-0.2,0.2-0.4,0.2-0.6,0.2H93.9L93.6,185.5z M320.1,159.8c0.1,0.3,0.4,0.6,0.8,0.6
		C320.5,160.3,320.2,160.1,320.1,159.8z M78.7,123.4c0.1,4.4,0,22.4,0,27l141.2-0.3l0-26.9C211,123.2,81.3,123.4,78.7,123.4
		L78.7,123.4z M425,84.6c4.1,23.7,21.5,41.5,46,44.8c8.9,1.2,19,0,27.9-3.2c-5.1-7-11.1-13.7-17.9-20c-15.5-14.4-35.7-30-53.9-22.6
		C426.4,83.9,425.7,84.2,425,84.6z M410.4,38.4c-2.2,0-4.6,0.4-7.2,1.2c-14.1,4.4-23.3,17.2-24,33.5c-0.4,9.3,3.5,20.6,13,24.8
		c4.9,2.2,10.6,2,15.4-0.4c3.4-1.7,6.1-4.6,8.7-7.3c2.1-2.3,4.3-4.6,6.9-6.4c-0.9-5.7-1-11.6-0.4-17.7c0.2-1.7,0.5-3.5,0.7-5.3
		c1.4-9.1,2.8-17.8-7.8-21.6C414.2,38.7,412.4,38.4,410.4,38.4L410.4,38.4z M360.2,82.3c2,2.1,4.7,3.6,8.1,4.5
		c0.9,0.2,1.7,0.4,2.5,0.4c1.1,0,2.2-0.5,2.9-1.2c0.4-0.4,0.8-1,0.7-1.8c-0.1-1.2-1.2-2.1-2.3-2.5c-1.3-0.4-2.7-0.4-4.2-0.2
		C365.2,81.6,362.7,81.9,360.2,82.3L360.2,82.3z"/>
	<path class="st1" d="M84.4,281.6l-0.1,0c-0.5,0-0.9-0.2-1.2-0.6c-0.4-0.4-0.6-0.9-0.6-1.4v-22.2H54.3c-1.1,0-2-0.9-2-2s0.9-2,2-2
		h28.2v-2.8c0-1.1,0.9-2,2-2c10.4,0,52.5,0,89.4,0c27,0,51.2,0,58.1,0v-1.1c-20.1,0-40.9,0-63.5,0l-7,0c-23.3,0-46.5,0-69.8,0
		c-1.1,0-2-0.9-2-2l0-21.9c0-0.5,0.2-1,0.6-1.4c0.3-0.3,0.8-0.5,1.3-0.6l0.1,0l128.4-0.2v-2.2c-30.2,0-98.4,0.1-126.8,0.1
		c-7.8,0-12.6,0-12.9,0c-0.5,0-1-0.2-1.4-0.6c-0.4-0.4-0.6-0.9-0.6-1.4l0-31.2c0-1.1,0.9-2,2-2h10.4l0.3-26.4c0-1.1,0.9-1.9,2-1.9
		h125.7v-3l-140.9,0.3c-0.5,0-1-0.2-1.4-0.6c-0.4-0.4-0.6-0.9-0.6-1.4c0.1-13.3,0.1-27.5,0-28.5c0-0.2,0-0.4,0-0.6l0,0h0
		c0.1-0.4,0.2-0.7,0.5-1c0.4-0.4,0.9-0.7,1.5-0.7c1.3,0,55.4-0.1,96.6-0.1c25.4,0,46-0.1,46.3-0.1c1.1,0,2,0.9,2,2l0,26.6h10.8
		c0.5,0,1,0.2,1.4,0.5c0.4,0.4,0.6,0.9,0.6,1.4l-0.1,35.6c0,1.1-0.9,2-2,2l-138.6-0.2v2.6h127.3c1.1,0,2,0.9,2,2v22.6h9.6
		c0,0,0.1,0,0.2,0c0.5,0,1.9,0.2,1.9,2.3v1c0,0.9,0,2.1,0,3.6c0,3,0,7,0,11c0,3.7,0,7.4,0,10.3h72c0.6,0,1.2,0,1.9,0l1.1,0
		c8.3,0.3,12.3-0.3,13.1-4.9c1.1-6.6-4.1-13.4-9.2-20l-0.1-0.1c-3.3-4.3-6.4-8.4-8-12.6c-4.8-12.3-4.3-26.1,1.3-37.8
		c2.1-4.4,5.9-10.3,12.2-13.7c4.6-2.4,9.7-3,14.4-1.7c-0.5-1.6-1.2-2.7-3.1-3.7c-3.1-1.6-7.3-1.7-11.1-0.1c-3.4,1.4-6.5,3.8-9.7,7.4
		c-9,10.3-13.3,24.5-11.6,37.9c0.9,7,3.4,13.5,7.4,19.6c0.6,0.8,1.3,1.8,2.1,2.9l0.2,0.3c4.1,5.5,9.6,13,6.6,19.3
		c-1.3,2.7-4.3,4.7-7.7,5.2c-2.5,0.3-5.3-0.1-8.5-1.3c-10-3.7-16.7-11.3-20.7-17c-6-8.6-9.8-18.5-11.4-29.2
		c-1.4-9.9-0.9-20.3,1.5-30.9c4.5-19.9,15.7-39.6,30.5-53.9c9.1-8.8,19.8-15.9,31.7-21.2c7.9-3.5,16.2-6.1,24.7-7.8
		c-0.1-0.1-0.1-0.3-0.2-0.4c-4.6-9.5-0.8-22.4,3.1-31.6c3.2-7.4,8.4-14.2,14.9-19.8c6.3-5.5,13.9-9.6,21.8-12
		c14.4-4.4,28.7-2.8,40.3,4.6c5.7,3.6,10.4,8.3,14.9,12.9l0.3,0.3c4.2,4.3,8.5,8.7,13.5,12c7,4.7,15.5,7.1,23.7,9.3l1.4,0.4
		c2,0.6,4.1,1.2,6.2,1.8c14.5,4.5,23.9,11,28.5,19.8c4.2,8,3.9,17,2.9,23.2c-1.8,11.1-9.5,20.4-21.7,26.2c-0.6,0.3-1.2,0.5-1.7,0.8
		c4.6,6.7,8.4,13.6,11.4,20.6c7.7,17.8,10.2,35.8,7.5,53.6c-2.2,14.3-8.2,24.4-19.1,31.9c-1.4,1-4.4,2.9-8.1,4.5
		c-1.1,0.8-2.2,1.5-3.3,2.1c-0.9,0.5-1.9,1-2.9,1.5l110.8,0.3c1.1,0,2,0.9,2,2s-0.9,2-2,2l-120-0.3c-3,1.1-8.3,2.9-12,3.2
		c0.2,0.2,0.4,0.5,0.6,0.8c0.6,1.1,0.7,2.4,0.1,3.9h59.8c0.6,0,1.1,0.2,1.4,0.7c0.3,0.3,0.5,0.8,0.5,1.3l-0.2,23.7
		c0,1.1-0.9,1.9-2,1.9L84.4,281.6z M86.4,257.4v20.3l439.5-0.5l0.2-19.8H86.4z M335.4,255.1H465l0.4-0.6l-0.1,0
		c-10.6,0.1-123.9,0.1-128.8,0.1c-0.8,0-1.6,0-2.2,0L335.4,255.1z M86.4,253.5h243.4c-0.4-1.1-0.5-2.5-0.5-4.2
		c0-0.3,0.1-0.8,0.4-1.3c-0.5-0.3-0.9-0.9-0.9-1.5c-0.1-1.2-0.4-4.2-0.8-8.3c0,0.5-0.1,0.9-0.2,1.4c-1.5,8.8-10.8,8.4-17,8.2
		c-1,0-2-0.1-2.9-0.1h-72v3c0,0.5-0.2,2-2.3,2h-67.2c-30.1,0-67.5,0.1-80,0.1V253.5z M333.2,251.1c0.1,0.8,0.2,1,0.2,1.1
		c0.3,0.1,1.8,0.1,3,0.1c4.7,0,114,0,128.1-0.1c0.2-0.6,0.2-0.8,0.2-0.8c-0.3-0.4-2.1-0.7-5.2-0.7c-0.6,0-1.2,0-1.6,0
		c-1.5-0.1-9.1-0.2-23.8-0.3l-0.6,0c-10.3-0.1-22.8-0.3-35.6-0.4C363.5,250.5,339.8,251,333.2,251.1z M351.7,247.4l0,1.1
		c7.7-0.1,17.4-0.3,28.8-0.5C369.1,247.8,359.5,247.6,351.7,247.4z M416.5,247.9c6.1,0.1,11.8,0.1,17,0.2l0.6,0
		c10.3,0.1,17.1,0.2,20.8,0.3v-1.1C445.5,247.4,431.5,247.7,416.5,247.9z M332.5,244.4c10.3,0.6,31.7,1.1,65.4,1.6
		c29.7-0.5,61.3-1,67.9-1.1c-0.4-0.5-0.5-1-0.5-1.5l9.3-81.9H323.1c0,0.4,0.1,0.8,0.1,1.2l0.4,3.4c0.2,1.6,0.4,3.5,0.7,5.7
		c0.9,7.5,2,17.7,3.2,28C329.5,217,331.8,237.6,332.5,244.4z M93.6,243.5c11.1,0,22.3,0,33.4,0c11.5,0,23,0,34.5,0
		c25.4,0,48.3,0,70.5,0c0-9.1-0.1-20-0.1-24.3H224v4.1c0,1.1-0.9,2-2,2l-128.4,0.2L93.6,243.5z M469.5,241.6h9.4
		c0.8-0.3,1.7-0.7,2.5-1c-3.8-0.5-6.9-2.2-9.1-5.2c-0.9-1.1-1.4-2.4-1.7-3.7L469.5,241.6z M357.8,83.8
		c-21.4,3.8-40.8,13.6-56.1,28.3c-28.1,27.1-43.4,75.3-20.1,108.9c3.6,5.3,9.8,12.2,18.8,15.6c2.6,1,4.7,1.3,6.7,1.1
		c2.1-0.3,3.9-1.4,4.7-3c2-4.1-2.7-10.5-6.2-15.2l-0.1-0.1c-0.8-1.1-1.7-2.3-2.3-3.2c-4.3-6.5-7-13.6-8-21.2
		c-1.9-14.6,2.8-29.9,12.5-41c3.6-4.1,7.2-6.8,11.1-8.4c4.9-2,10.3-1.9,14.4,0.3c4,2.1,4.8,4.9,5.5,7.8c0.1,0.6,0.3,1.3,0.6,2.1
		c0.2,0.7,0,1.5-0.5,2h138c0.6,0,1.1,0.2,1.5,0.7c0.4,0.4,0.5,1,0.5,1.5l-1,8.8c1.5-0.9,3.5-1.3,5.3-1.1c8.8,0.9,16.6,6,22,14.4
		c6.5,10.1,8.4,23.4,4.9,33.8c-1.2,3.5-3,8-5.8,12.3c7.9-6.5,12.4-15.1,14.1-26.7c3.7-24.4-2.8-49.3-18.8-72.1
		c-9.2,3.3-19.7,4.5-28.8,3.2c-8.2-1.1-15.7-3.7-22.3-7.7c-6.3-3.8-11.7-8.9-16.1-15c-4.5-6.4-7.7-13.7-9.4-21.8
		c-1.6,1.3-3,2.9-4.4,4.4c-2.8,3-5.6,6-9.4,8c-5.5,2.7-12.1,2.9-17.8,0.4c-10.8-4.8-15.1-17.2-14.7-27.5c0.3-8.2,2.8-15.9,7.1-22.2
		c4.6-6.7,11.1-11.5,18.8-13.9c5.4-1.7,10.2-1.8,14.3-0.3c5.7,2.1,9.1,5.6,10.2,10.8c1,4.4,0.2,9.4-0.6,13.9l-0.1,0.7
		c-0.2,1.5-0.5,3-0.6,4.4c-0.5,5.1-0.5,10,0,14.7c0.1-0.1,0.3-0.1,0.4-0.2c9.2-3.7,19.7-2.5,31.4,3.8c9.6,5.2,18.3,12.7,25.5,19.4
		c6.7,6.2,12.7,12.9,17.9,20.1c0.9-0.4,1.7-0.7,2.4-1.1c7.8-3.7,17.5-10.7,19.6-23.2c0.9-5.5,1.2-13.6-2.5-20.7
		c-4.1-7.8-12.7-13.7-26.2-17.9c-2-0.6-4.1-1.2-6.1-1.8l-1.4-0.4c-8.5-2.4-17.2-4.8-24.8-9.9c-5.3-3.6-9.8-8.1-14.1-12.5
		c-4.5-4.5-9.1-9.2-14.5-12.6c-10.6-6.7-23.8-8.2-37.1-4.1c-15.1,4.6-28.3,16-34.2,29.7c-2.4,5.5-7.5,19.4-3.2,28.3
		c0.2,0.5,0.5,1,0.8,1.4c2.6-0.4,5.3-0.7,8.1-1c1.7-0.1,3.5-0.2,5.3,0.4c1.8,0.6,4,2.2,4.2,4.9c0.1,1.4-0.4,2.8-1.4,3.9
		c-1.2,1.4-3.1,2.2-5,2.2c-1,0-2.1-0.2-3.2-0.5C363.4,88.4,360.2,86.5,357.8,83.8z M481.6,171.3c-1.3,0.1-2.3,0.7-2.5,1.4
		c-0.2,0.8,0.7,1.9,1.5,3l0.2,0.3c5.5,7,8,16.2,7,25.3c-0.8,7.2-4.4,12-7.9,16.6l-0.3,0.4c-1,1.4-2.1,2.8-3,4.2
		c-2.1,3.2-3.3,7.7-1.2,10.5c4.4,5.8,12.9,3.5,17.6,1.5c6.9-5.3,11-13.9,13.1-20.3c3.2-9.3,1.4-21.3-4.5-30.5
		c-4.7-7.3-11.5-11.8-19-12.5c-0.1,0-0.2,0-0.3,0c-0.1,0-0.2,0-0.3,0H481.6z M319,160c-3.7,2.9-6.1,6.9-7.6,10
		c-5.1,10.7-5.5,23.4-1.1,34.7c1.4,3.6,4.2,7.3,7.2,11.3l0.3,0.4c3.9,5.1,7.9,10.4,9.5,15.9C324.7,208.2,319.4,162.3,319,160z
		 M476.8,177.1l-5.3,46.8c0.5-1.3,1.1-2.4,1.8-3.5c1.1-1.6,2.2-3.1,3.3-4.6l0.2-0.3c3.3-4.4,6.5-8.6,7.1-14.7
		c0.9-8.1-1.4-16.3-6.2-22.5l-0.1-0.1C477.4,177.9,477.1,177.5,476.8,177.1z M82.4,188.3l0,27.2c6.3,0,26.8,0,50.8-0.1
		c30.6,0,67-0.1,87-0.1v-20.6H92.7c-0.6,0-1.1-0.2-1.4-0.7c-0.3-0.3-0.5-0.8-0.5-1.3v-4.5H82.4z M94.7,184.3l136.7,0.2l0.1-31.6
		h-8.8v5c0,0.5-0.2,1-0.6,1.4c-0.4,0.4-0.9,0.6-1.4,0.6H95L94.7,184.3z M320.9,159.2v0.3l0.3-0.1C321.1,159.3,321,159.2,320.9,159.2
		z M322.9,157.5h12.8C331.8,155.6,327.1,155.6,322.9,157.5z M79.8,124.5c0.1,5.3,0,19.2,0,24.8l138.9-0.3l0-24.7
		c-9.7,0-61.8,0.1-100.2,0.1C99.4,124.5,84.1,124.5,79.8,124.5z M426.3,85.2c4.4,23.4,21.5,39.9,44.9,43.1
		c8.2,1.1,17.5,0.1,25.9-2.7c-4.8-6.4-10.5-12.7-16.8-18.6c-15.3-14.2-35.1-29.6-52.7-22.4C427.1,84.9,426.7,85,426.3,85.2z
		 M410.4,39.5c-2.1,0-4.4,0.4-6.9,1.1c-13.6,4.2-22.5,16.7-23.2,32.4c-0.4,8.9,3.3,19.8,12.4,23.8c4.6,2,9.9,1.9,14.4-0.4
		c3.2-1.6,5.8-4.4,8.3-7c2-2.2,4.1-4.4,6.6-6.2c-0.8-5.6-0.9-11.4-0.3-17.3c0.2-1.5,0.4-3,0.6-4.5l0.1-0.8c1.4-9,2.6-16.8-7.1-20.4
		C413.9,39.8,412.2,39.5,410.4,39.5L410.4,39.5z M362.7,83c1.6,1.1,3.5,2,5.8,2.6c0.8,0.2,1.5,0.3,2.2,0.3c0.8,0,1.6-0.4,2.1-0.9
		c0.3-0.3,0.4-0.6,0.4-0.9c-0.1-0.7-0.8-1.3-1.5-1.5c-1.1-0.4-2.4-0.3-3.7-0.2C366.2,82.6,364.5,82.8,362.7,83z"/>
</g>
</svg>
