<svg viewBox="0 0 364 230" xmlns="http://www.w3.org/2000/svg" fill="none">
  <g stroke="#EDEDEF">
    <path d="M0 162h363" />
    <path d="M0 104h363" />
    <path d="M0 133h363" />
  </g>
  <path fill="#046B99" transform="scale(.01)" d="M4464 21014c-54 0-104-10-151-31-47-21-85-50-115-88-30-38-46-82-50-133h167c7 34 23 61 48 82 25 21 56 31 94 31 42 0 78-10 109-29 32-20 55-51 71-94 16-43 22-99 17-168-11 21-27 40-47 56-20 16-43 28-69 37-26 8-56 13-88 13-59 0-111-11-157-33-45-22-81-54-107-95-26-41-38-90-38-146 0-57 14-107 41-152 27-44 65-79 114-104 49-25 106-38 172-38 74 0 137 18 190 53 54 35 95 84 123 149 29 64 43 139 43 226 0 104-15 190-44 259-29 69-71 120-126 155-55 34-120 51-196 51zm16-464c24 0 48-5 71-16 23-11 42-25 57-42 15-17 22-34 22-52 0-39-6-72-19-100-12-28-30-49-53-64-22-15-49-22-79-22-28 0-52 6-74 19-22 13-39 31-51 54-12 23-19 50-19 80 0 45 13 80 40 106 26 25 61 37 104 37zm663 463c-39 0-75-7-107-22-32-15-57-36-75-64-18-28-28-63-28-103 0-68 25-120 76-155 51-36 131-54 241-55l78-1v-37c0-28-8-50-25-65-16-16-42-23-77-23-25 0-49 6-73 18-23 12-39 32-47 61h-146c2-45 15-82 39-110 24-29 56-51 97-65 40-14 87-22 139-22 63 0 114 8 152 24 38 16 66 38 83 68 18 29 26 64 26 104v436h-146l-14-107c-21 45-48 76-80 93-32 17-69 26-113 26zm59-115c16 0 31-3 46-8 15-6 29-14 41-23 12-10 21-21 28-34 7-12 11-25 11-38v-92l-63 1c-29 0-56 4-82 11-25 6-46 17-61 32-15 15-23 35-23 60 0 29 10 51 29 68 20 16 44 24 73 24zM3771 22712c-82 0-153-18-213-53-60-36-106-87-139-153-32-66-49-146-49-238 0-92 16-172 49-239 33-67 80-118 140-154 60-36 130-55 211-55 80 0 150 18 210 54 60 36 106 87 138 154 33 67 49 147 49 239 0 92-16 171-49 237-32 66-78 118-137 154-60 36-130 53-211 53zm0-144c42 0 79-10 110-30 31-20 55-52 72-96 17-44 25-101 25-172 0-72-9-131-26-176-17-45-41-78-72-98-31-21-67-32-109-32-42 0-79 11-110 32-31 21-55 54-73 99-17 45-26 103-26 175 0 71 9 128 26 172 17 44 41 76 73 96 31 20 68 30 110 30zM4285 22894v-814h176l1 89c9-15 20-28 34-40 14-12 29-23 45-32 16-9 34-16 53-21 19-5 39-8 61-8 46 0 87 11 123 34 36 22 64 57 85 104 21 47 31 106 31 179 0 75-11 137-34 185-22 48-52 84-91 107-39 23-83 35-131 35-20 0-39-3-56-8-18-5-34-13-49-22-15-10-28-21-40-33-12-13-22-27-31-41v286h-175zm310-310c38 0 70-16 95-47 26-32 39-82 39-150 0-60-12-107-37-140-24-34-57-51-97-51-45 0-79 18-101 55-22 36-33 82-33 136 0 35 5 67 14 97 10 30 25 54 44 73 20 18 45 28 76 28zM5299 22712c-62 0-116-13-163-38-46-26-83-63-109-110-26-47-39-103-39-167 0-62 12-118 35-167 24-50 58-89 103-118 45-29 99-44 163-44 63 0 116 13 159 40 43 26 75 63 97 111 22 47 33 102 33 164v47h-387c0 32 5 59 16 83 10 23 25 41 45 54 20 12 44 19 72 19 30 0 56-6 79-19 22-13 38-34 47-63h158c-7 44-25 82-53 113-28 31-62 55-102 71-40 16-82 25-125 25zm-137-386h253c0-25-5-48-14-68-9-21-23-37-42-49-18-12-42-18-70-18-27 0-50 7-69 20-19 13-33 30-44 50-10 21-15 43-14 65zM5705 22700v-620h172v88c10-15 22-30 37-44 16-14 35-26 59-35 24-9 52-14 84-14 38 0 73 7 106 22 33 15 60 38 80 70 20 32 31 73 31 124v409h-175v-388c0-34-10-59-30-76-20-17-44-25-73-25-19 0-38 3-56 10-18 7-32 17-43 31-11 14-17 30-17 50v388h-175zM30913 21013c-70 0-131-10-183-31-52-21-93-50-122-88-29-38-44-83-44-134 0-33 8-65 25-94 16-30 37-55 62-76 25-21 51-34 78-40-36-17-66-41-91-72-25-31-37-69-37-113 0-53 14-97 41-133 28-36 65-64 112-83 47-19 100-28 159-28 60 0 113 9 160 28 47 19 84 46 112 83 27 36 41 80 41 133 0 44-12 82-37 113-24 31-54 55-90 72 26 6 52 19 77 40 26 20 47 46 63 76 16 30 25 61 25 94 0 52-15 96-44 134-29 38-70 67-122 88-52 20-114 31-184 31zM30913 20881c51 0 91-11 120-34 29-23 44-54 44-92 0-26-7-48-20-67-13-20-32-35-56-46-24-11-54-17-88-17-33 0-62 6-86 17-24 11-43 27-56 46-13 19-20 42-20 67 0 38 15 69 44 92 29 23 69 34 120 34zM30913 20483c40 0 73-11 98-32 26-22 39-51 39-89s-13-68-39-90c-26-22-59-33-98-33-39 0-72 11-98 33-26 22-39 52-39 90s13 68 39 89c26 21 59 32 98 32zM31391 21194v-814h176l1 89c9-15 20-28 34-40 14-12 29-23 45-32 16-9 34-16 53-21 19-5 39-8 61-8 46 0 87 11 123 34 36 22 64 57 85 104 21 47 31 106 31 179 0 75-11 137-34 185-22 48-52 84-91 107-39 23-83 35-131 35-20 0-39-3-56-8-18-5-34-13-49-22-15-10-28-21-40-33-12-13-22-27-31-41v286h-175zM31700 20884c38 0 70-16 95-47 26-32 39-82 39-150 0-60-12-107-37-140-24-34-57-51-97-51-45 0-79 18-101 55-22 36-33 82-33 136 0 35 5 67 14 97 10 30 25 54 44 73 20 18 45 28 76 28zM21866 2616c-66 0-128-10-185-31-57-20-106-48-148-84-41-36-73-77-94-123l160-94c18 32 39 60 62 86 23 25 49 45 79 60 30 15 66 22 106 22 61 0 109-16 146-48 37-32 55-74 55-126 0-33-8-62-25-87-16-26-39-47-68-62-29-15-63-22-101-22-20 0-40 2-59 6-18 3-37 10-56 20-19 9-39 23-62 41-6 3-11 4-14 4-2 0-7-2-14-5l-148-69 46-514h650l-8 167h-481l-20 244c37-21 73-36 106-45 34-9 71-14 112-14 68 0 128 13 181 39 54 25 96 62 127 111 31 49 47 109 47 179 0 71-16 133-48 185-32 52-78 92-137 120-59 28-129 42-209 42zM22410 2826v-949h205l1 104c11-17 24-33 39-47 16-14 33-27 53-38 19-11 40-19 62-24 22-6 46-9 71-9 54 0 102 13 144 40 42 26 75 67 99 122 24 55 36 124 36 209 0 88-13 160-39 216-26 56-61 98-106 125-45 27-96 41-153 41-23 0-45-3-66-10-20-6-40-15-57-26-17-11-33-24-47-38-13-15-25-31-36-48v334h-204zM22771 2465c44 0 81-18 111-55 30-37 46-95 46-175 0-70-14-125-43-164-28-40-66-59-113-59-53 0-92 22-118 64-26 43-38 95-38 159 0 41 6 78 17 113 12 35 29 63 52 85 23 22 53 32 88 32zM23260 2600v-724h200v102c22-32 51-59 88-82 37-23 84-34 141-34 25 0 50 4 76 13 26 9 50 22 72 39 23 17 41 38 55 64 23-33 54-61 92-82 38-22 81-34 127-34 27 0 54 4 82 13 28 9 54 23 77 43 23 20 42 47 56 81 15 33 22 74 22 123v477h-204v-452c0-29-6-52-17-69-11-18-26-30-43-38-17-8-36-12-55-12-18 0-37 4-55 11-19 7-34 18-48 34-13 16-20 37-20 62v463h-204v-470c0-22-6-40-17-55-12-15-26-26-44-34-17-8-35-12-53-12-19 0-37 4-56 12-19 8-34 19-47 36-13 16-19 36-19 60v463h-204zM24504 2070v-164h155v165h-155zM24504 2596v-163h155v163h-155zM2519 2600v-758h-181v-115c58 0 105-5 140-16 36-11 63-27 81-48 18-21 28-46 32-75h136v1012h-207zM2956 2600v-101-52c0-51 10-96 29-133 19-38 44-70 76-98 32-28 66-52 104-73 38-21 76-41 113-59 38-19 72-37 104-56 32-19 57-40 76-64 19-23 29-51 29-83 0-41-14-74-43-99-28-26-66-38-115-38-51 0-94 15-129 44-35 29-57 74-66 133h-195c1-64 16-123 45-175 29-53 73-94 132-125 58-31 132-46 220-46 76 0 141 13 195 39 55 26 98 61 127 107 30 46 45 99 45 160 0 51-9 95-28 132-19 37-43 68-74 95-31 26-65 49-101 69-37 20-74 38-111 55-36 17-70 34-101 52-31 17-55 37-74 59-19 22-28 48-28 79v9h516v172h-743zM3853 2826V1877h205l1 104c11-17 24-33 39-47 16-14 33-27 53-38 19-11 40-19 62-24 22-6 46-9 71-9 54 0 102 13 144 40 42 26 75 67 99 122 24 55 36 124 36 209 0 88-13 160-39 216-26 56-61 98-106 125-45 27-96 41-153 41-23 0-45-3-66-10-20-6-40-15-57-26-17-11-33-24-47-38-13-15-25-31-36-48v334h3853zM4214 2465c44 0 81-18 111-55 30-37 46-95 46-175 0-70-14-125-43-164-28-40-66-59-113-59-53 0-92 22-118 64-26 43-38 95-38 159 0 41 6 78 17 113 12 35 29 63 52 85 23 22 53 32 88 32zM4703 2600v-724h200v102c22-32 51-59 88-82 37-23 84-34 141-34 25 0 50 4 76 13 26 9 50 22 72 39 23 17 41 38 55 64 23-33 54-61 92-82 38-22 81-34 127-34 27 0 54 4 82 13 28 9 54 23 77 43 23 20 42 47 56 81 15 33 22 74 22 123v477h-204v-452c0-29-6-52-17-69-11-18-26-30-43-38-17-8-36-12-55-12-18 0-37 4-55 11-19 7-34 18-48 34-13 16-20 37-20 62v463h-204v-470c0-22-6-40-17-55-12-15-26-26-44-34-17-8-35-12-53-12-19 0-37 4-56 12-19 8-34 19-47 36-13 16-19 36-19 60v463h-204zM5946 2070v-164h155v165h-155zM5946 2596v-163h155v163h-155zM29747 22712c-81 0-151-19-209-56-59-38-104-90-136-158-32-68-47-147-47-238 0-91 16-169 47-235 32-66 77-116 136-151 59-35 129-53 210-53 65 0 123 13 174 40 51 26 92 62 124 107 32 45 50 96 56 153h-184c-6-30-16-57-31-80-15-24-34-42-58-55-24-14-53-20-86-20-40 0-75 10-104 29-29 20-52 51-67 95-16 44-23 101-23 173 0 108 17 186 52 235 35 48 83 72 143 72 34 0 62-8 86-23 24-16 43-36 58-61 15-26 25-54 31-84h184c-5 41-15 81-30 118-15 37-36 70-63 100-27 29-62 52-105 69-43 17-95 25-155 25zm684-1c-46 0-82-5-109-16-27-11-47-25-59-43-13-18-21-38-25-59-4-22-5-44-5-67v-718h172v696c0 23 5 41 14 56 10 14 29 23 59 26l29 2v108c-12 4-24 7-37 10-12 3-25 5-37 5zM30862 22712c-61 0-114-13-159-39-45-26-80-63-104-110-24-48-37-104-37-169s12-127 37-176c25-49 60-87 104-114 45-27 98-41 160-41 61 0 114 13 159 40 45 26 79 64 104 113 24 49 37 106 37 173 0 62-12 118-36 166-24 48-58 85-103 112-45 27-98 41-161 41zM30863 22582c31 0 56-9 74-27 19-18 32-42 41-71 8-30 13-62 13-97 0-33-4-64-11-93-8-29-21-53-40-71-19-18-44-27-77-27-31 0-56 9-75 26-19 17-33 40-41 69-9 29-13 61-13 96 0 32 4 64 12 94 8 30 21 54 40 73 19 19 45 28 77 28zM31529 22712c-43 0-85-7-125-21-40-14-73-37-101-67-28-31-45-71-52-119h151c6 22 15 39 29 52 14 13 30 22 47 28 18 5 34 8 50 8 34 0 61-5 81-16 21-11 31-27 31-49 0-17-6-30-19-40-12-10-32-18-60-23l-109-23c-55-12-99-31-133-59-33-28-50-68-50-119-1-37 9-71 29-100 20-30 49-53 88-70 39-17 87-26 143-26 76 0 137 17 183 50 46 34 69 81 70 142h-146c-4-24-16-42-36-55-19-13-44-20-73-20-30 0-55 5-74 16-20 11-29 27-29 49 0 16 8 29 24 39 16 9 41 17 74 24l101 23c35 8 63 20 85 35 22 15 39 30 51 47 12 17 20 35 25 52 5 17 7 33 7 47 0 41-11 76-33 106-22 29-53 51-92 66-39 15-85 23-137 23zM32197 22712c-62 0-116-13-163-38-46-26-83-63-109-110-26-47-39-103-39-167 0-62 12-118 35-167 24-50 58-89 103-118 45-29 99-44 163-44 63 0 116 13 159 40 43 26 75 63 97 111 22 47 33 102 33 164v47h-417c0 32 5 59 16 83 10 23 25 41 45 54 20 12 44 19 72 19 30 0 56-6 79-19 22-13 38-34 47-63h158c-7 44-25 82-53 113-28 31-62 55-102 71-40 16-82 25-125 25zM32061 22326h253c0-25-5-48-14-68-9-21-23-37-42-49-18-12-42-18-70-18-27 0-50 7-69 20-19 13-33 30-44 50-10 21-15 43-14 65zM32838 22712c-83 0-148-29-194-86-46-58-70-138-70-240 0-65 9-121 28-169 19-48 47-84 83-110 37-26 82-40 135-40 22 0 43 3 62 8 20 5 37 12 53 20 16 9 30 19 42 31 12 12 22 24 29 37v-355h176v892h-127l-20-127c-6 17-14 34-24 50-10 16-22 31-38 45-16 13-35 24-58 32-22 8-49 12-79 12zM32877 22586c44 0 77-15 98-46 22-31 33-83 33-156-1-42-5-78-15-106-10-28-24-49-43-62-19-14-43-21-72-21-38 0-70 15-95 44-25 29-38 77-38 145 0 69 12 120 35 153 24 33 56 49 92 49z" />
  <g stroke="#046B99">
    <path d="M49 187v8" />
    <path d="M313 187v8" />
  </g>
  <path
    fill="#3B3A48"
    transform="scale(.01)"
    d="M11492 21000v-691h-167v-73c52 0 92-4 121-11 29-8 49-19 61-35 12-16 19-35 20-58h79v868h-115zm340 0v-68v-35c0-44 8-83 25-115 17-32 39-61 66-85 28-24 58-46 90-65 33-19 65-38 98-55 33-18 63-37 90-56 27-20 49-42 65-66 17-25 25-54 25-88 0-44-16-80-47-107-31-28-73-41-125-41-57 0-102 16-137 48-34 32-54 75-58 128h-110c1-50 14-96 37-137 24-42 58-75 104-100 46-25 102-37 169-37 58 0 108 10 151 31 43 20 76 49 99 86 24 37 35 80 35 129 0 45-8 83-25 115-16 32-38 60-65 83-27 23-56 44-88 62-32 18-64 36-97 53-32 18-62 35-89 53-27 18-48 40-65 64-16 24-25 53-25 86v17h458v98h-581zm732 193v-814h110l1 108c7-13 16-26 28-40 12-14 26-27 42-39 17-12 36-22 58-29 22-8 48-11 76-11 50 0 93 11 131 34 38 23 68 57 89 103 22 46 32 105 32 176 0 71-10 130-31 178-20 47-50 84-89 112-39 27-86 41-140 41-28 0-52-4-74-12-21-8-40-18-56-30-16-12-29-26-40-41-11-15-19-29-26-41v295h-112zm286-268c51 0 93-19 125-58 32-39 49-100 49-182 0-71-15-127-44-169-30-42-73-62-130-62-58 0-101 21-131 64-30 43-44 98-44 167 0 44 7 85 20 121 13 36 33 65 59 87 26 22 59 32 96 32zM18907 21014c-60 0-112-11-158-33-45-22-81-52-107-91-26-39-40-86-42-139h111c8 54 30 95 66 124 36 29 80 43 134 43 42 0 79-7 111-20 32-14 56-32 73-56 17-24 26-51 26-83 0-35-10-64-29-88-19-24-45-42-79-55-33-13-70-19-111-20l-78-2v-94l74-2c38-1 72-8 102-22 30-14 54-32 71-55 18-23 26-48 26-75 0-24-7-46-22-67-15-21-36-37-64-50-28-12-61-19-101-19-31 0-61 6-89 19-28 12-52 31-70 56-18 23-28 58-29 98h-110c0-56 14-104 41-143 27-39 63-70 109-91 45-21 96-31 151-31 60 0 113 9 159 26 46 17 82 42 108 76 26 33 39 74 39 122 0 43-14 81-41 116-27 34-69 61-125 81 38 10 71 26 100 46 29 20 50 45 66 74 16 29 23 62 23 100 0 40-8 75-25 107-16 31-39 58-70 80-30 22-65 38-106 50-40 11-85 17-133 16zm484 180v-814h110l1 108c7-13 16-26 28-40 12-14 26-27 42-39 17-12 36-22 58-29 22-8 48-11 76-11 50 0 93 11 131 34 38 23 68 57 89 103 22 46 32 105 32 176 0 71-10 130-31 178-20 47-50 84-89 112-39 27-86 41-140 41-28 0-52-4-74-12-21-8-40-18-56-30-16-12-29-26-40-41-11-15-19-29-26-41v295h-112zm286-268c51 0 93-19 125-58 32-39 49-100 49-182 0-71-15-127-44-169-30-42-73-62-130-62-58 0-101 21-131 64-30 43-44 98-44 167 0 44 7 85 20 121 13 36 33 65 59 87 26 22 59 32 96 32zM26085 21014c-67 0-126-17-175-52-49-35-87-84-115-149-27-65-40-142-40-233 0-93 13-174 39-242 26-69 65-122 115-160 50-38 112-57 185-57 48 0 92 9 133 27 41 18 75 44 101 77 27 34 43 74 50 122h-104c-12-41-33-74-63-98-30-24-69-36-115-36-51 0-94 15-128 44-34 29-59 71-74 127-16 56-21 124-16 205 11-29 27-55 49-77 22-22 48-40 78-52 30-12 62-19 96-19 57 0 107 11 150 34 43 22 76 54 100 95 24 41 36 90 36 146 0 58-12 109-37 154-24 44-59 79-104 104-45 25-100 38-165 38zm-1-92c36 0 67-8 95-25 28-17 49-40 65-70 16-30 24-65 24-104 0-40-7-74-22-102-14-28-35-50-62-65-27-15-61-23-101-23-32 0-62 8-91 23-28 15-53 35-71 59-18 24-27 51-27 81 0 44 8 83 23 118 16 34 38 61 67 80 28 19 61 29 100 29zm452 272v-814h110l1 108c7-13 16-26 28-40 12-14 26-27 42-39 17-12 36-22 58-29 22-8 48-11 76-11 50 0 93 11 131 34 38 23 68 57 89 103 22 46 32 105 32 176 0 71-10 130-31 178-20 47-50 84-89 112-39 27-86 41-140 41-28 0-52-4-74-12-21-8-40-18-56-30-16-12-29-26-40-41-11-15-19-29-26-41v295h-112zm286-268c51 0 93-19 125-58 32-39 49-100 49-182 0-71-15-127-44-169-30-42-73-62-130-62-58 0-101 21-131 64-30 43-44 98-44 167 0 44 7 85 20 121 13 36 33 65 59 87 26 22 59 32 96 32zM6649 2600v-1012h326c123 0 216 23 279 68c64 45 95 111 95 196c0 54-14 100-42 138c-28 38-76 70-146 95c40 8 73 21 100 36c28 16 49 35 66 56c17 21 29 44 36 70c8 26 11 53 11 81c0 92-33 160-98 205c-65 45-162 67-291 67h-336zm130-108h205c85 0 149-14 193-41c44-28 67-71 67-129c0-43-11-77-33-103c-22-27-51-46-88-58c-37-12-78-18-123-18h-221v349zM6779 2033h221c27 0 53-3 79-8 26-5 50-14 72-27 22-13 40-29 53-50 14-22 20-48 20-80 0-59-23-102-68-130-45-28-103-43-175-43h-202v338zm1049 581c-38 0-74-6-107-16-33-11-63-26-88-47-26-21-46-46-61-76-15-31-22-67-22-107v-491h130v478c0 47 15 85 43 115 29 29 74 44 132 44 53 0 96-14 128-41 33-28 49-70 49-125v-478h129v724h-103l-13-139c-9 36-24 66-45 88-21 22-46 39-76 50-29 10-61 15-95 15zM8635 2614c-50 0-97-8-141-23-43-16-79-40-107-74-29-34-46-76-53-128h118c6 29 18 52 35 71 17 19 39 33 64 43 26 9 54 14 84 14 49 0 89-9 118-27 30-18 45-46 45-84 0-27-8-48-24-64-16-16-40-28-73-36l-150-37c-58-14-105-36-140-66-35-30-52-72-53-125 0-43 10-80 31-112 21-32 51-58 92-76 40-17 87-26 153-26 79 0 142 18 191 53 48 35 73 87 76 155h-115c-5-34-20-62-46-82-25-20-62-31-106-31-46 0-83 9-113 28-29 18-43 47-43 85 0 26 10 46 31 61 21 14 51 27 91 36l146 36c33 9 61 21 83 35 22 15 39 30 52 48 13 18 21 36 27 56 6 19 8 33 8 47 0 44-11 83-33 115-22 32-54 56-95 74-41 17-92 26-151 26zM2602 5000l-292-1012h131l224 806 228-806h102l228 806 228-806h130l-295 1012h-120l-222-785-225 785h-116zm1259 14c-47 0-89-8-125-24-36-17-64-41-84-72-20-31-30-69-30-113 0-80 28-140 84-179 56-39 146-60 270-63l129-4v-57c0-44-13-79-40-105-27-26-68-39-123-39-42 0-78 10-110 29-32 19-52 50-61 94h-114c3-47 16-87 39-119 24-33 57-57 100-74 43-17 94-25 152-25 63 0 115 9 157 27 42 18 73 44 94 78 21 34 32 77 32 127v505h-111l-10-136c-28 57-64 96-106 118-43 22-90 32-142 32zM3899 4921c25 0 49-4 73-13c24-9 46-21 66-36c20-15 36-32 48-51c12-19 18-39 18-59v-124l-107 2c-56 1-102 7-139 17c-37 10-65 26-83 48c-19 22-28 50-28 86c0 41 14 72 43 95c29 23 65 34 109 34zM4435 5000v-724h125v724h-125zM4432 4123v-134h132v134h-132zM5043 5004c-50 0-89-7-116-20-28-14-47-34-58-60-11-27-16-59-16-98v-454h-118v-95h121l32-210h95v210h163v95h-163v450c0 26 3 45 8 57 6 12 15 19 27 22 13 3 30 5 53 5h79v87c-9 3-22 6-41 8-18 2-40 4-67 4zm249-534v-165h155v165h-155zM5291 4996v-163h155v163h-155zM9152 2831c-43 0-72-3-88-9-16-6-24-9-24-9v-84l74 1c27 1 49-1 67-6 18-5 32-11 43-19 11-8 19-17 25-27 6-10 11-19 15-28l25-69-283-706h131l214 559 212-559h127l-305 778c-19 46-40 82-64 107-23 26-49 44-77 54-28 10-59 15-92 15zM6364 5014c-88 0-159-15-214-43-54-29-94-71-119-127-25-56-37-125-37-207v-649h134v669c0 82 20 143 61 183 41 41 99 61 174 61 51 0 94-9 130-27 36-18 63-45 82-81 19-36 29-82 29-137v-669h130v662c0 78-13 144-39 198-26 54-66 95-120 124-54 28-125 42-211 42zM6949 5226v-949h129l1 126c8-15 19-31 32-47 14-16 30-32 49-46 20-14 42-25 68-34 26-9 56-13 89-13 58 0 109 13 153 40 44 26 79 66 104 120 25 54 37 123 37 206 0 83-12 153-36 211-24 57-58 100-104 130-45 30-100 45-164 45-32 0-61-5-86-14-25-9-46-21-65-35-18-15-34-31-46-48-12-17-22-33-30-48v356h-130zM7282 4914c60 0 109-23 146-68 37-45 85-117 85-213 0-83-17-148-52-197-35-49-85-73-151-73-67 0-118 25-153 75-35 50-52 114-52 195 0 52 8 99 23 141 15 43 38 76 69 102 30 25 68 38 113 38zm1097 90c-50 0-89-7-116-20-28-14-47-34-58-60-11-27-16-59-16-98v-454h-118v-95h121l32-210h95v210h163v95h-163v450c0 26 3 45 8 57 6 12 15 19 27 22 13 3 30 5 53 5h79v87c-9 3-22 6-41 8-18 2-40 4-67 4zM8928 5014c-67 0-125-14-175-43-50-29-88-71-116-127-28-56-41-123-41-204 0-76 13-142 39-199 26-57 63-101 113-132 50-32 110-48 181-48 67 0 125 15 174 44 49 29 87 72 114 128 28 57 41 125 41 207 0 74-13 139-38 195-25 56-62 100-111 132-49 31-109 47-181 47zm1-102c43 0 79-11 109-33 30-22 53-53 68-95 16-41 24-90 24-146 0-52-7-98-21-139-14-42-35-74-64-99-29-24-68-36-116-36-44 0-81 11-111 33-30 22-53 53-69 94-15 41-23 90-23 148 0 51 7 97 20 139 14 42 36 74 66 99 30 24 70 36 116 36zM9914 5000v-806h-195v-85c61 0 108-4 141-13 34-9 57-23 71-41 14-18 22-41 24-68h93v1012h-134zM10671 5000v-1040h126v423c12-20 29-39 49-56 21-18 46-32 75-43 29-11 64-17 102-17 47 0 90 9 128 27 38 17 69 42 91 74 22 32 34 71 34 115v517h-130v-491c0-43-15-77-45-100-29-24-68-36-116-36-32 0-63 5-91 16-29 10-52 26-69 48-17 21-26 48-26 81v483h-129zM11768 5014c-67 0-125-14-175-43-49-29-88-71-116-127-28-56-41-123-41-204 0-76 13-142 39-199 26-57 63-101 113-132 50-32 110-48 181-48 67 0 125 15 174 44 49 29 87 72 114 128 28 57 41 125 41 207 0 74-13 139-38 195-25 56-62 100-111 132-49 31-109 47-181 47zm1-102c43 0 79-11 109-33 30-22 53-53 68-95 16-41 24-90 24-146 0-52-7-98-21-139-14-42-35-74-64-99-29-24-68-36-116-36-44 0-81 11-111 33-30 22-53 53-69 94-15 41-23 90-23 148 0 51 7 97 20 139 14 42 36 74 66 99 30 24 70 36 116 36zM12533 5014c-38 0-74-6-107-16-33-11-63-26-88-47-26-21-46-46-61-76-15-31-22-67-22-107v-491h130v478c0 47 15 85 43 115 29 29 74 44 132 44 53 0 96-14 128-41 33-28 49-70 49-125v-478h129v724h-103l-13-139c-9 36-24 66-45 88-21 22-46 39-76 50-29 10-61 15-95 15zM13089 5000v-724h123v139c12-35 29-63 51-85 22-23 47-40 75-51 29-11 58-17 88-17 11 0 21 1 32 2 10 1 18 4 24 7v125c-7-3-16-5-27-6-11-1-20-2-27-2-29-2-56 0-81 6-25 5-47 14-67 27-19 13-34 30-46 52-11 21-16 47-16 77v450h-129zM25207 2600l1-1012h132v896h478v116h-611zM26267 2614c-67 0-127-15-178-44-51-29-92-72-120-127-29-55-43-121-43-198 0-76 13-143 39-200 26-57 64-102 113-134 50-32 110-48 180-48 68 0 126 15 173 44 47 29 83 71 107 125 25 53 37 117 37 190v48h-519c0 46 7 87 22 125 15 37 39 66 69 88 31 22 70 33 117 33 46 0 86-11 119-32 34-22 55-53 64-93h122c-8 49-28 90-59 124-30 34-67 59-110 76-43 17-87 25-135 25zm-210-433h393c0-42-7-79-21-112-14-34-36-60-64-79-29-20-64-29-108-29-45 0-83 11-113 33-30 22-52 50-67 83-15 34-22 68-21 104zM27009 2614c-50 0-97-8-141-23-43-16-79-40-107-74-29-34-46-76-53-128h118c6 29 18 52 35 71 17 19 39 33 64 43 26 9 54 14 84 14 49 0 89-9 118-27 30-18 45-46 45-84 0-27-8-48-24-64-16-16-40-28-73-36l-150-37c-58-14-105-36-140-66-35-30-52-72-53-125 0-43 10-80 31-112 21-32 51-58 92-76 40-17 87-26 153-26 79 0 142 18 191 53 48 35 73 87 76 155h-115c-5-34-20-62-46-82-25-20-62-31-106-31-46 0-83 9-113 28-29 18-43 47-43 85 0 26 10 46 31 61 21 14 51 27 91 36l146 36c33 9 61 21 83 35 22 15 39 30 52 48 13 18 21 36 27 56 6 19 8 33 8 47 0 44-11 83-33 115-22 32-54 56-95 74-41 17-92 26-151 26zm705 0c-50 0-97-8-141-23-43-16-79-40-107-74-29-34-46-76-53-128h118c6 29 18 52 35 71 17 19 39 33 64 43 26 9 54 14 84 14 49 0 89-9 118-27 30-18 45-46 45-84 0-27-8-48-24-64-16-16-40-28-73-36l-150-37c-58-14-105-36-140-66-35-30-52-72-53-125 0-43 10-80 31-112 21-32 51-58 92-76 40-17 87-26 153-26 79 0 142 18 191 53 48 35 73 87 76 155h-115c-5-34-20-62-46-82-25-20-62-31-106-31-46 0-83 9-113 28-29 18-43 47-43 85 0 26 10 46 31 61 21 14 51 27 91 36l146 36c33 9 61 21 83 35 22 15 39 30 52 48 13 18 21 36 27 56 6 19 8 33 8 47 0 44-11 83-33 115-22 32-54 56-95 74-41 17-92 26-151 26zM28855 2614c-43 0-78-6-108-17-29-11-53-25-71-43-19-18-33-36-42-54-10-19-18-35-22-49l-14 148h-99v-1040h130v431c6-12 15-25 27-40 13-14 29-28 48-42 20-13 43-25 69-34 27-9 58-13 92-13 91 0 162 32 216 95 54 63 81 156 81 279 0 76-11 143-34 200-23 57-57 101-102 132-45 31-102 47-169 47zm-23-99c59 0 107-23 144-68 37-46 55-118 55-218 0-84-17-150-52-196-34-47-84-70-150-70-48 0-87 11-116 32-29 20-50 51-64 90-14 40-21 88-21 144 0 101 16 174 47 219 32 44 84 67 157 67zM29596 2614c-38 0-74-6-107-16-33-11-63-26-88-47-26-21-46-46-61-76-15-31-22-67-22-107v-491h130v478c0 47 15 85 43 115 29 29 74 44 132 44 53 0 96-14 128-41 33-28 49-70 49-125v-478h129v724h-103l-13-139c-9 36-24 66-45 88-21 22-46 39-76 50-29 10-61 15-95 15zM30402 2614c-50 0-97-8-141-23-43-16-79-40-107-74-29-34-46-76-53-128h118c6 29 18 52 35 71 17 19 39 33 64 43 26 9 54 14 84 14 49 0 89-9 118-27 30-18 45-46 45-84 0-27-8-48-24-64-16-16-40-28-73-36l-150-37c-58-14-105-36-140-66-35-30-52-72-53-125 0-43 10-80 31-112 21-32 51-58 92-76 40-17 87-26 153-26 79 0 142 18 191 53 48 35 73 87 76 155h-115c-5-34-20-62-46-82-25-20-62-31-106-31-46 0-83 9-113 28-29 18-43 47-43 85 0 26 10 46 31 61 21 14 51 27 91 36l146 36c33 9 61 21 83 35 22 15 39 30 52 48 13 18 21 36 27 56 6 19 8 33 8 47 0 44-11 83-33 115-22 32-54 56-95 74-41 17-92 26-151 26zM30919 2831c-43 0-72-3-88-9-16-6-24-9-24-9v-84l74 1c27 1 49-1 67-6 18-5 32-11 43-19 11-8 19-17 25-27 6-10 11-19 15-28l25-69-283-706h131l214 559 212-559h127l-305 778c-19 46-40 82-64 107-23 26-49 44-77 54-28 10-59 15-92 15zM21702 5000l-292-1012h131l224 806 228-806h102l228 806 228-806h130l-295 1012h-120l-222-785-225 785h-116zM22961 5014c-47 0-89-8-125-24-36-17-64-41-84-72-20-31-30-69-30-113 0-80 28-140 84-179 56-39 146-60 270-63l129-4v-57c0-44-13-79-40-105-27-26-68-39-123-39-42 0-78 10-110 29-32 19-52 50-61 94h-114c3-47 16-87 39-119 24-33 57-57 100-74 43-17 94-25 152-25 63 0 115 9 157 27 42 18 73 44 94 78 21 34 32 77 32 127v505h-111l-10-136c-28 57-64 96-106 118-43 22-90 32-142 32zm39-93c25 0 49-4 73-13 24-9 46-21 66-36 20-15 36-32 48-51 12-19 18-39 18-59v-124l-107 2c-56 1-102 7-139 17-37 10-65 26-83 48-19 22-28 50-28 86 0 41 14 72 43 95 29 23 65 34 109 34zM23535 5000v-724h125v724h-125zM23532 4123v-134h132v134h-132zM24143 5004c-50 0-89-7-116-20-28-14-47-34-58-60-11-27-16-59-16-98v-454h-118v-95h121l32-210h95v210h163v95h-163v450c0 26 3 45 8 57 6 12 15 19 27 22 13 3 30 5 53 5h79v87c-9 3-22 6-41 8-18 2-40 4-67 4zm249-534v-165h155v165h-155zm0 526v-163h155v163h-155zM25095 5000v-1012h124l535 787v-787h130v1012h-116l-543-798v798h-130zm1309 14c-67 0-125-14-175-43-50-29-88-71-116-127-28-56-41-123-41-204 0-76 13-142 39-199 26-57 63-101 113-132 50-32 110-48 181-48 67 0 125 15 174 44 49 29 87 72 114 128 28 57 41 125 41 207 0 74-13 139-38 195-25 56-62 100-111 132-49 31-109 47-181 47zM26405 4912c43 0 79-11 109-33 30-22 53-53 68-95 16-41 24-90 24-146 0-52-7-98-21-139-14-42-35-74-64-99-29-24-68-36-116-36-44 0-81 11-111 33-30 22-53 53-69 94-15 41-23 90-23 148 0 51 7 97 20 139 14 42 36 74 66 99 30 24 70 36 117 36zM26906 5000v-724h125v105c12-20 28-39 48-57 21-18 46-32 76-43 30-11 64-16 103-16 46 0 88 9 126 27 39 17 69 42 92 85 23 38 35 88 35 148v473h-130v-461c0-57-15-98-45-125-29-28-68-41-116-41-33 0-63 5-92 16-29 10-52 26-69 48-17 21-27 48-27 80v484h-129zM28020 5014c-67 0-127-15-178-44-51-29-92-72-120-127-29-55-43-121-43-198 0-76 13-143 39-200 26-57 64-102 113-134 50-32 110-48 180-48 68 0 126 15 173 44 47 29 83 71 107 125 25 53 37 117 37 190v48h-519c0 46 7 87 22 125 15 37 39 66 69 88 31 22 70 33 117 33 46 0 86-11 119-32 34-22 55-53 64-93h122c-8 49-28 90-59 124-30 34-67 59-110 76-43 17-87 25-135 25zM27810 4581h393c0-42-7-79-21-112-14-34-36-60-64-79-29-20-64-29-108-29-45 0-83 11-113 33-30 22-52 50-67 83-15 34-22 68-21 104z" />
  <g stroke="#3B3A48">
    <path d="M25 191v3" />
    <path d="M49 191v3" />
    <path d="M121 191v3" />
    <path d="M193 191v3" />
    <path d="M265 191v3" />
    <path d="M337 191v3" />
    <path d="M1 191h363" />
  </g>
  <g fill="#82B5CC">
    <rect x="66" y="147" width="14" height="39" rx="4" />
    <rect x="90" y="128" width="14" height="58" rx="4" />
    <rect x="42" y="162" width="14" height="24" rx="4" />
    <rect x="114" y="115" width="14" height="71" rx="4" />
    <rect x="162" y="115" width="14" height="71" rx="4" />
    <rect x="138" y="115" width="14" height="71" rx="4" />
    <rect x="186" y="123" width="14" height="63" rx="4" />
    <rect x="210" y="142" width="14" height="44" rx="4" />
  </g>
  <g fill="#D4D4D7">
    <rect x="234" y="157" width="14" height="30" rx="4" />
    <rect x="258" y="157" width="14" height="30" rx="4" />
  </g>
  <g stroke="#D4D4D7">
    <path d="M121 72v38" />
    <path d="M241 72v80" />
    <rect x="12" y="0.5" width="134" height="66" rx="4" />
    <rect x="203" y="0.5" width="134" height="66" rx="4" />
  </g>
</svg>
