<svg width="364" height="231" viewBox="0 0 364 231" fill="none" xmlns="http://www.w3.org/2000/svg">
<path d="M0.5 162.75H363.5" stroke="#EDEDEF"/>
<path d="M0.5 104.75H363.5" stroke="#EDEDEF"/>
<path d="M0.5 133.75H363.5" stroke="#EDEDEF"/>
<path d="M44.3605 210.882C43.8205 210.882 43.3165 210.778 42.8485 210.57C42.3805 210.362 41.9985 210.07 41.7025 209.694C41.4065 209.314 41.2405 208.87 41.2045 208.362H42.8725C42.9445 208.698 43.1045 208.972 43.3525 209.184C43.6005 209.392 43.9125 209.496 44.2885 209.496C44.7045 209.496 45.0685 209.398 45.3805 209.202C45.6965 209.006 45.9325 208.694 46.0885 208.266C46.2485 207.838 46.3045 207.278 46.2565 206.586C46.1445 206.798 45.9885 206.984 45.7885 207.144C45.5925 207.3 45.3625 207.422 45.0985 207.51C44.8345 207.594 44.5405 207.636 44.2165 207.636C43.6285 207.636 43.1065 207.526 42.6505 207.306C42.1985 207.082 41.8425 206.766 41.5825 206.358C41.3265 205.946 41.1985 205.458 41.1985 204.894C41.1985 204.326 41.3345 203.82 41.6065 203.376C41.8785 202.932 42.2585 202.584 42.7465 202.332C43.2345 202.08 43.8065 201.954 44.4625 201.954C45.1985 201.954 45.8325 202.13 46.3645 202.482C46.9005 202.83 47.3105 203.326 47.5945 203.97C47.8825 204.61 48.0265 205.364 48.0265 206.232C48.0265 207.268 47.8785 208.132 47.5825 208.824C47.2905 209.512 46.8705 210.028 46.3225 210.372C45.7745 210.712 45.1205 210.882 44.3605 210.882ZM44.5165 206.244C44.7605 206.244 44.9965 206.19 45.2245 206.082C45.4565 205.97 45.6465 205.83 45.7945 205.662C45.9425 205.494 46.0165 205.32 46.0165 205.14C46.0205 204.752 45.9585 204.42 45.8305 204.144C45.7065 203.864 45.5305 203.65 45.3025 203.502C45.0785 203.354 44.8165 203.28 44.5165 203.28C44.2405 203.28 43.9945 203.344 43.7785 203.472C43.5625 203.6 43.3925 203.78 43.2685 204.012C43.1445 204.244 43.0825 204.512 43.0825 204.816C43.0825 205.268 43.2145 205.62 43.4785 205.872C43.7425 206.12 44.0885 206.244 44.5165 206.244ZM51.1486 210.87C50.7566 210.87 50.4006 210.796 50.0806 210.648C49.7646 210.5 49.5146 210.286 49.3306 210.006C49.1466 209.722 49.0546 209.378 49.0546 208.974C49.0546 208.294 49.3086 207.778 49.8166 207.426C50.3246 207.07 51.1266 206.886 52.2226 206.874L53.0026 206.862V206.49C53.0026 206.206 52.9186 205.988 52.7506 205.836C52.5866 205.68 52.3286 205.604 51.9766 205.608C51.7246 205.612 51.4826 205.672 51.2506 205.788C51.0226 205.904 50.8646 206.106 50.7766 206.394H49.3186C49.3426 205.946 49.4726 205.578 49.7086 205.29C49.9486 204.998 50.2706 204.782 50.6746 204.642C51.0786 204.498 51.5406 204.426 52.0606 204.426C52.6926 204.426 53.2006 204.506 53.5846 204.666C53.9686 204.822 54.2466 205.048 54.4186 205.344C54.5946 205.636 54.6826 205.984 54.6826 206.388V210.75H53.2186L53.0746 209.682C52.8626 210.13 52.5966 210.44 52.2766 210.612C51.9606 210.784 51.5846 210.87 51.1486 210.87ZM51.7426 209.718C51.8986 209.718 52.0506 209.69 52.1986 209.634C52.3506 209.574 52.4866 209.496 52.6066 209.4C52.7266 209.3 52.8206 209.188 52.8886 209.064C52.9606 208.94 52.9986 208.812 53.0026 208.68V207.762L52.3726 207.774C52.0806 207.778 51.8086 207.814 51.5566 207.882C51.3046 207.946 51.1006 208.052 50.9446 208.2C50.7926 208.348 50.7166 208.548 50.7166 208.8C50.7166 209.088 50.8146 209.314 51.0106 209.478C51.2106 209.638 51.4546 209.718 51.7426 209.718Z" fill="#046B99"/>
<path d="M37.4374 227.87C36.6174 227.87 35.9074 227.692 35.3074 227.336C34.7114 226.976 34.2494 226.466 33.9214 225.806C33.5974 225.142 33.4354 224.35 33.4354 223.43C33.4354 222.506 33.5994 221.71 33.9274 221.042C34.2594 220.374 34.7254 219.86 35.3254 219.5C35.9254 219.136 36.6294 218.954 37.4374 218.954C38.2414 218.954 38.9414 219.134 39.5374 219.494C40.1334 219.854 40.5934 220.368 40.9174 221.036C41.2454 221.704 41.4094 222.502 41.4094 223.43C41.4094 224.346 41.2474 225.136 40.9234 225.8C40.6034 226.464 40.1454 226.976 39.5494 227.336C38.9534 227.692 38.2494 227.87 37.4374 227.87ZM37.4374 226.43C37.8614 226.43 38.2274 226.33 38.5354 226.13C38.8474 225.926 39.0874 225.606 39.2554 225.17C39.4234 224.73 39.5074 224.158 39.5074 223.454C39.5074 222.73 39.4214 222.144 39.2494 221.696C39.0814 221.248 38.8414 220.92 38.5294 220.712C38.2214 220.5 37.8574 220.394 37.4374 220.394C37.0174 220.394 36.6514 220.5 36.3394 220.712C36.0274 220.92 35.7854 221.25 35.6134 221.702C35.4414 222.15 35.3554 222.734 35.3554 223.454C35.3554 224.162 35.4414 224.734 35.6134 225.17C35.7854 225.606 36.0274 225.926 36.3394 226.13C36.6514 226.33 37.0174 226.43 37.4374 226.43ZM42.5742 229.682V221.546H44.3322L44.3382 222.44C44.4302 222.292 44.5422 222.158 44.6742 222.038C44.8102 221.914 44.9602 221.806 45.1242 221.714C45.2882 221.622 45.4662 221.552 45.6582 221.504C45.8502 221.452 46.0522 221.426 46.2642 221.426C46.7242 221.426 47.1342 221.54 47.4942 221.768C47.8542 221.992 48.1362 222.34 48.3402 222.812C48.5482 223.28 48.6522 223.876 48.6522 224.6C48.6522 225.352 48.5402 225.97 48.3162 226.454C48.0962 226.934 47.7922 227.29 47.4042 227.522C47.0162 227.754 46.5782 227.87 46.0902 227.87C45.8902 227.87 45.7022 227.842 45.5262 227.786C45.3502 227.734 45.1862 227.66 45.0342 227.564C44.8862 227.468 44.7522 227.358 44.6322 227.234C44.5162 227.106 44.4142 226.968 44.3262 226.82V229.682H42.5742ZM45.6702 226.586C46.0502 226.586 46.3682 226.428 46.6242 226.112C46.8842 225.796 47.0142 225.296 47.0142 224.612C47.0142 224.012 46.8902 223.544 46.6422 223.208C46.3982 222.868 46.0742 222.698 45.6702 222.698C45.2182 222.698 44.8802 222.882 44.6562 223.25C44.4362 223.614 44.3262 224.068 44.3262 224.612C44.3262 224.96 44.3742 225.284 44.4702 225.584C44.5702 225.884 44.7182 226.126 44.9142 226.31C45.1142 226.494 45.3662 226.586 45.6702 226.586ZM52.7133 227.87C52.0973 227.87 51.5553 227.742 51.0873 227.486C50.6233 227.226 50.2613 226.86 50.0013 226.388C49.7413 225.916 49.6113 225.36 49.6113 224.72C49.6113 224.1 49.7293 223.542 49.9653 223.046C50.2053 222.546 50.5493 222.152 50.9973 221.864C51.4453 221.572 51.9873 221.426 52.6233 221.426C53.2553 221.426 53.7853 221.56 54.2133 221.828C54.6413 222.092 54.9653 222.462 55.1853 222.938C55.4053 223.41 55.5153 223.956 55.5153 224.576V225.05H51.3453C51.3453 225.366 51.3973 225.642 51.5013 225.878C51.6053 226.11 51.7553 226.29 51.9513 226.418C52.1513 226.542 52.3913 226.604 52.6713 226.604C52.9713 226.604 53.2333 226.54 53.4573 226.412C53.6813 226.284 53.8393 226.074 53.9313 225.782H55.5093C55.4373 226.222 55.2613 226.598 54.9813 226.91C54.7013 227.222 54.3613 227.46 53.9613 227.624C53.5613 227.788 53.1453 227.87 52.7133 227.87ZM51.3453 224.006H53.8773C53.8773 223.758 53.8293 223.53 53.7333 223.322C53.6413 223.114 53.5013 222.95 53.3133 222.83C53.1293 222.71 52.8973 222.65 52.6173 222.65C52.3493 222.65 52.1193 222.716 51.9273 222.848C51.7393 222.976 51.5933 223.144 51.4893 223.352C51.3893 223.56 51.3413 223.778 51.3453 224.006ZM56.7773 227.75V221.546H58.4993V222.422C58.5953 222.27 58.7193 222.124 58.8713 221.984C59.0273 221.84 59.2233 221.722 59.4593 221.63C59.6953 221.538 59.9753 221.492 60.2993 221.492C60.6793 221.492 61.0333 221.566 61.3613 221.714C61.6933 221.862 61.9613 222.096 62.1653 222.416C62.3693 222.732 62.4713 223.146 62.4713 223.658V227.75H60.7193V223.874C60.7193 223.538 60.6193 223.286 60.4193 223.118C60.2193 222.95 59.9753 222.866 59.6873 222.866C59.4953 222.866 59.3093 222.9 59.1293 222.968C58.9533 223.036 58.8093 223.138 58.6973 223.274C58.5853 223.41 58.5293 223.578 58.5293 223.778V227.75H56.7773Z" fill="#046B99"/>
<path d="M273.69 228.12C272.882 228.12 272.184 227.932 271.596 227.556C271.008 227.18 270.554 226.652 270.234 225.972C269.918 225.292 269.76 224.498 269.76 223.59C269.76 222.678 269.918 221.896 270.234 221.244C270.55 220.588 271.002 220.084 271.59 219.732C272.178 219.38 272.878 219.204 273.69 219.204C274.342 219.204 274.922 219.336 275.43 219.6C275.942 219.86 276.354 220.216 276.666 220.668C276.982 221.12 277.168 221.63 277.224 222.198H275.388C275.332 221.898 275.23 221.632 275.082 221.4C274.934 221.164 274.74 220.98 274.5 220.848C274.26 220.712 273.972 220.644 273.636 220.644C273.232 220.644 272.884 220.742 272.592 220.938C272.3 221.134 272.076 221.45 271.92 221.886C271.764 222.322 271.686 222.898 271.686 223.614C271.686 224.694 271.858 225.476 272.202 225.96C272.55 226.44 273.028 226.68 273.636 226.68C273.972 226.68 274.26 226.604 274.5 226.452C274.74 226.296 274.934 226.092 275.082 225.84C275.23 225.584 275.332 225.304 275.388 225H277.224C277.172 225.412 277.072 225.806 276.924 226.182C276.776 226.554 276.566 226.886 276.294 227.178C276.022 227.47 275.672 227.7 275.244 227.868C274.816 228.036 274.298 228.12 273.69 228.12ZM280.527 228.108C280.071 228.108 279.709 228.054 279.441 227.946C279.173 227.838 278.975 227.696 278.847 227.52C278.719 227.34 278.637 227.142 278.601 226.926C278.565 226.706 278.547 226.484 278.547 226.26V219.084H280.263V226.044C280.263 226.272 280.311 226.458 280.407 226.602C280.507 226.742 280.693 226.828 280.965 226.86L281.259 226.878V227.958C281.139 227.998 281.017 228.032 280.893 228.06C280.769 228.092 280.647 228.108 280.527 228.108ZM284.839 228.12C284.231 228.12 283.701 227.99 283.249 227.73C282.801 227.47 282.453 227.102 282.205 226.626C281.961 226.15 281.839 225.586 281.839 224.934C281.839 224.282 281.961 223.712 282.205 223.224C282.453 222.736 282.801 222.356 283.249 222.084C283.701 221.812 284.233 221.676 284.845 221.676C285.457 221.676 285.987 221.81 286.435 222.078C286.883 222.342 287.229 222.718 287.473 223.206C287.717 223.694 287.839 224.27 287.839 224.934C287.839 225.558 287.719 226.11 287.479 226.59C287.243 227.066 286.901 227.44 286.453 227.712C286.009 227.984 285.471 228.12 284.839 228.12ZM284.845 226.818C285.153 226.818 285.401 226.728 285.589 226.548C285.777 226.368 285.913 226.132 285.997 225.84C286.081 225.544 286.123 225.222 286.123 224.874C286.123 224.546 286.085 224.236 286.009 223.944C285.933 223.652 285.801 223.416 285.613 223.236C285.425 223.056 285.169 222.966 284.845 222.966C284.537 222.966 284.287 223.052 284.095 223.224C283.907 223.392 283.769 223.622 283.681 223.914C283.593 224.202 283.549 224.522 283.549 224.874C283.549 225.198 283.589 225.51 283.669 225.81C283.749 226.106 283.883 226.348 284.071 226.536C284.259 226.724 284.517 226.818 284.845 226.818ZM291.519 228.12C291.087 228.12 290.671 228.05 290.271 227.91C289.875 227.766 289.537 227.542 289.257 227.238C288.981 226.93 288.807 226.532 288.735 226.044H290.247C290.303 226.264 290.399 226.438 290.535 226.566C290.675 226.694 290.833 226.786 291.009 226.842C291.185 226.894 291.353 226.92 291.513 226.92C291.849 226.92 292.119 226.868 292.323 226.764C292.531 226.656 292.635 226.492 292.635 226.272C292.635 226.104 292.573 225.97 292.449 225.87C292.329 225.77 292.129 225.694 291.849 225.642L290.757 225.414C290.209 225.298 289.767 225.102 289.431 224.826C289.099 224.546 288.931 224.15 288.927 223.638C288.923 223.266 289.019 222.932 289.215 222.636C289.415 222.34 289.709 222.106 290.097 221.934C290.489 221.762 290.967 221.676 291.531 221.676C292.295 221.676 292.905 221.844 293.361 222.18C293.821 222.516 294.055 222.99 294.063 223.602H292.599C292.555 223.362 292.435 223.178 292.239 223.05C292.047 222.918 291.803 222.852 291.507 222.852C291.207 222.852 290.959 222.906 290.763 223.014C290.567 223.122 290.469 223.286 290.469 223.506C290.469 223.67 290.549 223.8 290.709 223.896C290.869 223.988 291.117 224.068 291.453 224.136L292.461 224.364C292.809 224.448 293.091 224.564 293.307 224.712C293.527 224.856 293.697 225.014 293.817 225.186C293.937 225.358 294.019 225.532 294.063 225.708C294.111 225.88 294.135 226.036 294.135 226.176C294.135 226.588 294.025 226.94 293.805 227.232C293.585 227.52 293.279 227.74 292.887 227.892C292.495 228.044 292.039 228.12 291.519 228.12ZM298.202 228.12C297.586 228.12 297.044 227.992 296.576 227.736C296.112 227.476 295.75 227.11 295.49 226.638C295.23 226.166 295.1 225.61 295.1 224.97C295.1 224.35 295.218 223.792 295.454 223.296C295.694 222.796 296.038 222.402 296.486 222.114C296.934 221.822 297.476 221.676 298.112 221.676C298.744 221.676 299.274 221.81 299.702 222.078C300.13 222.342 300.454 222.712 300.674 223.188C300.894 223.66 301.004 224.206 301.004 224.826V225.3H296.834C296.834 225.616 296.886 225.892 296.99 226.128C297.094 226.36 297.244 226.54 297.44 226.668C297.64 226.792 297.88 226.854 298.16 226.854C298.46 226.854 298.722 226.79 298.946 226.662C299.17 226.534 299.328 226.324 299.42 226.032H300.998C300.926 226.472 300.75 226.848 300.47 227.16C300.19 227.472 299.85 227.71 299.45 227.874C299.05 228.038 298.634 228.12 298.202 228.12ZM296.834 224.256H299.366C299.366 224.008 299.318 223.78 299.222 223.572C299.13 223.364 298.99 223.2 298.802 223.08C298.618 222.96 298.386 222.9 298.106 222.9C297.838 222.9 297.608 222.966 297.416 223.098C297.228 223.226 297.082 223.394 296.978 223.602C296.878 223.81 296.83 224.028 296.834 224.256ZM304.612 228.12C303.78 228.12 303.132 227.834 302.668 227.262C302.204 226.686 301.972 225.886 301.972 224.862C301.972 224.214 302.066 223.652 302.254 223.176C302.442 222.7 302.72 222.332 303.088 222.072C303.456 221.808 303.906 221.676 304.438 221.676C304.662 221.676 304.87 221.702 305.062 221.754C305.258 221.802 305.436 221.87 305.596 221.958C305.756 222.046 305.896 222.148 306.016 222.264C306.136 222.38 306.234 222.504 306.31 222.636V219.084H308.068V228H306.796L306.598 226.728C306.538 226.9 306.458 227.068 306.358 227.232C306.262 227.396 306.136 227.546 305.98 227.682C305.824 227.814 305.632 227.92 305.404 228C305.18 228.08 304.916 228.12 304.612 228.12ZM304.996 226.86C305.436 226.86 305.764 226.706 305.98 226.398C306.2 226.09 306.31 225.57 306.31 224.838C306.306 224.414 306.256 224.062 306.16 223.782C306.064 223.502 305.92 223.294 305.728 223.158C305.54 223.018 305.3 222.948 305.008 222.948C304.628 222.948 304.312 223.094 304.06 223.386C303.808 223.674 303.682 224.158 303.682 224.838C303.682 225.53 303.8 226.04 304.036 226.368C304.272 226.696 304.592 226.86 304.996 226.86Z" fill="#046B99"/>
<path d="M284.217 211C284.249 210.648 284.329 210.204 284.457 209.668C284.585 209.128 284.771 208.532 285.015 207.88C285.263 207.224 285.573 206.544 285.945 205.84C286.321 205.136 286.769 204.442 287.289 203.758H282.639V202.324H289.119V203.758C288.843 204.102 288.565 204.508 288.285 204.976C288.009 205.444 287.743 205.944 287.487 206.476C287.235 207.008 287.007 207.546 286.803 208.09C286.599 208.634 286.435 209.156 286.311 209.656C286.187 210.156 286.119 210.604 286.107 211H284.217ZM290.338 212.932V204.796H292.096L292.102 205.69C292.194 205.542 292.306 205.408 292.438 205.288C292.574 205.164 292.724 205.056 292.888 204.964C293.052 204.872 293.23 204.802 293.422 204.754C293.614 204.702 293.816 204.676 294.028 204.676C294.488 204.676 294.898 204.79 295.258 205.018C295.618 205.242 295.9 205.59 296.104 206.062C296.312 206.53 296.416 207.126 296.416 207.85C296.416 208.602 296.304 209.22 296.08 209.704C295.86 210.184 295.556 210.54 295.168 210.772C294.78 211.004 294.342 211.12 293.854 211.12C293.654 211.12 293.466 211.092 293.29 211.036C293.114 210.984 292.95 210.91 292.798 210.814C292.65 210.718 292.516 210.608 292.396 210.484C292.28 210.356 292.178 210.218 292.09 210.07V212.932H290.338ZM293.434 209.836C293.814 209.836 294.132 209.678 294.388 209.362C294.648 209.046 294.778 208.546 294.778 207.862C294.778 207.262 294.654 206.794 294.406 206.458C294.162 206.118 293.838 205.948 293.434 205.948C292.982 205.948 292.644 206.132 292.42 206.5C292.2 206.864 292.09 207.318 292.09 207.862C292.09 208.21 292.138 208.534 292.234 208.834C292.334 209.134 292.482 209.376 292.678 209.56C292.878 209.744 293.13 209.836 293.434 209.836Z" fill="#046B99"/>
<path d="M114.64 210.75V203.844H112.966V203.118C113.486 203.118 113.89 203.08 114.178 203.004C114.466 202.928 114.67 202.812 114.79 202.656C114.914 202.5 114.982 202.306 114.994 202.074H115.786V210.75H114.64ZM118.039 210.75V210.072V209.718C118.039 209.274 118.121 208.89 118.285 208.566C118.453 208.242 118.673 207.96 118.945 207.72C119.221 207.476 119.521 207.258 119.845 207.066C120.173 206.874 120.499 206.69 120.823 206.514C121.151 206.334 121.451 206.148 121.723 205.956C121.995 205.76 122.213 205.54 122.377 205.296C122.545 205.048 122.629 204.756 122.629 204.42C122.629 203.98 122.473 203.622 122.161 203.346C121.853 203.07 121.435 202.932 120.907 202.932C120.339 202.932 119.883 203.092 119.539 203.412C119.195 203.732 119.001 204.158 118.957 204.69H117.853C117.865 204.19 117.989 203.734 118.225 203.322C118.461 202.906 118.807 202.574 119.263 202.326C119.719 202.078 120.281 201.954 120.949 201.954C121.529 201.954 122.033 202.058 122.461 202.266C122.889 202.47 123.219 202.758 123.451 203.13C123.687 203.498 123.805 203.928 123.805 204.42C123.805 204.868 123.723 205.252 123.559 205.572C123.395 205.892 123.177 206.17 122.905 206.406C122.637 206.638 122.343 206.846 122.023 207.03C121.703 207.214 121.381 207.392 121.057 207.564C120.733 207.732 120.437 207.91 120.169 208.098C119.901 208.282 119.685 208.494 119.521 208.734C119.357 208.974 119.275 209.26 119.275 209.592V209.766H123.853V210.75H118.039ZM125.361 212.682V204.546H126.465L126.477 205.626C126.549 205.498 126.641 205.364 126.753 205.224C126.869 205.084 127.009 204.954 127.173 204.834C127.341 204.714 127.535 204.616 127.755 204.54C127.979 204.464 128.233 204.426 128.517 204.426C129.013 204.426 129.449 204.54 129.825 204.768C130.205 204.992 130.501 205.336 130.713 205.8C130.925 206.264 131.031 206.852 131.031 207.564C131.031 208.276 130.927 208.878 130.719 209.37C130.515 209.858 130.219 210.23 129.831 210.486C129.443 210.742 128.975 210.87 128.427 210.87C128.151 210.87 127.905 210.83 127.689 210.75C127.477 210.674 127.291 210.574 127.131 210.45C126.975 210.322 126.843 210.186 126.735 210.042C126.631 209.898 126.545 209.76 126.477 209.628V212.682H125.361ZM128.217 210.006C128.729 210.006 129.147 209.812 129.471 209.424C129.795 209.032 129.957 208.424 129.957 207.6C129.957 206.892 129.809 206.33 129.513 205.914C129.217 205.498 128.785 205.29 128.217 205.29C127.641 205.29 127.205 205.504 126.909 205.932C126.613 206.356 126.465 206.912 126.465 207.6C126.465 208.044 126.531 208.448 126.663 208.812C126.795 209.176 126.991 209.466 127.251 209.682C127.511 209.898 127.833 210.006 128.217 210.006Z" fill="#3B3A48"/>
<path d="M188.788 210.882C188.192 210.878 187.666 210.768 187.21 210.552C186.758 210.336 186.402 210.034 186.142 209.646C185.882 209.254 185.742 208.79 185.722 208.254H186.832C186.916 208.794 187.136 209.208 187.492 209.496C187.848 209.784 188.294 209.928 188.83 209.928C189.254 209.928 189.624 209.862 189.94 209.73C190.256 209.594 190.5 209.408 190.672 209.172C190.844 208.936 190.93 208.66 190.93 208.344C190.93 207.996 190.834 207.702 190.642 207.462C190.45 207.222 190.188 207.04 189.856 206.916C189.524 206.788 189.154 206.722 188.746 206.718L187.966 206.7V205.758L188.71 205.74C189.09 205.732 189.43 205.66 189.73 205.524C190.03 205.384 190.266 205.202 190.438 204.978C190.614 204.75 190.702 204.5 190.702 204.228C190.702 203.988 190.628 203.766 190.48 203.562C190.332 203.354 190.118 203.188 189.838 203.064C189.562 202.94 189.226 202.878 188.83 202.878C188.518 202.878 188.22 202.94 187.936 203.064C187.652 203.184 187.418 203.37 187.234 203.622C187.05 203.874 186.952 204.2 186.94 204.6H185.836C185.836 204.04 185.972 203.564 186.244 203.172C186.516 202.776 186.878 202.474 187.33 202.266C187.786 202.058 188.288 201.954 188.836 201.954C189.436 201.954 189.966 202.042 190.426 202.218C190.886 202.39 191.246 202.642 191.506 202.974C191.766 203.306 191.896 203.712 191.896 204.192C191.896 204.62 191.76 205.008 191.488 205.356C191.216 205.7 190.8 205.97 190.24 206.166C190.62 206.27 190.952 206.422 191.236 206.622C191.52 206.822 191.74 207.068 191.896 207.36C192.052 207.648 192.13 207.98 192.13 208.356C192.13 208.752 192.046 209.108 191.878 209.424C191.714 209.736 191.482 210.002 191.182 210.222C190.882 210.438 190.528 210.604 190.12 210.72C189.712 210.832 189.268 210.886 188.788 210.882ZM193.623 212.682V204.546H194.727L194.739 205.626C194.811 205.498 194.903 205.364 195.015 205.224C195.131 205.084 195.271 204.954 195.435 204.834C195.603 204.714 195.797 204.616 196.017 204.54C196.241 204.464 196.495 204.426 196.779 204.426C197.275 204.426 197.711 204.54 198.087 204.768C198.467 204.992 198.763 205.336 198.975 205.8C199.187 206.264 199.293 206.852 199.293 207.564C199.293 208.276 199.189 208.878 198.981 209.37C198.777 209.858 198.481 210.23 198.093 210.486C197.705 210.742 197.237 210.87 196.689 210.87C196.413 210.87 196.167 210.83 195.951 210.75C195.739 210.674 195.553 210.574 195.393 210.45C195.237 210.322 195.105 210.186 194.997 210.042C194.893 209.898 194.807 209.76 194.739 209.628V212.682H193.623ZM196.479 210.006C196.991 210.006 197.409 209.812 197.733 209.424C198.057 209.032 198.219 208.424 198.219 207.6C198.219 206.892 198.071 206.33 197.775 205.914C197.479 205.498 197.047 205.29 196.479 205.29C195.903 205.29 195.467 205.504 195.171 205.932C194.875 206.356 194.727 206.912 194.727 207.6C194.727 208.044 194.793 208.448 194.925 208.812C195.057 209.176 195.253 209.466 195.513 209.682C195.773 209.898 196.095 210.006 196.479 210.006Z" fill="#3B3A48"/>
<rect x="65.5" y="147.75" width="14" height="39" rx="4" fill="#82B5CC"/>
<rect x="89.5" y="128.75" width="14" height="58" rx="4" fill="#82B5CC"/>
<rect x="41.5" y="162.75" width="14" height="24" rx="4" fill="#82B5CC"/>
<rect x="113.5" y="115.75" width="14" height="71" rx="4" fill="#82B5CC"/>
<rect x="161.5" y="115.75" width="14" height="71" rx="4" fill="#82B5CC"/>
<rect x="137.5" y="115.75" width="14" height="71" rx="4" fill="#82B5CC"/>
<rect x="185.5" y="123.75" width="14" height="63" rx="4" fill="#82B5CC"/>
<rect x="209.5" y="142.75" width="14" height="44" rx="4" fill="#82B5CC"/>
<rect x="233.5" y="157.75" width="14" height="30" rx="4" fill="#D4D4D7"/>
<rect x="257.5" y="157.75" width="14" height="30" rx="4" fill="#D4D4D7"/>
<path d="M121 72.75L121 110.75" stroke="#D4D4D7"/>
<path d="M240.5 72.75L240.5 152.75" stroke="#D4D4D7"/>
<path d="M24.908 26.75V19.169H23.102V18.014C23.6807 18.014 24.1473 17.9603 24.502 17.853C24.8613 17.741 25.1297 17.5823 25.307 17.377C25.4843 17.167 25.5893 16.9173 25.622 16.628H26.98V26.75H24.908ZM29.2793 26.75V25.742V25.224C29.2793 24.7107 29.3749 24.2673 29.5663 23.894C29.7576 23.516 30.0096 23.1893 30.3223 22.914C30.6396 22.634 30.9849 22.389 31.3583 22.179C31.7363 21.969 32.1143 21.7707 32.4923 21.584C32.8703 21.3973 33.2156 21.2107 33.5283 21.024C33.8456 20.8327 34.0999 20.6203 34.2913 20.387C34.4826 20.1537 34.5783 19.8783 34.5783 19.561C34.5783 19.155 34.4359 18.8237 34.1513 18.567C33.8713 18.3103 33.4863 18.182 32.9963 18.182C32.4876 18.182 32.0559 18.329 31.7013 18.623C31.3466 18.917 31.1273 19.3603 31.0433 19.953H29.0903C29.0996 19.309 29.2489 18.7257 29.5383 18.203C29.8323 17.6757 30.2709 17.258 30.8543 16.95C31.4376 16.642 32.1703 16.488 33.0523 16.488C33.8083 16.488 34.4593 16.6163 35.0053 16.873C35.5559 17.1297 35.9806 17.4867 36.2793 17.944C36.5779 18.4013 36.7273 18.9357 36.7273 19.547C36.7273 20.0557 36.6339 20.4943 36.4473 20.863C36.2606 21.2317 36.0133 21.5467 35.7053 21.808C35.3973 22.0693 35.0589 22.298 34.6903 22.494C34.3216 22.69 33.9529 22.872 33.5843 23.04C33.2203 23.208 32.8843 23.3807 32.5763 23.558C32.2683 23.7307 32.0209 23.9267 31.8343 24.146C31.6476 24.3653 31.5543 24.629 31.5543 24.937V25.028H36.7133V26.75H29.2793ZM38.25 29.004V19.512H40.301L40.308 20.555C40.4153 20.3823 40.546 20.226 40.7 20.086C40.8587 19.9413 41.0337 19.8153 41.225 19.708C41.4163 19.6007 41.624 19.519 41.848 19.463C42.072 19.4023 42.3077 19.372 42.555 19.372C43.0917 19.372 43.57 19.505 43.99 19.771C44.41 20.0323 44.739 20.4383 44.977 20.989C45.2197 21.535 45.341 22.2303 45.341 23.075C45.341 23.9523 45.2103 24.6733 44.949 25.238C44.6923 25.798 44.3377 26.2133 43.885 26.484C43.4323 26.7547 42.9213 26.89 42.352 26.89C42.1187 26.89 41.8993 26.8573 41.694 26.792C41.4887 26.7313 41.2973 26.645 41.12 26.533C40.9473 26.421 40.791 26.2927 40.651 26.148C40.5157 25.9987 40.3967 25.8377 40.294 25.665V29.004H38.25ZM41.862 25.392C42.3053 25.392 42.6763 25.2077 42.975 24.839C43.2783 24.4703 43.43 23.887 43.43 23.089C43.43 22.389 43.2853 21.843 42.996 21.451C42.7113 21.0543 42.3333 20.856 41.862 20.856C41.3347 20.856 40.9403 21.0707 40.679 21.5C40.4223 21.9247 40.294 22.4543 40.294 23.089C40.294 23.495 40.35 23.873 40.462 24.223C40.5787 24.573 40.7513 24.8553 40.98 25.07C41.2133 25.2847 41.5073 25.392 41.862 25.392ZM46.7539 26.75V19.512H48.7559V20.534C48.9752 20.2167 49.2692 19.9437 49.6379 19.715C50.0112 19.4863 50.4802 19.372 51.0449 19.372C51.2922 19.372 51.5442 19.4163 51.8009 19.505C52.0576 19.5937 52.2979 19.7243 52.5219 19.897C52.7506 20.065 52.9349 20.2773 53.0749 20.534C53.3082 20.2027 53.6139 19.9273 53.9919 19.708C54.3746 19.484 54.7992 19.372 55.2659 19.372C55.5366 19.372 55.8096 19.4163 56.0849 19.505C56.3649 19.5937 56.6216 19.7383 56.8549 19.939C57.0882 20.1397 57.2749 20.408 57.4149 20.744C57.5596 21.0753 57.6319 21.486 57.6319 21.976V26.75H55.5879V22.228C55.5879 21.9387 55.5296 21.7077 55.4129 21.535C55.3009 21.3577 55.1562 21.2317 54.9789 21.157C54.8062 21.0777 54.6219 21.038 54.4259 21.038C54.2439 21.038 54.0596 21.0753 53.8729 21.15C53.6862 21.22 53.5276 21.3343 53.3969 21.493C53.2662 21.6517 53.2009 21.8593 53.2009 22.116V26.75H51.1639V22.046C51.1639 21.8267 51.1056 21.6423 50.9889 21.493C50.8722 21.3437 50.7252 21.2317 50.5479 21.157C50.3752 21.0777 50.1979 21.038 50.0159 21.038C49.8292 21.038 49.6426 21.0777 49.4559 21.157C49.2692 21.2317 49.1129 21.3507 48.9869 21.514C48.8609 21.6727 48.7979 21.8733 48.7979 22.116V26.75H46.7539ZM59.186 21.444V19.799H60.733V21.444H59.186ZM59.186 26.708V25.077H60.733V26.708H59.186Z" fill="#046B99"/>
<path d="M66.2198 26.75V16.628H69.4748C70.7068 16.628 71.6378 16.8543 72.2678 17.307C72.9025 17.7597 73.2198 18.413 73.2198 19.267C73.2198 19.8037 73.0798 20.2633 72.7998 20.646C72.5245 21.0287 72.0391 21.3437 71.3438 21.591C71.7405 21.675 72.0741 21.7963 72.3448 21.955C72.6201 22.1137 72.8395 22.3003 73.0028 22.515C73.1708 22.725 73.2898 22.9583 73.3598 23.215C73.4345 23.4717 73.4718 23.7423 73.4718 24.027C73.4718 24.9417 73.1451 25.6253 72.4918 26.078C71.8431 26.526 70.8725 26.75 69.5798 26.75H66.2198ZM67.5148 25.672H69.5658C70.4105 25.672 71.0521 25.5343 71.4908 25.259C71.9341 24.979 72.1558 24.5497 72.1558 23.971C72.1558 23.5463 72.0461 23.2033 71.8268 22.942C71.6121 22.676 71.3205 22.4823 70.9518 22.361C70.5831 22.2397 70.1725 22.179 69.7198 22.179H67.5148V25.672ZM67.5148 21.08H69.7198C69.9858 21.08 70.2495 21.0543 70.5108 21.003C70.7721 20.9517 71.0125 20.863 71.2318 20.737C71.4511 20.611 71.6285 20.443 71.7638 20.233C71.8991 20.0183 71.9668 19.75 71.9668 19.428C71.9668 18.84 71.7405 18.406 71.2878 18.126C70.8398 17.8413 70.2565 17.699 69.5378 17.699H67.5148V21.08ZM78.0064 26.89C77.6284 26.8853 77.2714 26.8317 76.9354 26.729C76.6041 26.6217 76.3101 26.4653 76.0534 26.26C75.7967 26.0547 75.5937 25.8003 75.4444 25.497C75.2997 25.189 75.2274 24.832 75.2274 24.426V19.512H76.5224V24.293C76.5224 24.7643 76.6671 25.147 76.9564 25.441C77.2504 25.735 77.6914 25.882 78.2794 25.882C78.8114 25.882 79.2384 25.7443 79.5604 25.469C79.8871 25.189 80.0504 24.7737 80.0504 24.223V19.512H81.3384V26.75H80.3094L80.1764 25.364C80.0877 25.728 79.9361 26.022 79.7214 26.246C79.5114 26.47 79.2571 26.6357 78.9584 26.743C78.6644 26.8457 78.3471 26.8947 78.0064 26.89ZM86.0715 26.89C85.5675 26.89 85.0985 26.813 84.6645 26.659C84.2352 26.5003 83.8782 26.2553 83.5935 25.924C83.3088 25.588 83.1315 25.161 83.0615 24.643H84.2375C84.2982 24.9277 84.4148 25.1657 84.5875 25.357C84.7602 25.5437 84.9725 25.686 85.2245 25.784C85.4812 25.8773 85.7612 25.924 86.0645 25.924C86.5545 25.924 86.9488 25.833 87.2475 25.651C87.5462 25.469 87.6955 25.189 87.6955 24.811C87.6955 24.545 87.6162 24.3327 87.4575 24.174C87.3035 24.0107 87.0608 23.8917 86.7295 23.817L85.2315 23.446C84.6482 23.306 84.1815 23.0867 83.8315 22.788C83.4862 22.4893 83.3112 22.0717 83.3065 21.535C83.3065 21.1103 83.4092 20.737 83.6145 20.415C83.8198 20.093 84.1255 19.8387 84.5315 19.652C84.9422 19.4653 85.4532 19.372 86.0645 19.372C86.8532 19.372 87.4878 19.5493 87.9685 19.904C88.4492 20.254 88.7012 20.7697 88.7245 21.451H87.5765C87.5298 21.1057 87.3758 20.8327 87.1145 20.632C86.8532 20.4267 86.4985 20.324 86.0505 20.324C85.5932 20.324 85.2175 20.4173 84.9235 20.604C84.6342 20.786 84.4895 21.0707 84.4895 21.458C84.4895 21.7147 84.5922 21.9177 84.7975 22.067C85.0075 22.2117 85.3108 22.333 85.7075 22.431L87.1635 22.795C87.4948 22.8837 87.7702 23.0003 87.9895 23.145C88.2088 23.2897 88.3815 23.4507 88.5075 23.628C88.6335 23.8053 88.7222 23.992 88.7735 24.188C88.8295 24.3793 88.8575 24.5637 88.8575 24.741C88.8575 25.1843 88.7478 25.567 88.5285 25.889C88.3092 26.2063 87.9918 26.4537 87.5765 26.631C87.1612 26.8037 86.6595 26.89 86.0715 26.89ZM91.2432 29.06C90.8185 29.06 90.5268 29.0297 90.3682 28.969C90.2095 28.9083 90.1302 28.878 90.1302 28.878V28.038L90.8722 28.052C91.1382 28.0613 91.3598 28.0427 91.5372 27.996C91.7145 27.9493 91.8568 27.8863 91.9642 27.807C92.0715 27.7277 92.1532 27.639 92.2092 27.541C92.2698 27.443 92.3188 27.3497 92.3562 27.261L92.6082 26.575L89.7802 19.512H91.0892L93.2242 25.098L95.3452 19.512H96.6122L93.5672 27.296C93.3758 27.7533 93.1635 28.1103 92.9302 28.367C92.7015 28.6237 92.4448 28.8033 92.1602 28.906C91.8802 29.0087 91.5745 29.06 91.2432 29.06ZM25.741 50.75L22.822 40.628H24.131L26.371 48.685L28.653 40.628H29.668L31.943 48.685L34.225 40.628H35.527L32.573 50.75H31.376L29.157 42.903L26.903 50.75H25.741ZM38.3295 50.89C37.8582 50.89 37.4428 50.8083 37.0835 50.645C36.7288 50.477 36.4488 50.2367 36.2435 49.924C36.0428 49.6113 35.9425 49.2333 35.9425 48.79C35.9425 47.9873 36.2225 47.39 36.7825 46.998C37.3425 46.606 38.2408 46.396 39.4775 46.368L40.7655 46.333V45.766C40.7655 45.3227 40.6325 44.9727 40.3665 44.716C40.1005 44.4547 39.6898 44.324 39.1345 44.324C38.7192 44.3287 38.3528 44.4267 38.0355 44.618C37.7182 44.8093 37.5152 45.122 37.4265 45.556H36.2855C36.3135 45.0847 36.4442 44.688 36.6775 44.366C36.9155 44.0393 37.2492 43.792 37.6785 43.624C38.1078 43.456 38.6142 43.372 39.1975 43.372C39.8275 43.372 40.3502 43.4607 40.7655 43.638C41.1855 43.8153 41.4982 44.0767 41.7035 44.422C41.9135 44.7673 42.0185 45.192 42.0185 45.696V50.75H40.9125L40.8145 49.392C40.5392 49.9567 40.1845 50.3487 39.7505 50.568C39.3212 50.7827 38.8475 50.89 38.3295 50.89ZM38.7145 49.959C38.9618 49.959 39.2045 49.9147 39.4425 49.826C39.6852 49.7373 39.9045 49.6183 40.1005 49.469C40.3012 49.315 40.4622 49.1447 40.5835 48.958C40.7048 48.7667 40.7655 48.5707 40.7655 48.37V47.131L39.6945 47.152C39.1392 47.1613 38.6772 47.2173 38.3085 47.32C37.9398 47.4227 37.6622 47.5837 37.4755 47.803C37.2888 48.0223 37.1955 48.3093 37.1955 48.664C37.1955 49.07 37.3378 49.3873 37.6225 49.616C37.9072 49.8447 38.2712 49.959 38.7145 49.959ZM44.0728 50.75V43.512H45.3258V50.75H44.0728ZM44.0378 41.979V40.635H45.3608V41.979H44.0378ZM50.1498 50.785C49.6504 50.785 49.2631 50.7173 48.9878 50.582C48.7124 50.4467 48.5188 50.246 48.4068 49.98C48.2994 49.714 48.2458 49.3873 48.2458 49V44.457H47.0698V43.512H48.2808L48.5958 41.405H49.5478V43.505H51.1788V44.457H49.5478V48.958C49.5478 49.2147 49.5734 49.4037 49.6248 49.525C49.6808 49.6417 49.7718 49.7163 49.8978 49.749C50.0238 49.7817 50.2011 49.798 50.4298 49.798H51.2208V50.666C51.1321 50.6987 50.9968 50.7267 50.8148 50.75C50.6374 50.7733 50.4158 50.785 50.1498 50.785ZM52.6372 45.444V43.799H54.1842V45.444H52.6372ZM52.6372 50.708V49.077H54.1842V50.708H52.6372ZM63.367 50.89C62.4897 50.89 61.778 50.7453 61.232 50.456C60.6907 50.1667 60.294 49.742 60.042 49.182C59.7947 48.622 59.671 47.9337 59.671 47.117V40.628H61.015V47.313C61.015 48.1297 61.218 48.741 61.624 49.147C62.03 49.553 62.611 49.756 63.367 49.756C63.8757 49.756 64.3073 49.6673 64.662 49.49C65.0213 49.3127 65.2943 49.0443 65.481 48.685C65.6723 48.321 65.768 47.8637 65.768 47.313V40.628H67.07V47.25C67.07 48.0293 66.9417 48.6897 66.685 49.231C66.4283 49.7723 66.027 50.1853 65.481 50.47C64.9397 50.75 64.235 50.89 63.367 50.89ZM69.2077 53.004V43.512H70.4957L70.5097 44.772C70.5937 44.6227 70.7011 44.4663 70.8317 44.303C70.9671 44.1397 71.1304 43.988 71.3217 43.848C71.5177 43.708 71.7441 43.5937 72.0007 43.505C72.2621 43.4163 72.5584 43.372 72.8897 43.372C73.4684 43.372 73.9771 43.505 74.4157 43.771C74.8591 44.0323 75.2044 44.4337 75.4517 44.975C75.6991 45.5163 75.8227 46.2023 75.8227 47.033C75.8227 47.8637 75.7014 48.566 75.4587 49.14C75.2207 49.7093 74.8754 50.1433 74.4227 50.442C73.9701 50.7407 73.4241 50.89 72.7847 50.89C72.4627 50.89 72.1757 50.8433 71.9237 50.75C71.6764 50.6613 71.4594 50.5447 71.2727 50.4C71.0907 50.2507 70.9367 50.092 70.8107 49.924C70.6894 49.756 70.5891 49.595 70.5097 49.441V53.004H69.2077ZM72.5397 49.882C73.1371 49.882 73.6247 49.6557 74.0027 49.203C74.3807 48.7457 74.5697 48.0363 74.5697 47.075C74.5697 46.249 74.3971 45.5933 74.0517 45.108C73.7064 44.6227 73.2024 44.38 72.5397 44.38C71.8677 44.38 71.3591 44.6297 71.0137 45.129C70.6684 45.6237 70.4957 46.2723 70.4957 47.075C70.4957 47.593 70.5727 48.0643 70.7267 48.489C70.8807 48.9137 71.1094 49.252 71.4127 49.504C71.7161 49.756 72.0917 49.882 72.5397 49.882ZM83.5092 50.785C83.0098 50.785 82.6225 50.7173 82.3472 50.582C82.0718 50.4467 81.8782 50.246 81.7662 49.98C81.6588 49.714 81.6052 49.3873 81.6052 49V44.457H80.4292V43.512H81.6402L81.9552 41.405H82.9072V43.505H84.5382V44.457H82.9072V48.958C82.9072 49.2147 82.9328 49.4037 82.9842 49.525C83.0402 49.6417 83.1312 49.7163 83.2572 49.749C83.3832 49.7817 83.5605 49.798 83.7892 49.798H84.5802V50.666C84.4915 50.6987 84.3562 50.7267 84.1742 50.75C83.9968 50.7733 83.7752 50.785 83.5092 50.785ZM89.0042 50.89C88.3368 50.89 87.7535 50.7477 87.2542 50.463C86.7595 50.1737 86.3745 49.7513 86.0992 49.196C85.8238 48.6407 85.6862 47.9617 85.6862 47.159C85.6862 46.403 85.8145 45.7403 86.0712 45.171C86.3278 44.6017 86.7035 44.1607 87.1982 43.848C87.6928 43.5307 88.2972 43.372 89.0112 43.372C89.6785 43.372 90.2572 43.519 90.7472 43.813C91.2372 44.1023 91.6175 44.5293 91.8882 45.094C92.1635 45.6587 92.3012 46.347 92.3012 47.159C92.3012 47.8963 92.1752 48.545 91.9232 49.105C91.6712 49.665 91.3002 50.1037 90.8102 50.421C90.3248 50.7337 89.7228 50.89 89.0042 50.89ZM89.0112 49.868C89.4405 49.868 89.8045 49.7583 90.1032 49.539C90.4018 49.3197 90.6282 49.0047 90.7822 48.594C90.9408 48.1833 91.0202 47.6957 91.0202 47.131C91.0202 46.613 90.9502 46.1487 90.8102 45.738C90.6748 45.3227 90.4602 44.9937 90.1662 44.751C89.8722 44.5083 89.4872 44.387 89.0112 44.387C88.5725 44.387 88.2015 44.4967 87.8982 44.716C87.5948 44.9307 87.3638 45.2433 87.2052 45.654C87.0512 46.0647 86.9742 46.557 86.9742 47.131C86.9742 47.6397 87.0418 48.1017 87.1772 48.517C87.3172 48.9323 87.5365 49.2613 87.8352 49.504C88.1385 49.7467 88.5305 49.868 89.0112 49.868ZM98.8638 50.75V42.693H96.9108V41.846C97.5174 41.846 97.9888 41.8017 98.3248 41.713C98.6608 41.6243 98.8988 41.489 99.0388 41.307C99.1834 41.125 99.2628 40.8987 99.2768 40.628H100.201V50.75H98.8638ZM106.436 50.75V40.348H107.696V44.576C107.818 44.3753 107.981 44.1887 108.186 44.016C108.392 43.8387 108.641 43.6963 108.935 43.589C109.229 43.477 109.57 43.421 109.957 43.421C110.429 43.421 110.856 43.5097 111.238 43.687C111.621 43.8597 111.924 44.107 112.148 44.429C112.372 44.751 112.484 45.1337 112.484 45.577V50.75H111.189V45.836C111.189 45.402 111.04 45.0683 110.741 44.835C110.447 44.597 110.062 44.478 109.586 44.478C109.264 44.478 108.961 44.5317 108.676 44.639C108.392 44.7417 108.161 44.9003 107.983 45.115C107.811 45.325 107.724 45.5933 107.724 45.92V50.75H106.436ZM117.401 50.89C116.733 50.89 116.15 50.7477 115.651 50.463C115.156 50.1737 114.771 49.7513 114.496 49.196C114.22 48.6407 114.083 47.9617 114.083 47.159C114.083 46.403 114.211 45.7403 114.468 45.171C114.724 44.6017 115.1 44.1607 115.595 43.848C116.089 43.5307 116.694 43.372 117.408 43.372C118.075 43.372 118.654 43.519 119.144 43.813C119.634 44.1023 120.014 44.5293 120.285 45.094C120.56 45.6587 120.698 46.347 120.698 47.159C120.698 47.8963 120.572 48.545 120.32 49.105C120.068 49.665 119.697 50.1037 119.207 50.421C118.721 50.7337 118.119 50.89 117.401 50.89ZM117.408 49.868C117.837 49.868 118.201 49.7583 118.5 49.539C118.798 49.3197 119.025 49.0047 119.179 48.594C119.337 48.1833 119.417 47.6957 119.417 47.131C119.417 46.613 119.347 46.1487 119.207 45.738C119.071 45.3227 118.857 44.9937 118.563 44.751C118.269 44.5083 117.884 44.387 117.408 44.387C116.969 44.387 116.598 44.4967 116.295 44.716C115.991 44.9307 115.76 45.2433 115.602 45.654C115.448 46.0647 115.371 46.557 115.371 47.131C115.371 47.6397 115.438 48.1017 115.574 48.517C115.714 48.9323 115.933 49.2613 116.232 49.504C116.535 49.7467 116.927 49.868 117.408 49.868ZM125.051 50.89C124.673 50.8853 124.316 50.8317 123.98 50.729C123.649 50.6217 123.355 50.4653 123.098 50.26C122.842 50.0547 122.639 49.8003 122.489 49.497C122.345 49.189 122.272 48.832 122.272 48.426V43.512H123.567V48.293C123.567 48.7643 123.712 49.147 124.001 49.441C124.295 49.735 124.736 49.882 125.324 49.882C125.856 49.882 126.283 49.7443 126.605 49.469C126.932 49.189 127.095 48.7737 127.095 48.223V43.512H128.383V50.75H127.354L127.221 49.364C127.133 49.728 126.981 50.022 126.766 50.246C126.556 50.47 126.302 50.6357 126.003 50.743C125.709 50.8457 125.392 50.8947 125.051 50.89ZM130.608 50.75V43.512H131.84V44.905C131.961 44.5597 132.132 44.275 132.351 44.051C132.57 43.8223 132.82 43.652 133.1 43.54C133.385 43.428 133.679 43.372 133.982 43.372C134.089 43.372 134.194 43.379 134.297 43.393C134.4 43.407 134.479 43.4303 134.535 43.463V44.716C134.465 44.6833 134.374 44.6623 134.262 44.653C134.155 44.639 134.064 44.632 133.989 44.632C133.7 44.6133 133.429 44.632 133.177 44.688C132.925 44.7393 132.703 44.8303 132.512 44.961C132.321 45.0917 132.169 45.2643 132.057 45.479C131.95 45.689 131.896 45.9457 131.896 46.249V50.75H130.608Z" fill="#3B3A48"/>
<rect x="12" y="1.25" width="134" height="66" rx="3.5" stroke="#D4D4D7"/>
<path d="M218.386 26.904C217.723 26.904 217.107 26.8013 216.538 26.596C215.969 26.3907 215.476 26.1107 215.061 25.756C214.646 25.3967 214.331 24.986 214.116 24.524L215.712 23.579C215.894 23.8963 216.099 24.1833 216.328 24.44C216.557 24.692 216.82 24.8927 217.119 25.042C217.422 25.1867 217.775 25.259 218.176 25.259C218.783 25.259 219.27 25.098 219.639 24.776C220.008 24.454 220.192 24.034 220.192 23.516C220.192 23.1893 220.108 22.8977 219.94 22.641C219.777 22.3797 219.55 22.1743 219.261 22.025C218.972 21.8757 218.633 21.801 218.246 21.801C218.041 21.801 217.845 21.8197 217.658 21.857C217.476 21.8897 217.289 21.955 217.098 22.053C216.911 22.1463 216.704 22.2817 216.475 22.459C216.41 22.487 216.363 22.501 216.335 22.501C216.312 22.501 216.265 22.4847 216.195 22.452L214.711 21.766L215.173 16.628H221.676L221.599 18.301H216.79L216.594 20.744C216.967 20.534 217.322 20.3823 217.658 20.289C217.999 20.1957 218.372 20.149 218.778 20.149C219.455 20.149 220.059 20.2773 220.591 20.534C221.128 20.786 221.552 21.157 221.865 21.647C222.178 22.137 222.334 22.7343 222.334 23.439C222.334 24.153 222.173 24.769 221.851 25.287C221.529 25.805 221.072 26.204 220.479 26.484C219.891 26.764 219.193 26.904 218.386 26.904ZM223.822 29.004V19.512H225.873L225.88 20.555C225.988 20.3823 226.118 20.226 226.272 20.086C226.431 19.9413 226.606 19.8153 226.797 19.708C226.989 19.6007 227.196 19.519 227.42 19.463C227.644 19.4023 227.88 19.372 228.127 19.372C228.664 19.372 229.142 19.505 229.562 19.771C229.982 20.0323 230.311 20.4383 230.549 20.989C230.792 21.535 230.913 22.2303 230.913 23.075C230.913 23.9523 230.783 24.6733 230.521 25.238C230.265 25.798 229.91 26.2133 229.457 26.484C229.005 26.7547 228.494 26.89 227.924 26.89C227.691 26.89 227.472 26.8573 227.266 26.792C227.061 26.7313 226.87 26.645 226.692 26.533C226.52 26.421 226.363 26.2927 226.223 26.148C226.088 25.9987 225.969 25.8377 225.866 25.665V29.004H223.822ZM227.434 25.392C227.878 25.392 228.249 25.2077 228.547 24.839C228.851 24.4703 229.002 23.887 229.002 23.089C229.002 22.389 228.858 21.843 228.568 21.451C228.284 21.0543 227.906 20.856 227.434 20.856C226.907 20.856 226.513 21.0707 226.251 21.5C225.995 21.9247 225.866 22.4543 225.866 23.089C225.866 23.495 225.922 23.873 226.034 24.223C226.151 24.573 226.324 24.8553 226.552 25.07C226.786 25.2847 227.08 25.392 227.434 25.392ZM232.326 26.75V19.512H234.328V20.534C234.548 20.2167 234.842 19.9437 235.21 19.715C235.584 19.4863 236.053 19.372 236.617 19.372C236.865 19.372 237.117 19.4163 237.373 19.505C237.63 19.5937 237.87 19.7243 238.094 19.897C238.323 20.065 238.507 20.2773 238.647 20.534C238.881 20.2027 239.186 19.9273 239.564 19.708C239.947 19.484 240.372 19.372 240.838 19.372C241.109 19.372 241.382 19.4163 241.657 19.505C241.937 19.5937 242.194 19.7383 242.427 19.939C242.661 20.1397 242.847 20.408 242.987 20.744C243.132 21.0753 243.204 21.486 243.204 21.976V26.75H241.16V22.228C241.16 21.9387 241.102 21.7077 240.985 21.535C240.873 21.3577 240.729 21.2317 240.551 21.157C240.379 21.0777 240.194 21.038 239.998 21.038C239.816 21.038 239.632 21.0753 239.445 21.15C239.259 21.22 239.1 21.3343 238.969 21.493C238.839 21.6517 238.773 21.8593 238.773 22.116V26.75H236.736V22.046C236.736 21.8267 236.678 21.6423 236.561 21.493C236.445 21.3437 236.298 21.2317 236.12 21.157C235.948 21.0777 235.77 21.038 235.588 21.038C235.402 21.038 235.215 21.0777 235.028 21.157C234.842 21.2317 234.685 21.3507 234.559 21.514C234.433 21.6727 234.37 21.8733 234.37 22.116V26.75H232.326ZM244.758 21.444V19.799H246.305V21.444H244.758ZM244.758 26.708V25.077H246.305V26.708H244.758Z" fill="#046B99"/>
<path d="M251.792 26.75L251.799 16.628H253.122V25.588H257.903V26.75H251.792ZM262.392 26.89C261.72 26.89 261.127 26.743 260.614 26.449C260.1 26.155 259.699 25.7327 259.41 25.182C259.12 24.6313 258.976 23.971 258.976 23.201C258.976 22.4403 259.106 21.773 259.368 21.199C259.629 20.625 260.007 20.177 260.502 19.855C261.001 19.533 261.601 19.372 262.301 19.372C262.982 19.372 263.558 19.519 264.03 19.813C264.501 20.107 264.858 20.5223 265.101 21.059C265.348 21.591 265.472 22.2233 265.472 22.956V23.432H260.285C260.285 23.8893 260.359 24.3047 260.509 24.678C260.663 25.0467 260.894 25.3407 261.202 25.56C261.51 25.7793 261.899 25.889 262.371 25.889C262.833 25.889 263.229 25.7817 263.561 25.567C263.897 25.3523 264.111 25.042 264.205 24.636H265.423C265.339 25.126 265.143 25.539 264.835 25.875C264.531 26.211 264.165 26.4653 263.736 26.638C263.311 26.806 262.863 26.89 262.392 26.89ZM260.292 22.557H264.226C264.226 22.1417 264.156 21.7683 264.016 21.437C263.876 21.101 263.661 20.8373 263.372 20.646C263.087 20.45 262.728 20.352 262.294 20.352C261.841 20.352 261.465 20.4617 261.167 20.681C260.868 20.8957 260.646 21.1733 260.502 21.514C260.357 21.85 260.287 22.1977 260.292 22.557ZM269.812 26.89C269.308 26.89 268.839 26.813 268.405 26.659C267.975 26.5003 267.618 26.2553 267.334 25.924C267.049 25.588 266.872 25.161 266.802 24.643H267.978C268.038 24.9277 268.155 25.1657 268.328 25.357C268.5 25.5437 268.713 25.686 268.965 25.784C269.221 25.8773 269.501 25.924 269.805 25.924C270.295 25.924 270.689 25.833 270.988 25.651C271.286 25.469 271.436 25.189 271.436 24.811C271.436 24.545 271.356 24.3327 271.198 24.174C271.044 24.0107 270.801 23.8917 270.47 23.817L268.972 23.446C268.388 23.306 267.922 23.0867 267.572 22.788C267.226 22.4893 267.051 22.0717 267.047 21.535C267.047 21.1103 267.149 20.737 267.355 20.415C267.56 20.093 267.866 19.8387 268.272 19.652C268.682 19.4653 269.193 19.372 269.805 19.372C270.593 19.372 271.228 19.5493 271.709 19.904C272.189 20.254 272.441 20.7697 272.465 21.451H271.317C271.27 21.1057 271.116 20.8327 270.855 20.632C270.593 20.4267 270.239 20.324 269.791 20.324C269.333 20.324 268.958 20.4173 268.664 20.604C268.374 20.786 268.23 21.0707 268.23 21.458C268.23 21.7147 268.332 21.9177 268.538 22.067C268.748 22.2117 269.051 22.333 269.448 22.431L270.904 22.795C271.235 22.8837 271.51 23.0003 271.73 23.145C271.949 23.2897 272.122 23.4507 272.248 23.628C272.374 23.8053 272.462 23.992 272.514 24.188C272.57 24.3793 272.598 24.5637 272.598 24.741C272.598 25.1843 272.488 25.567 272.269 25.889C272.049 26.2063 271.732 26.4537 271.317 26.631C270.901 26.8037 270.4 26.89 269.812 26.89ZM276.866 26.89C276.362 26.89 275.893 26.813 275.459 26.659C275.03 26.5003 274.673 26.2553 274.388 25.924C274.104 25.588 273.926 25.161 273.856 24.643H275.032C275.093 24.9277 275.21 25.1657 275.382 25.357C275.555 25.5437 275.767 25.686 276.019 25.784C276.276 25.8773 276.556 25.924 276.859 25.924C277.349 25.924 277.744 25.833 278.042 25.651C278.341 25.469 278.49 25.189 278.49 24.811C278.49 24.545 278.411 24.3327 278.252 24.174C278.098 24.0107 277.856 23.8917 277.524 23.817L276.026 23.446C275.443 23.306 274.976 23.0867 274.626 22.788C274.281 22.4893 274.106 22.0717 274.101 21.535C274.101 21.1103 274.204 20.737 274.409 20.415C274.615 20.093 274.92 19.8387 275.326 19.652C275.737 19.4653 276.248 19.372 276.859 19.372C277.648 19.372 278.283 19.5493 278.763 19.904C279.244 20.254 279.496 20.7697 279.519 21.451H278.371C278.325 21.1057 278.171 20.8327 277.909 20.632C277.648 20.4267 277.293 20.324 276.845 20.324C276.388 20.324 276.012 20.4173 275.718 20.604C275.429 20.786 275.284 21.0707 275.284 21.458C275.284 21.7147 275.387 21.9177 275.592 22.067C275.802 22.2117 276.106 22.333 276.502 22.431L277.958 22.795C278.29 22.8837 278.565 23.0003 278.784 23.145C279.004 23.2897 279.176 23.4507 279.302 23.628C279.428 23.8053 279.517 23.992 279.568 24.188C279.624 24.3793 279.652 24.5637 279.652 24.741C279.652 25.1843 279.543 25.567 279.323 25.889C279.104 26.2063 278.787 26.4537 278.371 26.631C277.956 26.8037 277.454 26.89 276.866 26.89ZM288.271 26.89C287.846 26.89 287.487 26.834 287.193 26.722C286.904 26.61 286.666 26.4677 286.479 26.295C286.292 26.1177 286.148 25.938 286.045 25.756C285.942 25.5693 285.868 25.406 285.821 25.266L285.681 26.75H284.694V16.348H285.996V20.66C286.057 20.5387 286.148 20.4057 286.269 20.261C286.395 20.1163 286.556 19.9763 286.752 19.841C286.948 19.7057 287.179 19.5937 287.445 19.505C287.716 19.4163 288.024 19.372 288.369 19.372C289.274 19.372 289.993 19.687 290.525 20.317C291.062 20.947 291.33 21.8757 291.33 23.103C291.33 23.8637 291.216 24.5287 290.987 25.098C290.758 25.6627 290.418 26.1037 289.965 26.421C289.512 26.7337 288.948 26.89 288.271 26.89ZM288.04 25.896C288.628 25.896 289.106 25.6697 289.475 25.217C289.844 24.7597 290.028 24.034 290.028 23.04C290.028 22.1953 289.855 21.542 289.51 21.08C289.169 20.6133 288.67 20.38 288.012 20.38C287.531 20.38 287.144 20.485 286.85 20.695C286.561 20.9003 286.346 21.2013 286.206 21.598C286.071 21.9947 286.001 22.4753 285.996 23.04C285.996 24.0527 286.152 24.783 286.465 25.231C286.782 25.6743 287.307 25.896 288.04 25.896ZM295.68 26.89C295.302 26.8853 294.945 26.8317 294.609 26.729C294.278 26.6217 293.984 26.4653 293.727 26.26C293.471 26.0547 293.268 25.8003 293.118 25.497C292.974 25.189 292.901 24.832 292.901 24.426V19.512H294.196V24.293C294.196 24.7643 294.341 25.147 294.63 25.441C294.924 25.735 295.365 25.882 295.953 25.882C296.485 25.882 296.912 25.7443 297.234 25.469C297.561 25.189 297.724 24.7737 297.724 24.223V19.512H299.012V26.75H297.983L297.85 25.364C297.762 25.728 297.61 26.022 297.395 26.246C297.185 26.47 296.931 26.6357 296.632 26.743C296.338 26.8457 296.021 26.8947 295.68 26.89ZM303.745 26.89C303.241 26.89 302.772 26.813 302.338 26.659C301.909 26.5003 301.552 26.2553 301.267 25.924C300.983 25.588 300.805 25.161 300.735 24.643H301.911C301.972 24.9277 302.089 25.1657 302.261 25.357C302.434 25.5437 302.646 25.686 302.898 25.784C303.155 25.8773 303.435 25.924 303.738 25.924C304.228 25.924 304.623 25.833 304.921 25.651C305.22 25.469 305.369 25.189 305.369 24.811C305.369 24.545 305.29 24.3327 305.131 24.174C304.977 24.0107 304.735 23.8917 304.403 23.817L302.905 23.446C302.322 23.306 301.855 23.0867 301.505 22.788C301.16 22.4893 300.985 22.0717 300.98 21.535C300.98 21.1103 301.083 20.737 301.288 20.415C301.494 20.093 301.799 19.8387 302.205 19.652C302.616 19.4653 303.127 19.372 303.738 19.372C304.527 19.372 305.162 19.5493 305.642 19.904C306.123 20.254 306.375 20.7697 306.398 21.451H305.25C305.204 21.1057 305.05 20.8327 304.788 20.632C304.527 20.4267 304.172 20.324 303.724 20.324C303.267 20.324 302.891 20.4173 302.597 20.604C302.308 20.786 302.163 21.0707 302.163 21.458C302.163 21.7147 302.266 21.9177 302.471 22.067C302.681 22.2117 302.985 22.333 303.381 22.431L304.837 22.795C305.169 22.8837 305.444 23.0003 305.663 23.145C305.883 23.2897 306.055 23.4507 306.181 23.628C306.307 23.8053 306.396 23.992 306.447 24.188C306.503 24.3793 306.531 24.5637 306.531 24.741C306.531 25.1843 306.422 25.567 306.202 25.889C305.983 26.2063 305.666 26.4537 305.25 26.631C304.835 26.8037 304.333 26.89 303.745 26.89ZM308.917 29.06C308.492 29.06 308.201 29.0297 308.042 28.969C307.883 28.9083 307.804 28.878 307.804 28.878V28.038L308.546 28.052C308.812 28.0613 309.034 28.0427 309.211 27.996C309.388 27.9493 309.531 27.8863 309.638 27.807C309.745 27.7277 309.827 27.639 309.883 27.541C309.944 27.443 309.993 27.3497 310.03 27.261L310.282 26.575L307.454 19.512H308.763L310.898 25.098L313.019 19.512H314.286L311.241 27.296C311.05 27.7533 310.837 28.1103 310.604 28.367C310.375 28.6237 310.119 28.8033 309.834 28.906C309.554 29.0087 309.248 29.06 308.917 29.06ZM216.741 50.75L213.822 40.628H215.131L217.371 48.685L219.653 40.628H220.668L222.943 48.685L225.225 40.628H226.527L223.573 50.75H222.376L220.157 42.903L217.903 50.75H216.741ZM229.33 50.89C228.858 50.89 228.443 50.8083 228.084 50.645C227.729 50.477 227.449 50.2367 227.244 49.924C227.043 49.6113 226.943 49.2333 226.943 48.79C226.943 47.9873 227.223 47.39 227.783 46.998C228.343 46.606 229.241 46.396 230.478 46.368L231.766 46.333V45.766C231.766 45.3227 231.633 44.9727 231.367 44.716C231.101 44.4547 230.69 44.324 230.135 44.324C229.719 44.3287 229.353 44.4267 229.036 44.618C228.718 44.8093 228.515 45.122 228.427 45.556H227.286C227.314 45.0847 227.444 44.688 227.678 44.366C227.916 44.0393 228.249 43.792 228.679 43.624C229.108 43.456 229.614 43.372 230.198 43.372C230.828 43.372 231.35 43.4607 231.766 43.638C232.186 43.8153 232.498 44.0767 232.704 44.422C232.914 44.7673 233.019 45.192 233.019 45.696V50.75H231.913L231.815 49.392C231.539 49.9567 231.185 50.3487 230.751 50.568C230.321 50.7827 229.848 50.89 229.33 50.89ZM229.715 49.959C229.962 49.959 230.205 49.9147 230.443 49.826C230.685 49.7373 230.905 49.6183 231.101 49.469C231.301 49.315 231.462 49.1447 231.584 48.958C231.705 48.7667 231.766 48.5707 231.766 48.37V47.131L230.695 47.152C230.139 47.1613 229.677 47.2173 229.309 47.32C228.94 47.4227 228.662 47.5837 228.476 47.803C228.289 48.0223 228.196 48.3093 228.196 48.664C228.196 49.07 228.338 49.3873 228.623 49.616C228.907 49.8447 229.271 49.959 229.715 49.959ZM235.073 50.75V43.512H236.326V50.75H235.073ZM235.038 41.979V40.635H236.361V41.979H235.038ZM241.15 50.785C240.65 50.785 240.263 50.7173 239.988 50.582C239.712 50.4467 239.519 50.246 239.407 49.98C239.299 49.714 239.246 49.3873 239.246 49V44.457H238.07V43.512H239.281L239.596 41.405H240.548V43.505H242.179V44.457H240.548V48.958C240.548 49.2147 240.573 49.4037 240.625 49.525C240.681 49.6417 240.772 49.7163 240.898 49.749C241.024 49.7817 241.201 49.798 241.43 49.798H242.221V50.666C242.132 50.6987 241.997 50.7267 241.815 50.75C241.637 50.7733 241.416 50.785 241.15 50.785ZM243.637 45.444V43.799H245.184V45.444H243.637ZM243.637 50.708V49.077H245.184V50.708H243.637ZM250.671 50.75V40.628H251.91L257.258 48.496V40.628H258.553V50.75H257.398L251.966 42.77V50.75H250.671ZM263.762 50.89C263.095 50.89 262.511 50.7477 262.012 50.463C261.517 50.1737 261.132 49.7513 260.857 49.196C260.582 48.6407 260.444 47.9617 260.444 47.159C260.444 46.403 260.572 45.7403 260.829 45.171C261.086 44.6017 261.461 44.1607 261.956 43.848C262.451 43.5307 263.055 43.372 263.769 43.372C264.436 43.372 265.015 43.519 265.505 43.813C265.995 44.1023 266.375 44.5293 266.646 45.094C266.921 45.6587 267.059 46.347 267.059 47.159C267.059 47.8963 266.933 48.545 266.681 49.105C266.429 49.665 266.058 50.1037 265.568 50.421C265.083 50.7337 264.481 50.89 263.762 50.89ZM263.769 49.868C264.198 49.868 264.562 49.7583 264.861 49.539C265.16 49.3197 265.386 49.0047 265.54 48.594C265.699 48.1833 265.778 47.6957 265.778 47.131C265.778 46.613 265.708 46.1487 265.568 45.738C265.433 45.3227 265.218 44.9937 264.924 44.751C264.63 44.5083 264.245 44.387 263.769 44.387C263.33 44.387 262.959 44.4967 262.656 44.716C262.353 44.9307 262.122 45.2433 261.963 45.654C261.809 46.0647 261.732 46.557 261.732 47.131C261.732 47.6397 261.8 48.1017 261.935 48.517C262.075 48.9323 262.294 49.2613 262.593 49.504C262.896 49.7467 263.288 49.868 263.769 49.868ZM268.78 50.75V43.512H270.033V44.562C270.15 44.3613 270.311 44.1723 270.516 43.995C270.726 43.8177 270.978 43.6753 271.272 43.568C271.571 43.4607 271.914 43.407 272.301 43.407C272.758 43.407 273.178 43.498 273.561 43.68C273.948 43.862 274.256 44.1467 274.485 44.534C274.718 44.9167 274.835 45.4113 274.835 46.018V50.75H273.54V46.144C273.54 45.5793 273.391 45.1617 273.092 44.891C272.798 44.6157 272.415 44.478 271.944 44.478C271.617 44.478 271.312 44.5317 271.027 44.639C270.742 44.7417 270.511 44.9003 270.334 45.115C270.157 45.325 270.068 45.591 270.068 45.913V50.75H268.78ZM279.919 50.89C279.247 50.89 278.654 50.743 278.141 50.449C277.628 50.155 277.226 49.7327 276.937 49.182C276.648 48.6313 276.503 47.971 276.503 47.201C276.503 46.4403 276.634 45.773 276.895 45.199C277.156 44.625 277.534 44.177 278.029 43.855C278.528 43.533 279.128 43.372 279.828 43.372C280.509 43.372 281.086 43.519 281.557 43.813C282.028 44.107 282.385 44.5223 282.628 45.059C282.875 45.591 282.999 46.2233 282.999 46.956V47.432H277.812C277.812 47.8893 277.887 48.3047 278.036 48.678C278.19 49.0467 278.421 49.3407 278.729 49.56C279.037 49.7793 279.427 49.889 279.898 49.889C280.36 49.889 280.757 49.7817 281.088 49.567C281.424 49.3523 281.639 49.042 281.732 48.636H282.95C282.866 49.126 282.67 49.539 282.362 49.875C282.059 50.211 281.692 50.4653 281.263 50.638C280.838 50.806 280.39 50.89 279.919 50.89ZM277.819 46.557H281.753C281.753 46.1417 281.683 45.7683 281.543 45.437C281.403 45.101 281.188 44.8373 280.899 44.646C280.614 44.45 280.255 44.352 279.821 44.352C279.368 44.352 278.993 44.4617 278.694 44.681C278.395 44.8957 278.174 45.1733 278.029 45.514C277.884 45.85 277.814 46.1977 277.819 46.557Z" fill="#3B3A48"/>
<rect x="203" y="1.25" width="134" height="66" rx="3.5" stroke="#D4D4D7"/>
<line x1="25" y1="191.75" x2="25" y2="194.75" stroke="#3B3A48"/>
<line x1="49" y1="191.75" x2="49" y2="194.75" stroke="#3B3A48"/>
<line x1="121" y1="191.75" x2="121" y2="194.75" stroke="#3B3A48"/>
<line x1="193" y1="191.75" x2="193" y2="194.75" stroke="#3B3A48"/>
<line x1="265" y1="191.75" x2="265" y2="194.75" stroke="#3B3A48"/>
<line x1="337" y1="191.75" x2="337" y2="194.75" stroke="#3B3A48"/>
<path d="M0.5 191.75L363.5 191.75" stroke="#3B3A48"/>
<line x1="49" y1="187.75" x2="49" y2="195.75" stroke="#046B99"/>
<line x1="289.5" y1="188" x2="289.5" y2="196" stroke="#046B99"/>
</svg>
