<svg width="364" height="230" viewBox="0 0 364 230" fill="none" xmlns="http://www.w3.org/2000/svg">
<path d="M0.776855 162.003H363.777" stroke="#EDEDEF"/>
<path d="M0.776855 104.003H363.777" stroke="#EDEDEF"/>
<path d="M0.776855 133.003H363.777" stroke="#EDEDEF"/>
<path d="M44.6373 210.135C44.0973 210.135 43.5933 210.031 43.1253 209.823C42.6573 209.615 42.2753 209.323 41.9793 208.947C41.6833 208.567 41.5173 208.123 41.4813 207.615H43.1493C43.2213 207.951 43.3813 208.225 43.6293 208.437C43.8773 208.645 44.1893 208.749 44.5653 208.749C44.9813 208.749 45.3453 208.651 45.6573 208.455C45.9733 208.259 46.2093 207.947 46.3653 207.519C46.5253 207.091 46.5813 206.531 46.5333 205.839C46.4213 206.051 46.2653 206.237 46.0653 206.397C45.8693 206.553 45.6393 206.675 45.3753 206.763C45.1113 206.847 44.8173 206.889 44.4933 206.889C43.9053 206.889 43.3833 206.779 42.9273 206.559C42.4753 206.335 42.1193 206.019 41.8593 205.611C41.6033 205.199 41.4753 204.711 41.4753 204.147C41.4753 203.579 41.6113 203.073 41.8833 202.629C42.1553 202.185 42.5353 201.837 43.0233 201.585C43.5113 201.333 44.0833 201.207 44.7393 201.207C45.4753 201.207 46.1093 201.383 46.6413 201.735C47.1773 202.083 47.5873 202.579 47.8713 203.223C48.1593 203.863 48.3033 204.617 48.3033 205.485C48.3033 206.521 48.1553 207.385 47.8593 208.077C47.5673 208.765 47.1473 209.281 46.5993 209.625C46.0513 209.965 45.3973 210.135 44.6373 210.135ZM44.7933 205.497C45.0373 205.497 45.2733 205.443 45.5013 205.335C45.7333 205.223 45.9233 205.083 46.0713 204.915C46.2193 204.747 46.2933 204.573 46.2933 204.393C46.2973 204.005 46.2353 203.673 46.1073 203.397C45.9833 203.117 45.8073 202.903 45.5793 202.755C45.3553 202.607 45.0933 202.533 44.7933 202.533C44.5173 202.533 44.2713 202.597 44.0553 202.725C43.8393 202.853 43.6693 203.033 43.5453 203.265C43.4213 203.497 43.3593 203.765 43.3593 204.069C43.3593 204.521 43.4913 204.873 43.7553 205.125C44.0193 205.373 44.3653 205.497 44.7933 205.497ZM51.4255 210.123C51.0335 210.123 50.6775 210.049 50.3575 209.901C50.0415 209.753 49.7915 209.539 49.6075 209.259C49.4235 208.975 49.3315 208.631 49.3315 208.227C49.3315 207.547 49.5855 207.031 50.0935 206.679C50.6015 206.323 51.4035 206.139 52.4995 206.127L53.2795 206.115V205.743C53.2795 205.459 53.1955 205.241 53.0275 205.089C52.8635 204.933 52.6055 204.857 52.2535 204.861C52.0015 204.865 51.7595 204.925 51.5275 205.041C51.2995 205.157 51.1415 205.359 51.0535 205.647H49.5955C49.6195 205.199 49.7495 204.831 49.9855 204.543C50.2255 204.251 50.5475 204.035 50.9515 203.895C51.3555 203.751 51.8175 203.679 52.3375 203.679C52.9695 203.679 53.4775 203.759 53.8615 203.919C54.2455 204.075 54.5235 204.301 54.6955 204.597C54.8715 204.889 54.9595 205.237 54.9595 205.641V210.003H53.4955L53.3515 208.935C53.1395 209.383 52.8735 209.693 52.5535 209.865C52.2375 210.037 51.8615 210.123 51.4255 210.123ZM52.0195 208.971C52.1755 208.971 52.3275 208.943 52.4755 208.887C52.6275 208.827 52.7635 208.749 52.8835 208.653C53.0035 208.553 53.0975 208.441 53.1655 208.317C53.2375 208.193 53.2755 208.065 53.2795 207.933V207.015L52.6495 207.027C52.3575 207.031 52.0855 207.067 51.8335 207.135C51.5815 207.199 51.3775 207.305 51.2215 207.453C51.0695 207.601 50.9935 207.801 50.9935 208.053C50.9935 208.341 51.0915 208.567 51.2875 208.731C51.4875 208.891 51.7315 208.971 52.0195 208.971Z" fill="#046B99"/>
<path d="M37.7142 227.123C36.8942 227.123 36.1842 226.945 35.5842 226.589C34.9882 226.229 34.5262 225.719 34.1982 225.059C33.8742 224.395 33.7122 223.603 33.7122 222.683C33.7122 221.759 33.8762 220.963 34.2042 220.295C34.5362 219.627 35.0022 219.113 35.6022 218.753C36.2022 218.389 36.9062 218.207 37.7142 218.207C38.5182 218.207 39.2182 218.387 39.8142 218.747C40.4102 219.107 40.8702 219.621 41.1942 220.289C41.5222 220.957 41.6862 221.755 41.6862 222.683C41.6862 223.599 41.5242 224.389 41.2002 225.053C40.8802 225.717 40.4222 226.229 39.8262 226.589C39.2302 226.945 38.5262 227.123 37.7142 227.123ZM37.7142 225.683C38.1382 225.683 38.5042 225.583 38.8122 225.383C39.1242 225.179 39.3642 224.859 39.5322 224.423C39.7002 223.983 39.7842 223.411 39.7842 222.707C39.7842 221.983 39.6982 221.397 39.5262 220.949C39.3582 220.501 39.1182 220.173 38.8062 219.965C38.4982 219.753 38.1342 219.647 37.7142 219.647C37.2942 219.647 36.9282 219.753 36.6162 219.965C36.3042 220.173 36.0622 220.503 35.8902 220.955C35.7182 221.403 35.6322 221.987 35.6322 222.707C35.6322 223.415 35.7182 223.987 35.8902 224.423C36.0622 224.859 36.3042 225.179 36.6162 225.383C36.9282 225.583 37.2942 225.683 37.7142 225.683ZM42.8511 228.935V220.799H44.6091L44.6151 221.693C44.7071 221.545 44.8191 221.411 44.9511 221.291C45.0871 221.167 45.2371 221.059 45.4011 220.967C45.5651 220.875 45.7431 220.805 45.9351 220.757C46.1271 220.705 46.3291 220.679 46.5411 220.679C47.0011 220.679 47.4111 220.793 47.7711 221.021C48.1311 221.245 48.4131 221.593 48.6171 222.065C48.8251 222.533 48.9291 223.129 48.9291 223.853C48.9291 224.605 48.8171 225.223 48.5931 225.707C48.3731 226.187 48.0691 226.543 47.6811 226.775C47.2931 227.007 46.8551 227.123 46.3671 227.123C46.1671 227.123 45.9791 227.095 45.8031 227.039C45.6271 226.987 45.4631 226.913 45.3111 226.817C45.1631 226.721 45.0291 226.611 44.9091 226.487C44.7931 226.359 44.6911 226.221 44.6031 226.073V228.935H42.8511ZM45.9471 225.839C46.3271 225.839 46.6451 225.681 46.9011 225.365C47.1611 225.049 47.2911 224.549 47.2911 223.865C47.2911 223.265 47.1671 222.797 46.9191 222.461C46.6751 222.121 46.3511 221.951 45.9471 221.951C45.4951 221.951 45.1571 222.135 44.9331 222.503C44.7131 222.867 44.6031 223.321 44.6031 223.865C44.6031 224.213 44.6511 224.537 44.7471 224.837C44.8471 225.137 44.9951 225.379 45.1911 225.563C45.3911 225.747 45.6431 225.839 45.9471 225.839ZM52.9901 227.123C52.3741 227.123 51.8321 226.995 51.3641 226.739C50.9001 226.479 50.5381 226.113 50.2781 225.641C50.0181 225.169 49.8881 224.613 49.8881 223.973C49.8881 223.353 50.0061 222.795 50.2421 222.299C50.4821 221.799 50.8261 221.405 51.2741 221.117C51.7221 220.825 52.2641 220.679 52.9001 220.679C53.5321 220.679 54.0621 220.813 54.4901 221.081C54.9181 221.345 55.2421 221.715 55.4621 222.191C55.6821 222.663 55.7921 223.209 55.7921 223.829V224.303H51.6221C51.6221 224.619 51.6741 224.895 51.7781 225.131C51.8821 225.363 52.0321 225.543 52.2281 225.671C52.4281 225.795 52.6681 225.857 52.9481 225.857C53.2481 225.857 53.5101 225.793 53.7341 225.665C53.9581 225.537 54.1161 225.327 54.2081 225.035H55.7861C55.7141 225.475 55.5381 225.851 55.2581 226.163C54.9781 226.475 54.6381 226.713 54.2381 226.877C53.8381 227.041 53.4221 227.123 52.9901 227.123ZM51.6221 223.259H54.1541C54.1541 223.011 54.1061 222.783 54.0101 222.575C53.9181 222.367 53.7781 222.203 53.5901 222.083C53.4061 221.963 53.1741 221.903 52.8941 221.903C52.6261 221.903 52.3961 221.969 52.2041 222.101C52.0161 222.229 51.8701 222.397 51.7661 222.605C51.6661 222.813 51.6181 223.031 51.6221 223.259ZM57.0542 227.003V220.799H58.7762V221.675C58.8722 221.523 58.9962 221.377 59.1482 221.237C59.3042 221.093 59.5002 220.975 59.7362 220.883C59.9722 220.791 60.2522 220.745 60.5762 220.745C60.9562 220.745 61.3102 220.819 61.6382 220.967C61.9702 221.115 62.2382 221.349 62.4422 221.669C62.6462 221.985 62.7482 222.399 62.7482 222.911V227.003H60.9962V223.127C60.9962 222.791 60.8962 222.539 60.6962 222.371C60.4962 222.203 60.2522 222.119 59.9642 222.119C59.7722 222.119 59.5862 222.153 59.4062 222.221C59.2302 222.289 59.0862 222.391 58.9742 222.527C58.8622 222.663 58.8062 222.831 58.8062 223.031V227.003H57.0542Z" fill="#046B99"/>
<path d="M297.472 227.123C296.664 227.123 295.966 226.935 295.378 226.559C294.79 226.183 294.336 225.655 294.016 224.975C293.7 224.295 293.542 223.501 293.542 222.593C293.542 221.681 293.7 220.899 294.016 220.247C294.332 219.591 294.784 219.087 295.372 218.735C295.96 218.383 296.66 218.207 297.472 218.207C298.124 218.207 298.704 218.339 299.212 218.603C299.724 218.863 300.136 219.219 300.448 219.671C300.764 220.123 300.95 220.633 301.006 221.201H299.17C299.114 220.901 299.012 220.635 298.864 220.403C298.716 220.167 298.522 219.983 298.282 219.851C298.042 219.715 297.754 219.647 297.418 219.647C297.014 219.647 296.666 219.745 296.374 219.941C296.082 220.137 295.858 220.453 295.702 220.889C295.546 221.325 295.468 221.901 295.468 222.617C295.468 223.697 295.64 224.479 295.984 224.963C296.332 225.443 296.81 225.683 297.418 225.683C297.754 225.683 298.042 225.607 298.282 225.455C298.522 225.299 298.716 225.095 298.864 224.843C299.012 224.587 299.114 224.307 299.17 224.003H301.006C300.954 224.415 300.854 224.809 300.706 225.185C300.558 225.557 300.348 225.889 300.076 226.181C299.804 226.473 299.454 226.703 299.026 226.871C298.598 227.039 298.08 227.123 297.472 227.123ZM304.31 227.111C303.854 227.111 303.492 227.057 303.224 226.949C302.956 226.841 302.758 226.699 302.63 226.523C302.502 226.343 302.42 226.145 302.384 225.929C302.348 225.709 302.33 225.487 302.33 225.263V218.087H304.046V225.047C304.046 225.275 304.094 225.461 304.19 225.605C304.29 225.745 304.476 225.831 304.748 225.863L305.042 225.881V226.961C304.922 227.001 304.8 227.035 304.676 227.063C304.552 227.095 304.43 227.111 304.31 227.111ZM308.622 227.123C308.014 227.123 307.484 226.993 307.032 226.733C306.584 226.473 306.236 226.105 305.988 225.629C305.744 225.153 305.622 224.589 305.622 223.937C305.622 223.285 305.744 222.715 305.988 222.227C306.236 221.739 306.584 221.359 307.032 221.087C307.484 220.815 308.016 220.679 308.628 220.679C309.24 220.679 309.77 220.813 310.218 221.081C310.666 221.345 311.012 221.721 311.256 222.209C311.5 222.697 311.622 223.273 311.622 223.937C311.622 224.561 311.502 225.113 311.262 225.593C311.026 226.069 310.684 226.443 310.236 226.715C309.792 226.987 309.254 227.123 308.622 227.123ZM308.628 225.821C308.936 225.821 309.184 225.731 309.372 225.551C309.56 225.371 309.696 225.135 309.78 224.843C309.864 224.547 309.906 224.225 309.906 223.877C309.906 223.549 309.868 223.239 309.792 222.947C309.716 222.655 309.584 222.419 309.396 222.239C309.208 222.059 308.952 221.969 308.628 221.969C308.32 221.969 308.07 222.055 307.878 222.227C307.69 222.395 307.552 222.625 307.464 222.917C307.376 223.205 307.332 223.525 307.332 223.877C307.332 224.201 307.372 224.513 307.452 224.813C307.532 225.109 307.666 225.351 307.854 225.539C308.042 225.727 308.3 225.821 308.628 225.821ZM315.29 227.123C314.858 227.123 314.442 227.053 314.042 226.913C313.646 226.769 313.308 226.545 313.028 226.241C312.752 225.933 312.578 225.535 312.506 225.047H314.018C314.074 225.267 314.17 225.441 314.306 225.569C314.446 225.697 314.604 225.789 314.78 225.845C314.956 225.897 315.124 225.923 315.284 225.923C315.62 225.923 315.89 225.871 316.094 225.767C316.302 225.659 316.406 225.495 316.406 225.275C316.406 225.107 316.344 224.973 316.22 224.873C316.1 224.773 315.9 224.697 315.62 224.645L314.528 224.417C313.98 224.301 313.538 224.105 313.202 223.829C312.87 223.549 312.702 223.153 312.698 222.641C312.694 222.269 312.79 221.935 312.986 221.639C313.186 221.343 313.48 221.109 313.868 220.937C314.26 220.765 314.738 220.679 315.302 220.679C316.066 220.679 316.676 220.847 317.132 221.183C317.592 221.519 317.826 221.993 317.834 222.605H316.37C316.326 222.365 316.206 222.181 316.01 222.053C315.818 221.921 315.574 221.855 315.278 221.855C314.978 221.855 314.73 221.909 314.534 222.017C314.338 222.125 314.24 222.289 314.24 222.509C314.24 222.673 314.32 222.803 314.48 222.899C314.64 222.991 314.888 223.071 315.224 223.139L316.232 223.367C316.58 223.451 316.862 223.567 317.078 223.715C317.298 223.859 317.468 224.017 317.588 224.189C317.708 224.361 317.79 224.535 317.834 224.711C317.882 224.883 317.906 225.039 317.906 225.179C317.906 225.591 317.796 225.943 317.576 226.235C317.356 226.523 317.05 226.743 316.658 226.895C316.266 227.047 315.81 227.123 315.29 227.123ZM321.973 227.123C321.357 227.123 320.815 226.995 320.347 226.739C319.883 226.479 319.521 226.113 319.261 225.641C319.001 225.169 318.871 224.613 318.871 223.973C318.871 223.353 318.989 222.795 319.225 222.299C319.465 221.799 319.809 221.405 320.257 221.117C320.705 220.825 321.247 220.679 321.883 220.679C322.515 220.679 323.045 220.813 323.473 221.081C323.901 221.345 324.225 221.715 324.445 222.191C324.665 222.663 324.775 223.209 324.775 223.829V224.303H320.605C320.605 224.619 320.657 224.895 320.761 225.131C320.865 225.363 321.015 225.543 321.211 225.671C321.411 225.795 321.651 225.857 321.931 225.857C322.231 225.857 322.493 225.793 322.717 225.665C322.941 225.537 323.099 225.327 323.191 225.035H324.769C324.697 225.475 324.521 225.851 324.241 226.163C323.961 226.475 323.621 226.713 323.221 226.877C322.821 227.041 322.405 227.123 321.973 227.123ZM320.605 223.259H323.137C323.137 223.011 323.089 222.783 322.993 222.575C322.901 222.367 322.761 222.203 322.573 222.083C322.389 221.963 322.157 221.903 321.877 221.903C321.609 221.903 321.379 221.969 321.187 222.101C320.999 222.229 320.853 222.397 320.749 222.605C320.649 222.813 320.601 223.031 320.605 223.259ZM328.383 227.123C327.551 227.123 326.903 226.837 326.439 226.265C325.975 225.689 325.743 224.889 325.743 223.865C325.743 223.217 325.837 222.655 326.025 222.179C326.213 221.703 326.491 221.335 326.859 221.075C327.227 220.811 327.677 220.679 328.209 220.679C328.433 220.679 328.641 220.705 328.833 220.757C329.029 220.805 329.207 220.873 329.367 220.961C329.527 221.049 329.667 221.151 329.787 221.267C329.907 221.383 330.005 221.507 330.081 221.639V218.087H331.839V227.003H330.567L330.369 225.731C330.309 225.903 330.229 226.071 330.129 226.235C330.033 226.399 329.907 226.549 329.751 226.685C329.595 226.817 329.403 226.923 329.175 227.003C328.951 227.083 328.687 227.123 328.383 227.123ZM328.767 225.863C329.207 225.863 329.535 225.709 329.751 225.401C329.971 225.093 330.081 224.573 330.081 223.841C330.077 223.417 330.027 223.065 329.931 222.785C329.835 222.505 329.691 222.297 329.499 222.161C329.311 222.021 329.071 221.951 328.779 221.951C328.399 221.951 328.083 222.097 327.831 222.389C327.579 222.677 327.453 223.161 327.453 223.841C327.453 224.533 327.571 225.043 327.807 225.371C328.043 225.699 328.363 225.863 328.767 225.863Z" fill="#046B99"/>
<path d="M309.127 210.129C308.431 210.129 307.821 210.027 307.297 209.823C306.773 209.615 306.365 209.321 306.073 208.941C305.781 208.561 305.635 208.113 305.635 207.597C305.635 207.265 305.717 206.951 305.881 206.655C306.045 206.355 306.253 206.103 306.505 205.899C306.757 205.691 307.017 205.559 307.285 205.503C306.929 205.335 306.627 205.095 306.379 204.783C306.131 204.471 306.007 204.093 306.007 203.649C306.007 203.121 306.143 202.677 306.415 202.317C306.691 201.953 307.065 201.677 307.537 201.489C308.009 201.301 308.539 201.207 309.127 201.207C309.723 201.207 310.255 201.301 310.723 201.489C311.195 201.677 311.567 201.953 311.839 202.317C312.111 202.677 312.247 203.121 312.247 203.649C312.247 204.093 312.125 204.471 311.881 204.783C311.637 205.095 311.337 205.335 310.981 205.503C311.245 205.559 311.503 205.691 311.755 205.899C312.011 206.103 312.221 206.355 312.385 206.655C312.549 206.951 312.631 207.265 312.631 207.597C312.631 208.113 312.485 208.561 312.193 208.941C311.905 209.321 311.497 209.615 310.969 209.823C310.445 210.027 309.831 210.129 309.127 210.129ZM309.127 208.809C309.639 208.809 310.039 208.695 310.327 208.467C310.619 208.235 310.765 207.929 310.765 207.549C310.765 207.293 310.699 207.069 310.567 206.877C310.435 206.681 310.247 206.527 310.003 206.415C309.759 206.303 309.467 206.247 309.127 206.247C308.795 206.247 308.507 206.303 308.263 206.415C308.019 206.527 307.831 206.681 307.699 206.877C307.567 207.069 307.501 207.293 307.501 207.549C307.501 207.929 307.647 208.235 307.939 208.467C308.231 208.695 308.627 208.809 309.127 208.809ZM309.127 204.825C309.527 204.825 309.855 204.719 310.111 204.507C310.371 204.291 310.501 203.993 310.501 203.613C310.501 203.237 310.371 202.939 310.111 202.719C309.851 202.499 309.523 202.389 309.127 202.389C308.735 202.389 308.409 202.499 308.149 202.719C307.889 202.939 307.759 203.237 307.759 203.613C307.759 203.993 307.889 204.291 308.149 204.507C308.409 204.719 308.735 204.825 309.127 204.825ZM313.908 211.935V203.799H315.666L315.672 204.693C315.764 204.545 315.876 204.411 316.008 204.291C316.144 204.167 316.294 204.059 316.458 203.967C316.622 203.875 316.8 203.805 316.992 203.757C317.184 203.705 317.386 203.679 317.598 203.679C318.058 203.679 318.468 203.793 318.828 204.021C319.188 204.245 319.47 204.593 319.674 205.065C319.882 205.533 319.986 206.129 319.986 206.853C319.986 207.605 319.874 208.223 319.65 208.707C319.43 209.187 319.126 209.543 318.738 209.775C318.35 210.007 317.912 210.123 317.424 210.123C317.224 210.123 317.036 210.095 316.86 210.039C316.684 209.987 316.52 209.913 316.368 209.817C316.22 209.721 316.086 209.611 315.966 209.487C315.85 209.359 315.748 209.221 315.66 209.073V211.935H313.908ZM317.004 208.839C317.384 208.839 317.702 208.681 317.958 208.365C318.218 208.049 318.348 207.549 318.348 206.865C318.348 206.265 318.224 205.797 317.976 205.461C317.732 205.121 317.408 204.951 317.004 204.951C316.552 204.951 316.214 205.135 315.99 205.503C315.77 205.867 315.66 206.321 315.66 206.865C315.66 207.213 315.708 207.537 315.804 207.837C315.904 208.137 316.052 208.379 316.248 208.563C316.448 208.747 316.7 208.839 317.004 208.839Z" fill="#046B99"/>
<path d="M114.917 210.003V203.097H113.243V202.371C113.763 202.371 114.167 202.333 114.455 202.257C114.743 202.181 114.947 202.065 115.067 201.909C115.191 201.753 115.259 201.559 115.271 201.327H116.063V210.003H114.917ZM118.316 210.003V209.325V208.971C118.316 208.527 118.398 208.143 118.562 207.819C118.73 207.495 118.95 207.213 119.222 206.973C119.498 206.729 119.798 206.511 120.122 206.319C120.45 206.127 120.776 205.943 121.1 205.767C121.428 205.587 121.728 205.401 122 205.209C122.272 205.013 122.49 204.793 122.654 204.549C122.822 204.301 122.906 204.009 122.906 203.673C122.906 203.233 122.75 202.875 122.438 202.599C122.13 202.323 121.712 202.185 121.184 202.185C120.616 202.185 120.16 202.345 119.816 202.665C119.472 202.985 119.278 203.411 119.234 203.943H118.13C118.142 203.443 118.266 202.987 118.502 202.575C118.738 202.159 119.084 201.827 119.54 201.579C119.996 201.331 120.558 201.207 121.226 201.207C121.806 201.207 122.31 201.311 122.738 201.519C123.166 201.723 123.496 202.011 123.728 202.383C123.964 202.751 124.082 203.181 124.082 203.673C124.082 204.121 124 204.505 123.836 204.825C123.672 205.145 123.454 205.423 123.182 205.659C122.914 205.891 122.62 206.099 122.3 206.283C121.98 206.467 121.658 206.645 121.334 206.817C121.01 206.985 120.714 207.163 120.446 207.351C120.178 207.535 119.962 207.747 119.798 207.987C119.634 208.227 119.552 208.513 119.552 208.845V209.019H124.13V210.003H118.316ZM125.638 211.935V203.799H126.742L126.754 204.879C126.826 204.751 126.918 204.617 127.03 204.477C127.146 204.337 127.286 204.207 127.45 204.087C127.618 203.967 127.812 203.869 128.032 203.793C128.256 203.717 128.51 203.679 128.794 203.679C129.29 203.679 129.726 203.793 130.102 204.021C130.482 204.245 130.778 204.589 130.99 205.053C131.202 205.517 131.308 206.105 131.308 206.817C131.308 207.529 131.204 208.131 130.996 208.623C130.792 209.111 130.496 209.483 130.108 209.739C129.72 209.995 129.252 210.123 128.704 210.123C128.428 210.123 128.182 210.083 127.966 210.003C127.754 209.927 127.568 209.827 127.408 209.703C127.252 209.575 127.12 209.439 127.012 209.295C126.908 209.151 126.822 209.013 126.754 208.881V211.935H125.638ZM128.494 209.259C129.006 209.259 129.424 209.065 129.748 208.677C130.072 208.285 130.234 207.677 130.234 206.853C130.234 206.145 130.086 205.583 129.79 205.167C129.494 204.751 129.062 204.543 128.494 204.543C127.918 204.543 127.482 204.757 127.186 205.185C126.89 205.609 126.742 206.165 126.742 206.853C126.742 207.297 126.808 207.701 126.94 208.065C127.072 208.429 127.268 208.719 127.528 208.935C127.788 209.151 128.11 209.259 128.494 209.259Z" fill="#3B3A48"/>
<path d="M189.065 210.135C188.469 210.131 187.943 210.021 187.487 209.805C187.035 209.589 186.679 209.287 186.419 208.899C186.159 208.507 186.019 208.043 185.999 207.507H187.109C187.193 208.047 187.413 208.461 187.769 208.749C188.125 209.037 188.571 209.181 189.107 209.181C189.531 209.181 189.901 209.115 190.217 208.983C190.533 208.847 190.777 208.661 190.949 208.425C191.121 208.189 191.207 207.913 191.207 207.597C191.207 207.249 191.111 206.955 190.919 206.715C190.727 206.475 190.465 206.293 190.133 206.169C189.801 206.041 189.431 205.975 189.023 205.971L188.243 205.953V205.011L188.987 204.993C189.367 204.985 189.707 204.913 190.007 204.777C190.307 204.637 190.543 204.455 190.715 204.231C190.891 204.003 190.979 203.753 190.979 203.481C190.979 203.241 190.905 203.019 190.757 202.815C190.609 202.607 190.395 202.441 190.115 202.317C189.839 202.193 189.503 202.131 189.107 202.131C188.795 202.131 188.497 202.193 188.213 202.317C187.929 202.437 187.695 202.623 187.511 202.875C187.327 203.127 187.229 203.453 187.217 203.853H186.113C186.113 203.293 186.249 202.817 186.521 202.425C186.793 202.029 187.155 201.727 187.607 201.519C188.063 201.311 188.565 201.207 189.113 201.207C189.713 201.207 190.243 201.295 190.703 201.471C191.163 201.643 191.523 201.895 191.783 202.227C192.043 202.559 192.173 202.965 192.173 203.445C192.173 203.873 192.037 204.261 191.765 204.609C191.493 204.953 191.077 205.223 190.517 205.419C190.897 205.523 191.229 205.675 191.513 205.875C191.797 206.075 192.017 206.321 192.173 206.613C192.329 206.901 192.407 207.233 192.407 207.609C192.407 208.005 192.323 208.361 192.155 208.677C191.991 208.989 191.759 209.255 191.459 209.475C191.159 209.691 190.805 209.857 190.397 209.973C189.989 210.085 189.545 210.139 189.065 210.135ZM193.9 211.935V203.799H195.004L195.016 204.879C195.088 204.751 195.18 204.617 195.292 204.477C195.408 204.337 195.548 204.207 195.712 204.087C195.88 203.967 196.074 203.869 196.294 203.793C196.518 203.717 196.772 203.679 197.056 203.679C197.552 203.679 197.988 203.793 198.364 204.021C198.744 204.245 199.04 204.589 199.252 205.053C199.464 205.517 199.57 206.105 199.57 206.817C199.57 207.529 199.466 208.131 199.258 208.623C199.054 209.111 198.758 209.483 198.37 209.739C197.982 209.995 197.514 210.123 196.966 210.123C196.69 210.123 196.444 210.083 196.228 210.003C196.016 209.927 195.83 209.827 195.67 209.703C195.514 209.575 195.382 209.439 195.274 209.295C195.17 209.151 195.084 209.013 195.016 208.881V211.935H193.9ZM196.756 209.259C197.268 209.259 197.686 209.065 198.01 208.677C198.334 208.285 198.496 207.677 198.496 206.853C198.496 206.145 198.348 205.583 198.052 205.167C197.756 204.751 197.324 204.543 196.756 204.543C196.18 204.543 195.744 204.757 195.448 205.185C195.152 205.609 195.004 206.165 195.004 206.853C195.004 207.297 195.07 207.701 195.202 208.065C195.334 208.429 195.53 208.719 195.79 208.935C196.05 209.151 196.372 209.259 196.756 209.259Z" fill="#3B3A48"/>
<path d="M260.846 210.135C260.174 210.135 259.59 209.961 259.094 209.613C258.602 209.265 258.22 208.769 257.948 208.125C257.68 207.477 257.546 206.701 257.546 205.797C257.546 204.869 257.676 204.061 257.936 203.373C258.2 202.685 258.584 202.153 259.088 201.777C259.592 201.397 260.21 201.207 260.942 201.207C261.422 201.207 261.864 201.297 262.268 201.477C262.676 201.657 263.014 201.915 263.282 202.251C263.55 202.587 263.716 202.993 263.78 203.469H262.736C262.62 203.057 262.41 202.731 262.106 202.491C261.802 202.251 261.42 202.131 260.96 202.131C260.448 202.131 260.02 202.277 259.676 202.569C259.336 202.857 259.088 203.281 258.932 203.841C258.776 204.397 258.722 205.081 258.77 205.893C258.878 205.601 259.042 205.345 259.262 205.125C259.486 204.901 259.746 204.729 260.042 204.609C260.338 204.485 260.658 204.423 261.002 204.423C261.574 204.423 262.074 204.535 262.502 204.759C262.93 204.979 263.264 205.295 263.504 205.707C263.744 206.115 263.864 206.603 263.864 207.171C263.864 207.751 263.74 208.265 263.492 208.713C263.248 209.157 262.9 209.505 262.448 209.757C261.996 210.009 261.462 210.135 260.846 210.135ZM260.834 209.217C261.19 209.217 261.506 209.133 261.782 208.965C262.058 208.797 262.274 208.563 262.43 208.263C262.59 207.963 262.67 207.617 262.67 207.225C262.67 206.829 262.598 206.489 262.454 206.205C262.314 205.921 262.106 205.703 261.83 205.551C261.554 205.399 261.218 205.323 260.822 205.323C260.506 205.323 260.202 205.399 259.91 205.551C259.622 205.699 259.386 205.895 259.202 206.139C259.022 206.383 258.932 206.653 258.932 206.949C258.928 207.389 259.004 207.781 259.16 208.125C259.32 208.465 259.544 208.733 259.832 208.929C260.12 209.121 260.454 209.217 260.834 209.217ZM265.353 211.935V203.799H266.457L266.469 204.879C266.541 204.751 266.633 204.617 266.745 204.477C266.861 204.337 267.001 204.207 267.165 204.087C267.333 203.967 267.527 203.869 267.747 203.793C267.971 203.717 268.225 203.679 268.509 203.679C269.005 203.679 269.441 203.793 269.817 204.021C270.197 204.245 270.493 204.589 270.705 205.053C270.917 205.517 271.023 206.105 271.023 206.817C271.023 207.529 270.919 208.131 270.711 208.623C270.507 209.111 270.211 209.483 269.823 209.739C269.435 209.995 268.967 210.123 268.419 210.123C268.143 210.123 267.897 210.083 267.681 210.003C267.469 209.927 267.283 209.827 267.123 209.703C266.967 209.575 266.835 209.439 266.727 209.295C266.623 209.151 266.537 209.013 266.469 208.881V211.935H265.353ZM268.209 209.259C268.721 209.259 269.139 209.065 269.463 208.677C269.787 208.285 269.949 207.677 269.949 206.853C269.949 206.145 269.801 205.583 269.505 205.167C269.209 204.751 268.777 204.543 268.209 204.543C267.633 204.543 267.197 204.757 266.901 205.185C266.605 205.609 266.457 206.165 266.457 206.853C266.457 207.297 266.523 207.701 266.655 208.065C266.787 208.429 266.983 208.719 267.243 208.935C267.503 209.151 267.825 209.259 268.209 209.259Z" fill="#3B3A48"/>
<rect x="65.7769" y="147.003" width="14" height="39" rx="4" fill="#82B5CC"/>
<rect x="89.7769" y="128.003" width="14" height="58" rx="4" fill="#82B5CC"/>
<rect x="41.7769" y="162.003" width="14" height="24" rx="4" fill="#82B5CC"/>
<rect x="113.777" y="115.003" width="14" height="71" rx="4" fill="#82B5CC"/>
<rect x="161.777" y="115.003" width="14" height="71" rx="4" fill="#82B5CC"/>
<rect x="137.777" y="115.003" width="14" height="71" rx="4" fill="#82B5CC"/>
<rect x="185.777" y="123.003" width="14" height="63" rx="4" fill="#82B5CC"/>
<rect x="209.777" y="142.003" width="14" height="44" rx="4" fill="#82B5CC"/>
<rect x="233.777" y="157.003" width="14" height="30" rx="4" fill="#D4D4D7"/>
<rect x="257.777" y="157.003" width="14" height="30" rx="4" fill="#D4D4D7"/>
<path d="M121.277 72.0034L121.277 110.003" stroke="#D4D4D7"/>
<path d="M240.777 72.0034L240.777 152.003" stroke="#D4D4D7"/>
<path d="M25.1849 26.0034V18.4224H23.3789V17.2674C23.9575 17.2674 24.4242 17.2138 24.7789 17.1064C25.1382 16.9944 25.4065 16.8358 25.5839 16.6304C25.7612 16.4204 25.8662 16.1708 25.8989 15.8814H27.2569V26.0034H25.1849ZM29.5561 26.0034V24.9954V24.4774C29.5561 23.9641 29.6518 23.5208 29.8431 23.1474C30.0345 22.7694 30.2865 22.4428 30.5991 22.1674C30.9165 21.8874 31.2618 21.6424 31.6351 21.4324C32.0131 21.2224 32.3911 21.0241 32.7691 20.8374C33.1471 20.6508 33.4925 20.4641 33.8051 20.2774C34.1225 20.0861 34.3768 19.8738 34.5681 19.6404C34.7595 19.4071 34.8551 19.1318 34.8551 18.8144C34.8551 18.4084 34.7128 18.0771 34.4281 17.8204C34.1481 17.5638 33.7631 17.4354 33.2731 17.4354C32.7645 17.4354 32.3328 17.5824 31.9781 17.8764C31.6235 18.1704 31.4041 18.6138 31.3201 19.2064H29.3671C29.3765 18.5624 29.5258 17.9791 29.8151 17.4564C30.1091 16.9291 30.5478 16.5114 31.1311 16.2034C31.7145 15.8954 32.4471 15.7414 33.3291 15.7414C34.0851 15.7414 34.7361 15.8698 35.2821 16.1264C35.8328 16.3831 36.2575 16.7401 36.5561 17.1974C36.8548 17.6548 37.0041 18.1891 37.0041 18.8004C37.0041 19.3091 36.9108 19.7478 36.7241 20.1164C36.5375 20.4851 36.2901 20.8001 35.9821 21.0614C35.6741 21.3228 35.3358 21.5514 34.9671 21.7474C34.5985 21.9434 34.2298 22.1254 33.8611 22.2934C33.4971 22.4614 33.1611 22.6341 32.8531 22.8114C32.5451 22.9841 32.2978 23.1801 32.1111 23.3994C31.9245 23.6188 31.8311 23.8824 31.8311 24.1904V24.2814H36.9901V26.0034H29.5561ZM38.5269 28.2574V18.7654H40.5779L40.5849 19.8084C40.6922 19.6358 40.8229 19.4794 40.9769 19.3394C41.1355 19.1948 41.3105 19.0688 41.5019 18.9614C41.6932 18.8541 41.9009 18.7724 42.1249 18.7164C42.3489 18.6558 42.5845 18.6254 42.8319 18.6254C43.3685 18.6254 43.8469 18.7584 44.2669 19.0244C44.6869 19.2858 45.0159 19.6918 45.2539 20.2424C45.4965 20.7884 45.6179 21.4838 45.6179 22.3284C45.6179 23.2058 45.4872 23.9268 45.2259 24.4914C44.9692 25.0514 44.6145 25.4668 44.1619 25.7374C43.7092 26.0081 43.1982 26.1434 42.6289 26.1434C42.3955 26.1434 42.1762 26.1108 41.9709 26.0454C41.7655 25.9848 41.5742 25.8984 41.3969 25.7864C41.2242 25.6744 41.0679 25.5461 40.9279 25.4014C40.7925 25.2521 40.6735 25.0911 40.5709 24.9184V28.2574H38.5269ZM42.1389 24.6454C42.5822 24.6454 42.9532 24.4611 43.2519 24.0924C43.5552 23.7238 43.7069 23.1404 43.7069 22.3424C43.7069 21.6424 43.5622 21.0964 43.2729 20.7044C42.9882 20.3078 42.6102 20.1094 42.1389 20.1094C41.6115 20.1094 41.2172 20.3241 40.9559 20.7534C40.6992 21.1781 40.5709 21.7078 40.5709 22.3424C40.5709 22.7484 40.6269 23.1264 40.7389 23.4764C40.8555 23.8264 41.0282 24.1088 41.2569 24.3234C41.4902 24.5381 41.7842 24.6454 42.1389 24.6454ZM47.0308 26.0034V18.7654H49.0328V19.7874C49.2521 19.4701 49.5461 19.1971 49.9148 18.9684C50.2881 18.7398 50.7571 18.6254 51.3218 18.6254C51.5691 18.6254 51.8211 18.6698 52.0778 18.7584C52.3344 18.8471 52.5748 18.9778 52.7988 19.1504C53.0274 19.3184 53.2118 19.5308 53.3518 19.7874C53.5851 19.4561 53.8908 19.1808 54.2688 18.9614C54.6514 18.7374 55.0761 18.6254 55.5428 18.6254C55.8134 18.6254 56.0864 18.6698 56.3618 18.7584C56.6418 18.8471 56.8984 18.9918 57.1318 19.1924C57.3651 19.3931 57.5518 19.6614 57.6918 19.9974C57.8364 20.3288 57.9088 20.7394 57.9088 21.2294V26.0034H55.8648V21.4814C55.8648 21.1921 55.8064 20.9611 55.6898 20.7884C55.5778 20.6111 55.4331 20.4851 55.2558 20.4104C55.0831 20.3311 54.8988 20.2914 54.7028 20.2914C54.5208 20.2914 54.3364 20.3288 54.1498 20.4034C53.9631 20.4734 53.8044 20.5878 53.6738 20.7464C53.5431 20.9051 53.4778 21.1128 53.4778 21.3694V26.0034H51.4408V21.2994C51.4408 21.0801 51.3824 20.8958 51.2658 20.7464C51.1491 20.5971 51.0021 20.4851 50.8248 20.4104C50.6521 20.3311 50.4748 20.2914 50.2928 20.2914C50.1061 20.2914 49.9194 20.3311 49.7328 20.4104C49.5461 20.4851 49.3898 20.6041 49.2638 20.7674C49.1378 20.9261 49.0748 21.1268 49.0748 21.3694V26.0034H47.0308ZM59.4629 20.6974V19.0524H61.0099V20.6974H59.4629ZM59.4629 25.9614V24.3304H61.0099V25.9614H59.4629Z" fill="#046B99"/>
<path d="M66.4967 26.0034V15.8814H69.7517C70.9837 15.8814 71.9147 16.1078 72.5447 16.5604C73.1793 17.0131 73.4967 17.6664 73.4967 18.5204C73.4967 19.0571 73.3567 19.5168 73.0767 19.8994C72.8013 20.2821 72.316 20.5971 71.6207 20.8444C72.0173 20.9284 72.351 21.0498 72.6217 21.2084C72.897 21.3671 73.1163 21.5538 73.2797 21.7684C73.4477 21.9784 73.5667 22.2118 73.6367 22.4684C73.7113 22.7251 73.7487 22.9958 73.7487 23.2804C73.7487 24.1951 73.422 24.8788 72.7687 25.3314C72.12 25.7794 71.1493 26.0034 69.8567 26.0034H66.4967ZM67.7917 24.9254H69.8427C70.6873 24.9254 71.329 24.7878 71.7677 24.5124C72.211 24.2324 72.4327 23.8031 72.4327 23.2244C72.4327 22.7998 72.323 22.4568 72.1037 22.1954C71.889 21.9294 71.5973 21.7358 71.2287 21.6144C70.86 21.4931 70.4493 21.4324 69.9967 21.4324H67.7917V24.9254ZM67.7917 20.3334H69.9967C70.2627 20.3334 70.5263 20.3078 70.7877 20.2564C71.049 20.2051 71.2893 20.1164 71.5087 19.9904C71.728 19.8644 71.9053 19.6964 72.0407 19.4864C72.176 19.2718 72.2437 19.0034 72.2437 18.6814C72.2437 18.0934 72.0173 17.6594 71.5647 17.3794C71.1167 17.0948 70.5333 16.9524 69.8147 16.9524H67.7917V20.3334ZM78.2832 26.1434C77.9052 26.1388 77.5482 26.0851 77.2122 25.9824C76.8809 25.8751 76.5869 25.7188 76.3302 25.5134C76.0736 25.3081 75.8706 25.0538 75.7212 24.7504C75.5766 24.4424 75.5042 24.0854 75.5042 23.6794V18.7654H76.7992V23.5464C76.7992 24.0178 76.9439 24.4004 77.2332 24.6944C77.5272 24.9884 77.9682 25.1354 78.5562 25.1354C79.0882 25.1354 79.5152 24.9978 79.8372 24.7224C80.1639 24.4424 80.3272 24.0271 80.3272 23.4764V18.7654H81.6152V26.0034H80.5862L80.4532 24.6174C80.3646 24.9814 80.2129 25.2754 79.9982 25.4994C79.7882 25.7234 79.5339 25.8891 79.2352 25.9964C78.9412 26.0991 78.6239 26.1481 78.2832 26.1434ZM86.3483 26.1434C85.8443 26.1434 85.3753 26.0664 84.9413 25.9124C84.512 25.7538 84.155 25.5088 83.8703 25.1774C83.5857 24.8414 83.4083 24.4144 83.3383 23.8964H84.5143C84.575 24.1811 84.6917 24.4191 84.8643 24.6104C85.037 24.7971 85.2493 24.9394 85.5013 25.0374C85.758 25.1308 86.038 25.1774 86.3413 25.1774C86.8313 25.1774 87.2257 25.0864 87.5243 24.9044C87.823 24.7224 87.9723 24.4424 87.9723 24.0644C87.9723 23.7984 87.893 23.5861 87.7343 23.4274C87.5803 23.2641 87.3377 23.1451 87.0063 23.0704L85.5083 22.6994C84.925 22.5594 84.4583 22.3401 84.1083 22.0414C83.763 21.7428 83.588 21.3251 83.5833 20.7884C83.5833 20.3638 83.686 19.9904 83.8913 19.6684C84.0967 19.3464 84.4023 19.0921 84.8083 18.9054C85.219 18.7188 85.73 18.6254 86.3413 18.6254C87.13 18.6254 87.7647 18.8028 88.2453 19.1574C88.726 19.5074 88.978 20.0231 89.0013 20.7044H87.8533C87.8067 20.3591 87.6527 20.0861 87.3913 19.8854C87.13 19.6801 86.7753 19.5774 86.3273 19.5774C85.87 19.5774 85.4943 19.6708 85.2003 19.8574C84.911 20.0394 84.7663 20.3241 84.7663 20.7114C84.7663 20.9681 84.869 21.1711 85.0743 21.3204C85.2843 21.4651 85.5877 21.5864 85.9843 21.6844L87.4403 22.0484C87.7717 22.1371 88.047 22.2538 88.2663 22.3984C88.4857 22.5431 88.6583 22.7041 88.7843 22.8814C88.9103 23.0588 88.999 23.2454 89.0503 23.4414C89.1063 23.6328 89.1343 23.8171 89.1343 23.9944C89.1343 24.4378 89.0247 24.8204 88.8053 25.1424C88.586 25.4598 88.2687 25.7071 87.8533 25.8844C87.438 26.0571 86.9363 26.1434 86.3483 26.1434ZM91.52 28.3134C91.0954 28.3134 90.8037 28.2831 90.645 28.2224C90.4864 28.1618 90.407 28.1314 90.407 28.1314V27.2914L91.149 27.3054C91.415 27.3148 91.6367 27.2961 91.814 27.2494C91.9914 27.2028 92.1337 27.1398 92.241 27.0604C92.3484 26.9811 92.43 26.8924 92.486 26.7944C92.5467 26.6964 92.5957 26.6031 92.633 26.5144L92.885 25.8284L90.057 18.7654H91.366L93.501 24.3514L95.622 18.7654H96.889L93.844 26.5494C93.6527 27.0068 93.4404 27.3638 93.207 27.6204C92.9784 27.8771 92.7217 28.0568 92.437 28.1594C92.157 28.2621 91.8514 28.3134 91.52 28.3134ZM26.0179 50.0034L23.0989 39.8814H24.4079L26.6479 47.9384L28.9299 39.8814H29.9449L32.2199 47.9384L34.5019 39.8814H35.8039L32.8499 50.0034H31.6529L29.4339 42.1564L27.1799 50.0034H26.0179ZM38.6064 50.1434C38.135 50.1434 37.7197 50.0618 37.3604 49.8984C37.0057 49.7304 36.7257 49.4901 36.5204 49.1774C36.3197 48.8648 36.2194 48.4868 36.2194 48.0434C36.2194 47.2408 36.4994 46.6434 37.0594 46.2514C37.6194 45.8594 38.5177 45.6494 39.7544 45.6214L41.0424 45.5864V45.0194C41.0424 44.5761 40.9094 44.2261 40.6434 43.9694C40.3774 43.7081 39.9667 43.5774 39.4114 43.5774C38.996 43.5821 38.6297 43.6801 38.3124 43.8714C37.995 44.0628 37.792 44.3754 37.7034 44.8094H36.5624C36.5904 44.3381 36.721 43.9414 36.9544 43.6194C37.1924 43.2928 37.526 43.0454 37.9554 42.8774C38.3847 42.7094 38.891 42.6254 39.4744 42.6254C40.1044 42.6254 40.627 42.7141 41.0424 42.8914C41.4624 43.0688 41.775 43.3301 41.9804 43.6754C42.1904 44.0208 42.2954 44.4454 42.2954 44.9494V50.0034H41.1894L41.0914 48.6454C40.816 49.2101 40.4614 49.6021 40.0274 49.8214C39.598 50.0361 39.1244 50.1434 38.6064 50.1434ZM38.9914 49.2124C39.2387 49.2124 39.4814 49.1681 39.7194 49.0794C39.962 48.9908 40.1814 48.8718 40.3774 48.7224C40.578 48.5684 40.739 48.3981 40.8604 48.2114C40.9817 48.0201 41.0424 47.8241 41.0424 47.6234V46.3844L39.9714 46.4054C39.416 46.4148 38.954 46.4708 38.5854 46.5734C38.2167 46.6761 37.939 46.8371 37.7524 47.0564C37.5657 47.2758 37.4724 47.5628 37.4724 47.9174C37.4724 48.3234 37.6147 48.6408 37.8994 48.8694C38.184 49.0981 38.548 49.2124 38.9914 49.2124ZM44.3497 50.0034V42.7654H45.6027V50.0034H44.3497ZM44.3147 41.2324V39.8884H45.6377V41.2324H44.3147ZM50.4266 50.0384C49.9273 50.0384 49.54 49.9708 49.2646 49.8354C48.9893 49.7001 48.7956 49.4994 48.6836 49.2334C48.5763 48.9674 48.5226 48.6408 48.5226 48.2534V43.7104H47.3466V42.7654H48.5576L48.8726 40.6584H49.8246V42.7584H51.4556V43.7104H49.8246V48.2114C49.8246 48.4681 49.8503 48.6571 49.9016 48.7784C49.9576 48.8951 50.0486 48.9698 50.1746 49.0024C50.3006 49.0351 50.478 49.0514 50.7066 49.0514H51.4976V49.9194C51.409 49.9521 51.2736 49.9801 51.0916 50.0034C50.9143 50.0268 50.6926 50.0384 50.4266 50.0384ZM52.914 44.6974V43.0524H54.461V44.6974H52.914ZM52.914 49.9614V48.3304H54.461V49.9614H52.914ZM63.6438 50.1434C62.7665 50.1434 62.0548 49.9988 61.5088 49.7094C60.9675 49.4201 60.5708 48.9954 60.3188 48.4354C60.0715 47.8754 59.9478 47.1871 59.9478 46.3704V39.8814H61.2918V46.5664C61.2918 47.3831 61.4948 47.9944 61.9008 48.4004C62.3068 48.8064 62.8878 49.0094 63.6438 49.0094C64.1525 49.0094 64.5842 48.9208 64.9388 48.7434C65.2982 48.5661 65.5712 48.2978 65.7578 47.9384C65.9492 47.5744 66.0448 47.1171 66.0448 46.5664V39.8814H67.3468V46.5034C67.3468 47.2828 67.2185 47.9431 66.9618 48.4844C66.7052 49.0258 66.3038 49.4388 65.7578 49.7234C65.2165 50.0034 64.5118 50.1434 63.6438 50.1434ZM69.4846 52.2574V42.7654H70.7726L70.7866 44.0254C70.8706 43.8761 70.9779 43.7198 71.1086 43.5564C71.2439 43.3931 71.4072 43.2414 71.5986 43.1014C71.7946 42.9614 72.0209 42.8471 72.2776 42.7584C72.5389 42.6698 72.8352 42.6254 73.1666 42.6254C73.7452 42.6254 74.2539 42.7584 74.6926 43.0244C75.1359 43.2858 75.4812 43.6871 75.7286 44.2284C75.9759 44.7698 76.0996 45.4558 76.0996 46.2864C76.0996 47.1171 75.9782 47.8194 75.7356 48.3934C75.4976 48.9628 75.1522 49.3968 74.6996 49.6954C74.2469 49.9941 73.7009 50.1434 73.0616 50.1434C72.7396 50.1434 72.4526 50.0968 72.2006 50.0034C71.9532 49.9148 71.7362 49.7981 71.5496 49.6534C71.3676 49.5041 71.2136 49.3454 71.0876 49.1774C70.9662 49.0094 70.8659 48.8484 70.7866 48.6944V52.2574H69.4846ZM72.8166 49.1354C73.4139 49.1354 73.9016 48.9091 74.2796 48.4564C74.6576 47.9991 74.8466 47.2898 74.8466 46.3284C74.8466 45.5024 74.6739 44.8468 74.3286 44.3614C73.9832 43.8761 73.4792 43.6334 72.8166 43.6334C72.1446 43.6334 71.6359 43.8831 71.2906 44.3824C70.9452 44.8771 70.7726 45.5258 70.7726 46.3284C70.7726 46.8464 70.8496 47.3178 71.0036 47.7424C71.1576 48.1671 71.3862 48.5054 71.6896 48.7574C71.9929 49.0094 72.3686 49.1354 72.8166 49.1354ZM83.786 50.0384C83.2867 50.0384 82.8993 49.9708 82.624 49.8354C82.3487 49.7001 82.155 49.4994 82.043 49.2334C81.9357 48.9674 81.882 48.6408 81.882 48.2534V43.7104H80.706V42.7654H81.917L82.232 40.6584H83.184V42.7584H84.815V43.7104H83.184V48.2114C83.184 48.4681 83.2097 48.6571 83.261 48.7784C83.317 48.8951 83.408 48.9698 83.534 49.0024C83.66 49.0351 83.8373 49.0514 84.066 49.0514H84.857V49.9194C84.7683 49.9521 84.633 49.9801 84.451 50.0034C84.2737 50.0268 84.052 50.0384 83.786 50.0384ZM89.281 50.1434C88.6137 50.1434 88.0303 50.0011 87.531 49.7164C87.0363 49.4271 86.6513 49.0048 86.376 48.4494C86.1007 47.8941 85.963 47.2151 85.963 46.4124C85.963 45.6564 86.0913 44.9938 86.348 44.4244C86.6047 43.8551 86.9803 43.4141 87.475 43.1014C87.9697 42.7841 88.574 42.6254 89.288 42.6254C89.9553 42.6254 90.534 42.7724 91.024 43.0664C91.514 43.3558 91.8943 43.7828 92.165 44.3474C92.4403 44.9121 92.578 45.6004 92.578 46.4124C92.578 47.1498 92.452 47.7984 92.2 48.3584C91.948 48.9184 91.577 49.3571 91.087 49.6744C90.6017 49.9871 89.9997 50.1434 89.281 50.1434ZM89.288 49.1214C89.7173 49.1214 90.0813 49.0118 90.38 48.7924C90.6787 48.5731 90.905 48.2581 91.059 47.8474C91.2177 47.4368 91.297 46.9491 91.297 46.3844C91.297 45.8664 91.227 45.4021 91.087 44.9914C90.9517 44.5761 90.737 44.2471 90.443 44.0044C90.149 43.7618 89.764 43.6404 89.288 43.6404C88.8493 43.6404 88.4783 43.7501 88.175 43.9694C87.8717 44.1841 87.6407 44.4968 87.482 44.9074C87.328 45.3181 87.251 45.8104 87.251 46.3844C87.251 46.8931 87.3187 47.3551 87.454 47.7704C87.594 48.1858 87.8133 48.5148 88.112 48.7574C88.4153 49.0001 88.8073 49.1214 89.288 49.1214ZM99.1406 50.0034V41.9464H97.1876V41.0994C97.7943 41.0994 98.2656 41.0551 98.6016 40.9664C98.9376 40.8778 99.1756 40.7424 99.3156 40.5604C99.4603 40.3784 99.5396 40.1521 99.5536 39.8814H100.478V50.0034H99.1406ZM106.713 50.0034V39.6014H107.973V43.8294C108.094 43.6288 108.258 43.4421 108.463 43.2694C108.668 43.0921 108.918 42.9498 109.212 42.8424C109.506 42.7304 109.847 42.6744 110.234 42.6744C110.705 42.6744 111.132 42.7631 111.515 42.9404C111.898 43.1131 112.201 43.3604 112.425 43.6824C112.649 44.0044 112.761 44.3871 112.761 44.8304V50.0034H111.466V45.0894C111.466 44.6554 111.317 44.3218 111.018 44.0884C110.724 43.8504 110.339 43.7314 109.863 43.7314C109.541 43.7314 109.238 43.7851 108.953 43.8924C108.668 43.9951 108.437 44.1538 108.26 44.3684C108.087 44.5784 108.001 44.8468 108.001 45.1734V50.0034H106.713ZM117.677 50.1434C117.01 50.1434 116.427 50.0011 115.927 49.7164C115.433 49.4271 115.048 49.0048 114.772 48.4494C114.497 47.8941 114.359 47.2151 114.359 46.4124C114.359 45.6564 114.488 44.9938 114.744 44.4244C115.001 43.8551 115.377 43.4141 115.871 43.1014C116.366 42.7841 116.97 42.6254 117.684 42.6254C118.352 42.6254 118.93 42.7724 119.42 43.0664C119.91 43.3558 120.291 43.7828 120.561 44.3474C120.837 44.9121 120.974 45.6004 120.974 46.4124C120.974 47.1498 120.848 47.7984 120.596 48.3584C120.344 48.9184 119.973 49.3571 119.483 49.6744C118.998 49.9871 118.396 50.1434 117.677 50.1434ZM117.684 49.1214C118.114 49.1214 118.478 49.0118 118.776 48.7924C119.075 48.5731 119.301 48.2581 119.455 47.8474C119.614 47.4368 119.693 46.9491 119.693 46.3844C119.693 45.8664 119.623 45.4021 119.483 44.9914C119.348 44.5761 119.133 44.2471 118.839 44.0044C118.545 43.7618 118.16 43.6404 117.684 43.6404C117.246 43.6404 116.875 43.7501 116.571 43.9694C116.268 44.1841 116.037 44.4968 115.878 44.9074C115.724 45.3181 115.647 45.8104 115.647 46.3844C115.647 46.8931 115.715 47.3551 115.85 47.7704C115.99 48.1858 116.21 48.5148 116.508 48.7574C116.812 49.0001 117.204 49.1214 117.684 49.1214ZM125.328 50.1434C124.95 50.1388 124.593 50.0851 124.257 49.9824C123.926 49.8751 123.632 49.7188 123.375 49.5134C123.119 49.3081 122.916 49.0538 122.766 48.7504C122.622 48.4424 122.549 48.0854 122.549 47.6794V42.7654H123.844V47.5464C123.844 48.0178 123.989 48.4004 124.278 48.6944C124.572 48.9884 125.013 49.1354 125.601 49.1354C126.133 49.1354 126.56 48.9978 126.882 48.7224C127.209 48.4424 127.372 48.0271 127.372 47.4764V42.7654H128.66V50.0034H127.631L127.498 48.6174C127.41 48.9814 127.258 49.2754 127.043 49.4994C126.833 49.7234 126.579 49.8891 126.28 49.9964C125.986 50.0991 125.669 50.1481 125.328 50.1434ZM130.885 50.0034V42.7654H132.117V44.1584C132.238 43.8131 132.409 43.5284 132.628 43.3044C132.847 43.0758 133.097 42.9054 133.377 42.7934C133.662 42.6814 133.956 42.6254 134.259 42.6254C134.366 42.6254 134.471 42.6324 134.574 42.6464C134.677 42.6604 134.756 42.6838 134.812 42.7164V43.9694C134.742 43.9368 134.651 43.9158 134.539 43.9064C134.432 43.8924 134.341 43.8854 134.266 43.8854C133.977 43.8668 133.706 43.8854 133.454 43.9414C133.202 43.9928 132.98 44.0838 132.789 44.2144C132.598 44.3451 132.446 44.5178 132.334 44.7324C132.227 44.9424 132.173 45.1991 132.173 45.5024V50.0034H130.885Z" fill="#3B3A48"/>
<rect x="12.2769" y="0.503418" width="134" height="66" rx="3.5" stroke="#D4D4D7"/>
<path d="M218.663 26.1574C218 26.1574 217.384 26.0548 216.815 25.8494C216.246 25.6441 215.753 25.3641 215.338 25.0094C214.923 24.6501 214.608 24.2394 214.393 23.7774L215.989 22.8324C216.171 23.1498 216.376 23.4368 216.605 23.6934C216.834 23.9454 217.097 24.1461 217.396 24.2954C217.699 24.4401 218.052 24.5124 218.453 24.5124C219.06 24.5124 219.547 24.3514 219.916 24.0294C220.285 23.7074 220.469 23.2874 220.469 22.7694C220.469 22.4428 220.385 22.1511 220.217 21.8944C220.054 21.6331 219.827 21.4278 219.538 21.2784C219.249 21.1291 218.91 21.0544 218.523 21.0544C218.318 21.0544 218.122 21.0731 217.935 21.1104C217.753 21.1431 217.566 21.2084 217.375 21.3064C217.188 21.3998 216.981 21.5351 216.752 21.7124C216.687 21.7404 216.64 21.7544 216.612 21.7544C216.589 21.7544 216.542 21.7381 216.472 21.7054L214.988 21.0194L215.45 15.8814H221.953L221.876 17.5544H217.067L216.871 19.9974C217.244 19.7874 217.599 19.6358 217.935 19.5424C218.276 19.4491 218.649 19.4024 219.055 19.4024C219.732 19.4024 220.336 19.5308 220.868 19.7874C221.405 20.0394 221.829 20.4104 222.142 20.9004C222.455 21.3904 222.611 21.9878 222.611 22.6924C222.611 23.4064 222.45 24.0224 222.128 24.5404C221.806 25.0584 221.349 25.4574 220.756 25.7374C220.168 26.0174 219.47 26.1574 218.663 26.1574ZM224.099 28.2574V18.7654H226.15L226.157 19.8084C226.264 19.6358 226.395 19.4794 226.549 19.3394C226.708 19.1948 226.883 19.0688 227.074 18.9614C227.265 18.8541 227.473 18.7724 227.697 18.7164C227.921 18.6558 228.157 18.6254 228.404 18.6254C228.941 18.6254 229.419 18.7584 229.839 19.0244C230.259 19.2858 230.588 19.6918 230.826 20.2424C231.069 20.7884 231.19 21.4838 231.19 22.3284C231.19 23.2058 231.059 23.9268 230.798 24.4914C230.541 25.0514 230.187 25.4668 229.734 25.7374C229.281 26.0081 228.77 26.1434 228.201 26.1434C227.968 26.1434 227.748 26.1108 227.543 26.0454C227.338 25.9848 227.146 25.8984 226.969 25.7864C226.796 25.6744 226.64 25.5461 226.5 25.4014C226.365 25.2521 226.246 25.0911 226.143 24.9184V28.2574H224.099ZM227.711 24.6454C228.154 24.6454 228.525 24.4611 228.824 24.0924C229.127 23.7238 229.279 23.1404 229.279 22.3424C229.279 21.6424 229.134 21.0964 228.845 20.7044C228.56 20.3078 228.182 20.1094 227.711 20.1094C227.184 20.1094 226.789 20.3241 226.528 20.7534C226.271 21.1781 226.143 21.7078 226.143 22.3424C226.143 22.7484 226.199 23.1264 226.311 23.4764C226.428 23.8264 226.6 24.1088 226.829 24.3234C227.062 24.5381 227.356 24.6454 227.711 24.6454ZM232.603 26.0034V18.7654H234.605V19.7874C234.824 19.4701 235.118 19.1971 235.487 18.9684C235.86 18.7398 236.329 18.6254 236.894 18.6254C237.141 18.6254 237.393 18.6698 237.65 18.7584C237.907 18.8471 238.147 18.9778 238.371 19.1504C238.6 19.3184 238.784 19.5308 238.924 19.7874C239.157 19.4561 239.463 19.1808 239.841 18.9614C240.224 18.7374 240.648 18.6254 241.115 18.6254C241.386 18.6254 241.659 18.6698 241.934 18.7584C242.214 18.8471 242.471 18.9918 242.704 19.1924C242.937 19.3931 243.124 19.6614 243.264 19.9974C243.409 20.3288 243.481 20.7394 243.481 21.2294V26.0034H241.437V21.4814C241.437 21.1921 241.379 20.9611 241.262 20.7884C241.15 20.6111 241.005 20.4851 240.828 20.4104C240.655 20.3311 240.471 20.2914 240.275 20.2914C240.093 20.2914 239.909 20.3288 239.722 20.4034C239.535 20.4734 239.377 20.5878 239.246 20.7464C239.115 20.9051 239.05 21.1128 239.05 21.3694V26.0034H237.013V21.2994C237.013 21.0801 236.955 20.8958 236.838 20.7464C236.721 20.5971 236.574 20.4851 236.397 20.4104C236.224 20.3311 236.047 20.2914 235.865 20.2914C235.678 20.2914 235.492 20.3311 235.305 20.4104C235.118 20.4851 234.962 20.6041 234.836 20.7674C234.71 20.9261 234.647 21.1268 234.647 21.3694V26.0034H232.603ZM245.035 20.6974V19.0524H246.582V20.6974H245.035ZM245.035 25.9614V24.3304H246.582V25.9614H245.035Z" fill="#046B99"/>
<path d="M252.069 26.0034L252.076 15.8814H253.399V24.8414H258.18V26.0034H252.069ZM262.669 26.1434C261.997 26.1434 261.404 25.9964 260.891 25.7024C260.377 25.4084 259.976 24.9861 259.687 24.4354C259.397 23.8848 259.253 23.2244 259.253 22.4544C259.253 21.6938 259.383 21.0264 259.645 20.4524C259.906 19.8784 260.284 19.4304 260.779 19.1084C261.278 18.7864 261.878 18.6254 262.578 18.6254C263.259 18.6254 263.835 18.7724 264.307 19.0664C264.778 19.3604 265.135 19.7758 265.378 20.3124C265.625 20.8444 265.749 21.4768 265.749 22.2094V22.6854H260.562C260.562 23.1428 260.636 23.5581 260.786 23.9314C260.94 24.3001 261.171 24.5941 261.479 24.8134C261.787 25.0328 262.176 25.1424 262.648 25.1424C263.11 25.1424 263.506 25.0351 263.838 24.8204C264.174 24.6058 264.388 24.2954 264.482 23.8894H265.7C265.616 24.3794 265.42 24.7924 265.112 25.1284C264.808 25.4644 264.442 25.7188 264.013 25.8914C263.588 26.0594 263.14 26.1434 262.669 26.1434ZM260.569 21.8104H264.503C264.503 21.3951 264.433 21.0218 264.293 20.6904C264.153 20.3544 263.938 20.0908 263.649 19.8994C263.364 19.7034 263.005 19.6054 262.571 19.6054C262.118 19.6054 261.742 19.7151 261.444 19.9344C261.145 20.1491 260.923 20.4268 260.779 20.7674C260.634 21.1034 260.564 21.4511 260.569 21.8104ZM270.089 26.1434C269.585 26.1434 269.116 26.0664 268.682 25.9124C268.252 25.7538 267.895 25.5088 267.611 25.1774C267.326 24.8414 267.149 24.4144 267.079 23.8964H268.255C268.315 24.1811 268.432 24.4191 268.605 24.6104C268.777 24.7971 268.99 24.9394 269.242 25.0374C269.498 25.1308 269.778 25.1774 270.082 25.1774C270.572 25.1774 270.966 25.0864 271.265 24.9044C271.563 24.7224 271.713 24.4424 271.713 24.0644C271.713 23.7984 271.633 23.5861 271.475 23.4274C271.321 23.2641 271.078 23.1451 270.747 23.0704L269.249 22.6994C268.665 22.5594 268.199 22.3401 267.849 22.0414C267.503 21.7428 267.328 21.3251 267.324 20.7884C267.324 20.3638 267.426 19.9904 267.632 19.6684C267.837 19.3464 268.143 19.0921 268.549 18.9054C268.959 18.7188 269.47 18.6254 270.082 18.6254C270.87 18.6254 271.505 18.8028 271.986 19.1574C272.466 19.5074 272.718 20.0231 272.742 20.7044H271.594C271.547 20.3591 271.393 20.0861 271.132 19.8854C270.87 19.6801 270.516 19.5774 270.068 19.5774C269.61 19.5774 269.235 19.6708 268.941 19.8574C268.651 20.0394 268.507 20.3241 268.507 20.7114C268.507 20.9681 268.609 21.1711 268.815 21.3204C269.025 21.4651 269.328 21.5864 269.725 21.6844L271.181 22.0484C271.512 22.1371 271.787 22.2538 272.007 22.3984C272.226 22.5431 272.399 22.7041 272.525 22.8814C272.651 23.0588 272.739 23.2454 272.791 23.4414C272.847 23.6328 272.875 23.8171 272.875 23.9944C272.875 24.4378 272.765 24.8204 272.546 25.1424C272.326 25.4598 272.009 25.7071 271.594 25.8844C271.178 26.0571 270.677 26.1434 270.089 26.1434ZM277.143 26.1434C276.639 26.1434 276.17 26.0664 275.736 25.9124C275.307 25.7538 274.95 25.5088 274.665 25.1774C274.381 24.8414 274.203 24.4144 274.133 23.8964H275.309C275.37 24.1811 275.487 24.4191 275.659 24.6104C275.832 24.7971 276.044 24.9394 276.296 25.0374C276.553 25.1308 276.833 25.1774 277.136 25.1774C277.626 25.1774 278.021 25.0864 278.319 24.9044C278.618 24.7224 278.767 24.4424 278.767 24.0644C278.767 23.7984 278.688 23.5861 278.529 23.4274C278.375 23.2641 278.133 23.1451 277.801 23.0704L276.303 22.6994C275.72 22.5594 275.253 22.3401 274.903 22.0414C274.558 21.7428 274.383 21.3251 274.378 20.7884C274.378 20.3638 274.481 19.9904 274.686 19.6684C274.892 19.3464 275.197 19.0921 275.603 18.9054C276.014 18.7188 276.525 18.6254 277.136 18.6254C277.925 18.6254 278.56 18.8028 279.04 19.1574C279.521 19.5074 279.773 20.0231 279.796 20.7044H278.648C278.602 20.3591 278.448 20.0861 278.186 19.8854C277.925 19.6801 277.57 19.5774 277.122 19.5774C276.665 19.5774 276.289 19.6708 275.995 19.8574C275.706 20.0394 275.561 20.3241 275.561 20.7114C275.561 20.9681 275.664 21.1711 275.869 21.3204C276.079 21.4651 276.383 21.5864 276.779 21.6844L278.235 22.0484C278.567 22.1371 278.842 22.2538 279.061 22.3984C279.281 22.5431 279.453 22.7041 279.579 22.8814C279.705 23.0588 279.794 23.2454 279.845 23.4414C279.901 23.6328 279.929 23.8171 279.929 23.9944C279.929 24.4378 279.82 24.8204 279.6 25.1424C279.381 25.4598 279.064 25.7071 278.648 25.8844C278.233 26.0571 277.731 26.1434 277.143 26.1434ZM288.548 26.1434C288.123 26.1434 287.764 26.0874 287.47 25.9754C287.181 25.8634 286.943 25.7211 286.756 25.5484C286.569 25.3711 286.425 25.1914 286.322 25.0094C286.219 24.8228 286.145 24.6594 286.098 24.5194L285.958 26.0034H284.971V15.6014H286.273V19.9134C286.334 19.7921 286.425 19.6591 286.546 19.5144C286.672 19.3698 286.833 19.2298 287.029 19.0944C287.225 18.9591 287.456 18.8471 287.722 18.7584C287.993 18.6698 288.301 18.6254 288.646 18.6254C289.551 18.6254 290.27 18.9404 290.802 19.5704C291.339 20.2004 291.607 21.1291 291.607 22.3564C291.607 23.1171 291.493 23.7821 291.264 24.3514C291.035 24.9161 290.695 25.3571 290.242 25.6744C289.789 25.9871 289.225 26.1434 288.548 26.1434ZM288.317 25.1494C288.905 25.1494 289.383 24.9231 289.752 24.4704C290.121 24.0131 290.305 23.2874 290.305 22.2934C290.305 21.4488 290.132 20.7954 289.787 20.3334C289.446 19.8668 288.947 19.6334 288.289 19.6334C287.808 19.6334 287.421 19.7384 287.127 19.9484C286.838 20.1538 286.623 20.4548 286.483 20.8514C286.348 21.2481 286.278 21.7288 286.273 22.2934C286.273 23.3061 286.429 24.0364 286.742 24.4844C287.059 24.9278 287.584 25.1494 288.317 25.1494ZM295.957 26.1434C295.579 26.1388 295.222 26.0851 294.886 25.9824C294.555 25.8751 294.261 25.7188 294.004 25.5134C293.747 25.3081 293.544 25.0538 293.395 24.7504C293.25 24.4424 293.178 24.0854 293.178 23.6794V18.7654H294.473V23.5464C294.473 24.0178 294.618 24.4004 294.907 24.6944C295.201 24.9884 295.642 25.1354 296.23 25.1354C296.762 25.1354 297.189 24.9978 297.511 24.7224C297.838 24.4424 298.001 24.0271 298.001 23.4764V18.7654H299.289V26.0034H298.26L298.127 24.6174C298.038 24.9814 297.887 25.2754 297.672 25.4994C297.462 25.7234 297.208 25.8891 296.909 25.9964C296.615 26.0991 296.298 26.1481 295.957 26.1434ZM304.022 26.1434C303.518 26.1434 303.049 26.0664 302.615 25.9124C302.186 25.7538 301.829 25.5088 301.544 25.1774C301.26 24.8414 301.082 24.4144 301.012 23.8964H302.188C302.249 24.1811 302.366 24.4191 302.538 24.6104C302.711 24.7971 302.923 24.9394 303.175 25.0374C303.432 25.1308 303.712 25.1774 304.015 25.1774C304.505 25.1774 304.9 25.0864 305.198 24.9044C305.497 24.7224 305.646 24.4424 305.646 24.0644C305.646 23.7984 305.567 23.5861 305.408 23.4274C305.254 23.2641 305.012 23.1451 304.68 23.0704L303.182 22.6994C302.599 22.5594 302.132 22.3401 301.782 22.0414C301.437 21.7428 301.262 21.3251 301.257 20.7884C301.257 20.3638 301.36 19.9904 301.565 19.6684C301.771 19.3464 302.076 19.0921 302.482 18.9054C302.893 18.7188 303.404 18.6254 304.015 18.6254C304.804 18.6254 305.439 18.8028 305.919 19.1574C306.4 19.5074 306.652 20.0231 306.675 20.7044H305.527C305.481 20.3591 305.327 20.0861 305.065 19.8854C304.804 19.6801 304.449 19.5774 304.001 19.5774C303.544 19.5774 303.168 19.6708 302.874 19.8574C302.585 20.0394 302.44 20.3241 302.44 20.7114C302.44 20.9681 302.543 21.1711 302.748 21.3204C302.958 21.4651 303.262 21.5864 303.658 21.6844L305.114 22.0484C305.446 22.1371 305.721 22.2538 305.94 22.3984C306.16 22.5431 306.332 22.7041 306.458 22.8814C306.584 23.0588 306.673 23.2454 306.724 23.4414C306.78 23.6328 306.808 23.8171 306.808 23.9944C306.808 24.4378 306.699 24.8204 306.479 25.1424C306.26 25.4598 305.943 25.7071 305.527 25.8844C305.112 26.0571 304.61 26.1434 304.022 26.1434ZM309.194 28.3134C308.769 28.3134 308.478 28.2831 308.319 28.2224C308.16 28.1618 308.081 28.1314 308.081 28.1314V27.2914L308.823 27.3054C309.089 27.3148 309.311 27.2961 309.488 27.2494C309.665 27.2028 309.808 27.1398 309.915 27.0604C310.022 26.9811 310.104 26.8924 310.16 26.7944C310.221 26.6964 310.27 26.6031 310.307 26.5144L310.559 25.8284L307.731 18.7654H309.04L311.175 24.3514L313.296 18.7654H314.563L311.518 26.5494C311.327 27.0068 311.114 27.3638 310.881 27.6204C310.652 27.8771 310.396 28.0568 310.111 28.1594C309.831 28.2621 309.525 28.3134 309.194 28.3134ZM217.018 50.0034L214.099 39.8814H215.408L217.648 47.9384L219.93 39.8814H220.945L223.22 47.9384L225.502 39.8814H226.804L223.85 50.0034H222.653L220.434 42.1564L218.18 50.0034H217.018ZM229.606 50.1434C229.135 50.1434 228.72 50.0618 228.36 49.8984C228.006 49.7304 227.726 49.4901 227.52 49.1774C227.32 48.8648 227.219 48.4868 227.219 48.0434C227.219 47.2408 227.499 46.6434 228.059 46.2514C228.619 45.8594 229.518 45.6494 230.754 45.6214L232.042 45.5864V45.0194C232.042 44.5761 231.909 44.2261 231.643 43.9694C231.377 43.7081 230.967 43.5774 230.411 43.5774C229.996 43.5821 229.63 43.6801 229.312 43.8714C228.995 44.0628 228.792 44.3754 228.703 44.8094H227.562C227.59 44.3381 227.721 43.9414 227.954 43.6194C228.192 43.2928 228.526 43.0454 228.955 42.8774C229.385 42.7094 229.891 42.6254 230.474 42.6254C231.104 42.6254 231.627 42.7141 232.042 42.8914C232.462 43.0688 232.775 43.3301 232.98 43.6754C233.19 44.0208 233.295 44.4454 233.295 44.9494V50.0034H232.189L232.091 48.6454C231.816 49.2101 231.461 49.6021 231.027 49.8214C230.598 50.0361 230.124 50.1434 229.606 50.1434ZM229.991 49.2124C230.239 49.2124 230.481 49.1681 230.719 49.0794C230.962 48.9908 231.181 48.8718 231.377 48.7224C231.578 48.5684 231.739 48.3981 231.86 48.2114C231.982 48.0201 232.042 47.8241 232.042 47.6234V46.3844L230.971 46.4054C230.416 46.4148 229.954 46.4708 229.585 46.5734C229.217 46.6761 228.939 46.8371 228.752 47.0564C228.566 47.2758 228.472 47.5628 228.472 47.9174C228.472 48.3234 228.615 48.6408 228.899 48.8694C229.184 49.0981 229.548 49.2124 229.991 49.2124ZM235.35 50.0034V42.7654H236.603V50.0034H235.35ZM235.315 41.2324V39.8884H236.638V41.2324H235.315ZM241.427 50.0384C240.927 50.0384 240.54 49.9708 240.265 49.8354C239.989 49.7001 239.796 49.4994 239.684 49.2334C239.576 48.9674 239.523 48.6408 239.523 48.2534V43.7104H238.347V42.7654H239.558L239.873 40.6584H240.825V42.7584H242.456V43.7104H240.825V48.2114C240.825 48.4681 240.85 48.6571 240.902 48.7784C240.958 48.8951 241.049 48.9698 241.175 49.0024C241.301 49.0351 241.478 49.0514 241.707 49.0514H242.498V49.9194C242.409 49.9521 242.274 49.9801 242.092 50.0034C241.914 50.0268 241.693 50.0384 241.427 50.0384ZM243.914 44.6974V43.0524H245.461V44.6974H243.914ZM243.914 49.9614V48.3304H245.461V49.9614H243.914ZM250.948 50.0034V39.8814H252.187L257.535 47.7494V39.8814H258.83V50.0034H257.675L252.243 42.0234V50.0034H250.948ZM264.039 50.1434C263.371 50.1434 262.788 50.0011 262.289 49.7164C261.794 49.4271 261.409 49.0048 261.134 48.4494C260.858 47.8941 260.721 47.2151 260.721 46.4124C260.721 45.6564 260.849 44.9938 261.106 44.4244C261.362 43.8551 261.738 43.4141 262.233 43.1014C262.727 42.7841 263.332 42.6254 264.046 42.6254C264.713 42.6254 265.292 42.7724 265.782 43.0664C266.272 43.3558 266.652 43.7828 266.923 44.3474C267.198 44.9121 267.336 45.6004 267.336 46.4124C267.336 47.1498 267.21 47.7984 266.958 48.3584C266.706 48.9184 266.335 49.3571 265.845 49.6744C265.359 49.9871 264.757 50.1434 264.039 50.1434ZM264.046 49.1214C264.475 49.1214 264.839 49.0118 265.138 48.7924C265.436 48.5731 265.663 48.2581 265.817 47.8474C265.975 47.4368 266.055 46.9491 266.055 46.3844C266.055 45.8664 265.985 45.4021 265.845 44.9914C265.709 44.5761 265.495 44.2471 265.201 44.0044C264.907 43.7618 264.522 43.6404 264.046 43.6404C263.607 43.6404 263.236 43.7501 262.933 43.9694C262.629 44.1841 262.398 44.4968 262.24 44.9074C262.086 45.3181 262.009 45.8104 262.009 46.3844C262.009 46.8931 262.076 47.3551 262.212 47.7704C262.352 48.1858 262.571 48.5148 262.87 48.7574C263.173 49.0001 263.565 49.1214 264.046 49.1214ZM269.057 50.0034V42.7654H270.31V43.8154C270.427 43.6148 270.588 43.4258 270.793 43.2484C271.003 43.0711 271.255 42.9288 271.549 42.8214C271.848 42.7141 272.191 42.6604 272.578 42.6604C273.035 42.6604 273.455 42.7514 273.838 42.9334C274.225 43.1154 274.533 43.4001 274.762 43.7874C274.995 44.1701 275.112 44.6648 275.112 45.2714V50.0034H273.817V45.3974C273.817 44.8328 273.668 44.4151 273.369 44.1444C273.075 43.8691 272.692 43.7314 272.221 43.7314C271.894 43.7314 271.589 43.7851 271.304 43.8924C271.019 43.9951 270.788 44.1538 270.611 44.3684C270.434 44.5784 270.345 44.8444 270.345 45.1664V50.0034H269.057ZM280.196 50.1434C279.524 50.1434 278.931 49.9964 278.418 49.7024C277.905 49.4084 277.503 48.9861 277.214 48.4354C276.925 47.8848 276.78 47.2244 276.78 46.4544C276.78 45.6938 276.911 45.0264 277.172 44.4524C277.433 43.8784 277.811 43.4304 278.306 43.1084C278.805 42.7864 279.405 42.6254 280.105 42.6254C280.786 42.6254 281.363 42.7724 281.834 43.0664C282.305 43.3604 282.662 43.7758 282.905 44.3124C283.152 44.8444 283.276 45.4768 283.276 46.2094V46.6854H278.089C278.089 47.1428 278.164 47.5581 278.313 47.9314C278.467 48.3001 278.698 48.5941 279.006 48.8134C279.314 49.0328 279.704 49.1424 280.175 49.1424C280.637 49.1424 281.034 49.0351 281.365 48.8204C281.701 48.6058 281.916 48.2954 282.009 47.8894H283.227C283.143 48.3794 282.947 48.7924 282.639 49.1284C282.336 49.4644 281.969 49.7188 281.54 49.8914C281.115 50.0594 280.667 50.1434 280.196 50.1434ZM278.096 45.8104H282.03C282.03 45.3951 281.96 45.0218 281.82 44.6904C281.68 44.3544 281.465 44.0908 281.176 43.8994C280.891 43.7034 280.532 43.6054 280.098 43.6054C279.645 43.6054 279.27 43.7151 278.971 43.9344C278.672 44.1491 278.451 44.4268 278.306 44.7674C278.161 45.1034 278.091 45.4511 278.096 45.8104Z" fill="#3B3A48"/>
<rect x="203.277" y="0.503418" width="134" height="66" rx="3.5" stroke="#D4D4D7"/>
<line x1="25.2769" y1="191.003" x2="25.2769" y2="194.003" stroke="#3B3A48"/>
<line x1="49.277" y1="191.003" x2="49.277" y2="194.003" stroke="#3B3A48"/>
<line x1="121.277" y1="191.003" x2="121.277" y2="194.003" stroke="#3B3A48"/>
<line x1="193.277" y1="191.003" x2="193.277" y2="194.003" stroke="#3B3A48"/>
<line x1="265.277" y1="191.003" x2="265.277" y2="194.003" stroke="#3B3A48"/>
<line x1="337.277" y1="191.003" x2="337.277" y2="194.003" stroke="#3B3A48"/>
<path d="M0.776855 191.003L363.777 191.003" stroke="#3B3A48"/>
<line x1="49.2769" y1="187.003" x2="49.2769" y2="195.003" stroke="#046B99"/>
<line x1="313.277" y1="187.003" x2="313.277" y2="195.003" stroke="#046B99"/>
</svg>
