<?xml version="1.0" encoding="utf-8"?>
<!-- Generator: Adobe Illustrator 27.4.1, SVG Export Plug-In . SVG Version: 6.00 Build 0)  -->
<svg version="1.1" id="Layer_1" xmlns="http://www.w3.org/2000/svg" xmlns:xlink="http://www.w3.org/1999/xlink" x="0px" y="0px"
	 viewBox="0 0 326 167" style="enable-background:new 0 0 326 167;" xml:space="preserve">
<style type="text/css">
	.st0{fill:none;}
	.st1{fill:#FF4633;}
	.st2{fill:#69A6C2;}
</style>
<g>
	<path class="st0" d="M191.5,20.3c0.6-0.4,1.2-0.7,1.6-1.2C192.5,19.5,192,19.9,191.5,20.3z"/>
	<path class="st0" d="M137.1,92.5c-1.1,0.1-2.8,0.8-3,1.4c-0.1,0.4,0.5,0.7,0.9,0.8c0.7,0.3,1.6,0.2,2.6,0.2
		c6.5-0.5,13-1.2,19.4-2.2c-4.4-0.2-8.8-0.4-13.2-0.4C141.6,92.3,139.4,92.3,137.1,92.5z"/>
	<path class="st0" d="M181.3,77.2c0.7,0.1,1.4,0.3,2.1,0.5C182.7,77.4,182,77.3,181.3,77.2z"/>
	<path class="st0" d="M189.8,21.7L189.8,21.7c-0.1,0-0.1,0.1-0.2,0.1c0.1,0,0.3,0,0.4-0.1c0.1,0,0.2-0.1,0.2-0.1
		c0.1-0.1,0.2-0.1,0.3-0.2c0.1,0,0.1-0.1,0.1-0.1c-0.1,0-0.2,0-0.2-0.1C190.3,21.4,190,21.6,189.8,21.7z"/>
	<path class="st0" d="M177.3,34.4c0.7-0.4,1.6-0.8,2.4-1c0.1-0.2,0.3-0.3,0.4-0.5c0.3-0.3,0.5-0.6,1-0.8c0.8-0.4,1.7-0.2,2.5,0
		c0.6,0.1,1.1,0.2,1.6,0.1c0.4-0.1,0.7-0.5,1-0.8c1.2-1.5,2.3-3.1,3.3-4.8c0.1-0.2,0.3-0.5,0.2-0.7c-0.1-0.2-0.5-0.4-0.8-0.5
		c-0.1,0-0.2,0-0.2-0.1c-0.5-0.1-1-0.3-1.4-0.6c-0.7-0.5-0.7-1.5-0.1-2.1c0.2-0.2,0.5-0.4,0.7-0.6c0.2-0.1,0.4-0.3,0.5-0.4
		c0.2-0.2,0.4-0.3,0.7-0.5c-0.7,0-1.5,0-2.4,0.1c-1.6,0.2-3.2,0.6-4.9,1.3c-1.6,0.6-3.2,1.4-4.7,2.1c-0.7,0.4-1.5,0.7-2.2,1.1
		c-0.3,0.1-0.6,0.3-1,0.5c-0.8,0.4-1.7,0.9-2.7,1.1c-0.1,0-0.3,0.1-0.4,0.1c-0.2,0-0.4,0.1-0.5,0.2c0,0,0,0,0,0
		c-2.7,1.3-5,3.1-7.2,4.9c-1,0.8-2,1.6-3.1,2.4c-9.9,7.2-21.1,13.7-31.8,19.9c-7.7,4.5-15.7,9.1-23.2,14c-22.9,15-40.7,27.7-56,40.1
		c-2.6,2.1-4.7,3.8-6.6,5.3c-1.8,1.4-3.6,3-4.7,4.7c-0.1,0.2-0.1,0.3-0.1,0.3c0,0,0.1,0,0.2,0c0.9,0,3.5-1.6,4.4-2.1
		c0.2-0.1,0.3-0.2,0.5-0.3c2.7-1.5,5.3-3.2,7.8-4.9c1.1-0.7,2.2-1.5,3.3-2.2c0.7-0.5,1.5-1,2.2-1.4c2-1.3,4.1-2.6,6.1-4
		c3.7-2.5,7.3-5.1,10.9-7.6c8.2-5.8,16.8-11.7,25.5-17.2c0.1-0.1,0.3-0.1,0.4-0.1c0.1,0,0.2,0.1,0.3,0.1c0.4,0.1,0.9,0,1.3,0
		c0.5-0.1,0.9-0.4,1.4-0.6c1-0.3,2-0.9,2.9-1.4c1.3-0.7,2.6-1.5,3.9-2.3c6.2-3.9,11.4-8.8,17.4-12.9c6.6-4.4,13.3-8.8,19.9-13.2
		c0.5-0.4,1.1-0.7,1.6-1.1c2.6-1.7,5.7-3.6,9.1-3.1c1.2,0.2,2.4,0.6,3.7,0.7c1.4,0.1,2.7-0.4,3.9-0.9c4-1.6,7.6-4,10.3-6.8
		c0,0,0.1-0.1,0.1-0.1c0-0.1,0-0.2,0.1-0.4C175.1,36.2,176,35.2,177.3,34.4z"/>
	<path class="st0" d="M128.1,85.7c-7.7,2.5-15.1,5.5-22,8.8C113.6,92.7,120.9,89.7,128.1,85.7z"/>
	<path class="st1" d="M284.5,85.9c-1.3,1.2,0.4,4.6,1.2,6.2l0.1,0.1c3.8,7.7,9.5,13.8,15.5,20.3c0.5,0.6,1.1,1.2,1.6,1.7
		c0.5,0.6,1.2,1.2,2.1,1.3c0.6,0.1,0.8-0.1,0.8-0.2c0.3-0.4,0.7-2-2.9-8.1c-2.1-3.6-4.7-7.1-5.3-7.7C293,94.6,288.7,90.1,284.5,85.9
		C284.5,85.8,284.5,85.9,284.5,85.9z"/>
	<path class="st1" d="M113.9,73.8l-0.1,0.1c0,0.2,0,0.3,0.1,0.3c0,0,0,0.1,0,0.1c0,0,0-0.1,0-0.1C113.9,74.1,113.9,74,113.9,73.8z"
		/>
	<path class="st1" d="M113.8,75.1c0,0.1,0,0.1,0,0.2c-0.1,0.4,0,0.9,0,1.3C113.7,76.1,113.7,75.6,113.8,75.1z"/>
	<path class="st1" d="M175.4,38.7c-0.5-0.1-0.8-0.5-0.8-1c0,0-0.1,0.1-0.1,0.1c-2.7,2.8-6.3,5.2-10.3,6.8c-1.2,0.5-2.5,0.9-3.9,0.9
		c-1.3-0.1-2.4-0.5-3.7-0.7c-3.4-0.4-6.5,1.4-9.1,3.1c-0.5,0.4-1.1,0.7-1.6,1.1c-6.6,4.4-13.3,8.8-19.9,13.2
		c-6.1,4.1-11.3,8.9-17.4,12.9c-1.2,0.8-2.5,1.6-3.9,2.3c-0.9,0.5-1.9,1.1-2.9,1.4c-0.5,0.2-0.9,0.4-1.4,0.6c-0.4,0.1-0.9,0.1-1.3,0
		c0,0,0.1,0,0.1,0.1c0.3,0.4,0.7,0.6,1.2,0.6c1.8,0.2,4.5-1.6,5.9-2.5c0.2-0.1,0.3-0.2,0.5-0.3l7.7-4.9c0,0,0,0,0,0v0l0,0
		c0.2-0.2,0.6-0.1,0.8,0c0.2,0.2,0.2,0.4-0.1,0.6c-0.1,0.1-0.2,0.6-0.3,1.4c0,0.1,0,0.2,0,0.3c-0.1,0.7-0.1,1.3,0,2
		c0.2,2,2,3.5,4.6,3.9c3.3,0.5,6.7-0.8,9-1.8c5.9-2.6,11.6-6.1,17.5-10.6c1.5-1.2,3-2.4,4.4-3.7c3.3-2.8,6.7-5.8,10.9-7.9
		c0.4-0.2,1.5-0.8,2.5-0.3c0.8,0.3,1,1,0.9,1.6c-0.1,0.5-0.5,1-0.8,1.3c-6,6.9-15,14.3-27.4,22.5c-0.6,0.4-1.1,0.7-1.7,1.1
		c6.9-1.9,13.9-3.5,20.9-4.7c5.2-0.9,10.4-1.4,15.7-1.6c2.3-0.1,4.8,0,7.1,0.3c1,0.1,1.9,0.2,2.7,0.4c0.7,0.1,1.4,0.3,2.1,0.5
		c0.8,0.2,1.5,0.4,2.1,0.7c2.5,1,3.6,2.2,3.4,3.5c-0.4,2.1-4.2,4.4-11.3,6.9c-5,1.7-10.2,3-12.2,3.5c1.6,0.1,3.1,0.1,4.7,0.1
		c9.4,0.1,18.6,0.1,27.6-0.2c-5.2-0.1-10.4-0.5-15.5-1.2c6.4-2.5,12.5-5.4,18.4-8.7c3.8-2.1,8-5.4,6.5-8.9c-1.2-2.8-5.5-4-9.4-4.4
		c-12.6-1.4-25.3,1.1-37.6,3.5c-4.5,0.9-8.7,2.4-13,3.9c2.5-1.6,5-3.2,7.4-4.9c4.6-3.2,8.9-6.5,12.7-10.2c2.7-2.6,7-6.2,6.5-9.8
		c-0.6-4.2-8.6,0.1-10.6,1.3c-8.4,4.8-14.7,11.4-22.2,16.9c-3.3,2.4-6.8,4.6-10.8,6.4c-3.2,1.4-7.9,2.8-11.5,1.3
		c-0.6-0.3-1-0.6-1.4-1c-1.1-1.1-1.3-2.4-0.7-3.8c1.1-2.6,3.7-4.7,6.2-6.6c8-6,16.5-11.6,25.6-16.7c1.2-0.7,2.5-1.4,3.9-1.8
		c2.6-0.7,5.5-0.4,8.3-0.7c4.3-0.3,8.2-2,11.4-4.2c1.7-1.2,3.1-2.5,4.4-3.9C176,38.7,175.7,38.8,175.4,38.7z"/>
	<path class="st1" d="M220.5,25.6C220.6,25.6,220.6,25.7,220.5,25.6c-0.1-0.3-0.3-0.6-0.6-0.9c-0.4-0.4-1-0.6-1.6-0.8
		C219.2,24.4,220,25.1,220.5,25.6z"/>
	<path class="st1" d="M174.1,24.9c0.7-0.3,1.5-0.7,2.2-1.1c1.5-0.8,3.1-1.6,4.8-2.2c1.9-0.7,3.6-1.2,5.3-1.3c1.4-0.2,2.7-0.2,3.7,0
		c0.1-0.1,0.2-0.2,0.4-0.3c0.2-0.2,0.4-0.4,0.7-0.6c-0.5-1.4-2.6-2.4-4.6-2.3c-2.6,0.1-4.7,1.5-6.6,2.8c-1.6,1.1-3.2,2.1-4.7,3.2
		c-0.4,0.3-0.7,0.7-1.1,1.1c-0.8,0.8-1.9,1.4-2.9,2c-0.1,0-0.1,0.1-0.2,0.1c0.7-0.3,1.4-0.6,2-0.9C173.4,25.2,173.8,25.1,174.1,24.9
		z"/>
	<path class="st1" d="M190.6,21.4c-0.1,0.1-0.2,0.1-0.3,0.2c-0.1,0.1-0.1,0.1-0.2,0.1c-0.1,0-0.3,0-0.4,0.1
		c-0.1,0.1-0.2,0.1-0.3,0.2c-0.2,0.2-0.4,0.4-0.6,0.5c-0.2,0.2-0.4,0.3-0.6,0.5c-0.3,0.3-0.4,0.8,0,1.1c0.2,0.2,0.6,0.3,0.9,0.4
		c0.1,0,0.2,0,0.3,0.1c0.8,0.2,1.4,0.6,1.5,1.1c0.2,0.5-0.1,0.9-0.3,1.2c-1,1.7-2.1,3.3-3.4,4.9c-0.4,0.5-0.8,0.9-1.5,1.2
		c-0.8,0.2-1.6,0.1-2.3-0.1c-0.6-0.1-1.2-0.2-1.6-0.1c-0.2,0.1-0.3,0.2-0.5,0.4c0.2,0,0.3,0,0.5,0c0,0,0.1,0,0.1,0
		c0.6,0,1.1,0,1.7,0.1c0.6,0,1.1,0.1,1.6,0.1c1.2,0,2.1-0.3,2.5-0.9c0.2-0.2,0.3-0.5,0.4-0.8c0.2-0.4,0.3-0.9,0.7-1.2
		c0.5-0.5,1.2-0.7,1.8-0.9c0.4-0.1,0.8-0.3,1.1-0.4c0.5-0.3,0.9-0.8,1.2-1.6c0.5-1.5,0.4-3.1-0.4-4.6c-0.4-0.7-0.8-1.1-1.3-1.4
		c-0.2-0.1-0.3-0.1-0.5-0.2C190.7,21.3,190.6,21.4,190.6,21.4z"/>
	<path class="st1" d="M206.6,21.9c0.1-0.2,0.3-0.3,0.5-0.3c0.4,0,0.7,0.1,1,0.2c0,0,0.1,0,0.1,0c0.1,0,0.2,0,0.2,0.1
		c0.5,0.2,1.1,0.3,1.6,0.4c-0.9-0.5-1.7-1.1-2.6-1.8c-1.9-1.4-3.8-2.8-6.2-3.1c-2.8-0.3-5.8,0.4-8.1,1.8c-0.4,0.5-1,0.8-1.6,1.2
		c-0.1,0.1-0.1,0.1-0.2,0.2c0,0,0,0-0.1,0.1c0.2,0.1,0.4,0.2,0.6,0.2c0.7,0.4,1.3,0.9,1.7,1.8c0.3,0.6,0.6,1.3,0.7,1.9
		c0-0.1,0-0.2,0-0.2c0-0.2,0-0.5,0-0.7c0.1-0.5,0.2-0.9,0.5-1.3c0.2-0.3,0.5-0.4,0.7-0.7c0.2-0.2,0.4-0.4,0.6-0.5
		c0.4-0.3,0.9-0.5,1.5-0.7c1.1-0.4,2.3-0.5,3.5-0.3c2.1,0.3,4,1.3,5.6,2.4C206.5,22.2,206.5,22,206.6,21.9z"/>
	<path class="st1" d="M211,21.7c0.2,0.1,0.3,0.2,0.5,0.3c0,0,0.1,0,0.1,0.1c0,0,0.2,0.1,0.2,0.1c0.2,0,0.3,0.1,0.4,0.3
		c0.1,0.2,0,0.5-0.3,0.5c-1.3,0.4-2.6,0-3.7-0.3c0.1,0.1,0.3,0.3,0.4,0.4c0.3,0.3,0.6,0.5,0.9,0.8c1.5,1.3,3.1,2.7,5.1,3.6
		c0.4,0.2,0.8,0.2,1.1,0.1c0.3-0.2,0.3-0.5,0.2-0.7c0-0.1-0.1-0.3-0.2-0.5c-0.3-0.8-0.8-2.1,0.3-2.6c0.4-0.2,0.7-0.2,1.1-0.2
		c-0.4-0.1-0.9-0.2-1.2-0.3c-2.6-0.8-4.9-2-7.2-3.1c-0.3-0.1-0.6-0.3-0.8-0.4c0.1,0,0.1,0.1,0.2,0.1C209.2,20.6,210.1,21.2,211,21.7
		z"/>
	<path class="st1" d="M178.8,34.6c-0.1,0-0.1,0.1-0.2,0.1C178.7,34.7,178.7,34.7,178.8,34.6C178.8,34.6,178.8,34.6,178.8,34.6z"/>
	<path class="st1" d="M175.8,37.6c0,0.1,0,0.2,0,0.3c0,0,0.1,0,0.1-0.1c1.2-0.9,2.1-2,2.9-3.1c-0.1,0-0.1,0-0.2,0
		C177.3,35.4,176.2,36.4,175.8,37.6z"/>
	<path class="st2" d="M249.2,142.8C249.2,142.8,249.2,142.8,249.2,142.8S249.2,142.8,249.2,142.8z"/>
	<path class="st2" d="M191.1,20.7c0.1-0.1,0.3-0.2,0.4-0.3c0.5-0.4,1-0.8,1.6-1.2c0.1-0.1,0.1-0.1,0.1-0.2c0.2-0.4,0.5-0.7,0.9-1
		c1.3-0.9,3.5-1.1,5.2-1.3c1-0.1,2.2-0.2,3.1,0.2c1.1,0.6,2.1,1.3,3.2,1.9c0.5,0.3,0.9,0.3,1.4,0.5c0.3,0.1,0.6,0.2,0.9,0.4
		c-1.9-1.4-3.9-2.9-6.6-3.2c-3.6-0.4-7.5,0.7-10.3,2.9C191.3,19.8,191.3,20.2,191.1,20.7z"/>
	<path class="st2" d="M217.3,23.6c0.4,0.1,0.7,0.2,1.1,0.3C218,23.8,217.6,23.6,217.3,23.6z"/>
	<path class="st2" d="M113.8,74.3c0,0.1,0,0.1,0,0.2c0,0.2,0,0.4-0.1,0.6C113.8,74.8,113.8,74.6,113.8,74.3z"/>
	<path class="st2" d="M323.7,117.7c-1.4-2.5-3.4-4.9-5.4-7.2c-0.8-0.9-1.5-1.7-2.2-2.6c0,0,0,0,0,0c-4.2-5.1-8.6-9.8-13.3-14
		c-0.2-0.1-0.3-0.3-0.5-0.4c-1.9-1.7-4.1-3.7-6.6-5.4c-2.9-2-5.7-3.1-8.4-3.5c-1-0.1-1.8-0.1-2.5,0c-0.1-0.1-0.2-0.2-0.3-0.3
		c-1.6-1.6-3.4-3.2-5.2-4.8c-3.3-2.9-6.6-5.9-8.9-9.1c-0.3-0.4-0.5-0.8-0.7-1.3c-0.2-0.5-0.5-1-0.8-1.5c-1.5-2.1-3.5-4.2-5.4-6.1
		c-0.6-0.6-1.2-1.3-1.8-1.9c-3.6-3.8-6.6-6.8-9.7-9.3c-2.4-2-4.9-2.7-8.2-3.4c-5.5-1.2-8.8-5.4-12-9.4c-0.9-1.2-1.8-2.3-2.8-3.3
		c-2.8-3.1-5.6-5.9-8.4-8.5c0,0,0,0-0.1-0.1c0.2,0.4,0.4,0.8,0.6,1.2c-0.4-0.3-1-0.6-1.3-0.9c-0.1-0.1-0.1-0.1-0.2-0.2
		c-0.1-0.2-0.3-0.3-0.6-0.4c-0.3-0.1-0.4-0.3-0.6-0.4c-0.2-0.2-0.5-0.4-0.7-0.5c-0.4-0.2-1.1-0.3-1.5-0.1c-0.1,0.1-0.2,0.2-0.3,0.3
		c-0.1,0.1-0.1,0.3-0.1,0.5c0.1,0.4,0.2,0.9,0.3,1.3c0.1,0.6,0.2,1.3-0.5,1.5c-0.5,0.2-1.1,0-1.6-0.3c-0.8-0.4-1.6-0.8-2.3-1.3
		c-0.3-0.2-0.5-0.4-0.7-0.6c-0.3-0.2-0.7-0.5-1-0.7c-1.2-0.9-2.3-1.8-3.5-2.7c0,0,0,0,0,0c0.1,0.2,0.3,0.4,0.5,0.6
		c0.3,0.3,0.6,0.5,0.7,0.6c0.3,0.3,0.6,0.5,0.9,0.8c1.6,1.4,3.2,2.8,5.4,3.7c0.8,0.3,1.7,0.3,2.3,0c0.6-0.3,0.8-0.9,0.7-1.5
		c0-0.2-0.1-0.4-0.2-0.6c-0.2-0.4-0.6-1.4-0.2-1.6c0.4-0.2,0.9,0.1,1.3,0.4c0.6,0.4,1.2,0.9,1.6,1.3c0.1,0.1,0.1,0.1,0.2,0.2
		c2.7,2.5,5.5,5.4,8.3,8.5c0.9,1,1.8,2.1,2.7,3.3c1.6,2,3.2,4.1,5.2,5.8c2.3,2,4.7,3.3,7.4,3.9c3.2,0.7,5.5,1.3,7.7,3.2
		c3,2.5,6.1,5.5,9.6,9.3c0.6,0.6,1.2,1.3,1.8,1.9c1.9,1.9,3.8,4,5.3,6c0.3,0.4,0.5,0.9,0.8,1.4c0.2,0.5,0.4,0.9,0.8,1.4
		c2.3,3.3,5.7,6.3,9,9.2c1.8,1.6,3.6,3.1,5.1,4.7c0.1,0.1,0.1,0.2,0.2,0.2c-0.1,0.1-0.2,0.1-0.3,0.2c-1.7,1.6,0,5,1,7.1l0.1,0.1
		c3.8,7.8,9.6,14,15.7,20.5c0.5,0.6,1.1,1.2,1.6,1.7c0.6,0.7,1.5,1.5,2.8,1.7c1.1,0.1,1.7-0.2,2-0.5c0.6-0.7,0.5-1.8-0.2-3.7
		c-0.5-1.4-1.4-3.2-2.7-5.2c-2.2-3.7-4.7-7.2-5.4-7.8c-4.5-5-8.8-9.5-12.9-13.7c0.4,0,0.9,0,1.5,0c5.8,0.8,10.5,5.1,14.3,8.6
		c0.2,0.2,0.3,0.3,0.5,0.4c4.6,4.2,9,8.9,13.2,13.9c0,0,0,0,0,0c0.7,0.9,1.5,1.7,2.2,2.6c2,2.3,4,4.6,5.3,7c1.3,2.3,1,5.1-2,6.3
		c-2.2,0.8-4.9,0.7-7.6,0.4c-5.4-0.5-10.9-1.1-16.2-1.7c-11.6-1.3-23.5-2.7-35.4-2.7c-5.3,0-11.5,0.2-17.5,1.2
		c-2.6,0.5-5.6,1-8.4,2.1c-3.2,1.2-5.3,2.8-6.3,4.7c-0.8,1.5-0.6,3.1,0.3,4.7c0.7,1.1,1.8,2.2,3.4,3.3l1.1-0.4
		c-2.6-1.7-5.2-4.2-3.7-7.3c0.8-1.7,2.7-3.1,5.7-4.3c2.6-1,5.6-1.6,8.1-2c5.9-1,12-1.2,17.2-1.2c0.1,0,0.2,0,0.2,0
		c11.7,0,23.6,1.4,35,2.7c5.3,0.6,10.8,1.3,16.2,1.7c2.9,0.3,5.8,0.4,8.3-0.5C324.8,123.7,325.2,120.3,323.7,117.7z M286.7,86.7
		c0.1,0.1,0.2,0.3,0.3,0.4c0.7,0.9,1.5,1.6,2.2,2.5c0.2,0.2,0.3,0.4,0.5,0.6c0.8,0.8,1.5,1.6,2.2,2.5c0.8,1,1.6,2,2.4,3
		c0.4,0.6,0.9,1.1,1.3,1.7c0.4,0.5,0.9,1,1.4,1.5c1,1,1.8,2.1,2.6,3.2c0.6,0.8,1,1.6,1.6,2.5c0.1,0.2,0.2,0.3,0.4,0.5
		c0.3,0.2,0.6,0.5,0.8,0.7c0.8,0.9,1.4,2,2.1,2.9c0.5,0.7,1,1.4,1.2,2.2c0.3,0.7,0.1,1.5,0.2,2.2c0.1,0.7,0.1,1.3,0.2,2
		c0.1,0.5,0.1,1-0.4,1.2c-0.5,0.2-1.3-0.1-1.7-0.4c-0.1-0.1-0.2-0.2-0.3-0.4c-0.1-0.1-0.1-0.1-0.2-0.2c-0.4-0.3-0.8-0.6-1.1-1
		c-0.1-0.1-0.2-0.2-0.2-0.3c-0.8-0.9-1.7-1.9-2.5-2.8c-0.5-0.6-0.9-1.1-1.7-1.6c-0.8-0.5-1.3-1.2-1.8-1.8c-1.3-1.4-2.6-2.9-4-4.3
		c-0.3-0.3-0.6-0.7-0.9-1c-1.2-1.3-2.3-2.7-3.2-4.1c-0.4-0.7-0.8-1.5-1.1-2.2c-0.1-0.4-0.2-0.8-0.3-1.2c0-0.2-0.1-0.2-0.2-0.4
		c-0.4-0.4-0.6-0.9-0.9-1.3c-0.6-0.9-1.1-1.8-1.5-2.8c-0.1-0.2-0.1-0.3-0.2-0.5c-0.1-0.4-0.1-0.7-0.2-1.1c-0.1-0.6,0-1.2,0.1-1.9
		c0.1-0.4,0.1-0.9,0.4-1.3C284.7,84.8,286.2,86.2,286.7,86.7z"/>
	<path class="st2" d="M193.9,26.5c-0.3,1-0.1,2.1-1.3,2.8c-0.5,0.3-1.2,0.4-1.9,0.6c-0.3,0.1-0.6,0.2-0.9,0.3
		c-0.5,0.2-0.4,0.5-0.6,0.9c-0.2,0.4-0.6,0.8-1,1.2c-0.4,0.4-0.8,0.8-1.4,1.1c-0.5,0.3-1.2,0.5-1.9,0.4c-0.2-0.1-0.5-0.1-0.7-0.1
		c-0.3,0-0.6,0-0.9,0c-0.2,0-0.4,0-0.6,0c-0.5-0.1-1.1-0.1-1.6-0.1c-0.2,0-0.3,0-0.5,0.1c-0.1,0.1-0.2,0.1-0.3,0.2
		c-0.2,0.2-0.4,0.3-0.5,0.5c-0.1,0.2-0.2,0.3-0.4,0.5c-0.2,0.2-0.4,0.3-0.6,0.5c0,0-0.1,0.1-0.1,0.1c-0.8,1.1-1.6,2.2-2.5,3.2
		c0.2-0.1,0.3-0.2,0.4-0.2c1.4-1,2.4-2.4,3.4-3.7c0.2-0.2,0.3-0.4,0.5-0.6c0.4-0.1,0.8-0.1,1.2-0.1c0.5,0,1.1,0,1.7,0.1
		c0.6,0,1.2,0.1,1.8,0.1c1.6,0,2.8-0.5,3.5-1.3c0.3-0.3,0.4-0.7,0.5-1.1c0.1-0.4,0.3-0.7,0.5-0.9c0.3-0.3,0.8-0.5,1.4-0.6
		c0.5-0.1,0.9-0.3,1.4-0.6c0.7-0.4,1.2-1.1,1.6-2c0.4-1,0.5-2.1,0.3-3.2c0,0.3-0.1,0.6-0.1,0.9C194.1,25.8,194,26.1,193.9,26.5z"/>
	<path class="st2" d="M205.1,92.2c1.2,0,2.4-0.1,3.6-0.1C207.5,92.1,206.3,92.2,205.1,92.2c-14.1,0.5-28.8,0.6-42.5,0.1
		c6.2-1.2,12.2-2.9,17.9-5.2c1.2-0.5,2.7-0.7,3.7-1.4c0.2-0.1,0.4-0.3,0.6-0.4c0.1-0.1,0.3-0.2,0.4-0.3c0.4-0.2,0.8-0.5,1.2-0.7
		c0.3-0.2,0.6-0.5,1-0.7c0.4-0.2,0.5-0.6,0.6-0.9c0.2-0.4,0.2-0.8,0.3-1.2c0-0.3-0.1-0.7-0.3-1c-0.2-0.3-0.5-0.6-0.8-0.9
		c-0.3-0.2-0.7-0.4-1-0.6c-0.3-0.2-0.5-0.4-0.8-0.6c-0.6-0.3-1.2-0.6-1.8-0.8c-0.6-0.2-1.3-0.3-2.1-0.5c-1-0.2-2-0.2-3-0.3
		c0,0-0.1,0-0.1,0c-6.6-0.4-13.2-0.1-19.7,0.9c-3.2,0.5-6.4,1.2-9.5,2c-1.6,0.4-3.1,0.9-4.6,1.4c-0.6,0.2-1.1,0.4-1.8,0.4
		c-2,0.1-3.9,0.9-5.8,1.3c-0.9,0.2-1.7,0.4-2.6,0.6c-0.4,0.1-0.9,0.2-1.3,0.3c-0.3,0.1-0.9,0.1-1.1,0.3c1.6-1,3.1-2,4.6-3
		c2.5-1.6,4.9-3.3,7.2-5.1c2.3-1.7,4.6-3.5,6.8-5.4c2.2-1.8,4.4-3.7,6.4-5.7c1-1,2.1-1.9,3.1-2.9c1-1,1.9-2,2.9-2.9
		c0.3-0.3,0.6-0.6,0.8-1c0.2-0.4,0.2-0.8-0.1-1.1c-0.3-0.4-0.9-0.4-1.4-0.2c-0.1,0-0.4,0.2-0.5,0.3c-0.2,0.1-0.3,0.2-0.5,0.3
		c-0.3,0.2-0.7,0.4-1,0.6c-0.6,0.4-1.2,0.8-1.8,1.2c-1.3,0.9-2.5,1.9-3.7,2.9c-1.2,1-2.4,1.9-3.6,2.9c-0.6,0.5-1.2,1-1.7,1.5
		c-0.3,0.2-0.6,0.5-0.9,0.8c-0.8,0.7-1.8,1.4-2.7,2.1c-2.3,1.7-4.8,3.3-7.3,4.8c-1.3,0.8-2.6,1.5-3.9,2.2c-0.7,0.3-1.3,0.7-2,1
		c-0.2,0.1-0.5,0.1-0.7,0.2c-0.3,0.1-0.5,0.3-0.7,0.5c-2,1.6-4.8,2.6-7.6,3.1c-1.1,0.2-2.2,0.2-3.2,0.1c-0.5,0-1-0.1-1.5-0.3
		c-0.3-0.1-0.5-0.2-0.7-0.3c-0.7-0.2-1.3-0.4-1.9-0.8c-1.2-0.8-2-2.1-2.3-3.4c0,0,0,0.1,0,0.1c0.1,1.2,0.7,2.2,1.7,3
		c1,0.8,2.3,1.4,3.8,1.7c1.6,0.3,3.3,0.2,5.1-0.2c1.4-0.3,2.9-0.8,4.7-1.6c6-2.7,11.8-6.2,17.7-10.8c1.5-1.2,3-2.5,4.4-3.7
		c3.2-2.8,6.6-5.7,10.7-7.7c0.6-0.3,1.1-0.4,1.4-0.3c0.2,0.1,0.4,0.4,0.3,0.7c-0.1,0.3-0.3,0.6-0.6,1c-6,6.8-14.9,14.2-27.2,22.4
		c-1.4,0.9-2.8,1.8-4.2,2.7c-1.2,0.4-2.4,0.7-3.6,1.1c-9.2,3-17.8,6.5-25.7,10.6c-0.2,0.1-0.3,0.3-0.2,0.5c0.1,0.2,0.4,0.3,0.7,0.2
		c10-2.1,19.9-6,29.5-11.7c7.7-2.3,15.7-4.2,23.9-5.5c5.1-0.8,10.3-1.4,15.5-1.6c4.1-0.2,9.9,0.3,13.5,1.7c2,0.8,2.9,1.7,2.8,2.7
		c-0.3,1.7-4.1,4-10.7,6.3c-5.5,1.9-11.1,3.3-12.5,3.5c-1.1,0.2-2.2,0.4-3.3,0.5c-1.1-0.1-2.1-0.1-3.1-0.2c-7-0.4-14.2-0.7-21.1-0.3
		c-1.4,0.1-3.7,0.9-4,2.1c-0.1,0.5,0,1.2,1.5,1.8c1.1,0.4,2.3,0.3,3.3,0.3c7.9-0.6,15.8-1.6,23.6-2.8c2.9,0.1,5.8,0.3,8.6,0.3
		c13.6,0.2,26.8,0,39.2-0.7c0.3,0,0.5-0.2,0.5-0.5c0-0.2-0.3-0.4-0.6-0.4c-3.8,0.2-7.6,0.4-11.5,0.5
		C200.1,92.2,202.6,92.2,205.1,92.2z M106.1,94.6c6.9-3.4,14.3-6.3,22-8.8C120.9,89.7,113.6,92.7,106.1,94.6z M137.7,94.9
		c-1,0.1-1.9,0.1-2.6-0.2c-0.5-0.2-1-0.5-0.9-0.8c0.2-0.6,1.9-1.3,3-1.4c2.2-0.1,4.5-0.2,6.8-0.2c4.4,0,8.9,0.2,13.2,0.4
		C150.7,93.6,144.2,94.4,137.7,94.9z"/>
	<path class="st2" d="M113.8,73.2c-1.2,0.8-2.4,1.5-3.6,2.3c-0.7,0.4-1.4,0.9-2.1,1.3c-0.6,0.4-1.4,0.8-1.9,1.3
		c-0.4,0.3-0.6,0.7-1,1c-0.6,0.4-1.3,0.8-2,1c-1,0.4-2.2,0.5-3.2,0.3c-0.6-0.2-1.3-0.6-1.2-1.1c0.1,0,0.3,0.1,0.4,0.1
		c-0.1-0.1-0.2-0.1-0.3-0.1c-0.2,0-0.3,0-0.4,0.1c-8.8,5.5-17.3,11.5-25.5,17.2c-3.6,2.5-7.3,5.1-10.9,7.6c-2,1.4-4.1,2.7-6.1,4
		c-0.7,0.5-1.5,1-2.2,1.4c-1.1,0.7-2.2,1.5-3.3,2.2c-2.5,1.7-5.1,3.4-7.8,4.9c-0.1,0.1-0.3,0.1-0.5,0.3c-0.9,0.5-3.5,2-4.4,2.1
		c-0.1,0-0.2,0-0.2,0c0,0,0-0.1,0.1-0.3c1.1-1.6,2.9-3.2,4.7-4.7c1.9-1.5,4-3.2,6.6-5.3c15.3-12.4,33-25.1,56-40.1
		c7.5-4.9,15.5-9.5,23.2-14c10.7-6.2,21.9-12.7,31.8-19.9c1.1-0.8,2.1-1.6,3.1-2.4c2.2-1.8,4.5-3.6,7.2-4.9c0,0,0,0,0,0
		c0.1-0.1,0.3-0.1,0.5-0.2c0.1,0,0.3-0.1,0.4-0.1c1-0.3,1.8-0.7,2.7-1.1c0.3-0.2,0.6-0.3,1-0.5c0.8-0.4,1.5-0.7,2.2-1.1
		c1.5-0.7,3.1-1.5,4.7-2.1c1.8-0.7,3.4-1.1,4.9-1.3c0.9-0.1,1.7-0.1,2.4-0.1c-0.2,0.1-0.4,0.3-0.7,0.5c-0.1,0.1-0.3,0.3-0.5,0.4
		c-0.3,0.2-0.5,0.4-0.7,0.6c-0.6,0.7-0.6,1.6,0.1,2.1c0.4,0.3,0.9,0.5,1.4,0.6c0.1,0,0.2,0,0.2,0.1c0.3,0.1,0.7,0.2,0.8,0.5
		c0.1,0.2-0.1,0.4-0.2,0.7c-1,1.6-2.1,3.3-3.3,4.8c-0.3,0.4-0.6,0.7-1,0.8c-0.4,0.1-1,0-1.6-0.1c-0.8-0.2-1.7-0.3-2.5,0
		c-0.5,0.2-0.7,0.5-1,0.8c-0.1,0.2-0.3,0.3-0.4,0.5c-0.9,0.2-1.7,0.5-2.4,1c-1.3,0.8-2.2,1.8-2.6,3c0,0.1-0.1,0.2-0.1,0.4
		c0.1-0.1,0.2-0.2,0.3-0.3c0-0.1,0.1-0.3,0.2-0.4c0.6-0.7,1.1-1.5,2-2c1-0.6,2.3-0.8,3.1-1.5c0.5-0.4,0.9-1,1.6-1.2
		c0.9-0.3,1.8,0.2,2.8,0.1c1.5-0.1,2.4-1.2,3.1-2.3c0.2-0.3,0.3-0.5,0.5-0.8c0.1-0.2,0.3-0.3,0.5-0.5c0.4-0.4,0.8-0.9,1.2-1.4
		c0.3-0.4,0.6-0.9,0.5-1.4c0-0.1-0.1-0.3-0.3-0.3c-0.1,0-0.3,0-0.4-0.1c-0.1,0,0-0.1-0.1-0.2c-0.1-0.2-0.4-0.3-0.7-0.4
		c-0.6-0.2-1.3-0.3-1.6-0.8c-0.4-0.6-0.1-1.3,0.5-1.7c0.5-0.4,1.1-0.6,1.8-0.7c0.1,0,0.1-0.1,0.2-0.1l0,0c0.2-0.1,0.5-0.3,0.7-0.5
		c0.1,0,0.2,0,0.2,0.1c0,0,0-0.1,0-0.2c0-0.1-0.1-0.1-0.1-0.2c-0.1-0.1-0.2-0.1-0.3-0.1c-0.1,0-0.2-0.1-0.3-0.1
		c-0.2,0-0.4-0.1-0.6-0.1c-1-0.1-2-0.2-3,0c-1.8,0.2-3.4,0.7-5,1.3c-4.8,1.9-8.7,4.8-13.6,6.5c0.3-0.1,0.5-0.3,0.8-0.4
		c0.3-0.2,0.6-0.4,0.9-0.5c0.6-0.4,1.2-0.7,1.8-1.1c-0.1,0.1-0.3,0.1-0.4,0.1c-0.1,0-0.2,0.1-0.3,0.1c-0.2,0.1-0.5,0.1-0.7,0.2
		c0,0,0,0,0,0c-2.9,1.3-5.2,3.2-7.5,5c-1,0.8-2,1.6-3,2.4c-9.9,7.2-21,13.6-31.7,19.8c-7.7,4.5-15.7,9.1-23.2,14
		c-23,15-40.8,27.7-56.1,40.1c-2.6,2.1-4.7,3.8-6.6,5.3c-1.9,1.5-3.8,3.1-4.9,4.9c-0.3,0.4-0.3,0.9,0,1.2c0.1,0.2,0.5,0.4,1.2,0.4
		c1.1-0.1,3.1-1.1,5-2.3c0.2-0.1,0.3-0.2,0.4-0.2c2.7-1.5,5.4-3.3,7.9-5c1.1-0.7,2.2-1.5,3.3-2.2c0.7-0.5,1.5-1,2.2-1.4
		c2-1.3,4.1-2.6,6.1-4c3.7-2.5,7.4-5.1,10.9-7.6c8.1-5.7,16.5-11.5,25-16.9c0.4,0.4,1,0.6,1.6,0.6c0.1,0,0.3,0,0.4,0
		c2.2,0,4.8-1.7,6.4-2.7c0.2-0.1,0.3-0.2,0.5-0.3l6.2-4C113.7,73.6,113.7,73.2,113.8,73.2z"/>
	<path class="st2" d="M284.1,85.8c-0.3,0.4-0.3,0.9-0.4,1.3c-0.1,0.6-0.1,1.2-0.1,1.9c0,0.4,0.1,0.7,0.2,1.1c0,0.2,0.1,0.3,0.2,0.5
		c0.4,0.9,0.9,1.9,1.5,2.8c0.3,0.4,0.6,0.9,0.9,1.3c0.1,0.1,0.2,0.2,0.2,0.4c0.1,0.4,0.2,0.8,0.3,1.2c0.3,0.8,0.7,1.5,1.1,2.2
		c0.9,1.5,2,2.8,3.2,4.1c0.3,0.3,0.6,0.7,0.9,1c1.3,1.4,2.6,2.9,4,4.3c0.6,0.6,1.1,1.3,1.8,1.8c0.7,0.4,1.1,1,1.7,1.6
		c0.8,0.9,1.6,1.9,2.5,2.8c0.1,0.1,0.2,0.2,0.2,0.3c0.3,0.4,0.7,0.7,1.1,1c0.1,0.1,0.2,0.1,0.2,0.2c0.1,0.1,0.2,0.3,0.3,0.4
		c0.4,0.3,1.2,0.6,1.7,0.4c0.5-0.2,0.5-0.8,0.4-1.2c-0.1-0.7-0.2-1.3-0.2-2c-0.1-0.7,0.1-1.5-0.2-2.2c-0.2-0.8-0.7-1.5-1.2-2.2
		c-0.7-1-1.3-2-2.1-2.9c-0.2-0.3-0.5-0.5-0.8-0.7c-0.2-0.1-0.3-0.3-0.4-0.5c-0.5-0.8-1-1.7-1.6-2.5c-0.8-1.1-1.7-2.2-2.6-3.2
		c-0.5-0.5-1-1-1.4-1.5c-0.4-0.6-0.8-1.1-1.3-1.7c-0.8-1-1.6-2-2.4-3c-0.7-0.8-1.5-1.7-2.2-2.5c-0.2-0.2-0.4-0.4-0.5-0.6
		c-0.7-0.9-1.6-1.6-2.2-2.5c-0.1-0.1-0.2-0.3-0.3-0.4C286.2,86.2,284.7,84.8,284.1,85.8z M297.6,99.7c0.6,0.6,3.1,4.1,5.3,7.7
		c3.7,6.1,3.3,7.7,2.9,8.1c-0.1,0.1-0.2,0.2-0.8,0.2c-0.9-0.1-1.6-0.8-2.1-1.3c-0.5-0.6-1.1-1.2-1.6-1.7
		c-6.1-6.5-11.8-12.7-15.5-20.3l-0.1-0.1c-0.8-1.6-2.5-5-1.2-6.2c0,0,0.1,0,0.1-0.1C288.7,90.1,293,94.6,297.6,99.7z"/>
	<path class="st2" d="M205.1,92.2c1.2,0,2.4-0.1,3.6-0.1C207.5,92.1,206.3,92.1,205.1,92.2z"/>
	<path class="st2" d="M176.7,37.6c-0.3,0.2-0.6,0.3-1,0.4c-0.4,0-0.8-0.2-0.8-0.5c0,0,0-0.1,0-0.1c-0.1,0.1-0.2,0.2-0.3,0.3
		c0,0.5,0.3,0.9,0.8,1c0.3,0.1,0.6,0,0.8-0.1c0.9-1,1.7-2.1,2.5-3.2C178.1,36.2,177.6,37,176.7,37.6z"/>
	<path class="st2" d="M170,92.4c-1.5,0-3.1-0.1-4.7-0.1c2-0.4,7.2-1.7,12.2-3.5c7.2-2.5,11-4.8,11.3-6.9c0.2-1.3-0.9-2.5-3.4-3.5
		c-0.6-0.3-1.3-0.5-2.1-0.7c0.7,0.2,1.3,0.5,1.8,0.8c0.3,0.2,0.5,0.4,0.8,0.6c0.3,0.3,0.7,0.4,1,0.6c0.3,0.2,0.6,0.5,0.8,0.9
		c0.2,0.3,0.3,0.6,0.3,1c0,0.4-0.1,0.8-0.3,1.2c-0.1,0.3-0.3,0.7-0.6,0.9c-0.4,0.2-0.7,0.5-1,0.7c-0.4,0.3-0.8,0.5-1.2,0.7
		c-0.2,0.1-0.3,0.2-0.4,0.3c-0.2,0.1-0.4,0.2-0.6,0.4c-0.9,0.7-2.5,0.9-3.7,1.4c-5.7,2.3-11.6,4-17.9,5.2
		c13.7,0.5,28.5,0.4,42.5-0.1c-2.5,0.1-5,0.1-7.5,0C188.7,92.4,179.5,92.5,170,92.4z"/>
	<path class="st2" d="M116.1,79.9c0.6,0.4,1.2,0.6,1.9,0.8c0.3,0.1,0.5,0.2,0.7,0.3c0.5,0.1,1,0.2,1.5,0.3c1.1,0.1,2.2,0,3.2-0.1
		c2.8-0.4,5.6-1.4,7.6-3.1c0.2-0.2,0.4-0.4,0.7-0.5c0.2-0.1,0.5-0.1,0.7-0.2c0.7-0.3,1.4-0.7,2-1c1.3-0.7,2.6-1.4,3.9-2.2
		c2.6-1.5,5-3.1,7.3-4.8c0.9-0.7,1.9-1.3,2.7-2.1c0.3-0.3,0.6-0.5,0.9-0.8c0.6-0.5,1.2-1,1.7-1.5c1.2-1,2.4-2,3.6-2.9
		c1.2-1,2.5-1.9,3.7-2.9c0.6-0.4,1.2-0.8,1.8-1.2c0.3-0.2,0.7-0.4,1-0.6c0.2-0.1,0.3-0.2,0.5-0.3c0.1-0.1,0.4-0.3,0.5-0.3
		c0.5-0.2,1-0.2,1.4,0.2c0.3,0.3,0.3,0.7,0.1,1.1c-0.2,0.4-0.5,0.7-0.8,1c-1,1-1.9,2-2.9,2.9c-1,1-2,2-3.1,2.9
		c-2.1,1.9-4.2,3.8-6.4,5.7c-2.2,1.8-4.5,3.6-6.8,5.4c-2.3,1.7-4.7,3.4-7.2,5.1c-1.5,1-3.1,2-4.6,3c0.2-0.2,0.8-0.2,1.1-0.3
		c0.4-0.1,0.9-0.2,1.3-0.3c0.9-0.2,1.7-0.4,2.6-0.6c1.9-0.5,3.8-1.2,5.8-1.3c0.7,0,1.2-0.2,1.8-0.4c1.5-0.5,3-1,4.6-1.4
		c3.1-0.9,6.3-1.5,9.5-2c6.5-1,13.1-1.3,19.7-0.9c0,0,0.1,0,0.1,0c1,0.1,2,0.1,3,0.3c-0.9-0.2-1.8-0.3-2.7-0.4
		c-2.3-0.3-4.9-0.4-7.1-0.3c-5.2,0.2-10.5,0.8-15.7,1.6c-7,1.2-14,2.7-20.9,4.7c0.6-0.4,1.1-0.7,1.7-1.1
		c12.4-8.3,21.4-15.6,27.4-22.5c0.3-0.4,0.7-0.8,0.8-1.3c0.1-0.6-0.1-1.3-0.9-1.6c-1-0.4-2.2,0.1-2.5,0.3c-4.2,2.1-7.6,5-10.9,7.9
		c-1.4,1.2-2.9,2.5-4.4,3.7c-5.8,4.5-11.6,8-17.5,10.6c-2.3,1-5.7,2.3-9,1.8c-2.6-0.4-4.4-1.9-4.6-3.9c-0.1-0.7-0.1-1.3,0-2
		c0-0.1,0-0.2,0-0.3c0.1-0.8,0.2-1.3,0.3-1.4c0.2-0.2,0.2-0.4,0.1-0.6c-0.2-0.2-0.6-0.2-0.8,0l0,0v0c0,0,0,0,0,0l-7.7,4.9
		c-0.1,0.1-0.3,0.2-0.5,0.3c-1.4,0.9-4.1,2.7-5.9,2.5c-0.5-0.1-0.9-0.3-1.2-0.6c0,0-0.1-0.1-0.1-0.1c-0.1,0-0.3-0.1-0.4-0.1
		c-0.1,0.5,0.6,0.9,1.2,1.1c1.1,0.3,2.2,0.1,3.2-0.3c0.7-0.3,1.4-0.6,2-1c0.4-0.3,0.6-0.7,1-1c0.5-0.5,1.3-0.9,1.9-1.3
		c0.7-0.4,1.4-0.9,2.1-1.3c1.2-0.8,2.4-1.5,3.6-2.3c-0.1,0,0,0.4,0,0.7l0.1-0.1c0,0.1,0,0.3-0.1,0.4c0,0,0,0.1,0,0.1
		c0,0.3,0,0.5-0.1,0.7c0,0.5,0,1,0,1.5C114,77.8,114.9,79.2,116.1,79.9z M115.3,72.9C115.3,72.9,115.3,72.9,115.3,72.9
		C115.3,72.9,115.3,72.9,115.3,72.9z M115.3,72.9C115.3,72.9,115.3,72.9,115.3,72.9C115.3,72.9,115.3,72.9,115.3,72.9z"/>
	<path class="st2" d="M191.9,20.8c-0.2-0.1-0.4-0.2-0.6-0.2c0,0,0,0,0.1-0.1c0.1-0.1,0.1-0.1,0.2-0.2c-0.1,0.1-0.3,0.2-0.4,0.3
		c0.2-0.4,0.2-0.9,0-1.3c-0.2,0.2-0.5,0.4-0.7,0.6c-0.1,0.1-0.2,0.2-0.4,0.3c-1-0.1-2.2-0.1-3.7,0c-1.7,0.2-3.4,0.6-5.3,1.3
		c-1.7,0.6-3.3,1.4-4.8,2.2c-0.7,0.4-1.5,0.7-2.2,1.1c-0.3,0.2-0.7,0.3-1,0.5c-0.7,0.3-1.3,0.7-2,0.9c-0.6,0.4-1.2,0.7-1.8,1.1
		c-0.3,0.2-0.6,0.4-0.9,0.5c-0.2,0.1-0.5,0.4-0.8,0.4c4.9-1.6,8.9-4.6,13.6-6.5c1.6-0.6,3.3-1.1,5-1.3c1-0.1,2-0.1,3,0
		c0.2,0,0.4,0.1,0.6,0.1c0.1,0,0.2,0,0.3,0.1c0.1,0,0.2,0,0.3,0.1c0,0.1,0.1,0.1,0.1,0.2c0,0.1,0,0.1,0,0.2c0.2,0.1,0.4,0.1,0.5,0.2
		c0.5,0.3,0.9,0.7,1.3,1.4c0.8,1.4,0.9,3.1,0.4,4.6c-0.3,0.8-0.6,1.3-1.2,1.6c-0.3,0.2-0.7,0.3-1.1,0.4c-0.7,0.2-1.3,0.4-1.8,0.9
		c-0.4,0.4-0.6,0.8-0.7,1.2c-0.1,0.3-0.2,0.6-0.4,0.8c-0.4,0.5-1.4,0.8-2.5,0.9c-0.5,0-1.1,0-1.6-0.1c-0.5,0-1.1-0.1-1.7-0.1
		c0,0-0.1,0-0.1,0c-0.2,0-0.3,0-0.5,0c0.1-0.2,0.3-0.3,0.5-0.4c0.4-0.2,1-0.1,1.6,0.1c0.7,0.1,1.5,0.3,2.3,0.1
		c0.7-0.2,1.1-0.7,1.5-1.2c1.3-1.6,2.4-3.2,3.4-4.9c0.2-0.3,0.4-0.7,0.3-1.2c-0.2-0.5-0.7-0.8-1.5-1.1c-0.1,0-0.2,0-0.3-0.1
		c-0.4-0.1-0.7-0.2-0.9-0.4c-0.3-0.3-0.3-0.8,0-1.1c0.2-0.2,0.4-0.3,0.6-0.5c0.2-0.2,0.4-0.3,0.6-0.5c0.1-0.1,0.2-0.2,0.3-0.2
		c-0.7,0.1-1.3,0.3-1.8,0.7c-0.6,0.4-0.9,1.2-0.5,1.7c0.3,0.5,1,0.6,1.6,0.8c0.2,0.1,0.5,0.2,0.7,0.4c0,0.1,0,0.2,0.1,0.2
		c0.1,0.1,0.3,0.1,0.4,0.1c0.2,0,0.3,0.2,0.3,0.3c0.1,0.5-0.2,1-0.5,1.4c-0.4,0.5-0.8,0.9-1.2,1.4c-0.2,0.2-0.4,0.3-0.5,0.5
		c-0.2,0.3-0.3,0.5-0.5,0.8c-0.7,1-1.6,2.2-3.1,2.3c-0.9,0-1.9-0.4-2.8-0.1c-0.7,0.2-1,0.8-1.6,1.2c-0.8,0.7-2.1,0.9-3.1,1.5
		c-0.9,0.5-1.4,1.3-2,2c-0.1,0.1-0.2,0.3-0.2,0.4c1-1.1,2.1-2.2,3.7-2.7c0.1,0,0.1-0.1,0.2-0.1c0,0,0,0,0,0c0.2,0,0.4-0.1,0.6-0.1
		c-0.2,0.3-0.4,0.6-0.6,0.9c0,0,0.1-0.1,0.1-0.1c0.2-0.2,0.3-0.3,0.6-0.5c0.2-0.1,0.3-0.3,0.4-0.5c0.2-0.2,0.3-0.4,0.5-0.5
		c0.1-0.1,0.2-0.2,0.3-0.2c0.1-0.1,0.3-0.1,0.5-0.1c0.5,0,1.1,0,1.6,0.1c0.2,0.1,0.4,0,0.6,0c0.3,0,0.6,0,0.9,0
		c0.3,0,0.5,0.1,0.7,0.1c0.7,0.2,1.3-0.1,1.9-0.4c0.5-0.3,1-0.7,1.4-1.1c0.4-0.4,0.8-0.8,1-1.2c0.2-0.4,0.2-0.7,0.6-0.9
		c0.3-0.1,0.6-0.2,0.9-0.3c0.6-0.2,1.3-0.3,1.9-0.6c1.1-0.7,1-1.8,1.3-2.8c0.1-0.4,0.2-0.8,0.3-1.2c0-0.3,0.1-0.6,0.1-0.9
		c-0.1-0.7-0.3-1.3-0.7-1.9C193.1,21.7,192.6,21.2,191.9,20.8z"/>
	<path class="st2" d="M210.2,25.1c0.3,0.2,0.7,0.5,1,0.7c0.3,0.2,0.5,0.4,0.7,0.6c0.7,0.5,1.5,0.9,2.3,1.3c0.5,0.2,1.1,0.5,1.6,0.3
		c0.6-0.3,0.6-1,0.5-1.5c-0.1-0.4-0.2-0.9-0.3-1.3c0-0.1,0-0.3,0.1-0.5c0.1-0.1,0.2-0.3,0.3-0.3c0.4-0.3,1-0.2,1.5,0.1
		c0.3,0.1,0.5,0.3,0.7,0.5c0.2,0.2,0.3,0.4,0.6,0.4c0.3,0.1,0.4,0.2,0.6,0.4c0.1,0.1,0.1,0.1,0.2,0.2c0.4,0.3,0.9,0.7,1.3,0.9
		c-0.2-0.3-0.4-0.8-0.6-1.2c0,0-0.1-0.1-0.1-0.1c-0.5-0.5-1.3-1.2-2.2-1.7c-0.3-0.1-0.7-0.2-1.1-0.3c-0.4,0-0.7,0-1.1,0.2
		c-1.1,0.5-0.6,1.8-0.3,2.6c0.1,0.2,0.1,0.4,0.2,0.5c0,0.2,0.1,0.5-0.2,0.7c-0.2,0.1-0.7,0.1-1.1-0.1c-2-0.8-3.6-2.2-5.1-3.6
		c-0.3-0.3-0.6-0.5-0.9-0.8c-0.2-0.1-0.3-0.3-0.4-0.4c1.1,0.4,2.4,0.7,3.7,0.3c0.3-0.1,0.4-0.3,0.3-0.5c-0.1-0.1-0.2-0.2-0.4-0.3
		c-0.1,0-0.2-0.1-0.2-0.1c-0.1,0-0.1,0-0.1-0.1c-0.2-0.1-0.3-0.2-0.5-0.3c-1-0.5-1.9-1.2-2.9-1.9c-0.1,0-0.1-0.1-0.2-0.1
		c-0.3-0.1-0.6-0.3-0.9-0.4c-0.5-0.1-0.9-0.2-1.4-0.5c-1.1-0.6-2.1-1.3-3.2-1.9c-0.9-0.4-2.1-0.3-3.1-0.2c-1.7,0.2-3.9,0.3-5.2,1.3
		c-0.4,0.3-0.6,0.6-0.9,1c0,0.1-0.1,0.1-0.1,0.2c2.4-1.4,5.4-2.1,8.1-1.8c2.4,0.3,4.3,1.7,6.2,3.1c0.9,0.7,1.7,1.3,2.6,1.8
		c-0.5-0.1-1-0.3-1.6-0.4c-0.1,0-0.2,0-0.2-0.1c0,0-0.1,0-0.1,0c-0.3-0.1-0.6-0.2-1-0.2c-0.2,0-0.4,0.2-0.5,0.3
		c-0.1,0.1-0.1,0.3,0.1,0.5c0,0,0,0,0,0C207.9,23.2,209,24.2,210.2,25.1z"/>
	<path class="st2" d="M174.9,37.5c0,0.3,0.4,0.5,0.8,0.5c0.4,0,0.7-0.2,1-0.4c0.9-0.6,1.4-1.4,2-2.1c0.2-0.3,0.4-0.6,0.6-0.9
		c-0.2,0-0.4,0.1-0.6,0.1c-0.9,1.2-1.7,2.3-2.9,3.1c-0.1,0-0.1,0.1-0.1,0.1c0-0.1,0-0.2,0-0.3c0.4-1.2,1.5-2.2,2.8-2.9
		c-1.5,0.5-2.6,1.6-3.7,2.7C174.9,37.4,174.9,37.5,174.9,37.5z"/>
</g>
</svg>
