<svg width="40" height="40" viewBox="0 0 40 40" fill="none" xmlns="http://www.w3.org/2000/svg">
<circle cx="20" cy="20" r="20" fill="#0473BD"/>
<path d="M19.5629 29.6919C19.6681 29.808 19.7691 29.8839 19.8667 29.9365C19.8684 29.9382 19.8709 29.9382 19.8717 29.939C19.9393 29.974 20.0053 29.9999 20.0679 29.9999C20.1305 29.9999 20.1964 29.9732 20.2648 29.939C20.2657 29.9382 20.269 29.9382 20.2698 29.9365C20.3675 29.8839 20.4693 29.8088 20.5745 29.6919C20.5745 29.6919 26.3937 23.3636 26.9788 17.8799C27.0139 17.597 27.0372 17.3098 27.0372 17.0185C27.0372 13.1424 23.8948 9.99992 20.0186 9.99992C16.1425 9.99992 13 13.1424 13 17.0185C13 17.3148 13.0242 17.6045 13.0601 17.8916C13.6602 23.3728 19.5629 29.6919 19.5629 29.6919ZM20.0186 12.5039C22.5076 12.5039 24.5333 14.5296 24.5333 17.0185C24.5333 19.5075 22.5076 21.5332 20.0186 21.5332C17.5297 21.5332 15.504 19.5075 15.504 17.0185C15.504 14.5296 17.5297 12.5039 20.0186 12.5039Z" fill="white"/>
</svg>
