<svg xmlns="http://www.w3.org/2000/svg" viewBox="0 0 3260 1670"><path fill="#69a6c2" d="M3225 1256c-4-5-10-6-15-2-114 86-259 72-428 55-167-16-357-35-553 44-161 65-263 114-346 154-99 48-160 78-245 95c69-28 139-62 191-89c54-28 95-59 130-98c35-39 63-86 89-148c26-61 39-107 56-165c15-49 31-105 60-185c16-46 24-89 23-127c0-6 0-12-1-17c29-33 45-72 49-112c4-42-8-86-33-125-26-42-67-78-120-109-183-105-206-132-282-223l-8-9c-51-61-117-107-190-132-78-27-160-28-239-4-71 22-127 61-164 117-29 43-46 94-53 153-5 44-14 79-23 110-14 49-25 88-7 138c15 42 56 60 95 78c41 19 77 35 78 75c1 46-28 72-61 102-33 29-67 60-75 113-6 45 4 83 14 120c14 55 28 106-13 174-47 78-151 127-293 139-159 13-354-21-563-99-60-22-122-47-188-74l-3 7-2 6-3 7c66 26 129 51 189 74c180 68 354 103 501 103s49 0 71-3c122-10 218-48 277-107-3 16-6 29-8 40-5 23-8 37-6 59v30c-1 10-2 18 1 29c10 33 15 47 32 69c23 30 41 51 62 66c19 14 40 25 75 37c44 15 110 25 166 25h23c16-3 35-7 55-12c19 0 38-2 56-5c54-7 99-19 148-37c46-17 91-39 149-67c82-40 184-89 344-153c192-77 378-59 543-43c85 8 165 16 239 11c84-6 149-28 204-70c5-4 6-10 2-15zm-2019-109c0-31-8-60-15-88-9-35-19-71-13-112c6-45 37-73 68-100c18-16 34-30 47-49c15-21 22-44 21-70c0-24-11-44-31-61-17-14-38-23-60-34-35-16-71-33-84-66-16-43-6-77 7-125c9-31 19-67 24-113c10-90 53-206 202-251c146-44 302 5 406 129l8 9c78 93 101 121 287 228c97 56 149 133 142 213-3 31-13 59-32 86-5-20-13-39-24-55-33-48-91-74-168-75-99-1-154-10-193-29-37-18-57-46-85-94-9-16-16-33-22-49-12-30-24-59-49-75-19-12-41-12-57 1-17 13-23 36-16 58-18-9-42-14-74-14-25 0-48 2-71 5-59 7-111 13-165-37-3-3-8-4-12-2-4 2-6 6-6 10c2 59 12 100 31 132c18 30 45 54 92 82c36 21 42 44 50 75c2 7 4 14 6 22c4 14 11 23 22 27c17 7 37-4 51-11c4-2 6-2 8-2c3 0 7 4 12 13-28-2-55 1-79 10-70 26-100 73-114 109-15 41-15 88-1 126c4 11 7 20 9 28-4 0-8 2-12 3-18 6-33 15-45 27-18 19-26 40-25 64c1 17 7 35 18 56-28 31-59 67-81 110-1 2-2 5-4 7-4-2-7-4-12-4h-2c4-5 7-10 10-16c21-34 31-68 31-103zm452-211c-3 15-5 28 0 54c6 29 3 52-8 67-9 12-24 20-44 23-42 6-85-25-116-48-4-3-8-6-11-8-34-24-65-25-99-27h-32c-2-10-6-20-10-32-23-62-6-168 102-207c17-6 36-10 56-10c37 0 75 12 107 33c37 24 59 57 61 89c2 34-2 51-4 65zm-109 531c3 2 5 4 8 5-32 24-71 50-110 55-61 9-93-35-114-63-16-21-30-32-46-45-9-7-17-14-28-23-6-6-12-11-16-16-13-13-22-22-33-22s-5 0-8 2c-6 2-11 7-13 13c0-2-1-4-1-7-1-9 0-23 2-36c2-14 3-28 2-39c19-46 52-87 83-121c0 1 2 2 2 3c14 20 28 35 42 43c11 6 31 9 61 7c6 0 11 0 17-1h3c14-1 30-2 54-3c19 0 27-9 31-16h42c-16 21-38 57-42 122-4 59 19 109 64 140zm-263-340l-8 8c-18-37-16-64 6-88c11-11 26-19 45-24c4 36-8 65-44 103zm250 19s5-3 17-1c6 3 8 7 8 7c0 0-4 2-11 1l-13-2c-2-3-2-5-2-5zm-51-46c6-4 11-11 11-22v-5c4 2 9 6 14 8c3 2 7 4 11 7c20 12 31 17 42 22c4 2 9 4 14 6c9 4 11 9 11 10c0 1-6 3-16 0-4-1-8-2-11-3-2 0-4-2-7-2-37-10-52-15-67-22zm-10-21c0 2-2 4-11 8-5 2-12 5-13 13h-2l2 2c0 9 9 12 15 14l8 3c12 5 23 9 44 15c0 1-1 2-2 3-2 3-2 7-2 11h-6c-5-2-11-3-17-4-35-6-50-12-71-21-7-3-14-6-23-10-6-2-19-8-26 0l-11-2l8 8c-3 10 9 19 14 21c16 11 25 17 66 21c20 2 39 5 56 7c16 3 24 7 26 12c0 1-5 4-13 3h-39c-3 0-6 1-8 4-1 2-2 3-3 5-2 4-3 7-14 7-25 0-41 2-55 3-7 0-13 0-20 1-36 2-47-3-50-5-11-6-23-18-35-36-2-3-4-5-5-8l12-13c29-32 45-58 49-86c2-11 2-23 0-35h27c33 2 59 3 87 23c3 2 6 4 10 7h1c1 2 3 3 4 4-6 6-7 16-6 25zm445-4c4 26 7 52 7 78c0 49-25 76-48 86-21 9-44 4-61-12-12-12-28-36-30-83-2-46 10-103 34-168c13-35 17-68 12-97-4-26-16-50-35-71-29-33-70-56-110-76c1-2 2-4 3-7c13-27 20-58 20-91c0-38-8-76-25-114-22-49-51-64-73-75-14-7-24-12-28-24-5-14-2-29 9-37c9-7 20-7 32 0c19 12 29 37 41 65c7 17 14 34 24 51c29 51 53 82 94 103c42 21 100 30 202 31c69 1 121 24 150 66c12 18 21 39 24 64-29 31-71 57-121 75-35 13-62 28-82 46-19 17-32 35-39 58-14 40-8 84-2 130zm-342-344h-7c-4 0-7-1-8-10c0-4-3-7-7-8-4-1-7 0-10 2-8 6-12 7-14 7l-2-2c-7-14-16-22-25-24-8-2-16-1-24 3-10 5-25 13-32 10-4-2-7-6-9-13l-6-21c-8-32-16-63-60-88-70-41-103-76-111-171c22 16 46 25 72 29c30 4 59 0 90-3c22-3 45-5 68-5c42 1 68 9 80 24c8 10 9 25 4 45-12 51-19 93-15 128c5 39 24 68 61 90c10 6 22 12 35 18-7 7-14 12-22 13-7 1-14 0-19-6-14-15-25-17-35-17h-5zm20-221c5-19 5-35 0-48c3 1 5 3 8 4c21 10 44 22 63 64c29 65 31 135 5 187-1 2-2 4-4 7-14-7-27-13-37-19-62-37-61-90-36-195zm0 957c13-10 25-21 37-31c56-47 113-96 168-106c9-2 17-3 23-3c10 0 23 2 26 11c4 12-6 34-25 56-22 26-53 49-85 63-48 21-100 24-144 9zm-449-77c-1-19 0-30 6-53c2-10 5-23 8-40c1-6 3-9 3-10c0 0 2 1 2 4-7 19-12 39-15 57-4 33 0 66 13 97c13 34 35 65 65 92c28 25 63 47 102 63c23 10 48 18 74 23-38-4-77-11-105-21-61-21-79-34-127-96-14-18-19-29-29-62-2-7-1-12 0-21c0-8 2-19 1-34zm193 191c-77-32-132-82-155-143-4-12-8-23-10-35c6 11 14 22 23 36c5 9 11 17 17 26c12 18 24 20 32 16c6-3 11-12 6-25-5-12-15-23-25-35-4-4-7-8-11-13-9-11-12-22-11-27v-1c3 0 12 9 18 15l16 16c11 10 20 17 29 24c15 12 28 22 42 41c20 27 55 73 116 73s12 0 19-1c47-7 93-38 129-66c20 9 42 14 65 15c36 2 73-5 107-20c35-16 69-41 93-69c25-29 35-57 29-77-4-11-13-20-26-24-12-4-28-3-48 0-61 12-120 62-178 111-14 12-30 25-45 37-5-3-10-6-14-9-39-27-58-70-55-121c4-69 30-101 46-119c9-10 15-18 13-27c0-2-1-5-2-7c11-2 18-10 20-18v-7c14 0 22-8 25-16c3-9 0-21-11-31h11c26-3 46-14 59-31c15-20 19-49 12-84-4-22-2-32 0-46c3-15 6-34 4-70c0-20-8-40-21-59-9-13-20-25-34-36h10c10-2 25-7 39-24c39 19 79 41 106 72c35 40 41 87 18 146-26 68-38 127-36 176c2 54 21 83 36 97c23 22 55 28 84 16c18-7 33-21 43-38c12-19 18-42 18-68c0-27-3-55-7-81-6-43-12-84 0-119c14-40 48-68 109-90c47-17 86-40 116-68c0 35-6 74-21 116-29 81-46 137-60 186-17 57-30 102-56 163-48 116-109 183-209 235-79 40-194 96-284 121-69 2-136-10-195-34z"/></svg>