<svg width="40" height="40" viewBox="0 0 40 40" fill="none" xmlns="http://www.w3.org/2000/svg">
<circle cx="20" cy="20" r="20" fill="#0473BD"/>
<path fill-rule="evenodd" clip-rule="evenodd" d="M19.6538 10.0008C22.2845 10.0848 24.8733 11.137 26.8726 13.1157L26.8726 13.1157C28.8513 15.115 29.9036 17.7038 29.9661 20.3345C29.9874 20.8187 29.5665 21.2182 29.0823 21.1763C28.6409 21.1549 28.3252 20.7973 28.3038 20.3764C28.2405 18.187 27.3568 15.9988 25.6732 14.3151C24.0108 12.6314 21.8217 11.7477 19.6119 11.663C19.191 11.6425 18.8334 11.3054 18.812 10.8845C18.7701 10.4003 19.1696 9.97941 19.6538 10.0008ZM24.0531 23.5751L26.6204 25.5958L26.6202 25.5956C27.0625 25.9532 27.2096 26.5426 26.9778 27.0679C26.6835 27.7626 25.6526 29.004 25.3156 29.341C23.4634 31.2147 19.1909 28.8995 15.1505 24.8378C11.1101 20.776 8.79508 16.525 10.6472 14.6514C10.9843 14.3152 12.2257 13.2835 12.9203 12.9892C13.4251 12.7787 14.0359 12.9259 14.3935 13.3682L16.4142 15.9355C16.8351 16.4616 16.7504 17.2188 16.2457 17.661L16.2137 17.6892C15.705 18.1375 15.3594 18.4421 15.2772 18.5242C14.4979 19.3027 15.6135 20.9025 17.339 22.6289C19.0656 24.3544 20.6858 25.4905 21.4643 24.712C21.5362 24.6542 21.6966 24.4691 21.9385 24.1899L21.9386 24.1898L21.9386 24.1898L21.9388 24.1897L21.9389 24.1895C22.0511 24.06 22.1809 23.9103 22.3275 23.7436C22.769 23.238 23.5269 23.1542 24.0531 23.5751ZM19.2759 17.4298C19.2332 16.8609 19.7593 16.44 20.3068 16.5666L20.3068 16.5667C21.0434 16.7352 21.7381 17.1142 22.3061 17.6822C22.8742 18.2503 23.2532 18.9449 23.4012 19.661C23.5269 20.2076 23.106 20.7338 22.538 20.6918C22.159 20.6705 21.8638 20.4181 21.78 20.0605C21.6748 19.619 21.4438 19.1981 21.1067 18.8611C20.7705 18.5249 20.3496 18.293 19.9073 18.1878C19.5702 18.0826 19.2973 17.7874 19.2759 17.4298ZM25.8626 20.9444C26.3673 20.9863 26.7882 20.5449 26.7463 20.0393C26.5991 18.3556 25.8831 16.6935 24.5999 15.4093C23.3158 14.1252 21.6536 13.41 19.9699 13.2629C19.4652 13.221 19.0229 13.6419 19.0648 14.1466C19.0862 14.5462 19.4019 14.8832 19.8228 14.9251C21.1488 15.0304 22.432 15.5984 23.4219 16.6088C24.4323 17.6191 24.979 18.9023 25.1056 20.2079C25.1056 20.6074 25.4418 20.9231 25.8627 20.9445L25.8626 20.9444Z" fill="white"/>
</svg>
