<svg width="330" height="170" viewBox="0 0 330 170" fill="none" xmlns="http://www.w3.org/2000/svg">
<path d="M-2.2124 168.773H127.887C131.381 168.773 133.907 165.434 132.956 162.071L98.1099 38.7551C96.7626 33.9864 99.522 29.0259 104.284 27.6571L191.071 2.70962C195.832 1.34082 200.804 4.07843 202.194 8.83459L238.381 132.654C239.787 137.465 236.992 142.498 232.165 143.847L150.741 166.603C147.841 167.413 144.841 165.686 144.085 162.771C143.344 159.91 145.049 156.986 147.904 156.222L212.251 139.018C216.799 137.802 219.428 133.053 218.044 128.553L215.168 119.203C213.826 114.84 209.215 112.378 204.844 113.69C192.69 117.337 170.133 124.107 163.718 126.038C154.802 128.722 143.981 133.83 145.28 129.761C146.06 127.337 154.369 113.138 150.734 111.32C147.099 109.502 145.108 122.191 142.77 122.749C140.432 123.306 139.307 120.324 137.403 122.316C135.499 124.307 139.775 127.301 142.002 128.504C144.23 129.707 144.242 133.571 138.961 132.619C137.334 132.013 135.914 130.714 135.222 128.636L131.139 113.775L204.427 92.6961C206.112 92.2115 207.07 90.44 206.556 88.7644L205.48 85.2672C204.975 83.6218 203.236 82.6926 201.587 83.1874C192.131 86.0246 162.98 94.7721 155.541 97.0119C146.625 99.6957 135.804 104.804 137.103 100.735C137.882 98.3107 146.192 84.1123 142.557 82.2943C138.921 80.4764 136.93 93.1651 134.593 93.7227C132.255 94.2802 131.13 91.2985 129.226 93.2898C127.321 95.281 131.597 98.2753 133.825 99.4781C136.053 100.681 136.065 104.545 130.784 103.593C129.157 102.987 127.737 101.688 127.045 99.6102L123.033 85.3019C123.033 85.3019 181.685 68.6026 195.998 64.55C197.689 64.0714 198.655 62.2954 198.138 60.6154L197.198 57.5585C196.696 55.9264 194.98 54.9964 193.338 55.4691C183.886 58.1898 154.575 66.6342 147.127 68.8762C138.211 71.56 127.39 76.6679 128.689 72.5991C129.468 70.1749 137.778 55.9765 134.143 54.1586C130.507 52.3406 128.516 65.0294 126.179 65.5869C123.841 66.1445 122.716 63.1628 120.812 65.154C118.907 67.1453 123.183 70.1395 125.411 71.3424C127.639 72.5453 127.651 76.409 122.37 75.4569C122.37 75.4569 120.301 74.9643 119.571 73.119C119.091 71.9066 112.761 49.2239 112.761 49.2239C112.761 49.2239 164.874 33.4672 170.154 31.8218C175.434 30.1772 176.3 24.5493 169.548 25.9343C162.829 27.3127 116.73 44.4729 118.128 40.0465C121.355 31.1721 132.411 30.2635 134.835 26.3672C137.259 22.471 134.309 22.9039 134.316 19.0084C134.49 14.1601 137.606 14.3334 138.837 10.6629C139.29 9.41647 137.952 2.90506 143.406 1.43301C151.889 0.307577 149.552 6.71426 155.871 8.44592C162.969 10.4372 159.615 15.7708 163.707 18.3159C167.113 19.9089 178.012 15.4367 184.188 20.1258C186.013 21.5115 188.223 22.2962 190.514 22.2962H329.625" stroke="#69A6C2" stroke-width="1.04686" stroke-miterlimit="10"/>
</svg>
