<?xml version="1.0" encoding="utf-8"?>
<!-- Generator: Adobe Illustrator 27.4.1, SVG Export Plug-In . SVG Version: 6.00 Build 0)  -->
<svg version="1.1" id="Layer_1" xmlns="http://www.w3.org/2000/svg" xmlns:xlink="http://www.w3.org/1999/xlink" x="0px" y="0px"
	 viewBox="0 0 326 167" style="enable-background:new 0 0 326 167;" xml:space="preserve">
<style type="text/css">
	.st0{fill:#69A6C2;}
</style>
<path class="st0" d="M326,151c-0.7,0-62.9,0.1-75.2,0.5c0.1-2.1,0.2-4.1,0.2-6.1c0.2-5.1,0.3-9.8,1.1-13.6
	c0.6-3.7,2.1-15.6-0.8-19.2c3.2-2.4,1.5-7.2,0.4-10.5c-0.1-0.4-0.3-0.8-0.4-1.2c-0.6-1.5-0.8-3.1-0.9-4.7c0.3-0.3,0.5-0.6,0.8-1
	c2.5-2.9,5.6-6.5,5.6-10c-0.3-4.1-1.2-8.1-2.1-12c-0.7-2.8-1.3-5.7-1.7-8.6c-1.2-8.6-3.7-10.3-9.8-14.4l-0.1-0.1
	c1-1.1,1.9-2.8,2.5-5.1c0-0.1,0-0.1,0-0.2c0-2.2-0.8-4-2.4-5.4c-4-3.4-11.7-2.6-14.1-2.3c-0.2,0-0.3,0-0.5,0
	c-0.1-0.4-0.2-0.9-0.2-1.5c0-0.8,0-1.5,0-2.3c0-1.1,0.1-2.3-0.1-3.4c-0.3-2.9-2-5.5-4.6-7.3c-2.9-1.9-6.6-2.5-9.8-1.6
	c-0.6,0.2-1.2,0.5-1.7,0.7c-0.7,0.3-1.3,0.7-1.9,0.7c-0.3,0-0.6,0-0.9,0c-1.3,0.1-2.6,0.1-4,1.2c-1.2,1-2.1,2.1-2.7,3.2
	c-0.7-4.8-3.6-9.3-8.8-10.5l-0.5-0.1c-3.6-0.9-7.7-1.9-10.6,2.1c-0.3,0.4-1,0.4-1.8,0.4c-0.7,0-1.5,0-2.1,0.3
	c-0.4,0.2-0.8,0.3-1.2,0.5c-0.3,0.1-0.5,0.2-0.8,0.3c-0.1-0.6-0.2-1.3-0.3-1.9c-1-4.7-4.2-9.8-10-10.3c-0.7-0.1-1.3-0.1-1.9,0
	c-0.3,0-0.6,0.1-0.9,0.1c-2.6-1-6.3-1.7-9.4,0.4c-4.4,3.3-8,9.4-7.3,15.7c-0.4,0.1-0.8,0.4-1,1.1c0,0,0,0.1,0,0.1
	c-0.3,2-0.7,6.6,2.2,8.6c-0.1,3.4-0.6,4.4-0.9,4.7c-0.3,0.2-1.1-0.1-1.9-0.4c-1.6-0.6-3.8-1.5-6.3-0.1c-0.3,0.2-0.4,0.5-0.3,0.8
	c0.1,0.3,0.4,0.5,0.7,0.5c3.8-0.2,8,1.4,11.3,4.6c5,5.2,8.1,4,11.7,2.5c1.5-0.6,3.2-1.3,5.2-1.6c-0.6,0.7-1.3,1.6-1.9,2.4
	c-0.1-0.4-0.3-0.8-0.7-1c-0.4-0.2-1-0.4-1.9,0.2c-0.1,0.1-0.2,0.2-0.3,0.4c-0.5,1.3-1.3,2.4-2.3,3.5c-0.6,0.7-1.3,1.5-1.8,2.4
	c-0.8,1.6-0.8,3.4-0.7,5c0,0.4,0,0.9,0,1.2c-1.5,10.5-12.8,16.8-19.6,19.8c-4.1-3.1-7.1-8.1-10-13c-0.9-1.5-1.8-3-2.7-4.4
	c-1.3-3-3.9-4.5-7-4.1c-7,0.1-14,1.2-20.7,3.2l-0.6,0.2c-3.3,0.9-7,2-10,0.6c-0.9-0.4-1.5-1.3-2.3-2.2c-0.7-0.8-1.3-1.7-2.3-2.3
	c-0.5-0.3-1-0.8-1.3-1.5c1.1-1.9,2.5-3.7,4.3-5.4c0.8-0.7,1.7-1.2,2.7-1.6c1.6,1.6,3.3,3.1,6.4,2.1c4.5-1.3,8.9-3.4,13.2-5.3
	c8.6-4,16.7-7.7,26.2-6.3l0.3,0c0.7,0.1,1.5,0.2,2.3,0.1c0.3,0,0.6-0.2,0.8-0.6c0.7-1.3-1-5.6-1-5.7c-2.1-4.4-6.9-7.6-11.8-7.9
	c-0.3,0-0.6,0-0.8,0c-0.4,0-0.4,0-0.8-0.3l-0.2-0.1c-2.6-1.7-5.6-1.9-8.3-0.7c-3.4,1.5-6,5-6.5,8.9c-0.4,1.1-0.6,2.2-0.8,3.3
	c-0.3,1.4-0.6,2.8-1.1,4c-2,4.2-6.3,4.8-10.8,5.4c-2.1,0.3-4.3,0.6-6.3,1.2c-0.3-0.3-0.6-0.5-0.9-0.8c-1.3-1.3-2.4-1-3.2-0.8
	c-0.7,0.2-1.2,0.3-2.1-0.1c-0.1-0.1-0.3-0.1-0.5,0c-1.1,0.3-1.5,1-1.7,1.5c-0.2,0.3-0.2,0.5-0.4,0.6c-0.9,0.1-2.8,0.5-3.3,2.3
	c-0.1,0.4-0.3,0.8-0.4,1.2c-0.3,0.6-0.5,1.2-0.6,2l0,0.2c-0.4,2.2-0.5,4.4,0.6,5.3c0.4,0.3,1,0.6,2,0.2c0.1,0,0.2-0.1,0.3-0.2
	c-2.5,6.7-2.1,14.4-1.8,21.9c0.2,4.1,0.4,8,0.1,11.7c0,0.1,0,0.1,0,0.2c1.3,7.8-1,15-2.8,20.8c-1.7,5.4-3.1,9.7-1,12.6
	c0.2,0.3,0.5,0.7,0.9,1c-0.5,0.7-0.8,1.7-1,3c-1.8,5.7-2.4,11.9-1.9,18.2c0.1,1.1,0.2,2.2,0.4,3.3c-6.3,0-18.2,0.1-30.7,0.2
	C23.9,150.9,5.9,151,0.6,151c-0.4,0-0.7,0.3-0.7,0.7s0.3,0.7,0.7,0.7c5.3,0,23.3-0.1,40.7-0.2c12.6-0.1,24.8-0.2,30.9-0.2
	c0,0,0.1,0,0.1,0c0.2,0.7,0.5,1.5,1,2.2c1.2,2.1,3.7,3.9,6.5,3.5c0.2,0,0.4-0.2,0.5-0.4c1.1-2.1-0.3-4.6-2.2-5.7
	c-1.4-0.8-3.1-1-4.7-1c-0.3-1.2-0.4-2.4-0.5-3.5c-0.5-6.1,0.1-12.1,1.9-17.7c0.2-1.1,0.5-2,0.8-2.5c1.9,1.1,4.8,1.6,8.7,1.7
	c0.3,0,0.6,0,0.9,0.1c1.3,0.1,3,0.3,4-0.4c0.6-0.5,0.8-1.3,0.5-1.9c-0.4-0.8-1.4-1.1-2.2-0.9c-2.3,0.4-4.5-0.1-6.5-0.6
	c-2.2-0.5-4.1-1-5.6,0c0,0,0,0-0.1,0c-0.3-0.2-0.5-0.5-0.7-0.7c-1.7-2.3-0.4-6.3,1.2-11.3c1.9-5.9,4.2-13.2,2.9-21.4
	c0.2-3.8,0-7.8-0.1-11.7c-0.4-8-0.8-16.2,2.4-23c0.4,0.5,0.9,1,1.3,1.3c0.7,0.4,1.3,1.2,1.9,2c0.8,1,1.6,2.1,2.8,2.6
	c3.5,1.6,7.6,0.4,11-0.6l0.6-0.2c6.6-1.9,13.5-3,20.4-3.1c2.6-0.3,4.5,0.9,5.6,3.3c0,0,0,0.1,0.1,0.1c0.9,1.4,1.8,2.8,2.7,4.4
	c3,5.1,6.2,10.3,10.7,13.6c0.2,0.2,0.5,0.2,0.7,0.1c7.1-3,19.2-9.7,20.9-21.1c0-0.4,0-0.9,0-1.4c0-1.6,0-3,0.6-4.3
	c0.5-0.8,1-1.5,1.7-2.2c0.9-1.1,1.9-2.2,2.5-3.7c0.1,0,0.1,0,0.1-0.1c0.1,0.2,0.2,0.8,0,1.7c-1.3,1.9-2.3,3.6-2.5,4.1
	c-0.1,0.3,0,0.5,0.2,0.7s0.5,0.3,0.7,0.2c1.6-0.5,2.6-2.8,2.9-4.5c1.3-1.8,2.8-3.8,4-5c0.5,0,1,0,1.6,0c-0.1,0.3-0.2,0.6-0.4,0.9
	c-0.4,0.5-0.8,0.9-1.2,1.3c-0.6,0.6-1,1.3-1.4,2c-0.1,0.1-0.2,0.3-0.2,0.4c-0.5,0.6-0.9,1.1-1.2,1.5c-0.2,0.3-0.1,0.7,0.2,0.9
	c0.3,0.2,0.7,0.2,0.9,0c0.5-0.5,0.9-1,1.2-1.5c0.1-0.1,0.2-0.2,0.3-0.3c0.9-1.1,1.9-2.2,2.6-3.4c0.1-0.1,0.1-0.1,0.2-0.2
	c0.3-0.4,0.7-0.9,1-1.2c0.5,0.1,1,0.2,1.6,0.3c0,0,0,0.1,0,0.1c-0.1,0.1-0.2,0.3-0.3,0.4c-1.3,1.8-2.6,3.8-4,6
	c-0.2,0.3-0.1,0.8,0.2,1c0.3,0.2,0.8,0.1,1-0.2c0.2-0.3,0.5-0.7,0.9-1.2c1.4-1.8,2.7-3.5,3.3-5c0.1,0.1,0.1,0.1,0.2,0.2
	c0.2,0.6,0,2-2.2,5.5c-0.7,0.8-1.3,1.8-1.5,2.4c-0.1,0.3,0,0.7,0.3,0.9c0.3,0.2,0.7,0.1,0.9-0.2l0.3-0.4c0.4-0.6,0.8-1.2,1.2-1.8
	c0.3-0.3,0.6-0.6,0.8-0.8c0,0.3-0.1,0.8-0.4,1.7c-0.2,0.4-0.5,0.8-0.8,1.2c-0.2,0.3-0.4,0.6-0.6,0.9c-0.4,0.6-0.6,1.3-0.8,2
	c-0.2,0.6-0.3,1.1-0.6,1.6c-1.2,1.9-3,3.3-4.8,4.7l-0.6,0.5c-1.2,1.1-1.4,2-1.7,3.1c-0.1,0.3-0.1,0.6-0.2,0.9
	c-0.1,0.4-0.4,0.6-0.9,0.9c-0.4,0.3-0.9,0.6-1.4,1.1l-0.1,0.2c-3.1,4.1-7.5,10.2-12.6,15c-6.6-0.8-12.5-3.8-17.2-9
	c-0.5-0.4-1.4-1.2-2.5-1c-0.6,0.1-1.1,0.5-1.4,1.1c-0.4,0.7-0.4,1.6-0.1,2.3c0.4,0.9,1.2,1.5,2,2.1c0.8,0.6,1.6,1.2,1.7,2.1
	c0,0-0.1,0-0.1,0c-2.8,1.1-5.3,0.2-7.9-0.7c-1.5-0.5-2.9-1.1-4.5-1.3c0.1-4.4-0.3-8.9-1.5-13.2c-0.8-2-1.9-2.4-2.7-2.4
	c-1.3-0.1-2.6,1.1-3.5,3c-1.6,3.5-1.7,8.8,1.8,12.9c1.2,1.6,2.7,2.9,4.2,4.1c-0.2,3-0.5,5.9-0.8,8.8c-0.4,4.1-0.9,8.4-1,12.6
	c1.2,10.8,0.3,17-2.8,19.9c-0.1-0.1-0.3-0.2-0.5-0.2c-2.4,0-4.8,0.2-7.2,0.4c-4.9,0.4-9.9,0.7-14.5-0.2c-0.4-0.1-0.8,0.2-0.9,0.5
	c-0.1,0.4,0.1,0.8,0.5,0.9c9.9,2.4,17.1,3.5,21.7,1c1.2,5.5,3.2,16.9,0.7,24.1c-1.1,0-2.1,0-3.2,0c-3-0.1-3.8,1.3-4.1,1.9
	c-0.4,1.1,0.1,2.4,1.2,3.2c1.1,0.8,2.9,1.1,4.9-0.4c0,0,0.1-0.1,0.1-0.1c0.8-0.9,1.5-2,2-3.2c0.6,0,1.2,0,1.8,0.1
	c1.1,0,2.2,0.1,3.4,0.1c0.1,0,0.1,0,0.2,0c0.2,0.8,0.4,1.6,0.7,2.5c0.1,0.2,0.3,0.4,0.5,0.4c1.3,0.4,2-0.2,2.2-0.5
	c0.5-0.6,0.5-1.4,0.1-2.2c-0.4-0.7-1.1-1.3-2.3-1.5c-0.9-5-0.2-10.4,0.5-15.6c0.1-0.5,0.1-1,0.2-1.5c6.4,2.7,13.7,2.2,20.8,1.6
	c1.9-0.2,3.8-0.3,5.6-0.4c1.7-0.1,3.4,0,5.2,0c5.2,0.1,10.6,0.1,15.4-1.6c0,0.8,0.1,1.7,0.4,2.6c0.1,0.7,0.3,1.6,0.5,2.4
	c0.9,4,2,9.2,1,12.8c-0.9,0-1.8,0.2-2.6,0.7c-1.3,0.7-1.5,1.9-1.2,2.7c0.4,0.8,1.4,1.4,2.8,0.9c0.1,0,0.2-0.1,0.2-0.1
	c0.8-0.7,1.4-1.7,1.8-2.7c0.1,0,0.3,0,0.4,0c0.4,0,0.8,0,1.2,0c0.7,0.1,1.8,0,2.9,0c1.4-0.1,3.3-0.2,4.6,0.1
	c0.1,0.7,0.3,1.3,0.8,1.7c0.3,0.3,0.9,0.7,1.9,0.6c0.3-0.1,0.6-0.3,0.6-0.7c0-0.8-0.2-1.5-0.7-2c-0.3-0.3-0.7-0.5-1.1-0.7
	c0-0.1,0-0.2,0-0.2c0.4-2,0.3-5.2,0.1-8.9c-0.3-6.5-0.6-14.5,2.3-17.5c1.6,0.4,3.4,0.4,5,0.2c0.9,0,1.4-0.5,1.4-1.1
	c0.1-0.8-0.6-1.5-1.4-1.6c-2.2-0.5-3.9-0.2-5.3,0.8c-1.8-0.5-3.5-1.6-3.9-3.9c0-1.8,0.4-3.5,0.7-5.3c0.3-1.7,0.7-3.5,0.7-5.1
	c0.9-5.5,0.5-11.1,0.1-16.5c0-0.1,0-0.1,0-0.2c2.7-2,4.9-5,4.4-8.9c0-0.2,0-0.4,0-0.6c0-1.2,0-2.6-1.2-3.8c-0.9-0.7-1.7-0.5-2.2-0.3
	c-2.2,1.1-2.8,6.8-2.8,7.9c0.1,1.7,0.2,3.4,0.3,5c-0.4,0.2-0.8,0.4-1.1,0.6c0,0-0.1,0-0.1,0.1c-8.2,6.2-18.5,4-28.6,1.9
	c-1.6-0.3-3.2-0.7-4.7-1c-4.6-1.4-9.2-1.5-14.1-0.2c-2.2-0.1-5-1.7-6.4-3.6h0.2c0.3,0,0.6-0.2,0.7-0.5c0.1-0.3,0-0.6-0.3-0.8
	c-0.7-0.5-1.4-0.7-2.2-0.9c-0.5-0.1-0.9-0.3-1.3-0.5c-0.6-0.3-1-0.8-1.2-1.3c0-0.1,0-0.1,0-0.1c0.3,0,0.5,0.1,0.8,0.1
	c1.5,0.9,3,1.7,4.5,2.6c1.4,0.8,2.9,1.6,4.3,2.4c1.4,0.8,3.1,1.7,5,1.8c5-0.4,10-3.6,14.5-7.8c4.1,0.4,8.4,0,12.9-1.2
	c3-0.5,5.9-1.5,8.5-3.2l9.5-5.7c2-1.2,3.6-2.2,5-3c2.3-1.4,3.7-2.3,4.8-2.9c1.8,0.2,3.7,0.3,5.5,0.5c0,0,0.1,0,0.1,0
	c0.9-0.1,1.5,0.4,2.3,1.2c0.5,0.5,1,0.9,1.7,1.2c0.1,0,0.2,0.1,0.2,0.1c1.7,0.2,2.9,0.6,3.8,1.5c4.5,3.4,8.6,6.4,13.1,9
	c0.4,0.2,0.7,0.5,1.1,0.7c0.9,0.6,1.9,1.3,3,1.7c-0.1,0.7-0.2,1.5-0.3,2.2c-0.9,3.4-1,6.9-0.9,10.5c-0.1,3.3-0.1,6.7,0.2,10
	c0.1,2.8,0.3,6,1.2,9c0.1,0.2,0.1,0.4,0.2,0.7c0.3,1.1,0.7,2.2,0.5,3.1c-0.6,1.8-1.8,3-3.3,3.7c-2.6-1.5-6.5-1-13.1-0.2
	c-1.4,0.2-3,0.3-4.6,0.5c-0.4,0-0.6,0.4-0.6,0.7s0.3,0.7,0.7,0.7c0.9,0.1,1.8,0.2,2.9,0.3c4.5,0.5,10.4,1.2,14.7-0.4c0,0,0,0,0.1,0
	c2.2,1.8,2.8,6.4,3.3,15.9c-0.1,0.8-0.1,2,0,3.4c0,2.3,0.1,6.1-0.4,8.3c-0.4,0.1-0.8,0.2-1.2,0.4c-0.5,0.2-0.8,0.8-0.6,1.4
	c0.2,0.6,0.9,1.2,1.6,1.1c0.1,0,0.2-0.1,0.3-0.1c0.4-0.3,0.8-0.8,1-1.5c0.6-0.1,1.2-0.2,1.8-0.2c0.2,0.8,0.5,1.5,1.1,2.1
	c0.8,0.7,1.8,0.8,2.8,0.2c0.9-0.6,1.5-1.7,1.2-2.5c-0.1-0.3-0.4-1.1-1.7-1.2c-0.7,0-1.4-0.1-2.2-0.1c0,0,0,0,0-0.1
	c-0.1-3.7-0.5-7.5-0.9-11.2c-0.5-5.1-1.1-10.5-0.9-15.7c0.1-1.3,0-2.6,0-4.1c-0.1-3.1-0.2-6.3,0.7-8.8c1.7,0.2,3.7-0.5,5.7-1.4
	c0.3-0.1,0.5-0.5,0.4-0.9c-0.1-0.4-0.5-0.6-0.8-0.5c-0.5,0.1-1.1,0.1-1.8,0c-1.4-0.1-2.9-0.2-4.1,0.9c0,0-0.1,0.1-0.1,0.1
	c0,0-0.1,0-0.1-0.1c-1-0.6-1.7-2.2-2-4.9c0.1-2,0-4.1-0.1-6.2c0-0.9-0.1-1.8-0.1-2.7c0.1-3.4,0.5-6.9,0.9-10.3
	c0.2-0.7,0.4-1.4,0.7-2.1c0,0,0,0,0,0c0.3,0,0.6,0,1-0.1c0.1,0,0.1,0,0.2,0c4.7-1.8,6.8-7.3,8.6-11.7l0.3-0.6
	c1.1-2.9,2.1-6.6,0.3-9.6c-0.1-0.1-0.2-0.2-0.3-0.3c-0.3-0.2-0.6-0.2-1-0.1c-0.5,0.2-0.9,0.8-1.1,1.3c-1.9,6.4-4.5,12.5-8.1,18.5
	c0.1-1.1,0.3-2.1,0.4-3.2l0.1-0.7c0.4-8.2,1.5-14.7,3.5-20.3c0.5-1,1-2,1.5-3c0.5-1,1.1-2.1,1.8-2.9c1.5-1,3.2-1.4,5-1.8
	c1.9-0.4,3.8-0.8,5.5-2.1l0.4,0.3c6,4,8,5.4,9.1,13.4c0.4,3,1.1,5.9,1.8,8.8c0.9,3.8,1.8,7.8,2.1,11.7c0,2.7-2.8,6-5,8.6
	c0.1-1.7,0.4-3.4,0.7-5.1c0.2-1.2,0.4-2.4,0.5-3.6c0.4-4.5-0.2-9.1-0.9-13.4c-0.1-0.4-0.4-0.7-0.8-0.6c-0.4,0-0.7,0.4-0.6,0.8
	c0.4,4.1,0,8.2-0.4,12.3c-0.4,4-0.8,8.2-0.4,12.3c0,0.3,0.2,0.5,0.4,0.6c0.1,1.4,0.4,2.9,0.9,4.3c0.1,0.4,0.2,0.8,0.4,1.2
	c1.3,3.9,2.3,7.6-0.2,9.1c-0.5-0.2-1.2-0.3-2,0c-0.2,0.1-0.4,0.3-0.5,0.5c-0.1,0.2,0,0.5,0.2,0.7c0.5,0.5,1.3,0.7,2.2,0.4
	c2.4,2.2,1.6,12.5,0.7,18.3c-0.8,3.8-0.9,8.7-1.1,13.8c-0.1,2.1-0.1,4.2-0.2,6.2c-0.3,0-0.5,0-0.6,0.1c-2.4,0.5-4.6,4-4.5,6.4
	c0,1.4,1.1,2.7,2.5,3.2c0.4,0.1,0.7,0.2,1.1,0.2c0.8,0,1.5-0.3,2-1c0.1-0.1,0.1-0.2,0.1-0.3c0.3-2.3,0.5-4.7,0.7-7.1
	c10-0.3,61.3-0.5,75.2-0.5c0.4,0,0.7-0.3,0.7-0.7S326.4,151,326,151z M95.7,46.9c4.7-0.6,9.6-1.3,12-6.2c0.6-1.4,0.9-2.9,1.2-4.3
	c0.2-1.1,0.5-2.2,0.8-3.2c0,0,0-0.1,0-0.1c0.5-3.4,2.8-6.6,5.7-7.9c1.6-0.7,4.2-1.2,7,0.6l0.2,0.1c0.7,0.5,0.9,0.5,1.7,0.5
	c0.2,0,0.4,0,0.7,0c4.4,0.2,8.7,3.2,10.6,7.1c0.3,0.5,1.1,3.3,1,4.2c-0.5,0-1-0.1-1.6-0.1l-0.3,0c-9.9-1.5-18.6,2.5-27,6.4
	c-4.2,1.9-8.6,4-13,5.3c-2,0.6-3.1-0.1-4.4-1.3C92.1,47.3,93.9,47.1,95.7,46.9z M77.4,152.9c1.2,0.7,2.1,2.2,1.7,3.4
	c-2,0.1-3.7-1.3-4.6-2.8c-0.3-0.5-0.5-0.9-0.7-1.4C75.1,152.1,76.4,152.3,77.4,152.9z M80.8,126.3c2,0.5,4.4,1,7.1,0.6
	c0.3-0.1,0.6,0.1,0.6,0.1c0,0,0,0.1-0.1,0.1c-0.5,0.4-2,0.2-2.9,0.1c-0.4,0-0.7-0.1-1-0.1c-3.3-0.1-5.8-0.5-7.5-1.3
	C77.9,125.7,79.2,126,80.8,126.3z M81.4,53c0,0.1-0.1,0.2-0.1,0.3c0-0.3,0.1-0.6,0.3-0.8C81.5,52.6,81.5,52.8,81.4,53z M81.4,50.8
	c-0.1,0-0.3,0-0.4,0.1c-0.8,0.5-1.3,1.4-1.2,2.5c0,0.4,0.1,0.9,0.3,1.4c-0.1,0.2-0.3,0.5-0.4,0.8l-0.1,0.2c0,0.1-0.1,0.3-0.1,0.4
	l-0.1,0c-0.4,0.1-1,0.2-1.4,0.7c-0.2,0.1-0.3,0.1-0.4,0c-0.3-0.2-0.5-1.1-0.1-3.9l0-0.3c0.1-0.6,0.3-1.1,0.5-1.6
	c0.2-0.4,0.3-0.8,0.5-1.4c0.2-0.7,0.8-1.1,2.2-1.2c0.1,0,0.1,0,0.2-0.1c0.7-0.3,1-0.9,1.2-1.4c0.2-0.4,0.3-0.5,0.5-0.6
	c1.2,0.4,2.1,0.2,2.8,0.1c0.8-0.2,1.2-0.3,1.9,0.5c0.1,0.1,0.2,0.2,0.4,0.3c-0.9,0.4-1.8,1-2.5,1.7c-0.9,0.8-1.8,1.7-2.5,2.6
	C82.4,51.1,82,50.8,81.4,50.8z M101.6,129.2c1.6-0.1,3.3-0.2,4.9-0.3c1.9-0.1,3.9-0.3,5.8-0.3C109.7,129.8,106.1,129.8,101.6,129.2z
	 M111.9,157.4c-1.1,0.8-2.3,0.9-3.2,0.3c-0.6-0.4-0.8-1.1-0.7-1.6c0.2-0.6,1.1-1,2.4-1c0.1,0,0.2,0,0.3,0c0.9,0,1.7,0,2.6,0
	C113,156,112.5,156.7,111.9,157.4z M122.5,156.2c0.2,0.3,0.1,0.5,0.1,0.6c0,0.1-0.2,0.1-0.3,0.1c-0.1-0.4-0.3-0.9-0.4-1.3
	C122.2,155.7,122.4,156,122.5,156.2z M169.5,157.3c-0.4,0.1-0.7,0-0.8-0.2c-0.1-0.2,0-0.6,0.5-0.9c0.4-0.2,0.9-0.4,1.4-0.4
	C170.3,156.4,170,156.9,169.5,157.3z M189.3,127.1c-0.5,0-1.1,0-1.8,0C188,127,188.6,127,189.3,127.1z M184.3,83.2
	c0,0,0.1-0.1,0.2-0.1c0.1,0,0.2,0,0.4,0.1c0.7,0.7,0.7,1.6,0.7,2.7c0,0.2,0,0.5,0,0.8c0.4,3-1.1,5.4-3.1,7.1c-0.1-1.4-0.2-2.7-0.2-4
	C182.2,87.9,183.1,83.8,184.3,83.2z M118.5,82.3c-0.3,0.4-0.3,1-0.1,1.6c-1-0.9-1.9-1.8-2.8-2.9c-3.1-3.6-3-8.4-1.6-11.3
	c0.6-1.3,1.5-2.1,2.1-2.1c0,0,0,0,0,0c0.5,0,1,0.6,1.4,1.5c1.1,4.2,1.5,8.5,1.4,12.9C118.7,82,118.6,82.1,118.5,82.3z M121.4,131.8
	c-0.1,1-0.2,1.9-0.3,2.9c-0.3-0.2-0.6-0.3-0.8-0.5c-0.7-1.2-0.8-5.6-0.5-7.3c0.2-1,0.6-1.9,1-2.8c0.3-0.6,0.5-1.2,0.8-1.9
	C121.6,125.4,121.5,128.6,121.4,131.8z M122.4,91.3c0.5,0.2,1,0.4,1.5,0.5c0,0,0,0,0,0c0,0.1,0,0.3,0.1,0.4c1.3,2.8,5.2,5.4,8.4,5.4
	c0.1,0,0.1,0,0.2,0c4.7-1.3,9.1-1.2,13.5,0.2c1.5,0.3,3.1,0.6,4.7,1c9.9,2.1,21.1,4.5,29.7-2.1c0.2-0.1,0.4-0.2,0.6-0.3
	c0.4,5.1,0.7,10.4-0.1,15.7c-0.1,1.7-0.4,3.4-0.7,5c-0.3,1.8-0.7,3.7-0.8,5.6c0,0,0,0.1,0,0.1c0.4,2.5,2,4.1,4.2,4.9
	c-2.8,3.7-2.5,11.2-2.2,18c0.1,3.4,0.3,6.7-0.1,8.5c0,0.1,0,0.1,0,0.2c-1.4-0.2-3.1-0.1-4.7,0c-1.1,0.1-2.1,0.1-2.7,0
	c0,0-0.1,0-0.1,0c-0.4,0-0.8,0-1.2,0c0,0-0.1,0-0.1,0c0.9-4-0.2-9.1-1.1-13.2c-0.2-0.9-0.4-1.7-0.5-2.5c-0.4-1.1-0.4-2.1-0.2-2.9
	c1-0.5,2-1,2.9-1.7c0.1,0,0.1-0.1,0.2-0.2c2.3-3,1.7-7.3,1.1-10.8c-0.1-0.5-0.1-1-0.2-1.4c0,0,0-0.1,0-0.1c-0.9-2.8-1.4-5.7-1.6-8.7
	c0.1-3.1,0.2-6.2,0.3-9.3c0-0.4-0.3-0.7-0.6-0.8c-0.4,0-0.7,0.2-0.8,0.6c-0.5,3.2-0.6,6.4-0.4,9.4c-0.1,3.9-0.1,7.8,0,11.6
	c0.1,3.2,0.1,6.4-1.4,9c-0.3,0.3-0.5,0.7-0.6,1.1c-4.8,2-10.4,1.9-15.8,1.9c-1.7,0-3.5,0-5.3,0c-1.8,0.1-3.8,0.2-5.6,0.4
	c-7,0.5-14.3,1.1-20.5-1.7c0.1-1.2,0.3-2.3,0.4-3.5c0.5-8.4-0.1-16.9-0.6-25.1c-0.2-3.7-0.5-7.5-0.6-11.3c0-0.4-0.4-0.7-0.7-0.7
	c-0.4,0-0.7,0.3-0.7,0.7c0,3.3,0.1,6.6,0.2,9.8c0.2,5,0.3,10.1,0.1,15c-0.2,1.1-0.6,2.1-1.1,3.2c-0.4,1-0.9,2-1.1,3.1
	c-0.3,1.6-0.4,6.9,0.9,8.5c0.1,0.1,0.1,0.1,0.2,0.2c0.5,0.3,1,0.6,1.5,0.9c-0.1,0.7-0.2,1.3-0.3,1.9c-0.7,5.2-1.4,10.6-0.5,15.7
	c-1.1,0-2.2-0.1-3.3-0.1c-0.4,0-0.9,0-1.3,0c2.5-7.8,0.3-19.6-0.9-24.9c0.1-0.1,0.3-0.2,0.4-0.3c3.7-3.2,4.7-9.6,3.4-21.1
	c0.1-4.1,0.5-8.3,1-12.4c0.3-2.6,0.6-5.3,0.8-8c0.2,0.1,0.3,0.2,0.5,0.3c-0.3,0.5-0.3,1.1-0.1,1.8C120.8,90,121.5,90.8,122.4,91.3z
	 M173.1,124.6c0-1.2,0-2.4,0-3.5c0.1,0.3,0.2,0.6,0.3,1c0.1,0.4,0.1,0.9,0.2,1.4c0.5,3.3,1.1,7.1-0.8,9.6c-0.3,0.2-0.5,0.4-0.8,0.5
	C173.2,130.8,173.2,127.5,173.1,124.6z M136.4,94c-1.5,0-3-0.8-4.2-1.6c-1.4-0.9-2.9-1.7-4.3-2.5c-0.8-0.5-1.7-0.9-2.5-1.4
	c0.2-0.1,0.3-0.3,0.3-0.6c0-0.4-0.2-0.7-0.6-0.7c-1.9-0.3-3.6-1.4-4.7-3c0-0.4,0-0.7,0-1.1c1.4,0.2,2.7,0.7,4.1,1.2
	c2.7,1,5.6,2.1,8.9,0.7c0.4-0.1,0.7-0.3,0.9-0.6c0.2-0.3,0.3-0.7,0.2-1c-0.2-1.5-1.3-2.3-2.2-3c-0.7-0.5-1.3-1-1.6-1.6
	c-0.1-0.3-0.1-0.8,0-1.1c0.1-0.2,0.2-0.3,0.4-0.3c0.4-0.1,0.8,0.3,1.2,0.6c4.6,5,10.4,8.1,16.9,9.2C145,91,140.7,93.7,136.4,94z
	 M208.9,127.6c4.1-0.5,7-0.7,9-0.3C215.2,128,211.9,127.9,208.9,127.6z M229,157c0.2,0,0.3,0.1,0.4,0.1c0,0.1-0.1,0.6-0.5,0.9
	c-0.4,0.3-0.8,0.3-1.1,0c-0.3-0.2-0.5-0.6-0.6-1C227.7,156.9,228.4,156.9,229,157z M221.3,127.6c1-0.5,1.8-1.3,2.4-2.2c0,1,0,2,0,3
	c-0.1,1.8,0,3.6,0,5.4C223.2,130.8,222.5,128.9,221.3,127.6z M224.6,147.6c0-1.1,0-2.1,0-2.8c0.3,3.5,0.7,7.1,0.8,10.6c0,0,0,0,0,0
	c-0.4,0-0.8,0.1-1.2,0.1C224.6,153.6,224.6,150.8,224.6,147.6z M224.2,115.1c0.1,0,0.2,0.1,0.3,0.1c-0.3,0.8-0.5,1.7-0.6,2.6
	c-0.3-1.2-0.5-2.4-0.6-3.6C223.5,114.7,223.8,114.9,224.2,115.1z M233.7,67.1C233.7,67.1,233.7,67.1,233.7,67.1
	c1,2.3,0.1,5.3-0.8,7.7l-0.3,0.6c-1.6,4-3.6,8.9-7.4,10.7C229,79.9,231.8,73.7,233.7,67.1z M228.9,40.6c-0.4,0.2-1.1,0.4-1.5,0.6
	c-0.6,0-0.9-0.1-1-0.1c0,0,0,0,0,0c0-0.1,0-0.3,0.2-0.7c0.3-0.4,0.7-0.9,1.2-1.2C228.2,39.8,228.6,40.3,228.9,40.6z M206.5,25
	c1-0.8,1.9-0.9,3.1-0.9c0.3,0,0.6,0,1,0c0.9-0.1,1.7-0.5,2.4-0.9c0.5-0.3,1-0.5,1.5-0.6c0.9-0.3,1.8-0.4,2.7-0.4
	c2,0,4.1,0.6,5.9,1.8c2.3,1.5,3.7,3.7,4,6.2c0.1,1,0.1,2.1,0,3.2c0,0.8-0.1,1.6,0,2.4c0,0.8,0.1,1.4,0.2,2c-0.8,0.5-1.5,1.2-1.9,1.9
	c0,0,0,0,0,0c-0.4-0.4-1.1-0.5-2-0.4c-0.5,0-1.1-0.3-1.6-0.5c-0.9-0.4-2-0.9-3.1-0.5c-0.7,0.2-1.1,0.8-1.5,1.2
	c-0.4,0.4-0.7,0.7-1,0.8c-0.2,0.1-0.5,0.1-0.9,0.1c-0.6,0-1.3,0-1.9,0.5c0-0.1,0-0.3,0.1-0.5c0.4-1.4-0.2-2.9-1.3-3.4
	c-0.7-0.3-1.8-0.2-2.8,1.2c-0.5,1-0.5,2.1-0.5,3.1c0,0.2,0,0.4,0,0.6c-0.4,0.1-0.9,0-1.3-0.2c-1.5-0.7-2.9-2.7-3.4-4.2
	C202.8,32.6,202.2,28.5,206.5,25z M210.5,38.9c0.2-0.2,0.5-0.7,0.9-0.6c0.3,0.2,0.7,0.8,0.5,1.8c-0.3,2.2,0.3,2.8,1,3.3
	c-0.7,0.3-1.6,0.4-2.4,0.6c-0.8,0.2-1.6,0.3-2.3,0.6c-0.2,0.1-0.4,0.1-0.7,0.1c-0.4-0.7-1-1.3-1.6-2c-0.5-0.5-0.9-1-1.1-1.4
	c-0.1-0.2-0.4-0.3-0.6-0.3c0,0,0,0,0,0c0-0.2,0-0.4-0.1-0.5c0.8,1,1.7,2,2.8,2.5c1,0.5,2,0.5,2.9,0.2c0.3-0.1,0.5-0.3,0.5-0.6
	c0-0.4,0-0.8,0-1.2C210.3,40.4,210.2,39.5,210.5,38.9z M207.9,46.5c0-0.1,0-0.2,0-0.4c0.2,0,0.5-0.1,0.7-0.2
	c0.7-0.2,1.4-0.4,2.2-0.5c1.2-0.2,2.5-0.5,3.6-1.1c0.2,0.1,0.5,0.2,0.7,0.3c0.7,0.3,1.4,0.6,1.6,1.2c0.2,0.6-0.1,1.6-0.8,3l-1.1,2
	c-0.6,1.1-1.1,2.1-1.7,3.2c-0.4,0.9-1,1.6-1.7,1.9c-0.6,0.2-1.2,0.2-2-0.1c-1.4-0.4-2.8-0.8-4.2-1.2c-3.1-0.9-6.4-1.8-9.6-2.8
	c1.2-2.6,3.9-2.8,6.8-2.9c1.1-0.1,2.2-0.1,3.3-0.4c0,0,0.1,0,0.1,0C207,47.9,207.7,47.3,207.9,46.5z M203.5,42.1
	c0.3,1.4,1.2,3,2.5,3.7c0.1,0.1,0.3,0.1,0.4,0.2c0,0.1,0,0.1,0,0.2c-0.1,0.3-0.4,0.6-1.1,0.9c-0.9,0.2-1.9,0.2-3,0.3
	c-2.9,0.2-6.1,0.4-7.7,3.2c-1.1-0.7-2.4-1.2-3.7-1.4c0.4-0.6,0.5-1.2,0.7-1.8c0.1-0.5,0.3-1.1,0.6-1.6c0-0.1,0.1-0.1,0.1-0.2
	c0.1-0.3,0.1-0.8,0.1-1.3c0.4,0.3,0.8,0.5,1.3,0.6C196.9,45.9,201.7,43.5,203.5,42.1z M177.2,21.5c0.4-0.2,0.8-0.3,1.2-0.4
	c0.4-0.2,0.9-0.3,1.3-0.5c0.4-0.2,1-0.2,1.6-0.2c1,0,2.2,0,2.9-1c2.3-3.2,5.6-2.4,9.1-1.6l0.5,0.1c6.1,1.4,8.5,8,7.7,13.8
	c0,3,0.4,6.1,1.2,9.1c0,0,0,0,0,0c-2,1.6-6.2,3.4-8.7,2.6c-0.9-0.3-1.5-0.9-1.8-1.9c-0.1-0.2-0.2-0.3-0.3-0.4
	c-0.5-2.4-1.6-4.9-3.2-5.6c-0.8-0.3-2.1-0.4-3.4,1.5c0,0.1-0.1,0.1-0.1,0.2c-0.6,1.8,0.7,2.5,1.4,2.9c0.2,0.1,0.3,0.2,0.5,0.3
	c0.4,0.3,0.5,0.6,0.6,1.3c0.1,0.5,0.2,1,0.5,1.6c0.4,0.8,1.7,1.4,2.7,1.2c0,0.2,0,0.4,0,0.6c-0.3,0.6-0.5,1.3-0.6,1.8
	c-0.2,0.9-0.4,1.5-1.2,2.1c-0.1,0.1-0.2,0.2-0.2,0.3c-0.1,0-0.1,0-0.2-0.1c-2.5-0.7-4.9-1.8-7.2-2.9c-0.2-0.1-0.5-0.2-0.7-0.3
	c0-0.1-0.1-0.2-0.2-0.2c-1.1-0.8-1.5-2.1-2-3.5c-0.2-0.5-0.4-1-0.6-1.5c-0.4-0.8-0.9-1.5-1.5-2.2c-0.8-1-1.5-1.8-1.6-2.8v0
	c0,0,0,0,0,0c0-0.4-0.4-0.7-0.7-0.7c-0.4,0-0.7,0.3-0.7,0.7l0,0.8c-0.1-0.2-0.3-0.4-0.4-0.7c0.3-0.4,0.5-0.8,0.6-1.1
	c0.8-1.2,0.9-2.9,0.3-3.8C176.3,28.6,177.3,25,177.2,21.5z M190.6,42.7c0,0.1,0,0.2,0,0.2c0,0.1,0,0.2,0,0.2c0,0-0.2,0-0.4,0
	c-0.4-0.1-0.7-0.3-0.8-0.5c-0.2-0.3-0.2-0.7-0.3-1.1c-0.1-0.7-0.3-1.6-1.2-2.3c-0.2-0.1-0.4-0.2-0.6-0.4c-0.7-0.4-0.9-0.5-0.7-1
	c0.6-0.8,1.2-1.1,1.6-0.9c1.1,0.5,2,2.8,2.4,5C190.6,42.3,190.6,42.5,190.6,42.7z M172.6,30.4c-0.2,0-0.4,0.1-0.6,0.2
	c0.1-3,1.3-5.9,3.2-7.9c0.2-0.2,0.4-0.3,0.6-0.4C175.7,25.3,174.7,28.3,172.6,30.4z M172.4,34.2c0,0,0,0.1-0.1,0.1
	c-0.2-0.5-0.3-1.1-0.3-1.7c0.3-0.2,0.5-0.4,0.8-0.5C172.9,32.5,172.9,33.4,172.4,34.2z M162,45.2c-3.5,1.4-5.9,2.3-10.2-2.2
	c-1.3-1.2-2.7-2.2-4.1-3c0.1-0.1,0.3-0.1,0.4-0.2c1-0.7,1.5-2.5,1.6-6.2c0-0.3-0.1-0.5-0.4-0.6c-2.4-1.4-2.2-5.3-1.9-7.2
	c0.1,0.2,0.1,0.5,0.2,0.7c0.1,0.3,0.4,0.5,0.7,0.5c0.3,0,0.6-0.2,0.7-0.6c0.1-0.6,0-1.2-0.3-1.6c-1.1-6,2.3-12.1,6.6-15.2
	c2.7-1.8,5.9-1.1,8.2-0.2c0.1,0,0.1,0,0.2,0c0.5,0,0.9,0,1.3-0.1c0.5-0.1,1-0.1,1.5,0c5.1,0.4,7.9,5,8.8,9.1
	c0.2,0.7,0.3,1.5,0.3,2.2c-0.6,0.3-1.1,0.6-1.6,1c-3.9,4.1-4.4,9.9-2.7,14.2c-0.8,1-1.6,1.8-2.4,1.8c-1.4-0.3-1.9,1.1-2.2,1.8
	c-0.1,0.2-0.2,0.5-0.3,0.6c-0.9,0.9-1.9,2.1-1.4,3.3c0.1,0.2,0.3,0.5,0.5,0.6C164.3,44.3,163.1,44.7,162,45.2z M174.5,42.6
	c-0.2,0-0.3,0-0.5,0.1c-0.3,0.2-0.6,0.4-0.9,0.6c-0.1,0-0.2-0.1-0.3-0.1c-0.2-0.4-0.5-0.8-1.1-1.1c-0.1-0.1-0.3-0.1-0.4-0.1
	c-0.5,0-1.1,0.5-1.8,1.1c-2.3,0.1-2.9-0.2-3-0.4c0,0-0.1-0.4,1.2-1.7c0,0,0.1-0.1,0.1-0.1c0.2-0.3,0.3-0.6,0.4-1
	c0.3-0.9,0.4-0.9,0.6-0.8c0.1,0,0.1,0,0.2,0c1.3,0,2.3-0.8,3.2-1.8c0.4,0.8,1,1.5,1.6,2.1c0.2,0.2,0.5,0.3,0.8,0.2
	c0.2-0.1,0.3-0.2,0.4-0.4c0.1,0.2,0.3,0.4,0.4,0.5c0.5,0.6,1,1.2,1.3,1.9c0.2,0.5,0.4,0.9,0.5,1.4c0.2,0.6,0.4,1.3,0.7,1.9
	c-0.1,0-0.3-0.1-0.4-0.1c-0.3-0.1-0.7-0.3-1-0.4c0-0.1-0.1-0.2-0.1-0.4C176.1,43.4,175.7,42.8,174.5,42.6z M186,73.2
	c-1.4,0.8-3,1.8-5,3l-9.5,5.7c-2.4,1.6-5.1,2.6-8,3.1c-3.9,1.1-7.6,1.5-11.2,1.3c4.8-4.8,9-10.4,11.9-14.3l0.1-0.1
	c0.3-0.3,0.6-0.6,1-0.8c0.6-0.4,1.3-0.8,1.6-1.8c0.1-0.3,0.2-0.7,0.3-1c0.2-1,0.4-1.6,1.2-2.4l0.5-0.4c1.8-1.5,3.7-3,5.1-5
	c0.4-0.6,0.6-1.3,0.8-2c0.2-0.6,0.3-1.1,0.6-1.6c0.2-0.3,0.4-0.6,0.6-0.8c0.3-0.5,0.7-0.9,1-1.5c0,0,0-0.1,0-0.1
	c0.5-1.6,0.9-3.3-0.2-3.8c-0.1,0-0.1,0-0.2,0c0.9-1.7,1.3-3.3,1-4.4c1.1,0.5,2.2,1,3.3,1.5c2.4,1.1,4.8,2.3,7.3,3
	c5.5,2,11.2,3.6,16.7,5.2c1.4,0.4,2.8,0.8,4.1,1.2c1,0.5,2.1,0.5,3,0.1c1.1-0.4,1.9-1.4,2.4-2.6c0.6-1.1,1.1-2.1,1.7-3.2l1-2
	c1-1.8,1.3-3.1,0.9-4.2c-0.4-1.2-1.5-1.6-2.4-2c-1.2-0.5-1.5-0.7-1.3-1.4c0.2-0.1,0.5-0.1,0.9-0.1c0.4,0,0.8,0,1.3-0.1
	c0.7-0.2,1.2-0.8,1.7-1.2c0.3-0.4,0.6-0.7,1-0.8c0.6-0.2,1.2,0.1,2,0.4c0.7,0.3,1.4,0.6,2.2,0.7c0.1,0,0.1,0,0.2,0
	c0.9-0.2,1,0,1.5,0.9c0,0,0,0,0,0.1c0,0,0,0.1,0.1,0.1c0,0,0,0,0,0.1c0,0.1,0.1,0.2,0.2,0.3c0.1,0.1,0.2,0.2,0.3,0.3
	c1,0.4,1.6,1.2,1.8,2.1c0.2,0.8-0.1,1.5-0.7,2.2c-0.2,0.2-0.5,0.4-0.9,0.6c-0.4,0.3-0.9,0.6-1.3,1c-0.8,0.9-0.9,2-1.1,3l0,0.3
	c-0.5,3.1-1.7,6.2-2.9,9.2c-0.3,0.9-0.7,1.7-1,2.6c-1,4-3.5,5.6-6.7,6.3c-0.8-0.3-1.6-0.7-2.5-1c-2.3-1-4.6-1.9-7.1-2.6
	c-0.5-0.8-0.9-1.7-1.4-2.6c-0.9-1.8-1.8-3.6-3.3-5c-1.2-1.5-2.5-1.6-3.3-1c-0.8,0.6-1.1,1.8,0,3.5c0.2,0.3,0.4,0.5,0.6,0.8
	c0.2,0.2,0.3,0.4,0.5,0.6c-2.6-0.2-3.6-1.1-4.6-1.9c-0.9-0.7-1.9-1.5-3.8-2c-0.8-0.2-1.5,0.1-1.9,0.7c-0.4,0.6-0.3,1.3,0.1,1.9
	c0,0,0,0,0,0c-0.8-0.4-1.6-0.5-2.4-0.3c-0.1,0-0.1,0.1-0.2,0.1c-0.7,0.5-0.8,1-0.8,1.3c0,0.9,0.8,1.5,1.5,2.1c-0.2,0-0.5,0-0.7,0.1
	c-0.8,0.2-1.4,0.8-1.5,1.5c-0.1,0.7,0.2,1.5,0.9,2c0.4,0.3,0.9,0.4,1.3,0.6c-0.1,0.1-0.1,0.2-0.2,0.2c-0.3,0.6,0.1,1.2,0.4,1.7
	c0.7,0.8,2.4,1,2.7,1c0.5,0,1.1,0.1,1.6,0.1C188.2,71.8,187.2,72.4,186,73.2z M197.1,69.4c-1.1-0.1-1.9-0.2-2.6-0.2
	c-1.1,0-2,0.2-3.2,0.8c-1.2-0.1-2.5-0.2-3.7-0.3c-0.8-0.1-1.6-0.3-1.7-0.5c0,0,0,0,0,0c0,0,0,0,0,0c0.4,0,0.9-0.1,1.3-0.3
	c0.2-0.1,0.3-0.3,0.3-0.5c0-0.2-0.1-0.4-0.2-0.6c-0.6-0.5-1.3-0.7-2-0.9c-0.5-0.1-0.9-0.2-1.2-0.4c-0.2-0.2-0.4-0.4-0.3-0.5
	c0-0.2,0.2-0.3,0.5-0.4c0.2-0.1,0.5,0,0.8,0c0.5,0.1,1.2,0.2,1.8-0.2c0.3-0.2,0.5-0.6,0.3-1c-0.2-0.4-0.7-0.8-1.3-1.2
	c-0.4-0.3-1.3-1-1.3-1.2c0,0,0,0,0.1-0.1c0.7-0.2,1.9,0.6,2.9,1.2c0.7,0.4,1.3,0.8,2,1.1c0.3,0.1,0.5,0,0.7-0.2
	c0.2-0.2,0.3-0.5,0.2-0.7c-0.4-1.3-1.4-2.1-2.3-2.8c-0.2-0.2-0.4-0.4-0.7-0.6c0-0.1-0.1-0.1,0-0.1c0-0.1,0.2-0.1,0.4-0.1
	c1.6,0.4,2.4,1,3.3,1.7c1.4,1.1,2.8,2.2,6.7,2.3c0.2,0,0.4-0.1,0.6-0.3c0.1-0.2,0.2-0.4,0.1-0.6c-0.2-0.9-0.8-1.5-1.3-2.1
	c-0.2-0.2-0.4-0.4-0.5-0.6c-0.6-0.9-0.5-1.5-0.3-1.6c0.1-0.1,0.7,0,1.4,0.9c1.4,1.3,2.2,2.9,3,4.6c0.5,1,1,2,1.6,3
	c0.1,0.1,0.2,0.3,0.4,0.3c2.5,0.7,4.9,1.7,7.2,2.6c0.1,0,0.1,0,0.2,0.1c-1.4,0.1-2.8,0.1-4.2,0.1C201.4,70,198.8,69.7,197.1,69.4z
	 M223.3,81.1l-0.1,0.7c-0.2,1.4-0.4,2.8-0.6,4.1c-0.8-0.3-1.6-0.9-2.4-1.4c-0.4-0.3-0.7-0.5-1.1-0.7c-4.4-2.6-8.5-5.6-12.9-8.9
	c-1.5-1.3-3.2-1.6-4.5-1.8c-0.4-0.2-0.8-0.6-1.2-1c-0.4-0.3-0.8-0.7-1.2-1c1.6,0.2,3.7,0.3,6.6,0.4c2.3,0,4.7,0,7-0.5
	c2.6,1,5.4,1.9,8.4,2.3c0,0.2,0,0.4,0,0.6c0,0.2,0.1,0.3,0.2,0.5c0.9,1,1.7,0.7,1.9,0.6c0.2-0.1,0.4-0.3,0.6-0.6
	C223.6,76.6,223.4,78.8,223.3,81.1z M223.9,73.5C223.9,73.5,223.9,73.4,223.9,73.5c-0.1-0.5-0.4-1-1-1.3c0.3-0.8,0.7-1.7,1.2-2.5
	c0.2-0.4,0.4-0.8,0.6-1.2C224.4,70.1,224.1,71.7,223.9,73.5z M241.8,49.5c-0.7,0-1.3,0.3-1.8,0.5l-0.1,0.1c-1.2,0.6-2.4,0.9-3.6,1.2
	c-1.8,0.5-3.7,1-5.3,2.4c-0.1,0.1-0.2,0.2-0.3,0.3c-0.6,0.4-1.2,1-1.8,1.7c0,0-0.1,0.1-0.1,0.1c-0.7,1.5-1.4,3-1.9,4.6
	c0,0,0,0.1-0.1,0.1c-1,1.9-2,3.9-2.9,6.1c-0.3,0.8-0.7,1.7-1.1,2.5c-0.5,0.9-1,1.9-1.3,2.9c-2.2-0.2-4.3-0.8-6.3-1.5
	c2.7-1,4.9-2.9,5.8-6.7c0.3-0.8,0.6-1.7,1-2.5c1.2-3,2.4-6.2,2.9-9.5l0-0.3c0.1-0.9,0.2-1.6,0.8-2.2c0.3-0.3,0.6-0.5,1-0.8
	c0.4-0.2,0.8-0.5,1.2-0.8c0.9-1,1.3-2.2,1.1-3.5c-0.1-0.6-0.4-1.2-0.8-1.7c1.7-0.6,2.3-0.9,2.5-1.5c0.1-0.5-0.2-0.9-0.6-1.3
	c-0.2-0.2-0.5-0.6-0.8-1c0,0,0.1,0,0.1,0c4.5-0.7,10.2-0.5,13.1,1.9c1.2,1.1,1.8,2.4,1.9,4.2C243.6,47,242.8,48.5,241.8,49.5z
	 M248.7,159.6c-0.5,0.4-1.1,0.3-1.4,0.2c-0.8-0.3-1.5-1-1.6-1.8c0-1.7,1.7-4.6,3.4-5c0,0,0.1,0,0.2,0
	C249.2,155.2,249,157.5,248.7,159.6z"/>
</svg>
