<svg version="1.1" xmlns="http://www.w3.org/2000/svg" viewBox="0 0 3260 1670" fill="#69A6C2"><path d="M3260 1510c-7 0-629 1-752 5c1-21 2-41 2-61c2-51 3-98 11-136c6-37 21-156-8-192c32-24 15-72 4-105c-1-4-3-8-4-12c-6-15-8-31-9-47c3-3 5-6 8-10c25-29 56-65 56-100c-3-41-12-81-21-120c-7-28-13-57-17-86c-12-86-37-103-98-144l-1-1c10-11 19-28 25-51v-2c0-22-8-40-24-54c-40-34-117-26-141-23h-5c-1-4-2-9-2-15v-23c0-11 1-23-1-34c-3-29-20-55-46-73c-29-19-66-25-98-16c-6 2-12 5-17 7c-7 3-13 7-19 7h-9c-13 1-26 1-40 12c-12 10-21 21-27 32c-7-48-36-93-88-105l-5-1c-36-9-77-19-106 21c-3 4-10 4-18 4c-7 0-15 0-21 3c-4 2-8 3-12 5c-3 1-5 2-8 3c-1-6-2-13-3-19c-10-47-42-98-100-103c-7-1-13-1-19 0c-3 0-6 1-9 1c-26-10-63-17-94 4c-44 33-80 94-73 157c-4 1-8 4-10 11v1c-3 20-7 66 22 86c-1 34-6 44-9 47c-3 2-11-1-19-4c-16-6-38-15-63-1c-3 2-4 5-3 8c1 3 4 5 7 5c38-2 80 14 113 46c50 52 81 40 117 25c15-6 32-13 52-16c-6 7-13 16-19 24c-1-4-3-8-7-10c-4-2-10-4-19 2c-1 1-2 2-3 4c-5 13-13 24-23 35c-6 7-13 15-18 24c-8 16-8 34-7 50v12c-15 105-128 168-196 198c-41-31-71-81-100-130c-9-15-18-30-27-44c-13-30-39-45-70-41c-70 1-140 12-207 32l-6 2c-33 9-70 20-100 6c-9-4-15-13-23-22c-7-8-13-17-23-23c-5-3-10-8-13-15c11-19 25-37 43-54c8-7 17-12 27-16c16 16 33 31 64 21c45-13 89-34 132-53c86-40 167-77 262-63h3c7 1 15 2 23 1c3 0 6-2 8-6c7-13-10-56-10-57c-21-44-69-76-118-79h-8c-4 0-4 0-8-3l-2-1c-26-17-56-19-83-7c-34 15-60 50-65 89c-4 11-6 22-8 33c-3 14-6 28-11 40c-20 42-63 48-108 54c-21 3-43 6-63 12c-3-3-6-5-9-8c-13-13-24-10-32-8c-7 2-12 3-21-1c-1-1-3-1-5 0c-11 3-15 10-17 15c-2 3-2 5-4 6c-9 1-28 5-33 23c-1 4-3 8-4 12c-3 6-5 12-6 20v2c-4 22-5 44 6 53c4 3 10 6 20 2c1 0 2-1 3-2c-25 67-21 144-18 219c2 41 4 80 1 117v2c13 78-10 150-28 208c-17 54-31 97-10 126c2 3 5 7 9 10c-5 7-8 17-10 30c-18 57-24 119-19 182c1 11 2 22 4 33c-63 0-182 1-307 2C239 1509 59 1510 6 1510c-4 0-7 3-7 7s3 7 7 7c53 0 233-1 407-2c126-1 248-2 309-2h1c2 7 5 15 10 22c12 21 37 39 65 35c2 0 4-2 5-4c11-21-3-46-22-57c-14-8-31-10-47-10c-3-12-4-24-5-35c-5-61 1-121 19-177c2-11 5-20 8-25c19 11 48 16 87 17c3 0 6 0 9 1c13 1 30 3 40-4c6-5 8-13 5-19c-4-8-14-11-22-9c-23 4-45-1-65-6c-22-5-41-10-56 0h-1c-3-2-5-5-7-7c-17-23-4-63 12-113c19-59 42-132 29-214c2-38 0-78-1-117c-4-80-8-162 24-230c4 5 9 10 13 13c7 4 13 12 19 20c8 10 16 21 28 26c35 16 76 4 110-6l6-2c66-19 135-30 204-31c26-3 45 9 56 33c0 0 0 1 1 1c9 14 18 28 27 44c30 51 62 103 107 136c2 2 5 2 7 1c71-30 192-97 209-211v-14c0-16 0-30 6-43c5-8 10-15 17-22c9-11 19-22 25-37c1 0 1 0 1-1c1 2 2 8 0 17c-13 19-23 36-25 41c-1 3 0 5 2 7s5 3 7 2c16-5 26-28 29-45c13-18 28-38 40-50h16c-1 3-2 6-4 9c-4 5-8 9-12 13c-6 6-10 13-14 20c-1 1-2 3-2 4c-5 6-9 11-12 15c-2 3-1 7 2 9c3 2 7 2 9 0c5-5 9-10 12-15c1-1 2-2 3-3c9-11 19-22 26-34c1-1 1-1 2-2c3-4 7-9 10-12c5 1 10 2 16 3v1c-1 1-2 3-3 4c-13 18-26 38-40 60c-2 3-1 8 2 10c3 2 8 1 10-2c2-3 5-7 9-12c14-18 27-35 33-50c1 1 1 1 2 2c2 6 0 20-22 55c-7 8-13 18-15 24c-1 3 0 7 3 9c3 2 7 1 9-2l3-4c4-6 8-12 12-18c3-3 6-6 8-8c0 3-1 8-4 17c-2 4-5 8-8 12c-2 3-4 6-6 9c-4 6-6 13-8 20c-2 6-3 11-6 16c-12 19-30 33-48 47l-6 5c-12 11-14 20-17 31c-1 3-1 6-2 9c-1 4-4 6-9 9c-4 3-9 6-14 11l-1 2c-31 41-75 102-126 150c-66-8-125-38-172-90c-5-4-14-12-25-10c-6 1-11 5-14 11c-4 7-4 16-1 23c4 9 12 15 20 21c8 6 16 12 17 21h-1c-28 11-53 2-79-7c-15-5-29-11-45-13c1-44-3-89-15-132c-8-20-19-24-27-24c-13-1-26 11-35 30c-16 35-17 88 18 129c12 16 27 29 42 41c-2 30-5 59-8 88c-4 41-9 84-10 126c12 108 3 170-28 199c-1-1-3-2-5-2c-24 0-48 2-72 4c-49 4-99 7-145-2c-4-1-8 2-9 5c-1 4 1 8 5 9c99 24 171 35 217 10c12 55 32 169 7 241h-32c-30-1-38 13-41 19c-4 11 1 24 12 32c11 8 29 11 49-4c0 0 1-1 1-1c8-9 15-20 20-32c6 0 12 0 18 1c11 0 22 1 34 1h2c2 8 4 16 7 25c1 2 3 4 5 4c13 4 20-2 22-5c5-6 5-14 1-22c-4-7-11-13-23-15c-9-50-2-104 5-156c1-5 1-10 2-15c64 27 137 22 208 16c19-2 38-3 56-4c17-1 34 0 52 0c52 1 106 1 154-16c0 8 1 17 4 26c1 7 3 16 5 24c9 40 20 92 10 128c-9 0-18 2-26 7c-13 7-15 19-12 27c4 8 14 14 28 9c1 0 2-1 2-1c8-7 14-17 18-27h16c7 1 18 0 29 0c14-1 33-2 46 1c1 7 3 13 8 17c3 3 9 7 19 6c3-1 6-3 6-7c0-8-2-15-7-20c-3-3-7-5-11-7v-2c4-20 3-52 1-89c-3-65-6-145 23-175c16 4 34 4 50 2c9 0 14-5 14-11c1-8-6-15-14-16c-22-5-39-2-53 8c-18-5-35-16-39-39c0-18 4-35 7-53c3-17 7-35 7-51c9-55 5-111 1-165v-2c27-20 49-50 44-89v-6c0-12 0-26-12-38c-9-7-17-5-22-3c-22 11-28 68-28 79c1 17 2 34 3 50c-4 2-8 4-11 6c0 0-1 0-1 1c-82 62-185 40-286 19c-16-3-32-7-47-10c-46-14-92-15-141-2c-22-1-50-17-64-36h2c3 0 6-2 7-5c1-3 0-6-3-8c-7-5-14-7-22-9c-5-1-9-3-13-5c-6-3-10-8-12-13v-1c3 0 5 1 8 1c15 9 30 17 45 26c14 8 29 16 43 24c14 8 31 17 50 18c50-4 100-36 145-78c41 4 84 0 129-12c30-5 59-15 85-32l95-57c20-12 36-22 50-30c23-14 37-23 48-29c18 2 37 3 55 5h1c9-1 15 4 23 12c5 5 10 9 17 12c1 0 2 1 2 1c17 2 29 6 38 15c45 34 86 64 131 90c4 2 7 5 11 7c9 6 19 13 30 17c-1 7-2 15-3 22c-9 34-10 69-9 105c-1 33-1 67 2 100c1 28 3 60 12 90c1 2 1 4 2 7c3 11 7 22 5 31c-6 18-18 30-33 37c-26-15-65-10-131-2c-14 2-30 3-46 5c-4 0-6 4-6 7s3 7 7 7c9 1 18 2 29 3c45 5 104 12 147-4h1c22 18 28 64 33 159c-1 8-1 20 0 34c0 23 1 61-4 83c-4 1-8 2-12 4c-5 2-8 8-6 14c2 6 9 12 16 11c1 0 2-1 3-1c4-3 8-8 10-15c6-1 12-2 18-2c2 8 5 15 11 21c8 7 18 8 28 2c9-6 15-17 12-25c-1-3-4-11-17-12c-7 0-14-1-22-1v-1c-1-37-5-75-9-112c-5-51-11-105-9-157c1-13 0-26 0-41c-1-31-2-63 7-88c17 2 37-5 57-14c3-1 5-5 4-9c-1-4-5-6-8-5c-5 1-11 1-18 0c-14-1-29-2-41 9c0 0-1 1-1 1c0 0-1 0-1-1c-10-6-17-22-20-49c1-20 0-41-1-62c0-9-1-18-1-27c1-34 5-69 9-103c2-7 4-14 7-21c3 0 6 0 10-1h2c47-18 68-73 86-117l3-6c11-29 21-66 3-96c-1-1-2-2-3-3c-3-2-6-2-10-1c-5 2-9 8-11 13c-19 64-45 125-81 185c1-11 3-21 4-32l1-7c4-82 15-147 35-203c5-10 10-20 15-30c5-10 11-21 18-29c15-10 32-14 50-18c19-4 38-8 55-21l4 3c60 40 80 54 91 134c4 30 11 59 18 88c9 38 18 78 21 117c0 27-28 60-50 86c1-17 4-34 7-51c2-12 4-24 5-36c4-45-2-91-9-134c-1-4-4-7-8-6c-4 0-7 4-6 8c4 41 0 82-4 123c-4 40-8 82-4 123c0 3 2 5 4 6c1 14 4 29 9 43c1 4 2 8 4 12c13 39 23 76-2 91c-5-2-12-3-20 0c-2 1-4 3-5 5c-1 2 0 5 2 7c5 5 13 7 22 4c24 22 16 125 7 183c-8 38-9 87-11 138c-1 21-1 42-2 62c-3 0-5 0-6 1c-24 5-46 40-45 64c0 14 11 27 25 32c4 1 7 2 11 2c8 0 15-3 20-10c1-1 1-2 1-3c3-23 5-47 7-71c100-3 613-5 752-5c4 0 7-3 7-7S3264 1510 3260 1510zM957 469c47-6 96-13 120-62c6-14 9-29 12-43c2-11 5-22 8-32v-1c5-34 28-66 57-79c16-7 42-12 70 6l2 1c7 5 9 5 17 5h7c44 2 87 32 106 71c3 5 11 33 10 42c-5 0-10-1-16-1h-3c-99-15-186 25-270 64c-42 19-86 40-130 53c-20 6-31-1-44-13C921 473 939 471 957 469zM774 1529c12 7 21 22 17 34c-20 1-37-13-46-28c-3-5-5-9-7-14C751 1521 764 1523 774 1529zM808 1263c20 5 44 10 71 6c3-1 6 1 6 1c0 0 0 1-1 1c-5 4-20 2-29 1c-4 0-7-1-10-1c-33-1-58-5-75-13C779 1257 792 1260 808 1263zM814 530c0 1-1 2-1 3c0-3 1-6 3-8C815 526 815 528 814 530zM814 508c-1 0-3 0-4 1c-8 5-13 14-12 25c0 4 1 9 3 14c-1 2-3 5-4 8l-1 2c0 1-1 3-1 4h-1c-4 1-10 2-14 7c-2 1-3 1-4 0c-3-2-5-11-1-39v-3c1-6 3-11 5-16c2-4 3-8 5-14c2-7 8-11 22-12c1 0 1 0 2-1c7-3 10-9 12-14c2-4 3-5 5-6c12 4 21 2 28 1c8-2 12-3 19 5c1 1 2 2 4 3c-9 4-18 10-25 17c-9 8-18 17-25 26C824 511 820 508 814 508zM1016 1292c16-1 33-2 49-3c19-1 39-3 58-3C1097 1298 1061 1298 1016 1292zM1119 1574c-11 8-23 9-32 3c-6-4-8-11-7-16c2-6 11-10 24-10h29C1130 1560 1125 1567 1119 1574zM1225 1562c2 3 1 5 1 6c0 1-2 1-3 1c-1-4-3-9-4-13C1222 1557 1224 1560 1225 1562zM1695 1573c-4 1-7 0-8-2c-1-2 0-6 5-9c4-2 9-4 14-4C1703 1564 1700 1569 1695 1573zM1893 1271h-18C1880 1270 1886 1270 1893 1271zM1843 832c0 0 1-1 2-1c1 0 2 0 4 1c7 7 7 16 7 27v8c4 30-11 54-31 71c-1-14-2-27-2-40C1822 879 1831 838 1843 832zM1185 823c-3 4-3 10-1 16c-10-9-19-18-28-29c-31-36-30-84-16-113c6-13 15-21 21-21c5 0 10 6 14 15c11 42 15 85 14 129C1187 820 1186 821 1185 823zM1214 1318c-1 10-2 19-3 29c-3-2-6-3-8-5c-7-12-8-56-5-73c2-10 6-19 10-28c3-6 5-12 8-19C1216 1254 1215 1286 1214 1318zM1224 913c5 2 10 4 15 5c0 1 0 3 1 4c13 28 52 54 84 54h2c47-13 91-12 135 2c15 3 31 6 47 10c99 21 211 45 297-21c2-1 4-2 6-3c4 51 7 104-1 157c-1 17-4 34-7 50c-3 18-7 37-8 56v1c4 25 20 41 42 49c-28 37-25 112-22 180c1 34 3 67-1 85v2c-14-2-31-1-47 0c-11 1-21 1-27 0h-14c9-40-2-91-11-132c-2-9-4-17-5-25c-4-11-4-21-2-29c10-5 20-10 29-17c1 0 1-1 2-2c23-30 17-73 11-108c-1-5-1-10-2-14v-1c-9-28-14-57-16-87c1-31 2-62 3-93c0-4-3-7-6-8c-4 0-7 2-8 6c-5 32-6 64-4 94c-1 39-1 78 0 116c1 32 1 64-14 90c-3 3-5 7-6 11c-48 20-104 19-158 19h-53c-18 1-38 2-56 4c-70 5-143 11-205-17c1-12 3-23 4-35c5-84-1-169-6-251c-2-37-5-75-6-113c0-4-4-7-7-7c-4 0-7 3-7 7c0 33 1 66 2 98c2 50 3 101 1 150c-2 11-6 21-11 32c-4 10-9 20-11 31c-3 16-4 69 9 85c1 1 1 1 2 2c5 3 10 6 15 9c-1 7-2 13-3 19c-7 52-14 106-5 157c-11 0-22-1-33-1h-13c25-78 3-196-9-249c1-1 3-2 4-3c37-32 47-96 34-211c1-41 5-83 10-124c3-26 6-53 8-80c2 1 3 2 5 3c-3 5-3 11-1 18C1208 900 1215 908 1224 913zM1731 1246v-35c1 3 2 6 3 10c1 4 1 9 2 14c5 33 11 71-8 96c-3 2-5 4-8 5C1732 1308 1732 1275 1731 1246zM1364 940c-15 0-30-8-42-16c-14-9-29-17-43-25c-8-5-17-9-25-14c2-1 3-3 3-6c0-4-2-7-6-7c-19-3-36-14-47-30v-11c14 2 27 7 41 12c27 10 56 21 89 7c4-1 7-3 9-6c2-3 3-7 2-10c-2-15-13-23-22-30c-7-5-13-10-16-16c-1-3-1-8 0-11c1-2 2-3 4-3c4-1 8 3 12 6c46 50 104 81 169 92C1450 910 1407 937 1364 940zM2089 1276c41-5 70-7 90-3C2152 1280 2119 1279 2089 1276zM2290 1570c2 0 3 1 4 1c0 1-1 6-5 9c-4 3-8 3-11 0c-3-2-5-6-6-10C2277 1569 2284 1569 2290 1570zM2213 1276c10-5 18-13 24-22v30c-1 18 0 36 0 54C2232 1308 2225 1289 2213 1276zM2246 1476v-28c3 35 7 71 8 106c-4 0-8 1-12 1C2246 1536 2246 1508 2246 1476zM2242 1151c1 0 2 1 3 1c-3 8-5 17-6 26c-3-12-5-24-6-36C2235 1147 2238 1149 2242 1151zM2337 671C2337 671 2337 671 2337 671c10 23 1 53-8 77l-3 6c-16 40-36 89-74 107C2290 799 2318 737 2337 671zM2289 406c-4 2-11 4-15 6c-6 0-9-1-10-1c0-1 0-3 2-7c3-4 7-9 12-12C2282 398 2286 403 2289 406zM2065 250c10-8 19-9 31-9h10c9-1 17-5 24-9c5-3 10-5 15-6c9-3 18-4 27-4c20 0 41 6 59 18c23 15 37 37 40 62c1 10 1 21 0 32c0 8-1 16 0 24c0 8 1 14 2 20c-8 5-15 12-19 19c-4-4-11-5-20-4c-5 0-11-3-16-5c-9-4-20-9-31-5c-7 2-11 8-15 12c-4 4-7 7-10 8c-2 1-5 1-9 1c-6 0-13 0-19 5c0-1 0-3 1-5c4-14-2-29-13-34c-7-3-18-2-28 12c-5 10-5 21-5 31v6c-4 1-9 0-13-2c-15-7-29-27-34-42C2028 326 2022 285 2065 250zM2105 389c2-2 5-7 9-6c3 2 7 8 5 18c-3 22 3 28 10 33c-7 3-16 4-24 6c-8 2-16 3-23 6c-2 1-4 1-7 1c-4-7-10-13-16-20c-5-5-9-10-11-14c-1-2-4-3-6-3c0-2 0-4-1-5c8 10 17 20 28 25c10 5 20 5 29 2c3-1 5-3 5-6v-12C2103 404 2102 395 2105 389zM2079 465v-4c2 0 5-1 7-2c7-2 14-4 22-5c12-2 25-5 36-11c2 1 5 2 7 3c7 3 14 6 16 12c2 6-1 16-8 30l-11 20c-6 11-11 21-17 32c-4 9-10 16-17 19c-6 2-12 2-20-1c-14-4-28-8-42-12c-31-9-64-18-96-28c12-26 39-28 68-29c11-1 22-1 33-4h1C2070 479 2077 473 2079 465zM2035 421c3 14 12 30 25 37c1 1 3 1 4 2v2c-1 3-4 6-11 9c-9 2-19 2-30 3c-29 2-61 4-77 32c-11-7-24-12-37-14c4-6 5-12 7-18c1-5 3-11 6-16c0-1 1-1 1-2c1-3 1-8 1-13c4 3 8 5 13 6C1969 459 2017 435 2035 421zM1772 215c4-2 8-3 12-4c4-2 9-3 13-5c4-2 10-2 16-2c10 0 22 0 29-10c23-32 56-24 91-16l5 1c61 14 85 80 77 138c0 30 4 61 12 91c-20 16-62 34-87 26c-9-3-15-9-18-19c-1-2-2-3-3-4c-5-24-16-49-32-56c-8-3-21-4-34 15c0 1-1 1-1 2c-6 18 7 25 14 29c2 1 3 2 5 3c4 3 5 6 6 13c1 5 2 10 5 16c4 8 17 14 27 12v6c-3 6-5 13-6 18c-2 9-4 15-12 21c-1 1-2 2-2 3c-1 0-1 0-2-1c-25-7-49-18-72-29c-2-1-5-2-7-3c0-1-1-2-2-2c-11-8-15-21-20-35c-2-5-4-10-6-15c-4-8-9-15-15-22c-8-10-15-18-16-28c0-4-4-7-7-7c-4 0-7 3-7 7v8c-1-2-3-4-4-7c3-4 5-8 6-11c8-12 9-29 3-38C1763 286 1773 250 1772 215zM1906 427v4h-4c-4-1-7-3-8-5c-2-3-2-7-3-11c-1-7-3-16-12-23c-2-1-4-2-6-4c-7-4-9-5-7-10c6-8 12-11 16-9c11 5 20 28 24 50C1906 423 1906 425 1906 427zM1726 304c-2 0-4 1-6 2c1-30 13-59 32-79c2-2 4-3 6-4C1757 253 1747 283 1726 304zM1724 342c0 0 0 1-1 1c-2-5-3-11-3-17c3-2 5-4 8-5C1729 325 1729 334 1724 342zM1620 452c-35 14-59 23-102-22c-13-12-27-22-41-30c1-1 3-1 4-2c10-7 15-25 16-62c0-3-1-5-4-6c-24-14-22-53-19-72c1 2 1 5 2 7c1 3 4 5 7 5c3 0 6-2 7-6c1-6 0-12-3-16c-11-60 23-121 66-152c27-18 59-11 82-2h2c5 0 9 0 13-1c5-1 10-1 15 0c51 4 79 50 88 91c2 7 3 15 3 22c-6 3-11 6-16 10c-39 41-44 99-27 142c-8 10-16 18-24 18c-14-3-19 11-22 18c-1 2-2 5-3 6c-9 9-19 21-14 33c1 2 3 5 5 6C1643 443 1631 447 1620 452zM1745 426c-2 0-3 0-5 1c-3 2-6 4-9 6c-1 0-2-1-3-1c-2-4-5-8-11-11c-1-1-3-1-4-1c-5 0-11 5-18 11c-23 1-29-2-30-4c0 0-1-4 12-17c0 0 1-1 1-1c2-3 3-6 4-10c3-9 4-9 6-8h2c13 0 23-8 32-18c4 8 10 15 16 21c2 2 5 3 8 2c2-1 3-2 4-4c1 2 3 4 4 5c5 6 10 12 13 19c2 5 4 9 5 14c2 6 4 13 7 19c-1 0-3-1-4-1c-3-1-7-3-10-4c0-1-1-2-1-4C1761 434 1757 428 1745 426zM1860 732c-14 8-30 18-50 30l-95 57c-24 16-51 26-80 31c-39 11-76 15-112 13c48-48 90-104 119-143l1-1c3-3 6-6 10-8c6-4 13-8 16-18c1-3 2-7 3-10c2-10 4-16 12-24l5-4c18-15 37-30 51-50c4-6 6-13 8-20c2-6 3-11 6-16c2-3 4-6 6-8c3-5 7-9 10-15v-1c5-16 9-33-2-38h-2c9-17 13-33 10-44c11 5 22 10 33 15c24 11 48 23 73 30c55 20 112 36 167 52c14 4 28 8 41 12c10 5 21 5 30 1c11-4 19-14 24-26c6-11 11-21 17-32l10-20c10-18 13-31 9-42c-4-12-15-16-24-20c-12-5-15-7-13-14c2-1 5-1 9-1c4 0 8 0 13-1c7-2 12-8 17-12c3-4 6-7 10-8c6-2 12 1 20 4c7 3 14 6 22 7h2c9-2 10 0 15 9v1c0 0 0 1 1 1v1c0 1 1 2 2 3c1 1 2 2 3 3c10 4 16 12 18 21c2 8-1 15-7 22c-2 2-5 4-9 6c-4 3-9 6-13 10c-8 9-9 20-11 30v3c-5 31-17 62-29 92c-3 9-7 17-10 26c-10 40-35 56-67 63c-8-3-16-7-25-10c-23-10-46-19-71-26c-5-8-9-17-14-26c-9-18-18-36-33-50c-12-15-25-16-33-10c-8 6-11 18 0 35c2 3 4 5 6 8c2 2 3 4 5 6c-26-2-36-11-46-19c-9-7-19-15-38-20c-8-2-15 1-19 7c-4 6-3 13 1 19c-8-4-16-5-24-3c-1 0-1 1-2 1c-7 5-8 10-8 13c0 9 8 15 15 21c-2 0-5 0-7 1c-8 2-14 8-15 15c-1 7 2 15 9 20c4 3 9 4 13 6c-1 1-1 2-2 2c-3 6 1 12 4 17c7 8 24 10 27 10c5 0 11 1 16 1C1882 718 1872 724 1860 732zM1971 694c-11-1-19-2-26-2c-11 0-20 2-32 8c-12-1-25-2-37-3c-8-1-16-3-17-5c4 0 9-1 13-3c2-1 3-3 3-5c0-2-1-4-2-6c-6-5-13-7-20-9c-5-1-9-2-12-4c-2-2-4-4-3-5c0-2 2-3 5-4c2-1 5 0 8 0c5 1 12 2 18-2c3-2 5-6 3-10c-2-4-7-8-13-12c-4-3-13-10-13-12l1-1c7-2 19 6 29 12c7 4 13 8 20 11c3 1 5 0 7-2c2-2 3-5 2-7c-4-13-14-21-23-28c-2-2-4-4-7-6c0-1-1-1 0-1c0-1 2-1 4-1c16 4 24 10 33 17c14 11 28 22 67 23c2 0 4-1 6-3c1-2 2-4 1-6c-2-9-8-15-13-21c-2-2-4-4-5-6c-6-9-5-15-3-16c1-1 7 0 14 9c14 13 22 29 30 46c5 10 10 20 16 30c1 1 2 3 4 3c25 7 49 17 72 26c1 0 1 0 2 1c-14 1-28 1-42 1C2014 700 1988 697 1971 694zM2233 811l-1 7c-2 14-4 28-6 41c-8-3-16-9-24-14c-4-3-7-5-11-7c-44-26-85-56-129-89c-15-13-32-16-45-18c-4-2-8-6-12-10c-4-3-8-7-12-10c16 2 37 3 66 4c23 0 47 0 70-5c26 10 54 19 84 23v6c0 2 1 3 2 5c9 10 17 7 19 6c2-1 4-3 6-6C2236 766 2234 788 2233 811zM2239 735C2239 735 2239 734 2239 735c-1-5-4-10-10-13c3-8 7-17 12-25c2-4 4-8 6-12C2244 701 2241 717 2239 735zM2418 495c-7 0-13 3-18 5l-1 1c-12 6-24 9-36 12c-18 5-37 10-53 24c-1 1-2 2-3 3c-6 4-12 10-18 17c0 0-1 1-1 1c-7 15-14 30-19 46c0 0 0 1-1 1c-10 19-20 39-29 61c-3 8-7 17-11 25c-5 9-10 19-13 29c-22-2-43-8-63-15c27-10 49-29 58-67c3-8 6-17 10-25c12-30 24-62 29-95v-3c1-9 2-16 8-22c3-3 6-5 10-8c4-2 8-5 12-8c9-10 13-22 11-35c-1-6-4-12-8-17c17-6 23-9 25-15c1-5-2-9-6-13c-2-2-5-6-8-10h1c45-7 102-5 131 19c12 11 18 24 19 42C2436 470 2428 485 2418 495zM2487 1596c-5 4-11 3-14 2c-8-3-15-10-16-18c0-17 17-46 34-50h2C2492 1552 2490 1575 2487 1596z"></path></svg>