<svg xmlns="http://www.w3.org/2000/svg" viewBox="0 0 32600 16700"><path stroke-width="0" fill="#69a6c2" d="M21687 13627c6-8 10-16 13-26c1-4 2-7 3-11c3-14 2-28-3-42-2-6-5-12-8-18-3-6-8-11-12-16-358-383-745-747-1119-1100-135-127-270-254-404-383l-239-228c-821-785-1670-1596-2477-2418l-50-51c-157-162-383-396-629-460c833-593 1022-1674 1026-2509c63-862-281-1711-971-2391-8-8-17-14-26-18-56-24-99-71-153-130-32-35-69-75-120-121-1185-873-2727-1075-4343-570-71 11-100 76-114 109-2 4-3 8-5 12-1593 531-2597 2220-2288 3848c228 1324 1234 2399 2626 2805c894 261 1804 129 2684 2c363-52 737-107 1108-133c21 36 47 67 77 94c24 59 104 84 188 101c130 261 323 521 580 779c4 4 8 8 13 11c148 100 273 225 395 347c59 59 116 116 168 163c327 344 633 718 929 1079c613 747 1245 1519 2080 2048c5 12 12 22 22 31c101 91 228 140 339 140c54 0 104-12 146-35c299-138 514-502 615-797c9-26 5-54-10-77-11-16-26-28-43-34zm-5563-4020c-360 28-720 80-1069 131-901 130-1753 254-2610 3-1328-387-2287-1409-2503-2668-293-1543 658-3145 2168-3650c71-11 99-76 113-108c2-4 3-8 5-12c1561-489 3048-296 4181 538c38 34 70 69 101 103c59 65 115 126 196 166c645 641 968 1437 908 2249-4 860-208 1984-1145 2494c3-14 6-27 10-41c64-358 259-653 465-964c192-290 391-590 485-961c21-143 28-286 35-425c7-136 14-277 34-419c4-28-6-55-25-74-4-12-8-23-13-35-53-147-118-329-221-472-347-829-973-1492-1673-1773-125-55-246-52-355-46-75-26-149-56-225-86-209-83-426-169-674-198-1079-124-2008 71-2840 596-1279 846-1831 2437-1278 3707c61 107 118 209 179 365c1 4 3 8 5 11c63 111 128 227 254 341c7 6 15 11 23 15c56 24 98 71 152 130c32 35 69 75 113 115c146 132 304 200 457 265c104 44 201 86 297 150c289 154 578 253 861 350c1146 334 2460 247 3655-237-66 134-93 294-66 438zm-3536-368c-272-93-554-190-824-333-102-69-212-116-318-161-147-63-285-122-409-234-38-34-70-69-101-103-59-65-115-127-197-166-97-90-151-184-207-283-65-165-127-275-183-374-515-1186 9-2683 1217-3483c796-502 1687-688 2725-570c225 26 430 108 629 187c84 33 167 66 249 95c11 4 23 4 33 5c102-5 199-10 295 32c663 266 1255 897 1584 1688c3 7 6 13 11 19c92 124 151 289 203 435c8 22 16 44 23 65-17 136-24 267-30 396-7 141-13 274-32 399-84 334-275 621-459 899-207 313-422 636-491 1024-14 57-26 113-34 170-1196 523-2532 631-3685 294zm3713 356v-4c-6-28-10-57-11-87c6 30 13 60 21 91h-9zm4326 4601c-766-508-1344-1213-1953-1956-298-364-606-740-942-1093-55-50-110-105-167-162-120-120-255-255-414-363-494-498-735-1000-717-1498c12-12 24-22 37-31c241-174 525 84 795 363l51 52c809 824 1659 1636 2480 2422l239 228c134 129 270 256 405 384c326 307 662 623 979 952-5 4-9 9-12 14-364 79-591 372-781 688zm182 115c-9-5-18-11-26-16v-18c142-237 288-423 472-526-97 82-166 191-232 294-66 104-129 203-214 266zm237 68c-18 10-41 15-67 16c76-75 134-166 191-255c100-156 189-296 356-333-98 224-265 474-480 573z" /></svg>