<?xml version="1.0" encoding="UTF-8"?>
<svg id="Layer_1" data-name="Layer 1" xmlns="http://www.w3.org/2000/svg" viewBox="0 0 326 167">
  <defs>
    <style>
      .cls-1 {
        fill: none;
      }

      .cls-1, .cls-2 {
        stroke-width: 0px;
      }

      .cls-2 {
        fill: #69a6c2;
      }
    </style>
  </defs>
  <path class="cls-1" d="M163,95.91s0,.03,0,.04c.03,0,.06,0,.09,0-.08-.3-.15-.6-.21-.91,0,.3.04.59.11.87Z"/>
  <path class="cls-1" d="M167.98,77.5c1.84-2.78,3.75-5.65,4.59-8.99.18-1.26.25-2.59.32-3.99.06-1.28.13-2.6.3-3.96-.08-.21-.15-.43-.23-.65-.52-1.46-1.12-3.12-2.03-4.35-.04-.06-.08-.12-.11-.19-3.29-7.91-9.21-14.22-15.84-16.88-.96-.42-1.93-.37-2.95-.32-.11,0-.23,0-.33-.05-.82-.28-1.65-.61-2.49-.95-1.99-.79-4.04-1.61-6.29-1.87-10.38-1.19-19.29.67-27.25,5.7-12.08,7.99-17.32,22.97-12.17,34.83.56.99,1.18,2.09,1.83,3.74.56.99,1.09,1.92,2.07,2.83.82.4,1.38,1.01,1.97,1.66.31.34.63.69,1.01,1.03,1.24,1.12,2.63,1.72,4.09,2.34,1.06.46,2.16.93,3.18,1.61,2.69,1.43,5.51,2.39,8.24,3.33,11.53,3.36,24.88,2.29,36.85-2.94.08-.57.2-1.13.34-1.7.69-3.88,2.83-7.11,4.91-10.24Z"/>
  <path class="cls-1" d="M125.36,94.05c-2.83-.97-5.71-1.96-8.61-3.5-.96-.64-1.94-1.06-2.97-1.5-1.53-.66-3.12-1.34-4.57-2.65-.44-.4-.81-.8-1.13-1.15-.54-.59-.97-1.06-1.52-1.3-.09-.04-.17-.09-.23-.15-1.26-1.14-1.91-2.29-2.54-3.41-.02-.04-.04-.07-.05-.11-.61-1.57-1.19-2.58-1.79-3.65-5.52-12.71,0-28.61,12.78-37.07,8.32-5.26,17.6-7.21,28.4-5.96,2.48.28,4.64,1.15,6.74,1.98.76.3,1.51.6,2.25.86,1.09-.05,2.3-.08,3.55.46,7,2.81,13.26,9.44,16.73,17.73,1.04,1.43,1.69,3.25,2.21,4.72.04.12.08.24.13.35.19.19.29.46.25.74-.2,1.41-.27,2.82-.34,4.19-.07,1.39-.14,2.82-.35,4.25-.93,3.71-2.92,6.71-4.85,9.61-2.06,3.11-4.02,6.05-4.65,9.64-.03.14-.07.28-.1.41,9.37-5.1,11.41-16.34,11.45-24.94.6-8.12-2.63-16.08-9.08-22.49-.81-.4-1.37-1.01-1.96-1.66-.31-.34-.63-.69-1.01-1.03-11.33-8.34-26.2-10.27-41.81-5.38-.02.04-.03.08-.05.12-.14.32-.42.97-1.13,1.08-15.09,5.05-24.61,21.06-21.68,36.5,2.17,12.59,11.75,22.81,25.03,26.68,8.58,2.5,17.09,1.27,26.1-.03,3.5-.51,7.09-1.03,10.69-1.31-.26-1.44,0-3.04.66-4.38-11.95,4.83-25.09,5.71-36.55,2.37Z"/>
  <path class="cls-1" d="M214.08,135.08c.04-.05.08-.1.12-.14-3.17-3.29-6.53-6.45-9.79-9.52-1.36-1.28-2.71-2.55-4.05-3.84l-2.39-2.28c-8.22-7.86-16.72-15.98-24.8-24.22l-.51-.52c-2.7-2.79-5.54-5.38-7.95-3.63-.13.09-.25.2-.37.31-.17,4.99,2.23,10,7.17,14.98,1.59,1.08,2.94,2.43,4.14,3.63.57.57,1.12,1.12,1.67,1.62,3.36,3.54,6.44,7.3,9.42,10.93,6.09,7.43,11.87,14.48,19.53,19.56,1.9-3.16,4.17-6.09,7.81-6.88Z"/>
  <path class="cls-1" d="M212.55,137.51c-1.84,1.03-3.3,2.89-4.73,5.26v.18c.1.05.18.11.27.16.84-.63,1.47-1.62,2.14-2.66.66-1.03,1.35-2.12,2.32-2.94Z"/>
  <path class="cls-1" d="M211.71,141.39c-.57.89-1.15,1.8-1.91,2.55.25,0,.48-.05.67-.16,2.15-.99,3.82-3.48,4.8-5.73-1.67.38-2.56,1.77-3.56,3.33Z"/>
  <path class="cls-2" d="M216.87,136.27c.06-.08.1-.16.13-.26.01-.04.02-.07.03-.11h0s0,0,0,0c.03-.14.02-.28-.03-.42,0,0,0,0,0,0-.02-.06-.05-.12-.08-.18,0,0,0,0,0,0-.03-.06-.08-.11-.12-.16-3.58-3.83-7.45-7.47-11.19-11-1.35-1.27-2.7-2.54-4.04-3.83l-2.39-2.28c-8.21-7.85-16.7-15.96-24.77-24.18l-.5-.51c-1.57-1.62-3.83-3.96-6.29-4.6,8.33-5.93,10.22-16.74,10.26-25.09.63-8.62-2.81-17.11-9.71-23.91-.08-.08-.17-.14-.26-.18-.56-.24-.99-.71-1.53-1.3-.32-.35-.69-.75-1.2-1.21-11.85-8.73-27.27-10.75-43.43-5.7-.71.11-1,.76-1.14,1.09-.02.04-.03.08-.05.12-15.93,5.31-25.97,22.2-22.88,38.48,2.28,13.24,12.34,23.99,26.26,28.05,8.94,2.61,18.04,1.29,26.84.02,3.63-.52,7.37-1.07,11.08-1.33.21.36.47.67.77.94.24.59,1.04.84,1.88,1.01,1.3,2.61,3.23,5.21,5.8,7.79.04.04.08.08.13.11,1.48,1,2.73,2.25,3.95,3.47.59.59,1.16,1.16,1.68,1.63,3.27,3.44,6.33,7.18,9.29,10.79,6.13,7.47,12.45,15.19,20.8,20.48.05.12.12.22.22.31,1.01.91,2.28,1.4,3.39,1.4.54,0,1.04-.12,1.46-.35,2.99-1.38,5.14-5.02,6.15-7.97.09-.26.05-.54-.1-.77-.11-.16-.26-.28-.43-.34ZM161.24,96.07c-3.6.28-7.2.8-10.69,1.31-9.01,1.3-17.53,2.54-26.1.03-13.28-3.87-22.87-14.09-25.03-26.68-2.93-15.43,6.58-31.45,21.68-36.5.71-.11.99-.76,1.13-1.08.02-.04.03-.08.05-.12,15.61-4.89,30.48-2.96,41.81,5.38.38.34.7.69,1.01,1.03.59.65,1.15,1.26,1.96,1.66,6.45,6.41,9.68,14.37,9.08,22.49-.04,8.6-2.08,19.84-11.45,24.94.03-.14.06-.27.1-.41.64-3.58,2.59-6.53,4.65-9.64,1.92-2.9,3.91-5.9,4.85-9.61.21-1.43.28-2.86.35-4.25.07-1.36.14-2.77.34-4.19.04-.28-.06-.55-.25-.74-.04-.12-.08-.23-.13-.35-.53-1.47-1.18-3.29-2.21-4.72-3.47-8.29-9.73-14.92-16.73-17.73-1.25-.55-2.46-.52-3.55-.46-.75-.26-1.49-.56-2.25-.86-2.09-.83-4.26-1.69-6.74-1.98-10.79-1.24-20.08.71-28.4,5.96-12.79,8.46-18.31,24.37-12.78,37.07.61,1.07,1.18,2.09,1.79,3.65.01.04.03.08.05.11.63,1.11,1.28,2.27,2.54,3.41.07.06.15.11.23.15.56.24.98.71,1.52,1.3.32.35.69.75,1.13,1.15,1.46,1.32,3.04,2,4.57,2.65,1.04.44,2.01.86,2.97,1.5,2.89,1.54,5.78,2.53,8.61,3.5,11.46,3.34,24.6,2.47,36.55-2.37-.66,1.34-.93,2.94-.66,4.38ZM125.88,92.39c-2.72-.93-5.54-1.9-8.24-3.33-1.02-.69-2.12-1.16-3.18-1.61-1.47-.63-2.85-1.22-4.09-2.34-.38-.34-.7-.69-1.01-1.03-.59-.65-1.15-1.27-1.97-1.66-.97-.9-1.51-1.84-2.07-2.83-.65-1.65-1.27-2.75-1.83-3.74-5.15-11.86.09-26.83,12.17-34.83,7.96-5.02,16.87-6.88,27.25-5.7,2.25.26,4.3,1.08,6.29,1.87.84.33,1.67.66,2.49.95.11.04.23.04.33.05,1.02-.05,1.99-.1,2.95.32,6.63,2.66,12.55,8.97,15.84,16.88.03.07.06.13.11.19.92,1.24,1.51,2.89,2.03,4.35.08.22.16.44.23.65-.17,1.36-.24,2.67-.3,3.96-.07,1.41-.13,2.74-.32,3.99-.84,3.34-2.75,6.21-4.59,8.99-2.07,3.13-4.22,6.36-4.91,10.24-.14.57-.26,1.13-.34,1.7-11.96,5.23-25.32,6.31-36.85,2.94ZM163.01,95.95s0-.03,0-.04c-.06-.28-.1-.57-.11-.87.06.3.13.6.21.91-.03,0-.06,0-.09,0ZM206.27,141.96c-7.66-5.08-13.44-12.13-19.53-19.56-2.98-3.64-6.06-7.4-9.42-10.93-.55-.5-1.1-1.05-1.67-1.62-1.2-1.2-2.55-2.55-4.14-3.63-4.94-4.98-7.35-10-7.17-14.98.12-.12.24-.22.37-.31,2.41-1.74,5.25.84,7.95,3.63l.51.52c8.09,8.24,16.59,16.36,24.8,24.22l2.39,2.28c1.34,1.29,2.7,2.56,4.05,3.84,3.26,3.07,6.62,6.23,9.79,9.52-.05.04-.09.09-.12.14-3.64.79-5.91,3.72-7.81,6.88ZM208.09,143.11c-.09-.05-.18-.11-.26-.16v-.18c1.42-2.37,2.88-4.23,4.72-5.26-.97.82-1.66,1.91-2.32,2.94-.66,1.04-1.29,2.03-2.14,2.66ZM210.46,143.79c-.18.1-.41.15-.67.16.76-.75,1.34-1.66,1.91-2.55,1-1.56,1.89-2.96,3.56-3.33-.98,2.24-2.65,4.74-4.8,5.73Z"/>
</svg>