<?xml version="1.0" encoding="utf-8"?>
<!-- Generator: Adobe Illustrator 27.4.1, SVG Export Plug-In . SVG Version: 6.00 Build 0)  -->
<svg version="1.1" id="_x2014_ÎÓÈ_x5F_1" xmlns="http://www.w3.org/2000/svg" xmlns:xlink="http://www.w3.org/1999/xlink"
	 x="0px" y="0px" viewBox="0 0 607.5 300" style="enable-background:new 0 0 607.5 300;" xml:space="preserve">
<style type="text/css">
	.st0{fill:#FFFFFF;}
	.st1{fill:none;stroke:#69A6C2;stroke-width:3.24;stroke-linecap:round;stroke-linejoin:round;}
	.st2{fill:#69A6C2;}
</style>
<rect x="2718.9" y="-828.3" class="st0" width="2200" height="2200"/>
<path class="st1" d="M229.3,94.1c1.4-4.6,3-10.7,6-15.3c7.6-21.3,22.9-41.1,42.7-50.3c3-1.5,6.1-1.5,9.2-1.5
	c7.6-3,15.2-7.6,24.4-9.2c27.4-4.6,53.3-1.5,77.7,12.2c33.5,19.8,53.3,61,39.6,97.5c-1.5,3-3,6.1-4.6,10.7c-1.5,3-3,6.1-6.1,9.2
	c-3,1.5-4.6,4.6-7.6,7.6c-6.1,6.1-13.7,7.6-19.8,12.2c-7.6,4.6-15.2,7.6-22.9,10.7c-35.1,12.2-74.7,9.2-108.2-4.6
	c-27.4-12.2-36.6-42.7-38.1-70.1c-3-24.4,6.1-47.2,22.9-65.5c3-1.5,4.6-4.6,7.6-7.6c33.5-27.4,76.2-32,117.3-21.3c1.5,0,1.5,3,3,3
	c44.2,12.2,73.1,56.4,67,100.6c-4.6,38.1-32,67-67,79.2c-35.1,12.2-71.6,1.5-108.2,1.5c-1.5,0-3,3-4.6,6.1 M259.7,199.2
	C261,195.5,268.6,197.2,259.7,199.2z M259.7,199.2c11.3-2.6,9-19.1,1.1-24.2c-10-6.5-20.1,6.6-25.9,13.1
	c-23.2,26.2-47.4,51.6-71.4,77c-13.4,14.2-27.3,28.1-40,43 M123.5,308.2c1.3,0,2.6-0.2,3.8-0.7C125.9,307.2,124.6,307.4,123.5,308.2
	z M123.5,308.2c12.8-0.8,20.4,8.4,26.5,17.5v3c-3,3-7.6,4.6-10.7,3c-7.6-3-13.7-12.2-16.8-19.8c13.7-1.5,15.2,13.7,24.4,18.3
	c35.1-22.9,54.9-61,82.3-93c4.6-4.6,9.2-10.7,15.2-15.2c13.7-15.2,22.9-33.5,16.8-53.3c-4.6-19.8-22.9-32-28.9-51.8
	c-1.5-7.6-1.5-15.2-3.1-23.2"/>
<path class="st2" d="M207.7,125.1c-0.6,0.1-1.2,0.2-1.8,0.2c-21.7,1.6-41.9-1.6-61.4-4.6h-0.2c-19.5-3-38-5.8-58-4.5
	c-22.9,1.5-43.5,8.2-65.1,21.1c-0.8,0.4-1.1,1.5-0.6,2.4c0.5,0.8,1.5,1.1,2.4,0.6c46.2-27.7,82.5-22,120.9-16.1h0.3
	c19.7,3,40,6.2,62,4.6c1.1-0.1,2.3-0.2,3.5-0.5c4.4-0.9,9.9-2.8,15.4-5.8l-3.3-2.2C216.5,122.9,211.6,124.5,207.7,125.1z"/>
<path class="st2" d="M600,124.9c-0.3-0.5-0.8-0.8-1.3-0.9l-3.2-0.3c-39.3-3.7-57.8-1.9-77.3-0.1c-9.9,1-18.8,2.2-26.8,3.2l-1.4,0.2
	c-25.5,3.4-42.5,5.7-51.1-4.5c-0.3-0.4-0.6-0.7-0.9-1.1l-2.6,2.4c0.2,0.3,0.4,0.6,0.7,0.9c9.9,11.6,27.5,9.2,54.2,5.7l0.5-0.1
	c8.1-1.1,17.4-2.4,27.5-3.3c19.9-1.9,38.6-3.7,80,0.4c0.4,0.1,1-0.1,1.3-0.3c0.3-0.3,0.5-0.5,0.6-0.9l1.7,0.2L600,124.9z"/>
</svg>
