<?xml version="1.0" encoding="utf-8"?>
<!-- Generator: Adobe Illustrator 28.3.0, SVG Export Plug-In . SVG Version: 6.00 Build 0)  -->
<svg version="1.1" id="_x2014_ÎÓÈ_x5F_1" xmlns="http://www.w3.org/2000/svg" xmlns:xlink="http://www.w3.org/1999/xlink"
	 x="0px" y="0px" width="464.5px" height="300px" viewBox="0 0 464.5 300" style="enable-background:new 0 0 464.5 300;"
	 xml:space="preserve">
<style type="text/css">
	.st0{fill:#FFFFFF;}
	.st1{fill:#68A6C2;}
</style>
<rect x="2575.9" y="-828.3" class="st0" width="2200" height="2200"/>
<g>
	<path class="st1" d="M458,227.9c-8.1-5-16-10.4-23.8-15.7c-6.5-4.4-13.1-9.1-19-14.3c-2.6-2.2-5-4.7-6.7-7.7
		c-1.9-3.5-1.8-7.5-3-11.2c-6-18.2-8.2-37.4-12.4-56.1c-3.3-14.9-18.6-23.6-23.8-37.8c-1.4-3.8-2.3-7.4-4.2-11
		c-2.1-4-4.5-7.7-6.3-11.8c-2.2-5-2.8-10.1-1.8-15.5c0.7-3.4,1.7-6.7,0.3-10.1c-0.1-0.1-0.2-0.2-0.4-0.2
		c-6.9-0.8-10.2,12.3-4.3,15.4c0.2,0.1,0.5,0,0.6-0.2c1.4-4.2,2.9-8.4,3.1-12.9c0.1-2.9-1.1-4.8-3.5-6.4c-5.2-3.4-9.6-0.6-13.1,3.6
		c-8.1,10.1-8.7,25-6.6,37.2c0.5,3,1.2,6.2,2.3,9.1c1.5,3.7,3.8,7.1,5.7,10.6c2.1,3.7,4.1,7.5,5.4,11.6c0.6,2,2.6,6.8,0.2,8.1
		c-1.4,0.8-3.9,0-5.3-0.5c-0.9-0.3-1.8-0.6-2.6-1.1c-0.2-0.1-0.4-0.2-0.5-0.3c-0.9-0.5-1.1-0.7-0.5-0.5c1.2-1.7,6.1,1.7,7.1,2.6
		c2.3,2,3,3.9,3.1,6.8c0.1,2.9-0.1,5.8-0.5,8.6c-1.3,9.9-4.9,19.5-6.1,29.4c-1.2,9.9-2.2,20.6-0.1,30.4c0.5,2.3,1.1,4.5,1.2,6.9
		c0.1,1.7,0.1,3.5,0.3,5.2c0.4,3,1.6,5.5,4.1,7.3c0.3,0.2,0.7-0.1,0.6-0.5c-0.5-2.8-2-5-3.9-7.2c-1.1-1.2-2.3-2.4-3.4-3.6
		c-2.4-2.7-2.9-5.2-3.3-8.8c-1-9.5-0.9-19-0.8-28.6c0.1-19.9-0.4-39.9,0-59.8c0.2-9-0.2-17.9-0.2-26.9c0-8.6,0-17.2-0.4-25.7
		c-0.2-4.7-1.2-9.6-5.1-12.6c-4.5-3.4-10.2-3-15.5-3.1c-15.9-0.2-31.8-0.8-47.7-0.6c-6.7,0.1-13.3,0.3-20,0.4
		c-4.8,0.1-9.9,0.1-14.4,2.1c-4.1,1.8-6.8,5.3-8.3,9.4c-1.1,3.1-1.6,6.3-1.7,9.5c0,1.8-0.1,3.7-0.2,5.5c-0.1,1.5,0.1,4.4-0.6,5.8
		c-1,1.9-4.3,1.4-6.4,1.6c-1.6,0.2-3.2,0.3-4.8,0.8c-2.6,0.8-5.2,2.3-7.1,4.3c-3.7,3.9-4.5,10.2-1.9,14.9
		c3.5,6.3,18.8,16.5,23.7,6.5c1.7-3.4,1.7-7.6,1.2-11.3c-0.3-2.4-1-6.7-3.4-8c-0.3-0.1-0.6,0-0.6,0.4c-0.2,8.9,0.2,17.8,0.5,26.7
		c0.3,8.6-7.9,5.6-13.1,8.6c-4.5,2.6-6.7,7.4-7.4,12.4c-0.3,1.9-1.4,9.8,1.1,10.8c2.2,0.8,4.8-3.4,5.8-4.7c1.3-1.8,4.8-5.8,3.8-8.3
		c-1.5-3.9-6-0.1-7.1,1.9c-2.5,4.6-3.5,11.1-1.1,16c1.2,2.4,3.2,3.3,5.8,3.5c1.5,0.1,4.6-0.5,5.9,0.4c1.7,1.2-1,4.2-1.8,5.7
		c-0.8,1.6-1.5,3.2-1.9,5c-0.2,0.7-0.3,1.4-0.4,2.1c-0.1,0.7,0.4,3.5-1.2,1.7c-1.5-1.8-0.7-6-0.1-7.8c0.9-2.7,2.7-5,4.6-7.1
		c0.1-0.2,0.2-0.4,0-0.6c-3.7-3-8.3-1.8-10.8,2.2c-3.1,4.9-0.1,9.8,2.5,14.2c2.8,4.7,6.1,7.3,11.6,6.6c0.6-0.1,3.2-0.5,3.9-0.6
		c0.8-0.1,2.2-0.6,2.5,0.2c0.2,0.7-0.5,1.9-2.3,2.5c-0.6,0.2-1.5,0.3-2.2,0.3c-2.7,0.2-5.3-0.1-7.6,1.6c-7,5.1-8,18.2-0.3,23.2
		c5.2,3.4,10.5,0.1,13.9-4.3c2.4-3.1,2.2-6.3,2.2-10.2c-0.1-4.9-1.4-11-0.1-15.8c1-3.7,4.2-6.8,3.8-10.9c-0.3-3.9-3.1-8.1-5.9-10.6
		c-2.5-2.2-8.5-4.5-9.1,0.5c0,0.2,0.2,0.4,0.4,0.4c5.8,0.5,8.3-6.1,8.8-10.9c0.4-2.8,0-5.2-1.2-7.8c-1-1.9-2.3-3.8-2.6-6
		c-0.4-2.6,0.9-6.1,2.8-8c1.3-1.3,2.7-1.6,3.2-3.5c1-3.6,0.2-8,0.2-11.7c0-8.1,0-16.1,0-24.2c0-3.9,0-7.8,0-11.8
		c0-3.4-0.3-6.7,1.4-9.8c2.4-4.4,6-6.4,10.9-6.4c3.4,0,6.8,0,10.2,0c3.9,0,7.7,0.1,11.6,0.1c3.3,0,7.9-0.7,10.1,2.2
		c1.4,1.8,2.1,3.3,4.6,3.6c2.1,0.3,4.3-0.2,5.6-1.9c0.7-0.9,1-2.2,1.8-3c1.1-1.2,2.7-1,4.2-1c3.7,0,7.3,0.1,11,0.1
		c4.5,0.1,9,0.1,13.5,0.1c3.7,0,8,0.3,11,2.7c5.1,4,3.7,12.2,3.8,17.9c0,5.8,0.1,11.6,0.1,17.5c0,15.1,0.4,30.2,0.2,45.3
		c-0.1,11.2-0.4,22.4-0.5,33.6c-0.1,10.6,0.2,21.1,0.1,31.7c-0.1,9.7,0,19.3,0,29c0,5,0,10.1-0.2,15.1c-0.1,4.2,1,11.1-2.6,14.1
		c-3,2.6-8,1.9-11.8,1.9c-4.5,0-9,0-13.6,0c-12.6,0-25.2,0.1-37.9,0.1c-5.1,0-10.3,0-15.4,0c-3.6,0-7.7,0.4-11.1-0.7
		c-8.3-2.6-7-11.3-7-18.2c0-6.9,0-13.7,0-20.6c0-3,0.1-6-0.1-8.9c-0.1-2.1-0.2-5.8-2-7.2c-3-2.4-5.1,2.5-5.1,4.9
		c0,9.8,0.2,19.6,0.3,29.4c0.1,4.9,0.1,9.8,0.2,14.7c0,2.7-0.1,4.1,1.3,6.5c2.9,5,6.3,6.7,11.9,7c6.1,0.4,12.3,0.1,18.4,0.2
		c15.4,0.1,30.8,0.3,46.1,0.3c7.2,0,14.5,0.1,21.7-0.2c3.3-0.2,7.4-0.3,10.2-2.4c3.1-2.3,3.9-6.7,4.5-10.2c1.2-7.5,1.6-15.2,2-22.8
		c0.1-2.9,1.5-12-2.5-13.3c-0.2-0.1-0.4,0-0.5,0.2c-1.3,2.5-0.7,6.3-0.8,9c-0.2,5.3-0.3,10.7-0.5,16c-0.1,2.8-0.2,5.7-0.2,8.5
		c0,2-0.4,4.8,0.2,6.7c0.7,2.3,3.6,3.9,5.5,5c3.1,1.8,6.5,3.1,9.7,4.5c3.2,1.4,6.3,3.2,9.5,4.5c2.6,1.1,4.6,0.8,6.7-1.1
		c3.7-3.4,7.1-7.2,10.4-11c7.7-9,14.6-18.8,22.3-27.9c0.1-0.2,0.2-0.4,0-0.6c-2.5-2.7-6.6,4.4-7.8,5.8c-4.5,5.5-9,10.9-13.5,16.4
		c-4.4,5.3-9.4,10.5-13.2,16.2c-1,1.5-1.7,2.9-0.6,4.4c1.3,1.6,3.6,3,5.2,4.3c3.1,2.7,6.3,5.4,9.3,8.1c6.8,6.1,13.6,12.3,19.5,19.3
		c0.3,0.4,0.9-0.2,0.6-0.6c-6.6-7.9-14.3-14.8-22-21.5c-3.1-2.7-6.2-5.4-9.4-8c-0.7-0.6-1.8-1.2-2.3-1.9c-0.1-0.2-0.5-0.3-0.6-0.5
		c-0.7-1.5,2-4.2,2.8-5.2c5-6.2,10.1-12.4,15.2-18.5c2.4-2.9,4.8-5.8,7.2-8.7c1-1.2,7.7-10.5,8.7-8.9c0.6,0.5-25.3,31.4-27.9,34.1
		c-1.1,1.2-2.2,2.3-3.4,3.4c-2.1,1.9-3.8,2.9-6.6,1.8c-2.5-1-5-2.5-7.5-3.6c-4.4-2-9.1-3.6-13.1-6.3c-3.2-2.1-3.8-3.7-3.9-7.5
		c-0.1-4.1,0-8.3,0.2-12.4c0.2-6.8,0.1-13.7,0.6-20.5c0.3-4.9,1.8,0.9,2,2.6c0.2,2.6,0.1,5.1-0.1,7.7c-0.3,5.7-0.7,11.4-1.3,17.1
		c-0.6,6-1.1,14.5-8.1,16.2c-3.4,0.8-7,0.8-10.4,0.9c-5,0.1-9.9,0.1-14.9,0.1c-11.3,0-22.5,0-33.8-0.1c-8.1-0.1-16.2-0.2-24.3-0.2
		c-4.6,0-9.9,0.6-14.3-0.9c-3.2-1.1-6.6-5-7.2-7.9c-0.3-1.5,0-3.3-0.1-4.8c0-3.3-0.1-6.6-0.1-9.9c-0.1-7.9-0.2-15.9-0.2-23.8
		c0-2.7-0.1-5.5-0.1-8.2c0-0.7,0.1-1.4,0.1-2.1c0.2-1.8,1.4-3.8,2.6-3.8c1,0,1.6,0.9,2.1,2.3c1.4,4.3,0.8,9.4,0.8,13.9
		c0,4.7,0,9.5,0,14.2c0,4.3,0,8.6,0,12.9c0,3.5,0.2,6.7,2.9,9.3c4.2,4.1,10.4,3.4,15.8,3.5c16.2,0,32.4-0.1,48.5-0.1
		c6.4,0,12.9,0,19.3-0.1c4.7,0,11,0.6,13.3-4.3c1.1-2.3,0.9-5,1-7.5c0.1-3.4,0.2-6.8,0.2-10.1c0.1-7,0.1-14,0.1-21
		c0-13.4-0.1-26.7-0.1-40.1c0.1-25.6,0.4-51.2,0.3-76.8c0-8.9,0.1-17.8-0.1-26.7c-0.1-6.2,1.6-15.2-3.3-20.1
		c-2.6-2.6-6.5-3.4-10.1-3.6c-5.9-0.4-11.9-0.1-17.8-0.1c-2.4,0-4.9-0.1-7.3-0.1c-1.5,0-3.4-0.3-4.8,0.1c-4,1.2-2.5,6.6-8.3,5.9
		c-3.8-0.5-4-5-7.9-5.6c-4.5-0.7-9.5-0.2-14.1-0.3c-4.9,0-9.8-0.1-14.8-0.1c-4.3,0-7.6,1.3-10.3,4.9c-2.5,3.3-2.7,6.5-2.7,10.5
		c0,5.2,0,10.5,0,15.7c0,5.9,0,11.8,0,17.6c0,2.1,0,4.2,0,6.3c0,2.8,0.8,7.1-0.2,9.7c-0.6,1.5-2.1,1.9-3.1,3.1
		c-1.4,1.5-2.4,3.9-2.8,5.9c-1.1,5,3.8,8.7,4,13.6c0.1,2.2-0.3,4.4-1,6.5c-0.4,1.3-1,2.5-1.8,3.6c-0.5,0.6-3.8,3.7-4.6,2.4
		c-0.3-0.4,0.6-1.8,2.4-1.6c0.7,0.1,1.4,0.3,1.9,0.4c1.2,0.4,2.2,1,3.1,1.9c3.3,2.9,6.4,8.1,5.4,12.6c-0.6,2.9-2.7,5.3-3.5,8.1
		c-0.9,3.2-0.3,7.1-0.2,10.4c0.2,3.5,0.5,7.1,0.1,10.6c-0.5,4-3.7,7.7-7.4,9.4c-6.4,3-11.5-3.5-12.2-9.2c-0.5-4.6,1-9.8,4.7-12.8
		c3.5-2.8,10-0.1,12.7-3.8c1.6-2.3-0.2-3.3-2.2-3c-2.3,0.4-6.2,1.7-8.6,1.1c-3.1-0.7-5.1-3.4-6.7-6c-2.9-4.7-6.3-10.8-1.3-15.4
		c1.3-1.2,3-2,4.9-1.9c1,0.1,2.6,0.3,2.5,1.7c0,0.2-1.4,1.7-1.4,1.7c-1.4,1.9-2.6,4.1-3.1,6.4c-0.5,2.4-0.7,8.4,2.8,8.7
		c0.2,0,0.4-0.2,0.4-0.4c-0.3-6,2.6-10.7,5.5-15.6c0.1-0.2,0-0.5-0.1-0.6c-4-2.2-9.4,0.4-12.5-3.5c-3.1-3.8-1.6-11.1,0.3-15.2
		c0.4-0.9,1-2.1,1.7-2.8c1.2-1.2,2.8-1.4,3.5-1.1c0.7,0.4,1,1.2,0.8,2.2c-0.2,1-1.3,2.6-1.8,3.4c-1.3,2.1-2.9,5.2-5.1,6.6
		c-2.3,1.4-2.3-1.3-2.4-3.2c-0.1-2.2-0.1-4.5,0.3-6.7c0.7-4.2,2.6-8.2,6.2-10.7c4.3-2.9,12.9-0.5,14.2-7.1c0.3-1.6,0-3.3,0-4.9
		c0-3-0.1-5.9-0.2-8.9c-0.1-2.6-0.2-5.1-0.3-7.7c0-1.3-0.1-2.6-0.1-3.9c0-0.6,0.1-1.3,0-2c-0.1-0.6-0.6-1.6-0.1-1.3
		c1.3,0.7,1.8,3.5,2.2,4.8c0.5,2.2,0.8,4.5,0.7,6.8c-0.1,4.9-2.1,10.6-8,10c-8.9-0.9-18.8-9.4-16.6-18.8c1-4.4,4.6-7.5,8.6-9
		c2.9-1.1,6-1.1,9-1.4c0.9-0.1,2.2,0.1,3-0.6c1.6-1.5,1.2-6,1.3-7.9c0.2-4.7,0.2-9.4,1.7-13.9c2.4-7,7.9-10.2,15-11
		c7-0.8,14.3-0.5,21.4-0.6c18.2-0.5,36.4,0.6,54.6,0.5c7.4-0.1,15.4,0.9,17.7,9.2c1.3,4.7,0.9,10.1,1,15c0.1,4.5,0.1,9.1,0.1,13.6
		c0,5,0,10,0.3,15c0.3,5.4,0,10.7-0.1,16c-0.2,11.6,0,23.2,0,34.8c0,11.4-0.1,22.7,0,34.1c0,5.6,0.2,11.2,0.7,16.8
		c0.4,4.1,0.6,7.1,3.4,10.3c2.9,3.4,6.5,6.1,7.4,10.7c0.2-0.2,0.4-0.3,0.6-0.5c-4-2.9-3.8-7.8-4.1-12.2c-0.3-4.7-1.9-9.2-2.2-14
		c-0.7-10.5,0.5-21.6,2.8-31.8c2.2-9.6,5.2-19.2,4.9-29.1c-0.1-3.8-1-5.7-4.1-8c-2.3-1.8-5.1-2.9-7.9-1.9c-0.3,0.1-0.4,0.4-0.2,0.7
		c2.1,2.4,6.9,3.8,10,3.1c4.5-1.1,1-8.5,0-11.2c-2.3-6.1-5.9-11.6-8.9-17.3c-2.9-5.6-4-12-4.5-18.2c-0.5-6.3-0.1-12.8,1.7-19
		c1.5-5.3,5.2-14.1,11.1-15.8c3.2-1,7.7,0.9,9.2,4c1.8,3.7-0.7,9.7-1.9,13.3c0.1-0.4-0.5,1.7-0.6,1.7c-0.7,0.2-1.6-2-1.8-2.4
		c-0.3-1-0.4-2-0.3-3c0.2-2.7,1.3-6,3.6-7.5c4.7-3.1,2.7,6,2.2,8.1c-0.6,2.9-0.9,5.8-0.5,8.8c0.8,6.2,4.1,11.6,7.1,17
		c1.6,2.9,3.3,6,4.3,9.2c0.9,2.9,1.7,5.7,3,8.5c2.7,5.2,6.4,9.7,10.2,14.2c4.3,5.2,9.7,10.9,11.4,17.6c2.1,7.9,3.3,16.1,4.8,24.1
		c1.5,7.9,3,15.7,5,23.5c1,3.7,2.1,7.3,3.2,10.9c0.9,3,0.9,6.2,2.2,9.2c2.2,5.2,6.8,9,11.1,12.4c5.8,4.4,11.5,8.7,17.6,12.8
		c7.2,4.9,14.5,9.8,21.9,14.4C458,228.9,458.4,228.2,458,227.9L458,227.9z"/>
</g>
<path class="st1" d="M217.1,233.8c9.6-5.2,22.3-1.3,28,7.7c6,9.5,4.6,23.1-3,31.4c-8.5,9.3-22.7,7.8-31.7,0.1
	c-4.6-4-8.4-9.5-9.1-15.6c-0.7-5.9,1.2-11.9,5-16.4c7.4-9,24.8-13.9,32.9-3c0.3,0.3,0.8,0,0.6-0.3c-6.9-10-22-7.5-30.3-1
	c-4.8,3.8-8.1,9.2-9,15.3c-0.9,6.4,1.2,12.4,5.2,17.4c7.7,9.7,21.8,14.6,32.9,7.6c10.4-6.5,13.6-21.6,9-32.5
	c-4.9-11.6-19.6-17.6-30.8-11.1C216.6,233.5,216.8,233.9,217.1,233.8z"/>
<path class="st1" d="M84.5,184.8c-8.4-1-14.8-9.1-14.4-17.5c0.4-8.8,7.4-16.8,16-18.7c9.6-2.1,18.1,5.2,20.3,14.1
	c1.2,4.6,1.1,9.8-1.2,14.1c-2.2,4.1-6.1,7.1-10.6,8.3c-8.8,2.4-22.1-2.3-22.4-12.9c0-0.3-0.5-0.4-0.5,0c0,9.5,10.7,14.7,19,14.2
	c4.8-0.3,9.3-2.3,12.6-5.8c3.5-3.7,4.8-8.5,4.5-13.5c-0.6-9.6-7.4-19.1-17.7-19.6c-9.6-0.5-18.4,7.7-20.3,16.8
	c-2,9.6,4.6,20,14.7,20.9C84.7,185.2,84.8,184.8,84.5,184.8z"/>
<path class="st1" d="M27.7,249.2c-12-1.4-21-12.9-20.5-24.8c0.6-12.4,10.5-23.9,22.6-26.6c13.6-3,25.6,7.4,28.8,20
	c1.7,6.5,1.6,13.9-1.7,20c-3.1,5.7-8.7,10-15,11.7c-12.5,3.4-31.3-3.2-31.8-18.2c0-0.5-0.8-0.6-0.8-0.1
	c-0.1,13.4,15.1,20.8,26.9,20.2c6.8-0.4,13.2-3.2,17.9-8.2c4.9-5.3,6.8-12,6.4-19.1c-0.9-13.7-10.5-27.1-25-27.8
	C22,195.7,9.5,207.2,6.8,220.1c-2.9,13.6,6.5,28.4,20.8,29.6C28,249.7,28,249.2,27.7,249.2z"/>
<path class="st1" d="M264.2,78.7c7.8-9,21.4-11.6,32.2-6.7c10.9,5,18.6,16.4,19.5,28.3c1.1,14.5-10.8,25.3-23.4,30.2
	c-6.8,2.6-14.6,4.1-21.4,0.6c-5.4-2.8-10.2-7.4-13.5-12.5c-7.2-10.9-7.1-25.3,1.3-35.6c8.5-10.4,24.3-14.4,36.3-7.9
	c11.1,6,18.5,18.8,16.2,31.5c-2.3,12.4-12.5,21.8-25.1,23c-13.8,1.3-26.4-7.1-31.1-20c-2.4-6.6-2.8-14.3,1-20.4
	c3.6-5.7,9.8-9.4,15.4-12.9c0.4-0.2,0-0.9-0.4-0.6c-5.5,3.1-11.1,6.6-14.9,11.7c-4,5.4-4.6,12.1-3.2,18.5
	c2.7,12.3,12.8,22.4,25.4,24.4c12.6,1.9,25.5-4.1,31.2-15.7c6-12,2.7-25.7-6.7-34.9c-10.1-9.8-25.3-11.2-37.3-3.8
	c-11.3,7.1-16.9,21.3-13,34.2c3.6,12,15.4,24.8,28.7,24c13-0.8,28.6-9.6,33.9-22c5.9-13.8-2.1-31-14.1-38.8
	c-11.7-7.6-28.4-6.2-37.3,5C263.7,78.6,264,78.9,264.2,78.7z"/>
<path class="st1" d="M94.8,53.1c3.9-11.4,13.7-19.1,24.9-22.5c11.7-3.6,26.2-4.2,37.4,1.2c18.6,9,27.3,31.9,22.1,51.4
	c-5.3,20.1-25.5,33.8-45.9,34.1c-5.8,0.1-11.8-0.8-17-3.4c-5.1-2.5-9.1-6.7-12.7-11c-7.8-9.4-15.2-19.1-14.3-32
	c0.9-11.7,6.8-23.3,14.8-31.8c8.7-9.3,20.8-13.1,33.3-11.7c23.7,2.6,44.6,23.8,39.5,48.8c-4.5,21.9-29.6,41.5-52.2,36.9
	c-23.6-4.8-35.9-29.5-29.9-51.9c5.5-20.8,27.4-37.9,49.5-31.9c10.9,2.9,22.6,10.7,28.2,20.7c4.9,8.8,5.5,19.7,2.2,29.1
	c-1.7,4.9-4.4,9.2-8,12.8c-0.2,0.2,0.1,0.5,0.3,0.3c7.4-7.2,11-17.4,10.4-27.8c-0.7-10.9-6.3-20-14.9-26.6
	c-9.4-7.2-20.7-11.9-32.7-10c-10.7,1.7-20.6,7.9-27.3,16.4c-14.6,18.5-13.1,47.3,6,62.1c9.2,7.1,21,9.8,32.3,6.9
	c11.4-2.9,21.8-10.6,28.9-20c7.3-9.7,10.5-21.7,7.6-33.6c-2.7-11.4-10.3-21.1-20.5-26.9c-10.7-6.1-24.2-8.3-36.2-4.9
	c-11.6,3.3-20,12.5-25.6,22.7c-5.7,10.3-8.8,23.1-4.2,34.5c2.4,5.8,6.5,10.8,10.3,15.7c3.8,4.8,7.9,9.6,13.2,12.7
	c19.2,11.4,46.5,0.9,58.8-16c12.5-17.1,10.6-42.4-3.9-57.8c-8.8-9.4-20.5-12.8-33.1-12.4c-12.1,0.4-24.6,3.8-33.4,12.5
	c-3.8,3.7-6.5,8.1-8.2,13.1C94.5,53.2,94.8,53.3,94.8,53.1z"/>
<path class="st1" d="M180.2,228.5c-10.6,2-21.7-3.7-26.6-13.3c-5-9.6-4.1-22.1,2-31.1c7.4-11,21.8-11.9,33.5-8.4
	c6.3,1.9,12.7,5.3,15.5,11.5c2.3,5,3.1,11,2.6,16.5c-1,11.8-9.1,21.9-20.9,24.6c-11.8,2.7-25.3-3.4-30.2-14.7
	c-4.5-10.5-2.6-23.7,6.2-31.4c8.6-7.5,21.1-8.5,30.7-2.3c10.6,6.8,14.8,19.8,10.9,31.7c-2,6-6,11.8-12.2,13.9
	c-5.8,2-12.2,1.2-18.2,0.5c-0.4-0.1-0.5,0.6-0.1,0.7c5.6,0.8,11.6,1.5,17.2,0c5.9-1.6,10.1-6,12.6-11.4c4.9-10.3,3.5-23.1-4.4-31.5
	c-7.9-8.5-20.4-11.4-31-6.4c-11,5.2-16.3,16.7-14.8,28.6c1.7,12.7,11.7,22.2,24.4,23.6c12,1.3,23.9-5.7,28.4-17
	c4.2-10.5,3-26.2-6.9-33.2c-9.7-6.8-25.7-9.2-36.4-3.4c-12,6.5-15.9,23.2-11.7,35.5c4,12,16.7,20.3,29.3,17.3
	C180.4,228.9,180.4,228.5,180.2,228.5z"/>
<g>
	<path class="st1" d="M281.4,114.9C281.4,114.9,281.4,114.9,281.4,114.9c-0.6,0-1.1-0.2-1.5-0.6l-8.5-8.5c-0.8-0.8-0.8-2.2,0-3l3-3
		c0.8-0.8,2.2-0.8,3,0l4,4l8.5-8.5c0.8-0.8,2.2-0.8,3,0l3,3c0.8,0.8,0.8,2.2,0,3l-13,13C282.5,114.7,281.9,114.9,281.4,114.9z
		 M275.9,100.4c-0.2,0-0.5,0.1-0.7,0.3l-3,3c-0.4,0.4-0.4,0.9,0,1.3l8.5,8.5c0.2,0.2,0.4,0.3,0.7,0.3h0c0.2,0,0.5-0.1,0.7-0.3l13-13
		c0.4-0.4,0.4-1,0-1.3l-3-3c-0.4-0.4-1-0.4-1.3,0l-8.5,8.5c-0.5,0.5-1.3,0.5-1.7,0l-4-4C276.4,100.5,276.1,100.4,275.9,100.4z"/>
</g>
<g>
	<path class="st1" d="M189.2,214.5c-0.2,0-0.4,0-0.6-0.1l-7.2-3.8l-7.1,3.8c-0.4,0.2-0.9,0.2-1.3-0.1c-0.4-0.3-0.6-0.7-0.5-1.2
		l1.4-8l-5.8-5.6c-0.3-0.3-0.5-0.8-0.3-1.3c0.1-0.5,0.5-0.8,1-0.8l8-1.2l3.6-7.3c0.2-0.4,0.6-0.7,1.1-0.7h0c0.5,0,0.9,0.3,1.1,0.7v0
		l3.6,7.3l8,1.1c0.5,0.1,0.9,0.4,1,0.8c0.1,0.5,0,0.9-0.3,1.3l-5.8,5.7l1.4,8c0.1,0.5-0.1,0.9-0.5,1.2
		C189.7,214.4,189.4,214.5,189.2,214.5z M181.4,209.3c0.2,0,0.4,0,0.6,0.1l7.1,3.7l-1.4-7.9c-0.1-0.4,0.1-0.8,0.4-1.1l5.7-5.6
		l-7.9-1.2c-0.4-0.1-0.8-0.3-0.9-0.7l-3.6-7.2l-3.5,7.2c-0.2,0.4-0.5,0.6-0.9,0.7l-7.9,1.2l5.7,5.6c0.3,0.3,0.4,0.7,0.4,1.1
		l-1.4,7.9l7.1-3.7C181,209.4,181.2,209.3,181.4,209.3z"/>
</g>
<g>
	<path class="st1" d="M152.8,73.9l-3.9-1.9c0-0.6,0-1.3,0-1.9l3.9-2c0.8-0.4,1.1-1.3,0.8-2.2l-1.9-4.5c-0.3-0.8-1.3-1.2-2.1-1
		l-4.1,1.4c-0.4-0.5-0.9-1-1.4-1.4l1.4-4.2c0.3-0.8-0.1-1.8-1-2.1l-4.5-1.9c-0.8-0.3-1.8,0-2.2,0.8L136,57c-0.7,0-1.3,0-1.9,0
		l-2-3.9c-0.4-0.8-1.3-1.1-2.2-0.8l-4.5,1.9c-0.8,0.3-1.2,1.3-1,2.1l1.4,4.1c-0.5,0.4-1,0.9-1.4,1.4l-4.2-1.4
		c-0.8-0.3-1.8,0.1-2.1,1l-1.9,4.5c-0.3,0.8,0,1.8,0.8,2.2l3.9,1.9c0,0.6,0,1.3,0,1.9l-3.9,2c-0.8,0.4-1.1,1.3-0.8,2.2l1.9,4.5
		c0.3,0.8,1.3,1.2,2.1,1l4.1-1.4c0.4,0.5,0.9,1,1.4,1.4l-1.4,4.2c-0.3,0.8,0.1,1.8,1,2.1l4.5,1.9c0.8,0.3,1.8,0,2.2-0.8l1.9-3.9
		c0.7,0,1.3,0,1.9,0l2,3.9c0.3,0.6,0.9,0.9,1.5,0.9c0.2,0,0.4,0,0.6-0.1l4.5-1.9c0.8-0.3,1.2-1.3,1-2.1l-1.4-4.1
		c0.5-0.4,1-0.9,1.4-1.4l4.2,1.4c0.8,0.3,1.8-0.1,2.1-1l1.9-4.5C154,75.2,153.6,74.3,152.8,73.9z M150.2,79.8l-4.2-1.4
		c-0.6-0.2-1.4,0-1.8,0.5c-0.4,0.4-0.8,0.8-1.2,1.2c-0.5,0.5-0.7,1.2-0.5,1.8l1.4,4.1l-4.4,1.9l-2-3.9c-0.3-0.6-0.9-0.9-1.5-0.9
		c0,0-0.1,0-0.1,0c-0.6,0-1.2,0-1.7,0c-0.7-0.1-1.3,0.3-1.6,0.9l-1.9,3.9l-4.4-1.8l1.4-4.2c0.2-0.6,0-1.4-0.5-1.8
		c-0.4-0.4-0.8-0.8-1.2-1.2c-0.5-0.5-1.2-0.7-1.8-0.5l-4.1,1.4l-1.9-4.4l3.9-2c0.6-0.3,1-1,0.9-1.6c0-0.6,0-1.2,0-1.7
		c0-0.7-0.3-1.3-0.9-1.6l-3.9-1.9l1.8-4.4l4.2,1.4c0.6,0.2,1.4,0,1.8-0.5c0.4-0.4,0.8-0.8,1.2-1.2c0.5-0.5,0.7-1.2,0.5-1.8l-1.4-4.1
		l4.4-1.9l2,3.9c0.3,0.6,0.9,1,1.7,0.9c0.6,0,1.2,0,1.7,0c0.7,0,1.3-0.3,1.6-0.9l1.9-3.9l4.4,1.8l-1.4,4.2c-0.2,0.6,0,1.4,0.5,1.8
		c0.4,0.4,0.8,0.8,1.2,1.2c0.5,0.5,1.2,0.7,1.8,0.5l4.1-1.4l1.8,4.4l-3.9,2c-0.6,0.3-1,1-0.9,1.7c0,0.6,0,1.2,0,1.7
		c0,0.7,0.3,1.3,0.9,1.6l3.9,1.9L150.2,79.8z"/>
	<path class="st1" d="M132.4,64.6c-1.7,0.7-3,2-3.7,3.7c-0.7,1.7-0.7,3.5,0,5.2c0.7,1.7,2,3,3.7,3.7c0.8,0.3,1.7,0.5,2.6,0.5
		c0.9,0,1.8-0.2,2.6-0.5c3.5-1.4,5.1-5.4,3.7-8.9C139.9,64.8,135.9,63.2,132.4,64.6z M137,75.6c-1.3,0.5-2.6,0.5-3.9,0
		c-1.3-0.5-2.2-1.5-2.8-2.8c-0.5-1.3-0.5-2.6,0-3.9c0.5-1.3,1.5-2.2,2.8-2.8c0.6-0.3,1.3-0.4,1.9-0.4c2,0,3.9,1.2,4.7,3.1
		C140.8,71.6,139.5,74.6,137,75.6z"/>
</g>
<g>
	<path class="st1" d="M96.9,171.5l-3.6-3.6c0.5-1,0.9-2.1,0.9-3.3c0-3.8-3.1-6.8-6.8-6.8c-3.8,0-6.8,3.1-6.8,6.8
		c0,3.8,3.1,6.8,6.8,6.8c1.1,0,2.1-0.3,3-0.7l3.7,3.7c0.4,0.4,0.9,0.6,1.5,0.6c0.5,0,1.1-0.2,1.5-0.6c0.4-0.4,0.6-0.9,0.6-1.5
		C97.5,172.4,97.3,171.9,96.9,171.5z M81.3,164.6c0-3.3,2.7-6,6-6c3.3,0,6,2.7,6,6c0,3.3-2.7,6-6,6C84,170.6,81.3,167.9,81.3,164.6z
		 M96.3,173.8c-0.5,0.5-1.3,0.5-1.8,0l-3.5-3.5c0.7-0.5,1.3-1.1,1.8-1.7l3.5,3.5c0.2,0.2,0.4,0.6,0.4,0.9
		C96.7,173.3,96.6,173.6,96.3,173.8z"/>
	<path class="st1" d="M89.8,162.1c-0.7-0.7-1.5-1-2.5-1c-0.7,0-1.4,0.2-2,0.7c-0.2,0.1-0.2,0.4-0.1,0.6c0.1,0.2,0.4,0.2,0.6,0.1
		c0.5-0.3,1-0.5,1.6-0.5c0.7,0,1.4,0.3,1.9,0.8c0.2,0.2,0.4,0.5,0.5,0.7c0.1,0.1,0.2,0.2,0.4,0.2c0.1,0,0.1,0,0.2,0
		c0.2-0.1,0.3-0.3,0.2-0.5C90.3,162.7,90.1,162.4,89.8,162.1z"/>
	<path class="st1" d="M87.3,159.2c-3,0-5.4,2.4-5.4,5.4c0,3,2.4,5.4,5.4,5.4s5.4-2.4,5.4-5.4C92.7,161.6,90.3,159.2,87.3,159.2z
		 M87.3,169.1c-2.5,0-4.6-2-4.6-4.6c0-2.5,2-4.6,4.6-4.6c2.5,0,4.6,2,4.6,4.6C91.9,167.1,89.8,169.1,87.3,169.1z"/>
</g>
<g>
	<path class="st1" d="M39.7,215.9l-10.9,1c-0.3,0-0.5,0.3-0.5,0.6c0,0.3,0.3,0.5,0.6,0.5l10.9-1c0.3,0,0.5-0.3,0.5-0.6
		C40.3,216.1,40,215.9,39.7,215.9z"/>
	<path class="st1" d="M40.6,210l-11.2,1c-0.2,0-0.4,0.1-0.5,0.3l-3.3,4c-0.1,0.2-0.2,0.4-0.2,0.6l1.6,18c0.1,1.1,1,1.8,2.1,1.7
		l13.7-1.2c1.1-0.1,1.8-1,1.7-2.1l-1.8-20.5C42.5,210.7,41.6,209.9,40.6,210z M28.9,213l0.1,1.6c0,0.1-0.1,0.3-0.2,0.3l-1.6,0.1
		L28.9,213z M43.3,232.4c0,0.4-0.3,0.8-0.7,0.8l-13.7,1.2c-0.4,0-0.8-0.3-0.8-0.7l-1.6-17.6l2.4-0.2c0.8-0.1,1.3-0.8,1.3-1.5
		l-0.2-2.4l10.7-1c0.4,0,0.8,0.3,0.8,0.7L43.3,232.4z"/>
	<path class="st1" d="M39.9,218.8l-10.9,1c-0.3,0-0.5,0.3-0.5,0.6c0,0.3,0.3,0.5,0.6,0.5l10.9-1c0.3,0,0.5-0.3,0.5-0.6
		C40.5,219,40.2,218.8,39.9,218.8z"/>
	<path class="st1" d="M38.1,227.7l-8.3,0.7c-0.3,0-0.5,0.3-0.5,0.6c0,0.3,0.3,0.5,0.6,0.5l8.3-0.7c0.3,0,0.5-0.3,0.5-0.6
		C38.7,227.9,38.4,227.7,38.1,227.7z"/>
	<path class="st1" d="M40.4,224.6l-10.9,1c-0.3,0-0.5,0.3-0.5,0.6c0,0.3,0.3,0.5,0.6,0.5l10.9-1c0.3,0,0.5-0.3,0.5-0.6
		C41,224.8,40.8,224.6,40.4,224.6z"/>
	<path class="st1" d="M40.2,221.7l-10.9,1c-0.3,0-0.5,0.3-0.5,0.6c0,0.3,0.3,0.5,0.6,0.5l10.9-1c0.3,0,0.5-0.3,0.5-0.6
		C40.8,221.9,40.5,221.7,40.2,221.7z"/>
</g>
<g>
	<path class="st1" d="M225.6,248.4c-1.8,0-3.4,0.9-4.4,2.7c-0.1,0.2-0.1,0.4-0.1,0.5c0,0.2,0.2,0.3,0.3,0.4l1.9,1.1
		c0.3,0.2,0.8,0.1,1-0.2c0.4-0.6,0.8-0.9,1.3-0.9c0.5,0,1,0.5,1,1c0,0.3-0.1,0.4-1,0.9c-0.7,0.4-1.8,0.9-1.8,2.3v1.5
		c0,0.5,0.4,0.9,0.9,0.9h1.8c0.5,0,0.9-0.4,0.9-0.9c0-0.5,0-0.8,0.1-0.9c0.1-0.2,0.4-0.3,0.6-0.5c0.8-0.6,2.1-1.5,2.1-3.4
		C230.2,250.5,228.2,248.4,225.6,248.4z M227.5,255.5c-0.4,0.3-0.7,0.5-0.9,0.8c-0.1,0.1-0.2,0.4-0.2,1.3h-1.5v-1.4
		c0-0.6,0.5-1,1.2-1.3c0.9-0.5,1.6-0.9,1.6-1.9c0-1.1-0.9-2.1-2-2.1c-0.6,0-1.4,0.2-2,1.1l-1.3-0.7c0.8-1.2,2-1.9,3.3-1.9
		c1.9,0,3.5,1.6,3.5,3.6C229.2,254.3,228.3,255,227.5,255.5z"/>
	<path class="st1" d="M225.6,259c-1.2,0-2.1,0.9-2.1,2.1c0,1.2,0.9,2.1,2.1,2.1c1.2,0,2.1-0.9,2.1-2.1
		C227.7,260,226.8,259,225.6,259z M225.6,262.2c-0.6,0-1.1-0.5-1.1-1.1c0-0.6,0.5-1.1,1.1-1.1c0.6,0,1.1,0.5,1.1,1.1
		C226.7,261.7,226.2,262.2,225.6,262.2z"/>
	<path class="st1" d="M235.1,262c1.2-1.8,1.8-4,1.8-6.1c0-6.2-5.1-11.3-11.3-11.3c-6.2,0-11.3,5.1-11.3,11.3
		c0,6.2,5.1,11.3,11.3,11.3c2.2,0,4.3-0.6,6.1-1.8l4.1,1.5c0.2,0.1,0.4,0,0.6-0.1c0.1-0.1,0.2-0.4,0.1-0.6L235.1,262z M231.9,264.2
		c-0.2-0.1-0.3,0-0.5,0.1c-1.7,1.2-3.7,1.8-5.8,1.8c-5.6,0-10.2-4.6-10.2-10.2c0-5.6,4.6-10.2,10.2-10.2c5.6,0,10.2,4.6,10.2,10.2
		c0,2.1-0.6,4.1-1.8,5.8c-0.1,0.1-0.1,0.3-0.1,0.5l1.2,3.3L231.9,264.2z"/>
</g>
</svg>
