<?xml version="1.0" encoding="utf-8"?>
<!-- Generator: Adobe Illustrator 27.4.1, SVG Export Plug-In . SVG Version: 6.00 Build 0)  -->
<svg version="1.1" id="_x2014_ÎÓÈ_x5F_1" xmlns="http://www.w3.org/2000/svg" xmlns:xlink="http://www.w3.org/1999/xlink"
	 x="0px" y="0px" viewBox="0 0 607.5 300" style="enable-background:new 0 0 607.5 300;" xml:space="preserve">
<style type="text/css">
	.st0{fill:#FFFFFF;}
	.st1{fill:#68A6C2;}
</style>
<rect x="2718.9" y="-828.3" class="st0" width="2200" height="2200"/>
<g>
	<path class="st1" d="M621.4,249.7L621.4,249.7c-10.5-6.5-20.9-13.5-30.8-20.3l-1.9-1.3c-8.1-5.5-17.5-12.1-26-19.6
		c-4.1-3.4-7-6.8-9-10.4c-1.5-2.8-2.1-5.8-2.6-9c-0.4-2-0.8-4.2-1.4-6.2c-5.4-16.3-8.6-33.6-11.7-50.2c-1.6-8.8-3.3-17.9-5.3-26.7
		c-2.5-11.2-9.9-20-17.1-28.5c-6.1-7.2-12.4-14.6-15.6-23.5c-0.6-1.6-1.1-3.1-1.6-4.6c-1.2-3.6-2.4-7.1-4.2-10.6
		c-1.1-2-2.2-4-3.3-5.9c-1.9-3.3-3.8-6.7-5.4-10.3c-3-6.8-3.8-13.6-2.4-20.8c0.1-0.5,0.2-1.1,0.3-1.6c0.9-4.1,1.8-8.3,0-12.7
		l-0.2-0.3c-0.2-0.2-0.5-0.5-1-0.5c0,0,0,0,0,0c-0.2,0-0.5,0-0.7,0c-0.7-2.1-2.2-3.9-4.6-5.5c-6.3-4.1-12.7-2.4-19,5.1
		c-1.4,1.7-3.3,4.5-5.1,8.3c-0.8-4.2-2.6-8.6-6.6-11.6c-5.7-4.3-12.5-4.3-19.2-4.4c-0.9,0-1.7,0-2.6,0c-7.3-0.1-14.5-0.2-21.8-0.4
		c-14.3-0.3-29.1-0.6-43.7-0.4c-4.6,0.1-9.1,0.2-13.7,0.3c-4.6,0.1-9.2,0.2-13.8,0.3l-1,0c-6.4,0.1-13.1,0.3-19.1,2.9
		c-5.4,2.4-9.5,7-11.8,13.4c-1.4,4-2.2,8.5-2.4,13.3c0,2.4-0.1,4.9-0.3,7.5c0,0.5,0,1.2-0.1,1.9c0,2-0.1,4.5-0.7,5.7
		c-0.8,1.6-3.6,1.7-5.9,1.7c-0.8,0-1.6,0-2.3,0.1c-0.4,0.1-0.9,0.1-1.3,0.2c-1.8,0.2-3.6,0.4-5.4,1c-3.9,1.2-7.5,3.4-10.1,6.1
		c-5.3,5.6-6.5,14.6-2.7,21.4c3.5,6.2,15.2,15.3,24.4,15.1c1.7,0,3.3-0.4,4.7-1.1c0,0,0,0.1,0,0.1l0.2,5.2c0.3,7.2-4,7.9-9.4,8.8
		c-2.8,0.5-5.7,0.9-8.2,2.4c-7.3,4.2-9.7,11.9-10.5,17.6c-0.8,5.1-1.6,13.7,1.7,15.5c0.2,2.3,0.8,4.5,1.8,6.5
		c0.7,1.4,1.6,2.4,2.7,3.3c-0.9,0.8-1.8,1.8-2.5,3c-4.4,7-0.4,13.9,3.2,20l0.2,0.3c4.5,7.5,9.5,10.4,16.7,9.4
		c0.8-0.1,4.4-0.7,5.3-0.8c0.2,0,0.5-0.1,0.8-0.1c0.4-0.1,1.7-0.3,1.8-0.1c0.1,0.4-0.5,1.8-2.7,2.5c-0.7,0.2-1.8,0.4-2.8,0.4
		c-0.7,0.1-1.4,0.1-2.2,0.1c-2.9,0.1-6,0.2-8.7,2.2c-5.1,3.7-8.3,10.8-8.1,18.1c0.2,6.5,3,12,7.7,15.1c7.6,4.9,15.3,0.1,20.1-6.1
		c3.2-4.2,3.2-8.4,3.2-13.3l0-1.2c0-2.1-0.2-4.3-0.4-6.6c-0.5-5.1-0.9-10.4,0.3-14.9c0.5-1.8,1.4-3.6,2.4-5.4c1.6-3,3.2-6.1,2.9-9.8
		c-0.4-5.6-4.5-11.6-8.4-15.1c-0.8-0.7-2-1.5-3.3-2.2c2-2.9,3.3-6.9,3.7-10.9c0.6-3.9,0-7.4-1.7-11.2c-0.3-0.5-0.6-1.1-0.9-1.6
		c-1.1-2-2.3-4.1-2.6-6.4c-0.5-3.3,1.1-7.8,3.6-10.3c0.5-0.5,1.1-0.9,1.6-1.3c1.2-0.9,2.4-1.8,3-3.8c1-3.6,0.7-7.6,0.5-11.5
		c-0.1-1.7-0.2-3.2-0.2-4.8V11c0-0.6,0-1.2,0-1.8c0-4-0.1-7.7,1.8-11.3c3.1-5.6,7.8-8.4,14.3-8.4h14c2.7,0,5.3,0,8,0.1
		c2.6,0,5.3,0.1,8,0.1c0.7,0,1.5,0,2.3,0c4.1-0.1,8.7-0.3,11,2.8c0.3,0.4,0.6,0.7,0.8,1.1c1.5,2,2.8,3.8,6,4.2
		c3.5,0.5,6.6-0.5,8.4-2.9c0.5-0.6,0.8-1.3,1.1-2c0.4-0.8,0.7-1.5,1.3-2.1c1.1-1.2,2.7-1.2,4.4-1.1l0.8,0c2.5,0,5,0,7.5,0.1
		c2.5,0,5,0.1,7.5,0.1c0,0,0,0,0,0c6.2,0.1,12.5,0.1,18.6,0.1c5,0,10.7,0.4,14.6,3.5c5.4,4.2,5.2,12.3,5,19.4c0,1.6-0.1,3.2-0.1,4.6
		c0,4,0,7.9,0.1,11.9c0,4,0.1,8,0.1,12.1c0,8.3,0.1,16.7,0.2,24.9c0.1,12.2,0.3,24.9,0.1,37.3c-0.1,7.7-0.2,15.5-0.3,23.1
		c-0.1,7.6-0.3,15.4-0.3,23.1c-0.1,7.3,0,14.7,0.1,21.8c0.1,7.1,0.1,14.5,0.1,21.7c-0.1,8.9-0.1,17.9,0,26.5c0,4.4,0,8.9,0,13.3
		c0,6.8,0,13.9-0.3,20.7c0,1.2,0,2.4,0,3.8c0.2,5.3,0.3,11.9-3.4,15c-3.2,2.8-8.3,2.6-12.9,2.5c-1,0-1.9-0.1-2.8-0.1h-18.7
		c-8.6,0-17.3,0-25.9,0.1c-8.7,0-17.4,0.1-26.1,0.1h-21.1c-1,0-2.1,0-3.2,0c-4.1,0.1-8.3,0.2-11.8-1c-9.5-3-9.3-12-9.1-20.8
		c0-1.2,0-2.3,0-3.4v-28.3c0-1,0-2.1,0-3.1c0-3,0.1-6.2-0.2-9.2l0-0.3c-0.1-3-0.4-8-3-10.1c-1.7-1.4-3.2-1.2-4.2-0.7
		c-2.6,1.3-4.1,5.5-4.1,8c0,9,0.1,18.1,0.2,26.9c0.1,4.5,0.1,9,0.2,13.4c0.1,3.4,0.1,6.7,0.1,10.1c0,3.4,0.1,6.7,0.1,10.1l0,0.7
		c0,3.3,0,5.4,1.9,8.6c3.9,6.7,8.7,9.5,17,10c5.4,0.3,10.8,0.3,16.1,0.3c3,0,6.1,0,9.2,0c7.1,0,14.2,0.1,21.3,0.2
		c13.8,0.1,28.1,0.2,42,0.2c2,0,3.9,0,5.9,0c7.9,0,16,0,23.9-0.3l0.9-0.1c4.3-0.3,9.7-0.6,13.5-3.4c1.8-1.3,3.1-3.2,4-5.1
		c1.6,1.6,3.7,2.8,5.4,3.8l0.3,0.2c3.3,1.9,6.9,3.4,10.4,4.9c1,0.4,2,0.9,3,1.3c2,0.9,3.9,1.8,5.8,2.8c2.3,1.2,4.8,2.4,7.2,3.4
		c1.7,0.7,3.3,1,4.7,0.9c0.1,0.6,0.4,1.3,0.9,1.9c1.3,1.6,3.2,3,5.1,4.4c0.8,0.6,1.5,1.1,2.2,1.6c1.4,1.2,2.9,2.5,4.3,3.7
		c2.8,2.4,5.7,4.9,8.4,7.4c9.9,8.9,18.8,17.1,26.7,26.4c0.2,0.3,0.5,0.5,0.9,0.5c0,0,0,0,0.1,0c0.3,0,0.5-0.1,0.8-0.3
		c0.3-0.2,0.5-0.5,0.6-0.8c0.1-0.4,0-0.8-0.2-1.2c-9.2-11-20-20.6-30.3-29.6c-4.2-3.6-8.5-7.4-12.9-11c-0.4-0.3-0.8-0.6-1.2-0.9
		c-0.7-0.5-1.5-1-1.8-1.5c-0.2-0.3-0.5-0.5-0.7-0.7c-0.1,0-0.1-0.1-0.1,0c-0.1-0.2-0.1-0.4-0.1-0.7c0.9-0.4,1.9-1.1,2.8-1.9
		c4.8-4.4,9.2-9.3,14.3-15.2c5.4-6.4,10.7-13.1,15.8-19.7c4.8-6.2,9.7-12.6,14.9-18.6l0.1-0.2c0.1-0.3,0.5-1-0.1-1.7
		c-0.7-0.8-1.6-1.1-2.5-1.1c-3,0.2-6.1,4.6-8.2,7.5c-0.5,0.7-0.9,1.3-1.2,1.6c-3.1,3.8-6.2,7.5-9.3,11.3c-3.1,3.7-6.2,7.5-9.3,11.3
		c-1.8,2.1-3.7,4.3-5.5,6.4c-4.4,5.1-9,10.3-12.7,15.9c-0.5,0.8-1,1.6-1.3,2.4c-1.1,0.2-2.2,0.1-3.7-0.5c-1.9-0.7-3.8-1.7-5.7-2.7
		c-1.5-0.8-3.1-1.6-4.6-2.2c-1.7-0.8-3.4-1.5-5.1-2.2c-4.4-1.8-8.9-3.8-12.8-6.4c-2.2-1.4-3.4-2.7-4.1-4.3c0.5-2,0.9-3.9,1.2-5.7
		c1.6-10.3,2.2-20.9,2.7-31.2l0-0.2c0-0.6,0.1-1.3,0.1-2.2c0.4-5.6,1.2-15.1-4-16.8c-0.6-0.3-1.4-0.1-1.7,0.6
		c-1.4,2.7-1.3,6.3-1.2,9.5c0,1.1,0.1,2.2,0,3.1c-0.1,3.6-0.2,7.3-0.3,11c-0.1,3.7-0.2,7.3-0.3,11c-0.1,3.4-0.3,7.7-0.3,11.7
		c0,0.7,0,1.6-0.1,2.4c-0.1,2.3-0.2,5,0.4,7c0.1,0.3,0.2,0.6,0.4,0.9c-1.5,3.5-3.8,6.3-7.9,7.3c-4.1,1-8.3,1.1-12.5,1.2l-1.6,0
		c-6.9,0.1-13.5,0.1-20.4,0.1c-15.2,0-30.9,0-46.4-0.1l-0.3,0c-10.8-0.1-22-0.3-33.1-0.3c-1.4,0-2.8,0-4.3,0.1
		c-5.2,0.1-10.5,0.3-15.1-1.3c-4-1.4-8.6-6.4-9.4-10.3c-0.2-1.2-0.2-2.5-0.1-3.8c0-0.9,0.1-1.8,0-2.6c0-2.3,0-4.5-0.1-6.8
		c0-2.3-0.1-4.5-0.1-6.8c-0.1-10.1-0.3-21.6-0.3-32.7c0-1.9,0-3.8-0.1-5.6c0-1.9-0.1-3.8-0.1-5.6c0-0.5,0-0.9,0.1-1.4
		c0-0.5,0.1-1,0.1-1.4c0.3-2.4,1.8-4.5,2.8-4.5c0.6,0,1.3,0.3,2.1,2.6c1.4,4.4,1.3,9.6,1.1,14.5c0,1.5-0.1,2.9-0.1,4.3v37.2
		c0,5.1,0.3,9.6,4.2,13.3c5.2,5,12.5,5,19,5c1.1,0,2.2,0,3.2,0c11.1,0,22.3,0,33.4-0.1c11.1,0,22.2-0.1,33.2-0.1
		c8.7,0,17.7,0,26.5-0.1c0.6,0,1.3,0,1.9,0c6.2,0.1,14,0.2,17-6.4c1.3-2.7,1.3-5.7,1.4-8.7c0-0.7,0-1.3,0-2
		c0.1-4.6,0.3-9.3,0.3-13.9c0.1-9.6,0.1-19.4,0.1-28.8c0-9.2,0-18.4-0.1-27.5c0-9.2-0.1-18.3-0.1-27.5c0-11.7,0.1-23.5,0.2-35.2
		c0.2-23,0.3-46.8,0.2-70.2c0-3.1,0-6.1,0-9.2c0-9,0.1-18.3-0.2-27.5c0-1.7,0-3.7,0.1-5.7c0.3-7.9,0.7-16.9-4.9-22.5
		c-3.1-3.1-7.8-4.8-14.4-5.2c-5.7-0.4-11.6-0.3-17.2-0.2c-4.1,0.1-8.1,0.1-12.3,0c-1.7,0-3.4-0.1-5-0.1c-0.6,0-1.2,0-1.9-0.1
		c-1.7-0.1-3.4-0.2-4.9,0.2c-2.6,0.8-3.7,2.7-4.7,4.5c-1.3,2.3-2.3,4.1-6.4,3.6c-2.3-0.3-3.5-1.8-4.9-3.5c-1.4-1.7-3-3.7-6-4.2
		c-4.2-0.7-8.7-0.6-13.1-0.5c-2.1,0-4.3,0.1-6.4,0c-3.3,0-6.7,0-10-0.1c-3.4,0-6.8-0.1-10.3-0.1c-6.6,0-11.1,2.2-14.8,7
		c-3.6,4.7-3.9,9.3-3.9,14.9v54.4c0,1.2,0.1,2.5,0.2,3.8c0.2,3.2,0.5,6.8-0.4,9.2c-0.4,1-1.2,1.6-2.1,2.3c-0.7,0.5-1.4,1-2,1.7
		c-2.2,2.4-3.5,5.9-4,8.5c-0.9,4.1,0.9,7.6,2.7,10.9c1.4,2.6,2.7,5.1,2.8,8c0.1,2.7-0.3,5.6-1.3,8.7c-0.5,1.7-1.3,3.3-2.3,4.7
		c-1.8-0.6-3.7-0.8-5.2-0.2c-1.2,0.5-2.7,1.6-3,4.5c0,0.7,0.6,1.3,1.3,1.3c0,0,0,0,0,0c3,0.3,5.4-0.8,7.4-2.6
		c1.4,0.5,2.5,1.2,3.5,2.3c4.4,3.8,8.5,10.7,7.2,16.6c-0.4,2-1.4,3.9-2.4,5.8c-0.9,1.7-1.8,3.4-2.3,5.2c-1,3.5-0.7,7.4-0.5,11.1
		c0.1,1.2,0.1,2.3,0.2,3.4l0.1,1.7c0.3,4.2,0.5,8.5,0,12.7c-0.6,4.9-4.6,10-9.7,12.3c-2.9,1.4-5.7,1.3-8.3-0.2
		c-3.7-2.1-6.7-6.9-7.3-11.9c-0.7-6.6,1.7-13.3,6.2-16.9c2-1.6,5-1.8,7.9-1.9c3.7-0.2,7.4-0.4,9.7-3.4c1.3-1.9,1.1-3.2,0.6-3.9
		c-0.7-1.2-2.4-1.7-4.4-1.4c-0.8,0.1-1.8,0.4-2.8,0.6c-2.9,0.7-6.4,1.5-8.7,0.9c-3.9-0.9-6.5-4.3-8.7-7.9
		c-4.4-7.1-8.1-14.5-1.9-20.2c0.4-0.4,0.9-0.7,1.3-1c0.8,0.2,1.7,0.3,2.6,0.4c0.7,0,1.5,0,2.4-0.1c0.7,0,1.5-0.1,2.3-0.1
		c-0.3,0.4-1,1.2-1.6,1.8c-2.3,3.1-3.7,6.1-4.4,9.1c-0.4,2-1,7.9,1.3,11c0.8,1.1,1.9,1.7,3.3,1.8c0.7,0,1.3-0.6,1.3-1.4
		c-0.4-7.8,3.2-13.9,7.1-20.4l0.4-0.6c0.3-0.6,0.1-1.3-0.3-1.7l-0.2-0.1c-1.2-0.7-2.6-1-3.9-1.3c-0.1-0.1-0.1-0.2-0.3-0.3
		c-2.4-2-5.4-2.8-8.2-2.3c-1,0.2-1.9,0.5-2.8,0.9c-0.7-0.4-1.3-0.9-1.8-1.6c-1.4-1.7-2.1-4-2.2-6.5c2.2-1,4.2-3.8,5.6-5.7
		c0.2-0.3,0.5-0.6,0.7-0.9c0.2-0.3,0.5-0.7,0.9-1.1c2.3-3,5.8-7.6,4.5-11c-0.8-2.2-2.3-2.7-3.3-2.8c-3.1-0.2-6.7,3.4-7.8,5.3
		c-0.9,1.6-1.6,3.4-2.2,5.3c0-1.6,0.2-3.4,0.5-5.1c0.7-4.4,2.7-10.4,8.2-14.2c2-1.4,5-1.9,7.9-2.3c5-0.8,10.7-1.7,11.9-7.9
		c0.3-1.6,0.2-3.2,0.1-4.7c0-0.7-0.1-1.5-0.1-2.2c0-1.7,0-3.3-0.1-5c0.6-0.7,1.1-1.5,1.5-2.4c2-4.1,2.6-9.4,1.7-16
		c-0.5-4.1-1.6-9.7-5.2-11.6c-0.5-0.2-1-0.1-1.3,0.2c-0.3,0.2-0.5,0.6-0.5,1.1c-0.2,9.6,0.1,19.3,0.4,28.8c-1.5,0.9-3.2,1.3-5.2,1.1
		c-7.1-0.7-14.8-5.2-19-11.1c-2.2-3.1-4.5-7.9-3.1-13.8c1.2-5.2,5.4-9.6,11.3-11.8c3-1.1,6.3-1.4,9.5-1.6c0.9-0.1,1.8-0.1,2.7-0.2
		c0.3,0,0.6,0,1,0c1.1,0,2.6-0.1,3.6-1c2-1.9,2-6.3,2-9.5c0-0.7,0-1.4,0-1.9l0.1-2.3c0.2-5.5,0.4-11.3,2.2-16.6
		c3-8.6,9.5-13.4,20-14.6c7-0.8,14.3-0.8,21.4-0.8c2.6,0,5.3,0,7.9,0c14.3-0.4,28.8-0.1,42.8,0.3c10.5,0.2,21.4,0.5,32.2,0.4
		c9.9-0.1,20.5,1.2,23.5,12.1c0.4,1.5,0.7,3.2,0.9,4.8C448,7,445.6,20,448.7,38c0.8,5.1,1.9,9.2,3.2,12.7c0.1,0.2,0.2,0.4,0.3,0.6
		c0,0.6,0.1,1.3,0.1,1.9c0.3,5.5,0.2,11.1,0,16.5c-0.1,1.8-0.1,3.6-0.1,5.4c-0.2,10.6-0.1,21.4-0.1,31.9c0,5.3,0.1,10.6,0.1,15.9
		c0,5.2,0,10.4,0,15.6c0,10.2-0.1,20.8,0,31.2c0,8.3,0.3,15.9,1,23.1l0.1,0.6c0.5,5.3,0.9,9.6,4.8,14c0.9,1.1,1.9,2.2,2.9,3.2
		c0.4,0.4,0.8,0.8,1.1,1.2c0,0.1,0,0.3,0,0.4c0.6,4.7,2.6,8.1,6,10.6c0.1,0,0.1,0.1,0.2,0.1l0.1,0.3l0.2-0.2c0.4,0.1,0.7,0,1-0.2
		c0.4-0.3,0.6-0.8,0.6-1.3c0,0,0,0,0,0l0.6-0.6l-0.7-0.5c-0.1-0.1-0.2-0.1-0.2-0.2c-0.8-3.2-2.5-5.7-4.4-8c-0.3-1.9-0.5-4-0.6-6
		c0-0.7-0.1-1.3-0.1-2c-0.2-3.3-0.9-6.5-1.5-9.6c-0.6-3.1-1.3-6.4-1.5-9.6c-0.9-13.4,0.4-28.4,3.8-43.4c0.6-2.5,1.2-5,1.8-7.6
		c2.6-10.6,5.3-21.5,4.9-32.6c-0.1-3.5-0.7-6-2.3-8.1c0.8-0.4,1.3-1,1.7-1.8c1.7-3.4-0.6-9.3-2-12.8c-0.2-0.5-0.4-1-0.5-1.3
		c-2.2-5.9-5.3-11.4-8.4-16.8c-1.3-2.3-2.6-4.7-3.9-7c-1.1-2.1-2-4.2-2.7-6.4c-0.1-3.6-0.1-7.2-0.1-10.8c0-11.5,0-23.3-0.5-34.8
		c2.7-8.5,7.7-17.7,14.3-19.6c4.1-1.3,9.9,1.3,11.7,5.1c0,0,0,0,0,0c-3.3,0.8-6.1,3.8-7.5,8.3c-1.5,5-1,11.6,3.9,14.1
		c0.3,0.2,0.7,0.2,1.1,0.1c0.4-0.1,0.7-0.4,0.8-0.8l0.4-1.2c1.8-5.4,3.6-10.9,3.9-16.8c0,0,0-0.1,0-0.1c0.4,1.6,0.2,4.9-1,9.8
		c-1,4.7-1.2,8.6-0.7,12.3c1,7.9,4.9,14.8,8.7,21.6l1.1,2c2.1,3.8,4.5,8.1,5.8,12.5l0.4,1.4c1.1,3.5,2.1,6.9,3.7,10.4
		c3.7,7.1,8.6,13.1,14.1,19.6c0.8,0.9,1.6,1.9,2.4,2.8c5.2,6.2,11.1,13.2,13.1,21c2.1,8,3.6,16.3,5,24.4c0.5,2.9,1,5.8,1.6,8.6
		c2.3,12,4.2,22,6.9,32.3c1.4,5.1,2.9,10.1,4.4,15c0.5,1.7,0.8,3.3,1.1,5.1c0.4,2.5,0.9,5.1,2,7.6c3,7.1,9,12.2,15.5,17.3
		c8.7,6.6,16.1,12.1,24.2,17.6c9.4,6.4,19.5,13.2,29.8,19.6l0,0.3l0.6,0.1c0.3,0.1,0.7,0,1-0.6C622.1,251,622.1,250.1,621.4,249.7z
		 M476.9,4.5c0,0.1-0.1,0.2-0.1,0.4c-0.1,0.2-0.2,0.7-0.4,1.2c-0.3-0.3-0.6-1-1.2-2.2l-0.1-0.2c-0.4-1.3-0.5-2.6-0.4-3.8
		c0.2-3.3,1.6-7.7,4.6-9.7c0.3-0.2,0.6-0.4,1-0.5c0.4,4-1.3,9.2-2.7,13.2C477.3,3.3,477.1,4,476.9,4.5L476.9,4.5z M451.7,13.9
		c0.1,6.2,0.1,12.5,0.1,18.7c0,1.7,0,3.4,0,5.1c-0.6-3.3-0.9-6.3-1.1-8.9c-0.6-7-0.3-13.7,0.9-19.9c0,0.1,0,0.2,0,0.4
		C451.7,10.8,451.7,12.3,451.7,13.9z M460,195.7c0.1,0.6,0.3,1.2,0.4,1.7c0.6,2.6,1.1,5,1.2,7.6c0,0.8,0.1,1.6,0.1,2.4
		c0,0.3,0,0.5,0,0.8c-0.7-0.7-1.3-1.4-1.9-2.1c-3.2-3.6-3.8-7-4.3-11.7c-1.4-13-1.2-26.3-1.1-39.2c0.1-10.9,0-22.1-0.1-32.8
		c-0.1-10.9-0.2-22.1-0.1-33.2c2.5,2.8,7.8,4.8,12.2,4.7c1.9,2.1,2.7,4.2,2.8,7.7c0.1,3.7-0.1,7.6-0.7,11.7
		c-0.9,6.6-2.5,13.3-4.1,19.7c-1.7,6.7-3.4,13.7-4.3,20.7C458.5,166.8,457.1,182,460,195.7z M454.4,55.8c0.9,1.7,1.9,3.3,2.8,5
		c0.9,1.5,1.8,3,2.6,4.6c2.8,4.9,5.6,10.1,7.3,15.8c0.1,0.4,0.2,0.8,0.4,1.2c0.9,2.6,2.4,7.3,0.5,8.8c-0.5-0.5-1.1-0.9-1.7-1.4
		c-2.8-2.2-5.6-3.3-8.3-3.3c-1.1,0-2.2,0.2-3.2,0.6c-0.2,0.1-0.4,0.2-0.5,0.3c0-4.7,0.1-9.4,0.2-14.1
		C454.5,67.4,454.5,61.5,454.4,55.8z M462.9,91.1c-0.7-0.2-1.4-0.4-1.7-0.6c-1.2-0.4-2.4-0.8-3.5-1.5c-0.2-0.1-0.4-0.2-0.5-0.3l0,0
		c0,0,0,0,0,0C458.5,88.7,461,89.9,462.9,91.1z M302.5,53c-0.1,3.1-0.6,5.8-1.6,7.9c0-1-0.1-2-0.1-3l-0.4-11c0-0.9,0-1.8-0.1-2.7
		c0-0.9-0.1-1.8-0.1-2.6c0-0.3,0-0.5,0-0.8c0-0.4,0-0.8,0-1.2c0.4,1,0.7,2.2,1,3.1c0.1,0.4,0.2,0.8,0.3,1.1
		C302.3,47.1,302.6,50.1,302.5,53z M283.8,100.6c-0.2,1-1.3,2.8-2,3.9l-0.3,0.5c-0.3,0.5-0.6,0.9-0.9,1.4c-1.6,2.6-3.5,5.8-5.9,7.4
		c-0.1,0.1-0.3,0.2-0.4,0.2c0.3-3.9,1.5-8,2.7-10.6c0.8-1.7,1.5-2.9,2.2-3.6c1.1-1.1,2.5-1.5,3.3-1.5c0.2,0,0.4,0,0.6,0.1
		C284,98.9,284,100,283.8,100.6z M284.1,143c-0.3,1-0.4,2-0.6,3c0,0.2,0,0.6,0,1.1c0,0.3,0,0.8,0,1.2c-0.1-0.1-0.2-0.2-0.3-0.3
		c-1.6-2-1-7,0-10c1.2-3.5,3.5-6.5,5.8-9c0.2,0.1,0.3,0.1,0.5,0.2c1.1,0.8-0.1,2.9-1.7,5.2c-0.4,0.6-0.8,1.2-1.1,1.7
		C285.8,137.9,284.7,140.3,284.1,143z M294.7,124.2c0.3-0.2,0.9-0.6,1.9-0.5c-0.9,0.6-1.8,1.2-2.3,1.1c0,0,0,0-0.1,0
		C294.3,124.6,294.4,124.4,294.7,124.2z M454.9,223.7c0-0.4,0.1-0.7,0.1-1c0.5,1.3,1,3.4,1.1,4.6c0.3,3.8,0.1,7.4-0.1,10.5
		c-0.5,8.8-1,16.4-1.8,23.4l-0.1,1.2c-0.1,1-0.2,2.1-0.3,3.1c0-4.2,0.1-8.7,0.3-13.7c0.1-3.1,0.1-6.3,0.2-9.4
		C454.4,236.3,454.5,229.9,454.9,223.7z M537.2,239.8c-5.1,7.3-33.9,41.6-37.4,45.2c-0.5,0.5-0.9,1-1.4,1.5
		c6.1-7.5,12.5-15.3,19-23.1l9.9-11.9c0.2-0.3,0.6-0.8,1.2-1.6C533.4,243.6,535.9,240.9,537.2,239.8z"/>
	<g>
		<path class="st1" d="M290.2,258.4c13.2-7.1,30.6-1.8,38.4,10.6c8.2,13,6.3,31.7-4.1,43.1c-11.7,12.8-31.2,10.7-43.5,0.1
			c-6.3-5.5-11.5-13-12.5-21.4c-1-8.1,1.6-16.3,6.9-22.5c10.2-12.4,34.1-19.1,45.2-4.1c0.4,0.4,1.1,0,0.8-0.4
			c-9.5-13.7-30.2-10.3-41.6-1.4c-6.6,5.2-11.1,12.6-12.4,21c-1.2,8.8,1.6,17,7.1,23.9c10.6,13.3,29.9,20,45.2,10.4
			c14.3-8.9,18.7-29.7,12.4-44.6c-6.7-15.9-26.9-24.2-42.3-15.2C289.5,258,289.8,258.5,290.2,258.4z"/>
		<path class="st1" d="M303.6,322.9c-10.1,0-21.2-4.5-29.7-15.2c-6-7.5-8.5-15.9-7.3-24.5c1.2-8.4,5.7-16,12.6-21.5
			c4.9-3.8,10.9-6.4,17-7.5c5.4-1.4,11.3-1.2,17,0.7c8.7,2.9,16,9.6,19.5,17.8c7.8,18.4-0.5,38-12.7,45.6
			C315.5,321.3,309.8,322.9,303.6,322.9z M289.6,259.1c-5.3,2.2-10.2,5.6-13.6,9.7c-5.2,6.1-7.6,14.1-6.7,21.9
			c1.1,9.9,8.2,17.4,12.2,20.9c11.7,10,30.8,12.7,42.4-0.1c10.4-11.3,12.1-29.4,4-42.2c-1.9-3-4.3-5.5-7.1-7.6
			c0.4,0.5,0.8,1,1.1,1.5c0.3,0.5,0.2,1.1-0.2,1.5c-0.5,0.4-1.3,0.4-1.8-0.1c-5-6.7-11.9-8.2-16.9-8.3c-3-0.1-6.1,0.4-9.2,1.2
			c-1.1,0.4-2.3,0.9-3.4,1.5l-0.1,0.1C290.2,259.2,289.8,259.2,289.6,259.1z"/>
	</g>
	<g>
		<path class="st1" d="M211.5,227.4c-7.1-13.2-1.8-30.6,10.6-38.4c13-8.2,31.7-6.3,43.1,4.1c12.8,11.7,10.7,31.2,0.1,43.5
			c-5.5,6.3-13,11.5-21.4,12.5c-8.1,1-16.3-1.6-22.5-6.9c-12.4-10.2-19.1-34.1-4.1-45.2c0.4-0.4,0-1.1-0.4-0.8
			c-13.7,9.5-10.3,30.2-1.4,41.6c5.2,6.6,12.6,11.1,21,12.4c8.8,1.2,17-1.6,23.9-7.1c13.3-10.6,20-29.9,10.4-45.2
			c-8.9-14.3-29.7-18.7-44.6-12.4c-15.9,6.7-24.2,26.9-15.2,42.3C211.1,228.1,211.6,227.8,211.5,227.4z"/>
		<path class="st1" d="M240.5,251.3c-1.4,0-2.8-0.1-4.1-0.3c-8.4-1.2-16-5.7-21.5-12.6c-3.8-4.9-6.4-10.9-7.5-17
			c-1.4-5.4-1.2-11.3,0.7-17c2.9-8.7,9.6-16,17.8-19.5c18.4-7.8,38,0.5,45.6,12.7c7.7,12.2,6.6,32.5-10.6,46.2
			C254.6,248.7,247.6,251.3,240.5,251.3z M212.2,228.1c2.2,5.3,5.6,10.2,9.7,13.6c6.1,5.2,14.1,7.6,21.9,6.7
			c9.9-1.1,17.4-8.2,20.9-12.2c10-11.7,12.7-30.8-0.1-42.5c-11.3-10.3-29.4-12.1-42.2-4c-3,1.9-5.5,4.3-7.6,7.1
			c0.5-0.4,1-0.8,1.5-1.1c0.5-0.3,1.1-0.2,1.5,0.2c0.4,0.5,0.4,1.3-0.1,1.8c-6.7,5-8.2,11.9-8.3,16.9c-0.1,3,0.4,6.2,1.2,9.2
			c0.4,1.1,0.9,2.3,1.5,3.3l0.1,0.1C212.3,227.5,212.3,227.8,212.2,228.1z"/>
	</g>
	<g>
		<path class="st1" d="M132.3,51.9c-10.8-19.9-2.7-46.3,16-58.1c19.7-12.5,48-9.6,65.2,6.2c19.3,17.6,16.2,47.1,0.2,65.8
			c-8.3,9.6-19.7,17.4-32.4,18.9c-12.2,1.5-24.7-2.5-34.1-10.4C128.6,58.9,118.4,22.8,141,6c0.6-0.6,0-1.7-0.6-1.2
			c-20.8,14.3-15.6,45.7-2.1,62.9c7.9,10,19.1,16.8,31.8,18.7c13.3,1.9,25.7-2.5,36.1-10.8c20.1-16,30.3-45.3,15.8-68.3
			c-13.5-21.6-44.8-28.2-67.5-18.7c-24.1,10.2-36.5,40.7-23,63.9C131.7,52.9,132.5,52.5,132.3,51.9z"/>
		<path class="st1" d="M176.2,87.5c-2.1,0-4.1-0.1-6.2-0.4c-12.6-1.9-24-8.6-32.3-19c-5.7-7.3-9.6-16.5-11.2-25.7
			c-2.1-8.1-1.8-16.9,1.1-25.4c4.4-13.1,14.3-24,26.6-29.2c21.6-9.1,54.3-3.7,68.4,19c6.9,10.9,8.7,24.2,5.2,37.4
			c-3.2,12.2-11,23.8-21.2,31.9C197.3,83.7,186.9,87.5,176.2,87.5z M131.1,53.2c1.9,5,4.6,9.8,7.9,14c8,10.1,19.1,16.6,31.3,18.4
			c12.4,1.7,24.7-1.9,35.5-10.6c25.1-19.9,26.8-49.6,15.6-67.3c-13.7-22-45.5-27.3-66.5-18.4c-4.7,2-9,4.8-12.8,8.3
			c1.8-1.6,3.8-3.1,5.9-4.5c20-12.6,48.4-9.9,66.1,6.3c9.2,8.4,14,20.1,13.6,33.1c-0.4,12-5.2,24.3-13.3,33.8
			c-9.6,11-21.3,17.8-32.9,19.2c-12.3,1.5-25-2.4-34.6-10.6c-6.5-5.4-11.9-13.1-15.3-21.5C131.3,53.4,131.2,53.3,131.1,53.2z
			 M132.9,52.8c3.3,8.2,8.5,15.7,14.9,20.9c9.4,7.9,21.6,11.6,33.5,10.2c15.2-1.7,26.5-12.4,31.9-18.6c19.4-22.7,15.2-50.7-0.1-64.7
			c-17.2-15.8-44.8-18.4-64.3-6.1c-5.5,3.5-10.1,8.2-13.4,13.7c1.4-1.5,3-2.8,4.7-4c0.6-0.4,1.3-0.3,1.7,0.3
			c0.4,0.5,0.6,1.5-0.1,2.2c-10.2,7.6-12.5,18.2-12.7,25.8c-0.1,4.6,0.5,9.4,1.8,14.1c0.6,1.7,1.4,3.5,2.3,5.1l0.1,0.1
			C133.2,52,133.1,52.5,132.9,52.8z M131.3,16.1C131.3,16.1,131.3,16.2,131.3,16.1c0.5-1,1.1-1.9,1.7-2.9
			C132.4,14.1,131.8,15.1,131.3,16.1z M135.8,4.5c-2.6,3.5-4.7,7.5-6.3,11.6c0.1-0.2,0.3-0.5,0.4-0.7
			C131.4,11.5,133.4,7.8,135.8,4.5z M140.6,5.4C140.5,5.4,140.5,5.4,140.6,5.4C140.6,5.4,140.6,5.4,140.6,5.4
			C140.6,5.4,140.6,5.4,140.6,5.4z"/>
	</g>
	<g>
		<path class="st1" d="M108.2,191.1c-11.5-1.4-20.3-12.5-19.8-24c0.5-12.1,10.2-23.1,22-25.7c13.2-2.9,24.9,7.1,27.9,19.4
			c1.6,6.3,1.5,13.5-1.6,19.4c-3,5.6-8.4,9.7-14.6,11.4c-12.1,3.3-30.3-3.2-30.8-17.7c0-0.4-0.7-0.5-0.7,0c0,13,14.7,20.2,26.1,19.5
			c6.6-0.4,12.8-3.2,17.3-8c4.8-5.1,6.6-11.7,6.2-18.5c-0.8-13.2-10.2-26.2-24.3-26.9c-13.2-0.7-25.3,10.6-27.9,23.1
			c-2.7,13.2,6.3,27.5,20.2,28.7C108.4,191.7,108.6,191.1,108.2,191.1z"/>
		<path class="st1" d="M115.1,194.1c-4.8,0-9.9-1.3-14.1-3.5c-3.6-1.6-6.7-4.2-9.2-7.5c-4.3-5.8-6-13.4-4.6-20.3
			c2.9-13.7,15.7-24.3,28.7-23.7c15.2,0.7,24.2,14.8,25,27.6c0.5,7.6-1.8,14.2-6.4,19.1c-4.6,4.9-10.9,7.8-17.8,8.2
			C116.2,194.1,115.7,194.1,115.1,194.1z M109.1,190.9c4.3,0.9,8.8,0.9,12.7-0.1c6.1-1.6,11.2-5.6,14.1-11
			c2.8-5.3,3.4-11.9,1.6-18.8c-2.8-11.3-13.9-21.7-27-18.8c-11.6,2.6-20.8,13.3-21.4,25c-0.1,2.2,0.1,4.4,0.7,6.4
			c0.1-0.5,0.5-0.9,1.1-0.9c0.6,0,1.2,0.5,1.2,1.1c0.2,6.3,3.9,10.4,7,12.7c1.7,1.2,3.6,2.3,5.7,3.1c1.1,0.4,2.3,0.6,3.5,0.8
			c0.3,0,0.5,0.1,0.7,0.3C109,190.7,109,190.8,109.1,190.9z M90.5,173.8C90.5,173.8,90.5,173.8,90.5,173.8
			C90.5,173.8,90.5,173.8,90.5,173.8z"/>
	</g>
	<g>
		<path class="st1" d="M30.2,279.5C13.7,277.6,1.3,261.8,2,245.5c0.8-17,14.4-32.8,31-36.5c18.7-4.1,35.1,10.2,39.5,27.5
			c2.3,8.9,2.2,19.1-2.3,27.5c-4.3,7.8-11.9,13.7-20.6,16.1c-17.2,4.7-43-4.4-43.7-25c0-0.7-1.1-0.8-1.1-0.1
			c-0.1,18.4,20.7,28.6,36.9,27.7c9.3-0.5,18.1-4.4,24.6-11.3c6.7-7.3,9.3-16.5,8.8-26.2c-1.2-18.8-14.4-37.2-34.3-38.2
			c-18.5-0.8-35.7,15-39.4,32.7c-4,18.7,8.9,39,28.6,40.6C30.6,280.2,30.6,279.5,30.2,279.5z"/>
		<path class="st1" d="M40,283.4c-6.8,0-13.8-1.8-19.8-4.9c-5.1-2.2-9.5-5.8-13.1-10.6c-6.1-8.2-8.5-18.8-6.4-28.5
			c4-19.2,22.1-34,40.2-33.3c21.2,1,33.9,20.8,35.1,38.9c0.6,10.5-2.5,19.8-9,26.8c-6.4,6.8-15.3,10.9-25.1,11.5
			C41.2,283.4,40.6,283.4,40,283.4z M31.1,279.4c6.2,1.4,12.7,1.4,18.3-0.2c8.5-2.3,16-8.2,20.1-15.7c4-7.5,4.8-17,2.3-26.9
			c-5.3-21-23.8-30.2-38.6-26.9C17,213.3,3.6,229.1,2.8,245.5c-0.1,3.6,0.3,7.1,1.4,10.4c0-0.4,0-0.7,0-1.1c0-0.7,0.5-1.2,1.2-1.2
			c0.7,0,1.4,0.5,1.4,1.4c0.3,9.1,5.6,14.9,10,18.1c2.8,2,6,3.7,9.5,4.9c1.3,0.3,2.6,0.6,3.9,0.8C30.6,278.8,31,279,31.1,279.4z
			 M5.2,255C5.2,255,5.2,255,5.2,255C5.2,255,5.2,255,5.2,255z M5.7,254.8C5.7,254.8,5.7,254.8,5.7,254.8
			C5.7,254.8,5.7,254.8,5.7,254.8z"/>
	</g>
	<g>
		<path class="st1" d="M354.9,45.4c10.7-12.4,29.4-15.9,44.2-9.2c15,6.9,25.5,22.5,26.8,38.9c1.5,19.9-14.8,34.7-32.1,41.5
			c-9.3,3.6-20,5.6-29.4,0.8c-7.4-3.8-14-10.2-18.5-17.2c-9.9-15-9.7-34.7,1.8-48.9c11.7-14.3,33.4-19.8,49.8-10.8
			c15.2,8.2,25.4,25.8,22.2,43.2c-3.2,17-17.2,29.9-34.5,31.6c-18.9,1.8-36.2-9.7-42.7-27.5c-3.3-9.1-3.8-19.6,1.4-28
			c4.9-7.8,13.5-12.9,21.1-17.7c0.5-0.3,0-1.2-0.5-0.8c-7.6,4.3-15.2,9.1-20.5,16.1c-5.5,7.4-6.3,16.6-4.4,25.4
			c3.7,16.9,17.6,30.8,34.9,33.5c17.3,2.6,35-5.6,42.8-21.6c8.2-16.5,3.7-35.3-9.2-47.9c-13.9-13.5-34.7-15.4-51.2-5.2
			c-15.5,9.7-23.2,29.2-17.8,47c4.9,16.5,21.1,34.1,39.4,33c17.8-1.1,39.3-13.2,46.5-30.2c8.1-18.9-2.9-42.6-19.4-53.3
			c-16.1-10.4-39-8.5-51.2,6.9C354.2,45.3,354.6,45.7,354.9,45.4z"/>
		<path class="st1" d="M376.9,121.9c-17.5,0-33.3-16.9-38.2-33.3c-5.3-17.6,2.3-37.5,18-47.4c0.5-0.3,0.9-0.6,1.4-0.8
			c12.5-11.3,32.4-12.7,47.8-2.7c8.3,5.4,15.2,14,19,23.7c4.1,10.4,4.3,21.1,0.5,30c-7.6,17.7-29.8,29.4-46.9,30.4
			C378,121.9,377.5,121.9,376.9,121.9z M355.7,42.9c-14.4,10-21.2,28.9-16.2,45.5c5,16.5,21.3,33.8,39,32.7
			c16.9-1,38.8-12.5,46.2-30c6.5-15.2,1-39.7-19.2-52.8c-13.9-9.1-31.7-8.5-44,0.4c0.6-0.3,1.2-0.5,1.8-0.8
			c10.6-6.3,24.3-7.4,36-2.1c14.9,6.8,25.7,22.6,27,39.2c1.6,21-16.4,35.7-32.4,41.9c-12.1,4.6-21.8,4.9-29.7,0.8
			c-7.2-3.7-14-10-18.7-17.3c-5.3-8-7.6-17.1-7.2-25.9c0-4.4,0.8-9.2,3.2-13.8c1.5-3.4,3.4-6.7,5.8-9.6c2.1-2.6,4.5-4.9,7.2-6.8
			C354.9,43.8,355.3,43.3,355.7,42.9z M340.2,86.3c1.1,4.7,3.1,9.4,6,13.7c4.6,7.2,11.3,13.4,18.4,17c7.7,4,17.2,3.7,29.1-0.8
			c15.7-6.1,33.4-20.5,31.9-41.1c-1.2-16.3-11.9-31.8-26.6-38.5c-9.8-4.4-21-4.3-30.6-0.3c14.1-3.8,29.4-0.1,40.1,10.3
			c13.6,13.4,17.3,32.3,9.3,48.4c-7.7,15.7-25.1,24.5-43.2,21.8C358.4,114.1,345,102.1,340.2,86.3z M339.1,74.5c0,3,0.4,5.8,0.9,8.2
			c3.8,17.2,17.7,30.5,34.6,33.2c17.8,2.7,34.8-5.9,42.4-21.3c7.9-15.7,4.3-34.4-9.1-47.5c-11.8-11.4-29.2-14.5-44.3-8.4
			c-0.8,0.5-1.5,0.9-2.2,1.4c11.5-5.5,25.3-5.9,36.3,0.1c16.3,8.8,25.5,26.7,22.4,43.7c-3.2,17.1-17.5,30.2-34.8,31.9
			c-18.8,1.8-36.5-9.6-43.1-27.7c-3.8-10.5-3.3-20.8,1.4-28.3c4.8-7.5,12.6-12.4,20.2-17.2l1.1-0.7c0.1,0,0-0.1,0-0.2l-0.1,0
			c-7,4-15,8.8-20.3,16c-0.8,1.1-1.6,2.3-2.2,3.4C340.4,65.3,339.3,69.9,339.1,74.5z M364.8,40.8c0.1,0,0.2,0,0.4,0.1
			c0.3,0.2,0.5,0.5,0.5,0.9c0,0.3-0.2,0.6-0.4,0.7l-1,0.7c-7.5,4.7-15.3,9.5-20,16.9c-4.6,7.3-5.1,17.4-1.3,27.7
			c6.5,17.8,23.9,28.9,42.3,27.2c17-1.6,31-14.5,34.1-31.3c3-16.6-6.1-34.2-22-42.8c-12-6.5-27.4-5.3-39.3,2c-1,0.9-1.9,1.8-2.8,2.8
			l0,0c-0.3,0.3-0.6,0.3-0.9,0c-0.1-0.1-0.1-0.1-0.2-0.2c-2.3,1.8-4.3,3.8-6.2,6c-1,1.2-1.8,2.4-2.6,3.7c5.3-6.2,12.6-10.6,19-14.3
			C364.4,40.9,364.6,40.8,364.8,40.8z M358.6,41.1c-0.5,0.4-1,0.9-1.4,1.4c0.1-0.1,0.2-0.1,0.3-0.2c0.6-0.5,1.2-1.1,1.9-1.6
			C359.1,40.8,358.8,40.9,358.6,41.1z"/>
	</g>
	<g>
		<g>
			<path class="st1" d="M378.5,95.1L378.5,95.1c-0.8,0-1.5-0.3-2.1-0.8l-11.7-11.7c-1.1-1.1-1.1-3,0-4.1l4.1-4.1
				c1.1-1.1,3-1.1,4.1,0l5.5,5.5l11.7-11.7c1.1-1.1,3-1.1,4.1,0l4.1,4.1c1.1,1.1,1.1,3,0,4.1l-17.8,17.8
				C380,94.9,379.2,95.1,378.5,95.1z M371,75.2c-0.3,0-0.7,0.1-1,0.4l-4.1,4.1c-0.5,0.5-0.5,1.2,0,1.8l11.7,11.7
				c0.3,0.3,0.5,0.4,1,0.4l0,0c0.3,0,0.7-0.1,1-0.4l17.8-17.8c0.5-0.5,0.5-1.4,0-1.8l-4.1-4.1c-0.5-0.5-1.4-0.5-1.8,0l-11.7,11.7
				c-0.7,0.7-1.8,0.7-2.3,0l-5.5-5.5C371.6,75.4,371.2,75.2,371,75.2z"/>
			<path class="st1" d="M378.5,95.9c-1,0-1.9-0.4-2.6-1l-11.7-11.7c-0.7-0.7-1-1.6-1-2.6c0-1,0.4-1.9,1-2.6l4.1-4.1
				c1.3-1.3,3.9-1.3,5.2,0l4.9,4.9l11.1-11.1c1.3-1.3,3.9-1.3,5.2,0l4.1,4.1c1.4,1.4,1.4,3.8,0,5.2l-17.8,17.9
				C380.5,95.5,379.5,95.9,378.5,95.9z M365.1,81.8c0.1,0.1,0.2,0.2,0.3,0.3L377,93.8c0.1,0.1,0.3,0.2,0.4,0.3
				c-0.1-0.1-0.3-0.2-0.4-0.3l-11.7-11.7C365.2,82,365.1,81.9,365.1,81.8z M398.2,75.5c-0.1,0.1-0.2,0.3-0.3,0.4L380,93.8
				c-0.1,0.1-0.3,0.2-0.4,0.3c0.2-0.1,0.3-0.2,0.4-0.3l17.8-17.8C398,75.8,398.1,75.7,398.2,75.5z M371,76c-0.1,0-0.3,0.1-0.4,0.2
				l-4.1,4.1c-0.1,0.1-0.2,0.2-0.2,0.3c0,0.1,0.1,0.3,0.2,0.3l11.7,11.7c0.2,0.2,0.2,0.2,0.4,0.2c0.1,0,0.3-0.1,0.4-0.2l17.8-17.9
				c0.1-0.1,0.2-0.3,0.2-0.4c0-0.1-0.1-0.2-0.1-0.2l-4.2-4.2c-0.1-0.1-0.3-0.2-0.4-0.2c-0.1,0-0.2,0.1-0.2,0.1l-11.7,11.8
				c-0.5,0.5-1.2,0.8-1.9,0.7c-0.6,0-1.2-0.3-1.6-0.8l-5.4-5.4C371.2,76.1,371,76,371,76z M392.2,68.2c-0.6,0-1.1,0.2-1.5,0.6
				l-12.1,12.1c0.2,0,0.4-0.1,0.6-0.3l11.7-11.7c0.2-0.3,0.7-0.6,1.2-0.6c0.6,0,1.2,0.2,1.6,0.6l4.1,4.1c0.2,0.1,0.4,0.4,0.5,0.6
				c-0.1-0.3-0.3-0.5-0.5-0.8l-4.1-4.1C393.4,68.4,392.8,68.2,392.2,68.2z M371,74.5c0.5,0,1.1,0.3,1.5,0.6l5.5,5.5
				c0.2,0.2,0.3,0.3,0.4,0.3l-5.9-5.9c-0.8-0.8-2.3-0.8-3,0l-4.1,4.1c-0.3,0.3-0.5,0.6-0.6,1c0.1-0.3,0.3-0.6,0.6-0.9l4.1-4.1
				C369.8,74.7,370.4,74.5,371,74.5z"/>
		</g>
	</g>
	<g>
		<g>
			<path class="st1" d="M251.9,231.9c-0.3,0-0.5,0-0.8-0.1l-9.9-5.2l-9.7,5.2c-0.5,0.3-1.2,0.3-1.8-0.1c-0.5-0.4-0.8-1-0.7-1.6
				l1.9-11l-8-7.7c-0.4-0.4-0.7-1.1-0.4-1.8c0.1-0.7,0.7-1.1,1.4-1.1l11-1.6l4.9-10c0.3-0.5,0.8-1,1.5-1l0,0c0.7,0,1.2,0.4,1.5,1
				l0,0l4.9,10l11,1.5c0.7,0.1,1.2,0.5,1.4,1.1c0.1,0.7,0,1.2-0.4,1.8l-8,7.8l1.9,11c0.1,0.7-0.1,1.2-0.7,1.6
				C252.6,231.7,252.2,231.9,251.9,231.9z M241.2,224.7c0.3,0,0.5,0,0.8,0.1l9.7,5.1l-1.9-10.8c-0.1-0.5,0.1-1.1,0.5-1.5l7.8-7.7
				l-10.8-1.6c-0.5-0.1-1.1-0.4-1.2-1l-4.9-9.9l-4.8,9.9c-0.3,0.5-0.7,0.8-1.2,1l-10.8,1.6l7.8,7.7c0.4,0.4,0.5,1,0.5,1.5l-1.9,10.8
				l9.7-5.1C240.7,224.9,240.9,224.7,241.2,224.7z"/>
			<path class="st1" d="M230.7,232.3c-0.4,0-0.9-0.1-1.2-0.4c-0.7-0.5-1-1.2-0.8-2l1.9-10.8l-7.8-7.5c-0.5-0.5-0.9-1.3-0.5-2.2
				c0.2-0.8,0.8-1.3,1.7-1.3l10.7-1.6l4.9-9.8c0.4-0.7,1.1-1.2,1.9-1.2c0.8,0,1.5,0.5,1.9,1.2l4.9,9.8l10.8,1.5
				c0.9,0.2,1.5,0.7,1.7,1.4c0.2,0.8,0,1.5-0.5,2.1l-7.9,7.7l1.9,10.8c0.2,0.8-0.1,1.5-0.8,2l-0.1,0.1c-0.5,0.2-0.9,0.3-1.2,0.3
				c-0.3,0-0.6,0-1-0.2l-9.7-5.1l-9.6,5.1C231.3,232.2,231,232.3,230.7,232.3z M241.3,196.2c-0.5,0-0.9,0.3-1.2,0.7l-5,10.2
				l-11.2,1.7c-0.6,0-1,0.3-1.1,0.8c-0.2,0.6,0,1.1,0.3,1.4l8.1,7.8l-2,11.2c-0.1,0.5,0.1,0.9,0.5,1.3c0.4,0.3,0.9,0.3,1.4,0.1
				l9.9-5.3l0.2,0.1l9.9,5.2c0.2,0.1,0.4,0.1,0.6,0.1c0.2,0,0.6-0.1,0.9-0.2c0.4-0.3,0.6-0.7,0.5-1.2l-2-11.2l8.1-8
				c0.3-0.4,0.4-0.9,0.3-1.4c-0.1-0.4-0.5-0.7-1.1-0.8l-11.2-1.5l-5-10.2C242.3,196.4,241.8,196.2,241.3,196.2z M252.3,230.7
				l-10.4-5.4c-0.3-0.1-0.6-0.1-1,0c-0.1,0-0.2,0-0.2,0.1l-10.4,5.4l2.1-11.6c0-0.5-0.2-0.9-0.4-1.2l-8.4-8.2l11.6-1.8
				c0.4-0.1,0.7-0.3,0.9-0.8l5.1-10.6l5.3,10.6c0.1,0.4,0.4,0.6,1,0.8l11.6,1.8l-8.4,8.2c-0.2,0.2-0.6,0.6-0.4,1.1L252.3,230.7z
				 M225.1,210.2l7.3,7.1c0.4,0.4,0.7,1,0.7,1.8l-1.8,10.1l9.2-4.8c0,0,0.1,0,0.1,0c0.3-0.1,0.9-0.2,1.6,0.1l9.1,4.7l-1.8-10.1
				c-0.2-0.6,0.1-1.3,0.7-1.8l7.3-7.2l-10.1-1.5c-1.1-0.3-1.4-0.8-1.6-1.2l-4.6-9.1l-4.5,9.2c-0.3,0.6-0.8,1-1.5,1.2L225.1,210.2z"
				/>
		</g>
	</g>
	<g>
		<path class="st1" d="M201.9,38.8l-5.4-2.6c0-0.8,0-1.8,0-2.6l5.4-2.7c1.1-0.5,1.5-1.8,1.1-3l-2.6-6.2c-0.4-1.1-1.8-1.6-2.9-1.4
			l-5.6,1.9c-0.5-0.7-1.2-1.4-1.9-1.9l1.9-5.8c0.4-1.1-0.1-2.5-1.4-2.9L184.4,9c-1.1-0.4-2.5,0-3,1.1l-2.5,5.5c-1,0-1.8,0-2.6,0
			l-2.7-5.4c-0.5-1.1-1.8-1.5-3-1.1l-6.2,2.6c-1.1,0.4-1.6,1.8-1.4,2.9l1.9,5.6c-0.7,0.5-1.4,1.2-1.9,1.9l-5.8-1.9
			c-1.1-0.4-2.5,0.1-2.9,1.4l-2.6,6.2c-0.4,1.1,0,2.5,1.1,3l5.4,2.6c0,0.8,0,1.8,0,2.6l-5.4,2.7c-1.1,0.5-1.5,1.8-1.1,3l2.6,6.2
			c0.4,1.1,1.8,1.6,2.9,1.4l5.6-1.9c0.5,0.7,1.2,1.4,1.9,1.9l-1.9,5.8c-0.4,1.1,0.1,2.5,1.4,2.9l6.2,2.6c1.1,0.4,2.5,0,3-1.1
			l2.6-5.4c1,0,1.8,0,2.6,0l2.7,5.4c0.4,0.8,1.2,1.2,2.1,1.2c0.3,0,0.5,0,0.8-0.1l6.2-2.6c1.1-0.4,1.6-1.8,1.4-2.9l-1.9-5.6
			c0.7-0.5,1.4-1.2,1.9-1.9l5.8,1.9c1.1,0.4,2.5-0.1,2.9-1.4L203,42C203.6,40.6,203,39.4,201.9,38.8z M198.4,46.9l-5.8-1.9
			c-0.8-0.3-1.9,0-2.5,0.7c-0.5,0.5-1.1,1.1-1.6,1.6c-0.7,0.7-1,1.6-0.7,2.5l1.9,5.6l-6,2.6l-2.7-5.4c-0.4-0.8-1.2-1.2-2.1-1.2h-0.1
			c-0.8,0-1.6,0-2.3,0c-1-0.1-1.8,0.4-2.2,1.2l-2.6,5.4l-6-2.5l1.9-5.8c0.3-0.8,0-1.9-0.7-2.5c-0.5-0.5-1.1-1.1-1.6-1.6
			c-0.7-0.7-1.6-1-2.5-0.7l-5.6,1.9l-2.6-6l5.4-2.7c0.8-0.4,1.4-1.4,1.2-2.2c0-0.8,0-1.6,0-2.3c0-1-0.4-1.8-1.2-2.2l-5.4-2.6l2.5-6
			l5.8,1.9c0.8,0.3,1.9,0,2.5-0.7c0.5-0.5,1.1-1.1,1.6-1.6c0.7-0.7,1-1.6,0.7-2.5l-1.9-5.6l6-2.6l2.7,5.4c0.4,0.8,1.2,1.4,2.3,1.2
			c0.8,0,1.6,0,2.3,0c1,0,1.8-0.4,2.2-1.2l2.6-5.4l6,2.5l-1.9,5.8c-0.3,0.8,0,1.9,0.7,2.5c0.5,0.5,1.1,1.1,1.6,1.6
			c0.7,0.7,1.6,1,2.5,0.7l5.6-1.9l2.5,6l-5.4,2.7c-0.8,0.4-1.4,1.4-1.2,2.3c0,0.8,0,1.6,0,2.3c0,1,0.4,1.8,1.2,2.2l5.4,2.6
			L198.4,46.9z"/>
		<path class="st1" d="M173.9,26.1c-2.3,1-4.1,2.7-5.1,5.1c-1,2.3-1,4.8,0,7.1c1,2.3,2.7,4.1,5.1,5.1c1.1,0.4,2.3,0.7,3.6,0.7
			c1.2,0,2.5-0.3,3.6-0.7c4.8-1.9,7-7.4,5.1-12.2C184.2,26.3,178.7,24.2,173.9,26.1z M180.2,41.2c-1.8,0.7-3.6,0.7-5.4,0
			s-3-2.1-3.8-3.8c-0.7-1.8-0.7-3.6,0-5.4c0.7-1.8,2.1-3,3.8-3.8c0.8-0.4,1.8-0.5,2.6-0.5c2.7,0,5.4,1.6,6.5,4.3
			C185.5,35.7,183.7,39.8,180.2,41.2z"/>
	</g>
	<g>
		<g>
			<path class="st1" d="M125.2,172.8l-4.9-4.9c0.7-1.4,1.2-2.9,1.2-4.5c0-5.2-4.3-9.3-9.3-9.3c-5.2,0-9.3,4.3-9.3,9.3
				c0,5.2,4.3,9.3,9.3,9.3c1.5,0,2.9-0.4,4.1-1l5.1,5.1c0.5,0.5,1.2,0.8,2.1,0.8c0.7,0,1.5-0.3,2.1-0.8c0.5-0.5,0.8-1.2,0.8-2.1
				C126,174.1,125.7,173.4,125.2,172.8z M103.8,163.4c0-4.5,3.7-8.2,8.2-8.2s8.2,3.7,8.2,8.2c0,4.5-3.7,8.2-8.2,8.2
				S103.8,167.9,103.8,163.4z M124.4,176c-0.7,0.7-1.8,0.7-2.5,0l-4.8-4.8c1-0.7,1.8-1.5,2.5-2.3l4.8,4.8c0.3,0.3,0.5,0.8,0.5,1.2
				C124.9,175.3,124.8,175.7,124.4,176z"/>
			<path class="st1" d="M123.4,178c-0.9,0-1.7-0.3-2.3-0.9l-4.9-4.9c-1.4,0.6-2.7,0.9-4,0.9c-5.4,0-9.7-4.4-9.7-9.7
				c0-5.4,4.4-9.7,9.7-9.7s9.7,4.4,9.7,9.7c0,1.4-0.4,2.8-1.2,4.5l4.7,4.7c0.6,0.6,0.9,1.3,1.2,2.1l0,0.1c0,0.9-0.3,1.7-0.9,2.3
				C125.2,177.7,124.3,178,123.4,178z M116.3,171.3l5.3,5.3c0.5,0.5,1.1,0.7,1.8,0.7c0.7,0,1.4-0.3,1.8-0.7c0.5-0.5,0.7-1,0.7-1.7
				c-0.3-0.6-0.5-1.2-1-1.7l-5.1-5.1l0.1-0.2c0.8-1.6,1.2-3,1.2-4.4c0-4.9-4-8.9-9-8.9s-9,4-9,8.9s4,8.9,9,8.9c1.3,0,2.6-0.3,4-0.9
				L116.3,171.3z M123.1,176.9c-0.5,0-1.1-0.2-1.5-0.6l-5.1-5.1l0.4-0.3c0.8-0.6,1.6-1.4,2.4-2.3l0.3-0.3l5.1,5.1
				c0.3,0.3,0.7,1,0.7,1.5c0,0.6-0.2,1.1-0.7,1.4C124.2,176.7,123.7,176.9,123.1,176.9z M117.7,171.2l4.5,4.5c0.5,0.5,1.4,0.5,1.9,0
				l0.1,0c0.3-0.2,0.4-0.4,0.4-0.8c0-0.3-0.2-0.8-0.4-1l-4.5-4.5C119,170.1,118.3,170.7,117.7,171.2z M112,172
				c-4.8,0-8.6-3.9-8.6-8.6s3.9-8.6,8.6-8.6s8.6,3.9,8.6,8.6S116.8,172,112,172z M112,155.5c-4.3,0-7.9,3.5-7.9,7.9s3.5,7.9,7.9,7.9
				c4.3,0,7.9-3.5,7.9-7.9S116.3,155.5,112,155.5z"/>
		</g>
		<g>
			<path class="st1" d="M115.4,159.9c-1-1-2.1-1.4-3.4-1.4c-1,0-1.9,0.3-2.7,1c-0.3,0.1-0.3,0.5-0.1,0.8c0.1,0.3,0.5,0.3,0.8,0.1
				c0.7-0.4,1.4-0.7,2.2-0.7c1,0,1.9,0.4,2.6,1.1c0.3,0.3,0.5,0.7,0.7,1c0.1,0.1,0.3,0.3,0.5,0.3c0.1,0,0.1,0,0.3,0
				c0.3-0.1,0.4-0.4,0.3-0.7C116.1,160.8,115.9,160.4,115.4,159.9z"/>
			<path class="st1" d="M116.4,162.5H116c-0.4,0-0.7-0.2-0.8-0.4l-0.1-0.1c-0.1-0.2-0.4-0.6-0.6-0.9c-0.6-0.6-1.5-1-2.3-1
				c-0.7,0-1.3,0.2-2,0.6c-0.3,0.2-0.6,0.2-0.9,0.1c-0.2-0.1-0.4-0.2-0.5-0.4c-0.1-0.3-0.2-0.6-0.1-0.9c0.1-0.2,0.2-0.4,0.4-0.5
				c0.8-0.6,1.8-1,2.9-1c1.5,0,2.7,0.5,3.7,1.5c0.4,0.4,0.7,0.9,1.2,1.6c0.1,0.3,0.1,0.5,0,0.7C116.8,162.2,116.7,162.4,116.4,162.5
				L116.4,162.5z M115.8,161.6c0.1,0.1,0.1,0.1,0.2,0.1h0.2c0,0,0.1-0.1,0-0.1c-0.4-0.6-0.6-1-1-1.4c-0.9-0.9-1.8-1.3-3.2-1.3
				c-1,0-1.8,0.3-2.5,0.9c-0.1,0.1-0.1,0.2,0,0.4c0,0,0.2,0,0.3,0c0.8-0.5,1.6-0.7,2.4-0.7c1.1,0,2.1,0.4,2.9,1.2
				C115.3,160.9,115.6,161.3,115.8,161.6z"/>
		</g>
		<g>
			<path class="st1" d="M112,156c-4.1,0-7.4,3.3-7.4,7.4s3.3,7.4,7.4,7.4s7.4-3.3,7.4-7.4C119.4,159.3,116.1,156,112,156z
				 M112,169.6c-3.4,0-6.3-2.7-6.3-6.3c0-3.4,2.7-6.3,6.3-6.3c3.4,0,6.3,2.7,6.3,6.3S115.4,169.6,112,169.6z"/>
			<path class="st1" d="M112,171.2c-4.3,0-7.8-3.5-7.8-7.8c0-4.3,3.5-7.8,7.8-7.8s7.8,3.5,7.8,7.8
				C119.8,167.7,116.3,171.2,112,171.2z M112,156.3c-3.9,0-7,3.2-7,7c0,3.9,3.2,7,7,7s7-3.2,7-7C119,159.5,115.9,156.3,112,156.3z
				 M112,169.9c-3.7,0-6.7-3-6.7-6.7s3-6.7,6.7-6.7s6.7,3,6.7,6.7S115.7,169.9,112,169.9z M112,157.3c-3.3,0-5.9,2.7-5.9,5.9
				s2.7,5.9,5.9,5.9s5.9-2.7,5.9-5.9S115.3,157.3,112,157.3z"/>
		</g>
	</g>
	<g>
		<g>
			<path class="st1" d="M46.7,233.8l-15,1.4c-0.4,0-0.7,0.4-0.7,0.8c0,0.4,0.4,0.7,0.8,0.7l15-1.4c0.4,0,0.7-0.4,0.7-0.8
				C47.5,234.1,47.1,233.8,46.7,233.8z"/>
			<path class="st1" d="M31.9,237.1c-0.7,0-1.2-0.5-1.2-1.1c0-0.7,0.5-1.2,1.1-1.2l15-1.4c0.7,0,1.2,0.5,1.2,1.1
				c0,0.7-0.5,1.2-1.1,1.2L31.9,237.1C31.9,237.1,31.9,237.1,31.9,237.1z M46.7,234.2l-14.9,1.4c-0.2,0-0.3,0.2-0.3,0.4
				c0,0.2,0.2,0.3,0.4,0.3l14.9-1.4c0.2,0,0.3-0.2,0.3-0.4C47.1,234.3,46.9,234.2,46.7,234.2z"/>
		</g>
		<g>
			<path class="st1" d="M47.9,225.7l-15.4,1.4c-0.3,0-0.5,0.1-0.7,0.4l-4.5,5.5c-0.1,0.3-0.3,0.5-0.3,0.8l2.2,24.7
				c0.1,1.5,1.4,2.5,2.9,2.3l18.8-1.6c1.5-0.1,2.5-1.4,2.3-2.9l-2.5-28.1C50.5,226.7,49.3,225.6,47.9,225.7z M31.8,229.8L32,232
				c0,0.1-0.1,0.4-0.3,0.4l-2.2,0.1L31.8,229.8z M51.6,256.5c0,0.5-0.4,1.1-1,1.1l-18.8,1.6c-0.5,0-1.1-0.4-1.1-1l-2.2-24.2l3.3-0.3
				c1.1-0.1,1.8-1.1,1.8-2.1l-0.3-3.3l14.7-1.4c0.5,0,1.1,0.4,1.1,1L51.6,256.5z"/>
			<path class="st1" d="M31.8,261.3c-1.6,0-2.8-1.1-3-2.7l-2.2-24.7c0-0.4,0.2-0.7,0.3-1l4.6-5.6c0.1-0.3,0.5-0.6,1-0.6l15.3-1.4
				c1.6-0.2,3,1,3.3,2.8l2.5,28.2c0.1,0.8-0.1,1.6-0.6,2.2c-0.5,0.6-1.2,1-2.1,1.1l-18.8,1.6C32,261.3,31.9,261.3,31.8,261.3z
				 M48.1,226.1c-0.1,0-0.1,0-0.2,0h0l-15.4,1.4c-0.1,0-0.3,0-0.4,0.2l-4.6,5.6c-0.1,0.2-0.2,0.4-0.2,0.6l2.2,24.7
				c0.1,1.3,1.1,2.1,2.5,2l18.8-1.6c0.6-0.1,1.2-0.3,1.5-0.8c0.4-0.4,0.5-1,0.5-1.7l-2.5-28.1C50.2,227,49.2,226.1,48.1,226.1z
				 M31.9,259.6c-0.7,0-1.5-0.5-1.5-1.3l-2.2-24.5l3.7-0.3c0.9-0.1,1.4-0.9,1.4-1.7l-0.3-3.6l15.1-1.4c0,0,0,0,0,0
				c0.8,0,1.5,0.5,1.5,1.3l2.5,28.4c0,0.7-0.5,1.5-1.3,1.5L31.9,259.6C31.9,259.6,31.9,259.6,31.9,259.6z M28.9,234.4l2.2,23.8
				c0,0.4,0.4,0.6,0.7,0.6l18.8-1.6c0.4,0,0.6-0.4,0.6-0.7l-2.5-28.4c0-0.4-0.4-0.6-0.7-0.6l-14.3,1.3l0.2,2.9
				c0,1.3-0.9,2.3-2.1,2.5L28.9,234.4z M28.6,233l3.5-4.2l0.2,3.2c0,0.3-0.2,0.8-0.7,0.8L28.6,233z M31.5,230.8l-1.1,1.3l1.2-0.1
				c0,0,0,0,0-0.1L31.5,230.8z M31.7,232.1C31.7,232.1,31.6,232.1,31.7,232.1L31.7,232.1C31.7,232.1,31.7,232.1,31.7,232.1z"/>
		</g>
		<g>
			<path class="st1" d="M46.9,237.8l-15,1.4c-0.4,0-0.7,0.4-0.7,0.8c0,0.4,0.4,0.7,0.8,0.7l15-1.4c0.4,0,0.7-0.4,0.7-0.8
				C47.8,238.1,47.3,237.8,46.9,237.8z"/>
			<path class="st1" d="M32.1,241.1c-0.7,0-1.2-0.5-1.2-1.1c0-0.7,0.5-1.2,1.1-1.2l15-1.4c0.7,0,1.2,0.5,1.2,1.1
				c0,0.7-0.5,1.2-1.1,1.2L32.1,241.1C32.1,241.1,32.1,241.1,32.1,241.1z M46.9,238.2L32,239.5c-0.2,0-0.3,0.2-0.3,0.4
				c0,0.2,0.2,0.3,0.4,0.3l14.9-1.4c0.2,0,0.3-0.2,0.3-0.4C47.4,238.3,47.1,238.2,46.9,238.2z"/>
		</g>
		<g>
			<path class="st1" d="M44.5,250l-11.4,1c-0.4,0-0.7,0.4-0.7,0.8c0,0.4,0.4,0.7,0.8,0.7l11.4-1c0.4,0,0.7-0.4,0.7-0.8
				C45.3,250.3,44.9,250,44.5,250z"/>
			<path class="st1" d="M33.2,252.9c-0.7,0-1.2-0.5-1.2-1.1c0-0.7,0.5-1.2,1.1-1.2l11.4-1c0.7,0,1.2,0.5,1.2,1.1
				c0,0.6-0.4,1.2-1.1,1.2L33.2,252.9C33.2,252.9,33.2,252.9,33.2,252.9z M44.5,250.4l-11.4,1c-0.2,0-0.3,0.2-0.3,0.4
				c0,0.2,0.2,0.3,0.4,0.3l11.4-1c0.2,0,0.3-0.2,0.3-0.4C44.9,250.5,44.7,250.4,44.5,250.4z"/>
		</g>
		<g>
			<path class="st1" d="M47.6,245.8l-15,1.4c-0.4,0-0.7,0.4-0.7,0.8c0,0.4,0.4,0.7,0.8,0.7l15-1.4c0.4,0,0.7-0.4,0.7-0.8
				C48.4,246,48.2,245.8,47.6,245.8z"/>
			<path class="st1" d="M32.8,249c-0.7,0-1.2-0.5-1.2-1.1c0-0.7,0.5-1.2,1.1-1.2l15-1.4c0.7,0,1.2,0.4,1.2,1.1
				c0,0.7-0.5,1.2-1.1,1.2L32.8,249C32.8,249,32.8,249,32.8,249z M47.6,246.1l-14.9,1.4c-0.2,0-0.3,0.2-0.3,0.4
				c0,0.2,0.2,0.3,0.4,0.3l14.9-1.4c0.2,0,0.3-0.2,0.3-0.4C48.1,246.3,48.1,246.1,47.6,246.1z"/>
		</g>
		<g>
			<path class="st1" d="M47.3,241.8l-15,1.4c-0.4,0-0.7,0.4-0.7,0.8c0,0.4,0.4,0.7,0.8,0.7l15-1.4c0.4,0,0.7-0.4,0.7-0.8
				C48.2,242,47.8,241.8,47.3,241.8z"/>
			<path class="st1" d="M32.5,245c-0.7,0-1.2-0.5-1.2-1.1c0-0.7,0.5-1.2,1.1-1.2l15-1.4c0.7,0,1.2,0.5,1.2,1.1
				c0,0.6-0.4,1.2-1.1,1.2L32.5,245C32.5,245,32.5,245,32.5,245z M47.4,242.2l-14.9,1.4c-0.2,0-0.3,0.2-0.3,0.4
				c0,0.2,0.2,0.3,0.4,0.3l14.9-1.4c0.2,0,0.3-0.2,0.3-0.4C47.8,242.3,47.6,242.2,47.4,242.2z"/>
		</g>
	</g>
	<g>
		<g>
			<path class="st1" d="M301.9,278.4c-2.5,0-4.7,1.2-6,3.7c-0.1,0.3-0.1,0.5-0.1,0.7c0,0.3,0.3,0.4,0.4,0.5l2.6,1.5
				c0.4,0.3,1.1,0.1,1.4-0.3c0.5-0.8,1.1-1.2,1.8-1.2c0.7,0,1.4,0.7,1.4,1.4c0,0.4-0.1,0.5-1.4,1.2c-1,0.5-2.5,1.2-2.5,3.2v2.1
				c0,0.7,0.5,1.2,1.2,1.2h2.5c0.7,0,1.2-0.5,1.2-1.2s0-1.1,0.1-1.2c0.1-0.3,0.5-0.4,0.8-0.7c1.1-0.8,2.9-2.1,2.9-4.7
				C308.2,281.3,305.5,278.4,301.9,278.4z M304.5,288.2c-0.5,0.4-1,0.7-1.2,1.1c-0.1,0.1-0.3,0.5-0.3,1.8h-2.1v-1.9
				c0-0.8,0.7-1.4,1.6-1.8c1.2-0.7,2.2-1.2,2.2-2.6c0-1.5-1.2-2.9-2.7-2.9c-0.8,0-1.9,0.3-2.7,1.5l-1.8-1c1.1-1.6,2.7-2.6,4.5-2.6
				c2.6,0,4.8,2.2,4.8,4.9C306.8,286.5,305.6,287.5,304.5,288.2z"/>
			<path class="st1" d="M303.1,292.8h-2.5c-0.9,0-1.6-0.7-1.6-1.6v-2.1c0-2,1.5-2.8,2.4-3.4l0.2-0.1c1.2-0.7,1.2-0.7,1.2-0.9
				c0-0.5-0.5-1-1-1c-0.5,0-1,0.3-1.5,1.1c-0.4,0.6-1.3,0.8-1.9,0.4l-2.7-1.6c0,0-0.1,0-0.1-0.1c-0.2-0.1-0.4-0.4-0.4-0.8
				c0-0.2,0-0.5,0.2-0.9c1.4-2.5,3.7-3.9,6.4-3.9c3.7,0,6.7,2.9,6.7,6.6c0,2.7-1.8,4.1-2.9,4.9l-0.1,0.1c-0.1,0.1-0.3,0.2-0.4,0.3
				c-0.1,0.1-0.3,0.2-0.3,0.2l-0.1,0.1c0,0.1,0,0.5,0,1C304.8,292.1,304,292.8,303.1,292.8z M301.9,283c0.9,0,1.8,0.9,1.8,1.8
				c0,0.7-0.4,0.9-1.6,1.6l-0.2,0.1c-0.9,0.5-2,1.1-2,2.7v2.1c0,0.5,0.4,0.9,0.9,0.9h2.5c0.5,0,0.9-0.4,0.9-0.9c0-0.8,0-1.2,0.2-1.5
				c0.1-0.2,0.4-0.4,0.5-0.5c0.1-0.1,0.2-0.2,0.3-0.2l0.2-0.1c1.1-0.8,2.6-1.9,2.6-4.3c0-3.2-2.7-5.8-5.9-5.8
				c-2.4,0-4.4,1.2-5.7,3.5c-0.1,0.2-0.1,0.4-0.1,0.5c0,0,0.1,0.1,0.2,0.2c0,0,0.1,0.1,0.1,0.1l2.6,1.5c0.1,0.1,0.3,0.1,0.5,0.1
				c0.2,0,0.3-0.1,0.4-0.2C300.2,283.8,300.8,283,301.9,283z M303.4,291.4h-2.8v-2.3c0-0.9,0.6-1.6,1.9-2.1c1.2-0.7,2-1.1,2-2.3
				c0-1.3-1.1-2.5-2.4-2.5c-1,0-1.8,0.4-2.4,1.3l-0.2,0.3l-2.5-1.3l0.2-0.4c1.2-1.8,2.9-2.8,4.9-2.8c2.9,0,5.2,2.4,5.2,5.3
				c0,1.9-1.3,3-2.5,3.8l-0.2,0.1c-0.4,0.3-0.7,0.5-0.9,0.8c-0.1,0.1-0.2,0.3-0.2,1.6V291.4z M301.3,290.7h1.3
				c0-1.2,0.2-1.5,0.4-1.7c0.2-0.4,0.6-0.6,1.1-1l0.2-0.2c1.1-0.7,2.2-1.6,2.2-3.1c0-2.5-2-4.6-4.4-4.6c-1.5,0-2.9,0.8-4,2.1
				l1.1,0.6c0.9-1.1,2-1.4,2.9-1.4c1.7,0,3.1,1.5,3.1,3.3c0,1.6-1.2,2.3-2.4,2.9c-1.3,0.6-1.4,1.1-1.4,1.4V290.7z"/>
		</g>
		<g>
			<path class="st1" d="M301.9,293c-1.6,0-2.9,1.2-2.9,2.9s1.2,2.9,2.9,2.9c1.6,0,2.9-1.2,2.9-2.9C304.8,294.4,303.5,293,301.9,293z
				 M301.9,297.4c-0.8,0-1.5-0.7-1.5-1.5c0-0.8,0.7-1.5,1.5-1.5c0.8,0,1.5,0.7,1.5,1.5C303.4,296.7,302.7,297.4,301.9,297.4z"/>
			<path class="st1" d="M301.9,299.1c-1.9,0-3.3-1.4-3.3-3.3s1.4-3.3,3.3-3.3c1.8,0,3.3,1.5,3.3,3.3
				C305.2,297.7,303.8,299.1,301.9,299.1z M301.9,293.4c-1.4,0-2.5,1.1-2.5,2.5s1.1,2.5,2.5,2.5s2.5-1.1,2.5-2.5
				C304.4,294.5,303.3,293.4,301.9,293.4z M301.9,297.8c-1,0-1.9-0.9-1.9-1.9c0-1,0.9-1.9,1.9-1.9s1.9,0.9,1.9,1.9
				C303.8,296.9,302.9,297.8,301.9,297.8z M301.9,294.7c-0.6,0-1.1,0.5-1.1,1.1c0,0.6,0.5,1.1,1.1,1.1c0.6,0,1.1-0.5,1.1-1.1
				C303,295.3,302.5,294.7,301.9,294.7z"/>
		</g>
		<g>
			<path class="st1" d="M314.9,297.1c1.6-2.5,2.5-5.5,2.5-8.4c0-8.5-7-15.5-15.5-15.5s-15.5,7-15.5,15.5s7,15.5,15.5,15.5
				c3,0,5.9-0.8,8.4-2.5l5.6,2.1c0.3,0.1,0.5,0,0.8-0.1c0.1-0.1,0.3-0.5,0.1-0.8L314.9,297.1z M310.5,300.1c-0.3-0.1-0.4,0-0.7,0.1
				c-2.3,1.6-5.1,2.5-8,2.5c-7.7,0-14-6.3-14-14s6.3-14,14-14c7.7,0,14,6.3,14,14c0,2.9-0.8,5.6-2.5,8c-0.1,0.1-0.1,0.4-0.1,0.7
				l1.6,4.5L310.5,300.1z"/>
			<path class="st1" d="M301.9,304.6c-8.8,0-15.9-7.1-15.9-15.9c0-8.8,7.1-15.9,15.9-15.9c8.8,0,15.9,7.1,15.9,15.9
				c0,3-0.9,6-2.4,8.4l1.9,5.6c0.2,0.4,0,1-0.2,1.2l-0.1,0.1c-0.3,0.2-0.7,0.4-1.2,0.1l-5.4-2C307.9,303.8,305,304.6,301.9,304.6z
				 M301.9,273.6c-8.3,0-15.1,6.8-15.1,15.1c0,8.3,6.8,15.1,15.1,15.1c3,0,5.8-0.8,8.2-2.4l0.2-0.1l5.8,2.1c0.1,0.1,0.2,0,0.4-0.1
				c0-0.1,0.1-0.3,0-0.3l-2-6l0.1-0.2c1.6-2.3,2.4-5.2,2.4-8.2C317,280.4,310.2,273.6,301.9,273.6z M301.9,303.1
				c-7.9,0-14.4-6.5-14.4-14.4c0-7.9,6.5-14.4,14.4-14.4c7.9,0,14.4,6.5,14.4,14.4c0,3-0.9,5.8-2.5,8.2c-0.1,0.1-0.1,0.3-0.1,0.4
				l1.9,5.3l-5.2-2.1c0,0,0,0,0,0c0,0-0.1,0-0.2,0.1l-0.1,0.1C307.7,302.2,304.9,303.1,301.9,303.1z M301.9,275.1
				c-7.5,0-13.6,6.1-13.6,13.6c0,7.5,6.1,13.6,13.6,13.6c2.8,0,5.5-0.8,7.7-2.4l0.2-0.1c0.2-0.1,0.5-0.3,0.9-0.1l3.6,1.5l-1.4-3.8
				c0-0.3,0-0.7,0.2-1c1.5-2.2,2.4-4.9,2.4-7.7C315.5,281.2,309.4,275.1,301.9,275.1z"/>
		</g>
	</g>
</g>
</svg>
