<?xml version="1.0" encoding="utf-8"?>
<!-- Generator: Adobe Illustrator 27.4.1, SVG Export Plug-In . SVG Version: 6.00 Build 0)  -->
<svg version="1.1" id="_x2014_ÎÓÈ_x5F_1" xmlns="http://www.w3.org/2000/svg" xmlns:xlink="http://www.w3.org/1999/xlink"
	 x="0px" y="0px" viewBox="0 0 607.5 300" style="enable-background:new 0 0 607.5 300;" xml:space="preserve">
<style type="text/css">
	.st0{fill:#FFFFFF;}
	.st1{fill:#68A6C2;}
</style>
<rect x="2718.9" y="-828.3" class="st0" width="2200" height="2200"/>
<g>
	<path class="st1" d="M602.4,266.9L602.4,266.9c-9.9-6.1-19.7-12.7-29.1-19.2l-1.8-1.2c-7.6-5.2-16.5-11.4-24.5-18.5
		c-3.9-3.2-6.6-6.4-8.5-9.8c-1.4-2.6-2-5.5-2.5-8.5c-0.4-1.9-0.8-4-1.3-5.9c-5.1-15.4-8.1-31.7-11-47.4c-1.5-8.3-3.1-16.9-5-25.2
		c-2.4-10.6-9.3-18.9-16.1-26.9c-5.8-6.8-11.7-13.8-14.7-22.2c-0.6-1.5-1-2.9-1.5-4.3c-1.1-3.4-2.3-6.7-4-10c-1-1.9-2.1-3.8-3.1-5.6
		c-1.8-3.1-3.6-6.3-5.1-9.7c-2.8-6.4-3.6-12.8-2.3-19.6c0.1-0.5,0.2-1,0.3-1.5c0.8-3.9,1.7-7.8,0-12l-0.2-0.3
		c-0.2-0.2-0.5-0.5-0.9-0.5l0,0c-0.2,0-0.5,0-0.7,0c-0.7-2-2.1-3.7-4.3-5.2c-5.9-3.9-12-2.3-17.9,4.8c-1.3,1.6-3.1,4.2-4.8,7.8
		c-0.8-4-2.5-8.1-6.2-10.9c-5.4-4.1-11.8-4.1-18.1-4.2c-0.8,0-1.6,0-2.5,0c-6.9-0.1-13.7-0.2-20.6-0.4c-13.5-0.3-27.5-0.6-41.2-0.4
		c-4.3,0.1-8.6,0.2-12.9,0.3c-4.3,0.1-8.7,0.2-13,0.3h-0.9c-6,0.1-12.4,0.3-18,2.7c-5.1,2.3-9,6.6-11.1,12.6
		c-1.3,3.8-2.1,8-2.3,12.5c0,2.3-0.1,4.6-0.3,7.1c0,0.5,0,1.1-0.1,1.8c0,1.9-0.1,4.2-0.7,5.4c-0.8,1.5-3.4,1.6-5.6,1.6
		c-0.8,0-1.5,0-2.2,0.1c-0.4,0.1-0.8,0.1-1.2,0.2c-1.7,0.2-3.4,0.4-5.1,0.9c-3.7,1.1-7.1,3.2-9.5,5.8c-5,5.3-6.1,13.8-2.5,20.2
		c3.3,5.9,14.3,14.4,23,14.2c1.6,0,3.1-0.4,4.4-1v0.1l0.2,4.9c0.3,6.8-3.8,7.5-8.9,8.3c-2.6,0.5-5.4,0.8-7.7,2.3
		c-6.9,4-9.2,11.2-9.9,16.6c-0.8,4.8-1.5,12.9,1.6,14.6c0.2,2.2,0.8,4.2,1.7,6.1c0.7,1.3,1.5,2.3,2.5,3.1c-0.8,0.8-1.7,1.7-2.4,2.8
		c-4.2,6.6-0.4,13.1,3,18.9l0.2,0.3c4.2,7.1,9,9.8,15.8,8.9c0.8-0.1,4.2-0.7,5-0.8c0.2,0,0.5-0.1,0.8-0.1c0.4-0.1,1.6-0.3,1.7-0.1
		c0.1,0.4-0.5,1.7-2.5,2.4c-0.7,0.2-1.7,0.4-2.6,0.4c-0.7,0.1-1.3,0.1-2.1,0.1c-2.7,0.1-5.7,0.2-8.2,2.1c-4.8,3.5-7.8,10.2-7.6,17.1
		c0.2,6.1,2.8,11.3,7.3,14.2c7.2,4.6,14.4,0.1,19-5.8c3-4,3-7.9,3-12.5v-1.1c0-2-0.2-4.1-0.4-6.2c-0.5-4.8-0.8-9.8,0.3-14.1
		c0.5-1.7,1.3-3.4,2.3-5.1c1.5-2.8,3-5.8,2.7-9.2c-0.4-5.3-4.2-10.9-7.9-14.2c-0.8-0.7-1.9-1.4-3.1-2.1c1.9-2.7,3.1-6.5,3.5-10.3
		c0.6-3.7,0-7-1.6-10.6c-0.3-0.5-0.6-1-0.8-1.5c-1-1.9-2.2-3.9-2.5-6c-0.5-3.1,1-7.4,3.4-9.7c0.5-0.5,1-0.8,1.5-1.2
		c1.1-0.8,2.3-1.7,2.8-3.6c0.9-3.4,0.7-7.2,0.5-10.9c-0.1-1.6-0.2-3-0.2-4.5V41.7c0-0.6,0-1.1,0-1.7c0-3.8-0.1-7.3,1.7-10.7
		c2.9-5.3,7.4-7.9,13.5-7.9h13.2c2.5,0,5,0,7.5,0.1c2.5,0,5,0.1,7.5,0.1c0.7,0,1.4,0,2.2,0c3.9-0.1,8.2-0.3,10.4,2.6
		c0.3,0.4,0.6,0.7,0.8,1c1.4,1.9,2.6,3.6,5.7,4c3.3,0.5,6.2-0.5,7.9-2.7c0.5-0.6,0.8-1.2,1-1.9c0.4-0.8,0.7-1.4,1.2-2
		c1-1.1,2.5-1.1,4.2-1h0.8c2.4,0,4.7,0,7.1,0.1c2.4,0,4.7,0.1,7.1,0.1l0,0c5.9,0.1,11.8,0.1,17.6,0.1c4.7,0,10.1,0.4,13.8,3.3
		c5.1,4,4.9,11.6,4.7,18.3c0,1.5-0.1,3-0.1,4.3c0,3.8,0,7.5,0.1,11.2c0,3.8,0.1,7.5,0.1,11.4c0,7.8,0.1,15.8,0.2,23.5
		c0.1,11.5,0.3,23.5,0.1,35.2c-0.1,7.3-0.2,14.6-0.3,21.8c-0.1,7.2-0.3,14.5-0.3,21.8c-0.1,6.9,0,13.9,0.1,20.6
		c0.1,6.7,0.1,13.7,0.1,20.5c-0.1,8.4-0.1,16.9,0,25c0,4.2,0,8.4,0,12.5c0,6.4,0,13.1-0.3,19.5c0,1.1,0,2.3,0,3.6
		c0.2,5,0.3,11.2-3.2,14.2c-3,2.6-7.8,2.5-12.2,2.4c-0.9,0-1.8-0.1-2.6-0.1h-17.6c-8.1,0-16.3,0-24.4,0.1c-8.2,0-16.4,0.1-24.6,0.1
		h-19.9c-0.9,0-2,0-3,0c-3.9,0.1-7.8,0.2-11.1-0.9c-9-2.8-8.8-11.3-8.6-19.6c0-1.1,0-2.2,0-3.2v-26.7c0-0.9,0-2,0-2.9
		c0-2.8,0.1-5.9-0.2-8.7v-0.3c-0.1-2.8-0.4-7.5-2.8-9.5c-1.6-1.3-3-1.1-4-0.7c-2.5,1.2-3.9,5.2-3.9,7.5c0,8.5,0.1,17.1,0.2,25.4
		c0.1,4.2,0.1,8.5,0.2,12.6c0.1,3.2,0.1,6.3,0.1,9.5c0,3.2,0.1,6.3,0.1,9.5v0.7c0,3.1,0,5.1,1.8,8.1c3.7,6.3,8.2,9,16,9.4
		c5.1,0.3,10.2,0.3,15.2,0.3c2.8,0,5.8,0,8.7,0c6.7,0,13.4,0.1,20.1,0.2c13,0.1,26.5,0.2,39.6,0.2c1.9,0,3.7,0,5.6,0
		c7.5,0,15.1,0,22.6-0.3l0.8-0.1c4.1-0.3,9.2-0.6,12.7-3.2c1.7-1.2,2.9-3,3.8-4.8c1.5,1.5,3.5,2.6,5.1,3.6l0.3,0.2
		c3.1,1.8,6.5,3.2,9.8,4.6c0.9,0.4,1.9,0.8,2.8,1.2c1.9,0.8,3.7,1.7,5.5,2.6c2.2,1.1,4.5,2.3,6.8,3.2c1.6,0.7,3.1,0.9,4.4,0.8
		c0.1,0.6,0.4,1.2,0.8,1.8c1.2,1.5,3,2.8,4.8,4.2c0.8,0.6,1.4,1,2.1,1.5c1.3,1.1,2.7,2.4,4.1,3.5c2.6,2.3,5.4,4.6,7.9,7
		c9.3,8.4,17.7,16.1,25.2,24.9c0.2,0.3,0.5,0.5,0.8,0.5c0,0,0,0,0.1,0c0.3,0,0.5-0.1,0.8-0.3c0.3-0.2,0.5-0.5,0.6-0.8
		c0.1-0.4,0-0.8-0.2-1.1c-8.7-10.4-18.9-19.4-28.6-27.9c-4-3.4-8-7-12.2-10.4c-0.4-0.3-0.8-0.6-1.1-0.8c-0.7-0.5-1.4-0.9-1.7-1.4
		c-0.2-0.3-0.5-0.5-0.7-0.7c-0.1,0-0.1-0.1-0.1,0c-0.1-0.2-0.1-0.4-0.1-0.7c0.8-0.4,1.8-1,2.6-1.8c4.5-4.2,8.7-8.8,13.5-14.3
		c5.1-6,10.1-12.4,14.9-18.6c4.5-5.9,9.2-11.9,14.1-17.6l0.1-0.2c0.1-0.3,0.5-0.9-0.1-1.6c-0.7-0.8-1.5-1-2.4-1
		c-2.8,0.2-5.8,4.3-7.7,7.1c-0.5,0.7-0.8,1.2-1.1,1.5c-2.9,3.6-5.9,7.1-8.8,10.7c-2.9,3.5-5.9,7.1-8.8,10.7c-1.7,2-3.5,4.1-5.2,6
		c-4.2,4.8-8.5,9.7-12,15c-0.5,0.8-0.9,1.5-1.2,2.3c-1,0.2-2.1,0.1-3.5-0.5c-1.8-0.7-3.6-1.6-5.4-2.5c-1.4-0.8-2.9-1.5-4.3-2.1
		c-1.6-0.8-3.2-1.4-4.8-2.1c-4.2-1.7-8.4-3.6-12.1-6c-2.1-1.3-3.2-2.5-3.9-4.1c0.5-1.9,0.8-3.7,1.1-5.4c1.5-9.7,2.1-19.7,2.5-29.4
		V255c0-0.6,0.1-1.2,0.1-2.1c0.4-5.3,1.1-14.2-3.8-15.9c-0.6-0.3-1.3-0.1-1.6,0.6c-1.3,2.5-1.2,5.9-1.1,9c0,1,0.1,2.1,0,2.9
		c-0.1,3.4-0.2,6.9-0.3,10.4c-0.1,3.5-0.2,6.9-0.3,10.4c-0.1,3.2-0.3,7.3-0.3,11c0,0.7,0,1.5-0.1,2.3c-0.1,2.2-0.2,4.7,0.4,6.6
		c0.1,0.3,0.2,0.6,0.4,0.8c-1.4,3.3-3.6,5.9-7.5,6.9c-3.9,0.9-7.8,1-11.8,1.1h-1.5c-6.5,0.1-12.7,0.1-19.2,0.1
		c-14.3,0-29.2,0-43.8-0.1h-0.3c-10.2-0.1-20.8-0.3-31.2-0.3c-1.3,0-2.6,0-4.1,0.1c-4.9,0.1-9.9,0.3-14.2-1.2
		c-3.8-1.3-8.1-6-8.9-9.7c-0.2-1.1-0.2-2.4-0.1-3.6c0-0.8,0.1-1.7,0-2.5c0-2.2,0-4.2-0.1-6.4c0-2.2-0.1-4.2-0.1-6.4
		c-0.1-9.5-0.3-20.4-0.3-30.9c0-1.8,0-3.6-0.1-5.3c0-1.8-0.1-3.6-0.1-5.3c0-0.5,0-0.8,0.1-1.3c0-0.5,0.1-0.9,0.1-1.3
		c0.3-2.3,1.7-4.2,2.6-4.2c0.6,0,1.2,0.3,2,2.5c1.3,4.2,1.2,9.1,1,13.7c0,1.4-0.1,2.7-0.1,4.1v35.1c0,4.8,0.3,9.1,4,12.5
		c4.9,4.7,11.8,4.7,17.9,4.7c1,0,2.1,0,3,0c10.5,0,21,0,31.5-0.1c10.5,0,20.9-0.1,31.3-0.1c8.2,0,16.7,0,25-0.1c0.6,0,1.2,0,1.8,0
		c5.9,0.1,13.2,0.2,16-6c1.2-2.5,1.2-5.4,1.3-8.2c0-0.7,0-1.2,0-1.9c0.1-4.3,0.3-8.8,0.3-13.1c0.1-9.1,0.1-18.3,0.1-27.2
		c0-8.7,0-17.4-0.1-25.9c0-8.7-0.1-17.3-0.1-25.9c0-11,0.1-22.2,0.2-33.2c0.2-21.7,0.3-44.2,0.2-66.2c0-2.9,0-5.8,0-8.7
		c0-8.5,0.1-17.3-0.2-25.9c0-1.6,0-3.5,0.1-5.4c0.3-7.5,0.7-15.9-4.6-21.2c-2.9-2.9-7.4-4.5-13.6-4.9c-5.4-0.4-10.9-0.3-16.2-0.2
		c-3.9,0.1-7.6,0.1-11.6,0c-1.6,0-3.2-0.1-4.7-0.1c-0.6,0-1.1,0-1.8-0.1c-1.6-0.1-3.2-0.2-4.6,0.2c-2.5,0.8-3.5,2.5-4.4,4.2
		c-1.2,2.2-2.2,3.9-6,3.4c-2.2-0.3-3.3-1.7-4.6-3.3s-2.8-3.5-5.7-4c-4-0.7-8.2-0.6-12.4-0.5c-2,0-4.1,0.1-6,0c-3.1,0-6.3,0-9.4-0.1
		c-3.2,0-6.4-0.1-9.7-0.1c-6.2,0-10.5,2.1-14,6.6c-3.4,4.4-3.7,8.8-3.7,14.1v51.3c0,1.1,0.1,2.4,0.2,3.6c0.2,3,0.5,6.4-0.4,8.7
		c-0.4,0.9-1.1,1.5-2,2.2c-0.7,0.5-1.3,0.9-1.9,1.6c-2.1,2.3-3.3,5.6-3.8,8c-0.8,3.9,0.8,7.2,2.5,10.3c1.3,2.5,2.5,4.8,2.6,7.5
		c0.1,2.5-0.3,5.3-1.2,8.2c-0.5,1.6-1.2,3.1-2.2,4.4c-1.7-0.6-3.5-0.8-4.9-0.2c-1.1,0.5-2.5,1.5-2.8,4.2c0,0.7,0.6,1.2,1.2,1.2l0,0
		c2.8,0.3,5.1-0.8,7-2.5c1.3,0.5,2.4,1.1,3.3,2.2c4.2,3.6,8,10.1,6.8,15.7c-0.4,1.9-1.3,3.7-2.3,5.5c-0.8,1.6-1.7,3.2-2.2,4.9
		c-0.9,3.3-0.7,7-0.5,10.5c0.1,1.1,0.1,2.2,0.2,3.2l0.1,1.6c0.3,4,0.5,8,0,12c-0.6,4.6-4.3,9.4-9.2,11.6c-2.7,1.3-5.4,1.2-7.8-0.2
		c-3.5-2-6.3-6.5-6.9-11.2c-0.7-6.2,1.6-12.5,5.9-15.9c1.9-1.5,4.7-1.7,7.5-1.8c3.5-0.2,7-0.4,9.2-3.2c1.2-1.8,1-3,0.6-3.7
		c-0.7-1.1-2.3-1.6-4.2-1.3c-0.8,0.1-1.7,0.4-2.6,0.6c-2.7,0.7-6,1.4-8.2,0.8c-3.7-0.8-6.1-4.1-8.2-7.5c-4.2-6.7-7.6-13.7-1.8-19.1
		c0.4-0.4,0.8-0.7,1.2-0.9c0.8,0.2,1.6,0.3,2.5,0.4c0.7,0,1.4,0,2.3-0.1c0.7,0,1.4-0.1,2.2-0.1c-0.3,0.4-0.9,1.1-1.5,1.7
		c-2.2,2.9-3.5,5.8-4.2,8.6c-0.4,1.9-0.9,7.5,1.2,10.4c0.8,1,1.8,1.6,3.1,1.7c0.7,0,1.2-0.6,1.2-1.3c-0.4-7.4,3-13.1,6.7-19.2
		l0.4-0.6c0.3-0.6,0.1-1.2-0.3-1.6l-0.2-0.1c-1.1-0.7-2.5-0.9-3.7-1.2c-0.1-0.1-0.1-0.2-0.3-0.3c-2.3-1.9-5.1-2.6-7.7-2.2
		c-0.9,0.2-1.8,0.5-2.6,0.8c-0.7-0.4-1.2-0.8-1.7-1.5c-1.3-1.6-2-3.8-2.1-6.1c2.1-0.9,4-3.6,5.3-5.4c0.2-0.3,0.5-0.6,0.7-0.8
		s0.5-0.7,0.8-1c2.2-2.8,5.5-7.2,4.2-10.4c-0.8-2.1-2.2-2.5-3.1-2.6c-2.9-0.2-6.3,3.2-7.4,5c-0.8,1.5-1.5,3.2-2.1,5
		c0-1.5,0.2-3.2,0.5-4.8c0.7-4.2,2.5-9.8,7.7-13.4c1.9-1.3,4.7-1.8,7.5-2.2c4.7-0.8,10.1-1.6,11.2-7.5c0.3-1.5,0.2-3,0.1-4.4
		c0-0.7-0.1-1.4-0.1-2.1c0-1.6,0-3.1-0.1-4.7c0.6-0.7,1-1.4,1.4-2.3c1.9-3.9,2.5-8.9,1.6-15.1c-0.5-3.9-1.5-9.2-4.9-10.9
		c-0.5-0.2-0.9-0.1-1.2,0.2c-0.3,0.2-0.5,0.6-0.5,1c-0.2,9.1,0.1,18.2,0.4,27.2c-1.4,0.8-3,1.2-4.9,1c-6.7-0.7-14-4.9-17.9-10.5
		c-2.1-2.9-4.2-7.5-2.9-13c1.1-4.9,5.1-9.1,10.7-11.1c2.8-1,5.9-1.3,9-1.5c0.8-0.1,1.7-0.1,2.5-0.2c0.3,0,0.6,0,0.9,0
		c1,0,2.5-0.1,3.4-0.9c1.9-1.8,1.9-5.9,1.9-9c0-0.7,0-1.3,0-1.8l0.1-2.2c0.2-5.2,0.4-10.7,2.1-15.7c2.8-8.1,9-12.6,18.9-13.8
		c6.6-0.8,13.5-0.8,20.2-0.8c2.5,0,5,0,7.5,0c13.5-0.4,27.2-0.1,40.4,0.3c9.9,0.2,20.2,0.5,30.4,0.4c9.3-0.1,19.3,1.1,22.2,11.4
		c0.4,1.4,0.7,3,0.8,4.5c-2.6,9-4.9,21.2-2,38.2c0.8,4.8,1.8,8.7,3,12c0.1,0.2,0.2,0.4,0.3,0.6c0,0.6,0.1,1.2,0.1,1.8
		c0.3,5.2,0.2,10.5,0,15.6c-0.1,1.7-0.1,3.4-0.1,5.1c-0.2,10-0.1,20.2-0.1,30.1c0,5,0.1,10,0.1,15c0,4.9,0,9.8,0,14.7
		c0,9.6-0.1,19.6,0,29.4c0,7.8,0.3,15,0.9,21.8l0.1,0.6c0.5,5,0.8,9.1,4.5,13.2c0.8,1,1.8,2.1,2.7,3c0.4,0.4,0.8,0.8,1,1.1
		c0,0.1,0,0.3,0,0.4c0.6,4.4,2.5,7.6,5.7,10c0.1,0,0.1,0.1,0.2,0.1l0.1,0.3l0.2-0.2c0.4,0.1,0.7,0,0.9-0.2c0.4-0.3,0.6-0.8,0.6-1.2
		l0,0l0.6-0.6l-0.7-0.5c-0.1-0.1-0.2-0.1-0.2-0.2c-0.8-3-2.4-5.4-4.2-7.5c-0.3-1.8-0.5-3.8-0.6-5.7c0-0.7-0.1-1.2-0.1-1.9
		c-0.2-3.1-0.8-6.1-1.4-9.1c-0.6-2.9-1.2-6-1.4-9.1c-0.8-12.6,0.4-26.8,3.6-41c0.6-2.4,1.1-4.7,1.7-7.2c2.5-10,5-20.3,4.6-30.8
		c-0.1-3.3-0.7-5.7-2.2-7.6c0.8-0.4,1.2-0.9,1.6-1.7c1.6-3.2-0.6-8.8-1.9-12.1c-0.2-0.5-0.4-0.9-0.5-1.2c-2.1-5.6-5-10.8-7.9-15.9
		c-1.2-2.2-2.5-4.4-3.7-6.6c-1-2-1.9-4-2.5-6c-0.1-3.4-0.1-6.8-0.1-10.2c0-10.9,0-22-0.5-32.8c2.5-8,7.3-16.7,13.5-18.5
		c3.9-1.2,9.3,1.2,11,4.8l0,0c-3.1,0.8-5.8,3.6-7.1,7.8c-1.4,4.7-0.9,10.9,3.7,13.3c0.3,0.2,0.7,0.2,1,0.1c0.4-0.1,0.7-0.4,0.8-0.8
		l0.4-1.1c1.7-5.1,3.4-10.3,3.7-15.9v-0.1c0.4,1.5,0.2,4.6-0.9,9.2c-0.9,4.4-1.1,8.1-0.7,11.6c0.9,7.5,4.6,14,8.2,20.4l1,1.9
		c2,3.6,4.2,7.6,5.5,11.8l0.4,1.3c1,3.3,2,6.5,3.5,9.8c3.5,6.7,8.1,12.4,13.3,18.5c0.8,0.8,1.5,1.8,2.3,2.6
		c4.9,5.9,10.5,12.5,12.4,19.8c2,7.5,3.4,15.4,4.7,23c0.5,2.7,0.9,5.5,1.5,8.1c2.2,11.3,4,20.8,6.5,30.5c1.3,4.8,2.7,9.5,4.2,14.2
		c0.5,1.6,0.8,3.1,1,4.8c0.4,2.4,0.8,4.8,1.9,7.2c2.8,6.7,8.5,11.5,14.6,16.3c8.2,6.2,15.2,11.4,22.8,16.6
		c8.9,6,18.4,12.5,28.1,18.5v0.3l0.6,0.1c0.3,0.1,0.7,0,0.9-0.6C603,268.1,603,267.3,602.4,266.9z M466,35.6c0,0.1-0.1,0.2-0.1,0.4
		c-0.1,0.2-0.2,0.7-0.4,1.1c-0.3-0.3-0.6-0.9-1.1-2.1l-0.1-0.2c-0.4-1.2-0.5-2.5-0.4-3.6c0.2-3.1,1.5-7.3,4.3-9.2
		c0.3-0.2,0.6-0.4,0.9-0.5c0.4,3.8-1.2,8.7-2.5,12.5C466.4,34.4,466.2,35.1,466,35.6L466,35.6z M442.3,44.4
		c0.1,5.9,0.1,11.8,0.1,17.6c0,1.6,0,3.2,0,4.8c-0.6-3.1-0.8-5.9-1-8.4c-0.6-6.6-0.3-12.9,0.8-18.8c0,0.1,0,0.2,0,0.4
		C442.3,41.5,442.3,42.9,442.3,44.4z M450.1,216c0.1,0.6,0.3,1.1,0.4,1.6c0.6,2.5,1,4.7,1.1,7.2c0,0.8,0.1,1.5,0.1,2.3
		c0,0.3,0,0.5,0,0.8c-0.7-0.7-1.2-1.3-1.8-2c-3-3.4-3.6-6.6-4.1-11c-1.3-12.3-1.1-24.8-1-37c0.1-10.3,0-20.9-0.1-30.9
		c-0.1-10.3-0.2-20.9-0.1-31.3c2.4,2.6,7.4,4.5,11.5,4.4c1.8,2,2.5,4,2.6,7.3c0.1,3.5-0.1,7.2-0.7,11c-0.8,6.2-2.4,12.5-3.9,18.6
		c-1.6,6.3-3.2,12.9-4.1,19.5C448.7,188.7,447.4,203,450.1,216z M444.8,84c0.8,1.6,1.8,3.1,2.6,4.7c0.8,1.4,1.7,2.8,2.5,4.3
		c2.6,4.6,5.3,9.5,6.9,14.9c0.1,0.4,0.2,0.8,0.4,1.1c0.8,2.5,2.3,6.9,0.5,8.3c-0.5-0.5-1-0.8-1.6-1.3c-2.6-2.1-5.3-3.1-7.8-3.1
		c-1,0-2.1,0.2-3,0.6c-0.2,0.1-0.4,0.2-0.5,0.3c0-4.4,0.1-8.9,0.2-13.3C444.9,94.9,444.9,89.3,444.8,84z M452.8,117.3
		c-0.7-0.2-1.3-0.4-1.6-0.6c-1.1-0.4-2.3-0.8-3.3-1.4c-0.2-0.1-0.4-0.2-0.5-0.3l0,0l0,0C448.7,115,451,116.1,452.8,117.3z
		 M301.5,81.3c-0.1,2.9-0.6,5.5-1.5,7.5c0-0.9-0.1-1.9-0.1-2.8l-0.4-10.4c0-0.8,0-1.7-0.1-2.5c0-0.8-0.1-1.7-0.1-2.5
		c0-0.3,0-0.5,0-0.8c0-0.4,0-0.8,0-1.1c0.4,0.9,0.7,2.1,0.9,2.9c0.1,0.4,0.2,0.8,0.3,1C301.3,75.8,301.6,78.6,301.5,81.3z
		 M283.8,126.2c-0.2,0.9-1.2,2.6-1.9,3.7l-0.3,0.5c-0.3,0.5-0.6,0.8-0.8,1.3c-1.5,2.5-3.3,5.5-5.6,7c-0.1,0.1-0.3,0.2-0.4,0.2
		c0.3-3.7,1.4-7.5,2.5-10c0.8-1.6,1.4-2.7,2.1-3.4c1-1,2.4-1.4,3.1-1.4c0.2,0,0.4,0,0.6,0.1C284,124.6,284,125.7,283.8,126.2z
		 M284.1,166.2c-0.3,0.9-0.4,1.9-0.6,2.8c0,0.2,0,0.6,0,1c0,0.3,0,0.8,0,1.1c-0.1-0.1-0.2-0.2-0.3-0.3c-1.5-1.9-0.9-6.6,0-9.4
		c1.1-3.3,3.3-6.1,5.5-8.5c0.2,0.1,0.3,0.1,0.5,0.2c1,0.8-0.1,2.7-1.6,4.9c-0.4,0.6-0.8,1.1-1,1.6
		C285.7,161.4,284.7,163.7,284.1,166.2z M294.1,148.5c0.3-0.2,0.8-0.6,1.8-0.5c-0.8,0.6-1.7,1.1-2.2,1c0,0,0,0-0.1,0
		C293.7,148.9,293.8,148.7,294.1,148.5z M445.3,242.4c0-0.4,0.1-0.7,0.1-0.9c0.5,1.2,0.9,3.2,1,4.3c0.3,3.6,0.1,7-0.1,9.9
		c-0.5,8.3-0.9,15.5-1.7,22.1l-0.1,1.1c-0.1,0.9-0.2,2-0.3,2.9c0-4,0.1-8.2,0.3-12.9c0.1-2.9,0.1-5.9,0.2-8.9
		C444.8,254.3,444.9,248.2,445.3,242.4z M522.9,257.6c-4.8,6.9-32,39.3-35.3,42.6c-0.5,0.5-0.8,0.9-1.3,1.4
		c5.8-7.1,11.8-14.4,17.9-21.8l9.3-11.2c0.2-0.3,0.6-0.8,1.1-1.5C519.4,261.2,521.7,258.6,522.9,257.6z"/>
	<g>
		<path class="st1" d="M289.9,275.1c12.5-6.7,28.9-1.7,36.2,10c7.7,12.3,5.9,29.9-3.9,40.7c-11,12.1-29.4,10.1-41,0.1
			c-5.9-5.2-10.9-12.3-11.8-20.2c-0.9-7.6,1.5-15.4,6.5-21.2c9.6-11.7,32.2-18,42.7-3.9c0.4,0.4,1,0,0.8-0.4
			c-9-12.9-28.5-9.7-39.3-1.3c-6.2,4.9-10.5,11.9-11.7,19.8c-1.1,8.3,1.5,16,6.7,22.6c10,12.5,28.2,18.9,42.7,9.8
			c13.5-8.4,17.6-28,11.7-42.1c-6.3-15-25.4-22.8-39.9-14.3C289.2,274.8,289.5,275.2,289.9,275.1z"/>
		<path class="st1" d="M302.5,336c-9.5,0-20-4.2-28-14.3c-5.7-7.1-8-15-6.9-23.1c1.1-7.9,5.4-15.1,11.9-20.3c4.6-3.6,10.3-6,16-7.1
			c5.1-1.3,10.7-1.1,16,0.7c8.2,2.7,15.1,9.1,18.4,16.8c7.4,17.4-0.5,35.9-12,43C313.7,334.5,308.4,336,302.5,336z M289.3,275.8
			c-5,2.1-9.6,5.3-12.8,9.2c-4.9,5.8-7.2,13.3-6.3,20.7c1,9.3,7.7,16.4,11.5,19.7c11,9.4,29.1,12,40-0.1
			c9.8-10.7,11.4-27.7,3.8-39.8c-1.8-2.8-4.1-5.2-6.7-7.2c0.4,0.5,0.8,0.9,1,1.4c0.3,0.5,0.2,1-0.2,1.4c-0.5,0.4-1.2,0.4-1.7-0.1
			c-4.7-6.3-11.2-7.7-15.9-7.8c-2.8-0.1-5.8,0.4-8.7,1.1c-1,0.4-2.2,0.8-3.2,1.4l-0.1,0.1C289.9,275.9,289.5,275.9,289.3,275.8z"/>
	</g>
	<g>
		<path class="st1" d="M215.6,245.9c-6.7-12.5-1.7-28.9,10-36.2c12.3-7.7,29.9-5.9,40.7,3.9c12.1,11,10.1,29.4,0.1,41
			c-5.2,5.9-12.3,10.9-20.2,11.8c-7.6,0.9-15.4-1.5-21.2-6.5c-11.7-9.6-18-32.2-3.9-42.7c0.4-0.4,0-1-0.4-0.8
			c-12.9,9-9.7,28.5-1.3,39.3c4.9,6.2,11.9,10.5,19.8,11.7c8.3,1.1,16-1.5,22.6-6.7c12.5-10,18.9-28.2,9.8-42.7
			c-8.4-13.5-28-17.6-42.1-11.7c-15,6.3-22.8,25.4-14.3,39.9C215.2,246.5,215.7,246.3,215.6,245.9z"/>
		<path class="st1" d="M243,268.4c-1.3,0-2.6-0.1-3.9-0.3c-7.9-1.1-15.1-5.4-20.3-11.9c-3.6-4.6-6-10.3-7.1-16
			c-1.3-5.1-1.1-10.7,0.7-16c2.7-8.2,9.1-15.1,16.8-18.4c17.4-7.4,35.9,0.5,43,12c7.3,11.5,6.2,30.7-10,43.6
			C256.3,266,249.7,268.4,243,268.4z M216.3,246.5c2.1,5,5.3,9.6,9.2,12.8c5.8,4.9,13.3,7.2,20.7,6.3c9.3-1,16.4-7.7,19.7-11.5
			c9.4-11,12-29.1-0.1-40.1c-10.7-9.7-27.7-11.4-39.8-3.8c-2.8,1.8-5.2,4.1-7.2,6.7c0.5-0.4,0.9-0.8,1.4-1s1-0.2,1.4,0.2
			c0.4,0.5,0.4,1.2-0.1,1.7c-6.3,4.7-7.7,11.2-7.8,15.9c-0.1,2.8,0.4,5.9,1.1,8.7c0.4,1,0.8,2.2,1.4,3.1l0.1,0.1
			C216.4,246,216.4,246.3,216.3,246.5z"/>
	</g>
	<g>
		<path class="st1" d="M140.9,80.3c-10.2-18.8-2.5-43.7,15.1-54.8c18.6-11.8,45.3-9.1,61.5,5.9c18.2,16.6,15.3,44.4,0.2,62.1
			c-7.8,9.1-18.6,16.4-30.6,17.8c-11.5,1.4-23.3-2.4-32.2-9.8c-17.6-14.5-27.2-48.6-5.9-64.4c0.6-0.6,0-1.6-0.6-1.1
			c-19.6,13.5-14.7,43.1-2,59.4c7.5,9.4,18,15.9,30,17.6c12.5,1.8,24.3-2.4,34.1-10.2c19-15.1,28.6-42.7,14.9-64.4
			c-12.7-20.4-42.3-26.6-63.7-17.6c-22.7,9.6-34.4,38.4-21.7,60.3C140.3,81.2,141.1,80.8,140.9,80.3z"/>
		<path class="st1" d="M182.3,113.9c-2,0-3.9-0.1-5.9-0.4c-11.9-1.8-22.6-8.1-30.5-17.9c-5.4-6.9-9.1-15.6-10.6-24.3
			c-2-7.6-1.7-15.9,1-24c4.2-12.4,13.5-22.6,25.1-27.6c20.4-8.6,51.2-3.5,64.5,17.9c6.5,10.3,8.2,22.8,4.9,35.3
			c-3,11.5-10.4,22.5-20,30.1C202.2,110.3,192.4,113.9,182.3,113.9z M139.7,81.5c1.8,4.7,4.3,9.2,7.5,13.2
			c7.5,9.5,18,15.7,29.5,17.4c11.7,1.6,23.3-1.8,33.5-10c23.7-18.8,25.3-46.8,14.7-63.5C212,17.8,182,12.8,162.2,21.2
			c-4.4,1.9-8.5,4.5-12.1,7.8c1.7-1.5,3.6-2.9,5.6-4.2c18.9-11.9,45.7-9.3,62.4,5.9c8.7,7.9,13.2,19,12.8,31.2
			c-0.4,11.3-4.9,22.9-12.5,31.9c-9.1,10.4-20.1,16.8-31,18.1c-11.6,1.4-23.6-2.3-32.6-10c-6.1-5.1-11.2-12.4-14.4-20.3
			C139.9,81.7,139.8,81.6,139.7,81.5z M141.4,81.1c3.1,7.7,8,14.8,14.1,19.7c8.9,7.5,20.4,10.9,31.6,9.6c14.3-1.6,25-11.7,30.1-17.6
			c18.3-21.4,14.3-47.8-0.1-61c-16.2-14.9-42.3-17.4-60.7-5.8c-5.2,3.3-9.5,7.7-12.6,12.9c1.3-1.4,2.8-2.6,4.4-3.8
			c0.6-0.4,1.2-0.3,1.6,0.3c0.4,0.5,0.6,1.4-0.1,2.1c-9.6,7.2-11.8,17.2-12,24.3c-0.1,4.3,0.5,8.9,1.7,13.3c0.6,1.6,1.3,3.3,2.2,4.8
			l0.1,0.1C141.7,80.4,141.6,80.8,141.4,81.1z M139.9,46.5C139.9,46.5,139.9,46.6,139.9,46.5c0.5-0.9,1-1.8,1.6-2.7
			C141,44.6,140.4,45.6,139.9,46.5z M144.2,35.6c-2.5,3.3-4.4,7.1-5.9,10.9c0.1-0.2,0.3-0.5,0.4-0.7C140,42.2,141.9,38.7,144.2,35.6
			z M148.7,36.4C148.6,36.4,148.6,36.4,148.7,36.4L148.7,36.4L148.7,36.4z"/>
	</g>
	<g>
		<path class="st1" d="M118.1,211.6c-10.9-1.3-19.2-11.8-18.7-22.6c0.5-11.4,9.6-21.8,20.8-24.3c12.5-2.7,23.5,6.7,26.3,18.3
			c1.5,5.9,1.4,12.7-1.5,18.3c-2.8,5.3-7.9,9.2-13.8,10.8c-11.4,3.1-28.6-3-29.1-16.7c0-0.4-0.7-0.5-0.7,0
			c0,12.3,13.9,19.1,24.6,18.4c6.2-0.4,12.1-3,16.3-7.5c4.5-4.8,6.2-11,5.9-17.5c-0.8-12.5-9.6-24.7-22.9-25.4
			c-12.5-0.7-23.9,10-26.3,21.8c-2.5,12.5,5.9,25.9,19.1,27.1C118.3,212.2,118.5,211.6,118.1,211.6z"/>
		<path class="st1" d="M124.6,214.5c-4.5,0-9.3-1.2-13.3-3.3c-3.4-1.5-6.3-4-8.7-7.1c-4.1-5.5-5.7-12.6-4.3-19.2
			c2.7-12.9,14.8-22.9,27.1-22.4c14.3,0.7,22.8,14,23.6,26c0.5,7.2-1.7,13.4-6,18c-4.3,4.6-10.3,7.4-16.8,7.7
			C125.7,214.5,125.2,214.5,124.6,214.5z M119,211.4c4.1,0.8,8.3,0.8,12-0.1c5.8-1.5,10.6-5.3,13.3-10.4c2.6-5,3.2-11.2,1.5-17.7
			c-2.6-10.7-13.1-20.5-25.5-17.7c-10.9,2.5-19.6,12.5-20.2,23.6c-0.1,2.1,0.1,4.2,0.7,6c0.1-0.5,0.5-0.8,1-0.8c0.6,0,1.1,0.5,1.1,1
			c0.2,5.9,3.7,9.8,6.6,12c1.6,1.1,3.4,2.2,5.4,2.9c1,0.4,2.2,0.6,3.3,0.8c0.3,0,0.5,0.1,0.7,0.3C118.9,211.3,118.9,211.3,119,211.4
			z M101.4,195.3L101.4,195.3L101.4,195.3z"/>
	</g>
	<g>
		<path class="st1" d="M44.5,295C29,293.2,17.3,278.3,17.9,263c0.8-16,13.6-30.9,29.3-34.4c17.6-3.9,33.1,9.6,37.3,25.9
			c2.2,8.4,2.1,18-2.2,25.9c-4.1,7.4-11.2,12.9-19.4,15.2c-16.2,4.4-40.6-4.2-41.2-23.6c0-0.7-1-0.8-1-0.1
			c-0.1,17.4,19.5,27,34.8,26.1c8.8-0.5,17.1-4.2,23.2-10.7c6.3-6.9,8.8-15.6,8.3-24.7c-1.1-17.7-13.6-35.1-32.4-36
			c-17.5-0.8-33.7,14.2-37.2,30.9c-3.8,17.6,8.4,36.8,27,38.3C44.9,295.7,44.9,295,44.5,295z"/>
		<path class="st1" d="M53.8,298.7c-6.4,0-13-1.7-18.7-4.6c-4.8-2.1-9-5.5-12.4-10c-5.8-7.7-8-17.7-6-26.9
			c3.8-18.1,20.9-32.1,37.9-31.4c20,0.9,32,19.6,33.1,36.7c0.6,9.9-2.4,18.7-8.5,25.3c-6,6.4-14.4,10.3-23.7,10.9
			C54.9,298.7,54.4,298.7,53.8,298.7z M45.4,294.9c5.9,1.3,12,1.3,17.3-0.2c8-2.2,15.1-7.7,19-14.8c3.8-7.1,4.5-16,2.2-25.4
			c-5-19.8-22.5-28.5-36.4-25.4c-15.3,3.4-27.9,18.3-28.7,33.8c-0.1,3.4,0.3,6.7,1.3,9.8c0-0.4,0-0.7,0-1c0-0.7,0.5-1.1,1.1-1.1
			s1.3,0.5,1.3,1.3c0.3,8.6,5.3,14.1,9.4,17.1c2.6,1.9,5.7,3.5,9,4.6c1.2,0.3,2.5,0.6,3.7,0.8C44.9,294.4,45.3,294.6,45.4,294.9z
			 M20.9,271.9L20.9,271.9L20.9,271.9z M21.4,271.7L21.4,271.7L21.4,271.7z"/>
	</g>
	<g>
		<path class="st1" d="M350.9,74.1c10.1-11.7,27.7-15,41.7-8.7c14.2,6.5,24.1,21.2,25.3,36.7c1.4,18.8-14,32.7-30.3,39.2
			c-8.8,3.4-18.9,5.3-27.7,0.8c-7-3.6-13.2-9.6-17.5-16.2c-9.3-14.2-9.2-32.7,1.7-46.1c11-13.5,31.5-18.7,47-10.2
			c14.3,7.7,24,24.3,20.9,40.8c-3,16-16.2,28.2-32.6,29.8c-17.8,1.7-34.2-9.2-40.3-25.9c-3.1-8.6-3.6-18.5,1.3-26.4
			c4.6-7.4,12.7-12.2,19.9-16.7c0.5-0.3,0-1.1-0.5-0.8c-7.2,4.1-14.3,8.6-19.3,15.2c-5.2,7-5.9,15.7-4.2,24
			c3.5,15.9,16.6,29.1,32.9,31.6c16.3,2.5,33-5.3,40.4-20.4c7.7-15.6,3.5-33.3-8.7-45.2c-13.1-12.7-32.7-14.5-48.3-4.9
			c-14.6,9.2-21.9,27.6-16.8,44.3c4.6,15.6,19.9,32.2,37.2,31.1c16.8-1,37.1-12.5,43.9-28.5c7.6-17.8-2.7-40.2-18.3-50.3
			c-15.2-9.8-36.8-8-48.3,6.5C350.3,74.1,350.6,74.4,350.9,74.1z"/>
		<path class="st1" d="M371.7,146.3c-16.5,0-31.4-15.9-36-31.4c-5-16.6,2.2-35.4,17-44.7c0.5-0.3,0.8-0.6,1.3-0.8
			c11.8-10.7,30.6-12,45.1-2.5c7.8,5.1,14.3,13.2,17.9,22.4c3.9,9.8,4.1,19.9,0.5,28.3c-7.2,16.7-28.1,27.7-44.3,28.7
			C372.7,146.3,372.2,146.3,371.7,146.3z M351.7,71.8c-13.6,9.4-20,27.3-15.3,42.9c4.7,15.6,20.1,31.9,36.8,30.9
			c15.9-0.9,36.6-11.8,43.6-28.3c6.1-14.3,0.9-37.5-18.1-49.8c-13.1-8.6-29.9-8-41.5,0.4c0.6-0.3,1.1-0.5,1.7-0.8
			c10-5.9,22.9-7,34-2c14.1,6.4,24.3,21.3,25.5,37c1.5,19.8-15.5,33.7-30.6,39.5c-11.4,4.3-20.6,4.6-28,0.8
			c-6.8-3.5-13.2-9.4-17.6-16.3c-5-7.5-7.2-16.1-6.8-24.4c0-4.2,0.8-8.7,3-13c1.4-3.2,3.2-6.3,5.5-9.1c2-2.5,4.2-4.6,6.8-6.4
			C350.9,72.6,351.3,72.2,351.7,71.8z M337.1,112.7c1,4.4,2.9,8.9,5.7,12.9c4.3,6.8,10.7,12.6,17.4,16c7.3,3.8,16.2,3.5,27.5-0.8
			c14.8-5.8,31.5-19.3,30.1-38.8c-1.1-15.4-11.2-30-25.1-36.3c-9.2-4.2-19.8-4.1-28.9-0.3c13.3-3.6,27.7-0.1,37.8,9.7
			c12.8,12.6,16.3,30.5,8.8,45.7c-7.3,14.8-23.7,23.1-40.8,20.6C354.2,139,341.6,127.6,337.1,112.7z M336,101.6
			c0,2.8,0.4,5.5,0.8,7.7c3.6,16.2,16.7,28.8,32.6,31.3c16.8,2.5,32.8-5.6,40-20.1c7.5-14.8,4.1-32.5-8.6-44.8
			c-11.1-10.8-27.6-13.7-41.8-7.9c-0.8,0.5-1.4,0.8-2.1,1.3c10.9-5.2,23.9-5.6,34.3,0.1c15.4,8.3,24.1,25.2,21.1,41.2
			c-3,16.1-16.5,28.5-32.8,30.1c-17.7,1.7-34.4-9.1-40.7-26.1c-3.6-9.9-3.1-19.6,1.3-26.7c4.5-7.1,11.9-11.7,19.1-16.2l1-0.7
			c0.1,0,0-0.1,0-0.2h-0.1c-6.6,3.8-14.2,8.3-19.2,15.1c-0.8,1-1.5,2.2-2.1,3.2C337.2,92.9,336.2,97.3,336,101.6z M360.3,69.8
			c0.1,0,0.2,0,0.4,0.1c0.3,0.2,0.5,0.5,0.5,0.8c0,0.3-0.2,0.6-0.4,0.7l-0.9,0.7c-7.1,4.4-14.4,9-18.9,15.9
			c-4.3,6.9-4.8,16.4-1.2,26.1c6.1,16.8,22.6,27.3,39.9,25.7c16-1.5,29.3-13.7,32.2-29.5C414.6,94.6,406,78,391,69.9
			c-11.3-6.1-25.9-5-37.1,1.9c-0.9,0.8-1.8,1.7-2.6,2.6l0,0c-0.3,0.3-0.6,0.3-0.8,0c-0.1-0.1-0.1-0.1-0.2-0.2
			c-2.2,1.7-4.1,3.6-5.9,5.7c-0.9,1.1-1.7,2.3-2.5,3.5c5-5.9,11.9-10,17.9-13.5C359.9,69.9,360.1,69.8,360.3,69.8z M354.4,70.1
			c-0.5,0.4-0.9,0.8-1.3,1.3c0.1-0.1,0.2-0.1,0.3-0.2c0.6-0.5,1.1-1,1.8-1.5C354.9,69.8,354.6,69.9,354.4,70.1z"/>
	</g>
	<g>
		<g>
			<path class="st1" d="M373.2,121L373.2,121c-0.8,0-1.4-0.3-2-0.8l-11-11c-1-1-1-2.8,0-3.9l3.9-3.9c1-1,2.8-1,3.9,0l5.2,5.2l11-11
				c1-1,2.8-1,3.9,0l3.9,3.9c1,1,1,2.8,0,3.9l-16.8,16.8C374.6,120.9,373.9,121,373.2,121z M366.1,102.3c-0.3,0-0.7,0.1-0.9,0.4
				l-3.9,3.9c-0.5,0.5-0.5,1.1,0,1.7l11,11c0.3,0.3,0.5,0.4,0.9,0.4l0,0c0.3,0,0.7-0.1,0.9-0.4l16.8-16.8c0.5-0.5,0.5-1.3,0-1.7
				l-3.9-3.9c-0.5-0.5-1.3-0.5-1.7,0l-11,11c-0.7,0.7-1.7,0.7-2.2,0l-5.2-5.2C366.7,102.5,366.3,102.3,366.1,102.3z"/>
			<path class="st1" d="M373.2,121.8c-0.9,0-1.8-0.4-2.5-0.9l-11-11c-0.7-0.7-0.9-1.5-0.9-2.5c0-0.9,0.4-1.8,0.9-2.5l3.9-3.9
				c1.2-1.2,3.7-1.2,4.9,0l4.6,4.6l10.5-10.5c1.2-1.2,3.7-1.2,4.9,0l3.9,3.9c1.3,1.3,1.3,3.6,0,4.9l-16.8,16.9
				C375.1,121.4,374.1,121.8,373.2,121.8z M360.5,108.5c0.1,0.1,0.2,0.2,0.3,0.3l10.9,11c0.1,0.1,0.3,0.2,0.4,0.3
				c-0.1-0.1-0.3-0.2-0.4-0.3l-11-11C360.6,108.7,360.5,108.6,360.5,108.5z M391.8,102.5c-0.1,0.1-0.2,0.3-0.3,0.4l-16.9,16.9
				c-0.1,0.1-0.3,0.2-0.4,0.3c0.2-0.1,0.3-0.2,0.4-0.3l16.8-16.8C391.6,102.8,391.7,102.7,391.8,102.5z M366.1,103
				c-0.1,0-0.3,0.1-0.4,0.2l-3.9,3.9c-0.1,0.1-0.2,0.2-0.2,0.3c0,0.1,0.1,0.3,0.2,0.3l11,11c0.2,0.2,0.2,0.2,0.4,0.2
				c0.1,0,0.3-0.1,0.4-0.2l16.8-16.9c0.1-0.1,0.2-0.3,0.2-0.4c0-0.1-0.1-0.2-0.1-0.2l-4-4c-0.1-0.1-0.3-0.2-0.4-0.2
				s-0.2,0.1-0.2,0.1l-11,11.1c-0.5,0.5-1.1,0.8-1.8,0.7c-0.6,0-1.1-0.3-1.5-0.8l-5.1-5.1C366.3,103.1,366.1,103,366.1,103z
				 M386.1,95.7c-0.6,0-1,0.2-1.4,0.6l-11.4,11.4c0.2,0,0.4-0.1,0.6-0.3l11-11C385.1,96,385.6,95.8,386.1,95.7
				c0.5,0.1,1,0.3,1.4,0.7l3.9,3.9c0.2,0.1,0.4,0.4,0.5,0.6c-0.1-0.3-0.3-0.5-0.5-0.8l-3.9-3.9C387.2,95.8,386.7,95.7,386.1,95.7z
				 M366.1,101.6c0.5,0,1,0.3,1.4,0.6l5.2,5.2c0.2,0.2,0.3,0.3,0.4,0.3l-5.6-5.6c-0.8-0.8-2.2-0.8-2.8,0l-3.9,3.9
				c-0.3,0.3-0.5,0.6-0.6,0.9c0.1-0.3,0.3-0.6,0.6-0.8l3.9-3.9C365,101.8,365.5,101.6,366.1,101.6z"/>
		</g>
	</g>
	<g>
		<g>
			<path class="st1" d="M253.7,250.1c-0.3,0-0.5,0-0.8-0.1l-9.3-4.9l-9.2,4.9c-0.5,0.3-1.1,0.3-1.7-0.1c-0.5-0.4-0.8-0.9-0.7-1.5
				l1.8-10.4l-7.5-7.3c-0.4-0.4-0.7-1-0.4-1.7c0.1-0.7,0.7-1,1.3-1l10.4-1.5l4.6-9.4c0.3-0.5,0.8-0.9,1.4-0.9l0,0
				c0.7,0,1.1,0.4,1.4,0.9l0,0l4.6,9.4l10.4,1.4c0.7,0.1,1.1,0.5,1.3,1c0.1,0.7,0,1.1-0.4,1.7l-7.5,7.4l1.8,10.4
				c0.1,0.7-0.1,1.1-0.7,1.5C254.4,249.9,254,250.1,253.7,250.1z M243.6,243.3c0.3,0,0.5,0,0.8,0.1l9.2,4.8l-1.8-10.2
				c-0.1-0.5,0.1-1,0.5-1.4l7.4-7.3l-10.2-1.5c-0.5-0.1-1-0.4-1.1-0.9l-4.6-9.3l-4.5,9.3c-0.3,0.5-0.7,0.8-1.1,0.9l-10.2,1.5
				l7.4,7.3c0.4,0.4,0.5,0.9,0.5,1.4l-1.8,10.2l9.2-4.8C243.2,243.5,243.4,243.3,243.6,243.3z"/>
			<path class="st1" d="M233.7,250.5c-0.4,0-0.8-0.1-1.1-0.4c-0.7-0.5-0.9-1.1-0.8-1.9l1.8-10.2l-7.4-7.1c-0.5-0.5-0.8-1.2-0.5-2.1
				c0.2-0.8,0.8-1.2,1.6-1.2l10.1-1.5l4.6-9.2c0.4-0.7,1-1.1,1.8-1.1c0.8,0,1.4,0.5,1.8,1.1l4.6,9.2l10.2,1.4
				c0.8,0.2,1.4,0.7,1.6,1.3c0.2,0.8,0,1.4-0.5,2l-7.5,7.3l1.8,10.2c0.2,0.8-0.1,1.4-0.8,1.9l-0.1,0.1c-0.5,0.2-0.8,0.3-1.1,0.3
				s-0.6,0-0.9-0.2l-9.2-4.8l-9.1,4.8C234.3,250.4,234,250.5,233.7,250.5z M243.7,216.4c-0.5,0-0.8,0.3-1.1,0.7l-4.7,9.6l-10.6,1.6
				c-0.6,0-0.9,0.3-1,0.8c-0.2,0.6,0,1,0.3,1.3l7.6,7.4l-1.9,10.6c-0.1,0.5,0.1,0.8,0.5,1.2c0.4,0.3,0.8,0.3,1.3,0.1l9.3-5l0.2,0.1
				l9.3,4.9c0.2,0.1,0.4,0.1,0.6,0.1c0.2,0,0.6-0.1,0.8-0.2c0.4-0.3,0.6-0.7,0.5-1.1l-1.9-10.6l7.6-7.5c0.3-0.4,0.4-0.8,0.3-1.3
				c-0.1-0.4-0.5-0.7-1-0.8l-10.6-1.4l-4.7-9.6C244.7,216.6,244.2,216.4,243.7,216.4z M254.1,249l-9.8-5.1c-0.3-0.1-0.6-0.1-0.9,0
				c-0.1,0-0.2,0-0.2,0.1l-9.8,5.1l2-10.9c0-0.5-0.2-0.8-0.4-1.1l-7.9-7.7l10.9-1.7c0.4-0.1,0.7-0.3,0.8-0.8l4.8-10l5,10
				c0.1,0.4,0.4,0.6,0.9,0.8l10.9,1.7l-7.9,7.7c-0.2,0.2-0.6,0.6-0.4,1L254.1,249z M228.4,229.7l6.9,6.7c0.4,0.4,0.7,0.9,0.7,1.7
				l-1.7,9.5l8.7-4.5h0.1c0.3-0.1,0.8-0.2,1.5,0.1l8.6,4.4l-1.7-9.5c-0.2-0.6,0.1-1.2,0.7-1.7l6.9-6.8l-9.5-1.4
				c-1-0.3-1.3-0.8-1.5-1.1l-4.3-8.6l-4.2,8.7c-0.3,0.6-0.8,0.9-1.4,1.1L228.4,229.7z"/>
		</g>
	</g>
	<g>
		<path class="st1" d="M206.6,67.9l-5.1-2.5c0-0.8,0-1.7,0-2.5l5.1-2.5c1-0.5,1.4-1.7,1-2.8l-2.5-5.9c-0.4-1-1.7-1.5-2.7-1.3
			l-5.3,1.8c-0.5-0.7-1.1-1.3-1.8-1.8l1.8-5.5c0.4-1-0.1-2.4-1.3-2.7l-5.8-2.5c-1-0.4-2.4,0-2.8,1l-2.4,5.2c-0.9,0-1.7,0-2.5,0
			l-2.5-5.1c-0.5-1-1.7-1.4-2.8-1l-5.9,2.5c-1,0.4-1.5,1.7-1.3,2.7l1.8,5.3c-0.7,0.5-1.3,1.1-1.8,1.8l-5.5-1.8
			c-1-0.4-2.4,0.1-2.7,1.3l-2.5,5.9c-0.4,1,0,2.4,1,2.8l5.1,2.5c0,0.8,0,1.7,0,2.5l-5.1,2.5c-1,0.5-1.4,1.7-1,2.8l2.5,5.9
			c0.4,1,1.7,1.5,2.7,1.3l5.3-1.8c0.5,0.7,1.1,1.3,1.8,1.8l-1.8,5.5c-0.4,1,0.1,2.4,1.3,2.7l5.9,2.5c1,0.4,2.4,0,2.8-1l2.5-5.1
			c0.9,0,1.7,0,2.5,0l2.5,5.1c0.4,0.8,1.1,1.1,2,1.1c0.3,0,0.5,0,0.8-0.1l5.9-2.5c1-0.4,1.5-1.7,1.3-2.7l-1.8-5.3
			c0.7-0.5,1.3-1.1,1.8-1.8l5.5,1.8c1,0.4,2.4-0.1,2.7-1.3l2.4-5.8C208.2,69.6,207.6,68.5,206.6,67.9z M203.3,75.6l-5.5-1.8
			c-0.8-0.3-1.8,0-2.4,0.7c-0.5,0.5-1,1-1.5,1.5c-0.7,0.7-0.9,1.5-0.7,2.4l1.8,5.3l-5.7,2.5l-2.5-5.1c-0.4-0.8-1.1-1.1-2-1.1h-0.1
			c-0.8,0-1.5,0-2.2,0c-0.9-0.1-1.7,0.4-2.1,1.1l-2.5,5.1l-5.7-2.4l1.8-5.5c0.3-0.8,0-1.8-0.7-2.4c-0.5-0.5-1-1-1.5-1.5
			c-0.7-0.7-1.5-0.9-2.4-0.7l-5.3,1.8l-2.5-5.7l5.1-2.5c0.8-0.4,1.3-1.3,1.1-2.1c0-0.8,0-1.5,0-2.2c0-0.9-0.4-1.7-1.1-2.1l-5.1-2.5
			l2.4-5.7l5.5,1.8c0.8,0.3,1.8,0,2.4-0.7c0.5-0.5,1-1,1.5-1.5c0.7-0.7,0.9-1.5,0.7-2.4l-1.8-5.3l5.7-2.5l2.5,5.1
			c0.4,0.8,1.1,1.3,2.2,1.1c0.8,0,1.5,0,2.2,0c0.9,0,1.7-0.4,2.1-1.1l2.5-5.1l5.7,2.4l-1.8,5.5c-0.3,0.8,0,1.8,0.7,2.4
			c0.5,0.5,1,1,1.5,1.5c0.7,0.7,1.5,0.9,2.4,0.7l5.3-1.8l2.4,5.7l-5.1,2.5c-0.8,0.4-1.3,1.3-1.1,2.2c0,0.8,0,1.5,0,2.2
			c0,0.9,0.4,1.7,1.1,2.1l5.1,2.5L203.3,75.6z"/>
		<path class="st1" d="M180.1,55.9c-2.2,0.9-3.9,2.5-4.8,4.8c-0.9,2.2-0.9,4.5,0,6.7s2.5,3.9,4.8,4.8c1,0.4,2.2,0.7,3.4,0.7
			c1.1,0,2.4-0.3,3.4-0.7c4.5-1.8,6.6-7,4.8-11.5C189.9,56.1,184.7,54.1,180.1,55.9z M186.1,70.2c-1.7,0.7-3.4,0.7-5.1,0
			s-2.8-2-3.6-3.6c-0.7-1.7-0.7-3.4,0-5.1c0.7-1.7,2-2.8,3.6-3.6c0.8-0.4,1.7-0.5,2.5-0.5c2.5,0,5.1,1.5,6.1,4.1
			C191.1,65,189.4,68.9,186.1,70.2z"/>
	</g>
	<g>
		<g>
			<path class="st1" d="M134.2,194.4l-4.6-4.6c0.7-1.3,1.1-2.7,1.1-4.2c0-4.9-4.1-8.8-8.8-8.8c-4.9,0-8.8,4.1-8.8,8.8
				c0,4.9,4.1,8.8,8.8,8.8c1.4,0,2.7-0.4,3.9-0.9l4.8,4.8c0.5,0.5,1.1,0.8,2,0.8c0.7,0,1.4-0.3,2-0.8c0.5-0.5,0.8-1.1,0.8-2
				C134.9,195.6,134.7,194.9,134.2,194.4z M114,185.5c0-4.2,3.5-7.7,7.7-7.7s7.7,3.5,7.7,7.7s-3.5,7.7-7.7,7.7S114,189.7,114,185.5z
				 M133.4,197.4c-0.7,0.7-1.7,0.7-2.4,0l-4.5-4.5c0.9-0.7,1.7-1.4,2.4-2.2l4.5,4.5c0.3,0.3,0.5,0.8,0.5,1.1
				C133.9,196.7,133.8,197.1,133.4,197.4z"/>
			<path class="st1" d="M132.5,199.3c-0.8,0-1.6-0.3-2.2-0.8l-4.6-4.6c-1.3,0.6-2.5,0.8-3.8,0.8c-5.1,0-9.2-4.2-9.2-9.2
				c0-5.1,4.2-9.2,9.2-9.2s9.2,4.2,9.2,9.2c0,1.3-0.4,2.6-1.1,4.2l4.4,4.4c0.6,0.6,0.8,1.2,1.1,2v0.1c0,0.8-0.3,1.6-0.8,2.2
				C134.2,199,133.3,199.3,132.5,199.3z M125.8,192.9l5,5c0.5,0.5,1,0.7,1.7,0.7c0.7,0,1.3-0.3,1.7-0.7c0.5-0.5,0.7-0.9,0.7-1.6
				c-0.3-0.6-0.5-1.1-0.9-1.6l-4.8-4.8l0.1-0.2c0.8-1.5,1.1-2.8,1.1-4.2c0-4.6-3.8-8.4-8.5-8.4c-4.7,0-8.5,3.8-8.5,8.4
				c0,4.6,3.8,8.4,8.5,8.4c1.2,0,2.5-0.3,3.8-0.8L125.8,192.9z M132.2,198.2c-0.5,0-1-0.2-1.4-0.6l-4.8-4.8l0.4-0.3
				c0.8-0.6,1.5-1.3,2.3-2.2l0.3-0.3l4.8,4.8c0.3,0.3,0.7,0.9,0.7,1.4c0,0.6-0.2,1-0.7,1.3C133.2,198,132.8,198.2,132.2,198.2z
				 M127.1,192.9l4.2,4.2c0.5,0.5,1.3,0.5,1.8,0h0.1c0.3-0.2,0.4-0.4,0.4-0.8c0-0.3-0.2-0.8-0.4-0.9l-4.2-4.2
				C128.3,191.8,127.7,192.4,127.1,192.9z M121.7,193.6c-4.5,0-8.1-3.7-8.1-8.1s3.7-8.1,8.1-8.1s8.1,3.7,8.1,8.1
				S126.3,193.6,121.7,193.6z M121.7,178c-4.1,0-7.5,3.3-7.5,7.5s3.3,7.5,7.5,7.5c4.1,0,7.5-3.3,7.5-7.5S125.8,178,121.7,178z"/>
		</g>
		<g>
			<path class="st1" d="M124.9,182.2c-0.9-0.9-2-1.3-3.2-1.3c-0.9,0-1.8,0.3-2.5,0.9c-0.3,0.1-0.3,0.5-0.1,0.8
				c0.1,0.3,0.5,0.3,0.8,0.1c0.7-0.4,1.3-0.7,2.1-0.7c0.9,0,1.8,0.4,2.5,1c0.3,0.3,0.5,0.7,0.7,0.9c0.1,0.1,0.3,0.3,0.5,0.3
				c0.1,0,0.1,0,0.3,0c0.3-0.1,0.4-0.4,0.3-0.7C125.6,183,125.4,182.7,124.9,182.2z"/>
			<path class="st1" d="M125.9,184.6h-0.4c-0.4,0-0.7-0.2-0.8-0.4l-0.1-0.1c-0.1-0.2-0.4-0.6-0.6-0.8c-0.6-0.6-1.4-0.9-2.2-0.9
				c-0.7,0-1.2,0.2-1.9,0.6c-0.3,0.2-0.6,0.2-0.8,0.1c-0.2-0.1-0.4-0.2-0.5-0.4c-0.1-0.3-0.2-0.6-0.1-0.8c0.1-0.2,0.2-0.4,0.4-0.5
				c0.8-0.6,1.7-0.9,2.7-0.9c1.4,0,2.5,0.5,3.5,1.4c0.4,0.4,0.7,0.8,1.1,1.5c0.1,0.3,0.1,0.5,0,0.7
				C126.3,184.4,126.2,184.5,125.9,184.6L125.9,184.6z M125.3,183.8c0.1,0.1,0.1,0.1,0.2,0.1h0.2c0,0,0.1-0.1,0-0.1
				c-0.4-0.6-0.6-0.9-0.9-1.3c-0.8-0.8-1.7-1.2-3-1.2c-0.9,0-1.7,0.3-2.4,0.8c-0.1,0.1-0.1,0.2,0,0.4c0,0,0.2,0,0.3,0
				c0.8-0.5,1.5-0.7,2.3-0.7c1,0,2,0.4,2.7,1.1C124.8,183.1,125.1,183.5,125.3,183.8z"/>
		</g>
		<g>
			<path class="st1" d="M121.7,178.5c-3.9,0-7,3.1-7,7s3.1,7,7,7c3.9,0,7-3.1,7-7S125.6,178.5,121.7,178.5z M121.7,191.3
				c-3.2,0-5.9-2.5-5.9-5.9c0-3.2,2.5-5.9,5.9-5.9c3.2,0,5.9,2.5,5.9,5.9C127.7,188.8,124.9,191.3,121.7,191.3z"/>
			<path class="st1" d="M121.7,192.9c-4.1,0-7.4-3.3-7.4-7.4s3.3-7.4,7.4-7.4c4.1,0,7.4,3.3,7.4,7.4S125.8,192.9,121.7,192.9z
				 M121.7,178.8c-3.7,0-6.6,3-6.6,6.6c0,3.7,3,6.6,6.6,6.6s6.6-3,6.6-6.6C128.3,181.8,125.4,178.8,121.7,178.8z M121.7,191.6
				c-3.5,0-6.3-2.8-6.3-6.3c0-3.5,2.8-6.3,6.3-6.3s6.3,2.8,6.3,6.3C128,188.8,125.2,191.6,121.7,191.6z M121.7,179.7
				c-3.1,0-5.6,2.5-5.6,5.6c0,3,2.5,5.6,5.6,5.6c3,0,5.6-2.5,5.6-5.6C127.3,182.3,124.8,179.7,121.7,179.7z"/>
		</g>
	</g>
	<g>
		<g>
			<path class="st1" d="M60.1,251.9L46,253.2c-0.4,0-0.7,0.4-0.7,0.8s0.4,0.7,0.8,0.7l14.2-1.3c0.4,0,0.7-0.4,0.7-0.8
				C60.9,252.2,60.5,251.9,60.1,251.9z"/>
			<path class="st1" d="M46.1,255c-0.7,0-1.1-0.5-1.1-1c0-0.7,0.5-1.1,1-1.1l14.2-1.3c0.7,0,1.1,0.5,1.1,1c0,0.7-0.5,1.1-1,1.1
				L46.1,255L46.1,255z M60.1,252.3L46,253.6c-0.2,0-0.3,0.2-0.3,0.4c0,0.2,0.2,0.3,0.4,0.3l14.1-1.3c0.2,0,0.3-0.2,0.3-0.4
				C60.5,252.4,60.3,252.3,60.1,252.3z"/>
		</g>
		<g>
			<path class="st1" d="M61.2,244.3l-14.5,1.3c-0.3,0-0.5,0.1-0.7,0.4l-4.2,5.2c-0.1,0.3-0.3,0.5-0.3,0.8l2.1,23.3
				c0.1,1.4,1.3,2.4,2.7,2.2l17.7-1.5c1.4-0.1,2.4-1.3,2.2-2.7l-2.4-26.5C63.7,245.2,62.6,244.2,61.2,244.3z M46,248.1l0.2,2.1
				c0,0.1-0.1,0.4-0.3,0.4l-2.1,0.1L46,248.1z M64.7,273.3c0,0.5-0.4,1-0.9,1L46,275.9c-0.5,0-1-0.4-1-0.9l-2.1-22.8l3.1-0.3
				c1-0.1,1.7-1,1.7-2l-0.3-3.1l13.9-1.3c0.5,0,1,0.4,1,0.9L64.7,273.3z"/>
			<path class="st1" d="M46,277.9c-1.5,0-2.6-1-2.8-2.5L41.1,252c0-0.4,0.2-0.7,0.3-0.9l4.3-5.3c0.1-0.3,0.5-0.6,0.9-0.6l14.4-1.3
				c1.5-0.2,2.8,0.9,3.1,2.6l2.4,26.6c0.1,0.8-0.1,1.5-0.6,2.1c-0.5,0.6-1.1,0.9-2,1l-17.7,1.5C46.2,277.9,46.1,277.9,46,277.9z
				 M61.4,244.7c-0.1,0-0.1,0-0.2,0l0,0L46.7,246c-0.1,0-0.3,0-0.4,0.2l-4.3,5.3c-0.1,0.2-0.2,0.4-0.2,0.6l2.1,23.3
				c0.1,1.2,1,2,2.4,1.9l17.7-1.5c0.6-0.1,1.1-0.3,1.4-0.8c0.4-0.4,0.5-0.9,0.5-1.6l-2.4-26.5C63.4,245.5,62.5,244.7,61.4,244.7z
				 M46.1,276.3c-0.7,0-1.4-0.5-1.4-1.2l-2.1-23.1l3.5-0.3c0.8-0.1,1.3-0.8,1.3-1.6l-0.3-3.4l14.2-1.3l0,0c0.8,0,1.4,0.5,1.4,1.2
				l2.4,26.8c0,0.7-0.5,1.4-1.2,1.4L46.1,276.3L46.1,276.3z M43.3,252.5l2.1,22.5c0,0.4,0.4,0.6,0.7,0.6l17.7-1.5
				c0.4,0,0.6-0.4,0.6-0.7L62,246.5c0-0.4-0.4-0.6-0.7-0.6l-13.5,1.2l0.2,2.7c0,1.2-0.8,2.2-2,2.4L43.3,252.5z M43,251.2l3.3-4
				l0.2,3c0,0.3-0.2,0.8-0.7,0.8L43,251.2z M45.8,249.1l-1,1.2l1.1-0.1c0,0,0,0,0-0.1L45.8,249.1z M46,250.3
				C46,250.3,45.9,250.3,46,250.3L46,250.3L46,250.3z"/>
		</g>
		<g>
			<path class="st1" d="M60.3,255.7L46.1,257c-0.4,0-0.7,0.4-0.7,0.8c0,0.4,0.4,0.7,0.8,0.7l14.2-1.3c0.4,0,0.7-0.4,0.7-0.8
				C61.1,256,60.7,255.7,60.3,255.7z"/>
			<path class="st1" d="M46.3,258.8c-0.7,0-1.1-0.5-1.1-1c0-0.7,0.5-1.1,1-1.1l14.2-1.3c0.7,0,1.1,0.5,1.1,1c0,0.7-0.5,1.1-1,1.1
				L46.3,258.8L46.3,258.8z M60.3,256.1l-14.1,1.2c-0.2,0-0.3,0.2-0.3,0.4c0,0.2,0.2,0.3,0.4,0.3l14.1-1.3c0.2,0,0.3-0.2,0.3-0.4
				C60.8,256.2,60.5,256.1,60.3,256.1z"/>
		</g>
		<g>
			<path class="st1" d="M58,267.2l-10.8,0.9c-0.4,0-0.7,0.4-0.7,0.8s0.4,0.7,0.8,0.7l10.8-0.9c0.4,0,0.7-0.4,0.7-0.8
				S58.4,267.2,58,267.2z"/>
			<path class="st1" d="M47.4,269.9c-0.7,0-1.1-0.5-1.1-1c0-0.7,0.5-1.1,1-1.1l10.8-0.9c0.7,0,1.1,0.5,1.1,1s-0.4,1.1-1,1.1
				L47.4,269.9L47.4,269.9z M58,267.6l-10.8,0.9c-0.2,0-0.3,0.2-0.3,0.4s0.2,0.3,0.4,0.3l10.8-0.9c0.2,0,0.3-0.2,0.3-0.4
				C58.4,267.7,58.2,267.6,58,267.6z"/>
		</g>
		<g>
			<path class="st1" d="M61,263.2l-14.2,1.3c-0.4,0-0.7,0.4-0.7,0.8c0,0.4,0.4,0.7,0.8,0.7l14.2-1.3c0.4,0,0.7-0.4,0.7-0.8
				C61.7,263.4,61.5,263.2,61,263.2z"/>
			<path class="st1" d="M47,266.3c-0.7,0-1.1-0.5-1.1-1c0-0.7,0.5-1.1,1-1.1l14.2-1.3c0.7,0,1.1,0.4,1.1,1c0,0.7-0.5,1.1-1,1.1
				L47,266.3L47,266.3z M61,263.5l-14.1,1.3c-0.2,0-0.3,0.2-0.3,0.4c0,0.2,0.2,0.3,0.4,0.3l14.1-1.3c0.2,0,0.3-0.2,0.3-0.4
				C61.4,263.7,61.4,263.5,61,263.5z"/>
		</g>
		<g>
			<path class="st1" d="M60.7,259.5l-14.2,1.3c-0.4,0-0.7,0.4-0.7,0.8s0.4,0.7,0.8,0.7l14.2-1.3c0.4,0,0.7-0.4,0.7-0.8
				C61.5,259.7,61.1,259.5,60.7,259.5z"/>
			<path class="st1" d="M46.7,262.5c-0.7,0-1.1-0.5-1.1-1c0-0.7,0.5-1.1,1-1.1l14.2-1.3c0.7,0,1.1,0.5,1.1,1c0,0.6-0.4,1.1-1,1.1
				L46.7,262.5L46.7,262.5z M60.8,259.8l-14.1,1.3c-0.2,0-0.3,0.2-0.3,0.4c0,0.2,0.2,0.3,0.4,0.3l14.1-1.3c0.2,0,0.3-0.2,0.3-0.4
				S61,259.8,60.8,259.8z"/>
		</g>
	</g>
	<g>
		<g>
			<path class="st1" d="M300.9,294c-2.4,0-4.4,1.1-5.7,3.5c-0.1,0.3-0.1,0.5-0.1,0.7c0,0.3,0.3,0.4,0.4,0.5l2.5,1.4
				c0.4,0.3,1,0.1,1.3-0.3c0.5-0.8,1-1.1,1.7-1.1c0.7,0,1.3,0.7,1.3,1.3c0,0.4-0.1,0.5-1.3,1.1c-0.9,0.5-2.4,1.1-2.4,3v2
				c0,0.7,0.5,1.1,1.1,1.1h2.4c0.7,0,1.1-0.5,1.1-1.1s0-1,0.1-1.1c0.1-0.3,0.5-0.4,0.8-0.7c1-0.8,2.7-2,2.7-4.4
				C306.9,296.7,304.3,294,300.9,294z M303.4,303.2c-0.5,0.4-0.9,0.7-1.1,1c-0.1,0.1-0.3,0.5-0.3,1.7h-2v-1.8c0-0.8,0.7-1.3,1.5-1.7
				c1.1-0.7,2.1-1.1,2.1-2.5c0-1.4-1.1-2.7-2.5-2.7c-0.8,0-1.8,0.3-2.5,1.4l-1.7-0.9c1-1.5,2.5-2.5,4.2-2.5c2.5,0,4.5,2.1,4.5,4.6
				C305.5,301.6,304.4,302.6,303.4,303.2z"/>
			<path class="st1" d="M302,307.6h-2.4c-0.8,0-1.5-0.7-1.5-1.5v-2c0-1.9,1.4-2.6,2.3-3.2l0.2-0.1c1.1-0.7,1.1-0.7,1.1-0.8
				c0-0.5-0.5-0.9-0.9-0.9c-0.5,0-0.9,0.3-1.4,1c-0.4,0.6-1.2,0.8-1.8,0.4l-2.5-1.5c0,0-0.1,0-0.1-0.1c-0.2-0.1-0.4-0.4-0.4-0.8
				c0-0.2,0-0.5,0.2-0.8c1.3-2.4,3.5-3.7,6-3.7c3.5,0,6.3,2.7,6.3,6.2c0,2.5-1.7,3.9-2.7,4.6l-0.1,0.1c-0.1,0.1-0.3,0.2-0.4,0.3
				c-0.1,0.1-0.3,0.2-0.3,0.2l-0.1,0.1c0,0.1,0,0.5,0,0.9C303.6,306.9,302.9,307.6,302,307.6z M300.9,298.3c0.8,0,1.7,0.8,1.7,1.7
				c0,0.7-0.4,0.8-1.5,1.5l-0.2,0.1c-0.8,0.5-1.9,1-1.9,2.5v2c0,0.5,0.4,0.8,0.8,0.8h2.4c0.5,0,0.8-0.4,0.8-0.8c0-0.8,0-1.1,0.2-1.4
				c0.1-0.2,0.4-0.4,0.5-0.5s0.2-0.2,0.3-0.2l0.2-0.1c1-0.8,2.5-1.8,2.5-4.1c0-3-2.5-5.5-5.6-5.5c-2.3,0-4.2,1.1-5.4,3.3
				c-0.1,0.2-0.1,0.4-0.1,0.5c0,0,0.1,0.1,0.2,0.2l0.1,0.1l2.5,1.4c0.1,0.1,0.3,0.1,0.5,0.1c0.2,0,0.3-0.1,0.4-0.2
				C299.3,299.1,299.9,298.3,300.9,298.3z M302.3,306.3h-2.6v-2.2c0-0.8,0.6-1.5,1.8-2c1.1-0.7,1.9-1,1.9-2.2c0-1.2-1-2.4-2.3-2.4
				c-0.9,0-1.7,0.4-2.3,1.2l-0.2,0.3l-2.4-1.2l0.2-0.4c1.1-1.7,2.7-2.6,4.6-2.6c2.7,0,4.9,2.3,4.9,5c0,1.8-1.2,2.8-2.4,3.6l-0.2,0.1
				c-0.4,0.3-0.7,0.5-0.8,0.8c-0.1,0.1-0.2,0.3-0.2,1.5L302.3,306.3L302.3,306.3z M300.3,305.6h1.2c0-1.1,0.2-1.4,0.4-1.6
				c0.2-0.4,0.6-0.6,1-0.9l0.2-0.2c1-0.7,2.1-1.5,2.1-2.9c0-2.4-1.9-4.3-4.2-4.3c-1.4,0-2.7,0.8-3.8,2l1,0.6c0.8-1,1.9-1.3,2.7-1.3
				c1.6,0,2.9,1.4,2.9,3.1c0,1.5-1.1,2.2-2.3,2.7c-1.2,0.6-1.3,1-1.3,1.3L300.3,305.6L300.3,305.6z"/>
		</g>
		<g>
			<path class="st1" d="M300.9,307.8c-1.5,0-2.7,1.1-2.7,2.7c0,1.6,1.1,2.7,2.7,2.7c1.5,0,2.7-1.1,2.7-2.7
				C303.6,309.1,302.4,307.8,300.9,307.8z M300.9,311.9c-0.8,0-1.4-0.7-1.4-1.4s0.7-1.4,1.4-1.4c0.8,0,1.4,0.7,1.4,1.4
				C302.3,311.3,301.7,311.9,300.9,311.9z"/>
			<path class="st1" d="M300.9,313.5c-1.8,0-3.1-1.3-3.1-3.1s1.3-3.1,3.1-3.1c1.7,0,3.1,1.4,3.1,3.1
				C304,312.2,302.7,313.5,300.9,313.5z M300.9,308.2c-1.3,0-2.4,1-2.4,2.4s1,2.4,2.4,2.4c1.3,0,2.4-1,2.4-2.4
				S302.2,308.2,300.9,308.2z M300.9,312.3c-0.9,0-1.8-0.8-1.8-1.8c0-0.9,0.8-1.8,1.8-1.8c0.9,0,1.8,0.8,1.8,1.8
				C302.7,311.5,301.9,312.3,300.9,312.3z M300.9,309.4c-0.6,0-1,0.5-1,1s0.5,1,1,1c0.6,0,1-0.5,1-1
				C301.9,309.9,301.5,309.4,300.9,309.4z"/>
		</g>
		<g>
			<path class="st1" d="M313.2,311.6c1.5-2.4,2.4-5.2,2.4-7.9c0-8-6.6-14.6-14.6-14.6c-8,0-14.6,6.6-14.6,14.6
				c0,8,6.6,14.6,14.6,14.6c2.8,0,5.6-0.8,7.9-2.4l5.3,2c0.3,0.1,0.5,0,0.8-0.1c0.1-0.1,0.3-0.5,0.1-0.8L313.2,311.6z M309,314.5
				c-0.3-0.1-0.4,0-0.7,0.1c-2.2,1.5-4.8,2.4-7.5,2.4c-7.3,0-13.2-5.9-13.2-13.2c0-7.3,5.9-13.2,13.2-13.2c7.3,0,13.2,5.9,13.2,13.2
				c0,2.7-0.8,5.3-2.4,7.5c-0.1,0.1-0.1,0.4-0.1,0.7l1.5,4.2L309,314.5z"/>
			<path class="st1" d="M300.9,318.7c-8.3,0-15-6.7-15-15s6.7-15,15-15c8.3,0,15,6.7,15,15c0,2.8-0.8,5.7-2.3,7.9l1.8,5.3
				c0.2,0.4,0,0.9-0.2,1.1l-0.1,0.1c-0.3,0.2-0.7,0.4-1.1,0.1l-5.1-1.9C306.6,318,303.8,318.7,300.9,318.7z M300.9,289.5
				c-7.8,0-14.2,6.4-14.2,14.2s6.4,14.2,14.2,14.2c2.8,0,5.5-0.8,7.7-2.3l0.2-0.1l5.5,2c0.1,0.1,0.2,0,0.4-0.1c0-0.1,0.1-0.3,0-0.3
				l-1.9-5.7l0.1-0.2c1.5-2.2,2.3-4.9,2.3-7.7C315.2,295.9,308.7,289.5,300.9,289.5z M300.9,317.3c-7.5,0-13.6-6.1-13.6-13.6
				s6.1-13.6,13.6-13.6c7.5,0,13.6,6.1,13.6,13.6c0,2.8-0.8,5.5-2.4,7.7c-0.1,0.1-0.1,0.3-0.1,0.4l1.8,5l-4.9-2l0,0
				c0,0-0.1,0-0.2,0.1l-0.1,0.1C306.4,316.5,303.7,317.3,300.9,317.3z M300.9,290.9c-7.1,0-12.8,5.8-12.8,12.8
				c0,7.1,5.8,12.8,12.8,12.8c2.6,0,5.2-0.8,7.3-2.3l0.2-0.1c0.2-0.1,0.5-0.3,0.8-0.1l3.4,1.4l-1.3-3.6c0-0.3,0-0.7,0.2-0.9
				c1.4-2.1,2.3-4.6,2.3-7.3C313.7,296.6,308,290.9,300.9,290.9z"/>
		</g>
	</g>
</g>
</svg>
