<?xml version="1.0" encoding="utf-8"?>
<!-- Generator: Adobe Illustrator 27.4.1, SVG Export Plug-In . SVG Version: 6.00 Build 0)  -->
<svg version="1.1" id="_x2014_ÎÓÈ_x5F_1" xmlns="http://www.w3.org/2000/svg" xmlns:xlink="http://www.w3.org/1999/xlink"
	 x="0px" y="0px" viewBox="0 0 607.5 300" style="enable-background:new 0 0 607.5 300;" xml:space="preserve">
<style type="text/css">
	.st0{fill:#FFFFFF;}
	.st1{fill:#69A6C2;}
</style>
<rect x="2718.9" y="-828.3" class="st0" width="2200" height="2200"/>
<path class="st1" d="M134.5,136.8c-2.6,0-6.4-0.3-6.6-5l-0.9-17.3c-0.1-3.1,0.1-6.9,3-8.7c0.8-0.5,1.6-0.8,2.5-0.9
	c-0.1,0-0.1,0-0.1,0c-1,0-1.9-0.5-2.4-1.2c-0.4-0.7-0.4-1.4-0.4-1.8c0,0,0-0.1,0-0.1c0.3-6.8,2.4-11.1,6.4-12.8
	c0.9-0.4,1.9-0.7,3-0.9c0.2-0.4,0.4-0.9,0.9-1.4c1.1-1.1,2.7-1,3.7-0.9c0.3,0,0.5,0,0.7,0c0.9,0,16.6-0.1,32.4-0.1
	c-6.1-3.1-11.7-5.8-17-8.3l-1.2-0.5c-1.2-0.6-2.6-1.2-3.9-2c0,0-0.1,0-0.1-0.1l-0.3-0.1c-0.8-0.4-1.5-0.8-1.9-1.4
	c-0.4-0.7-0.4-1.5-0.1-2.2c-0.3-0.7-0.4-1.5-0.3-1.9c0.1-1,0.6-2.1,1.1-3.1c0.9-1.5,2.4-2.7,4.3-3.4c0.6-0.2,1.2-0.3,1.7-0.4
	c0.8-0.1,1.2-0.2,1.4-0.4c0.4-0.4,0.4-1,0.3-1.3c-0.1-0.3-0.4-0.5-0.8-0.9l-0.1-0.1c-0.5-0.5-1.1-1-1.5-1.8c-1-1.9-0.5-4.4,1.2-5.7
	c1.1-0.9,2.6-1.1,3.9-0.8c0.4-0.8,0.8-1.5,1.2-2.3c0.7-1.4,1.7-3.2,2.5-5.1c0.7-1.8,1.5-3.5,2.3-5.3c0.2-0.5,0.4-1,0.6-1.5
	c0.2-0.6,0.5-1.3,0.8-2c-0.2-0.2-0.4-0.4-0.4-0.5c0,0,0-0.1-0.1-0.1c-0.5-0.7-0.8-1.6-0.8-2.6c-0.1-2.1,1.1-3.9,3.1-4.6
	c1.2-0.4,2.6-0.4,4,0c1.5,0.4,2.7,1.1,3.9,1.7c0.3,0.2,0.6,0.3,0.9,0.5c1.2,0.6,2.3,1.2,3.5,1.8l1,0.5c0.8,0.4,1.5,0.8,2.3,1.2
	c1.3,0.7,2.7,1.4,4,2.1c2.6,1.3,5.4,2.7,8,4.2c0.1-0.4,0.3-0.7,0.4-0.9c0.2-0.4,0.5-0.7,0.8-1.1c-2.5-1.2-6.9-3.3-14.4-7.1l-0.4-0.2
	c-2.5-1.3-4.7-2.4-5.6-2.8c-3.1-1.5-5.1-3.6-5.5-6.1c-0.3-2.1,0.5-4.2,2.3-5.9c1.7-1.6,4.5-2.1,7.2-1.4c1.3,0.3,7.9,3.6,18.9,9.1
	l0.8,0.4c0.4,0.2,0.8,0.4,1.1,0.5c0.4,0.2,0.8,0.4,1.3,0.6l0.2,0.1c3.1,1.4,9,3.9,6.8,9.8c-0.7,2.1-2.3,3.8-4.4,4.8
	c-0.7,0.3-1.3,0.5-1.9,0.6l-0.2,0c-0.7,0.1-1.3,0.3-1.6,0.5c-0.4,0.4-0.6,1-0.4,1.5c0.1,0.3,0.4,0.6,0.6,1c0.5,0.7,1,1.4,1.3,2.4
	c0.4,1.7-0.3,3.6-1.7,4.6c-0.7,0.5-1.6,0.7-2.5,0.8c0,0-0.2,0-0.3,0c-0.1,0.2-0.3,0.5-0.4,0.7c0,0,0,0.1-0.1,0.1
	c0.6,0.4,1,0.9,1.2,1.6c1-0.2,2.1-0.2,3.4,0.1c1.9,0.4,3.7,1.6,5.4,3.5c0.3,0.4,0.6,0.8,0.8,1.2c0.2,0,0.5,0,0.7,0
	c1.4,0.1,2.7,0.7,3.4,1.7c0.4,0.5,0.6,1.1,0.8,1.7c1,0.3,1.9,0.9,2.6,1.4c0.4,0.3,0.9,0.6,1.2,0.7l6.4,2.9c1.4,0.6,2.8,1.3,4.2,1.9
	c1.4,0.6,2.8,1.3,4.2,1.9c6.1,2.8,11.8,5.4,17,7.7c7.8,3.6,14,6.6,19.4,9.4c5.1,2.7,9.6,5.2,13.8,7.6c2.5,1.4,5.8,3.7,6.4,6.8
	c0.2,1.1,0.1,2.2-0.5,3.3c0.9,0.2,1.6,0.4,2.2,0.7c0.5,0.2,1.1,0.5,1.6,1c0.1,0.1,0.3,0.2,0.4,0.3c1.8,2.3,1.7,5.8,1.7,8.3
	c0,0.5,0,0.9,0,1.3c0,5.6-0.1,9.8-0.3,13.6c-0.1,1.8-0.6,3.1-1.5,3.9c-1.4,1.3-3.3,1.2-5.1,1.1c-0.3,0-0.6,0-0.9,0
	c-2.8-0.1-5.7-0.2-8.8-0.2c0,0.1-0.1,0.3-0.2,0.4c-0.2,0.3-0.5,0.4-0.9,0.4l-0.9,0c-0.1,0-0.2,0-0.3,0h-4.6l-111.9,1.1H135
	C134.8,136.8,134.6,136.8,134.5,136.8z M235.5,107.9c-20.3,0.1-43.3,0.1-62.1,0.2c-22,0.1-38.5,0.1-38.7,0.1c-1,0-2.2,0.1-3,0.5
	c-1.5,0.9-1.5,3.4-1.4,5.7l0.9,17.3c0.1,1.5,0.4,1.8,3.7,1.7h97.2c-1.7-0.9-2.9-2.6-3-6c-0.2-4.9,0.1-9.6,0.5-13.8
	C230,109,232.8,108.1,235.5,107.9z M291,131.7c0.1,0,0.3,0,0.5,0c0.1,0,0.3,0,0.4,0c1,0.1,2.4,0.1,2.7-0.2c0.1-0.1,0.3-0.4,0.4-1.6
	c0.2-3.8,0.3-8,0.3-13.5c0-0.2,0-0.4,0-0.7c0-0.2,0-0.3,0-0.5c0-0.1,0-0.2,0-0.2c0.1-2,0.2-4.8-0.9-6c-0.1-0.1-0.4-0.3-0.7-0.5
	c-0.7-0.3-1.6-0.5-2.7-0.6l-0.4,0c-0.6-0.1-1.2-0.1-1.9-0.2c-0.7,0.1-1.4,0.1-2.1,0.1l-0.2,0c-0.3,0-0.6,0-0.8,0
	c-0.7,0-16.2,0-37,0.1c1.5,0,3,0,4.5,0l22.4,0c4.9,0,5.1,4.9,5.2,7.5c0,0.5,0,0.9,0.1,1.3c0.2,2.1,0.2,4.2,0.3,6.2l0,0.1
	c0.1,2.8,0.1,5.7,0.5,8.5C285.3,131.6,288.3,131.6,291,131.7C291,131.7,291,131.7,291,131.7z M236.8,111.3c-2.9,0-3.7,0.3-3.9,2.7
	c-0.3,3.9-0.6,8.6-0.5,13.4c0.1,3.3,1,3.6,5.7,3.8c9.5,0.5,19.1,0.4,28.3,0.3c3.8,0,7.7,0,11.6,0c-0.4-2.8-0.4-5.6-0.5-8.3l0-0.8
	c0-1.8-0.1-3.6-0.3-5.4c0-0.5-0.1-0.9-0.1-1.4c-0.2-3.6-0.6-4.2-1.8-4.2H260c-6.6,0-14.1,0-21.3,0H236.8z M225.3,89
	c0,0,0.1,0,0.1,0.1c2.3,1.3,3.7,3,4.5,5.2c0.9,2.4,1.3,4.9,1.1,7.4c0,0.6-0.1,2.1-1.2,2.8l46.9-0.2c-0.2-0.1-0.3-0.1-0.5-0.2
	c0,0-0.1,0-0.1,0c-0.4-0.2-0.7-0.3-1.1-0.4c-7.3-2.8-14.2-6.6-20.9-10.2l-26.8-14.5c-3.9-2.1-7.9-4.2-11.6-6.1
	c-0.1,0-0.1-0.1-0.2-0.1l-0.3-0.1c-0.8-0.3-1.8-0.7-2.5-1.5c-0.7,0.5-1.5,0.9-2.4,0.9c-0.9,0-1.8-0.3-2.4-0.9
	c-0.3-0.3-0.6-0.7-0.7-1.1c-0.2,0.1-0.4,0.1-0.5,0.1c-1.8,0.3-3.7,0.1-5.6-0.5c0,0-0.1,0-0.1,0c-1.4-0.5-3.6-1.2-4.2-3.7
	c-0.5,0.1-1,0.1-1.4,0c-0.1,0.1-0.1,0.2-0.2,0.3c-0.1,0.1-0.1,0.1-0.2,0.2c0.2,0.2,0.3,0.4,0.5,0.6c1,1.4,1.1,3.3,0.4,4.8
	c-0.8,1.7-2.5,2.7-4.3,2.6c-0.5,0-0.9-0.1-1.3-0.3c-0.2,0.1-0.5,0.2-0.7,0.3c-0.7,0.1-1.3,0.7-1.4,1.3c-0.1,0.6,0.2,1.4,0.8,1.8
	c0.4,0.2,0.6,0.6,0.8,1c0.1,0.4,0,0.9-0.2,1.2c-0.1,0.1-0.1,0.2-0.2,0.3c0.6,1.2,0.6,2.6,0,4c-0.1,0.3-0.3,0.6-0.5,0.8
	c8.4-0.1,24.7-0.2,26.8-0.2c0.1,0,0.2,0,0.3,0c0.2,0,0.4,0,0.6,0c1.2-0.1,2.7-0.1,3.8,0.4c0.8,0.3,1.5,1.1,1.8,2.1
	c0.1,0.2,0.1,0.4,0.1,0.5C223,87.9,224,88.3,225.3,89L225.3,89z M283.8,103.1c0.6,0.2,1.5,0.4,2.1,0.6l0.2,0.1
	c0.2,0,0.3,0.1,0.5,0.1c0.6,0.2,1.3,0.3,1.9,0.4c0.3-0.1,0.6-0.3,0.8-0.5c0.6-0.7,0.6-1.2,0.5-1.6c-0.2-0.9-1.1-2.4-4.8-4.5
	c-3.7-2.2-7.8-4.4-12.8-7.1c1.9,1.1,3.7,2.3,5.5,3.6l0.2,0.1c0.1,0.1,0.2,0.1,0.3,0.2c1.9,1.3,4.3,2.8,5.3,5.4
	C283.7,100.4,284.1,101.8,283.8,103.1z M132.9,102.2L132.9,102.2L132.9,102.2z M140.7,91.3c-1.5,0.4-3.1,0.8-3.4,0.9
	c-2.6,1.1-4.1,4.3-4.3,9.4c9.2,0,79.4,0,94.8,0c0,0,0,0,0,0c0.1-2-0.2-4.1-0.9-6c-0.6-1.5-1.5-2.5-3.1-3.5c-0.4-0.2-2.3-1-3-1.2
	c-0.3,0.1-0.7,0-1-0.1c-0.1,0-0.1-0.1-0.2-0.1c-0.9,0.5-2.1,0.6-2.7,0.5c-1.9,0-24.9,0-40,0c-7.1,0-12.6,0-14,0h-13.4
	c-0.6,0-1.2,0-1.8,0l-0.8,0C144.8,91.1,142.7,91,140.7,91.3z M240.9,79.2c1.4,0.7,2.8,1.4,4.2,2.1c2.8,1.4,5.1,2.5,7.1,3.6
	c4.6,2.4,8.6,4.6,12.1,6.6c2.9,1.6,6.2,3.5,9.7,5.3l0.3,0.2c0.3,0.2,0.6,0.3,0.9,0.5c1.4,0.7,2.9,1.5,4.4,2.4
	c-0.8-1-1.9-1.7-3.2-2.5c-0.2-0.1-0.3-0.2-0.5-0.3l-0.1-0.1c-7.8-5.3-16.2-9.9-24.8-13.7C247.7,81.8,244.3,80.5,240.9,79.2z
	 M184.4,86.9h0.8c-0.1-0.1-0.2-0.2-0.2-0.3C184.8,86.7,184.6,86.8,184.4,86.9z M156,71.8c0.1,0,0.2,0.1,0.3,0.1
	c1.1,0.7,2.4,1.3,3.5,1.8c0.4,0.2,0.8,0.4,1.2,0.6c5.7,2.7,11.8,5.7,19.4,9.5c1.2,0.6,2,1,2.9,1.1c1-0.5,2.3-1.2,2.7-2.2
	c0-0.1,0.1-0.1,0.1-0.2c0.2-0.5,0.2-1.2-1.3-2.1c-1.9-1-6.6-3.4-11.6-5.8l-4.1-2c-4.2-2.1-7.9-3.9-9.7-4.8c-0.9-0.5-1.4-1.1-1.6-1.7
	c-0.9,0.4-1.6,1-1.9,1.7c-0.5,0.9-0.7,1.4-0.7,1.6c0,0.1,0,0.3,0.1,0.5c0.2,0.1,0.4,0.3,0.5,0.5c0.2,0.4,0.3,0.8,0.2,1.3
	C156,71.7,156,71.8,156,71.8z M188.1,78.3L188.1,78.3C188.1,78.3,188.1,78.3,188.1,78.3z M183.4,77.2c0.7,0.3,1.3,0.7,1.8,0.9
	c0,0,0,0,0,0L183.4,77.2C183.4,77.2,183.4,77.2,183.4,77.2C183.4,77.2,183.4,77.2,183.4,77.2z M215.5,69.1c0.2,0.1,0.4,0.2,0.8,0.3
	l0.1,0c0.3,0.1,0.5,0.2,0.8,0.3c3.2,1.6,7,3.6,10.9,5.7c-0.3-0.6-0.3-1.1-0.2-1.4c0.2-1.1,1.1-1.9,2.2-2c0.6-0.1,1.2,0.1,1.6,0.3
	l1.3,0.4c2.4,0.8,4.9,1.7,7.3,2.5c-1.6-0.7-3.3-1.5-5-2.3c-1.4-0.6-2.8-1.3-4.2-1.9c-1.4-0.6-2.8-1.3-4.2-1.9l-6.4-2.9
	c-0.6-0.3-1.1-0.6-1.6-1c-0.4-0.3-0.8-0.5-1.2-0.7c-0.3,0.9-0.7,1.7-1.1,2.5c0,0,0,0.1-0.1,0.1c-0.3,0.7-0.6,1.2-0.8,1.6
	C215.6,69,215.6,69,215.5,69.1z M162.9,63.9c0.1,0.1,0.3,0.1,0.4,0.2l0.1,0l21.2,11.1c0-0.1,0-0.2,0.1-0.3c0.2-0.7,0.5-1.4,1-2.1
	c-1-0.5-2-1-3.2-1.5c-1.6-0.8-3.4-1.6-5.2-2.5c-3.8-1.8-8.4-4-9.7-4.6c0,0,0,0-0.1,0c-0.1,0-0.2-0.1-0.3-0.1
	c-1.5-0.7-2.7-1.3-3.5-1.8C163.6,62.9,163.3,63.4,162.9,63.9z M154.2,71.9C154.2,71.9,154.2,71.9,154.2,71.9
	C154.2,71.9,154.2,71.9,154.2,71.9z M154.9,71.3L154.9,71.3L154.9,71.3z M210.4,68.8L210.4,68.8L210.4,68.8z M211.5,66.6
	c-0.3,0.4-0.5,0.8-0.8,1.1c-0.2,0.3-0.4,0.7-0.4,0.9c0.1,0,0.3-0.1,0.3-0.2C211.1,68,211.3,67.4,211.5,66.6z M163.9,57.5
	c0.8,0,1.4,0.3,1.5,0.4l22.2,10.7c0-0.2,0.1-0.4,0.2-0.6l0-0.2c0.1-0.3,0.3-1,0.3-1.1c-1.7-1.3-19.6-9.3-22.3-10.4
	c-0.8-0.3-1.3-0.7-1.6-1.1c-0.5,0.1-1-0.1-1.3-0.4c-0.4-0.3-1.1-0.4-1.5,0c-0.4,0.3-0.5,1-0.3,1.4c0.2,0.3,0.5,0.6,0.8,0.9
	c0,0,0.1,0.1,0.1,0.1c0.2,0.2,0.5,0.4,0.7,0.7C163.1,57.6,163.5,57.5,163.9,57.5z M201.9,66.3c0.1,0,0.1,0,0.1,0
	c1.4,0.5,2.7,0.6,3.9,0.5c0,0,0.1,0,0.1,0c0.4-0.1,1.2-1.4,1.1-2.3c-0.1-1.3-1.4-3-2.7-4.1l-0.2-0.1c0,0-0.1-0.1-0.1-0.1
	c-0.3-0.3-0.7-0.6-1-1.1c0,0,0,0,0,0c0,0,0,0,0,0c-0.5,1.1-1,2.1-1.4,3c-0.3,0.7-0.7,1.2-1.1,1.7c-0.2,0.2-0.3,0.4-0.5,0.6
	c-0.1,0.2-0.1,0.3-0.1,0.4C200.1,65.6,200.6,65.8,201.9,66.3z M213.7,61.1c0,0.4-0.1,0.8-0.2,1.1c0.1-0.1,0.2-0.2,0.3-0.3
	c0,0,0,0,0,0c0.2-0.2,0.4-0.3,0.6-0.5c0,0,0,0,0,0C214.3,61.3,214.1,61.2,213.7,61.1z M209.1,60.5c0.4,0.5,0.7,1.1,0.9,1.6
	c0.1-0.4,0.2-0.7,0.3-1.1C209.9,61,209.5,60.8,209.1,60.5z M198.2,58.2c-0.6,1.1-1.1,2.1-1.6,3.2c-0.1,0.2-0.3,0.5-0.3,0.8
	c0.2-0.2,0.4-0.6,0.7-1.2c0.3-0.5,0.5-1,0.7-1.5C197.9,59,198.1,58.6,198.2,58.2z M168.6,52.3C168.6,52.3,168.6,52.3,168.6,52.3
	c0.6,0.3,3.7,1.8,7.4,3.6l5.8,2.8c1.6,0.8,3.2,1.5,4.7,2.2c0-0.4,0.2-0.7,0.2-0.9c1.7-4.5,3.9-8.8,6.1-12.9l0.3-0.5
	c-2.1-1.1-6.5-3.3-9.5-4.8c-5.6-2.8-8.8-4.4-10-5.1c-0.2,0.5-0.4,1-0.6,1.5c-0.2,0.5-0.4,1.1-0.7,1.6c-0.4,0.9-0.8,1.8-1.1,2.6
	c-0.4,0.9-0.8,1.8-1.1,2.7c-0.8,1.9-1.7,3.6-2.6,5.3l-0.2,0.4c-0.1,0.2-0.2,0.4-0.3,0.6C167.5,51.7,168.1,52,168.6,52.3
	C168.6,52.2,168.6,52.2,168.6,52.3z M174.7,57.7c0.2,0.1,0.5,0.2,0.7,0.3l-0.4-0.2C174.9,57.8,174.8,57.7,174.7,57.7
	C174.7,57.7,174.7,57.7,174.7,57.7C174.7,57.7,174.7,57.7,174.7,57.7z M168.7,52.3C168.7,52.3,168.7,52.3,168.7,52.3
	C168.7,52.3,168.7,52.3,168.7,52.3z M168.1,52.1C168.1,52.1,168.1,52.1,168.1,52.1C168.1,52.1,168.1,52.1,168.1,52.1z M168.1,52.1
	C168.1,52.1,168.1,52.1,168.1,52.1C168.1,52.1,168.1,52.1,168.1,52.1z M199.4,51c0.1,0.1,0.1,0.2,0.1,0.3c0-0.1,0.1-0.1,0.1-0.2
	c0,0,0,0,0,0C199.5,51.1,199.5,51.1,199.4,51z M198.9,50.6c0.1,0,0.2,0.1,0.3,0.2c-0.1-0.1-0.1-0.3-0.1-0.4
	C199,50.4,199,50.5,198.9,50.6z M202.2,47c0.2,0,0.5,0.1,0.6,0.1c0.2,0,0.5-0.1,0.7-0.2c0.3-0.2,0.5-0.7,0.4-1
	c-0.1-0.3-0.4-0.7-0.6-1.1l-0.1-0.2c-0.2-0.3-0.4-0.5-0.6-0.8c-0.1,0.1-0.3,0.1-0.4,0.2c-0.4,0.1-0.9,0-1.3-0.2
	c-3.3-2.1-6.9-3.9-10.4-5.6c-0.6-0.3-1.2-0.6-1.7-0.9c-0.8-0.4-1.6-0.8-2.4-1.2c-0.7-0.4-1.5-0.8-2.2-1.2c-1.5-0.8-3-1.6-4.5-2.3
	l-1.1-0.6c-1-0.5-1.9-1.1-2.9-1.3c-0.8-0.2-1.4-0.2-2,0c-0.6,0.2-0.9,0.7-0.9,1.3c0,0.4,0.1,0.6,0.2,0.8c0,0,0,0.1,0.1,0.1
	c0,0,0,0,0,0c0.9-0.4,2.4-0.2,4.7,0.8c2.9,1.2,10.3,5.1,17.1,8.7l2.3,1.2c1.1,0.6,2.2,1.2,2.4,1.2c1.1,0.5,1.9,1.3,2.2,2.4
	C201.8,46.9,202,46.9,202.2,47z M201.4,42.7C201.4,42.7,201.4,42.7,201.4,42.7C201.4,42.7,201.4,42.7,201.4,42.7z M204.6,35.1
	c0.6,0,1.2,0.4,1.5,0.9c0.1,0.1,0.1,0.2,0.1,0.4c0.1,0,0.3-0.1,0.4-0.1c0.6-0.1,1-0.2,1.3-0.4c1.3-0.6,2.2-1.6,2.7-2.9
	c0.8-2.2-0.3-3.4-5-5.5c-0.6-0.3-1.2-0.5-1.7-0.8l-0.4-0.2c-0.4-0.2-0.9-0.4-1.5-0.7l-0.2-0.1c-11.2-5.6-17.2-8.6-18.1-8.8
	c-1.2-0.3-2.9-0.3-4,0.7c-0.7,0.6-1.5,1.6-1.3,2.8c0.2,1.3,1.5,2.6,3.5,3.6c0.8,0.4,2.3,1.1,4.3,2.1l2,1
	C193.2,29.6,203.1,34.6,204.6,35.1z"/>
<path class="st1" d="M325.9,271.5H82.8c-1.3,0-2.4-1.1-2.4-2.4s1.1-2.4,2.4-2.4h66.6c-4.5-0.5-9.1-1.9-9.8-6.2
	c-1.2-7.2-1.2-16.4,0.1-23.3c0.4-1.9,1.3-3.4,2.6-4.4c3-2.2,7.4-2.1,11-2c0.7,0,1.3,0,1.9,0c4.7,0,9.5,0,14.1,0h16.6
	c-0.1-0.3-0.1-0.6-0.1-0.9c0.1-1.7,1.4-3.2,3.4-4c0.8-0.3,1.6-0.5,2.6-0.7c0-0.1,0-0.2,0.1-0.2l0.1-0.3c0.1-0.3,0.1-0.5,0.2-0.7
	c1.7-6,2.3-12.4,1.7-18.6l0-0.5c-0.2-2.1-0.4-4.3-1.1-6.2c-0.7,0-1.2,0-1.7,0l-1,0c-0.7,0-1.6,0-2.5-0.4c-1.7-0.8-2.5-2.5-2.2-4.2
	h-20.7c-2.2,0-4.9,0-7.3-0.9c-2.5-0.8-4.5-2.5-5.5-4.6c-0.9-1.9-0.9-3.8-0.9-5.4c0-1.6-0.1-4.8-0.2-8.4c-0.2-7.4-0.4-15.6-0.3-18.3
	c0-0.5,0-1,0-1.5c0-0.3,0-0.6,0-0.9c-0.1-3.6-0.1-8.2,2-11.6c0.1-0.2,0.3-0.4,0.5-0.5c1.3-1,2.3-1.8,3.2-2.7
	c0.2-0.2,0.4-0.3,0.6-0.4c2.1-0.9,4.4-1,6.5-1h24.3c0-0.5,0-0.9,0-1.2c-6,0-11.7,0-17.2,0c-1,0-1.8-0.8-1.8-1.8s0.8-1.8,1.7-1.8
	c6.3-0.2,12.9-0.6,20.1-1.1c0,0,0.1,0,0.1,0c29.2,0.1,62.2,0.2,84.6,0.3l10.9,0c9.1,0.1,15,0.1,15.3,0.1c1.2,0,2.6,0.1,4,0.8
	c1.9,1.1,2.6,3.3,2.8,4.9h6.8c15.2,0,25.3,0,25.9,0c1.2,0,5.2,0.2,7.1,3.4c1.5,2.5,1.5,5.9,1.4,8.4v28.6c0,0.2,0,0.5,0,0.8
	c0,0.3,0,0.6,0,0.8c0.1,2.5,0.1,5.8-1.2,8.5c-0.1,0.3-0.3,0.5-0.4,0.8c3.8,0.2,7.6,1,10.7,3.5c3.9,3.2,6.7,8.2,7.9,13.9
	c1.4,6.9,0,13.7-3.7,19.1c1.2,0,2.3,0,3.5,0h169.9c0.1,0,0.2,0,0.3,0c1.3,0,2.4,1.1,2.4,2.4c0,1.3-1.1,2.4-2.4,2.4H365.9
	c-2.7,0-5.1,0-7.5-0.2c-3,2.6-6.7,5.3-11.4,5.4c-0.2,0-0.6,0-0.9,0.1l-0.3,0c-1,0.1-2.3,0.2-3.7,0c0.2,0.5,0.3,1,0.4,1.6
	c0.9,5.3,0.8,10.6,0.8,15.8c0,2.1-0.1,4.4,0,6.7c0.1,4.6-1.3,7.8-4,9.4C335.7,271.3,330.5,271.5,325.9,271.5z M314.1,266.7h11.4
	c3.2,0,8.6,0,11.2-1.5c1.2-0.7,1.7-2.5,1.7-5.2c0-2.4,0-4.8,0-6.9c0.1-4.9,0.2-10-0.7-14.8c-0.4-2.2-1.3-2.4-5.2-2.4c0,0,0,0,0,0
	c-0.7,0-1.3,0-2,0c-4.7-0.1-9.5-0.1-14.1-0.1H316v13.5c0,2.6,0,4.9,0,6.8c0,1.5,0,2.7,0,3.8c0,0.8,0,1.5,0,2.1c0,0.5,0,0.9,0,1.2
	v0.9c0,0,0,0.1,0,0.1C315.8,266,314.8,266.5,314.1,266.7z M179,266.7h121c-0.6-0.1-1.3-0.4-1.9-1.1c-0.9-1-0.9-2.3-0.9-2.8l0.3-22.3
	c-32.8-1-65.9-1.3-98.5-0.9c-3,0-5.9,0.3-7.1,2c-0.7,1-0.9,2.6-1,4.1c-0.4,4.9-0.3,15.2-0.2,18.2l0,0.2c0,0.6-0.2,1.2-0.7,1.7
	c-0.4,0.4-1,0.7-1.7,0.7l0,0C187.6,266.6,183.8,266.7,179,266.7z M302,263.1L302,263.1L302,263.1z M151.2,235.5
	c-1.9,0-4.7,0.1-6.1,1.1c-0.4,0.3-0.6,0.8-0.8,1.5c-1.2,6.4-1.2,14.9-0.1,21.6c0.2,1,2,2.7,12,2.5h1.3c4,0,18.3-0.2,26-0.2l2.3,0
	c0-4.5-0.1-12.2,0.3-16.5c0.2-2.2,0.5-4.6,1.9-6.5c1.4-1.9,3.3-2.9,5.5-3.4h-24.4c-4.5,0-9.2,0-13.9,0h-0.1c-0.3,0-0.8,0-1.2,0
	c-0.3,0-0.6,0-0.9,0C152.5,235.5,151.9,235.5,151.2,235.5z M300,235.9c1.2,0,2.3,1.1,2.3,2.4l-0.3,23.8l9.2,0c0-3.8,0-12.6,0-26.4
	h-0.4c-6.3,0-12.8,0-19.9-0.1C293.9,235.7,297,235.8,300,235.9C300,235.9,300,235.9,300,235.9z M332.5,231.1c1.3,0,2.9,0,4.5,0.4
	c-0.1-1,0-1.9,0.5-2.8c0.7-1.3,2-2.3,3.5-2.7c1.3-0.4,2.5-0.3,3.6-0.3l0.1,0c0.5,0,0.9,0,1.2,0c0.6,0,1.3-0.1,1.9-0.3
	c-1.3-1.6-2.1-3.5-2.3-5.5c-0.1-1.4,0.1-2.7,0.2-3.8l0-0.1c0.1-0.9,0.2-1.7,0.2-2.4c-0.1-2.4-1.9-4.7-5.6-7.3
	c-3.6-2.5-7.6-4.8-11.9-6.6l-2.6,0c-34.5-0.3-104.8-0.9-128.5-0.9c0.5,1.9,0.7,3.8,0.9,5.7l0,0.5c0.6,6.6,0,13.6-1.8,20
	c0,0,0,0,0.1,0l2,0c0.9,0,107.2,0.8,115.1,1.2c1.3,0.1,2.2,1.1,2.2,2.4v2.4h0.5c4.7,0,9.5,0,14.2,0.1H332.5
	C332.5,231.1,332.5,231.1,332.5,231.1z M341.7,230.8c0.4,0.5,2,0.4,3.6,0.3l0.5,0c0.4,0,0.8-0.1,1.1-0.1h0c2,0,3.9-0.9,5.6-2.1
	c-0.1-0.1-0.3-0.1-0.4-0.2c-2,1.1-4.1,1.6-6.2,1.7c0,0,0,0,0,0c-0.5,0-1,0-1.5,0c0,0-0.1,0-0.1,0c-0.3,0-0.6,0-0.9,0
	c-0.5,0-0.9,0-1.2,0.1C342,230.5,341.8,230.6,341.7,230.8z M194.9,230.8l20.9,0c15.9,0,32.5,0,50.6,0.1c17.9,0,31.6,0.1,44.5,0.1
	h0.4v-0.1c-17.3-0.4-111.8-1.2-112.6-1.2h-1c-0.1,0-0.2,0-0.3,0c-0.7,0-1.4,0-2.1,0C195.1,230.1,195,230.4,194.9,230.8z
	 M356.5,225.2c0.1,0,0.2,0,0.3,0.1c4.3-4.7,6-11,4.7-17.6c-0.9-4.7-3.2-8.7-6.2-11.2c-3.1-2.6-7.6-2.6-12.3-2.6l-15.9,0
	c0.8,0.3,1.6,0.6,2.4,1l14,0.1c3,0,7,0,10.4,2.1c5.4,3.4,9.2,12.9,6,22.3C359.1,221.6,358,223.5,356.5,225.2z M350.2,219.6
	c0.1,1.5,1,2.6,1.8,3.4c1.5-1.4,2.7-3.1,3.3-5.1c1.9-5.5,0.5-13.9-4.1-16.8c-2.2-1.4-5.3-1.4-7.9-1.4l-2.8,0c-0.5,0-1,0-1.6,0
	c1.4,0.9,2.8,1.7,4.1,2.7c3.1,2.2,7.3,5.7,7.6,10.9c0.1,1.2-0.1,2.3-0.2,3.4l0,0.2C350.2,217.9,350.1,218.7,350.2,219.6
	C350.2,219.5,350.2,219.5,350.2,219.6z M189.5,195C189.5,195,189.5,195,189.5,195C189.5,195,189.5,195,189.5,195z M217.9,194
	c24.8,0.1,61.9,0.4,95.4,0.7c-1.2-0.3-2.5-0.6-3.8-0.8l-9.4,0C275.3,193.9,244.1,194,217.9,194z M164.7,189.3c2.1,0,22.5,0,49,0
	c-1.5-0.2-2.9-0.5-4.3-1c-5.3,0.1-11,0.1-16.8,0.1c0,0,0,0,0,0c-0.8,0-2.3,0-3.6-1.1c-1.4-1.3-1.4-3-1.4-4c0.1-7.1,0-29.3-0.2-40.8
	h-11.7c-5.4,0-9.3,0-11.3,0l-1.4,0c-1.8,0-3.6,0.1-4.9,0.7c-3,1.4-3.2,5.5-3.1,10.7l0,1c0,0.6,0,1.2,0,1.7c0,2.4,0.1,9.7,0.3,16
	l0,2.1c0.1,3.7,0.2,6.8,0.2,8.5c0,1.2,0,2.6,0.5,3.5c0.4,0.9,1.4,1.7,2.7,2.2c1.7,0.6,3.9,0.6,5.7,0.6
	C164.5,189.3,164.6,189.3,164.7,189.3z M310,189.2h3c4.5,0,8.7,0,12.4,0c-0.2-0.5-0.2-1.1-0.1-1.8c0.2-1.7,0.2-23.5,0.2-31.8l0-6.3
	c0-3.7-0.4-3.8-1.3-3.9c-4-0.6-8.1-0.6-11.9-0.5c-0.9,0-1.9,0.1-2.8,0.1l-0.8,0.1c-0.2,0-0.4,0-0.6,0c0,1,0,2.4,0,4.2
	c0,9-0.1,27.9-0.5,36.6c0,0.6-0.1,1.6-0.4,2.6C308,188.8,309.1,189,310,189.2z M330,187.5c0.6,0.2,2.2,0.3,4.7,0.1
	c0.1,0,0.1,0,0.2,0h0.2c0.7,0,1.5,0,2.2,0l0.5,0c3,0.1,5.3,0.1,5.9-1.3c0.8-1.7,0.8-4.1,0.7-6.4c0-0.5,0-1.1,0-1.7v-28.7
	c0-2,0.1-4.6-0.7-5.9c-0.5-0.8-1.9-1.1-3.1-1.1l-12.2,0c1.7,1.9,1.7,4.9,1.7,6.7v4C330.2,175,330.2,185,330,187.5z M245,184.6
	c14,0,28,0.6,41.8,1.6c3.9,0.3,7.4,0.6,10.6,1c-0.4-1.7-0.4-3.6-0.4-5.2c0-0.8,0-1.5,0-2.1c0,0,0-0.1,0-0.1c0-6.5,0.4-33.5,1-35.2
	c0.3-0.8,0.6-1.5,1.1-2.1c-32.7-0.1-77.7-0.1-106.9-0.1c0.2,11.9,0.3,34.2,0.2,40.9c0,0.1,0,0.2,0,0.4c0.1,0,0.1,0,0.2,0
	c3,0,6.1,0,9.1,0c-0.8-0.8-1.4-1.8-2-2.8c-1.8-3.3-2-7-2-10.9c-0.1-4.8,0-9.1,0-13l0-0.1c0.1-4.9,0.2-12.2,8.3-12.2
	c3.9,0,8.7,0,13-0.1l0.8,0c8.8-0.1,8.9,0.1,9.6,0.9c0.6,0.7,0.6,0.7,0.8,16.2c0.1,6.4,0.2,16.1,0.3,23.1
	C235.2,184.6,240.1,184.6,245,184.6z M302.5,146c-0.2,1.7-0.8,22.8-0.8,33.8c0,0.5,0,1,0,1.5l0,0.7c0,1.4-0.1,3.2,0.4,4.4
	c0.1,0.2,0.3,0.4,0.4,0.6c0-0.2,0.1-0.6,0.1-1.3c0.4-8.6,0.5-27.3,0.5-36.4c0-0.1,0-0.2,0-0.3l0-2.7c0-0.4,0-0.7,0-1
	C302.7,145.5,302.6,145.7,302.5,146z M210,183.5L210,183.5c0.1,0,0.2,0,0.3,0c6-0.1,10.9-0.1,15.4-0.1c-0.1-10.7-0.3-28.1-0.5-34.2
	c-1.3,0-3.1,0-4.9,0.1l-0.5,0c-3.9,0.1-9.6,0.1-13.9,0.1c-3,0-3.5,1.6-3.6,7.5v0.1c-0.1,3.9-0.1,8.2,0,12.9c0.1,3.5,0.2,6.3,1.5,8.7
	C205,180.9,207.1,182.5,210,183.5z M192.1,137.7c30.4,0,78,0.1,111,0.1c-0.2-0.7-0.4-0.8-0.4-0.8c-0.3-0.2-1.2-0.2-1.5-0.2
	c-0.3,0-6,0-15.3-0.1c-0.1,0-0.2,0-0.3,0l-10.9,0c-22-0.1-54-0.2-82.6-0.3C192.1,136.8,192.1,137.2,192.1,137.7z"/>
</svg>
