<?xml version="1.0" encoding="UTF-8"?>
<svg xmlns="http://www.w3.org/2000/svg" version="1" viewBox="0 0 3260 1670">
  <path d="M3249 1377c-29 3-55 10-79 17-83 22-148 40-215 42-71 2-138-14-213-52-41-21-73-42-98-66-1-7-3-14-5-21-1-3-2-7-2-10-6-25 1-52 17-72 16-20 41-32 67-31 39 0 63-1 80-13 16-11 24-28 36-57 2-4 4-9 6-13 21-46-9-77-30-100-2-3-5-5-7-7-18-19-25-45-21-71s19-48 42-60c34-19 54-33 63-51 8-17 6-36 3-68 0-4-1-9-2-14-3-30-23-54-52-63-14-4-26-8-35-11-19-6-30-9-36-13-5-4-7-8-11-22-2-4-3-9-6-15-15-39 2-67 19-94 2-3 4-7 6-10 15-25 13-57-4-81l-25-35c-30-42-72-31-106-22-23 6-44 11-57 1-8-6-15-12-21-17-30-24-31-25-31-34l1-68c0-30-17-57-44-69l-39-17c-44-19-68 3-92 25-22 20-45 40-85 34h-2c-8-2-40-9-59-42-19-34-33-54-51-63-17-8-36-6-68-3-4 0-9 1-14 2-30 3-54 23-63 52l-15 47c-5 17-21 32-42 40-26 10-55 8-78-5-33-20-55-30-75-29-19 1-35 13-60 31-4 3-7 6-12 8-41 30-31 71-24 101 1 3 2 7 2 10 6 25-1 52-17 72-16 20-41 32-67 31-39 0-63 1-80 13-16 11-24 28-36 57-2 4-4 9-6 13-21 46 9 77 30 100 2 3 5 5 7 7 29 31 23 64 18 93-1 3-1 7-2 10-2 10-18 19-36 28-16 8-35 18-48 31-17 16-23 36-21 59l4 43c5 50 46 62 76 71 3 1 7 2 10 3 25 8 44 26 54 51 9 24 7 51-6 73-16 28-17 58-1 86 18 32 54 54 86 54 56 0 97-18 122-53 21-29 31-69 31-123s-13-86-21-106c-1-3-2-6-3-8-16-40-25-83-27-126-2-43 3-85 15-126 12-42 30-81 55-116 25-37 57-69 93-95 43-31 91-53 142-65 50-12 100-13 151-5 51 8 98 25 142 52 27 16 51 35 73 57-33-28-70-50-112-67-97-38-201-39-294-2-47 19-89 47-125 83-38 38-68 85-91 138-30 72-35 149-16 231 20 83 61 143 77 164 26 34 58 62 95 83 63 36 133 54 203 54h11c77-2 150-27 214-73 45-32 81-72 110-119 27-45 45-95 54-147 5-31 6-62 4-93 12 52 13 94 13 110 0 43-8 87-16 130-12 66-24 128-7 189 9 33 26 62 50 89 3 3 6 6 9 9 3 22 1 45-23 63-4 3-8 6-12 9-24 18-38 28-53 29-14 1-32-6-67-27-26-15-57-18-85-7-28 11-50 34-59 62-1 3-2 6-3 10-9 29-18 62-60 66-5 1-10 1-14 2-30 3-47 5-60-2-13-6-25-21-45-57-15-26-40-44-70-49-30-5-60 4-82 25l-7 7c-22 21-47 45-85 28-5-2-9-4-13-6-28-12-43-19-51-31-8-12-11-31-10-72 0-30-13-58-36-77-23-19-54-26-83-20-37 8-61 8-82-1-20-9-36-25-62-53-18-21-30-41-40-59-5-8-9-16-14-24 3-8 5-16 5-25l1-24c1-34-21-65-53-76-7-2-14-4-20-6-48-15-51-16-66-58-9-25 2-42 20-70 3-5 7-11 10-16 18-29 14-67-9-92l-16-17c-23-25-61-32-91-16-7 3-13 7-18 9-44 23-47 25-88 6-24-11-28-31-36-63-1-6-3-12-4-19-8-33-37-57-72-59l-24-1c-34-1-65 21-76 53-2 7-4 14-6 20-15 48-16 51-58 66-25 9-42-2-70-20-5-3-11-7-16-10-29-18-67-14-92 9l-15 14c-25 23-32 61-16 91 3 7 7 13 9 18 23 44 25 47 6 88-11 24-31 28-63 36-6 1-12 3-19 4-33 8-57 37-59 72l-1 24c-1 34 21 65 53 76 7 2 14 4 20 6 48 15 51 16 66 58 9 24-4 43-18 63-11 16-23 32-21 51 2 21 20 74 83 74s110-29 150-53c28-17 53-31 73-31s7 0 12 1c20 2 54 5 94-3 49-9 92-30 128-64 34-31 56-71 65-115 4-3 8-6 13-9 32-20 68-30 113-30s74 14 91 37c-8 16-23 28-41 32-7 2-13 3-19 4-34 7-58 13-72 43-22 47-18 54 6 100 3 5 6 11 9 18 13 25 7 56-13 75l-17 16c-21 19-52 22-76 8-6-4-11-7-16-10-29-19-50-32-82-21-48 18-51 25-66 75-2 6-4 12-6 19-9 27-34 45-62 44l-24-1c-28-1-52-21-59-48-2-7-3-13-4-19-7-34-13-58-43-72l-2-1c-17-8-38-18-71-6-9 3-19 7-30 11-50 19-117 44-208 59-107 17-223 15-342-7-77-14-152-26-225-34l-4 13c73 9 148 20 227 35 120 22 238 25 346 7 92-15 160-41 211-59 11-4 21-8 30-11 28-10 46-2 61 5l2 1c24 11 28 31 36 63 1 6 3 12 4 19 8 33 37 57 72 59l24 1h3c33 0 63-22 73-53 2-7 4-14 6-20 15-48 16-51 58-66 25-9 42 2 70 20 5 3 11 7 16 10 29 18 67 14 92-9l17-16c25-23 32-61 16-91-3-7-7-13-9-18-23-44-25-47-6-88 11-24 31-28 63-36 6-1 12-3 19-4 20-5 36-17 46-33 3 5 6 10 9 16 10 18 22 39 42 61 23 26 42 46 66 57 24 10 51 11 90 2 25-6 52 1 72 17 20 16 32 41 31 67 0 39 1 63 13 80 11 16 28 24 57 36 4 2 9 4 13 6 46 21 77-9 100-30 3-2 5-5 7-7 19-18 45-25 71-21 26 4 48 19 60 42 19 34 33 54 51 63 17 8 36 6 68 3 4 0 9-1 14-2 50-5 62-46 71-76 1-3 2-7 3-10 8-25 26-44 51-54 24-9 51-7 73 6 33 20 55 30 75 29 19-1 35-13 60-31 4-3 7-6 12-8 24-18 31-39 30-60 24 21 54 40 90 58 77 39 142 54 205 54s144-19 232-43c24-7 51-14 79-21l-5-13ZM1263 1133c-22 17-40 37-58 56-45 49-87 95-181 95s-96-19-117-35c-26-21-47-45-61-74-14-27-22-56-23-87-1-30 4-60 16-88 12-29 31-56 55-78 41-38 94-59 150-59h8c59 2 113 27 153 70 41 44 63 100 63 159-2 15-3 28-5 41ZM1500 1113c0 4-1 8-1 11-18-22-44-36-97-36s-91 14-122 34c1-10 2-20 2-29 0-62-24-122-67-168-43-46-100-72-163-75-62-2-122 20-168 62-26 24-45 52-58 83-12 30-18 62-17 94 1 32 10 63 24 92 15 30 37 56 65 78 26 20 84 38 125 38 100 0 147-50 191-99 14-15 27-30 43-44-11 35-30 66-57 91-34 32-75 52-121 60-38 7-71 4-90 3-6 0-10-1-14-1-24 0-50 15-80 33-40 24-86 51-143 51s-42-9-55-26c-10-14-14-29-15-36-1-14 8-28 19-42 15-21 31-45 20-75-18-48-25-51-75-66-6-2-12-4-19-6-27-9-45-34-44-62l1-24c1-28 21-52 48-59 7-2 13-3 19-4 34-7 58-13 72-43 22-47 18-54-6-100-3-5-6-11-9-18-13-25-7-56 13-75l17-16c12-11 27-17 43-17s23 3 33 9c6 4 11 7 16 10 29 19 50 32 82 21 48-18 51-25 66-75 2-6 4-12 6-19 9-27 34-45 62-44l24 1c28 1 52 21 59 48 2 7 3 13 4 19 7 34 13 58 43 72 47 22 54 18 100-6 5-3 11-6 18-9 25-13 56-7 75 13l16 17c19 21 22 52 8 76-4 6-7 11-10 16-19 29-32 50-21 82 18 48 25 51 75 66 6 2 12 4 19 6 27 9 45 34 44 62v26ZM2563 887c-8 51-25 98-52 142-27 45-63 84-106 115-61 44-132 68-205 70-71 2-142-16-207-52-35-20-66-46-91-79-16-21-55-79-75-159-19-78-14-152 15-222 22-52 51-97 88-134 35-35 75-62 120-80 43-17 89-26 136-26s99 10 147 28c52 21 98 51 135 90 30 31 55 67 74 108 6 15 10 31 14 47 13 49 15 100 7 151ZM2623 1290c1 3 1 6 2 8-20-23-33-48-41-76-16-58-5-119 7-183 8-43 16-88 16-132s-4-117-47-214c-1-3-3-6-4-9-13-35-30-68-53-98-32-45-72-81-119-110-45-27-95-45-147-54-52-8-105-6-156 5-53 12-103 35-147 67-38 27-70 60-96 98-25 37-44 77-57 120-12 43-17 87-15 131 2 45 11 89 28 130 1 3 2 5 3 8 8 20 20 51 20 101s-9 88-29 115c-23 32-59 47-111 47s-59-20-75-47c-13-24-13-49 1-73 15-26 18-57 7-85-11-28-34-50-62-59-3-1-6-2-10-3-29-9-62-18-66-60l-4-43c-5-43 31-61 62-77 22-11 41-21 43-38 0-3 1-6 2-10 5-30 12-68-21-104-2-2-5-5-7-7-21-22-45-47-28-85 2-5 4-9 6-13 12-28 19-43 31-51 12-8 31-11 72-10 30 0 58-13 77-36 19-23 26-54 20-83-1-3-2-6-2-10-7-29-15-63 18-87 4-3 8-6 12-9 24-18 38-28 53-29 14-1 32 6 67 27 26 15 60 18 90 6 25-10 43-27 50-49l15-47c7-23 28-40 52-42 5-1 10-1 14-2 30-3 47-5 60 2 13 6 25 21 45 57 13 23 31 35 44 41 11 5 23 8 28 8 5 1 10 1 14 1 36 0 59-20 79-39 24-21 42-38 78-22l39 17c22 10 36 32 36 56l-1 68c0 16 6 21 36 45 6 5 13 10 21 16 18 15 43 9 69 2 17-4 34-9 49-7 17 1 31 9 42 24l25 35c14 20 16 46 3 67-2 3-4 6-6 10-17 28-37 61-20 106 2 6 4 11 6 15 11 30 13 31 56 44 9 3 21 6 35 11 23 7 40 28 42 52 1 5 1 10 2 14 3 30 5 47-2 60-6 13-21 25-57 45-26 15-44 40-49 70-5 30 4 60 25 82 2 2 5 5 7 7 21 22 45 47 28 85-2 5-4 9-6 13-12 28-19 43-31 51-12 8-31 11-72 10-30 0-58 13-77 36-18 29-26 60-19 89Z" fill="#aeb5c6" />
</svg>
