<?xml version="1.0" encoding="utf-8"?>
<!-- Generator: Adobe Illustrator 27.4.1, SVG Export Plug-In . SVG Version: 6.00 Build 0)  -->
<svg version="1.1" id="_x2014_ÎÓÈ_x5F_1" xmlns="http://www.w3.org/2000/svg" xmlns:xlink="http://www.w3.org/1999/xlink"
	 x="0px" y="0px" viewBox="0 0 607.5 300" style="enable-background:new 0 0 607.5 300;" xml:space="preserve">
<style type="text/css">
	.st0{fill:#FFFFFF;}
	.st1{fill:#69A6C2;}
</style>
<rect x="2718.9" y="-828.3" class="st0" width="2200" height="2200"/>
<g>
	<path class="st1" d="M604.3,225.6c-47.7-4.8-69.3-2.7-92.3-0.5c-11.9,1.1-22.7,2.6-32.3,3.9c-29.7,4-49.4,6.6-59.7-5.6
		c-5.6-6.6-7.8-16.6-7.5-25.3c1.3,2.5,3.2,4.9,5.8,6.7c4.8,3.3,10.5,2.5,16.1,1.7c1-0.1,2.1-0.3,3.1-0.4c8.8-1,17-2.6,19.7-10.6
		c2.1-6.2,0.8-12.8-1.5-24.8c-1-5-2.1-10.6-3.3-17.5c-1.2-6.9-1.2-10.5-1.3-13.5c-0.1-2.9-0.1-5-1.2-8.6
		c-5.4-18.3-23.7-28.3-35.8-34.9c-5.6-3-10.9-5.5-15.9-7.5c-0.1-0.2-0.2-0.3-0.3-0.5c1.2,0.2,2.5,0.4,3.9,0.6c1,0.2,1.9,0.4,2.8,0.5
		c4.2,0.8,6.8,1.3,7.4-0.2c0.2-0.5,0.2-1.1-0.2-1.7c-1.5-3-9.9-9.8-20.7-12.1c-1.1-0.2-2.1-0.4-3-0.5c-1.1-2.3-1.7-4.9-1.5-7.8
		c0.2-3.9,1.5-5.9,3.5-8.6c1.5-2.1,3.3-4.8,5-9c2.4-6,3.6-18.9-7.2-28.8c-6.7-6.2-15.6-6-19.1-5.7c-17,1.7-24.3,19.7-24.6,20.5
		c-2.1,5.4-2.3,12-0.4,18.5c-1.1,4-1.6,9.1-0.1,13.5c0.8,2.3,2,4.2,3.6,5.7c-2.6-0.6-5.8-1.2-10.1-1.9c-1.1-0.2-2.2-0.3-3.2-0.5
		c-4.7-0.7-8-1.2-9.9-2.4c2.3-0.7,5-2.3,7.5-5.5c4.4-5.6,5.2-12.9,2.4-20.4c-1.6-4.3-4.4-8.4-7.7-11.5c-0.5-1.2-1.2-2.4-2.1-3.5
		c-1.1-1.3-6.7-6-10.5-7.3c-7.1-2.4-15.7-0.5-20.5,4.5c-5.9,6.1-6.9,13.5-6.7,18.5c0.1,1.8,0.3,3.6,0.7,5.4
		c-0.8,3.7-1.1,7.3-1.4,11.4c-0.4,4.2-0.8,9-1.8,14.8c-1.3,0.7-2.7,1.5-4,2.4c-2.9,1.9-4.3,3.9-6.7,7.2c-1.4,1.9-3.1,4.4-5.7,7.5
		c-5.3,6.5-9.1,9.5-12.8,12.5c-3.5,2.8-6.8,5.5-10.8,10.7c-4.6,6-7.5,10.8-9.9,14.7c-2.3,3.8-4.2,6.9-6.7,9.7c-2.9,3.3-5.2,4.8-7,6
		c-1.7,1.1-3,2-4,3.6c-2.8,4.4-2.8,10.4-1.9,13c0.4,1.1,0.9,1.7,1.5,1.9c1.8,0.7,3.6-2,6-5.7c2.1-3.2,5-7.6,6.7-7.1
		c1.2,0.3,1.3,3.3,1.3,5.3c0,1.9,0.1,3.2,0.8,3.8c0.3,0.2,0.6,0.3,1,0.3c1.9-0.3,3-3.7,4.5-9.9c1-3.8,2.1-8.1,3.5-9.9
		c1.9-2.7,9.1-8.5,16.1-14.1c4.1-3.3,8.4-6.8,11.7-9.7c3.3-2.9,5.7-5.7,7.6-8.1c1.2,0.8,3.3,1,5.7,0.7c-0.7,2.8-1.6,6.6-2.8,11.3
		c-0.6,2.3-1.2,4.9-1.9,7.7c-2.3,9.4-3.4,13.8-3.5,20.1c-0.2,7.4-0.4,16.7,3.5,18.2c3.3,1.3,7-4.3,13-13.7
		c5.2-8,11.6-17.9,20.1-27.4c-5,9.2-10.2,18.8-16.6,28.3c-2,3-3.8,5.5-5.5,7.7c-4.8,6.5-8.1,10.8-7.3,17.4
		c0.9,7.9,7.7,17.5,15.9,18.5c3.3,0.4,5.5-0.7,7.7-1.8c1.6-0.8,3.1-1.6,5-1.6c-12.7,11.1-27.9,16.9-36.1,17.5
		c-25,1.7-48.2-1.8-70.7-5.2c-22.4-3.4-43.5-6.6-66.4-5.1c-26,1.7-49.5,9.3-74.1,23.8c-0.4,0.2-0.5,0.8-0.3,1.2
		c0.2,0.4,0.8,0.5,1.2,0.3c53.4-31.5,95.2-25.1,139.4-18.4c22.5,3.4,45.9,7,71.1,5.2c8.7-0.6,25.1-6.9,38.2-19
		c5.8,1.4,10.6,8.3,12.2,14.4c0.8,3-0.4,6.3-1.9,10.5c-1.9,5.4-4.3,12-3.5,20.7c0.4,4.5,1.5,8.1,2.4,11.3c1.5,5,2.6,8.9,0.6,13.4
		c-1.1,2.4-2.6,3.5-3.9,4.5c-1.4,1.1-2.7,2.1-3,4.1c-0.5,3.3,1.9,4.6,5.3,6.4c1.4,0.8,3.1,1.6,4.8,2.9c10.1,6.9,19,12.7,23.6,12.7
		c1.1,0,1.9-0.3,2.5-1c1.5-1.8-0.1-4-2.6-7.4c-3.2-4.3-7.9-10.8-10.3-21.2c-2-8.6-0.9-16.7,0.3-24.4c0.4-2.7,0.8-5.5,1-8.2
		c0.7-7.9,2.4-11.2,4-14c1.4-2.6,2.6-4.9,2.6-9.7c0-4.8-2.9-19.8-11.7-35.8c-1.4-2.5-2.6-4-3.5-5.1c6.5-11.6,12.5-24.2,12-27.7
		c-0.1-0.6-0.3-1-0.7-1.3c-0.6-0.4-1.5-0.3-2.5,0.2c-4.6,2.5-13.6,13.9-13.6,23.2c0,3.1,0.8,4,2.3,5.4c0.1,0.1,0.3,0.3,0.4,0.4
		c-4.4,7.9-8.9,14.8-11.7,18c-1.7,2-3.5,3.9-5.4,5.7c-3.2-0.5-5.4,0.7-7.5,1.7c-2,1-3.9,2-6.7,1.7c-6.7-0.8-13.5-8.9-14.4-17
		c-0.7-5.9,2.2-9.8,7-16.2c1.7-2.2,3.5-4.7,5.5-7.7c6.8-10.1,12.4-20.5,17.4-29.8c0.8-1.4,1.5-2.9,2.3-4.3c2.8-2.7,5.7-5.4,8.8-7.9
		c9.8-7.8,20.4-12,39.1-15.4c8.8-1.6,16.8-1.2,23.2-0.9c7.7,0.4,12.8,0.6,14.3-3c0.4-0.9,0.4-1.9,0.2-2.8c4.5,1.9,9.2,4.1,14.1,6.7
		c11.9,6.4,29.8,16.2,35,33.9c1,3.3,1,5.2,1.1,8.1c0.1,3,0.2,6.7,1.3,13.7c1.2,7,2.3,12.6,3.3,17.6c2.3,11.7,3.6,18.1,1.6,23.9
		c-2.5,7.1-9.8,8.5-18.3,9.5c-1.1,0.1-2.1,0.3-3.2,0.4c-5.5,0.8-10.7,1.5-14.9-1.4c-3.3-2.2-5.3-5.5-6.5-8.7
		c0.2-1.4,0.4-2.8,0.7-4.1c1-4.3,2.7-7.2,4.7-8.1c2.5-1,6,1.1,8.9,2.8c2.7,1.6,4.7,2.8,5.8,1.5c1.2-1.3-0.1-3.2-2.3-6.4
		c-2.8-4.2-7.1-10.4-7-17.6c0.1-6.8,4.3-13.7,11.8-19.5c0.5-0.4,0.7-0.5,0.7-0.9c0-0.3-0.1-0.5-0.3-0.7c-0.3-0.2-0.6-0.3-1-0.1
		c-0.7,0.3-7.2,5-13.5,12.4c-5.8,6.8-12.6,17.5-12.4,29.8c0,1.9,0.3,6.5,2,11.2c-1.1,9.8,1.1,21.9,7.6,29.7
		c10.9,12.9,30.9,10.2,61.2,6.1c9.5-1.3,20.3-2.7,32.2-3.9c22.9-2.2,44.5-4.3,92,0.5c0.5,0.1,0.9-0.3,0.9-0.8
		C605,226,604.7,225.5,604.3,225.6L604.3,225.6z M326.4,162.9c0-7.7,6.6-16.8,11-20.5c1.3-1.1,2.1-1.4,2.4-1.4
		c0.3,1.2-1.6,7.5-8.4,20.5c-1,1.9-2.1,3.9-3.1,5.8c0,0-0.1-0.1-0.1-0.1C326.8,165.9,326.3,165.4,326.4,162.9L326.4,162.9z
		 M317,187.9c2.8-3.3,7.2-10.3,11.6-17.9c0.9,1,1.8,2.3,3,4.4c7.8,14.2,11.4,29.3,11.5,35c0,4.4-1,6.4-2.4,8.9
		c-1.5,2.9-3.4,6.4-4.2,14.7c-0.2,2.7-0.6,5.3-1,8.1c-1.1,7.9-2.3,16.1-0.2,25c2.4,10.7,7.4,17.4,10.6,21.8c1.9,2.6,3.3,4.5,2.7,5.3
		c-0.4,0.5-2.1,1.2-9-2.5c-4.8-2.6-10.6-6.6-14.8-9.5c-1.8-1.2-3.5-2.2-5-3c-3.3-1.8-4.7-2.6-4.4-4.6c0.2-1.3,1-2,2.3-3
		c1.4-1.1,3.1-2.4,4.4-5.2c2.3-5,1-9.4-0.5-14.6c-0.9-3.2-2-6.7-2.4-11c-0.7-8.3,1.6-14.8,3.4-20c1.5-4.3,2.9-8.1,2-11.5
		c-1.7-6.4-6.3-13.3-12.4-15.4C313.9,191.4,315.5,189.7,317,187.9L317,187.9z M391.2,77c10.9,2.4,19.1,9.6,19.6,11.4
		c-0.8,0.2-3.5-0.3-5.5-0.7c-0.9-0.2-1.8-0.4-2.8-0.5c-2-0.4-3.9-0.6-5.6-0.8c-0.6-0.8-1.3-1.5-2-2.4c-1.8-2.1-3.9-4.5-5.4-7.3
		C390,76.7,390.6,76.8,391.2,77L391.2,77z M387.4,76.4c1.7,3.3,4.1,6.1,6.2,8.6c0.3,0.4,0.6,0.7,0.9,1.1c-1.1-0.1-2.2-0.1-3.2-0.1
		c-8-2.8-15.2-4.5-21.5-6.1c-1.7-0.4-3.3-0.8-4.8-1.2c0.1,0,0.1,0,0.2,0c7.1,0.3,11.2-0.6,14.5-1.4
		C382.2,76.7,384.4,76.3,387.4,76.4L387.4,76.4z M345.6,66.8c-1.1-3.2-1.1-6.7-0.5-9.9c0.4,1.1,0.9,2.2,1.4,3.3
		c0.4,0.8,0.6,1.8,0.7,2.7c0.2,1.3,0.4,2.6,1.4,3.3c0.6,0.4,1.3,0.5,2.3,0.3c3.3-0.7,3.1-8.2,2.5-12.5c-0.4-3-1.5-8-4.1-7.9
		c-1,0.1-1.9,0.8-2.8,2.2c-0.4,0.7-0.9,1.5-1.3,2.4c-1.1-5.3-0.8-10.5,1-14.9c0.3-0.7,7.2-17.8,23.2-19.4c3.3-0.3,11.5-0.5,17.8,5.3
		c10.1,9.3,9,21.3,6.8,26.9c-1.6,4.1-3.3,6.5-4.8,8.7c-2,2.8-3.5,5.1-3.7,9.5c-0.1,2.8,0.4,5.4,1.3,7.7c-2.8-0.1-5,0.4-7.3,1
		c-3.4,0.8-7.2,1.6-14,1.3c-5.1-0.2-7.2-0.9-10.3-1.9c-0.9-0.3-1.8-0.6-2.9-0.9C348.9,72.4,346.7,70.1,345.6,66.8L345.6,66.8z
		 M345.8,53.8c0.6-1.8,1.3-3.3,2-4.4c0.8-1.1,1.3-1.4,1.5-1.4c0.4,0,1.6,1.8,2.3,6.4c0.8,5.6,0,10.3-1.2,10.5
		c-0.3,0.1-0.7,0.1-0.9,0c-0.4-0.3-0.5-1.2-0.7-2.2c-0.2-1-0.3-2.2-0.9-3.2C347.1,57.6,346.3,55.7,345.8,53.8L345.8,53.8z
		 M327.2,43.3c0-0.4,0.1-1.1,0.1-1.9c0.2-1.9,0.5-4.4,0.1-7c2.1,2.5,4,5.5,5.2,8.6c2.7,6.9,1.9,13.6-2.1,18.7
		c-2.5,3.2-5.2,4.6-7.4,5.1c0-0.1-0.1-0.2-0.1-0.2c-0.5-1-0.3-1.8,0.6-4.8c0.5-1.6,1.1-3.8,1.8-7C326.6,49,327.3,46.2,327.2,43.3z
		 M325.1,31.8c1.3,3.4,0.9,7,0.6,9.4c-0.1,0.8-0.2,1.6-0.2,2.1c0,2.7-0.6,5.5-1.9,11.1c-0.7,3.1-1.3,5.3-1.8,6.9
		c-0.9,3-1.2,4.2-0.6,5.8c-0.9,0.1-1.8,0.1-2.4,0.1c-0.6,0-1.1,0-1.5,0c-3.7,0.6-16.2,1.6-23.3-7.6c-2.4-3.1-4.1-7-5.1-11.2
		c0.8-3.5,1.9-7,4-11c3.7-7.2,14.7-12,23.5-10.5C319.3,27.5,322.3,29.2,325.1,31.8L325.1,31.8z M294.7,25.8c3.1-3.2,7.9-5,12.8-5
		c2,0,4,0.3,5.9,0.9c2.6,0.9,6.3,3.6,8.3,5.5c-1.6-1-3.3-1.6-4.9-1.9c-9.7-1.7-21.3,3.5-25.3,11.4c-1.3,2.6-2.3,5.1-3.1,7.4
		C288.1,37.6,289.8,30.8,294.7,25.8L294.7,25.8z M285.7,75.8c12.3-6.4,23.5-5.6,29.9-2.5c3.6,1.7,5.8,4.3,6,6.8
		c0.3,3.9-10.1,14.4-17.6,18.9c-7.3,4.3-15.3,7.3-20.9,8.4c0.9-4.3,0.8-5.4,0-6.1c-0.7-0.7-1.4-1-2.1-1c-0.1,0-0.1,0-0.2,0
		c-0.8,0.1-1.5,0.5-2.3,1.3c0.9-1.7,1.8-3.8,2.6-6.5C283.4,87.5,284.8,81.2,285.7,75.8L285.7,75.8z M274.1,107.5
		c-1.9,2.4-4.3,5.3-7.6,8.2c-3.3,2.9-7.6,6.4-11.7,9.7c-7.4,5.9-14.3,11.6-16.4,14.4c-1.5,2.1-2.6,6.4-3.7,10.5
		c-0.7,2.8-1.9,7.3-2.8,8.4c-0.1-0.5-0.1-1.4-0.1-2.2c-0.1-2.8-0.1-6.2-2.6-6.9c-3-0.8-5.8,3.6-8.6,7.8c-1.3,2-3.2,4.9-4,5
		c-0.1-0.1-0.4-0.5-0.6-1.5c-0.5-2.4-0.5-7.2,1.9-10.9c0.9-1.3,2-2.1,3.5-3.1c1.9-1.3,4.3-2.8,7.4-6.3c2.7-3,4.6-6.2,6.9-10
		c2.5-4,5.2-8.6,9.8-14.5c3.9-5.1,7.1-7.7,10.6-10.4c3.6-2.9,7.6-6.1,13-12.7c2.6-3.2,4.4-5.7,5.8-7.6c2.3-3.2,3.6-5,6.2-6.8
		c0.9-0.6,1.8-1.2,2.7-1.7c-0.9,5-2.3,10.8-4.3,17.7c-1.3,4.5-3,7.5-4.2,9.4C274.4,105.5,273.8,106.5,274.1,107.5L274.1,107.5z
		 M276.2,107.4c0.4-0.5,0.7-1,1.1-1.4c1.5-2.1,2.8-3.9,3.7-4c0.1,0,0.4,0,1,0.5c0.3,0.3,0.1,2-0.6,5.2
		C278.9,108.1,277.1,108,276.2,107.4z M312.5,120.1c-10.9,11-19,23.4-24.7,32.2c-4.8,7.4-9,13.9-11,13.1c-2.8-1.1-2.6-10.8-2.5-16.6
		c0.2-6.1,1.2-10.4,3.5-19.7c0.7-2.9,1.3-5.4,1.9-7.7c1.3-5.4,2.3-9.2,2.9-12c6.7-1.2,15.7-4.9,22.2-8.8
		c7.4-4.4,18.8-15.5,18.4-20.5c-0.3-3.2-2.8-6.2-7-8.2c-6.5-3.2-17.9-4.2-30.3,1.9c0.8-5.3,1.2-9.7,1.6-13.6
		c0.3-2.8,0.5-5.3,0.8-7.7c1.1,3,2.5,5.9,4.4,8.3c7.6,10,21,8.8,24.9,8.2c0.3,0,0.7,0,1.2,0c0.9,0,2.1,0,3.5-0.2
		c2,2.2,5.9,2.8,11.7,3.6c1,0.1,2.1,0.3,3.2,0.5c7,1.1,11.2,2.1,14.1,3c4.4,2.4,10.5,3.9,18,5.8c5.1,1.2,10.7,2.6,16.9,4.6
		c-2.9,0.2-5.7,0.6-8.5,1c-5.8,0.8-12.4,1.8-22.6,1.3c-5.8-0.3-9.5-1.1-11.9-1.7c-2.5-0.6-4-1-5.5,0
		C327.9,93,320.5,105.4,312.5,120.1L312.5,120.1z M397.8,93.1c-1,2.5-5.9,2.3-12.7,2c-6.5-0.3-14.5-0.7-23.6,1
		c-19,3.5-29.8,7.8-39.8,15.8c-1.7,1.4-3.5,2.8-5.1,4.3c6.9-12.4,13.5-22.6,22-28c0.3-0.2,0.7-0.3,1.2-0.3c0.7,0,1.6,0.2,3,0.5
		c2.5,0.6,6.2,1.5,12.2,1.7c10.4,0.5,17-0.5,22.9-1.3c4.3-0.6,8.2-1.2,13-1.1c2.1,0.7,4.2,1.5,6.4,2.4
		C397.9,91.2,398.1,92.2,397.8,93.1L397.8,93.1z M411.8,190.9c-0.8-3.2-0.9-5.9-0.9-7.3c-0.2-12.7,7.3-23.7,14.1-31.1
		c-1.8,3.3-2.8,6.7-2.9,10.1c-0.2,7.7,4.3,14.3,7.3,18.6c1.1,1.6,2.5,3.6,2.4,4.2c-0.6,0.1-2.5-1-3.7-1.8c-3.2-1.9-7.2-4.2-10.4-2.9
		c-2.5,1.1-4.5,4.3-5.7,9.2C412,190.3,411.9,190.6,411.8,190.9L411.8,190.9z"/>
	<path class="st1" d="M347.4,296.4c-5,0-13.9-5.8-24.2-12.8c-1.7-1.1-3.2-2-4.6-2.7l-0.1-0.1c-3.3-1.8-6.4-3.4-5.8-7.5
		c0.3-2.5,2-3.8,3.4-4.9c1.3-1,2.6-2,3.5-4.1c1.9-4.1,0.8-7.8-0.6-12.6c-1-3.3-2.1-7-2.5-11.6c-0.8-8.9,1.6-15.7,3.6-21.2
		c1.5-4.1,2.6-7.3,1.9-9.9c-1.4-5.5-5.6-11.9-10.8-13.5c-12.7,11.5-28.9,18.2-38.5,18.8c-25.2,1.8-48.5-1.8-71.1-5.2l-0.3,0
		c-44-6.7-85.6-13.1-138.6,18.3c-1,0.5-2.1,0.2-2.7-0.7c-0.6-1-0.2-2.2,0.7-2.7c24.7-14.6,48.4-22.2,74.6-23.9
		c23-1.5,44.1,1.7,66.5,5.1l0.2,0c22.4,3.4,45.5,7,70.4,5.2c7.3-0.5,19.2-5,30-12.9c-1.8,0.8-3.8,1.4-6.6,1.1
		c-8.8-1.1-16-11.1-16.9-19.5c-0.8-7,2.7-11.7,7.5-18.1l0.1-0.1c1.5-2.1,3.5-4.6,5.5-7.6c4-5.9,7.5-11.8,10.8-17.8
		c-4.9,6.4-8.9,12.6-12.4,18l-0.1,0.1c-6.6,10.2-10.2,15.8-14.4,14.2c-4.7-1.8-4.4-11.1-4.2-19.2c0.2-6.5,1.2-10.9,3.5-20.4
		c0.7-2.9,1.3-5.4,1.9-7.7c1-3.9,1.8-7.2,2.4-9.8c-1.6,0-2.9-0.1-3.9-0.5c-1.6,2-3.9,4.8-7.1,7.6c-3.5,3-7.9,6.6-11.8,9.7
		c-6.6,5.3-14,11.3-15.9,13.9c-1.2,1.7-2.4,6-3.3,9.5c-1.8,6.8-2.8,10.3-5.5,10.7c-0.6,0.1-1.3-0.1-1.9-0.5
		c-1.1-0.9-1.1-2.4-1.2-4.5l0-0.2c0-1-0.1-3.5-0.5-4.1c-1.2,0.1-4.2,4.8-5.4,6.5l-0.1,0.1c-2.6,4-4.7,7.1-7.3,6.1
		c-1-0.4-1.7-1.3-2.1-2.6c-1-3-1-9.3,2-14c1.2-1.9,2.8-2.9,4.4-3.9c1.8-1.2,4-2.7,6.8-5.8c2.5-2.8,4.3-5.8,6.6-9.6
		c2.4-4,5.4-8.8,9.9-14.8c4.1-5.4,7.5-8.1,11-10.9c3.6-2.9,7.4-5.9,12.6-12.3c2.5-3,4.2-5.3,5.7-7.5c2.4-3.3,3.9-5.4,7-7.5
		c1.1-0.7,2.2-1.4,3.6-2.2c0.9-5.7,1.3-10.3,1.7-14.1c0.4-4.4,0.7-7.8,1.4-11.3c-0.4-1.7-0.6-3.5-0.6-5.3c-0.2-5.3,0.9-13,7-19.4
		c5.1-5.3,14.2-7.3,21.7-4.8c4.1,1.4,9.8,6.3,11,7.7c0.9,1.1,1.6,2.2,2.2,3.6c3.4,3.3,6.1,7.5,7.8,11.7c3,7.9,2.1,15.5-2.5,21.5
		c-1.6,2.1-3.5,3.7-5.5,4.8c1.7,0.5,4.1,0.8,7,1.3l0.2,0c1,0.1,2.1,0.3,3.2,0.5c2.6,0.4,4.9,0.8,6.9,1.2c-0.7-1.1-1.3-2.2-1.7-3.5
		c-1.3-3.9-1.3-9,0-13.9c-1.8-6.7-1.6-13.4,0.6-18.9c0.8-2,8.5-19.5,25.6-21.2c3.6-0.4,12.9-0.5,20,6c11.3,10.3,10,23.8,7.5,30.1
		c-1.7,4.3-3.6,7-5.1,9.2l-0.1,0.1c-1.9,2.7-3.1,4.4-3.3,8c-0.1,2.3,0.3,4.4,1.2,6.7c0.8,0.1,1.6,0.2,2.5,0.4
		c11.2,2.4,19.8,9.5,21.4,12.7c0.6,1.2,0.5,2.2,0.2,2.7c-0.9,2.1-3.5,1.8-7.3,1.1c3,1.4,6,2.9,8.9,4.5c12.3,6.7,30.8,16.8,36.3,35.5
		c1.1,3.7,1.2,6,1.2,8.9c0.1,2.9,0.2,6.5,1.3,13.3c1.1,6.7,2.2,12.1,3.3,17.5c2.4,12.2,3.7,18.9,1.5,25.4
		c-3,8.7-11.8,10.4-20.7,11.4c-0.7,0.1-1.5,0.2-2.2,0.3l-0.9,0.1c-5.8,0.8-11.8,1.7-16.9-1.9c-1.5-1-2.9-2.3-4.1-3.8
		c0.4,8.2,3,15.8,7.2,20.8c9.9,11.7,29.3,9.1,58.6,5.2l1.6-0.2c9.1-1.2,19.4-2.6,30.7-3.7c22.4-2.1,43.6-4.2,88.7,0.1l0,0l3.7,0.3
		c0.6,0.1,1.2,0.4,1.5,1l2.2,1.7l-2-0.2c-0.1,0.4-0.3,0.7-0.7,1c-0.4,0.3-1,0.5-1.5,0.4c-47.4-4.8-68.9-2.7-91.7-0.5
		c-11.6,1.1-22.2,2.5-31.5,3.8l-0.6,0.1c-30.7,4.1-50.9,6.8-62.2-6.5c-7.2-8.6-8.8-21.2-7.9-30.3c-1.6-4.6-2-9-2-11.3
		c-0.2-12.6,6.8-23.6,12.7-30.5c6.4-7.4,13-12.2,13.9-12.6c0.7-0.3,1.6-0.2,2.2,0.3c0.5,0.5,0.7,1,0.7,1.5c0,1-0.6,1.4-1.1,1.8
		c-7.2,5.6-11.2,12.2-11.4,18.6c-0.1,6.8,4,12.9,6.8,16.9c2.3,3.4,4,5.9,2.1,7.8c-1.8,1.9-4.3,0.4-7.2-1.3c-2.5-1.5-5.9-3.5-7.9-2.7
		c-1.2,0.5-2.9,2.7-4,7.3c-0.3,1.1-0.5,2.4-0.7,3.7c1.4,3.5,3.4,6.2,6,8c3.9,2.6,8.8,1.9,14.1,1.2l0.9-0.1c0.8-0.1,1.6-0.2,2.4-0.3
		c8.5-1,15.2-2.3,17.4-8.7c1.9-5.5,0.6-11.7-1.6-23.1l0-0.1c-0.9-4.6-2.1-10.4-3.3-17.6c-1.2-7.2-1.3-11-1.4-13.8
		c-0.1-2.8-0.1-4.6-1.1-7.8c-5.1-17.2-22.7-26.8-34.4-33.2c-4-2.2-8.1-4.2-12.3-6c-0.1,0.5-0.2,1-0.4,1.5c-0.6,1.4-1.6,2.4-3,3
		l-0.7,1.8v-1.5c-2.8,0.9-6.8,0.7-11.7,0.5c-6.3-0.3-14.1-0.7-22.9,0.9c-18.5,3.4-28.9,7.5-38.6,15.2c-2.9,2.3-5.8,4.9-8.6,7.7
		c-0.7,1.4-1.5,2.7-2.2,4.1c-5,9.2-10.6,19.7-17.5,29.9c-2.1,3.1-4,5.6-5.6,7.8c-4.8,6.4-7.4,9.9-6.8,15.4c0.8,7.5,7.4,15.2,13.4,16
		c2.5,0.3,4.1-0.6,6.1-1.5c2.1-1.1,4.4-2.3,7.6-1.9c1.8-1.7,3.4-3.4,5-5.3c2.6-3,6.7-9.4,11.1-17.1c-1.5-1.5-2.4-2.6-2.4-6.1
		c0-9.8,9.2-21.5,14.2-24.2c1.8-1,3-0.6,3.7-0.2c0.6,0.4,1.1,1.2,1.2,2c0.7,4.9-8.9,22.6-11.7,27.7c0.8,1,1.9,2.4,3.2,4.7
		c8.8,16.1,11.8,31.5,11.8,36.4c0,5.1-1.3,7.6-2.7,10.2c-1.5,2.8-3.1,5.9-3.8,13.6c-0.2,2.6-0.6,5.3-1,7.9l-0.1,0.4
		c-1.1,7.6-2.2,15.5-0.3,24c2.3,10.1,7,16.5,10.1,20.7c2.6,3.5,4.7,6.3,2.5,8.8C349.9,295.9,348.8,296.4,347.4,296.4z M314.3,192.6
		c5.9,2.8,10,9.6,11.5,15.5c1,3.8-0.5,7.9-2,12.2c-1.8,5.1-4.1,11.4-3.4,19.5c0.4,4.2,1.4,7.7,2.3,10.8c1.5,5.1,2.9,9.9,0.4,15.3
		c-1.4,3-3.3,4.5-4.7,5.6c-1.3,1-1.8,1.5-1.9,2.3c-0.2,1.1,0.3,1.6,3.8,3.5c1.4,0.8,3.2,1.7,5,3c5,3.5,10.3,7,14.7,9.4
		c4.9,2.7,6.8,2.8,7.4,2.8c-0.3-0.8-1.6-2.6-2.5-3.9l-0.1-0.1c-3.3-4.5-8.2-11.3-10.7-22.1c-2.1-9.1-0.9-17.4,0.2-25.4
		c0.4-2.8,0.8-5.4,1-8.1c0.8-8.5,2.7-12.2,4.3-15.1c1.3-2.4,2.3-4.2,2.2-8.3c0-5.6-3.7-20.5-11.3-34.5c-0.6-1.1-1.2-2.1-1.8-2.9
		c-4.3,7.4-8.3,13.6-10.8,16.6l-2,2.4v-0.2C315.4,191.4,314.8,192,314.3,192.6z M604.2,226.1C604.2,226.1,604.2,226.1,604.2,226.1
		C604.2,226.1,604.2,226.1,604.2,226.1z M411.6,192.6c0.1,0.3,0.2,0.6,0.3,0.8c0.1-0.4,0.1-0.9,0.2-1.3L411.6,192.6z M421.5,158.3
		c-5.1,6.6-9.7,15.4-9.5,25.2c0,0.5,0,1.3,0.1,2.4c1.3-3.2,3-5.3,5.1-6.2c3.7-1.6,8,0.9,11.4,2.9c0.2,0.1,0.4,0.3,0.6,0.4
		c-0.3-0.5-0.6-0.9-0.8-1.2c-3.1-4.5-7.6-11.2-7.5-19.3C421,161.2,421.2,159.8,421.5,158.3z M430.7,185.5L430.7,185.5L430.7,185.5z
		 M327.5,163.4c0,1,0.1,1.5,0.5,2c0.8-1.4,1.6-2.9,2.4-4.4c5.1-9.7,7.2-15.2,8-17.9c-0.1,0.1-0.2,0.1-0.2,0.2
		c-4.3,3.6-10.6,12.3-10.6,19.6L327.5,163.4z M283.6,110.3c-0.6,2.7-1.5,6.3-2.8,11.3c-0.6,2.3-1.2,4.8-1.9,7.7
		c-2.3,9.2-3.3,13.5-3.4,19.5c-0.1,3.7-0.4,14.7,1.7,15.5c1.4-0.1,6.1-7.3,9.5-12.5l0.1-0.1c5.9-9,13.8-21.3,24.7-32.3
		c8-14.6,15.4-27.2,25.5-33.6c1.9-1.2,3.8-0.8,6.4-0.1c2.2,0.5,5.8,1.4,11.6,1.7c10,0.5,16.6-0.5,22.3-1.3l0.2,0
		c1-0.1,1.9-0.3,2.9-0.4c-4.2-1.2-8.1-2.1-11.4-2.9c-7.3-1.8-13.5-3.4-18.1-5.8c-3.7-1.1-8.1-2-13.9-2.9c-1.1-0.2-2.2-0.3-3.2-0.5
		c-5.7-0.8-9.6-1.4-12-3.6c-1.1,0.1-2.1,0.1-2.8,0.1h-0.2c-0.7,0-1,0-1,0c-0.6,0.1-1.3,0.2-2.2,0.3c0.4,0.2,0.8,0.3,1.2,0.5
		c4.5,2.2,7.3,5.5,7.6,9.1c0.5,6-12.2,17.5-18.9,21.6C298.6,105.5,290,109,283.6,110.3z M217.4,161.7L217.4,161.7L217.4,161.7z
		 M282.2,79.2c-0.2,0.1-0.3,0.2-0.5,0.3c-2.5,1.7-3.6,3.3-6,6.5c-1.5,2-3.2,4.5-5.8,7.7c-5.4,6.6-9.5,9.9-13.1,12.8l-0.2,0.2
		c-3.3,2.7-6.5,5.2-10.3,10.2c-4.4,5.7-7.1,10.2-9.5,14.2l-0.2,0.3c-2.3,3.8-4.3,7.1-7,10.1c-3.2,3.6-5.6,5.2-7.6,6.5
		c-1.5,1-2.5,1.6-3.2,2.8c-2.1,3.3-2.2,7.7-1.8,9.9c0.8-1.1,2-2.8,2.6-3.7c3-4.6,6.1-9.3,9.9-8.3c2.2,0.6,3,2.6,3.3,4.8
		c0.4-1.2,0.7-2.4,0.9-3.2l0.1-0.4c1.1-4.1,2.2-8.4,3.8-10.6c2.2-3,9.2-8.6,16.6-14.6c4.5-3.6,8.5-6.9,11.7-9.7
		c3.2-2.8,5.5-5.5,7.1-7.6c-0.1-1.1,0.6-2.2,1.4-3.7c1.1-1.8,2.8-4.8,4.1-9.2C279.9,89,281.2,84.1,282.2,79.2z M429,147.6l-0.2,0.3
		c0.2-0.2,0.4-0.4,0.6-0.7C429.3,147.3,429.1,147.5,429,147.6z M312.6,120.1l0.2,0.2l0.1-0.1L312.6,120.1z M339.8,89
		c-0.3,0-0.5,0.1-0.6,0.1c-6.8,4.3-12.4,11.9-18.4,22c0.1,0,0.1-0.1,0.2-0.1c10.2-8.1,21.1-12.5,40.3-16c9.2-1.7,17.3-1.3,23.8-1
		c5.9,0.3,10.8,0.5,11.6-1.3l0-0.1c0.1-0.3,0.1-0.8-0.2-1.6c-2-0.8-3.9-1.5-5.8-2.1c-4.6,0-8.4,0.5-12.5,1.1l-0.5,0.1
		c-5.9,0.8-12.6,1.8-22.9,1.3c-6-0.3-9.7-1.2-12.2-1.7l-0.2,0C341.3,89.2,340.4,89,339.8,89z M275.2,106.5c-0.1,0.2-0.1,0.4-0.1,0.5
		l0.2-0.2c0.2-0.3,0.4-0.6,0.6-0.8c0.1-0.1,0.2-0.2,0.2-0.3L275.2,106.5z M278.1,106.8c0.5,0,1.3,0,2.3-0.1c0.5-2.1,0.6-3.1,0.6-3.5
		c-0.6,0.5-1.8,2.2-2.7,3.4C278.1,106.7,278.1,106.7,278.1,106.8z M280.9,99.2h0.2c1,0,2,0.4,2.9,1.3c1.1,1.1,1.2,2.5,0.7,5.5
		c4.9-1.2,11.9-3.7,18.9-7.9c7.6-4.5,17.3-14.7,17-17.8c-0.2-2.1-2.2-4.3-5.4-5.9c-6-2.9-16.5-3.8-28.4,2.2
		c-1.1,6-2.5,12.2-4.5,18.8C281.8,96.7,281.4,97.9,280.9,99.2z M392.9,87.2c1.4,0.5,2.9,1.1,4.5,1.7l-0.9-1.5l-2-0.1
		C393.9,87.2,393.4,87.2,392.9,87.2z M397.5,85.2c1.8,0.2,3.5,0.5,5.2,0.8l0.1,0c0.9,0.2,1.8,0.3,2.7,0.5c0.7,0.1,1.9,0.4,2.9,0.5
		c-2.6-2.5-8.8-6.9-16.6-8.8c1.2,1.7,2.6,3.3,3.8,4.8l0.5,0.6C396.6,84.2,397,84.7,397.5,85.2z M391.5,84.9c0.2,0,0.3,0,0.5,0
		c-1.8-2.1-3.7-4.5-5.3-7.3c-2.6-0.1-4.5,0.4-6.8,0.9c-1.8,0.4-3.9,0.9-6.6,1.2C378.8,81,384.8,82.6,391.5,84.9z M358.8,77.6h1.1
		c-1.6-0.3-2.9-0.7-4.3-1.1C356.7,76.9,357.7,77.2,358.8,77.6z M352.6,73.1c1,0.3,1.9,0.6,2.7,0.9c3,1,5,1.6,10,1.9
		c6.7,0.3,10.4-0.5,13.7-1.3c1.8-0.4,3.6-0.8,5.7-1l-1.3-2.5l1.2,1.2c-0.4-1.8-0.6-3.6-0.5-5.3c0.2-4.8,2-7.3,3.9-10.1
		c1.5-2.1,3.1-4.4,4.7-8.5c2.1-5.4,3.2-16.8-6.5-25.7c-5.9-5.4-13.8-5.3-16.9-5c-15.6,1.5-22.2,18.5-22.3,18.7
		c-1.3,3.3-1.8,7.1-1.4,11.1c1.1-1.4,2.2-2.2,3.4-2.3c2.7-0.2,4.4,2.8,5.3,8.8c0.3,2.1,1.6,12.6-3.3,13.7c-1.3,0.3-2.3,0.1-3.1-0.5
		c-1.4-1-1.6-2.6-1.9-4.1c-0.1-0.5-0.2-1-0.3-1.5c0,1.4,0.2,2.8,0.7,4.2l0.2,0.5C347.6,69.2,349.5,71.4,352.6,73.1z M289.1,56.8
		c-0.1,0.8-0.2,1.7-0.2,2.6l-0.1,0.9c-0.3,3.4-0.7,7.2-1.3,11.6c4.8-2.1,9.4-3.2,13.7-3.5c-3.3-1.4-6.6-3.5-9.2-6.9
		C290.9,59.9,289.9,58.4,289.1,56.8z M290.3,48.4c0.9,3.9,2.5,7.6,4.8,10.5c6.7,8.7,18.7,7.7,22.2,7.1c0.5-0.1,1-0.1,1.6-0.1l0.3,0
		c0.2,0,0.5,0,0.7,0c-0.1-1.4,0.3-2.8,0.9-5c0.5-1.7,1.1-3.9,1.8-6.9c1.2-5.3,1.9-8.2,1.9-10.8c0-0.5,0.1-1.1,0.1-1.9l0-0.4
		c0.2-2.2,0.6-5.6-0.5-8.6c-2.6-2.4-5.3-3.9-7.7-4.4c-8.4-1.5-18.9,3.1-22.3,9.9C292.3,41.4,291.1,44.8,290.3,48.4z M328.4,43.2
		c0.1,3-0.6,5.8-1.9,11.4l-0.1,0.3c-0.7,3.1-1.3,5.3-1.8,7.1c-0.5,1.9-0.7,2.8-0.8,3.3c2.1-0.8,4.1-2.2,5.8-4.4
		c3.8-4.8,4.4-11.1,1.9-17.6c-0.7-1.8-1.6-3.7-2.8-5.4c0,1.4-0.2,2.6-0.3,3.5C328.4,42.1,328.4,42.8,328.4,43.2z M347,53.9
		c0.5,1.7,1.2,3.4,2.1,5.2c0.6,1.2,0.8,2.5,1,3.6c0,0.3,0.1,0.7,0.2,1.1c0.5-1.1,1-4.3,0.3-9.1c-0.4-2.7-1-4.3-1.3-5.1
		c-0.1,0.1-0.3,0.3-0.4,0.6C348,51,347.4,52.4,347,53.9z M295.8,26.3L295.8,26.3l-0.3,0.3c-2.8,2.9-4.6,6.5-5.4,10.5
		c0.2-0.3,0.3-0.7,0.5-1c4-7.9,15.1-13.2,24.9-12.2c-0.9-0.5-1.7-0.9-2.4-1.2c-1.7-0.6-3.6-0.9-5.6-0.9
		C302.9,21.9,298.6,23.5,295.8,26.3z M321.5,27.7c1.2,0.7,2.4,1.5,3.5,2.5c-0.4-0.8-0.9-1.5-1.4-2.1c-0.3-0.3-0.8-0.8-1.4-1.4
		L321.5,27.7z"/>
</g>
</svg>
