<?xml version="1.0" encoding="utf-8"?>
<!-- Generator: Adobe Illustrator 27.4.1, SVG Export Plug-In . SVG Version: 6.00 Build 0)  -->
<svg version="1.1" id="_x2014_ÎÓÈ_x5F_1" xmlns="http://www.w3.org/2000/svg" xmlns:xlink="http://www.w3.org/1999/xlink"
	 x="0px" y="0px" viewBox="0 0 607.5 300" style="enable-background:new 0 0 607.5 300;" xml:space="preserve">
<style type="text/css">
	.st0{fill:#FFFFFF;}
	.st1{fill:#69A6C2;}
</style>
<rect x="2718.9" y="-828.3" class="st0" width="2200" height="2200"/>
<path class="st1" d="M604.4,205.9h-35.7l-6.9-0.4l5.9-166.9c0.1-3.1-1-6-3.1-8.2c-2.1-2.2-4.9-3.5-8-3.6l-249.7-6
	c-0.1,0-0.2,0-0.3,0c-6,0-10.9,4.6-11.3,10.6l-8.8,128.9c-4.8,1.1-10,2.4-15.8,4c-7.7,2.1-14.1,3.5-19.8,4.4
	c-6,0.9-11.4,1.2-16.6,0.8c-0.2-1.2-0.5-2.4-0.8-3.6c-2.8-8.9-7.8-10.2-10.5-10.1c-3.2,0.1-6.7,1.9-9.7,5c-0.7-0.6-1.4-1.2-2-1.8
	c-0.4-0.8-0.9-1.6-1.4-2.4c3.8-2,4.4-4.5,4.1-6.5c-1.7-11.2-29.6-15.2-48-14.4c-19.3,0.8-30.7,6.2-31.3,14.6
	c-2.8,44.2,9.2,73.6,13.4,82.3H2c-1,0-1.8,0.8-1.8,1.8s0.8,1.8,1.8,1.8h148.9c0.6,0,1.2-0.3,1.6-0.9c0.3-0.5,0.3-1.2,0-1.8
	c-0.2-0.3-17.3-31.9-14.3-82.5c0,0.1,0.1,0.2,0.1,0.4c1.4,4.3,17.6,6.7,27.2,7.7c12.1,1.3,28.6,1.9,38.6-0.4
	c1.4,1.7,3.1,3.3,4.9,4.8c0.2,0.6,0.4,1.2,0.5,1.8c-2.1,3.1-3.9,6.9-4.9,10.9c-1.2,4.6-0.6,8.8,1.4,10.6c1,0.8,2.2,1,3.4,0.6
	c3.3-1.4,4.3-7.8,4.5-12.9c0.1-2.7,0-5.2-0.4-7.6c5.4,3.5,11.6,6.1,17.4,7.2c-0.2,5.9-3,11.8-8.4,17.5c-6,6.2-13.6,10.5-16.6,12
	c-2.5,1.3-3.9,7-6.3,18.9c-0.5,2.7-1.1,5.2-1.5,7.2c-16.4-2.7-35.2-1.6-39.9,1.7c-2,1.4-1.8,3.1-1.6,3.8c0.3,1.1,1.4,4.6,14.7,4.9
	c7,0.2,26.6-1,29.3-6.3c5.3,1.1,10.2,2.5,13.8,4.5l-6.8,4c-2.2,1.3-3.3,3.8-2.7,6.2c0.5,2.5,2.5,4.3,5,4.5l289.1,31.1
	c0.6,0.1,1.2,0.1,1.8,0.1c4.8,0,9.5-2.1,12.6-5.9l47.4-55.8c0.3-0.3,0.4-0.7,0.4-1.1l0.4-12l6.8,0.4c0,0,0.1,0,0.1,0h35.8
	c1,0,1.8-0.8,1.8-1.8S605.4,205.9,604.4,205.9z M210.3,174c-0.3,6.3-1.5,8.9-2.1,9.6c-0.5-0.8-1.1-3.2-0.1-6.8
	c0.5-2.1,1.3-4.1,2.3-6C210.4,171.9,210.4,173,210.3,174z M166.7,235.8c-4.6-0.5-6.1-1.5-6.5-1.9c0.4-0.3,1.7-1,5.2-1.6
	c7.7-1.3,19.9-1.3,30.9,0.4C192.1,234.9,177.6,237.1,166.7,235.8z M223,159.4c0,0,0.1,0,0.1,0c3.8,0,5.8,4.1,6.9,7.6
	c0.2,0.7,0.4,1.4,0.5,2.1c-5.8-1.1-10.6-3.4-14.5-6.1C218.3,160.8,220.7,159.4,223,159.4z M138.4,149.2c1.6-5.5,12-9.3,27.6-10
	c21.7-0.9,43.2,4.6,44.3,11.4c0.1,0.4,0.3,1.7-2.8,3.1c-1.3-1.5-2.9-2.9-4.6-4.1c-8.5-6-20.4-7.5-30.1-7.5c-1.5,0-2.9,0-4.3,0.1
	c-11.4,0.5-22.4,2.8-27.4,4.9C139.6,147.7,138.8,148.5,138.4,149.2z M142.3,150.5c0.1,0,0.1,0,0.2-0.1c3.7-1.5,14-4.1,26.2-4.7
	c9.7-0.4,23.2,0.4,32.2,6.7c0.3,0.2,0.6,0.4,0.9,0.7c-0.1,0.2-0.2,0.4-0.3,0.6c-0.1,0.5,0,1,0.2,1.4c0,0.1,0.1,0.1,0.1,0.2
	C184.1,158.7,148.2,154,142.3,150.5z M557.7,220.4l-47,55.3c-2.8,3.3-7,5-11.3,4.5l-289.1-31.1c-1.5-0.2-1.8-1.4-1.9-1.7
	c-0.1-0.4-0.2-1.6,1-2.4l9.3-5.5c0.5-0.3,0.8-0.9,0.9-1.5c0-0.6-0.3-1.2-0.7-1.5c-4.1-3-10.4-5.1-17.3-6.5c0.5-2,1-4.4,1.5-7.1
	c1.1-5.3,3.1-15.1,4.5-16.4c6.8-3.5,26.2-15,26.9-32.2c5.1,0.4,10.6,0.1,17.1-0.9c5.8-0.9,12.5-2.3,20.3-4.5
	c5.2-1.4,9.9-2.6,14.2-3.7l-2.1,30.5L221.5,234c-0.7,0.4-1,1.2-0.8,2c0.2,0.8,0.8,1.3,1.6,1.4l96.3,8.1l-2.5,1.9
	c-1.3,1-1.9,2.6-1.4,4.1c0.4,1.6,1.7,2.7,3.3,2.8l87.9,8.5c5.1,0.5,10.2-1.5,13.6-5.3l12.9-14.5c0.5-0.5,0.6-1.2,0.3-1.9
	c-0.3-0.6-0.8-1.1-1.5-1.1l-80.7-6.9c-3.4-0.3-6.8,0.7-9.5,2.8l-9.2,7.1l-3.3-0.3l9.5-7.1c0.6-0.4,0.9-1.2,0.7-1.9
	c-0.2-0.7-0.8-1.2-1.6-1.3l-63.1-4.7c-0.8-0.1-1.1-0.7-1.2-1c-0.1-0.2-0.2-0.9,0.5-1.4l22.9-16c2.2-1.5,4.9-2.3,7.6-2.1l156.1,11.3
	l-18.5,16.7c-1.6,1.5-2.2,3.7-1.5,5.8c0.7,2.1,2.5,3.5,4.7,3.6l55.4,4c5.2,0.4,10.3-1.6,13.9-5.4l13.9-14.5c1.5-1.5,1.9-3.7,1.1-5.7
	c-0.8-2-2.6-3.3-4.7-3.5l-55.5-4c2.5-1.7,5.4-2.5,8.4-2.2l62.3,4.3c2.9,0.2,5.6-0.7,7.7-2.7c1.9-1.7,3.1-4,3.4-6.4l7.5,0.4
	L557.7,220.4z M548.2,177.3c0,0-0.1,0-0.1-0.1c-13.2-3.9-27.2-4.7-41.6-2.2c-5.5,1-10.8,2.4-15.5,3.7l-0.9,0.2
	c-4,1.1-8.2,2.2-12.3,3c-4.9,0.9-9.3,1.3-13.6,1.2c-5.5-0.2-11.2-1-16.9-2.3c-5.4-1.3-10.9-3-16.5-5.2c-1.3-0.5-2.5-1-3.7-1.6
	c4.8-1.6,9.3-3.5,13.5-5.6c12.6-6.3,22-14.5,28.1-24.5c6.4-10.4,9.1-23,7.6-35.4c-0.7-6.1-2.4-12-5-17.6c-2.5-5.5-5.9-10.6-10-15.1
	c-4.1-4.5-8.9-8.3-14.1-11.3c-5.4-3.1-11.2-5.2-17.3-6.2c-6.1-1.1-12.5-1.1-19.1-0.2c-5.9,0.8-11.5,2.5-16.7,5
	c-4.9,2.4-9.4,5.5-13.4,9.3c-7.6,7.2-13,16.5-15.9,27c-1.4,5.2-2.1,10.6-2.1,16c0,5.5,0.8,10.9,2.3,16c1.6,5.4,3.9,10.4,6.9,14.9
	c3.2,4.8,7.2,9,11.8,12.6c3.3,2.5,6.9,4.7,10.8,6.3c3.6,1.5,7.5,2.6,11.5,3.3c2.6,1.5,5.2,2.9,7.7,4.3c-3.1,0.7-6.4,1.4-9.6,1.9
	c-5.3,0.9-10.6,1.2-15.6,0.9c-5.3-0.3-10.5-1.2-15.3-2.6c-5.4-1.6-10.6-3.8-16-6c-8.4-3.5-14.3-5.7-19.9-7.4
	c-6.5-1.9-12.4-2.9-18.5-3.2c-6.4-0.3-13.4,0.2-21.7,1.6l7.5-122.3l248.8,6.4L548.2,177.3z M469.4,103.3c-1.5-6.5-4.2-12.6-7.9-18.2
	c-3.8-5.6-8.5-10.4-13.9-14c-5.7-3.9-12-6.5-18.8-7.7c-5.7-1-11.5-1.1-17.2-0.3c-4.9,0.8-9.6,2.2-13.8,4.2
	c-4.1,1.9-7.8,4.3-11.2,7.1c-3.2,2.7-6.1,5.9-8.5,9.5c-2.3,3.4-4.3,7.1-5.8,11c-1.6,4.3-2.7,8.9-3.3,13.5c-0.5,4.6-0.5,9.2,0.1,13.8
	c1.2,9.4,4.8,18,10.4,24.9c0.9,1.1,2.2,1.6,3.6,1.6c0,0.1,0,0.2,0,0.3c0,1.1,0.5,2.3,1.3,3.1l1.3,1.2c1.5,1.4,3.2,3,5,4.6
	c-1.4-0.8-2.7-1.7-4-2.7c-4.2-3.3-7.9-7.1-10.8-11.5c-2.8-4.1-4.9-8.7-6.3-13.6c-1.4-4.7-2.1-9.7-2.1-14.7c0-5.1,0.7-10.1,1.9-14.8
	c2.6-9.7,7.6-18.3,14.6-24.8c3.6-3.4,7.7-6.3,12.2-8.4c4.8-2.3,9.9-3.8,15.3-4.5c2.9-0.4,5.7-0.6,8.5-0.6c3.1,0,6.2,0.3,9.1,0.8
	c5.5,1,10.8,2.9,15.8,5.7c4.8,2.7,9.1,6.2,12.9,10.4c3.7,4.1,6.8,8.8,9.2,13.9c2.4,5.2,3.9,10.6,4.6,16.2
	c1.4,11.4-1.1,22.9-6.9,32.4c-2.7,4.5-6.2,8.6-10.4,12.3c4.2-3.9,7.7-8.3,10.5-13.2c2.9-5.3,4.8-11.1,5.7-17.1
	C471.4,116.8,471,110,469.4,103.3z M389.1,150c-0.4-0.3-0.7-0.7-1.1-1l5-5.1l7.3-4l6.9,7.4c1.7,1.8,4.5,1.9,6.4,0.3l8.7-7.8
	l38.9-34.6c1.9-1.6,2-4.5,0.4-6.4l-6.4-7.1c-1.6-1.9-4.5-2-6.3-0.4c-3.5,3-25.8,22.9-34.1,30.4c-1.6,1.4-2.7,2.4-3,2.7l-16.3-18.4
	c-1.6-1.9-4.5-2-6.4-0.4l-7.2,6.4c-0.9,0.8-1.4,1.9-1.5,3.1c-0.1,1.2,0.3,2.4,1.1,3.3l14.3,16v0l-5.5,5.6L383,144
	c-4.9-6.1-8.1-13.8-9.2-22.3c-0.5-4.1-0.6-8.4-0.1-12.7c0.5-4.3,1.5-8.5,3-12.4c1.4-3.6,3.2-7,5.2-10.1c2.2-3.2,4.7-6,7.7-8.5
	c3-2.6,6.4-4.8,10.1-6.5c3.9-1.8,8.1-3.1,12.6-3.8c5.2-0.8,10.5-0.7,15.7,0.2c12,2.1,22.5,9.1,29.6,19.7c3.4,5.1,5.8,10.7,7.2,16.7
	c1.4,6.1,1.7,12.3,0.9,18.5c-0.8,5.4-2.5,10.6-5.1,15.5c-2.5,4.6-5.9,8.8-9.9,12.4c-7.9,7.1-18.1,11.9-28.7,13.4
	c-4.8,0.7-9.6,0.7-14.3,0c-2-1.2-4.3-2.5-7.1-4.3c-0.1-0.1-0.3-0.3-0.4-0.4C396.4,157,392.5,153.3,389.1,150z M408.3,127.7
	c0.8,0.9,1.9,1.4,3.1,1.5c1.2,0.1,2.4-0.3,3.3-1.2c0.2-0.2,32.2-28.7,37.1-33l6.1,6.9l-38.7,34.5l-8.6,7.7l-6.9-7.5
	c-0.8-0.8-1.8-1.3-3-1.4c-0.1,0-0.1,0-0.2,0c0-0.1,0-0.2,0-0.3c0.1-1.2-0.3-2.4-1.1-3.3c0,0,0,0,0,0L385,115.4l6.9-6.1L408.3,127.7z
	 M422.7,168.8c6.3-0.9,12.4-2.8,18.1-5.7c-0.7,0.4-1.5,0.8-2.3,1.2c-5.1,2.5-10.7,4.8-16.8,6.6l-0.9,0.3c-1.2-0.6-2.4-1.2-3.6-1.8
	C419,169.2,420.8,169.1,422.7,168.8z M318.8,161.3c5.8,0.3,11.3,1.3,17.4,3c5.3,1.5,11.1,3.7,19.4,7.2c5.7,2.4,11,4.5,16.4,6.2
	c5.3,1.6,10.8,2.5,16.5,2.8c5.4,0.3,11-0.1,16.6-1c5.2-0.9,10.4-2,15.3-3.3c3.1,1.5,6,2.7,8.8,3.8c5.8,2.3,11.6,4.2,17.1,5.5
	c6,1.4,12,2.2,17.7,2.4c0.7,0,1.4,0,2.1,0c4,0,8.1-0.4,12.6-1.3c4.4-0.8,8.8-2,13-3.2l0.6-0.2c4.8-1.3,9.9-2.7,15.1-3.6
	c13.8-2.4,27.2-1.7,39.7,2.1c0.4,0.1,0.7,0.1,1.1-0.1l-0.9,22.9l-251.8-14.9L297,163C305.5,161.5,312.5,161,318.8,161.3z
	 M292.1,192.6c0.3,0.4,0.8,0.6,1.2,0.6l253.6,15c-0.3,1.5-1,2.9-2.2,4c-1.4,1.3-3.2,1.9-5.1,1.7l-62.2-4.3
	c-4.6-0.3-9.2,1.3-12.6,4.3l-1.2,1.1L304,203.6c-3.5-0.2-7,0.7-9.9,2.7l-22.9,16c-1.7,1.2-2.5,3.3-1.9,5.3c0.6,2,2.3,3.4,4.4,3.6
	l58.3,4.4l-8.9,6.6l-94.9-8l58.7-35.9c0.5-0.3,0.8-0.8,0.9-1.4l2.2-32.5c1.2-0.3,2.4-0.5,3.6-0.7l-1.7,27.7
	C291.7,191.8,291.8,192.3,292.1,192.6z M464.9,218.8l59.1,4.3c0.8,0.1,1.4,0.5,1.6,1.2c0.3,0.7,0.1,1.4-0.4,2l-13.9,14.5
	c-2.9,3-6.9,4.5-11,4.3l-55.4-4c-1.1-0.1-1.5-0.9-1.6-1.2c-0.1-0.3-0.3-1.2,0.5-1.9L464.9,218.8z M324,245.9l8.1,0.7
	c0.4,0,0.9-0.1,1.2-0.4l9.8-7.5c2-1.5,4.5-2.3,7-2.1l77.1,6.6l-10.5,11.9c-2.6,3-6.5,4.5-10.5,4.1l-87.9-8.5c-0.1,0-0.2,0-0.2-0.2
	c0-0.2,0-0.2,0.1-0.3L324,245.9z M558.2,205.3l-7.5-0.4l6.5-164.3c0-0.5-0.2-1-0.5-1.3c-0.3-0.4-0.8-0.6-1.3-0.6l-252.3-6.5
	c-0.9,0-1.8,0.7-1.8,1.7l-7.6,124.9c-1.2,0.2-2.3,0.5-3.5,0.7l8.7-127.8c0.3-4.2,3.8-7.4,8-7.3l249.7,6c2.1,0.1,4,0.9,5.5,2.4
	c1.4,1.5,2.2,3.5,2.1,5.6L558.2,205.3z"/>
</svg>
