<?xml version="1.0" encoding="UTF-8"?>
<svg id="Layer_1" data-name="Layer 1" xmlns="http://www.w3.org/2000/svg" viewBox="0 0 326 167">
  <defs>
    <style>
      .cls-1 {
        fill: none;
      }

      .cls-1, .cls-2 {
        stroke-width: 0px;
      }

      .cls-2 {
        fill: #69a6c2;
      }
    </style>
  </defs>
  <path class="cls-1" d="M164.22,68.38c-.27-.59-.44-.66-.44-.66,0,.06-.15.48-.08,1.14.04.36.23,1.56,1.2,2.13-.08-.93-.31-1.81-.68-2.62Z"/>
  <polygon class="cls-1" points="217.86 83.45 223.84 89.2 231.46 82.68 225.5 77.1 217.86 83.45"/>
  <path class="cls-1" d="M185.98,51.55c.15.13.29.25.44.38.2-.07.4-.14.62-.19-.24-.22-.53-.47-.86-.73-.06.18-.12.36-.19.54Z"/>
  <path class="cls-1" d="M233.57,82.69l-.08-.07s0,.07,0,.11c0,0,0,.02,0,.03l.08-.06Z"/>
  <path class="cls-1" d="M210.56,75.46l5.6,6.41c.18.21.24.48.17.73l7.97-6.62-6.74-6.3-7,5.78Z"/>
  <path class="cls-1" d="M181.74,48.11c-.05.12-.11.25-.17.37.56.31,1.16.67,1.77,1.08.08-.12.16-.25.23-.38-.63-.4-1.25-.76-1.83-1.07Z"/>
  <path class="cls-1" d="M142.6,61.89c2.13,2.32,4.72,2.84,7.72,1.55.1-.04.21-.07.32-.07.07,0,.14,0,.21.03,8.16,2.09,15.27,1.5,22.38-1.89,3.3-1.57,6.68-4.1,8.83-6.61.81-.95,1.47-1.91,1.96-2.86-.09-.07-.18-.14-.27-.21-1.88,2.53-4.5,4.96-7.41,6.88-6.29,4.14-16.63,5.85-25.14,4.15-2.62-.52-5.15-1.66-7.29-2.7-.95-.46-1.77-.87-2.57-1.49-.18-.14-.31-.3-.41-.45.07,1.26.64,2.55,1.66,3.67Z"/>
  <path class="cls-1" d="M144.79,56.51c-.18-.12-.36-.24-.54-.39-.11,0-.87.3-1.48.8-.34.28-.42.46-.42.51.66.5,1.38.85,2.14,1.22l.13.06c2.04,1,4.45,2.08,6.89,2.57,8.13,1.62,17.97.02,23.92-3.91,2.74-1.81,5.21-4.09,6.98-6.47-.57-.38-1.12-.72-1.64-1-1.76,2.77-4.61,5.23-8.27,7.14-9.57,4.97-20.2,4.77-27.72-.53Z"/>
  <path class="cls-1" d="M151.65,58.03s-.02-.06-.03-.08c-.52-1.88-2.15-4.07-4.49-4.43-2.14-.33-4.72.43-5.75,2.5.5-.55,1.2-1.01,1.85-1.25.39-.15.75-.22,1.08-.22.4,0,.74.11.99.33.13.11.26.19.41.29,1.81,1.27,3.81,2.23,5.94,2.87Z"/>
  <path class="cls-1" d="M179.29,49.21c-.26-.09-.5-.15-.7-.19-.18.08-.43,1.05-.27,1.49.35-.43.68-.86.97-1.31Z"/>
  <path class="cls-1" d="M215.02,83.03l-6.77-5.66-6.97,5.74,6.19,6.19,7.49-5.59c.27-.2.64-.21.92-.04-.03-.09-.05-.19-.04-.29,0-.08.02-.15.04-.23-.28.12-.6.08-.84-.12Z"/>
  <path class="cls-1" d="M187.76,53.24s.09.1.13.15c1.11,1.29,1.91,2.65,2.83,4.42.28.54.49.91.65,1.16-.12-.64-.42-1.63-.74-2.45-.29-.72-.62-1.49-1.06-2.41-.02-.04-.05-.09-.08-.16-.19-.34-.36-.7-.44-1.02-.14.13-.33.2-.53.22-.26.02-.52.05-.76.1Z"/>
  <path class="cls-1" d="M215.94,97.78l7.79-6.67c-.17-.02-.34-.09-.48-.22l-7.03-6.76c.08.29,0,.61-.22.82l-6.65,6.22,6.6,6.61Z"/>
  <path class="cls-1" d="M73,112.33s.07,0,.11,0c0-.11.01-.26.02-.39.02-.66.06-1.55.44-2.26.42-.78,2.32-1.82,2.4-1.86.53-.29,1.46-.27,2.35-.25.52.01,1.31.03,1.47-.08.09-.07.13-.45.15-.7.05-.49.11-1.04.48-1.43l2.19-2.31c.71-.76,1.94-.52,2.93-.34.38.07.81.15,1.05.13.09-.23.19-.63.27-1,.19-.86.38-1.68.84-1.96.29-.17.59-.45.91-.74.33-.3.67-.61,1.03-.83.52-.32,1.35-.33,2.32-.35.96-.01,2.04-.03,2.56-.4.26-.19.52-.38.77-.58.3-.23.6-.47.92-.68.35-.24.66-.51,1-.8.5-.43,1.01-.87,1.65-1.21.36-.19.63-1.79.78-2.65.21-1.26.33-1.87.68-2.08l3.66-2.19c.34-.22,1.17-.12,2.97.15.69.1,1.49.25,1.8.21.19-.16.4-.38.62-.62.6-.66,1.34-1.49,2.4-1.41.66.05,1.03.44,1.33.76.15.15.28.3.44.4.63.39,1.43.7,1.62.62.93-.73,3.13-3.88,3.84-5.17-.09-1.57-3.06-10.04-4.86-10.99-.2-.11-.29-.05-.34-.02l-49.3,34.9c-.52.37-1.39.64-2.64.82-.04.79-.02,1.39.03,1.63.26,1.14,8.79,3.67,11.11,3.67Z"/>
  <polygon class="cls-1" points="199.75 83.36 199.75 83.36 199.75 83.36 199.75 83.36"/>
  <path class="cls-1" d="M258.69,85.78c-.03-.19-.04-.31-.21-.5l-10.65-10.31-11.43,9.4c-.32.26-.77.25-1.07-.03l-.57-.53-18.34,15.71c-.32.28-.8.25-1.1-.04l-7.73-7.74c-.15-.15-.23-.34-.24-.54-.2,0-.4-.09-.55-.24l-7.32-7.31c-.17-.17-.25-.38-.24-.62,0-.23.11-.44.29-.59l8.18-6.74c.25-.21.6-.24.88-.1-.02-.09-.03-.18-.02-.28.02-.22.12-.42.29-.56l8.2-6.77c.31-.26.78-.25,1.07.03l7.41,6.93.52-.43c.31-.26.77-.25,1.07.03l7.66,7.09,10.68-9.14-16.36-15.1c-.14-.13-.23-.29-.25-.49l-.39-2.87c-.04-.28.07-.56.29-.74l1.78-1.45-2.04-1.73-37.51,3.27.09.19c1.2,2.54,3.02,6.38,1.14,7.37-.22.12-.46.17-.69.16-1-.06-1.67-1.39-2.12-2.27l-.13-.26c-.72-1.37-1.51-2.81-2.63-4.12-.15-.17-.33-.36-.53-.56-.87.56-1.58,1.47-2.21,2.84l-3.13,13.92c-.07.29-.27.51-.56.6-.29.09-.58.02-.8-.19l-2.6-2.48c-.48-.46-1.2-.83-1.42-.64l-6.3,5.23s.05.05.07.08l8.89,9.24c.18.19.26.44.22.7l-2.04,11.94c-.07.39.02.66.27.8.32.19.8.14,1.03-.03l4-3.45c.69-.59,1.17-.85,1.6-.85.54,0,.98.41,1.6,1.06.14.15.3.31.47.48l29.09,28.76c1.4,1.38,2.89,1.4,4.44.05l39.98-34.7c.18-.16.42-.23.65-.19-.15-.18-.29-.37-.42-.57-.18-.28-.21-.52-.24-.7Z"/>
  <path class="cls-1" d="M164.08,31.12c-3.27,0-6.78.63-9.7,1.78-2.58,1.02-5.05,2.42-7.02,3.97.54-.35,1.08-.68,1.62-.99,4.04-2.35,7.87-3.77,11.4-4.22,4.58-.58,10.18.32,14.9,2.3-2.22-1.31-4.9-2.19-8.01-2.64-1.02-.14-2.09-.21-3.19-.21Z"/>
  <path class="cls-1" d="M178.85,47.42c.37.06.79.18,1.26.36.06-.12.12-.25.17-.37-.79-.33-1.23-.39-1.46-.39-.07,0-.12,0-.15.01-.78.16-1.26.71-1.53,1.14-.45.73-.65,1.74-.56,2.65.04-.04.08-.09.12-.13-.18-.94.1-2.08.69-2.73.4-.44.92-.63,1.47-.55Z"/>
  <path class="cls-1" d="M133.32,101.63c.43-.79.93-1.69,1.86-1.96.73-.21,1.43.04,2,.25.64.23.87.28,1,.1.77-1,1.27-2.96,1.7-4.69.19-.74.36-1.44.55-2.01-.04-.34-.88-1.36-1.45-2.04-.41-.49-.82-1-1.16-1.47l-7.47,13.74c.23-.08.46-.16.69-.23.71-.23,1.51-.5,1.73-.77.19-.23.37-.56.56-.91Z"/>
  <path class="cls-1" d="M165.7,67.7c.54,1.2.83,2.52.86,3.93.41.12.8.25,1.23.49l6.57-5.45c1.12-.93,2.63-.19,3.58.71l1.57,1.49,2.61-11.58c-2.17,2.19-5.03,4.17-8.2,5.69-7.4,3.52-14.78,4.18-23.22,2.06-3.5,1.4-6.8.68-9.3-2.05-1.95-2.12-2.59-4.79-1.71-7.15,1.19-3.2,4.78-4.4,7.7-3.94,2.86.45,4.88,2.87,5.66,5.15,1.76.4,4.83.62,6.94.38-.24-.31-.48-.62-.72-.92-.84-1.09-1.63-2.11-2.66-3.17-2.86-2.95-5.92-4.99-9.09-6.08-2.74-.94-5.7-1.44-8.34-1.44-.5,0-1,.02-1.47.06-4.14.33-9.86,1.75-13.57,6.68-6.09,8.09-6.36,16.52-.82,25.77,1.41,2.35.6,7.22-.54,9.4l-22.34,42.49c-1.47,2.8.2,8.28,2.48,10.16.44.37,1.4.64,2.08.71,1.45.15,3.19-.11,4.7-.38.3-.05.47-.12.69-.26.95-.61,1.77-.79,2.83-.92-.05-.15-.12-.33-.17-.49-.31-.83-.73-1.97-.22-2.84.42-.71.8-1.47,1.17-2.2l.06-.11c.32-.63,1.32-.86,2.21-1.07.26-.06.63-.15.84-.22-.05-.2-.15-.53-.23-.8-.28-.93-.48-1.62-.48-1.98,0-.35.07-.7.19-1.04l-5.74,10.55c-.87,1.6-4.5,1.67-6.75.59-1.82-.87-2.48-2.29-1.82-3.89,1.77-4.24,3.81-8.52,5.61-12.29,2.57-5.39,5.27-10.86,8.24-16.75,4.37-8.65,8.89-17.58,13.88-25.88.12-.2.3-.33.53-.39.64-.16,1.53.31,2.39.84l.16.1c1.36.8,2.7,1.68,3.99,2.52l1.36.9c.79.52,1.57,1.04,2.36,1.55.55.35,1.06,1.35,1.56,2.32.3.59.76,1.48.97,1.58,6.21.29,12.58-2.68,17.02-7.95,2.56-3.04,4.24-6.69,4.52-9.82-.21-.08-.41-.17-.61-.27-2-1.02-2.42-3.01-2.18-4.4.2-1.17.83-1.99,1.61-2.09.54-.06,1.3.17,1.99,1.68Z"/>
  <path class="cls-1" d="M124.29,117.99c.66-.16,1.04-.26,1.26-.65.08-.14.08-.47.09-.76,0-.4.02-.86.17-1.26.22-.58.57-1.04.91-1.48.3-.39.58-.76.75-1.17.2-.5-.13-1.3-.45-2.07-.07-.18-.15-.36-.22-.54l-5.44,10c.17-.26.32-.47.43-.63.77-1.03,1.72-1.25,2.49-1.43Z"/>
  <path class="cls-1" d="M117.78,126.64c.4-.8,1.44-.93,2.19-1.03.26-.03.65-.09.74-.15.02-.15-.1-.58-.22-.99-.14-.47-.29-1-.27-1.5.03-.54.2-1.1.43-1.62l-3.09,5.68c.08-.13.15-.26.22-.39Z"/>
  <path class="cls-1" d="M184.33,47.72h.02c.25-.51.46-1.03.64-1.54-.29-1.61-1.05-3.22-2.26-4.82.23,1.77.1,3.5-.39,5.16.62.33,1.28.72,2,1.2Z"/>
  <polygon class="cls-1" points="176.6 83.31 168.48 74.86 167.99 77.86 176.14 86 176.6 83.31"/>
  <path class="cls-1" d="M160.53,55.48c.5.65,1.01,1.31,1.57,1.97.18.21.24.49.16.76-.08.27-.28.47-.55.55-.05.02-.11.03-.17.05,3.4-.41,6.88-1.48,10.22-3.22,1.51-.79,2.87-1.67,4.06-2.63-.22-.07-.4-.23-.49-.45-.63-1.48-.53-3.39.25-4.88.61-1.17,1.59-1.95,2.76-2.19.64-.13,1.48,0,2.5.39.49-1.81.49-3.72,0-5.67-.1-.41-.32-.89-.63-1.42-4.76-3.93-13.17-6.27-19.62-5.45-3.41.43-7.14,1.84-11.1,4.19-1.19.71-2.4,1.5-3.6,2.36-.05.03-.12.09-.2.16-.64.52-1.3,1.02-1.85.95-.2-.03-.37-.13-.49-.29,0,0,0,0,0,0l-.04.03.02-.04c-.91-1.32.87-3.25,2.53-4.64,2.17-1.81,4.98-3.45,7.92-4.61,4.15-1.64,9.4-2.28,13.72-1.66,4.84.69,8.75,2.4,11.6,5.08.86.81,1.73,1.87,2.36,2.85.58.49,1.11,1.01,1.58,1.54,1.13,1.26,2.01,2.56,2.62,3.88.07-.85.04-1.69-.08-2.51-.42-2.8-1.94-5.25-4.54-7.28-5.74-4.5-14.37-5.57-20.54-5.06-8.97.73-16.4,4.61-20.92,10.92,0,0,.01.01.02.03h.03c1.41.51,2.94,1.32,4.26,2.05l.23.12c3.72,1.99,5.1,3.16,4.73,4.03l.5.35-.58-.21c-.1.15-.24.26-.41.33,3.31,1.19,6.48,3.34,9.42,6.37,1.07,1.1,1.92,2.2,2.75,3.27Z"/>
  <path class="cls-1" d="M175.49,100.12c.13.08.52.31,1.19-.25l2.71-2.28c.54-.46,1.15-.65,1.78-.65,1.33,0,2.75.86,3.76,1.85l28.52,27.6c1.06,1.03,2.54.61,3.48-.2l38.01-33.06c.73-.63,1.38-1.36,1.92-2.15l-37.08,32.19c-2.21,1.91-4.63,1.87-6.65-.13l-29.18-28.85c-.53-.53-.81-.79-.95-.91-.1.09-.25.23-.31.29l-.11.1-4.01,3.46c-.72.62-1.96.71-2.87.2-.48-.27-.82-.68-.99-1.17l-.2,1.1c-.17.94.22,2.43.98,2.87Z"/>
  <path class="cls-2" d="M308.12,85.81c-6.56-2.97-14.71-2.3-20.26-1.54-2.95.41-5.92.97-8.79,1.52-2.65.51-5.39,1.03-8.1,1.43-2.39.34-7.97,1.15-10.17-1-.19-.19-.36-.4-.5-.62-.03-.05-.05-.12-.07-.25-.04-.28-.1-.66-.58-1.2l-11.22-10.87c-.3-.29-.76-.31-1.08-.04l-6.61,5.44,6.5-5.56c.18-.15.28-.37.28-.6,0-.24-.09-.45-.26-.61l-16.82-15.52-.29-2.13,2.18-1.78c.19-.16.3-.38.3-.62,0-.25-.1-.47-.29-.63l-3.05-2.58c-.17-.14-.38-.21-.6-.19l-38.99,3.39c-.21.02-.35.1-.45.18-.19-.54-.9-1.36-2.68-2.72.15-.97.17-1.94.05-2.9.66-2.05.85-4.09.55-6.08-.47-3.18-2.25-6.06-5.14-8.32-6.11-4.79-15.2-5.93-21.67-5.41-9.46.77-17.32,4.89-22.12,11.61-.1.14-.17.29-.21.46-6.76-1.97-13.2-1.26-18.64,2.05-5.64,3.43-9.23,8.42-10.65,14.84-.34,1.56-.42,3.07-.49,4.54-.05,1.04-.1,2.11-.25,3.17-.19,1.39-1.53,4.59-2.51,5.29l-43.8,31.13c-.87.62-1.25,4.31-1.38,5.87-3.86.29-9.85-.12-12.77-.31-.55-.04-1-.07-1.33-.09-10.65-.61-21.08-1.08-31.66-.07-.22.02-.41.12-.55.29-.14.17-.2.38-.18.59.04.45.44.79.89.73,10.47-.99,20.83-.53,31.41.08.39.02.9.06,1.51.1,3.05.21,8.63.59,12.59.31-.02.68-.02,1.43.07,1.82.59,2.58,11.26,5.32,13.47,4.81.88-.2.93-1.17.98-2.02.03-.51.06-1.03.23-1.35.14-.22,1.25-.94,1.75-1.21.19-.11.8-.08,1.33-.06.99.04,2.12.09,2.76-.45.61-.51.69-1.33.74-1.88.01-.15.03-.36.03-.38l2.16-2.29c.16-.08.86,0,1.32.07.87.12,1.77.23,2.37-.02.58-.25.78-1.15.99-2.11.08-.37.17-.77.26-.98.29-.18.58-.45.89-.72.29-.27.6-.54.89-.72.15-.09.81-.1,1.33-.11,1.2-.01,2.69-.03,3.63-.7.27-.19.53-.39.79-.59.29-.22.58-.45.88-.66.36-.25.7-.55,1.03-.83.48-.42.94-.81,1.45-1.08,1.1-.59,1.38-2.37,1.6-3.8.06-.42.13-.81.2-1.12l3.31-1.98c.27.02.78.09,1.32.18,2.17.33,3.14.42,3.55.14.21-.14.45-.41.74-.71.36-.39,1.02-1.1,1.28-1.11.1.04.36.29.51.44.2.19.39.37.55.48.83.52,2.37,1.29,3.4.59,1.16-.79,3.82-4.74,4.46-5.98.44-.86-2.3-10.1-5.11-12.54-1.12-.97-2.01-.72-2.56-.33l-49.3,34.9c-.21.15-.64.34-1.58.5.21-2.31.55-4.04.77-4.44l43.7-31.05c1.49-1.06,2.95-4.78,3.18-6.39.15-1.09.2-2.17.25-3.23.07-1.43.14-2.9.46-4.37,1.32-5.96,4.66-10.61,9.91-13.8,5.28-3.21,11.82-3.75,18.44-1.53,1.13,1.42,3.64,3.11,5.85,4.2-2.4-.5-4.82-.68-6.95-.51-4.48.35-10.67,1.91-14.75,7.32-6.53,8.68-6.83,17.71-.92,27.59,1.03,1.73.38,5.96-.59,7.81l-22.34,42.49c-1.85,3.51.06,9.84,2.89,12.17.78.65,2.08.98,2.95,1.07.35.04.71.05,1.07.05,1.36,0,2.8-.22,4.08-.45.51-.09.88-.23,1.29-.49.83-.53,1.51-.61,2.54-.72.42-.04.72-.21.91-.5.38-.59.08-1.46-.2-2.3-.14-.41-.37-1.1-.28-1.26.45-.76.85-1.56,1.24-2.33.16-.09.62-.19.94-.26.87-.2,1.85-.42,2.2-1.02.35-.62.06-1.47-.23-2.29-.17-.48-.34-.98-.35-1.34,0-.41.46-1.18.81-1.75.16-.26.3-.49.37-.64.09-.07.48-.12.73-.15.85-.11,2.01-.25,2.3-1.31.2-.7,0-1.31-.17-1.84-.12-.37-.23-.72-.22-1.07.04-.78.7-1.91,1.25-2.65.44-.58,1-.71,1.65-.86.76-.17,1.62-.37,2.21-1.38.3-.52.3-1.03.29-1.47,0-.3,0-.56.08-.78.16-.42.45-.8.76-1.2.33-.43.67-.88.9-1.44.46-1.15,0-2.18-.39-3.08-.23-.53-.45-1.03-.5-1.53-.05-.53.68-1.68,1.11-2.37.13-.2.24-.39.33-.53.15-.26,1.13-.6,1.84-.84,1.06-.37,2.16-.74,2.65-1.33.17-.21.35-.53.56-.9.27-.48.77-1.36,1.06-1.44.27-.08.66.07,1.07.22.79.3,1.88.7,2.76-.43.98-1.26,1.5-3.33,1.96-5.16.19-.77.38-1.5.58-2.12.33-1-.9-2.47-2.09-3.9-.53-.64-1.09-1.31-1.26-1.68.04-.28-.06-.56-.28-.75-.3-.25-.72-.25-1.03-.01-.12.09-.2.21-.24.3l-27.68,50.87c-.31.57-2.94.72-4.66-.1-1.44-.69-1.09-1.52-.97-1.79,1.73-4.16,3.69-8.25,5.58-12.21,2.54-5.33,5.23-10.79,8.23-16.72,4.27-8.44,8.68-17.17,13.54-25.3,1.44.68,5.76,3.55,7.69,4.82.51.34.91.6,1.13.74.27.18.61.88.91,1.5.58,1.22,1.25,2.6,2.39,2.66,6.75.3,13.63-2.87,18.39-8.52,2.66-3.16,4.45-6.99,4.85-10.35.2.08.38.16.57.27l-.72,4.43c-.04.26.04.52.23.71l8.21,8.2-1.84,10.05c-.32,1.76.49,3.82,1.81,4.59.95.55,2.01.39,3.01-.44l2.71-2.28c.93-.78,2.61.39,3.36,1.12l28.52,27.6c1.71,1.66,4.15,1.18,5.68-.14l38.01-33.06c1.93-1.68,3.35-3.91,4-6.29.03-.12.04-.24.02-.35,2.9,2.32,8.45,1.51,11.17,1.12,2.72-.39,5.47-.92,8.12-1.43,2.86-.55,5.82-1.12,8.75-1.52,5.36-.73,13.19-1.39,19.37,1.41.2.09.42.1.62.02.2-.08.37-.23.46-.42.18-.41,0-.89-.41-1.08ZM130.35,103.54l7.47-13.74c.34.47.76.98,1.16,1.47.56.68,1.4,1.7,1.45,2.04-.19.57-.36,1.27-.55,2.01-.44,1.73-.93,3.69-1.7,4.69-.13.18-.36.13-1-.1-.56-.2-1.26-.46-2-.25-.94.27-1.43,1.17-1.86,1.96-.19.35-.37.67-.56.91-.22.27-1.02.53-1.73.77-.23.08-.46.15-.69.23ZM180.42,70.55h0ZM148.77,45.51l.58.21-.5-.35c.37-.87-1.01-2.04-4.73-4.03l-.23-.12c-1.32-.73-2.85-1.54-4.26-2.04h-.03s-.02-.04-.02-.04c4.52-6.31,11.95-10.19,20.92-10.92,6.17-.5,14.79.56,20.54,5.06,2.59,2.03,4.12,4.48,4.54,7.28.12.82.15,1.66.08,2.51-.61-1.32-1.49-2.62-2.62-3.88-.47-.53-1-1.04-1.58-1.54-.62-.98-1.5-2.05-2.36-2.85-2.85-2.68-6.76-4.39-11.6-5.08-4.32-.61-9.57.02-13.72,1.66-2.94,1.16-5.75,2.8-7.92,4.61-1.66,1.39-3.44,3.32-2.53,4.64l-.02.04.04-.03s0,0,0,0c.12.16.29.26.49.29.54.07,1.21-.43,1.85-.95.09-.07.16-.13.2-.16,1.2-.86,2.41-1.66,3.6-2.36,3.96-2.35,7.7-3.76,11.1-4.19,6.45-.81,14.87,1.52,19.62,5.45.32.53.53,1.01.63,1.42.49,1.95.48,3.86,0,5.67-1.02-.39-1.86-.53-2.5-.39-1.17.24-2.14,1.02-2.76,2.19-.78,1.49-.88,3.41-.25,4.88.1.22.28.38.49.45-1.19.96-2.55,1.84-4.06,2.63-3.34,1.74-6.81,2.81-10.22,3.22.06-.02.11-.03.17-.05.27-.08.47-.28.55-.55.08-.27.02-.54-.16-.76-.56-.67-1.07-1.32-1.57-1.97-.83-1.07-1.68-2.17-2.75-3.27-2.95-3.04-6.11-5.18-9.42-6.37.17-.07.31-.18.41-.33ZM168.48,74.86l8.12,8.45-.46,2.69-8.15-8.14.49-3ZM174.51,97.26l.2-1.1c.17.49.5.9.99,1.17.91.52,2.14.43,2.87-.2l4.01-3.46.11-.1c.06-.06.22-.2.31-.29.15.12.42.38.95.91l29.18,28.85c2.02,2,4.44,2.04,6.65.13l37.08-32.19c-.55.79-1.2,1.51-1.92,2.15l-38.01,33.06c-.94.82-2.42,1.23-3.48.2l-28.52-27.6c-1.02-.98-2.43-1.85-3.76-1.85-.63,0-1.23.19-1.78.65l-2.71,2.28c-.67.56-1.06.33-1.19.25-.75-.44-1.15-1.92-.98-2.87ZM163.7,68.86c-.07-.66.07-1.09.08-1.14,0,0,.17.07.44.66.37.8.59,1.68.68,2.62-.96-.58-1.16-1.77-1.2-2.13ZM163.71,66.03c-.77.1-1.4.92-1.61,2.09-.24,1.39.18,3.38,2.18,4.4.2.1.4.19.61.27-.28,3.13-1.95,6.78-4.52,9.82-4.43,5.26-10.8,8.24-17.02,7.95-.21-.11-.67-1-.97-1.58-.5-.97-1.01-1.97-1.56-2.32-.79-.51-1.58-1.03-2.36-1.55l-1.36-.9c-1.29-.85-2.63-1.73-3.99-2.52l-.16-.1c-.87-.53-1.75-1-2.39-.84-.23.06-.42.19-.53.39-5,8.3-9.51,17.24-13.88,25.88-2.97,5.88-5.67,11.36-8.24,16.75-1.8,3.77-3.84,8.05-5.61,12.29-.67,1.6,0,3.02,1.82,3.89,2.24,1.08,5.87,1.01,6.75-.59l5.74-10.55c-.12.33-.2.68-.19,1.04,0,.36.21,1.05.48,1.98.08.27.18.6.23.8-.21.08-.58.16-.84.22-.89.2-1.89.43-2.21,1.07l-.06.11c-.37.73-.75,1.49-1.17,2.2-.52.87-.09,2.01.22,2.84.06.15.12.33.17.49-1.06.13-1.88.31-2.83.92-.22.14-.39.21-.69.26-1.51.27-3.25.53-4.7.38-.68-.07-1.63-.34-2.08-.71-2.28-1.88-3.96-7.36-2.48-10.16l22.34-42.49c1.15-2.18,1.95-7.05.54-9.4-5.54-9.25-5.27-17.68.82-25.77,3.71-4.93,9.43-6.35,13.57-6.68.48-.04.97-.06,1.47-.06,2.63,0,5.59.51,8.34,1.44,3.18,1.09,6.24,3.13,9.09,6.08,1.03,1.06,1.82,2.08,2.66,3.17.24.31.47.61.72.92-2.12.23-5.18.02-6.94-.38-.78-2.27-2.81-4.7-5.66-5.15-2.92-.46-6.51.75-7.7,3.94-.88,2.35-.23,5.02,1.71,7.15,2.51,2.73,5.81,3.46,9.3,2.05,8.44,2.12,15.82,1.46,23.22-2.06,3.18-1.51,6.04-3.5,8.2-5.69l-2.61,11.58-1.57-1.49c-.95-.91-2.47-1.64-3.58-.71l-6.57,5.45c-.43-.24-.83-.37-1.23-.49-.03-1.41-.31-2.73-.86-3.93-.69-1.51-1.45-1.74-1.99-1.68ZM121.36,120.05l5.44-10c.07.18.15.36.22.54.32.77.65,1.57.45,2.07-.17.42-.45.78-.75,1.17-.34.44-.69.9-.91,1.48-.16.4-.16.86-.17,1.26,0,.29-.01.63-.09.76-.22.39-.61.49-1.26.65-.77.18-1.72.4-2.49,1.43-.11.15-.27.37-.43.63ZM120.23,122.96c-.03.51.13,1.04.27,1.5.12.41.24.83.22.99-.09.07-.48.12-.74.15-.75.1-1.79.23-2.19,1.03-.07.13-.14.26-.22.39l3.09-5.68c-.23.52-.4,1.08-.43,1.62ZM182.72,41.36c1.21,1.59,1.97,3.21,2.26,4.82-.18.51-.39,1.04-.64,1.56h-.02c-.72-.49-1.38-.88-2-1.21.49-1.66.62-3.39.39-5.16ZM176.69,50.69s-.08.09-.12.13c-.09-.92.11-1.92.56-2.65.26-.43.74-.98,1.53-1.14.03,0,.08-.01.15-.01.23,0,.67.07,1.46.39-.05.12-.11.25-.17.37-.46-.18-.89-.3-1.26-.36-.54-.09-1.07.11-1.47.55-.59.65-.87,1.79-.69,2.73ZM181.57,48.48c.06-.12.12-.24.17-.37.58.31,1.2.67,1.83,1.07-.07.13-.15.25-.23.38-.61-.41-1.21-.77-1.77-1.08ZM180.79,49.89c.51.28,1.07.62,1.64,1-1.77,2.37-4.24,4.66-6.98,6.47-5.96,3.93-15.79,5.53-23.92,3.91-2.44-.49-4.85-1.57-6.89-2.57l-.13-.06c-.76-.37-1.48-.72-2.14-1.22,0-.04.08-.22.42-.51.6-.5,1.36-.79,1.48-.8.18.15.35.27.54.39,7.53,5.3,18.15,5.5,27.72.53,3.66-1.9,6.51-4.37,8.27-7.14ZM141.35,58.67c.79.63,1.61,1.03,2.57,1.49,2.13,1.04,4.66,2.18,7.29,2.7,8.51,1.7,18.85,0,25.14-4.15,2.91-1.92,5.53-4.35,7.41-6.88.09.07.18.14.27.21-.49.95-1.15,1.92-1.96,2.86-2.15,2.5-5.54,5.04-8.83,6.61-7.1,3.38-14.21,3.98-22.38,1.89-.07-.02-.14-.03-.21-.03-.11,0-.21.02-.32.07-3,1.29-5.6.77-7.72-1.55-1.02-1.12-1.59-2.41-1.66-3.67.1.15.23.3.41.45ZM178.59,49.02c.21.03.44.1.7.19-.29.44-.61.88-.97,1.31-.16-.45.09-1.41.27-1.49ZM144.31,54.54c-.32,0-.69.07-1.08.22-.65.24-1.35.7-1.85,1.25,1.03-2.08,3.61-2.84,5.75-2.5,2.35.37,3.97,2.56,4.49,4.43,0,.03.02.06.03.08-2.13-.64-4.13-1.6-5.94-2.87-.15-.1-.28-.18-.41-.29-.26-.22-.6-.33-.99-.33ZM175.28,33.97c-4.72-1.98-10.31-2.89-14.9-2.3-3.53.45-7.37,1.87-11.4,4.22-.54.31-1.08.64-1.62.99,1.97-1.55,4.44-2.95,7.02-3.97,2.92-1.15,6.43-1.78,9.7-1.78,1.1,0,2.17.07,3.19.21,3.11.44,5.79,1.33,8.01,2.64ZM186.42,51.92c-.14-.12-.29-.25-.44-.38.07-.18.13-.36.19-.54.33.26.62.51.86.73-.21.05-.42.12-.62.19ZM223.84,89.2l-5.99-5.76,7.64-6.35,5.96,5.58-7.62,6.52ZM233.49,82.61l.08.07-.08.06s0-.02,0-.03c0-.04,0-.07,0-.11ZM216.33,82.6c.06-.25,0-.53-.17-.73l-5.6-6.41,7-5.78,6.74,6.3-7.97,6.62ZM215.87,83.67c-.28-.17-.64-.17-.92.04l-7.49,5.59-6.19-6.19,6.97-5.74,6.77,5.66c.24.2.57.24.84.12-.02.07-.04.15-.04.23,0,.1.01.2.04.29ZM215.99,84.95c.23-.22.31-.54.22-.82l7.03,6.76c.14.13.31.21.48.22l-7.79,6.67-6.6-6.61,6.65-6.22ZM232.98,82.39h0s0,0,0,0ZM199.75,83.36h0s0,0,0,0ZM258.7,87.24l-39.98,34.7c-1.55,1.34-3.04,1.32-4.44-.05l-29.09-28.76c-.18-.17-.33-.33-.47-.48-.63-.64-1.06-1.06-1.6-1.06-.42,0-.91.25-1.6.85l-4,3.45c-.23.17-.71.23-1.03.03-.24-.15-.33-.42-.27-.8l2.04-11.94c.04-.26-.04-.51-.22-.7l-8.89-9.24s-.05-.05-.07-.08l6.3-5.23c.23-.19.94.18,1.42.64l2.6,2.48c.21.21.51.28.8.19.28-.09.49-.31.56-.6l3.13-13.92c.63-1.37,1.33-2.28,2.21-2.84.2.2.38.39.53.56,1.12,1.31,1.91,2.75,2.63,4.12l.13.26c.44.88,1.12,2.21,2.12,2.27.23.02.47-.04.69-.16,1.89-.99.07-4.83-1.14-7.37l-.09-.19,37.51-3.27,2.04,1.73-1.78,1.45c-.22.18-.33.46-.29.74l.39,2.87c.03.19.11.36.25.49l16.36,15.1-10.68,9.14-7.66-7.09c-.3-.28-.76-.29-1.07-.03l-.52.43-7.41-6.93c-.3-.28-.76-.29-1.07-.03l-8.2,6.77c-.17.14-.27.34-.29.56,0,.1,0,.19.02.28-.28-.14-.63-.11-.88.1l-8.18,6.74c-.18.15-.29.35-.29.59-.01.23.07.45.24.62l7.32,7.31c.15.15.35.23.55.24,0,.21.09.39.24.54l7.73,7.74c.3.3.78.32,1.1.04l18.34-15.71.57.53c.3.28.75.29,1.07.03l11.43-9.4,10.65,10.31c.17.2.19.31.21.5.03.19.06.42.24.7.13.2.26.39.42.57-.23-.04-.46.03-.65.19ZM61.86,107.02c1.25-.18,2.11-.45,2.64-.82l49.3-34.9s.13-.09.34.02c1.8.95,4.77,9.42,4.86,10.99-.72,1.29-2.91,4.44-3.84,5.17-.19.08-.99-.23-1.62-.62-.16-.1-.29-.24-.44-.4-.3-.32-.67-.71-1.33-.76-1.07-.08-1.8.75-2.4,1.41-.22.24-.42.47-.62.62-.32.03-1.11-.11-1.8-.21-1.81-.27-2.63-.36-2.97-.15l-3.66,2.19c-.35.21-.47.82-.68,2.08-.15.86-.42,2.45-.78,2.65-.64.34-1.15.78-1.65,1.21-.33.29-.65.56-1,.8-.31.22-.61.45-.92.68-.25.2-.51.39-.77.58-.52.37-1.61.39-2.56.4-.97.01-1.8.03-2.32.35-.36.22-.7.53-1.03.83-.32.29-.62.56-.91.74-.46.28-.64,1.09-.84,1.96-.08.37-.17.78-.27,1-.24.02-.67-.06-1.05-.13-.99-.19-2.21-.42-2.93.34l-2.19,2.31c-.37.39-.42.94-.48,1.43-.03.25-.07.62-.15.7-.16.11-.95.09-1.47.08-.89-.02-1.82-.05-2.35.25-.08.04-1.98,1.08-2.4,1.86-.38.71-.42,1.61-.44,2.26,0,.13,0,.28-.02.39-.03,0-.07,0-.11,0-2.32,0-10.85-2.53-11.11-3.67-.05-.24-.06-.84-.03-1.63ZM189.49,53.95c.04.07.07.12.08.16.44.92.77,1.68,1.06,2.41.32.82.63,1.81.74,2.45-.16-.25-.37-.62-.65-1.16-.93-1.77-1.73-3.12-2.83-4.42-.04-.05-.08-.1-.13-.15.24-.05.5-.08.76-.1.2-.01.38-.09.53-.22.07.33.25.68.44,1.02ZM14.68,106.33h0s0,0,0,0ZM137.58,87.7h0s0,0,0,0h0Z"/>
</svg>