<svg xmlns="http://www.w3.org/2000/svg" viewBox="0 0 32600 16700"><path stroke-width="0" fill="#69a6c2" d="M32270 12384h-4752c-558 0-764-107-826-153-20-15-40-21-58-22c201-46 418-363 592-650c53-88 101-163 148-236c205-321 353-553 647-1384c221-624 268-895 172-1017c38 20 81 5 97 0c151-49 578-304 618-686c27-255-132-435-419-762-11-12-35-43-69-87-247-312-998-1264-1489-1367-466-98-799-136-990-112-16-38-26-76-34-122-34-210 40-350 127-513c91-170 184-347 166-614-28-414-313-689-370-740-380-342-881-294-979-281-150 20-239 62-326 103-91 43-185 87-369 107-115 12-205 9-280 7-117-4-217-8-272 84-31 50-36 117-16 192c38 145 184 351 389 465c97 54 173 67 246 80c72 12 153 26 278 85c70 33 186 88 302 196c108 100 158 194 199 270c48 89 93 173 204 190c128 21 226-65 305-134c22-19 56-49 77-61c9 25 13 77 14 98c15 197-94 413-184 425-20 2-36-6-67-26-37-23-100-62-177-35-107 37-120 142-131 236-10 80-21 163-80 223-49 49-126 80-194 107-68 27-132 52-174 96-29-2-59 0-88 6-83 18-276 59-337 41-106-33-108-90-100-215c6-93 13-210-95-270-113-62-492 15-757 191-602 401-1008 995-1110 1219-22 49-131 306-88 585c38 247 196 475 470 679-42 22-79 48-111 79-475 453 45 1293 329 1753c29 47 55 89 77 127c106 179 344 472 598 785c243 299 516 636 674 878-197 126-811 438-2284 634c46-74 84-145 105-201c357-932 314-2170 290-2839-5-151-9-270-8-350c0-6 13-647-214-1635-30-129-91-397-267-425-122-20-198 83-277 192-68 94-153 210-287 292-83 51-178 84-282 101c74-54 134-105 173-138c154-131 412-350 485-700c53-255-46-468-286-984l-30-64c-468-1008-1007-1619-1601-1815-444-147-813-28-1045 98-219 119-320 300-426 490-246 443-296 769-255 1659c29 633 82 767 215 825c2 1 5 2 7 3-135 27-232 59-256 78-336 282-386 686-405 838-10 79-10 142-11 214-3 247 29 414 55 549c9 46 16 85 21 122c35 261 14 402-32 710-10 67-21 141-33 226c0 2 0 5-1 7-57-12-110-22-152-28-166-237-408-461-702-650-57-36-560-249-861-36-287 203-339 640-148 1232-120 104-242 223-364 357-91 100-169 215-233 343-1-3-3-6-4-9-148-318-301-926-288-1511c7-303 63-437 127-592c68-164 146-350 183-750c79-867-150-1434-294-1695-45-81-128-216-217-334-8-46-17-94-28-147-72-353-134-515-200-688-52-137-107-278-168-535c52-342 64-969-421-1404-256-230-539-342-843-339-185 3-464 56-745 291-271 226-365 502-465 794-149 438-178 851-191 1029-7 106-10 199-13 291-8 255-12 396-126 536-35 44-76 81-112 114-76 70-148 135-117 229c29 89 122 87 197 87c68 0 154-2 246 33c48 19 138 63 205 149c49 62 72 141 122 727l5 53c2 29 4 46 5 57c19 277 0 552-64 921-33 192-67 344-93 466-68 310-102 465 17 619l18 21c-144 100-259 182-299 210-99 71-188 135-267 193-15 11-29 21-44 32c46-84 82-185 92-302c50-606-137-1612-383-2070-225-418-486-493-812-481-296 13-488 338-524 403-179 328-101 636 55 1251l46 180c285 1138 442 1764 372 2123-13 67-30 137-49 213-66 268-128 521 23 623c119 80 275 0 369-49l16-8c289-148 497-143 785-135c266 7 597 15 1105-90c185-38 323-77 435-111c439 254 984 468 1229 559c19 389-368 749-372 753-167 150-798 349-1566 420-650 60-1239 76-1854-349-90-62-209-143-348-236c14-39 24-79 28-118c58-543-743-950-1425-1196-369-133-868-204-1269-261-179-25-479-68-517-92-71-71 7-250 115-499c140-323 332-764 392-1374c3-30 6-60 9-96c17-192 31-359 148-532c100-148 210-211 435-339c74-42 157-90 253-148c221-135 303-203 392-276c78-64 158-130 355-254c557-350 893-561 1260-501c130 22 228 70 307 110c105 52 204 102 303 30c122-88 86-241 46-418-43-187-97-420 13-639c42-84 90-132 145-187c77-76 164-163 232-351c37-101 55-196 69-270c13 30 28 68 47 116c46 120 66 212 79 273c15 69 31 141 109 141l10 43l9-44c19-4 45-14 66-44c62-88 99-377 16-629-69-210-193-341-304-442-387-348-768-495-1130-435-390 64-735 359-1026 877-93 165-209 394-336 642-163 320-544 1070-629 1118-53 10-95-33-192-146-102-119-241-282-487-392-24-10-48-20-72-29c86-60 198-147 296-292c46-68 70-122 92-169c27-59 43-95 95-139c47-40 83-53 122-67c51-18 114-41 172-119c43-58 58-112 69-156c11-40 18-69 48-100c18-19 28-23 55-32c25-9 58-21 100-48c122-79 175-192 208-266c23 55 51 147 61 262c9 110-4 192-13 242-7 43-20 122 60 146h4l-3 28l14-26c23 3 52-2 83-31c70-65 250-354 183-665-79-367-445-521-798-669-23-9-48-21-82-38-248-118-763-364-1231 236-54 70-117 144-178 218-123 148-240 288-284 380-206 424-107 558-36 656c38 52 51 70 17 148-93 216-144 335-92 445c30 62 76 98 135 119-20 10-40 22-60 37-33 24-64 52-91 85-62 23-126 49-190 78l-30 14c-305 135-448 533-731 1325-60 167-101 301-137 419-83 271-129 420-297 609-54 60-115 119-168 171-144 139-258 248-202 361c51 105 198 93 306 83c15-1 30-2 42-3c571-31 1293 934 1463 1948c22 133 29 637-61 729-87 90-229 73-350 34c113-39 192-87 241-146c380-460-45-1438-498-1967-297-347-733-522-909-441-330 152-9 1539-5 1552c158 528 373 695 621 889c13 10 26 20 39 29-139 13-270 17-358 16H0v175h4856s297 4 588-43c328 180 597 188 758 22c183-189 110-874 109-881-85-504-311-1029-621-1440-327-434-701-672-1025-654-12 0-25 2-47 4-54 5-89 5-111 5c36-44 108-114 143-148c53-51 120-115 178-181c193-217 246-389 333-675c36-116 76-247 134-411c267-745 400-1119 637-1224l18-8c-21 65-36 135-45 211-43 369 74 775 298 1033c228 263 636 454 887 332-24 27-47 57-69 90-142 211-159 407-177 615l-2 19c-2 25-4 50-7 75-58 582-243 1009-379 1322-135 312-233 537-78 692c60 60 222 85 618 141c392 56 881 125 1233 252c881 317 1346 677 1311 1012-1 12-3 24-6 36-1118-734-2504-1523-2885-1214-146 119-207 419-153 764c87 561 429 1011 915 1202c606 239 1390 82 1851-197c149-90 264-191 342-300c109 73 219 148 332 225c664 459 1285 444 1970 380c745-69 1446-265 1667-465c18-16 412-377 431-820c60 21 107 36 125 40c139 32 243 18 318-40c110-86 115-240 118-353c0-36 3-102 11-117c88-132 175-185 246-225-114 411-101 886 37 1258c139 373 380 599 680 634c637 76 1577 69 1641 46c40-15 69-44 81-82c30-97-53-212-253-492-122-171-289-404-479-705-77-122-150-243-217-360c82-13 158-33 226-61l66-27c254-102 596-241 877-443c158 243 390 409 558 468c107 38 202 41 276 8c34 46 68 96 104 154-19 27-40 52-61 74l-14 15c-85 87-285 290-254 545c27 222 219 368 383 471c488 305 1040 651 1667 651c199 0 398-36 592-105c432-156 725-436 898-650c1147-141 2077-391 2514-675c33 67 34 93 33 100c0 8-5 28-11 51-31 144-97 443-10 620c159 324 604 221 795 177c127-29 392-245 355-490-28-187-98-301-143-370l28-14c9-5 9-4 50-19l67-23c157-55 201-194 239-316c24-75 46-147 92-208c50 89 91 174 95 324c2 91-11 149-24 206-17 77-34 149-2 259c76 265 350 441 587 497c228 54 588 40 675-159c52-120 16-282-112-506c172 45 396 69 657 69h4752c48 0 88-39 88-88s-39-88-88-88m-19087-752c79 20 454 129 595 430-220-85-597-240-943-424c122-33 212-41 348-6m43-170c-231-58-372-15-587 51l-17 5c-360-217-459-358-477-439-32-138-9-250 69-333c138-146 432-188 640-154c438 73 908 311 1622 821c45 32 111 72 189 114-68 45-153 115-233 237-36 54-38 126-41 209-2 82-5 185-50 220-30 23-91 26-172 7-20-5-79-23-180-59-4-20-10-40-16-61-138-444-646-593-746-619m-1139-836c-121 128-158 294-112 493c33 143 172 295 425 465-72 19-162 42-269 64-489 101-809 93-1066 87-302-8-539-14-869 154l-16 8c-39 20-158 81-190 59-50-34 17-305 49-436c18-73 36-149 50-221c75-381-61-949-374-2199l-46-181c-149-588-218-857-71-1124c17-31 172-303 378-312c21 0 41-1 61-1c234 0 414 65 589 391c234 435 410 1393 363 1972-19 229-175 384-268 476-58 57-93 92-93 144c0 16 4 31 10 44l-173 172l209-132c81 59 185-16 546-280c78-57 167-121 265-192c43-31 174-124 335-235c10 11 20 23 30 37c86 115 110 231 128 317c17 83 35 168 123 183c102 16 150-82 201-187c55-114 129-269 265-320c52-20 84-14 147-3c42 7 90 16 154 18c279 9 499-145 928-453l10-7c89-64 168-121 239-174c93-25 157-67 198-131c12-17 22-37 30-57c107-101 169-194 203-299c77-238 19-442-23-591l-3-12c-24-86-48-177-71-269c14-5 27-12 39-19c152-95 136-339 103-827-6-84-11-159-17-231c5 8 9 16 14 24c134 243 347 774 273 1594-34 373-106 546-170 698-69 164-133 319-141 656-14 617 143 1242 305 1589c3 6 5 11 7 15-90-46-167-91-213-124-737-526-1228-773-1695-851-251-42-607 5-796 207m1082-1411c40 106 166 99 404 88c40-2 78-4 114-6-393 282-592 424-814 416-52-2-94-9-131-16-73-12-141-24-238 12-201 76-294 268-362 411c0 0 0 2-1 3-21-93-56-219-151-346-8-11-17-21-25-31c150-102 279-187 385-253c325-202 641-359 895-467-67 63-100 125-76 190m-120-2195c-67-129-159-306-225-651-43-225-78-408-83-577c32 66 78 152 140 268l13 24c205 386 293 607 363 785c71 178 121 307 247 497c180 271 473 495 696 538c28 116 55 221 79 306l4 13c36 128 85 302 24 490-6 18-13 36-22 53l-6-24c-42-148-133-269-245-322-144-69-275-13-513 88l-118 50c-172 72-315 100-430 122-139 27-263 51-361 141c12-105 35-233 69-361c77-285 180-423 270-545c87-118 170-229 198-429c30-211-28-324-102-466m-56-2479c-12-63-23-117-12-212c14-116 84-427 246-469c12-3 25-5 38-5c55 0 149 27 284 154c162 153 189 306 243 611c22 124 47 265 86 435-10 63-21 112-29 143-92-59-228-27-321 22-58 30-105 57-146 81-45 26-84 49-130 71-38 18-62 55-62 99-2 98 122 215 189 250c3 2 8 4 13 8c45 28 138 85 247 68c23-4 45-9 66-17c0 48 3 86 5 119c4 57 4 72-1 77-35 39-168 16-265 0-66-11-176-29-296-101-139-83-221-194-265-255-21-29-56-76-105-76-6 0-11 0-17 2c10-52 25-103 44-155c24-64 51-118 78-171c58-116 118-236 129-429c7-113-7-185-20-249m619 1082c-45 7-99-26-129-45-9-5-17-10-23-13-26-13-54-41-73-65c28-15 55-31 83-47c41-24 84-49 139-77c59-31 132-40 141-36c3 12-7 67-12 97v3c-7 34-14 73-20 118-30 38-65 59-106 65m-960 3445c12-23 28-52 48-81c64-87 156-104 309-134c123-24 275-54 462-132l120-51c162-69 248-104 310-104c22 0 41 4 59 13c65 31 125 114 152 211c18 63 21 126 8 177-42 37-91 77-154 125-91 19-225 26-408 35-47 2-119 6-172 7c41-33 113-84 241-165c151-95 219-139 193-213l107-69-124 38c-12-16-30-28-50-33-92-27-590 143-1159 454c28-20 45-54 58-78m1684-1353c-62-269-114-540-148-769-56-381-47-537-37-598c27 22 73 66 136 146c33 201 43 347 57 566c20 302 39 587-10 655m-263-1549c-200 90-71 869 82 1542-154-64-365-229-504-438-116-174-164-296-231-465-71-178-158-399-357-776c146 86 279 108 351 120c153 25 325 55 425-56c56-62 51-129 46-207-2-30-5-67-5-114c0-51 2-100 7-151c42-67 68-144 88-212c30 92 59 167 87 242c55 143 107 279 166 540-59-37-110-46-155-25m-2256 2957c27-124 61-278 95-473c66-383 86-671 66-962c0-13-3-36-6-77l-3-37c-50-589-74-712-158-820-93-119-215-180-279-205-104-41-199-46-271-46h-11s8-7 12-10c38-35 86-79 130-133c151-186 157-377 165-644c2-82 5-176 13-282c12-170 40-568 182-983c91-268 178-521 411-716c241-201 479-247 635-250c235-2 458 78 665 246-98-49-191-63-279-41-306 79-370 564-376 619-14 121 0 198 14 266c11 59 22 114 17 205-9 157-54 247-111 362-27 54-58 115-85 188-129 343-73 633 11 1073c71 370 170 560 242 699c69 132 107 205 84 361-22 156-83 237-166 350-95 128-212 287-298 604-52 191-123 592-62 697c12 21 31 37 53 45v22l10-18c22 5 40 4 56-2-104 57-209 119-315 185-117 73-262 168-429 282-9-8-17-16-26-28-69-89-46-193 15-473l-49-11l49 10m6751 3869c-139-87-283-196-302-343-21-172 137-332 205-401l15-16c10-10 20-21 30-33c90 159 175 310 320 443c424 392 1257 517 1609 498c317-17 627-42 923-73-157 161-388 344-694 454-800 289-1494-146-2106-529m-118-1560c-5-123-11-276-4-480c12-348 52-585 89-794c6-35 12-69 17-103c131 829 119 1434-35 1805-27-40-54-77-82-112c23-75 19-174 14-315m1985 1533c-315 17-1100-101-1480-452-125-116-204-255-288-404-13-24-27-48-41-73c266-493 250-1423-45-2761l-6-48c-36-291-111-559-166-598-20-14-46-20-70-14-23 5-43 20-56 40-22 35-21 39 24 218c37 148 70 291 100 425c38 348 1 561-46 830-37 214-79 457-91 818-7 212 0 374 4 493c2 52 4 96 4 134-64-62-134-120-211-174-63-45-108-71-141-90-50-29-77-45-122-94-16-17-32-36-47-55c183-217 245-456 186-713-30-131-153-233-364-303c1-10 3-19 4-29c12-84 23-158 33-225c49-325 71-474 33-760-5-41-14-84-23-133-24-127-54-285-52-516c0-69 2-123 10-192c16-132 60-481 336-718c66-25 454-123 822-85c216 22 376 130 693 344c166 112 252 188 316 243c83 73 134 117 251 144c163 38 340 18 525-60c184 20 447 14 681-129c164-100 260-232 338-339c29-40 89-122 107-122c14 2 64 30 124 291c217 946 210 1565 210 1591-2 86 2 209 8 365c23 652 66 1866-279 2765-17 45-73 155-178 293-347 41-717 72-1100 93m-2335-1257c-144-51-343-197-478-412c4-3 7-7 11-10c14 17 28 33 42 49c63 67 107 92 162 125c32 19 72 42 128 82c82 58 155 120 221 187-25-2-55-9-86-20m-438-708c-83-181-117-408-101-678c124 46 196 102 210 163c43 186 7 355-109 515m2835-3025c-56-8-101-19-129-27-43-12-78-24-110-40-200-95-440-225-762-556-165-169-235-267-281-332-51-72-85-119-181-147-40-12-82-18-124-18-182 0-343 109-486 206-117 79-226 154-291 125-57-25-90-226-111-673-39-851 7-1158 233-1566c98-175 182-327 356-421c201-109 521-212 906-85c546 181 1050 760 1498 1723l30 65c229 492 314 676 273 874-61 292-281 479-427 603-77 66-220 187-394 270m-1974-768c152-103 309-209 462-165c36 10 40 16 87 81s125 174 298 352c334 343 586 483 797 584-48 0-86-4-127-14-75-18-102-42-176-106-67-58-159-138-333-256-341-230-513-346-773-372-64-7-129-9-194-9-69 0-138 3-205 9c55-29 110-66 164-103m-2961 6147c-232-28-422-213-537-521-126-340-138-775-33-1150c264 112 713 273 1130 268c79 143 167 290 261 439c192 304 362 541 485 713c74 103 169 236 209 307-213 8-949 11-1515-56m133-2686l4-3-5 3m-4-174c-90-305-171-776 102-969c57-40 136-61 234-61c188 0 395 78 431 101c219 141 408 303 553 473-454-27-888 123-1320 455m-84 299c93 260 210 577 420 979-362-20-748-160-977-258c65-164 153-307 261-425c99-109 199-208 296-296m616 977c-244-454-363-788-468-1083l-6-16c458-368 915-512 1395-442h7c67 108 116 215 144 319c37 138 34 220 30 307-4 98-8 200 55 355c6 15 12 29 19 44-261 191-605 330-858 432l-66 27c-74 30-158 49-252 58m1165-1498c0 7 0 13-1 19-4-7-7-15-11-22c4 0 8 2 12 3m8393 1488c145-68 335-64 452 15c82 55 110 139 137 220c28 85 61 181 163 212c23 7 47 9 71 7-12 4-22 11-31 19-56 53-18 108 10 148c250 359 251 496 229 546-33 75-276 105-473 59-188-45-402-178-459-375-19-67-10-107 4-172c14-60 31-136 28-249-5-205-74-329-131-429m-742 556c-45 20-62 52-69 75-16 55 13 101 44 149c39 60 97 151 121 307c21 137-159 279-221 293-247 57-512 91-598-84-60-122 0-400 25-510c7-32 11-53 12-66c6-57-15-129-67-227c35-33 62-66 83-98c197-315 328-267 432-229c51 19 172 63 226-56c76-168-3-316-113-521-67-126-151-282-226-489-73-201-114-364-153-521c148 223 368 460 584 608c160 110 322 156 483 137-89 173-118 329-89 486c9 47 22 91 42 137-102 99-140 221-172 320-37 117-59 178-130 204l-66 23c-55 19-57 20-75 29-8 5-24 13-72 35m-921-5752c96 30 256 0 426-38c3 0 5-1 8-1c18 86 78 142 106 168c86 80 178 143 274 187c111 145 252 289 453 291c136 0 281-70 409-198c180-180 295-443 293-669c0-101-24-168-54-227c182 2 496 39 862 116c428 90 1150 1003 1388 1304c38 48 62 79 75 94c274 312 394 457 377 628-14 138-112 268-229 369c4-17 8-33 10-50c47-326-276-597-313-627-346-280-601-243-951-78l-14 7c-27 14-74 38-132 43-11-17-23-33-35-49-52-70-96-131-79-223c30-163 72-236 93-271c15-25 49-84 2-138-41-47-110-53-187-18-119 55-296 237-260 492c23 166 157 314 327 366-3 3-6 7-11 11-26 24-73 59-119 93-175 130-357 264-280 404c6 11 14 21 23 30l-48-15c-153-47-256-48-481-49h-101c-196-2-332-7-433-10-218-6-270-8-369 41-15 7-30 16-47 25-32 17-63 34-95 45-70-28-149-39-224-35l-15-9c-14-8-26-17-38-23-109-61-214-140-311-235-19-38-55-75-111-118-80-93-141-181-180-238-16-24-30-43-41-58-441-591-614-663-706-666-47 0-92 17-123 54-46 54-24 117 100 281c66 88 180 224 345 376c149 136 281 231 387 308c33 24 65 47 93 68c16 18 33 37 51 56-33 8-79 16-106 20-131 20-293 45-349 180-62 151 105 280 227 375c5 4 13 10 21 17-43-1-101-6-173-17-209-215-456-356-714-407-112-22-275-43-434-20-303-193-474-409-510-641-35-229 56-445 74-486c62-136 421-728 1047-1146c225-150 527-200 574-184c11 6 7 76 5 106-7 119-19 318 224 393m1099-620c3-26 9-71 16-88c8 4 20 12 26 15c39 25 98 61 183 51c125-17 224-129 281-272-3 52 0 108 10 167c9 55 22 104 41 151-9 7-17 16-24 25-41 54-30 111-22 158c8 41 18 93 5 174-6 39-23 116-67 193-33 59-131 203-309 255-1 0-133 37-314-34l-41-56c-66-90-133-183-213-248c14-6 29-12 43-18c84-34 180-71 254-147c102-103 118-231 130-325m496-1893c48 43 288 276 312 622c15 217-63 364-146 520-35 65-71 133-100 208c2-31 1-62 0-92-6-81-16-204-115-251-22-10-43-15-64-15-76 0-144 59-202 109-58 50-116 99-162 93-21-4-34-20-77-101-44-82-104-194-233-315-136-126-273-191-347-226-146-69-240-85-323-100-70-12-120-21-191-60-154-86-276-249-305-357-10-37-8-52-7-52c13-7 75-5 120-3c74 3 177 6 305-8c214-23 321-74 426-123c81-38 151-71 274-88c83-11 514-53 838 238m-44 2798c-94 94-195 146-286 146-44 0-86-13-129-39c91 0 149-15 153-16c241-70 369-259 413-338c57-102 79-201 87-252c1-10 3-19 4-28-4 178-98 383-242 526m183-779l-2-1h2m607 4256c115-115 236-228 346-323-91 96-207 206-346 323m-999-1261c-5-18-7-39-5-60c4-49 31-85 58-119c2-3 4-5 6-8-31 55-57 123-58 187m-307-271c2-8 3-18 3-28c0-9-1-17-4-26c11-6 22-11 32-17c14-7 27-14 40-21c37-18 58-25 121-26-68 16-142 54-193 118m-63 154c-2 9-6 31-5 33-4 2-19 2-28-5-14-11-14-55 0-81c6-11 14-16 30-25c8-5 21-12 33-23-18 38-25 73-30 101m-140 167c64 49 155 56 222 18c69-40 82-107 90-152c6-29 11-54 27-76c5-7 11-13 17-18-13 31-24 66-27 106-5 66 11 138 40 196-24 13-45 28-64 45-68 62-97 126-85 189c8 46 35 79 71 105-57-23-119-49-181-77-126-57-229-113-307-167-116-79-174-119-193-170-39-101 5-262 121-328c19-11 41-19 64-25c45 22 88 35 134 40c9 0 18 2 26 2c0 1-2 3-3 4-52 93-49 233 46 306m1113-150c-57 46-60 112-62 156c0 10 0 35 3 31-10 4-49-2-65-23-12-16-19-58 18-168c10-30 19-58 1-92-11-21-30-37-52-43-9-3-18-4-27-4-15 0-29 4-42 10-34 18-43 46-53 82-44 149-81 179-99 184c48-101 77-206 77-206c12-45 34-127-38-163-29-14-73-19-124 34-11 12-30 35-50 65c13-30 17-66-7-103-10-16-28-33-57-45h29c100 3 236 7 431 9h102c226 2 303 2 431 42c120 37 221 72 237 132c18 69-48 176-125 201-70 23-160-24-240-66-94-49-201-104-288-33m-1865 461c-57-103-118-199-183-286c131 3 210-22 242-79c55-96-43-172-147-252-47-37-173-134-172-169c18-43 135-61 214-73c82-13 160-25 215-62c63 55 129 105 197 149-175 122-229 362-167 524c39 101 121 157 257 251c86 59 198 120 333 182c205 94 412 164 452 178c21 7 45 5 65-4c86-41 183-101 173-197-10-97-112-127-211-155-29-8-92-27-118-42c4-6 12-15 25-27c104-95 365-64 509 60c21 18 36 35 50 50c32 35 71 78 143 87c14 2 28 2 42 0-75 112-188 239-341 304-282 118-586 10-830-78-133-48-256-91-359-91-66 0-124 18-173 64-15 14-27 30-36 49-45-115-102-240-180-382m2061-186c-96 137-146 148-163 146-5 0-9-3-34-31-8-9-17-19-28-30c23-4 44-12 63-25c71-46 76-123 78-170c0-5 0-13 1-20c25 8 66 30 94 44c18 9 37 19 58 29-36 7-51 30-70 56m-2554-1538c-48-49-90-95-126-138c36 37 78 82 126 138m-236 1159c-22-7-44-13-66-20-79-25-211-71-360-138c22 3 42 7 60 11c127 25 250 75 366 147m3370-1380c-7 29-15 62-21 97-4 23-6 45-7 67-8-66 7-121 28-164m-4170 1226c305 183 707 333 1082 402l14 3c101 112 195 246 279 399c191 347 248 579 315 849c42 168 85 341 163 558c80 220 167 382 237 513c91 169 135 258 118 335-5-2-10-4-16-6-119-44-368-134-641 301-7 11-17 23-28 36-149-226-395-533-678-881-247-305-481-593-581-760-24-40-52-87-84-137-253-409-724-1171-352-1526c41-40 99-68 170-86m3191 2289c99-54 182-121 249-177c30-24 55-45 78-61c604-428 1038-909 1051-1072c3-32-7-62-27-84l6-13-12 7c-18-17-43-26-71-26-165 3-773 603-886 721-191 200-371 388-504 567-178 84-345 65-526-59-304-208-668-678-685-883-2-23 2-30 2-30c46-44 209 14 353 66c272 97 611 218 956 74c418-175 586-691 591-744c2-22-3-43-14-60c70 24 148 34 226 8c165-55 281-256 239-413-22-81-79-135-148-174c21 4 44 7 66 11c43 6 144 21 161 41c64 75 58 164 54 251-4 76-9 155 49 209c39 36 94 49 168 38c231-32 418-79 556-115c105-27 236-60 263-47c18 17 56 129-199 850-287 812-431 1037-630 1349-47 73-95 149-149 239-365 601-489 573-495 570-15-4-35-64-46-99-31-93-74-221-205-310-88-59-204-92-329-92-105 0-209 23-299 66-8-22-14-44-18-67-29-158 27-330 175-539m2295-2110c-86-60-209-28-407 22-139 35-312 80-536 111-8 1-15 2-20 2c0-18 0-47 2-66c6-97 14-245-94-374-59-70-166-86-270-101-22-3-70-10-102-18c24-28 81-80 216-180c50-37 98-73 130-103c43-40 69-82 77-127c77-12 135-42 166-58l10-5c303-143 486-169 765 56c29 23 282 236 249 466-16 113-95 188-143 234-21 20-82 79-43 141M7477 13344c-633-250-777-879-806-1066-47-304 12-537 91-601c28-23 73-34 135-34c399 0 1355 474 2562 1270-64 86-162 171-287 246-424 257-1142 402-1695 184M6338 8054c-193-223-294-575-256-898c15-131 54-248 111-331c383-129 703-82 953 140c185 164 328 222 423 261c43 18 81 33 89 45c33 114-523 982-626 1063-130 85-476-27-694-279m2279-2788c-22-135-83-381-231-383-88 0-124 82-150 142-28 64-63 144-147 199-25 16-43 23-64 30-34 12-75 27-123 76-61 63-76 123-91 176-10 36-17 65-41 97-26 35-47 43-89 58-45 16-106 38-177 98-82 70-110 133-141 202-18 40-39 86-77 142-94 140-211 220-288 272-32 22-65 41-98 57-124-21-239-22-337-22h-40c-154 0-246-2-267-46-18-39 29-149 95-301c74-171 13-254-37-322-53-72-108-147 52-476c35-73 151-211 263-347c61-73 124-149 179-220c380-488 764-306 1017-185c32 15 63 30 90 41c312 131 634 266 694 544c12 58 13 115 7 168M7262 6833c-111-98-233-168-367-209c9-3 18-6 27-10c76 16 147 39 215 69c210 94 329 233 425 346c1 2 3 3 4 5-80-36-180-90-304-201m564 401c29 5 59 6 93 0c139-25 327-370 756-1213c123-242 240-471 331-633c264-469 567-735 901-790c309-51 639 81 985 392c95 85 199 195 255 366c12 36 20 72 26 106-63-162-124-296-232-283-96 10-114 106-134 219-13 72-29 162-64 258-55 151-118 214-191 286-58 57-123 122-178 233-138 276-73 554-26 758c22 96 50 217 22 237-13 9-73-21-122-46-84-42-200-100-356-125-434-72-790 153-1382 525-206 130-291 199-373 267-83 68-161 132-372 261-97 59-181 107-255 149-125 71-222 126-305 192c192-238 658-896 621-1159m-3192 2821s13-5 35-5c131 0 435 127 668 400c464 543 775 1403 496 1741-47 57-173 106-355 140-65-39-130-83-193-132-225-176-418-327-561-801-103-342-196-1292-90-1343"/></svg>