<?xml version="1.0" encoding="utf-8"?>
<!-- Generator: Adobe Illustrator 27.4.1, SVG Export Plug-In . SVG Version: 6.00 Build 0)  -->
<svg version="1.1" id="_x2014_ÎÓÈ_x5F_1" xmlns="http://www.w3.org/2000/svg" xmlns:xlink="http://www.w3.org/1999/xlink"
	 x="0px" y="0px" viewBox="0 0 607.5 300" style="enable-background:new 0 0 607.5 300;" xml:space="preserve">
<style type="text/css">
	.st0{fill:#FFFFFF;}
	.st1{fill:#69A6C2;}
</style>
<rect x="2718.9" y="-828.3" class="st0" width="2200" height="2200"/>
<g>
	<path class="st1" d="M276,267c-0.9,0-1.6-0.6-1.8-1.5c-0.1-0.6-0.2-1.2-0.2-2c0-0.5,0.2-1,0.5-1.3c0.3-0.4,0.8-0.5,1.3-0.5h0.3
		c0.5,0,1,0.2,1.3,0.6c0.3,0.4,0.5,0.8,0.5,1.3c0,0.6-0.1,1.2-0.1,1.7C277.8,266.2,277.1,267,276,267C276.1,267,276.1,267,276,267z"
		/>
	<path class="st1" d="M276.2,265.3h-0.3c-1,0-1.8-0.8-1.8-1.7c-0.1-2.3,0.2-5.3,0.7-7.9c0.2-0.9,1-1.6,2-1.5
		c0.9,0.1,1.6,0.9,1.6,1.9c-0.1,2.7-0.2,5.2-0.4,7.5C277.9,264.5,277.1,265.3,276.2,265.3z"/>
	<path class="st1" d="M324.2,265.3h-32c-0.4,0-0.8-0.1-1.1-0.4c-0.3,0.2-0.7,0.4-1.1,0.4h-13.9c-0.5,0-1-0.2-1.3-0.6
		c-0.3-0.4-0.5-0.8-0.5-1.3c0.1-2.2,0.2-4.8,0.4-7.5c0-0.1,0-0.2,0-0.3c0.9-4.5,2.2-6.8,4.1-7.2c2.1-0.4,14.3,0.1,34.8,1
		c4.4,0.2,7.9,0.4,8.5,0.4c2.5,0,3.3,2.8,3.8,13.5c0,0.5-0.2,1-0.5,1.3S324.7,265.3,324.2,265.3z M294.2,261.7h28.1
		c-0.3-5.3-0.7-7.4-0.9-8.2c-1.3,0-3.9-0.2-7.9-0.3c-10.1-0.5-30.9-1.4-33.8-1.1c-0.3,0.3-0.9,1.5-1.4,4.2c-0.1,1.9-0.2,3.8-0.3,5.5
		h10.4c1.3-7.9,1.8-8.4,2.8-8.9c0.7-0.3,1.4-0.3,2,0.1C294.2,253.5,294.8,254.3,294.2,261.7z M293.5,255.4L293.5,255.4z
		 M322.2,253.5L322.2,253.5L322.2,253.5z"/>
	<path class="st1" d="M292.5,247c-0.2,0-0.4,0-0.5-0.1c-1.5-0.4-2.1-1.1-2.3-12.2c-0.1-6.5,0-15.2,0.2-24.7
		c0.6-22.7,2.2-43.6,4-55.8c0.1-0.9,0.9-1.6,1.9-1.5c0.9,0.1,1.7,0.8,1.7,1.7c0.8,20.2-0.3,83.1-3,90.8c0,0,0,0,0,0
		C294,246.8,293,247,292.5,247z M291.1,244.1C291.1,244.2,291.1,244.2,291.1,244.1l1.7,0.6L291.1,244.1z M293.9,199
		c-0.3,6.1-0.4,12-0.5,17.5C293.6,210.9,293.8,205,293.9,199z"/>
	<path class="st1" d="M314.7,250.9c-2.7,0-5.8-0.5-7.9-2.3c-1.2-1-2.5-2.9-2.3-6.1c0.3-3.6-0.1-21-0.7-39.7c0-1,0.7-1.8,1.7-1.9
		c1,0,1.8,0.7,1.9,1.6c2.9,31.9,5.2,40.6,6.2,43c1.3-1.9,2.6-7.5,3.3-10.7c1.5-6.5,2.9-12.6,5.9-14.8c0.6-0.4,1.3-0.5,1.9-0.1
		c0.6,0.3,1,1,0.9,1.7c-2,27.9-3.5,28.2-5.1,28.6C320.1,250.4,317.6,250.9,314.7,250.9z M321.3,232.2c-0.3,1.2-0.6,2.3-0.8,3.5
		c-1.2,5.2-2.2,9.1-3.6,11.5c0.8-0.1,1.6-0.2,2.4-0.3C319.5,245.9,320.3,242.7,321.3,232.2z M308.3,239c0,1.8,0,3.1-0.1,3.9
		c-0.1,1.8,0.5,2.6,1,3.1c0.3,0.2,0.6,0.4,1,0.6C309.6,245,309,242.7,308.3,239z M313,246.2C313,246.2,313,246.2,313,246.2
		C313,246.2,313,246.2,313,246.2z"/>
	<path class="st1" d="M305.6,204.6c-0.9,0-1.7-0.7-1.8-1.6c-1.9-21.6-3.4-46.4-3-49.1c0.1-0.9,0.8-1.6,1.7-1.6
		c0.9,0,1.7,0.6,1.8,1.5c1.5,8.5,2.7,39.6,3.1,49c0,1-0.7,1.8-1.7,1.9C305.7,204.6,305.7,204.6,305.6,204.6z"/>
	<path class="st1" d="M284.6,199.4c-0.8,0-1.5-0.5-1.7-1.2c-0.5-1.6-1.1-3.3-1.7-5c-0.1-0.3-0.1-0.6-0.1-0.9l0.3-1.9
		c0.1-0.9,0.9-1.5,1.7-1.5c0.9,0,1.6,0.6,1.8,1.5c0.4,2.1,0.9,4.5,1.4,7c0.2,0.9-0.4,1.9-1.3,2.1
		C284.9,199.4,284.7,199.4,284.6,199.4z"/>
	<path class="st1" d="M291.9,268.6c0,0-0.1,0-0.1,0l-2.4-0.2c-0.5,0-1-0.3-1.3-0.7s-0.5-0.9-0.4-1.4c0.2-1.1,0.3-2.2,0.5-3.2
		c0.1-0.9,0.9-1.5,1.8-1.5h2.2c0.5,0,1,0.2,1.3,0.6s0.5,0.9,0.5,1.4c-0.1,1.1-0.2,2.2-0.3,3.4C293.6,267.9,292.9,268.6,291.9,268.6z
		"/>
	<path class="st1" d="M288.3,215.7c-1.3,0-1.6-1.1-2-2.7c-0.2-0.9-0.5-2.1-0.9-3.6c-0.6-2.7-1.6-6.8-2.6-11.4
		c-0.2-0.9,0.4-1.9,1.3-2.1c0.9-0.2,1.9,0.3,2.2,1.2c2.1,6.4,3.4,11.9,3.9,16.6c0,0.1,0,0.1,0,0.2c0,0.9-0.7,1.7-1.6,1.8
		C288.5,215.7,288.4,215.7,288.3,215.7z"/>
	<path class="st1" d="M292.3,265.3H290c-0.5,0-1-0.2-1.4-0.6c-0.3-0.4-0.5-0.9-0.4-1.5c1.5-9.3,2-9.9,3-10.4c0.7-0.3,1.4-0.3,2,0.1
		c1,0.7,1.6,1.6,0.8,10.8C294,264.6,293.2,265.3,292.3,265.3z M292.1,254.4L292.1,254.4L292.1,254.4z"/>
	<path class="st1" d="M355.2,238.1c-0.3,0-0.5-0.1-0.8-0.2c-0.6-0.3-1-0.9-1-1.6c-0.2-7.8,7.2-23.9,12.5-29.3c1.5-1.5,2.8-2.2,4-2.2
		c1.2,0,2.2,0.7,2.6,1.9c1.9,5.3-11.4,27.2-16.2,31C355.9,238,355.6,238.1,355.2,238.1z M369.1,208.9c-2.8,2.3-9.1,13.2-11.3,21.7
		C362.5,224,368.5,212.8,369.1,208.9z"/>
	<path class="st1" d="M134.7,160.8c-3.1,0-6-1.1-7.9-5.6c-1.8-4.3-14.1-44.5-11.1-49.3c0.4-0.7,1-1.1,1.8-1.1
		c1.4-0.1,2.7,0.6,4.2,3.4c-0.8-10.8,0.6-13.8,3-14.2c1-0.2,1.9,0.1,2.7,0.9c0-2.6,0.3-4.6,1.1-5.8c0.6-0.8,1.3-1.3,2.3-1.4
		c3.1-0.5,5.2,3,7.3,10.5c-0.1-4.4,0.3-7.6,1.6-9.1c0.6-0.7,1.3-1.1,2.2-1.1c0.6,0,1.5,0.1,2.4,0.9c5.3,4.8,7.1,34.5,7.1,34.8
		c0,0.9,0.1,1.7,0.1,2.6c0,0.4,0,0.9,0,1.3c6.2-10.8,11.2-17.5,15.3-15.8c0.7,0.3,1.5,0.9,2,2.3c2,6.1-4.3,26-7.1,30.5
		c-0.9,1.5-1.6,3.4-2.2,5.4l-0.3,0.9c-0.2,0.7-0.9,1.2-1.7,1.2c0,0,0,0,0,0c-0.8,0-1.5-0.5-1.7-1.2l-0.1-0.2
		c-0.9,0.6-2.1,1.7-3.1,2.5c-3.4,2.8-7.3,6.1-10.7,6.6c-0.8,0.1-1.6,0.3-2.3,0.4C137.9,160.5,136.3,160.8,134.7,160.8z M118.8,110.6
		c0.4,3.2,1.5,9.2,4.1,19.2c2.8,10.8,6,21.1,7.2,24c1.7,4,3.9,3.8,8.7,2.9c0.8-0.2,1.6-0.3,2.5-0.4c2.4-0.4,6.1-3.5,8.9-5.8
		c3.1-2.6,4.9-4.1,6.5-3.8c0.5-1.4,1.1-2.8,1.8-4c3.2-5.2,8.3-24.6,6.7-27.6c-0.8,0.1-3.7,1.7-11.5,15.5l-0.6,1.1
		c-0.4,0.7-1.4,2.5-3.2,2.1c-2-0.5-2.1-2.8-2.2-7.4c0-0.8-0.1-1.7-0.1-2.5c-0.6-11.4-3.1-29.1-5.6-32.1c-1.2,2.8,0,14.6,0.6,19.8
		c0.8,7.5,0.9,8.7-0.3,9.5c-0.5,0.4-1.2,0.5-1.8,0.2c-1.3-0.5-1.5-1.4-2.9-8.5c-1.1-5.5-4-19.7-6.4-21.5c-1.5,2.5,1.4,16.4,2.5,21.8
		c1.2,6,1.6,8,1.4,9.1c-0.2,1.1-1.1,1.6-1.8,1.6c0,0,0,0,0,0c-1.6,0-1.9-1.5-2.3-3.1c-0.2-1.1-0.5-2.6-0.9-4.3
		c-0.9-4.3-3-14.9-4.8-18.2c-0.4,2-0.8,8.1,1.8,25.8c0.1,0.4,0.1,0.7,0.1,0.8c0.2,1.4-0.8,2-1.4,2.1c-1.7,0.3-2.1-1-2.5-2.8
		C121.2,116.7,119.8,112.7,118.8,110.6z"/>
	<path class="st1" d="M298.9,91.1c-1,0-2.1-0.2-3.3-0.6c-3-1.1-4.4-3.3-5.6-5.3c-1.1-1.7-2-3.3-4.1-4.6c-4.7-2.8-29.6-5.8-32.7-4.4
		c-0.6,0.5-1,1.1-1.4,1.8c-0.9,1.5-2.3,3.8-6.4,2.8c-0.9-0.2-1.7-0.3-2.6-0.5c-3.2-0.5-6.8-1.2-7.5-5.3c-0.5-2.9,1.5-5.9,4.5-10.5
		c1.9-2.9,4.2-6.4,6.5-10.9l1.4-2.8c4.6-9,6.4-12.3,11.2-12c0.7,0,2.5,0.5,2.7,3.5c0.3,3.9-1.9,11.8-3.3,16.1
		c-1.6,5.2-2.7,8.2-3.5,9.9c7.1-0.3,15.3-0.4,20,0.1c-0.1-3.5,0.3-8.4,0.3-8.5c0.7-7.7,2.4-13,5.1-15.7c2-2,3.5-3.4,4.7-4.2
		c-2.5-1.6-7.3-3.4-13-0.1c-3.7,2.3-6.8,2.9-8.4,1.5c-0.5-0.4-1.6-1.7-0.6-4c1.3-3,8-4.9,9.3-5.3c2.6-0.7,8.9-2,12.1,0.5
		c2.2,1.7,3.7,3.9,5,5.7c1,1.4,1.9,2.8,2.7,3.1c1.6,0.6,5.3,3.1,8.8,7.7c2.9,3.9,6.6,10.5,7.4,19.8l0.1,0.7c0.3,2.4,0.6,4.5,1.6,5.2
		c1.1,0.8,5.1,5.3,3.8,7.7c-0.2,0.3-1,1.7-3.1,0.9c-0.6-0.2-1.7-0.8-3.3-1.6c-4.3-2.2-12.2-6.3-20.1-8.3c1.4,1.2,2.9,2.3,4.4,2.8
		c0.8,0.3,1.6,0.5,2.5,0.7c4,1.1,8.1,2.3,10,5.8c0.8,1.4,1,3.3,0.7,5.7c-0.1,0.6-0.4,1.1-0.9,1.3C302.5,90.5,300.9,91.1,298.9,91.1z
		 M302.8,88.2L302.8,88.2L302.8,88.2z M290.3,79.6c1.2,1.2,2,2.5,2.7,3.7c1.1,1.8,1.9,3.2,3.8,3.8c1.5,0.5,2.9,0.5,4.3-0.1
		c0.1-1.1-0.1-2-0.3-2.5c0,0,0,0,0,0c-1.2-2.2-4.5-3.2-7.9-4.1C292,80.1,291.2,79.9,290.3,79.6L290.3,79.6z M280.4,68.7
		c10.3,0.6,22,6.5,28,9.6c-0.2-0.3-0.5-0.5-0.7-0.6c-2.2-1.6-2.6-4.4-3-7.6l-0.1-0.8c0,0,0-0.1,0-0.1c-1.4-16.3-12.3-23.9-13.9-24.5
		c-1.2-0.4-2.1-1.3-3-2.4c-0.8,0.5-2.3,1.7-4.9,4.4c-4.5,4.5-4.6,20.2-4.3,23.1C278.8,69.1,279.6,68.7,280.4,68.7z M239.5,71.7
		c-0.6,1.1-0.9,2-0.8,2.7c0.3,1.5,1.2,1.8,4.6,2.4c0.8,0.1,1.8,0.3,2.8,0.5c1.6,0.4,1.7,0.2,2.5-1.2c0.5-0.9,1.2-2,2.4-2.9
		c3.2-2.4,25.2,0.3,34,3.2c-0.7-0.6-1.4-1.2-2-1.8c-1-0.9-2.4-2.2-2.9-2.3c0,0,0,0,0,0c-0.7,0-1.4-0.5-1.6-1.2
		c0,0.1-0.1,0.2-0.1,0.2c-0.4,0.7-1.2,1.1-2,0.9c-6-1.4-29.5-0.2-33.9,0.5C241.6,72.9,240,73.1,239.5,71.7z M258.1,42.5
		c-1.9,0.2-3,2.2-7.1,10.1l-1.5,2.8c-2.4,4.6-4.8,8.2-6.7,11.2c-0.7,1-1.3,2-1.8,2.8c0.4-0.1,0.7-0.2,1.1-0.3
		c0.7-0.1,1.7-0.3,2.7-0.6c2.1-0.4,4.6-0.9,6.1-1.2l0.6-0.1c0.8-1.5,2.6-6.5,4.3-12.2C257.8,47.5,258.2,43.8,258.1,42.5z
		 M278.1,69.2C278.1,69.2,278.1,69.2,278.1,69.2C278.1,69.2,278.1,69.2,278.1,69.2z M278.1,69.2C278.1,69.2,278.1,69.2,278.1,69.2
		C278.1,69.2,278.1,69.2,278.1,69.2z M278.1,69.2C278.1,69.2,278.1,69.2,278.1,69.2C278.1,69.2,278.1,69.2,278.1,69.2z M278,69.2
		C278.1,69.2,278.1,69.2,278,69.2C278.1,69.2,278.1,69.2,278,69.2z M271.3,36.1c-2.3,0.8-4,1.7-4.7,2.3c0.7-0.2,1.9-0.6,3.5-1.6
		C270.5,36.5,270.9,36.3,271.3,36.1z"/>
	<path class="st1" d="M249.9,102c-0.8,0-1.6-0.6-1.8-1.5c-1-5.5-1.6-11-1.5-16c0-0.8,0.6-1.5,1.4-1.7c0.8-0.2,1.6,0.2,2,0.9
		c0.2,0.4,0.2,0.5,0.3,2.2c0.1,2.6,0.4,8,1.4,14c0.1,1-0.5,1.9-1.5,2C250.1,102,250,102,249.9,102z"/>
	<path class="st1" d="M312.2,143.4c-1.2,0-3.5-0.8-7.9-4c-0.7-0.5-0.9-1.4-0.6-2.1c0.3-0.8,1.1-1.2,1.9-1.1c2.5,0.3,5.7,1,7.6,3.2
		c0,0,0,0,0,0c1.5,1.7,0.9,2.9,0.5,3.4C313.4,143,313,143.4,312.2,143.4z"/>
	<path class="st1" d="M132.7,166.9c-0.1,0-0.2,0-0.2,0c-2.5-0.3-3.2-1.9-3.4-2.8c0,0,0,0,0,0c-0.4-1.7,0.7-2.4,1-2.5
		c1.6-0.7,2.7,0.8,4,2.5c0.4,0.6,0.5,1.4,0.1,2C133.9,166.6,133.3,166.9,132.7,166.9z M132.6,163.3l-1.7,0.4L132.6,163.3
		C132.6,163.3,132.6,163.3,132.6,163.3C132.6,163.3,132.6,163.3,132.6,163.3z"/>
	<path class="st1" d="M446.9,223.9c-1.6,0-2.9-0.4-3.9-1.1c-1.8-1.3-2-3.3-2.3-5c-0.1-0.5-0.1-1-0.3-1.4c-0.4-1.4,0-2.3,0.4-2.8
		c1.2-1.5,3.4-1.5,7.5-1.3c1.4,0,2.9,0.1,4.6,0.1c3.8,0,6.3,0.9,7.6,2.8c0.5,0.7,0.4,1.6-0.1,2.3c-3.1,3.4-7.4,5.7-11.5,6.3
		C448.3,223.9,447.6,223.9,446.9,223.9z M444,215.9c0.1,0.5,0.2,1,0.2,1.5c0.2,1.1,0.3,2.2,0.9,2.6c0.5,0.4,1.7,0.5,3.3,0.3
		c2.6-0.4,5.5-1.8,7.9-3.8c-0.8-0.3-1.9-0.4-3.3-0.4c-1.8,0-3.3-0.1-4.7-0.1C446.7,215.8,444.9,215.8,444,215.9z"/>
	<path class="st1" d="M282.8,194.3c-0.8,0-1.4-0.5-1.7-1.2c-7.1-19.8-18.8-41.8-23.8-51.2c-1.2-2.3-2-3.8-2.4-4.5c0,0,0,0,0,0
		c-0.9-2-1.2-3.6-0.9-5c0.1-0.5,0.5-1,0.9-1.2c0.5-0.2,1-0.3,1.5-0.1c4.2,1.8,8,6.8,11,10.9l0.7,1c2.8,3.7,6,5.6,9.8,7.9
		c1,0.6,2.1,1.3,3.2,2c5.8,3.7,3.8,15,1.8,23.2c-0.2,0.7-0.4,3.6,1.7,14.3c0,0.2,0,0.4,0,0.6l-0.3,1.9c-0.1,0.8-0.8,1.4-1.6,1.5
		C282.9,194.3,282.9,194.3,282.8,194.3z M258.8,137.1c0.4,0.8,1,1.9,1.7,3.2c4,7.5,12.2,23,19.1,39.1c-0.2-2.4-0.1-3.5,0.1-4.2
		c3.3-13.7,1.7-18-0.2-19.3c-1.1-0.7-2.1-1.3-3.1-1.9c-3.9-2.4-7.7-4.6-10.9-8.8l-0.7-1C262.9,141.8,260.9,139.1,258.8,137.1z"/>
	<path class="st1" d="M324.2,265.3c-1,0-1.8-0.8-1.8-1.7c-0.3-6.7-0.8-9.2-1-10.1c-1.3,0-3.9-0.2-7.9-0.3
		c-10.1-0.5-30.9-1.4-33.8-1.1c-0.3,0.3-0.9,1.5-1.4,4.3c-0.2,0.9-1,1.6-2,1.5c-0.9-0.1-1.6-0.9-1.6-1.9l0.2-4.8
		c0.6-13.3,1.3-29.8,3.1-39.6c0.7-4,1.5-9.1,2.3-14.5c0.2-1.6,0.5-3.2,0.7-4.8c0-0.3,0.2-0.6,0.4-0.9c0-0.1-0.1-0.3-0.1-0.4
		c0-0.2,0-0.4,0-0.6c2.8-18,6.1-35.8,12-43.7c0.5-0.7,1.4-0.9,2.1-0.7c0,0,0.1,0,0.1,0c0.2-0.6,0.3-1.1,0.5-1.6
		c0.3-0.8,1.1-1.4,2-1.2c1.4,0.2,2.8,0.4,4.4,0.6c2.8,0.4,6.1,0.8,9.3,1.6c7.9,1.8,12.1,3.3,15.6,7.2c0.3,0.3,0.4,0.7,0.5,1.1
		c0.7,9.7-0.3,40.9-1.9,65.5c0.9,0.1,2,0.5,3.2,1.4c11,8.5,21.7,14.9,24.5,14.7c0.1,0,0.2-0.1,0.4-0.3c0.5-0.4,1.3-0.5,1.9-0.2
		c0.6,0.3,1,0.9,1,1.6c0,1.3,0.3,1.8,0.5,1.9c4.3,1.5,17.2,3.8,44.9-6.8c0.1-1.9-0.7-6.9-1.3-10.3c-1.5-9.7-1.7-11.8,0-12.8
		c0.3-0.2,1.4-0.7,2.5,0.3c1.6,1.3,2.5,4.9,4.3,13.7c0.9,4.2,2.3,11,3.4,13.2c5.5-3.9,25.4-13.1,34.4-12c0.6,0.1,1.1,0.4,1.4,1
		c0.3,0.6,0.3,1.2,0.1,1.8c-0.4,1-1.4,1.2-2.2,1.5c-1.7,0.5-2.9,1-2.9,3.3v32.5c0,1-0.8,1.8-1.8,1.8s-1.8-0.8-1.8-1.8v-32.5
		c0-1.5,0.3-2.6,0.8-3.5c-9.6,2-23.5,8.8-26.4,11.3c-0.8,0.6-1.7,0.8-2.6,0.5c-1.9-0.6-3-3.3-4.4-9.2c0.1,1.7,0,2.8-0.4,3.5
		c-0.2,0.4-0.5,0.7-0.9,0.8c-28.4,11-42.4,9.3-48.3,7.2c-0.9-0.3-2-1.1-2.6-2.8c0,0,0,0-0.1,0c-6.5,0-23.4-12.8-26.8-15.4
		c-0.6-0.4-0.9-0.6-1.2-0.6c-1.6,21.7-2.9,26.1-4.1,27.1c0.3,0,0.6,0,0.7,0c2.5,0,3.3,2.8,3.8,13.5
		C326.1,264.4,325.3,265.2,324.2,265.3C324.3,265.3,324.3,265.3,324.2,265.3z M282,248.4c4.5,0,13.2,0.3,25.7,0.9
		c-0.3-0.2-0.6-0.4-0.8-0.6c-1.2-1-2.5-2.9-2.3-6.1c0.3-3.6-0.1-21-0.7-39.7c-1.9-21.5-3.4-46.3-3-49c0.1-0.9,0.8-1.6,1.7-1.6
		c0.9,0,1.7,0.6,1.8,1.5c1.5,8.5,2.7,39.6,3.1,49c2.9,31.8,5.2,40.5,6.2,42.9c1.3-1.9,2.6-7.5,3.3-10.7c1.4-6,2.7-11.6,5.3-14.2
		c1.7-23.8,2.7-55.8,2.1-66.1c-2.9-2.9-6.4-4.1-13.3-5.7c-3.1-0.7-6.1-1.1-9-1.5c-1-0.1-2-0.3-2.9-0.4c-0.5,2-1,4.6-1.5,7.7
		c0.8,20.4-0.3,83-3,90.7c-0.7,2-2.2,1.7-2.5,1.6c-1.5-0.4-2.1-1.1-2.3-12.2c-0.1-5.3-0.1-12.2,0.1-19.8c-0.3,0.3-0.7,0.6-1.2,0.6
		c-1.6,0.2-1.9-1-2.3-2.7c-0.2-0.9-0.5-2.1-0.9-3.6c-0.5-2.1-1.2-5.2-2-8.6c-0.6,4.2-1.2,8.2-1.9,11.4c-1.7,8.9-2.4,23.7-2.9,36.4
		c0.1,0,0.2,0,0.2-0.1C279.4,248.4,280.4,248.4,282,248.4z M321.3,232.2c-0.3,1.2-0.6,2.3-0.8,3.5c-1.2,5.2-2.2,9.1-3.6,11.5
		c0.8-0.1,1.6-0.2,2.4-0.3C319.5,245.9,320.3,242.7,321.3,232.2z M308.3,239c0,1.8,0,3.1-0.1,3.9c-0.1,1.8,0.5,2.6,1,3.1
		c0.3,0.2,0.6,0.4,1,0.6C309.6,245,309,242.7,308.3,239z M313,246.2C313,246.2,313,246.2,313,246.2C313,246.2,313,246.2,313,246.2z
		 M353.6,235.2L353.6,235.2C353.6,235.2,353.6,235.2,353.6,235.2z M402.3,231.9L402.3,231.9L402.3,231.9z M293.9,199.1
		c-0.2,5.9-0.4,11.8-0.5,17.1C293.6,210.8,293.8,205,293.9,199.1z M286.3,197.2c1.7,5.3,2.9,10,3.6,14.2c0-0.4,0-0.8,0-1.2
		c0.6-22.6,2.1-43.4,4-55.6c0-0.6-0.1-1.1-0.1-1.6c-4,8.6-6.8,23.6-8.9,37.7C285.3,192.6,285.8,194.8,286.3,197.2z"/>
	<path class="st1" d="M270.5,246.7c-0.3,0-0.6-0.1-0.9-0.3c-1-0.6-1-0.6-2.5-13.8c-1.9-17.2-5.5-49.1-11.2-71.8
		c-0.2-0.9,0.3-1.9,1.2-2.2c0.9-0.3,1.9,0.2,2.2,1c9.3,23.1,19.1,56.7,13,85.6c-0.1,0.6-0.5,1-1,1.3
		C271,246.6,270.8,246.7,270.5,246.7z M264.8,186.7c2.6,16.3,4.5,32.9,5.8,44C271.2,216,268.6,200.7,264.8,186.7z"/>
	<path class="st1" d="M257.7,162.1c-0.7,0-1.4-0.4-1.7-1.1c-5.1-12.6-10-22.1-12-25.6c-0.4-0.7-0.3-1.6,0.3-2.1
		c0.6-0.6,1.5-0.7,2.2-0.3c4.8,2.8,9,11.6,12.9,26.9c0.2,0.9-0.3,1.9-1.2,2.2C258,162.1,257.9,162.1,257.7,162.1z"/>
	<path class="st1" d="M453.7,214.2c-2.6,0-5.3-0.4-7.3-0.7c-1.1-0.2-2.1-0.3-2.6-0.3c-3.7,0-5.2-1.3-5.9-2.3c-0.7-1.1-0.7-2.5,0-3.8
		c1.3-2.6,5.8-2.6,14.4-2.5c1.3,0,2.5,0,3.8,0c2.2,0,3.5-0.2,4.4-0.3c1.1-0.1,2-0.3,2.8,0.5c0.8,0.7,0.8,1.7,0.8,2.7l0,0.5
		c0,0.1,0,0.3-0.1,0.4C462.8,213,458.3,214.2,453.7,214.2z M441,208.8c0,0.1,0,0.2,0,0.2c0.1,0.1,0.8,0.6,2.8,0.6
		c0.7,0,1.8,0.2,3.1,0.3c4.2,0.6,11.9,1.7,13.5-2c-1,0.1-2.4,0.2-4.3,0.2c-1.3,0-2.6,0-3.9,0C448.2,208.1,442.3,208,441,208.8z
		 M440.9,208.9L440.9,208.9L440.9,208.9z"/>
	<path class="st1" d="M326.1,155.6c-0.5,0-1-0.2-1.3-0.6c-2.9-3.2-6.5-4.5-13.8-6.1c-3.1-0.7-6.1-1.1-9-1.5c-1.6-0.2-3-0.4-4.5-0.7
		c-0.5-0.1-1-0.4-1.2-0.8c-0.3-0.4-0.3-1-0.2-1.5c0.5-1.4,1.7-5.1,4.4-4.8c5.6,0.6,24.2,3.1,26.9,11c0.1,0.4,0.3,1.1,0.4,3
		c0.1,0.8-0.4,1.5-1.1,1.8C326.5,155.5,326.3,155.6,326.1,155.6z M300.3,143.5c0.7,0.1,1.4,0.2,2.1,0.3c2.8,0.4,6.1,0.8,9.3,1.6
		c1.5,0.3,2.9,0.7,4.1,1c-4.4-1.5-10.1-2.6-15.4-3.2C300.5,143.3,300.4,143.4,300.3,143.5z M300.2,143.2
		C300.2,143.2,300.2,143.2,300.2,143.2C300.2,143.2,300.2,143.2,300.2,143.2z"/>
	<path class="st1" d="M447.3,196.7c-2,0-3.9-1.6-4.9-3.3c-0.9-1.6-1-3.2-0.1-4.4l0,0c1-1.5,3.2-2.2,7-2.1c0.5,0,0.9,0.2,1.3,0.5
		c0.3,0.3,0.5,0.8,0.5,1.3c-0.1,3.8-0.4,5-0.6,5.7c-0.5,1.3-1.5,2.2-2.9,2.3C447.5,196.7,447.4,196.7,447.3,196.7z M445.3,191.1
		c0,0.2,0.2,0.6,0.6,1.1c0.4,0.5,0.9,0.8,1.2,0.9c0.1-0.3,0.2-0.9,0.3-2.5C446.2,190.7,445.5,190.9,445.3,191.1z"/>
	<path class="st1" d="M447.6,265.3h-7.2c-1,0-1.8-0.8-1.8-1.8v-32.5c0-1.5,0.3-2.6,0.8-3.5c-9.6,2-23.5,8.8-26.4,11.3
		c-0.8,0.6-1.7,0.8-2.6,0.5c-1.9-0.6-3-3.3-4.4-9.2c0.1,1.7,0,2.8-0.4,3.5c-0.2,0.4-0.5,0.7-0.9,0.8c-28.4,11-42.4,9.3-48.3,7.2
		c-0.9-0.3-2-1.1-2.6-2.8c0,0,0,0-0.1,0c-6.5,0-23.4-12.8-26.8-15.4c-1.2-0.9-1.6-0.6-1.9-0.4c-0.6,0.4-1.3,0.5-1.9,0.1
		c-0.6-0.3-1-1-0.9-1.7c1.7-24.4,2.8-57.8,2.1-67.5c-0.1-0.8,0.4-1.5,1.1-1.8c0.7-0.3,1.5-0.1,2,0.4c1.6,1.7,3,4,4.6,7.1
		c4.7,9.1,36.1,40.8,41.7,43.8c3.8,2,8.1,2.1,13.6,2.1c2.4,0,4.9,0,7.6,0.2c5.1,0.3,7-0.2,9-0.8c1.5-0.4,3-0.9,5.6-0.9
		c5.8-0.2,11.8-0.6,16-2c2-0.7,4.9-3.2,7.5-5.5c2.8-2.5,5.3-4.6,7.3-5.2c0.4-0.7,1.6-3.8,1.6-18.2c-3,1.6-21.8,1.2-25.3-0.6
		c-3.3-1.7-43.5-40.6-45.5-45.1c-2.1-4.7-0.9-57.8-0.1-62.5c1.1-6.4,45.6-47,46.1-47.4c0.9-0.8,3.5-3.1,34.2-2.6
		c14,0.2,31,1.2,33.9,2.2c5.5,2,42.4,38.4,46.3,43c1.9,2.3,4.2,11.1,1.4,60.1l-0.1,1.8c-0.1,1.6-0.3,5.7-22.7,27.3
		c-10.9,10.6-22.8,21-25.2,23c-4.2,3.3-25.2,2-34.2,1.3c0.2,3,0.4,8.6,0.4,13.3c3.1,0.2,6.5,0.8,9,1.6c2.7,0.9,2.8,2.6,2.7,3.3
		c-0.3,2.3-3.5,4.1-7.3,5.2c3.8,0.5,7.1,2,8.2,5.1c0,0.1,0,0.1,0.1,0.2c0.6,2.2,0.7,4.1,0.3,5.7c0,0.3,0,0.7,0,1.2
		c0.1,2.3-0.9,4.8-2.8,7.2c0.5,1.4,0.4,3,0.3,4.1c-0.3,3.1-6.5,5.5-12.2,7v35.8C449.4,264.5,448.6,265.3,447.6,265.3z M442.1,261.7
		h3.6v-34.3c-0.3,0.1-0.5,0.2-0.8,0.2c-1.7,0.5-2.9,1-2.9,3.3V261.7z M357,237.1c0.1,0.7,0.3,1,0.5,1.1c4.3,1.5,17.2,3.8,44.9-6.8
		c0.1-1.9-0.7-6.9-1.3-10.3c-1.1-6.8-1.5-9.9-1-11.5c-1.4,0.1-3.1,0.1-5.3-0.1c-2.6-0.2-5.1-0.2-7.4-0.2c-5.5,0-10.3-0.1-14.8-2.3
		C373.9,212.5,362.2,231.9,357,237.1z M404,208.9c1.3,1.6,2.2,5.3,3.9,13.3c0.9,4.2,2.3,11,3.4,13.2c5.1-3.7,22.7-11.9,32.4-12.1
		c-0.3-0.1-0.5-0.3-0.8-0.5c-1.8-1.3-2-3.3-2.3-5c-0.1-0.5-0.1-1-0.3-1.4c-0.4-1.4,0-2.3,0.4-2.8c0.2-0.2,0.4-0.4,0.6-0.6
		c-2.1-0.4-3.1-1.3-3.6-2.2c-0.7-1.1-0.7-2.5,0-3.8c0.4-0.8,1.2-1.4,2.3-1.8c-0.1-0.2-0.2-0.4-0.2-0.6c0-0.2-0.8-3.8,1.5-6.7
		c0.8-1,1.8-1.8,3-2.3c-0.6-0.4-1.1-0.9-1.5-1.5c-0.4,0.4-0.8,0.5-1.2,0.6c-1.2,0.3-3.9,2.7-6.1,4.5c-3,2.6-6.1,5.3-8.8,6.2
		c-4.6,1.6-10.9,2-17,2.2c-2.2,0.1-3.4,0.4-4.8,0.8C404.7,208.7,404.4,208.8,404,208.9z M325.9,219.2c0.9,0.1,2,0.5,3.2,1.4
		c10.7,8.2,21.1,14.5,24.3,14.7c0.5-8.1,7.4-22.9,12.5-28.1c1.3-1.3,2.5-2,3.6-2.2c-9.7-7.8-36.1-34.7-40.6-43.5
		c-0.3-0.5-0.5-1-0.8-1.5C328.2,173.2,327.3,198.5,325.9,219.2z M369.1,208.8c-2.9,2.2-9,13.3-11.3,21.7
		C362.6,223.9,368.6,212.7,369.1,208.8z M446.8,223.9c0.1,0.1,0.2,0.3,0.3,0.4c0,0,0,0.1,0.1,0.1c5.1-1.3,10-3.3,10.8-4.3
		c0-0.2,0-0.3,0-0.5c-2.7,2.2-5.9,3.6-9,4.1C448.2,223.9,447.5,223.9,446.8,223.9z M444,215.9c0.1,0.5,0.2,1,0.2,1.5
		c0.2,1.1,0.3,2.2,0.9,2.6c0.5,0.4,1.7,0.5,3.3,0.3c2.6-0.4,5.5-1.8,7.9-3.8c-0.8-0.3-1.9-0.4-3.3-0.4c-1.8,0-3.3-0.1-4.7-0.1
		C446.7,215.8,444.9,215.8,444,215.9z M458.8,213.5c0.1,0,0.1,0.1,0.2,0.1c0-0.1,0.1-0.1,0.1-0.2C459,213.5,458.9,213.5,458.8,213.5
		z M441,208.8c0,0.1,0,0.2,0,0.2c0.1,0.1,0.8,0.6,2.8,0.6c0.7,0,1.8,0.2,3.1,0.3c4.2,0.6,11.9,1.7,13.5-2c-1,0.1-2.4,0.2-4.3,0.2
		c-1.3,0-2.6,0-3.9,0C448.2,208.1,442.3,208,441,208.8z M443.7,202.1l-0.2,2.4c0,0.1,0,0.1,0,0.2c2.2-0.2,5.1-0.2,8.8-0.1
		c1.3,0,2.5,0,3.8,0c2.2,0,3.5-0.2,4.4-0.3c0,0,0,0,0.1,0c-0.1-0.3-0.1-0.6-0.2-0.9c-0.7-1.5-2.8-2.2-4.4-2.6
		C451,199.9,445,201.2,443.7,202.1z M451,190.6c-0.1,2.4-0.4,3.3-0.6,3.9c0,0,0,0.1,0,0.1c3.9-0.5,6.9-1.8,8.2-2.7
		C456.5,191.3,453.6,190.8,451,190.6z M445.3,191.1c0,0.2,0.2,0.6,0.6,1.1c0.4,0.5,0.9,0.8,1.2,0.9c0.1-0.3,0.2-0.9,0.3-2.5
		C446.2,190.7,445.5,190.9,445.3,191.1z M459.5,192.2L459.5,192.2L459.5,192.2z M445.6,167.7c0.2,9.5,0,15.6-0.5,19.6
		c0.7-0.2,1.5-0.3,2.4-0.4c0-6.5-0.5-15.1-0.5-15.2c0-0.5,0.2-1,0.5-1.4c0.4-0.4,0.9-0.6,1.4-0.5c14.7,1.3,31.4,1.6,33.8-0.3
		c7.6-6.1,46.2-41.3,46.5-47.6l0.1-1.8c2.8-48.1,0.5-56.3-0.6-57.6c-5.2-6.2-40.9-40.5-44.7-41.9c-4.4-1.6-60.1-3.5-64.5-0.3
		c-12.5,11.3-43.8,41.1-44.9,45.3c-1,5.8-1.5,56.9-0.1,60.5c1.7,3.5,39.8,41.1,43.8,43.3c2.4,1.2,17.8,1.5,21.5,0.8
		c0,0,0-0.1,0.1-0.1c0.1-0.2,0.3-0.8,0.2-0.9c0,0-0.8-1.5-9.2-1.5l-0.2,0c-8.6,0-9.1-0.3-14.2-6.3c-1.6-1.9-7.3-7.1-13.2-12.6
		c-19-17.6-25.4-23.9-25.4-26.7c0-0.8-0.1-3.5-0.3-7.2c-1.1-27.4-1.6-46.4,0-49.8c2.2-4.7,40.6-40.1,45.3-41.7
		c2.8-0.9,21.3-1.2,29.1-1.3c11.8-0.1,26.3-0.2,27.7,0.6c2.3,1.1,44,39.8,45.5,43.3c0.3,0.6,1,2.4,1.2,28.2c0.1,11.7,0,26-0.2,27.8
		c-0.1,0.8-0.4,2.8-21.7,23.4c-2.1,2.1-21.1,20.3-24.1,21.4c-1.7,0.7-7.2,0.7-18.4,0.7C456.3,167.3,448.4,167.3,445.6,167.7z
		 M381.6,121.9c1,2.8,15.5,16.2,24.2,24.2c6.3,5.8,11.7,10.8,13.5,12.9c4.2,4.9,4.2,4.9,11.4,5l0.2,0c5.6,0,9.2,0.7,11,2
		c0.3-1.8,2.8-2,7.5-2.2c3.5-0.1,8.2-0.1,12.7-0.1c6.6,0,15.7,0,17.1-0.5c4-1.9,41.3-38,43.5-42.1c0.5-4.9,0.2-50.3-0.8-53.9
		c-2.3-3.5-39.5-38.4-43.7-41.5c-4.4-0.6-50.4-0.3-54.1,0.9c-4.3,1.7-41.3,35.9-43.1,39.8c-1.5,3.4-0.1,37.1,0.3,48.2
		C381.5,118.4,381.6,120.9,381.6,121.9z M522.8,121.1L522.8,121.1L522.8,121.1z M478.5,25.9L478.5,25.9L478.5,25.9z"/>
	<path class="st1" d="M283.1,192.4c-0.9,0-1.6-0.6-1.8-1.5c-2.2-11.3-2-14.5-1.7-15.8c3.3-13.7,1.7-18-0.2-19.3
		c-1.1-0.7-2.1-1.3-3.1-1.9c-3.9-2.4-7.7-4.6-10.9-8.8l-0.7-1c-2.8-3.7-6.2-8.3-9.6-9.7c-0.8-0.3-1.2-1.2-1-2
		c0.2-1.1,0.8-1.9,1.2-2.5c0.2-0.3,0.4-0.6,0.5-0.9c0.4-0.9,1-1.9,1.7-2.9c0.4-0.5,0.9-1.2,1.2-1.8c-5.1-3-8.7-11-10.6-23.8
		c-0.1-1,0.5-1.9,1.5-2c1-0.2,1.9,0.5,2.1,1.4c1.9,9.7,5.3,17.9,8.3,20c4.4,3,15-1.4,20.4-6.9c6-6.3,10.4-10.6,15.1-13.8
		c2.9-2.1,5.2-7.3,5.7-11.1c0.1-0.6,0.4-1.1,0.9-1.3c0.7-0.4,1.1-0.8,1.1-0.8c0.4-0.4,1.1-0.6,1.7-0.5c0.6,0.1,1.1,0.6,1.3,1.2
		c0.1,0.3,0.7,2.3,1.1,9.9c0.2,4.7-3.3,8.6-9.2,13.3c-0.3,0.3-0.6,0.5-0.9,0.8c-1.4,1.2-2.7,2.3-2.9,4.4c-0.3,2.6,0.4,3.4,1.6,4.7
		c1.3,1.5,2.9,3.3,2.9,7.5c0,2.2,3.1,5.8,7.9,9.2c0.7,0.5,0.9,1.4,0.6,2.1c-0.3,0.8-1.1,1.2-1.9,1.1c-1.6-0.2-3.4-0.3-5.2-0.4
		c-4-0.2-8.1-0.4-11-2c0,0-0.1-0.1-0.1-0.1c0.2,0.6,0.4,1.1,0.6,1.6c1,2.2,3.4,3.4,8.6,4.3c0.5,0.1,1,0.4,1.2,0.8s0.3,1,0.2,1.5
		c-0.7,2.1-1.4,5.3-2,9.4c-0.1,0.9-0.9,1.6-1.9,1.5c-0.9-0.1-1.7-0.8-1.7-1.7c0-0.6-0.1-1.2-0.1-1.8c-4.1,8.7-6.8,23.8-9,38
		C284.8,191.7,284,192.4,283.1,192.4C283.1,192.4,283.1,192.4,283.1,192.4z M258.2,132c3.5,2.2,6.7,6.5,9.4,10l0.7,1c0,0,0,0,0,0
		c2.8,3.7,6,5.6,9.8,7.9c1,0.6,2.1,1.3,3.2,2c5.8,3.7,3.8,15,1.8,23.2c-0.1,0.4-0.2,1.2,0,3.2c2.5-13.9,5.5-26.3,10.2-32.5
		c0.2-0.3,0.5-0.5,0.8-0.6c-3.5-0.9-6.5-2.4-8-5.7c-2-4.5-5.8-17.1-2-26.2c-0.4,0.4-0.8,0.9-1.3,1.3c-4.6,4.8-13.6,9.5-20.3,9
		c-0.3,1.3-1.2,2.6-2.1,3.8c-0.5,0.7-1.1,1.6-1.3,2.1C258.9,131,258.6,131.5,258.2,132C258.2,132,258.2,132,258.2,132z M287.9,110.3
		C287.9,110.3,287.9,110.3,287.9,110.3c0.9,0.3,1.3,1.1,1.2,2c-1.4,9.4-1.1,20.4,1.6,21.9c2,1.1,5.6,1.4,9.1,1.5
		c-2.6-2.5-4.9-5.5-4.9-8.4c0-2.8-0.9-3.8-2-5.1c-1.3-1.5-2.9-3.3-2.4-7.5c0.4-3.5,2.5-5.4,4.1-6.8c0.3-0.3,0.6-0.5,0.9-0.8
		c0,0,0.1-0.1,0.1-0.1c5.9-4.8,8.1-7.6,7.9-10.4c-0.1-1.2-0.1-2.2-0.2-3.1c-1.3,3.4-3.3,6.6-5.9,8.4
		C294.3,104.2,291.4,106.9,287.9,110.3z"/>
	<path class="st1" d="M268.1,251.7c-1,0-1.8-0.8-1.8-1.8c0-1,0.7-1.8,1.7-1.8c1.2,0,2.2-0.1,2.8-0.1c1.6,0,2.4,0.6,2.4,1.8
		c0,1.8-1.7,1.8-2.7,1.8C270,251.7,269.2,251.7,268.1,251.7C268.1,251.7,268.1,251.7,268.1,251.7z"/>
	<path class="st1" d="M186.5,200.2c-0.6,0-1.3-0.2-1.8-0.6c-4.1-3-5.3-19.3-4.4-26.9c0.1-0.8,0.7-1.4,1.4-1.6
		c0.8-0.2,1.5,0.2,1.9,0.9c3.7,6.5,8,20,6.2,25.4c-0.5,1.5-1.4,2.2-2.1,2.5l0,0C187.3,200.1,186.9,200.2,186.5,200.2z M187,198.3
		L187,198.3L187,198.3z M183.5,180.7c0.3,6.9,1.6,13.8,2.9,15.6C187.1,194.3,185.9,187.3,183.5,180.7z"/>
	<path class="st1" d="M275.9,265.3h-59.5c-0.9,0-1.7-0.7-1.8-1.6c0-0.1,0-0.2,0-0.3c-0.4-2.7,0-7.6,0.4-12.8
		c0.4-5.2,0.9-11.2,0.4-13.8c-0.3-1.6-0.6-4.8-0.9-8.7c-0.7-8.6-1.9-23-4.7-26.4c-3-3.8-12.3-0.6-19.2,1.7c-1.1,0.4-2.2,0.7-3.1,1
		c-7.9,2.5-17,1.4-30.6-3.8c-10.9-4.2-12.5-12-11.8-15.5c0.3-1.4,0.9-2.1,1.4-2.4c-1.1,0-2.1-0.2-2.9-0.7c-1.8-1.1-4.7-5.1-9-11
		c-1.2-1.8-2.4-3.4-3.3-4.6c-0.4-0.6-0.5-1.4-0.1-2c0.4-0.6,1.1-1,1.8-0.9c2.7,0.4,9.6-2.3,14.6-4.3l1.4-0.5c4-1.6,5.3-4.9,6.6-8.7
		c0.2-0.7,0.9-1.2,1.7-1.2c0,0,0,0,0,0c0.8,0,1.5,0.5,1.7,1.2c4,11.9,6.2,14.9,6.9,15.7c1.8,1.8,4.9,1.7,8.5,1.5
		c1.1,0,2.2-0.1,3.3-0.1c1.1,0,2.3,0.6,3.4,1.7c0.5-1.3,1.2-2.2,2.1-2.6c1.7-0.8,8.4-6.4,15-11.7c14.7-12,21.2-17.1,23.6-17.6
		c1.3-0.3,2.8-0.6,3.2,1.1c0.1,0.5,0.3,1.7-1.5,2.3c-1.9,0.7-2.6,1.2-2.9,1.4c1.5,5.4,13.1,53.8,13.9,71.7c0.7,15.2-2.4,24.9-9,28.9
		c-2.9,1.7-4.4,5.5-4.8,7.5c3.1,0.3,11.9,0.1,20.8-0.3c-0.3-0.2-0.5-0.3-0.7-0.5c-0.5-0.5-0.7-1.2-0.7-1.8c0-0.1,0-0.1,0-0.2
		c5.6-34.6-12.2-103.8-13.5-107.2c-0.2-0.4-0.7-1.8,0-3.1c1.1-2,3.8-2.5,12.8-4.1l2.4-0.4c0.5-0.1,1.1-0.1,1.6-0.1
		c0.7-0.9,1.9-1,4.8-1.2c1.2-0.1,2.7-0.2,4.4-0.3c1.3-0.1,2.6,0.1,3.9,0.7c0.8,0.3,1.2,1.2,1,2c-0.1,0.6,0.1,1.6,0.6,2.8
		c0.3,0.6,1.1,2.2,2.3,4.3c5,9.5,16.8,31.6,24,51.6c0.1,0.3,0.1,0.6,0.1,0.9c-0.2,1.6-0.5,3.2-0.7,4.8c-0.8,5.4-1.6,10.6-2.3,14.6
		c-1.8,9.5-2.5,25.9-3,39.1l-0.2,4.8c0,0.1,0,0.2,0,0.3c-0.4,2.3-0.7,5-0.6,7.1c0,0.5-0.2,1-0.5,1.3
		C276.8,265.1,276.4,265.3,275.9,265.3z M218,261.7h56.1c0.1-1.9,0.3-4,0.6-5.9l0.2-4.7c0.6-13.3,1.3-29.8,3.1-39.6
		c0.7-4,1.5-9.1,2.3-14.5c0.2-1.4,0.4-2.9,0.6-4.3c-7.1-19.7-18.7-41.4-23.6-50.7c-1.2-2.3-2-3.8-2.4-4.5c-0.6-1.3-0.9-2.4-1-3.4
		c-0.3-0.1-0.7-0.1-1,0c-1.7,0.2-3.3,0.3-4.5,0.3c0,0-0.1,0-0.1,0c4,3.8,7.6,12.2,10.9,25.4c9.3,23.1,19.1,56.7,12.9,85.5
		c-0.1,0.6-0.5,1-1,1.3c-0.5,0.2-1.1,0.2-1.6-0.1c-1-0.6-1-0.6-2.5-13.8c-1.9-17.1-5.5-49-11.2-71.7c-4.8-12-9.6-21.2-11.6-25
		c-0.6-0.3-1.2-0.4-1.8-0.3l-2.3,0.4c-5,0.9-9.1,1.6-10.2,2.2c0,0,0,0.1,0,0.1c1.3,3.4,19.2,72.1,13.8,108.2
		c2.3,0.9,10.9,1.7,24.3,1.6c1.2,0,2.1-0.1,2.7-0.1c1.6,0,2.4,0.6,2.4,1.8c0,1.8-1.7,1.8-2.7,1.8c-0.6,0-1.4,0-2.5,0
		c-2.2,0.1-5.5,0.3-9.4,0.4c-7.9,0.4-17.7,0.9-25.7,1.1c-9.1,0.2-13,0.1-14.6-0.4C218.1,256.2,217.9,259.5,218,261.7z M276.5,256
		L276.5,256L276.5,256z M205,196.2c3.1,0,5.8,0.8,7.6,3.1c3.2,4,4.4,15.2,5.5,28.4c0.3,3.7,0.6,6.9,0.9,8.3c0.4,1.8,0.3,4.6,0.2,7.8
		c1.1-1.9,2.6-3.7,4.5-4.8c3.7-2.2,8.1-8.5,7.3-25.6c-0.7-16.5-11.3-61.5-13.5-69.9c-4.8,3.6-11.8,9.3-17,13.5
		c-8.4,6.9-13.7,11.2-15.6,12.2h0c0,0-0.5,0.6-0.9,3.4c3.6,6.7,7.6,19.6,5.9,24.9c-0.5,1.5-1.4,2.2-2.1,2.5c-1,0.5-2.1,0.3-3.1-0.4
		c-4-3-5.3-18.4-4.5-26.3c-1.3-2.2-2.2-2.8-2.5-2.9c-1,0-2.1,0.1-3.1,0.1c-4.1,0.2-8.3,0.4-11.2-2.5c-1.7-1.7-3.8-5.9-6.2-12.5
		c-1.4,2.7-3.4,5-6.9,6.4l-1.4,0.5c-5.3,2.1-9.6,3.7-12.8,4.3c0.5,0.6,0.9,1.3,1.4,2c2.4,3.5,6.5,9.3,7.8,10c1,0.6,5-0.1,9.1-2.4
		c3.2-3.6,5.6-7.4,5.6-7.4c0.5-0.8,1.5-1,2.4-0.6c0.8,0.4,1.2,1.4,0.8,2.3l-1.6,3.8c-0.8,2-3.1,3.6-4.9,4.7
		c-3.1,3.5-5.8,5.6-8.2,6.5c-0.1,0.7-0.1,2.1,0.5,3.8c0.9,2.3,3.2,5.4,9,7.7c12.7,4.9,21.2,6,28.2,3.8c1-0.3,2-0.7,3.1-1
		C194.5,198.2,200.2,196.2,205,196.2z M264.8,186.7c2.6,16.3,4.5,32.9,5.8,44C271.2,216,268.6,200.7,264.8,186.7z M183.5,180.7
		c0.3,6.9,1.6,13.9,2.9,15.7C187.2,194.5,186,187.4,183.5,180.7z M147.4,185.9L147.4,185.9L147.4,185.9z"/>
	<path class="st1" d="M155.6,179.6c-0.5,0-1-0.2-1.4-0.7c-0.6-0.7-0.5-1.7,0-2.3c3.2-3.6,5.8-7.6,5.8-7.6c0.5-0.8,1.5-1,2.4-0.6
		c0.8,0.4,1.2,1.4,0.8,2.3l-1.6,3.8c0,0,0,0,0,0c-0.9,2.1-3.3,3.8-5.1,4.9C156.2,179.5,155.9,179.6,155.6,179.6z"/>
</g>
<path class="st1" d="M223.4,265.3H177c-1,0-1.8-0.8-1.8-1.8s0.8-1.8,1.8-1.8h46.4c1,0,1.8,0.8,1.8,1.8S224.4,265.3,223.4,265.3z"/>
<path class="st1" d="M329.3,280.6H217.6c-1,0-1.8-0.8-1.8-1.8s0.8-1.8,1.8-1.8h111.7c1,0,1.8,0.8,1.8,1.8S330.3,280.6,329.3,280.6z"
	/>
<path class="st1" d="M535.6,277.6h-77.9c-1,0-1.8-0.8-1.8-1.8s0.8-1.8,1.8-1.8h77.9c1,0,1.8,0.8,1.8,1.8S536.6,277.6,535.6,277.6z"
	/>
<path class="st1" d="M171.5,280.6H55.6c-1,0-1.8-0.8-1.8-1.8s0.8-1.8,1.8-1.8h115.8c1,0,1.8,0.8,1.8,1.8S172.4,280.6,171.5,280.6z"
	/>
</svg>
