<svg xmlns="http://www.w3.org/2000/svg" viewBox="0 0 32600 16700"><path fill="#69a6c2" d="m30521 11403h-3272l-333-20l277-7860c5-142-46-278-144-381-98-104-230-162-372-166l-11754-283h-13c-278 0-508 214-527 493l-424 6232c-184 44-381 95-595 154-358 99-663 167-933 208-290 44-551 56-800 36-42-3-81-9-121-15-5-92-21-187-52-285-128-416-361-473-488-471-154 3-318 95-464 242-38-37-73-73-102-105-19-37-39-74-62-108c180-93 211-211 196-304-78-523-1389-712-2251-674-429 19-1430 122-1465 681-129 2066 446 3479 634 3880H574c-43 0-78 35-78 78s35 78 78 78h7009c28 0 53-15 67-38c14-24 14-53 0-78-8-15-822-1506-672-3910c18-295 523-500 1316-534c1026-44 2041 219 2090 541c3 22 13 88-138 155-63-72-137-137-220-196-817-574-2428-311-2902-115-145 60-143 142-129 186c106 330 2318 520 3105 336c24-6 46-12 68-18c32 47 68 92 108 137c30 63 55 130 73 201-102 148-184 324-234 512-56 213-29 411 66 493c45 38 100 47 152 25c152-66 198-364 209-603c7-140-2-271-25-392c2-3 4-5 6-7c242 189 540 341 829 418-48 714-888 1206-1179 1354-114 59-180 328-293 887-26 127-51 250-73 343-770-127-1661-78-1879 77-91 65-80 141-71 171c16 52 63 212 685 228c431 11 1264-65 1374-296c258 50 493 122 668 218l-329 196c-100 60-149 172-124 286s116 196 232 208l13606 1463c28 3 56 4 83 4c226 0 443-99 591-274l2229-2626c11-13 18-30 18-48l20-577l334 20h3276c43 0 78-35 78-78s-35-78-78-78zM7164 8789c5-3 12-6 20-9c334-139 1933-477 2753 99c54 38 102 79 146 123-799 202-2665-44-2919-212zm1222 4029c-265-22-356-75-376-101c14-13 63-45 210-75c329-67 953-73 1516 13-166 99-811 208-1350 163zm1891-2460c-26-30-59-149-11-330c28-107 69-211 119-308c3 57 4 115 0 176-16 347-88 441-109 462zm697-1158c183-2 284 194 336 361c22 71 35 140 41 207-306-77-550-230-728-378c115-116 239-188 351-190zm15762 2882l-2212 2605c-133 157-334 237-538 215l-13606-1463c-59-6-88-49-96-87-8-38 0-89 52-119l438-261c23-13 37-37 38-63c1-26-11-51-32-67-195-141-490-242-819-308c23-93 46-211 72-340c51-253 147-724 212-779c309-159 1195-679 1263-1459c37 6 74 11 110 15c245 23 519 10 837-38c277-42 588-111 952-211c194-54 374-101 542-142l-91 1340-2948 1805c-29 18-43 52-35 84s36 57 69 60l4548 382-132 98c-59 43-84 117-64 188c20 70 79 120 152 127l4139 401c237 23 474-70 632-249l605-684c20-22 25-53 14-81-11-27-36-46-66-49l-3796-325c-160-14-317 33-443 130l-436 337-179-15l464-344c26-19 38-53 28-84-9-31-37-54-69-56l-2970-222c-44-3-58-39-61-50-3-11-10-48 27-74l1080-753c106-74 235-109 363-100l7362 532-881 795c-75 68-101 169-68 264s116 159 216 167l2607 190c244 17 480-73 649-250l653-682c68-71 88-172 53-264-35-92-118-153-216-160l-2632-190c120-86 268-130 418-119l2930 204c132 9 260-35 359-123c89-80 145-188 158-305l367 22-20 553zm-448-1936c-580-154-1193-179-1825-69-254 44-495 111-728 175-202 56-412 114-622 154-232 44-443 62-646 55-258-9-527-47-800-110-252-59-514-143-779-248-85-34-170-70-255-108c254-82 493-178 710-286c584-292 1025-675 1309-1140c296-484 421-1069 353-1646-33-282-112-558-232-819-119-257-275-493-464-701-191-211-411-387-654-525-252-143-522-240-803-289-285-50-583-53-887-9-275 37-536 114-776 230-228 110-437 255-622 430-351 333-606 768-737 1257-65 244-98 495-97 746c0 255 37 506 107 746c73 249 181 482 322 693c148 222 333 419 548 585c154 119 323 217 501 293c168 71 347 122 537 154c151 88 300 170 446 245-175 43-356 80-540 110-253 41-502 56-742 44-249-13-495-55-730-125-251-75-490-173-754-284-398-167-677-270-933-345-303-88-577-136-862-150-340-17-711 14-1174 102l361-5928l11721 303-254 6459zm-7379-1253l-63-60s-4-6-4-10c0-5 2-10 5-14l251-256l355-194c8-4 17-3 23 4l330 357c67 72 181 78 255 12l2241-1995c74-66 81-180 15-254l-299-336c-66-74-179-81-253-16-203 176-1740 1547-1755 1561-5 4-9 6-17 6-7 0-12-3-17-8l-775-871c-66-74-180-81-254-15l-338 299c-36 32-57 76-60 124-3 48 13 94 45 130l680 764s6 10 6 17c0 6-3 11-14 21l-263 269-349 190c-7 4-18 3-22-3-239-293-393-665-447-1075-26-199-28-403-4-605c23-204 71-403 143-592c65-171 149-333 250-480c105-153 228-290 366-408c145-124 307-228 483-309c186-86 388-147 601-182c248-37 500-33 749 11c574 102 1076 436 1415 942c162 241 278 509 346 795c69 292 83 589 43 882-36 260-119 509-246 740-121 219-280 419-473 593-375 339-860 566-1366 638-232 33-463 33-687 0-119-70-240-145-362-222-185-118-369-294-532-449zm481-875l-680-764s-6-11-6-17c0-6 3-12 8-16l338-299c10-9 25-8 34 2l775 871c32 36 76 57 124 60c48 3 94-13 130-45c15-14 1553-1387 1754-1560c10-9 25-8 34 2l299 336c6 6 6 14 6 17c0 4-1 11-8 16l-1831 1628-411 367c-11 9-27 8-36-2l-330-357c-31-33-73-53-118-56h-11c-13 0-27 2-40 5c7-17 12-35 13-54c4-49-11-97-44-134zm1119 1700c536-76 1051-317 1449-676c206-186 376-399 505-634c137-248 226-515 264-794c43-312 28-628-46-939-72-304-196-589-368-846-175-261-392-481-644-652-265-180-558-300-873-356-265-47-534-51-800-12-228 37-444 103-642 194-188 87-363 199-519 332-149 127-281 275-393 439-108 157-198 329-267 513-76 201-127 412-152 630-25 215-23 431 5 642c58 439 224 838 481 1153c44 54 118 75 184 56-6 18-9 37-8 57c0 46 20 89 53 121l62 59c138 131 304 290 474 412h-3c-166-70-323-162-467-273-201-155-374-340-513-548-132-198-234-416-302-650-66-226-100-462-101-703c0-237 30-474 92-705c124-461 364-871 694-1184c173-164 369-300 583-403c225-109 471-182 730-216c288-41 570-39 838 8c264 46 517 137 753 271c228 129 435 296 616 494c179 197 326 419 437 662c114 246 187 506 219 772c64 542-53 1092-331 1546-269 439-688 803-1245 1082-241 121-510 225-799 312-18 5-35 11-53 16-98-48-198-99-300-153c129 2 258-8 388-26zm-4885-354c273 13 535 59 826 144c250 72 524 174 917 339c268 113 511 212 770 290c247 74 505 118 767 131c251 12 511-3 775-46c251-41 495-94 727-159c142 68 284 130 423 185c272 108 541 194 801 255c282 66 561 105 829 114c32 1 63 2 95 2c185 0 378-20 586-59c214-41 426-100 634-157c229-64 466-129 713-172c622-108 1224-82 1793 75l-41 1038-11863-702l71-1170c468-91 839-124 1177-107zm-1389 1401c14 15 33 25 54 26l11942 707c-11 77-48 146-107 199-67 60-154 90-244 84l-2930-204c-216-15-429 59-589 203l-61 55-7511-543c-165-11-329 34-464 128l-1080 753c-79 55-113 150-88 243c25 93 104 157 199 164l2761 207-438 325-4488-377l2779-1701c22-13 35-36 37-61l97-1429c62-14 123-28 182-40l-74 1206c-1 21 6 41 19 57zm10911 1429c38 3 68 25 82 61s6 73-20 100l-653 682c-137 143-327 217-525 202l-2607-190c-56-4-75-48-80-62-5-13-16-60 25-98l992-896l2786 201zm-9415 1075l386 32c20 2 39-4 54-16l460-355c96-74 214-109 335-98l3642 312-502 568c-125 142-312 216-500 197l-4139-401c-9 0-14-5-16-14s0-15 7-20l275-204zm11031-1899l-365-22l42-1066v-1c2-18 4-36 5-54c0-7 0-14-3-20l259-6598c0-21-7-41-21-56s-34-24-55-25l-11876-307h-2c-41 0-75 32-78 73l-369 6044c-59 12-119 25-181 39l420-6185c13-197 176-348 372-348h9l11754 283c100 2 193 44 262 117s105 169 101 269l-277 7856z"/></svg>