<?xml version="1.0" encoding="UTF-8"?>
<svg id="Layer_1" data-name="Layer 1" xmlns="http://www.w3.org/2000/svg" viewBox="0 0 326 167">
  <defs>
    <style>
      .cls-1 {
        fill: none;
      }

      .cls-1, .cls-2 {
        stroke-width: 0px;
      }

      .cls-2 {
        fill: #69a6c2;
      }
    </style>
  </defs>
  <path class="cls-1" d="M277,95.86c.89-.29,1.76-.46,2.56-.59-.09-.02-.2-.02-.3-.02-.67,0-1.51.29-2.06.48l-.12.04c-.28.09-.55.2-.83.31.11-.03.22-.06.33-.09.15-.04.29-.08.43-.13Z"/>
  <path class="cls-1" d="M260.91,60.73c-3.29.93-6.57,1.86-9.86,2.8-2.06.59-4.12,1.16-6.18,1.73-4.12,1.14-8.39,2.32-12.53,3.65-1.32.42-2.5.81-3.68,1.27-.19.08-.39.17-.6.29.05,0,.09-.01.14-.02,2.95-.46,5.9-1.29,8.75-2.1l1.24-.35c2.62-.74,5.28-1.51,7.84-2.26,1.63-.48,3.27-.96,4.9-1.43,2.82-.81,6.17-1.74,9.66-2.51.09-.02.19-.04.28-.06.01-.33.02-.66.02-.99Z"/>
  <path class="cls-1" d="M297.56,74.32c-.18-2.2-.58-4.41-.97-6.55-.27-1.5-.55-3.05-.75-4.59-.46-3.43-2-5.58-4.6-6.38-2.2-.68-4.62-.03-6.95.59-.69.19-1.35.36-2,.5-3.4.74-7.42,1.63-11.41,2.62-1.44.36-2.89.78-4.3,1.18-1.38.4-2.79.81-4.21,1.16-.03.64-.07,1.29-.12,1.93,6.58-1.82,13.38-3.69,20.21-5.06.49-.1,1-.22,1.53-.34,2.09-.5,4.46-1.06,6.54-.37,1.91.63,3.32,2.22,4.2,4.72.69,1.97.92,4.08,1.13,6.11,0,.07.02.15.02.22.9,1.49,1.44,3.45,1.75,5.04,0,0,0-.02,0-.03-.02-.27-.04-.53-.06-.77Z"/>
  <path class="cls-1" d="M262.35,58.82c.35-.1.69-.2,1.04-.29,2.39-.67,4.79-1.35,7.18-2.03l10.91-3.09c.26-.08.56-.14.87-.21,1.5-.34,3.19-.73,3.14-2.34-.03-1.08-.62-2.33-1.13-3.44-.15-.32-.29-.63-.42-.93-4.58-10.75-11.65-17.59-20.44-19.76-.27-.07-.55-.13-.83-.19,9.52,4.37,16.5,12.36,18.85,21.69.38,1.49-.19,2.13-1.36,2.79-1.73.98-3.69,1.6-5.58,2.19l-.38.12c-1.54.48-3.11.93-4.63,1.37-1.31.38-2.62.75-3.93,1.15-1.14.35-2.28.7-3.42,1.04.06.65.1,1.29.13,1.93Z"/>
  <path class="cls-1" d="M294.05,68.22c.07.04.13.07.2.11-.06-.43-.12-.86-.2-1.28-.44-2.44-1.09-4.87-2.93-6.13-1.83-1.26-4.27-.69-6.41-.19-.43.1-.84.2-1.24.28-7.13,1.44-14.2,3.33-21.38,5.33-.22,1.95-.53,3.87-.83,5.76l-.14.87c-.53,3.34-.98,6.75-1.42,10.04l-.18,1.37c-.33,2.52-.67,5.12-1.06,7.67l-.14.99c-.25,1.75-.51,3.56-1.05,5.25l-.03.1c-.13.42-.28.9-.62,1.24-.34.34-.87.54-1.33.71-.18.07-.35.13-.5.2l-2.65,1.21c-3.17,1.45-6.28,2.87-9.39,4.26l-.18.08c-2.69,1.2-5.47,2.44-8.32,3.43-.34.12-.69.25-1.06.39-1.95.72-4.37,1.62-6.38,1.26-1.48-.27-1.68-1.85-1.83-3-.02-.16-.04-.31-.06-.45-.38-2.58-.58-5.2-.76-7.88-.18-2.6-.27-5.25-.35-7.81-.09-2.67-.18-5.44-.37-8.14-.11-1.53-.26-2.9-.46-4.14-.4.21-.76.45-.96.71-.15.21-.16.56-.16.93,0,.36,0,.74-.14,1.08-.27.67-.85,1.33-1.53,1.7-.59.33-1.17.4-1.71.21-.26-.09-.45-.26-.62-.42-.13-.12-.25-.23-.37-.28-.04-.02-.11-.04-.18-.09-.04,0-.07.02-.11.02-.07.02-.26.19-.35.27-.07.06-.13.11-.17.14-.56.42-1.12.87-1.73,1.36-.73.59-1.5,1.25-2.44,2.06-1.42,1.23-2.77,2.51-4.04,3.84.79-.16,1.55-.24,2.29-.24,5.22,0,9.17,3.77,11.26,7.67,2.58,4.82,2.86,10.12,2.92,15.59,0,.56.01,1.13.02,1.7.06-.02.12-.04.18-.06.37-.13.72-.25,1-.37,1.09-.47,2.18-.94,3.27-1.41,2-.85,3.99-1.7,5.99-2.55,6.14-2.6,12.4-5.2,18.45-7.71,2.4-1,4.79-1.99,7.19-2.99,5.4-2.25,9.52-3.98,13.36-5.61.14-.06.3-.13.48-.21,1.8-.8,5.52-2.46,6.64-.14.09-.02.19-.05.28-.07-.82-4.66-.49-9.65,1.01-14.51.87-2.83,2.05-5.39,3.5-7.59,1.03-1.57,2.46-3.5,4.42-4.44,1.24-.6,2.36-.64,3.35-.12Z"/>
  <path class="cls-1" d="M241.07,57.89c.04-1.52-.94-3.21-2.23-3.85-.54-.26-1.15-.38-1.8-.38-2.38,0-5.25,1.5-6.69,2.5-1.39.96-3.09,2.72-3.31,4.51-.1.84.14,1.61.73,2.29.39.44.89.73,1.46.91,2.65-.36,5.29-.89,7.69-2.03,1.43-.68,4.1-1.96,4.15-3.94Z"/>
  <path class="cls-1" d="M220.89,23.99c-11.16,1.03-21.22,2.54-30.46,4.6,5.11-.43,10.26-.64,15.44-.64,6.28,0,12.59.32,18.88.95,1.37.14,2.57.28,3.66.42.47.07.72.03,1.08-.18,2.18-1.18,4.76-1.94,6.83-2.55,4.5-1.32,9.23-2.08,14.07-2.28-9.94-1.83-20.25-1.17-29.5-.32Z"/>
  <path class="cls-1" d="M283.75,97.15l.09.3c.61,2.14,1.63,5.72,4.05,6.17,3.33.63,5.57-4.23,6.62-7.17,1.05-2.97,1.62-6.21,1.69-9.61.05-2.51-.06-5.73-1.35-8.41-.44-.92-1.62-3.36-3.1-3.8-.49-.15-.96-.07-1.46.22-2.02,1.21-3.52,3.57-4.6,7.23-.92,3.16-1.38,6.76-1.31,10.43,0,.13,0,.27.01.4.04.86.08,1.83-.65,2.52-.1.1-.22.19-.35.28.11.49.23.97.36,1.44Z"/>
  <path class="cls-1" d="M249.01,59.3c1-.27,2-.54,2.99-.82,2.1-.59,4.22-1.25,6.27-1.89.81-.25,1.63-.5,2.44-.75-.63-6.13-2.66-13.05-6.22-21.15-.7-1.6-1.53-3.34-2.59-5.46-.55-1.1-.64-1.27-1.98-1.35-.37-.02-.75-.04-1.13-.04-5.01,0-10.81,1.97-15.43,5.27-4.79,3.43-6.95,9.8-8.86,15.42-.25.73-.49,1.45-.73,2.15-.98,2.8-1.63,5.7-2.26,8.67-.42,2-.68,4.01,1.25,4.74,1.09.41,2.29.28,3.35.16l.23-.03c.2-.02.4-.04.6-.07-.43-.41-.77-.9-.98-1.47-.8-2.1-.06-4.46,2.05-6.47,2.44-2.32,6.84-4.44,10.2-3.8,1.74.33,3.01,1.35,3.78,3.04.72,1.56.72,3.01.01,4.3-.55,1.01-1.5,1.85-2.66,2.54.37-.13.73-.26,1.06-.38,2.81-1.04,5.76-1.84,8.62-2.61Z"/>
  <path class="cls-1" d="M223.43,118.7c-.24.61-.27,1.54-.19,2.39.1-.8.15-1.61.19-2.39Z"/>
  <path class="cls-1" d="M207.57,141.46c3.98-1.15,6.8-4.68,8.46-7.43,2.14-3.55,3.47-7.85,4.07-13.16.48-4.23.32-8.17-.47-11.7-.82-3.7-2.13-6.33-3.99-8.04-1.42-1.3-3.05-1.86-4.86-1.66-3.73.41-7.37,3.87-9.35,6.71-3.96,5.66-5.58,13.37-4.83,22.91.03.4.09.81.15,1.21.2,1.39.4,2.82-.51,3.87.6,1.79,1.48,3.62,2.82,5.08,2.05,2.25,5.39,3.12,8.5,2.21Z"/>
  <path class="cls-1" d="M149.48,53.37c.68-.83.76-1.07.76-1.14-.01-.02-.05-.05-.11-.08-.05-.02-.12-.03-.19-.03-.34,0-.9.18-1.54.51-.9.46-1.82,1.29-1.86,2.13-.01.32.04.55.13.6.08.04.33.08,1.11-.47.4-.28.79-.58,1.17-.9.15-.18.31-.36.45-.55l.07-.09Z"/>
  <path class="cls-1" d="M190.81,135.72c-.58.02-1.17.04-1.74.09-.05,0-.11,0-.18.01-.12,0-.43.02-.58.07.05.15.23.43.51.84l.08.11c.93,1.41,2.33,2.5,4.16,3.25.97.4,2.09.72,3.41.96.12.02.23.05.34.08-.14-.19-.33-.37-.53-.55-.18-.17-.36-.34-.52-.53-.98-1.2-1.64-2.59-2.28-3.93l-.28-.59c-.79.12-1.6.15-2.39.17Z"/>
  <path class="cls-1" d="M207.86,76.24c2.21-.93,4.51-1.78,6.83-2.54.33-.11.7-.25,1.09-.4,1-.39,2.13-.82,3.08-.83h.01c.41,0,1,.16,1.34.53.37.4.37.77.3,1.01-.33,1.19-2.96,2.08-5.75,2.87-.35.1-.62.18-.76.23-5.35,1.95-9.94,4.1-14.01,6.6-4.18,2.56-7.68,5.23-10.69,8.17-.42.41-.83.83-1.23,1.26,2.52,1.63,4.55,3.88,5.67,5.27.08.09.16.19.24.29.49.59,1.04,1.25,1.17,2,.13.77-.21,1.63-.48,2.32l-.12.3c-.29.76-.58,1.52-.88,2.27-.9,2.31-1.84,4.71-2.55,7.14-.81,2.75-1.55,5.71-2.19,8.8-.53,2.52-.98,4.82-1.16,7.11.32-1.53.61-3.06.9-4.54.61-3.22,1.25-6.54,2.17-9.77,2.14-7.46,4.91-13.15,8.47-17.4,1.67-1.99,4-3.69,6.4-4.74,1.04-1.2,2.14-2.36,3.3-3.49,1.55-1.51,3.18-2.88,4.56-4.03.86-.71,1.78-1.47,2.76-2.17l.1-.07c.39-.28.76-.55,1.37-.32.28.1.48.32.66.51.17.18.33.36.53.4.21.05.42,0,.64-.15.44-.3.78-.94.85-1.38.03-.16,0-.32-.01-.49-.02-.17-.04-.35-.02-.54.08-.75.41-.99.98-1.34.44-.27.88-.53,1.31-.77-.25-1.19-.55-2.27-.92-3.3-.58-1.62-1.28-2.9-2.14-3.93-.87-1.04-2.05-1.82-3.18-2.58-.21-.14-.41-.27-.61-.41-2.18-1.47-4.48-2.43-6.86-2.86-1.19.89-2.45,1.76-3.79,2.62-5.7,3.69-11.85,6.68-18.28,8.88-2.92,1-5.31,1.64-7.55,2.02-1.5.26-3.03.37-4.51.48-1.46.11-2.96.22-4.42.47-2.76.47-5.17,1.16-7.37,2.12-.47.21-.94.44-1.41.67-.8.4-1.62.8-2.48,1.08-1.04.34-2.16.35-3.23.34-.21,0-.42,0-.63,0-1.78.02-3.71,0-6.09-.07-5.86-.17-11.03-.53-15.81-1.08-1.87-.21-4.32-.53-6.72-1.04-1.49-.31-3.15-.66-4.5-1.45-.66-.38-1.51-1.02-1.37-2.2.08-.65.37-1.25.66-1.84.2-.42.39-.81.51-1.21.14-.49.12-.84.09-1.3-.01-.19-.02-.38-.02-.6-.02-.69.25-1.05.53-1.37.04-.04.07-.08.11-.12-.41.29-.81.59-1.22.89.85,1.52.34,3.61-1.55,6.38-1.65,2.42-3.79,4.28-6.02,5.25-.78.34-1.83.66-2.4.25-.29-.21-.42-.56-.37-1.05.34-3.84,3.88-7.31,7.3-10.2.27-.23.55-.46.83-.69-.11-.04-.24-.08-.34-.05-.12.04-.56.44-.86.71-.19.17-.39.35-.56.5-2.41,2.01-4.15,4.02-5.3,6.15-1.08,2-1.51,3.62-1.26,4.81.17.78.6,1.66,1.28,2.61,2.89,4.01,8.5,5.7,13.07,6.72,5.14,1.15,10.96,1.74,18.29,1.83h.65c5.84.09,11.87.17,17.34-1.58.9-.29,1.77-.7,2.61-1.09.37-.17.73-.34,1.1-.51-1.27-.98-1.96-2.42-1.92-4.04.04-2.1,1.09-5.1,2.95-6.52,1.67-1.28,3.92-1.71,5.9-1.96,2.45-.31,5.08-.34,8.04-.08h.15c3.02.27,7.12.83,7.94,2.69.3.68.12,1.45-.53,2.29-.8,1.04-1.88,1.84-2.93,2.61l-.49.37c-1.56,1.17-3.16,2.38-4.97,3.23-1.04.49-2.11.89-3.21,1.2.59-.12,1.2-.25,1.79-.39,2.21-.51,4.49-1.04,6.75-.45,3.02-3.2,6.63-6.18,10.81-8.89,3.73-2.42,7.86-4.59,12.27-6.45Z"/>
  <path class="cls-1" d="M211.42,61.49c.95-.79,1.92-1.6,2.64-2.57.7-.94,1.24-1.99,1.82-3.15,1.24-2.49,2.33-5.11,3.38-7.65.25-.61.5-1.22.76-1.83,1.27-3.03,2.76-6.1,4.57-9.39l.1-.19c.32-.58.65-1.18.94-1.77.04-.09.1-.19.16-.3.18-.33.46-.83.43-1.09-.2-.38-2.87-.54-3.75-.59-.35-.02-.63-.04-.8-.06-3.92-.43-8.03-.73-12.2-.9-7.82-.32-14.99-.21-21.92.34-3.32.26-5.86.56-8.22.97l-.17.03c-1.6.28-3.25.57-4.7,1.23-1.88.87-3.6,2.26-5.26,3.61-.27.22-.54.44-.8.65-2.61,2.09-5.35,4.42-8.88,7.56-1.3,1.16-2.6,2.36-3.86,3.52-1.76,1.64-3.59,3.33-5.45,4.91-.7.83-1.51,1.59-2.29,2.33-.96.91-1.9,1.82-2.84,2.72l-1.44,1.39c-.29.28-.35.38-.35.41.04.03.33.15.61.27.71.3,1.5.47,2.27.63,5.9,1.23,12.13,1.51,18.15,1.77l1.72.08c5.95.27,11.86.2,17.9.09l2.42-.04c5.41-.09,11-.18,16.44-.73,2.12-.22,4.03-.21,5.8.01.8-.61,1.58-1.23,2.33-1.87l.49-.41Z"/>
  <path class="cls-1" d="M194.58,133.66c-.14-.46-.26-.93-.38-1.42-2.94-11.98.4-25.42,8.77-36.68-.01,0-.02.02-.04.03-3.85,2.74-6.13,7.57-7.79,11.1-2.84,6.02-4.25,12.78-5.35,18.64-.12.61-.22,1.23-.32,1.84-.21,1.29-.44,2.63-.77,3.91-.13.49-.35,1.16-.86,1.38-.27.12-.56.08-.88-.09-.96-.54-.79-2.26-.69-3.29l.03-.31c.21-2.6.71-5.18,1.17-7.4,1.21-5.84,2.99-11.68,5.44-17.84.06-.16.14-.34.23-.52.32-.71.71-1.58.55-2.18-.21-.78-1.07-1.65-1.77-2.34-.17-.17-.33-.33-.47-.48-1.24-1.31-2.71-2.71-4.4-3.73-2.37,2.71-4.39,5.73-6.13,9.17-1.62,3.2-2.9,6.66-3.8,10.3l-.07.29c-.72,2.92-1.54,6.24-4.01,8.2-1.47,1.17-3.14,1.34-4.86,1.42-2.75.12-5.57.17-8.38.12-5.45-.09-11.05-.5-17.14-1.25-7.72-.96-16.65-2.2-24.84-4.93-2.35-.78-4.66-1.73-6.89-2.65-.85-.35-1.71-.7-2.56-1.04-.06-.02-.13-.06-.21-.1-.12-.06-.41-.2-.53-.2h0s-.01.07-.03.1c-.08.24-.06.79.47,2.03.89,2.06,2.44,3.99,4.14,5.15,1.64,1.12,3.72,1.89,5.72,2.63.53.19,1.04.39,1.54.58,2.85,1.11,5.86,2.09,8.96,2.91,9.71,2.57,19.91,3.65,28.92,4.6,5.43.57,12.6,1.26,19.81,1.51,2.24.08,4.48.11,6.37.13,1.55.03,3.07-.19,4.66-.41l.9-.12c.58-.08,1.22-.16,1.85-.16.94,0,1.88.19,2.6.88.15.15.29.31.42.47.22-.06.43-.14.62-.24Z"/>
  <path class="cls-1" d="M276.76,98.94c.91,1.84,2.09,3.09,3.53,3.74.65.29,1.39.53,2.2.69.51.12.83.17,1.03.2-1.23-1.85-1.98-3.71-2.02-3.79-.31-.77-.59-1.55-.82-2.32-.06-.19-.1-.41-.15-.64-.01-.07-.03-.14-.04-.2-.12.01-.24.03-.35.04-.41.05-.83.1-1.24.19l-.12.03c-.6.13-1.27.28-1.81.53-.35.16-.54.31-.59.45-.07.2.09.52.32.97l.06.12Z"/>
  <path class="cls-1" d="M207.34,78.25c2.2-.97,4.24-1.79,6.25-2.52.16-.06.53-.17,1.02-.31.83-.24,2.66-.77,3.69-1.19-1.64.41-4.98,1.47-5.66,1.71-2.42.86-4.81,1.84-7.09,2.91-7.81,3.64-14.29,8.1-19.3,13.27.18.08.36.17.53.26,5.62-5.85,12.53-10.6,20.57-14.14Z"/>
  <path class="cls-1" d="M115.89,77.73c-.92,1.04-1.63,2.03-2.19,3.02l-.04.07c-.44.79-.67,1.19-.93,2.31.01,0,.03,0,.05-.01.51-.14,1-.42,1.43-.66,1.14-.66,2.23-1.55,3.23-2.64,1.19-1.3,3.34-4.22,3.01-6-.02-.12-.05-.22-.1-.33-1.58,1.27-3.11,2.68-4.48,4.24Z"/>
  <path class="cls-1" d="M282.06,96.29s-.08.02-.12.04c.04.14.07.28.1.42.1.41.2.84.33,1.23.31.9.65,1.76,1.02,2.55.06.13.12.26.19.39-.04-.1-.08-.19-.12-.29-.59-1.4-1.05-2.85-1.4-4.34Z"/>
  <path class="cls-1" d="M224.91,84.21c.17,2.53.25,5.1.33,7.59.08,2.5.17,5.09.34,7.64.17,2.48.36,5.29.75,7.98.02.14.04.33.06.53.05.54.12,1.35.37,1.65.38.44,1.49.17,2.16.01l.29-.07c4.97-1.08,9.75-3.29,14.36-5.43.89-.41,1.77-.82,2.65-1.22,1.66-.76,3.33-1.52,4.99-2.28l2.38-1.09c.18-.08.42-.17.66-.26.49-.18,1.1-.4,1.36-.66.24-.24.35-.81.43-1.24.03-.13.05-.25.07-.35.22-.93.4-1.9.54-2.74.64-3.76,1.14-7.62,1.62-11.35.27-2.11.54-4.22.84-6.32.15-1.03.3-2.06.46-3.09.34-2.28.68-4.51.93-6.73-.16.05-.32.1-.49.15-.62.2-1.26.4-1.91.5-.05,0-.09.01-.13.02,0,.03,0,.06,0,.09-.07.9-.4,1.38-1.28,1.87-1.57.87-3.58,1.39-5.13,1.35-.35-.01-.88-.06-1.32-.32-.12-.07-.23-.19-.33-.3-.06-.07-.16-.18-.21-.2-.26-.11-.82.11-1.23.26-.17.06-.33.13-.46.17-1.08.33-2.16.66-3.23.98l-1.38.42c-1.66.5-3.32,1-4.97,1.51-4.55,1.43-7.95,2.73-11.02,4.22-.96.46-1.92.96-2.86,1.48-.06.03-.12.06-.18.09.27,1.67.43,3.4.55,5.12Z"/>
  <path class="cls-1" d="M170.67,91.77c3.64,0,7.3-1.09,10.31-3.06,1.85-1.21,3.77-2.55,5.29-4.11l.07-.07c.48-.49.87-.93.65-1.35-.19-.37-.79-.57-1.23-.72l-.09-.03c-2.15-.73-4.53-.91-6.78-1.04-.76-.04-1.66-.08-2.63-.08-1.76,0-3.77.12-5.72.57-1.14.26-2.43.63-3.4,1.41-.8.65-1.48,1.89-2.01,3.67-.68,2.3.04,4.12,1.98,5.06,1.13-.25,2.25-.25,3.42-.25h.13Z"/>
  <path class="cls-1" d="M135.91,64.12c-2.75,1.13-5.42,2.72-7.84,4.15-.05.03-.1.06-.14.08,1.33-.73,2.69-1.44,4.01-2.14l1.8-.94c.72-.38,1.45-.76,2.18-1.16Z"/>
  <path class="cls-2" d="M315.57,79.24c-2.99,0-12.29,0-14.02,0-.12,0-.25,0-.38.02-.4.03-.9.06-1.16-.14-.53-.4-.64-1.65-.72-2.48-.02-.18-.03-.35-.05-.49l-.16-1.28c-.32-2.59-.66-5.27-1.12-7.9-.12-.68-.21-1.37-.3-2.11-.27-2.15-.55-4.38-1.71-6.2-1.2-1.88-3.17-3.16-5.39-3.5-2.18-.34-4.41.25-6.57.82-.71.19-1.38.37-2.05.51-3.31.72-7.22,1.59-11.14,2.56-1.5.37-3.01.8-4.47,1.23-1.28.37-2.6.75-3.92,1.09,0-.35,0-.69,0-1.04l2.85-.8c2.67-.75,5.33-1.5,8-2.26l5.74-1.63c.62-.17,1.26-.33,1.9-.49,1.29-.32,2.63-.66,3.87-1.14,1.97-.78,2.59-2.6,1.72-5-3.99-11.01-9.92-18.39-17.63-21.92-3.96-1.81-8.21-2.48-12-2.7-12.14-3.68-25.34-2.85-36.94-1.74-15.47,1.49-28.73,3.87-40.55,7.28l-.26.04.02.07c-.23.16-.34.42-.28.71.06.28.3.55.64.59l.02.06.23-.07c12.42-1.92,25.77-2.4,39.69-1.42,2.85.2,5.73.51,8.51.82l.63.07c.93.1,1.77-.33,2.58-.75.31-.16.6-.31.9-.43,3.85-1.58,8.11-2.71,12.67-3.34,4.12-.58,7.96-.77,11.48-.58,1.42.42,2.83.91,4.22,1.46,4.88,1.94,9.13,4.77,12.3,8.18,2.04,2.2,3.86,4.94,5.41,8.15.58,1.2,1.05,2.32,1.45,3.43.05.14.12.31.2.49.23.54.54,1.29.47,1.69-.14.79-2.4,1.51-3.37,1.82-.22.07-.42.13-.55.18-1.72.62-3.6,1.21-6.08,1.9-2.41.67-4.83,1.41-7.18,2.13l-.99.3c-.58-4.83-1.9-9.98-4.03-15.79-.97-2.66-2.1-5.35-3.34-7.99-.17-.36-.34-.74-.51-1.12-.46-1.03-.93-2.09-1.52-3.02-.67-1.05-2.03-1.08-3.11-1.11h-.08c-2.29-.05-4.78.31-7.65,1.12-3.46.98-6.57,2.44-9.24,4.35-2.95,2.1-4.7,5.1-5.89,7.48-2.64,5.27-4.73,11.27-6.21,17.83-.06.26-.13.54-.2.83-.56,2.3-1.33,5.46,1.18,7.04,1.93,1.21,4.48.79,6.74.42.36-.06.71-.12,1.04-.17.31.07.64.13.99.16,3.84.37,7.72-1.03,11.47-2.39,1.45-.52,2.82-1.02,4.17-1.41,5.46-1.58,10.28-2.98,14.95-4.38.04.64.07,1.29.08,1.92-4.19,1.18-8.47,2.39-12.68,3.61-1.9.55-3.8,1.07-5.7,1.6-4.04,1.11-8.22,2.26-12.26,3.63-.27.09-.58.19-.91.28-1.3.39-2.93.88-3.79,1.8-.32.34-.45.72-.36,1.06.09.34.37.61.81.75.67.22,1.51.07,2.18-.05l.35-.06c1.5-.24,2.99-.6,4.5-.98,3.78-.95,7.58-2.06,11.26-3.13l2.97-.87c3.13-.92,6.36-1.87,9.56-2.71,1.34-.36,2.74-.67,3.98-.94-.04.67-.09,1.33-.16,2l-1.69.47c-.14.04-.31.07-.5.11-.77.15-1.82.35-2,1.25-.03.16,0,.31.04.43.02.06.04.15.03.18-.14.48-1.1.78-1.67.95l-.48.15c-1.27.42-2.7.89-3.75.12-.82-.61-1.35-.44-2.14-.17-.12.04-.24.08-.38.12-1.37.42-2.74.83-4.11,1.25-6.66,2-13.55,4.07-19.82,7.45-.04.02-.08.05-.13.07-.68-3.19-1.86-6.08-4.06-8.2-1.97-1.9-4.78-3.66-7.32-4.61-.72-.27-1.45-.49-2.2-.66,1.08-.86,2.11-1.74,3.09-2.64,1.98-1.82,3.14-4.1,4.24-6.47,1-2.15,1.93-4.38,2.82-6.53.44-1.06.88-2.12,1.33-3.18.88-2.06,1.95-4.07,2.99-6,.64-1.19,1.29-2.42,1.9-3.65.53-1.08.98-2.12.58-2.87-.23-.42-.7-.69-1.4-.78-3.94-.54-8.01-.94-12.1-1.21-7.99-.52-15.9-.55-23.54-.1l-.61.04c-4.92.29-10,.59-14.67,2.04-1.77.55-3.23,1.57-4.82,2.73-2.95,2.17-5.76,4.56-8.16,6.62-3.56,3.06-7.04,6.23-9.97,8.93-.22.21-.45.41-.67.62-.04-.12-.1-.23-.17-.33-.41-.57-1.22-.76-2.22-.53-1.2.27-2.77,1.15-3.61,2.49-.48.77-.63,1.6-.45,2.4.15.63.46,1.03.92,1.18.01,0,.02,0,.03,0-.41.38-.81.75-1.21,1.14-.75.73-1.49,1.46-2.23,2.2-.06.06-.13.12-.2.19-.27.24-.61.54-.69.92-.1.47.1.94.58,1.37,1.04.92,2.73,1.19,4.08,1.41.19.03.38.06.56.09,3.05.53,6.19.81,9.15,1.04,6.67.53,13.26.8,19.59.8,7.09,0,14.1-.16,20.83-.46,1.26-.06,2.54-.16,3.78-.27,1.99-.17,4.04-.34,6.04-.31.18,0,.36,0,.54.02-1.47,1.04-3.04,2.05-4.72,3.06-5.77,3.45-11.72,6.13-17.69,7.96-1.99.61-4.35,1.27-6.75,1.52-.92.1-1.83.17-2.74.25-2.11.17-4.28.36-6.42.81-2.21.46-4.34,1.15-6.34,2.04-.41.18-.81.38-1.21.59-.79.4-1.61.81-2.46,1.04-.93.25-1.98.24-3,.22-.3,0-.59-.01-.87,0-1.9,0-3.95-.03-6.31-.11-5.68-.19-10.64-.55-15.16-1.08-1.83-.22-4.23-.53-6.58-1.06l-.45-.1c-1.22-.26-2.6-.56-3.5-1.28-.25-.2-.34-.29-.38-.52-.07-.42.27-1.06.58-1.62.16-.3.32-.58.41-.83.25-.68.49-1.5.37-2.42l-.03-.21q-.05-.36.34-.72c.53-.48,1.17-.88,1.79-1.26l.14-.09c2.23-1.38,4.6-2.61,6.89-3.8,1.42-.74,2.88-1.5,4.29-2.28.18-.1.39-.2.62-.32.9-.45,2.02-1.01,2.46-1.79.25-.45.18-.78.07-.97-.16-.29-.51-.46-.97-.48-.86-.03-1.81.39-2.64.76-.19.09-.38.17-.55.24-1.58.65-3.28,1.46-5.18,2.46-3.94,2.07-7.33,4.21-10.32,6.5-.54-.39-1.2-.66-1.78-.54-.85.19-1.78,1.1-2.53,1.83-.2.19-.38.37-.53.51-2.23,2-3.84,4-4.91,6.1-.87,1.7-1.89,4.25-.78,6.78.72,1.65,1.94,3.15,3.62,4.44,4.08,3.15,9.55,4.44,13.85,5.21,5.07.91,10.55,1.35,17.25,1.39h.32c5.58.03,11.35.07,16.69-1.56,1.12-.34,2.17-.83,3.2-1.3.38-.17.76-.35,1.14-.52.3-.13.6-.24.9-.32,1.45.58,3.22.82,5.49.75,1.69-.05,3.33-.41,4.91-.76,1.38-.3,2.8-.62,4.23-.72.67-.04,1.32,0,1.95.1-1.43,1.63-2.71,3.33-3.83,5.07-1,1.55-1.79,3.23-2.57,4.87-.67,1.41-1.36,2.87-2.17,4.23-.95,1.58-1.92,3.05-3.44,3.71-1.68.73-3.7,1.19-5.99,1.36-3.82.29-7.78.11-11.6-.07-1.18-.05-2.35-.11-3.51-.15-5.15-.18-9.36-.44-13.25-.82-6.81-.67-13.55-1.94-20.04-3.79-.46-.13-.93-.26-1.43-.39-3.06-.82-6.53-1.74-8.34-4.16-1.68-2.24-.44-5.3.55-7.76l.36-.89c.48-1.19.98-2.43,1.36-3.69l.04-.15c.29-.93.64-2.09.35-3.07-.22-.73-.56-1.12-1.03-1.17-1.3-.12-2.81,2.73-2.98,3.05-2.16,4.14-3.26,7.78-3.46,11.43-.12,2.17.35,4.15.85,6.26.47,2,.03,3.6-1.48,5.34-2.61,3.01-6.37,3.26-10.31,3.26H15.78c-.46,0-.71.37-.71.73s.25.73.71.73h74.67c.37,0,.75,0,1.13,0,1.95.02,3.97.04,5.9-.43,3.36-.82,6.18-3.15,7.36-6.08.57-1.42.28-2.9-.07-4.29-.46-1.88-.9-4.13-.62-6.6.47-4.06,1.9-8.02,4.04-11.14l.1-.15c.09-.14.3-.46.42-.54.04.09.07.35-.08,1.05l-.03.13c-.24,1.25-.72,2.48-1.19,3.67l-.1.25c-.16.4-.33.81-.49,1.22-.79,1.93-1.62,3.93-1.72,6.01-.13,2.74,1.65,5.03,5.14,6.61,2.71,1.23,5.68,2,8.55,2.74l.87.23c3.09.8,6.21,1.47,9.25,1.98,8.11,1.35,16.34,1.75,23.33,1.96,1.14.03,2.28.09,3.44.14,3.62.17,7.37.34,10.97-.08,2.94-.34,6.23-1.05,8.32-3.78,1.57-2.05,2.7-4.41,3.79-6.7.39-.82.79-1.65,1.2-2.46,1.22-2.39,2.91-4.76,5.15-7.24.19.07.38.15.57.23-4.58,5.1-7.99,11.97-10.12,20.43-.76,3-1.79,7.12-5.24,8-.87.22-1.82.23-2.75.25-.29,0-.58,0-.87.02-1.42.05-2.88.08-4.32.08-2.7,0-5.49-.07-8.27-.22-10.72-.6-20.81-2.03-29.99-4.24-2.7-.65-5.38-1.46-7.98-2.41l-.33-.12c-1.72-.63-3.5-1.27-5.2-2.04-.2-.09-.42-.21-.66-.33-.8-.42-1.8-.95-2.65-.84-.48.05-.84.28-1.03.67-.74,1.46,1.08,4.71,1.1,4.74.99,1.69,2.28,3.18,3.73,4.31.81.62,1.77,1.03,2.7,1.42.24.1.49.21.73.31,13.95,6.16,28.55,8.03,44.83,9.68,7.34.74,13.01,1.15,18.38,1.31,1.92.06,3.82.09,6.09.11,1.43.03,2.78-.18,4.12-.37.5-.07.99-.14,1.49-.2.94-.11,1.78-.17,2.47.09-.44.03-.88.05-1.32.07-.43.02-.86.03-1.28.06h-.22c-.63.05-1.41.1-1.89.56-.3.29-.43.66-.39,1.09.15,1.69,2.91,3.88,3.59,4.33.63.42,5.97,3.09,7.69,2.15.36-.2.55-.54.55-.99,0-.64-.54-1.13-.96-1.52-.1-.09-.19-.17-.26-.25-.73-.75-1.38-1.69-2.03-2.98-.16-.31-.3-.64-.44-.98-.08-.19-.17-.39-.25-.58.12-.04.24-.09.36-.15.88,2.46,2.02,4.34,3.46,5.71,1.71,1.64,4.09,2.54,6.58,2.54.5,0,1-.04,1.5-.11,7.7-1.14,12.33-9.54,14.08-17.02,1.17-4.96,2.54-14.45-1.31-22.31-.95-1.93-2.65-4.44-5.41-5.44-2.91-1.06-5.8.07-7.7,1.19-4.88,2.89-8.61,8.59-10.24,15.62-.93,4-1.22,8.5-.88,13.38.05.8.14,1.55.26,2.28-.04-.19-.08-.38-.11-.55-1.4-7.32-.55-15.36,2.41-22.64,2.04-5.03,5.04-9.85,8.84-14.23.73-.33,1.48-.58,2.29-.74,2.95-.61,6.01.2,8.39,2.21,3.73,3.14,5.8,8.21,6.16,15.05.13,2.39.17,4.58.14,6.63-.31.16-.59.33-.8.53-1.26,1.21-1.27,5.15-.29,6.54.31.44.64.62.98.55.81-.18,1.14-1.89,1.2-2.23.25-1.46.34-2.94.37-4.44.32-.13.65-.24.95-.34.34-.12.66-.23.91-.34,1.09-.47,2.18-.94,3.27-1.41,3.9-1.67,8.01-3.41,12.95-5.47,3.73-1.56,7.46-3.11,11.2-4.66,4.58-1.9,9.16-3.8,13.73-5.72,1.83-.77,3.67-1.54,5.5-2.32.35-.15.71-.31,1.06-.46.33-.15.66-.29,1-.44-.4.24-.7.6-.69,1.24.02,1.26.99,2.67,1.51,3.42.97,1.4,2.01,2.33,3.28,2.91.04.02,3.8,1.71,5.14.98.27-.15.44-.39.48-.7.04-.27-.05-.54-.18-.79.7.84,1.59,1.46,2.78,1.62,3.3.43,5.64-3.14,6.5-4.7,2.82-5.1,3.95-11.92,3.02-18.24-.33-2.28-1.91-7.44-4.63-8.78-.97-.48-2-.43-3.04.15-1.98,1.1-3.59,3.25-4.79,6.37-.96,2.5-1.56,5.41-1.83,8.9-.1,1.23-.14,2.24-.14,3.17,0,.18.02.4.04.64.02.28.05.6.05.9-.27-2.25-.25-4.67.05-7.3.7-6.03,2.96-11.46,6.21-14.9,1.63-1.72,3.02-2.31,4.16-1.76.41.2.76.5,1.07.87.12,1.03.23,2.1.42,3.16.21,1.2.52,3.02,1.98,3.48.23.07.47.02.65-.13.09-.08.15-.17.2-.28.12,1.1.34,2.18.86,3.04.67,1.1,1.69,1.07,2.67,1.06h.37c3.8-.02,13.05,0,13.91,0,.25-.02.48-.12.61-.34.14-.23.14-.54,0-.77-.12-.22-.35-.34-.61-.34ZM223.43,118.7c-.03.79-.08,1.6-.19,2.39-.08-.85-.06-1.78.19-2.39ZM196.75,130.3c-.06-.4-.12-.81-.15-1.21-.75-9.54.87-17.24,4.83-22.91,1.98-2.84,5.62-6.3,9.35-6.71,1.81-.2,3.44.36,4.86,1.66,1.86,1.71,3.17,4.33,3.99,8.04.79,3.53.94,7.47.47,11.7-.6,5.31-1.93,9.61-4.07,13.16-1.66,2.75-4.48,6.28-8.46,7.43-3.12.9-6.45.04-8.5-2.21-1.34-1.47-2.22-3.3-2.82-5.08.91-1.05.71-2.48.51-3.87ZM193.48,136.13c.63,1.34,1.29,2.72,2.28,3.93.15.19.34.36.52.53.2.19.39.37.53.55-.11-.03-.22-.06-.34-.08-1.32-.25-2.44-.56-3.41-.96-1.83-.75-3.22-1.85-4.16-3.25l-.08-.11c-.28-.41-.45-.7-.51-.84.15-.05.46-.06.58-.07.07,0,.14,0,.18-.01.57-.06,1.16-.08,1.74-.09.79-.03,1.6-.05,2.39-.17l.28.59ZM147.79,54.9c-.78.55-1.04.51-1.11.47-.1-.05-.15-.28-.13-.6.04-.84.96-1.68,1.86-2.13.64-.33,1.2-.51,1.54-.51.08,0,.14,0,.19.03.06.02.09.06.11.08,0,.07-.08.31-.76,1.14l-.07.09c-.15.18-.3.37-.45.55-.38.31-.77.62-1.17.9ZM227.41,77.51c3.08-1.49,6.48-2.79,11.02-4.22,1.65-.52,3.31-1.02,4.97-1.51l1.38-.42c1.08-.33,2.16-.65,3.23-.98.14-.04.3-.1.46-.17.41-.16.96-.37,1.23-.26.04.02.15.13.21.2.1.11.2.22.33.3.45.26.97.31,1.32.32,1.55.05,3.56-.48,5.13-1.35.87-.48,1.21-.97,1.28-1.87,0-.03,0-.06,0-.09.04,0,.08-.01.13-.02.64-.1,1.28-.3,1.91-.5.16-.05.33-.1.49-.15-.25,2.22-.58,4.45-.93,6.73-.15,1.03-.31,2.05-.46,3.09-.3,2.1-.57,4.21-.84,6.32-.48,3.73-.98,7.58-1.62,11.35-.14.83-.31,1.8-.54,2.74-.02.1-.05.22-.07.35-.08.42-.2,1-.43,1.24-.26.26-.87.48-1.36.66-.25.09-.48.18-.66.26l-2.38,1.09c-1.66.76-3.32,1.52-4.99,2.28-.88.4-1.76.81-2.65,1.22-4.62,2.14-9.39,4.35-14.36,5.43l-.29.07c-.67.16-1.78.42-2.16-.01-.25-.29-.33-1.11-.37-1.65-.02-.2-.03-.38-.06-.53-.4-2.68-.58-5.5-.75-7.98-.17-2.54-.25-5.13-.34-7.64-.08-2.49-.17-5.06-.33-7.59-.11-1.72-.27-3.45-.55-5.12.06-.03.12-.06.18-.09.95-.52,1.91-1.02,2.86-1.48ZM165.14,86.95c.53-1.79,1.2-3.02,2.01-3.67.96-.78,2.26-1.15,3.4-1.41,1.95-.44,3.96-.57,5.72-.57.97,0,1.87.04,2.63.08,2.25.13,4.62.31,6.78,1.04l.09.03c.44.15,1.04.35,1.23.72.21.41-.17.85-.65,1.35l-.07.07c-1.52,1.56-3.44,2.9-5.29,4.11-3.01,1.97-6.67,3.06-10.31,3.06h-.13c-1.17,0-2.3,0-3.42.25-1.94-.95-2.66-2.76-1.98-5.06ZM178.03,92.03c-.59.14-1.19.28-1.79.39,1.1-.31,2.17-.72,3.21-1.2,1.81-.85,3.42-2.06,4.97-3.23l.49-.37c1.05-.78,2.13-1.58,2.93-2.61.65-.84.83-1.61.53-2.29-.81-1.85-4.92-2.41-7.94-2.67h-.15c-2.96-.27-5.59-.25-8.04.06-1.98.25-4.23.68-5.9,1.96-1.86,1.42-2.9,4.42-2.95,6.52-.03,1.62.66,3.05,1.92,4.04-.37.16-.74.33-1.1.51-.84.39-1.71.8-2.61,1.09-5.47,1.75-11.5,1.67-17.34,1.59h-.65c-7.33-.11-13.15-.69-18.29-1.84-4.57-1.02-10.18-2.71-13.07-6.72-.68-.95-1.12-1.83-1.28-2.61-.25-1.19.17-2.8,1.26-4.81,1.16-2.13,2.89-4.14,5.3-6.15.17-.14.37-.32.56-.5.29-.27.74-.67.86-.71.1-.02.23,0,.34.05-.28.23-.56.46-.83.69-3.42,2.89-6.96,6.36-7.3,10.2-.04.49.08.84.37,1.05.57.41,1.62.09,2.4-.25,2.23-.97,4.36-2.84,6.02-5.25,1.89-2.76,2.4-4.86,1.55-6.38.41-.31.81-.61,1.22-.89-.04.04-.07.08-.11.12-.28.32-.56.68-.53,1.37,0,.22.01.41.02.6.03.45.05.81-.09,1.3-.11.4-.31.79-.51,1.21-.28.58-.58,1.19-.66,1.84-.14,1.19.71,1.83,1.37,2.2,1.36.78,3.02,1.13,4.5,1.45,2.4.51,4.85.82,6.72,1.04,4.77.55,9.95.91,15.81,1.08,2.37.07,4.31.09,6.09.07.21,0,.42,0,.63,0,1.08.01,2.19,0,3.23-.34.86-.28,1.69-.69,2.48-1.08.47-.23.93-.46,1.41-.67,2.2-.96,4.61-1.65,7.37-2.12,1.46-.25,2.97-.36,4.42-.47,1.48-.11,3.01-.22,4.51-.48,2.23-.38,4.63-1.02,7.55-2.02,6.43-2.2,12.58-5.19,18.28-8.88,1.34-.87,2.59-1.74,3.79-2.62,2.38.43,4.68,1.38,6.86,2.86.2.14.41.27.61.41,1.14.75,2.31,1.53,3.18,2.58.86,1.03,1.56,2.31,2.14,3.93.37,1.03.67,2.11.92,3.3-.43.25-.87.5-1.31.77-.58.35-.91.59-.98,1.34-.02.19,0,.37.02.54.02.17.04.34.01.49-.07.44-.41,1.08-.85,1.38-.21.14-.43.2-.64.15-.19-.04-.36-.22-.53-.4-.18-.19-.38-.41-.66-.51-.61-.23-.98.04-1.37.32l-.1.07c-.98.69-1.9,1.45-2.76,2.17-1.38,1.15-3,2.53-4.56,4.03-1.16,1.13-2.26,2.29-3.3,3.49-2.39,1.05-4.73,2.75-6.4,4.74-3.56,4.25-6.33,9.94-8.47,17.4-.92,3.23-1.56,6.55-2.17,9.77-.28,1.48-.57,3.01-.9,4.54.18-2.29.63-4.59,1.16-7.11.64-3.08,1.38-6.04,2.19-8.8.71-2.43,1.65-4.82,2.55-7.14.29-.75.59-1.51.88-2.27l.12-.3c.27-.69.61-1.54.48-2.32-.12-.75-.68-1.41-1.17-2-.08-.1-.16-.2-.24-.29-1.12-1.39-3.14-3.64-5.67-5.27.4-.43.81-.84,1.23-1.26,3.02-2.94,6.51-5.62,10.69-8.17,4.08-2.49,8.66-4.65,14.01-6.6.14-.05.41-.12.76-.23,2.79-.79,5.42-1.68,5.75-2.87.07-.24.07-.61-.3-1.01-.34-.36-.93-.53-1.34-.53h-.01c-.95,0-2.08.44-3.08.83-.39.15-.76.29-1.09.4-2.32.75-4.62,1.61-6.83,2.54-4.41,1.85-8.54,4.02-12.27,6.45-4.18,2.72-7.79,5.69-10.81,8.89-2.25-.59-4.53-.06-6.75.45ZM127.92,68.35s.1-.06.14-.08c2.42-1.43,5.1-3.02,7.84-4.15-.73.4-1.46.78-2.18,1.16l-1.8.94c-1.32.69-2.67,1.4-4.01,2.14ZM117.45,79.82c-1,1.09-2.09,1.98-3.23,2.64-.43.24-.92.52-1.43.66-.02,0-.04,0-.05.01.26-1.12.48-1.52.93-2.31l.04-.07c.55-.99,1.27-1.98,2.19-3.02,1.37-1.56,2.9-2.97,4.48-4.24.04.1.07.21.1.33.33,1.78-1.82,4.71-3.01,6ZM205.53,78.85c2.29-1.07,4.67-2.05,7.09-2.91.68-.24,4.02-1.31,5.66-1.71-1.03.42-2.86.95-3.69,1.19-.49.14-.86.25-1.02.31-2,.73-4.04,1.55-6.25,2.52-8.03,3.53-14.95,8.29-20.57,14.14-.18-.09-.35-.18-.53-.26,5-5.17,11.49-9.63,19.3-13.27ZM202.79,63.75c-5.43.55-11.03.64-16.44.73l-2.42.04c-6.04.11-11.95.18-17.9-.09l-1.72-.08c-6.02-.27-12.25-.54-18.15-1.77-.76-.16-1.56-.33-2.27-.63-.28-.12-.57-.24-.61-.27,0-.03.06-.13.35-.41l1.44-1.39c.94-.91,1.88-1.81,2.84-2.72.79-.74,1.59-1.5,2.29-2.33,1.86-1.59,3.69-3.28,5.45-4.91,1.26-1.17,2.56-2.37,3.86-3.52,3.53-3.13,6.26-5.46,8.88-7.56.27-.21.53-.43.8-.65,1.66-1.35,3.38-2.74,5.26-3.61,1.45-.67,3.1-.95,4.7-1.23l.17-.03c2.36-.41,4.9-.71,8.22-.97,6.93-.55,14.1-.66,21.92-.34,4.18.17,8.28.47,12.2.9.17.02.45.04.8.06.88.05,3.55.21,3.75.59.04.26-.24.76-.43,1.09-.06.11-.12.22-.16.3-.29.6-.62,1.2-.94,1.77l-.1.19c-1.8,3.29-3.3,6.36-4.57,9.39-.25.61-.51,1.22-.76,1.83-1.05,2.54-2.13,5.16-3.38,7.65-.58,1.17-1.12,2.21-1.82,3.15-.72.97-1.69,1.78-2.64,2.57l-.49.41c-.75.63-1.53,1.25-2.33,1.87-1.78-.23-3.68-.23-5.8-.01ZM190.94,132.54c-.63,0-1.27.09-1.85.16l-.9.12c-1.59.22-3.11.43-4.66.41-1.89-.02-4.12-.05-6.37-.13-7.21-.25-14.38-.93-19.81-1.51-9-.95-19.21-2.03-28.92-4.6-3.1-.82-6.11-1.8-8.96-2.91-.5-.19-1.01-.38-1.54-.58-2.01-.74-4.08-1.51-5.72-2.63-1.71-1.16-3.26-3.09-4.14-5.15-.53-1.24-.55-1.78-.47-2.03.01-.04.02-.07.03-.1h0c.12,0,.4.14.53.2.08.04.15.07.21.1.86.34,1.71.69,2.56,1.04,2.23.92,4.54,1.87,6.89,2.65,8.19,2.73,17.12,3.97,24.84,4.93,6.09.75,11.69,1.16,17.14,1.25,2.81.04,5.63,0,8.38-.12,1.72-.08,3.39-.25,4.86-1.42,2.47-1.96,3.29-5.28,4.01-8.2l.07-.29c.9-3.63,2.18-7.1,3.8-10.3,1.74-3.44,3.76-6.46,6.13-9.17,1.69,1.02,3.16,2.42,4.4,3.73.14.15.3.31.47.48.7.7,1.57,1.57,1.77,2.34.16.6-.23,1.47-.55,2.18-.08.19-.16.37-.23.52-2.45,6.16-4.23,12-5.44,17.84-.46,2.22-.97,4.8-1.17,7.4l-.03.31c-.1,1.03-.27,2.75.69,3.29.32.18.61.21.88.09.51-.22.74-.89.86-1.38.33-1.29.56-2.62.77-3.91.1-.62.21-1.23.32-1.84,1.1-5.86,2.51-12.62,5.35-18.64,1.66-3.53,3.94-8.36,7.79-11.1.01,0,.02-.02.04-.03-8.38,11.26-11.72,24.71-8.77,36.68.12.49.25.96.38,1.42-.19.1-.4.18-.62.24-.12-.17-.26-.33-.42-.47-.72-.69-1.66-.88-2.6-.88ZM276.38,97.84c.05-.14.24-.29.59-.45.53-.25,1.21-.4,1.81-.53l.12-.03c.4-.09.83-.14,1.24-.19.12-.01.23-.03.35-.04.01.07.03.14.04.2.05.23.09.45.15.64.24.77.51,1.55.82,2.32.03.08.78,1.94,2.02,3.79-.2-.03-.52-.08-1.03-.2-.81-.17-1.55-.4-2.2-.69-1.43-.64-2.62-1.9-3.53-3.74l-.06-.12c-.22-.45-.38-.77-.32-.97ZM283.39,100.52c-.37-.79-.71-1.65-1.02-2.55-.13-.39-.23-.81-.33-1.23-.03-.14-.07-.28-.1-.42.04-.01.08-.02.12-.04.34,1.49.81,2.94,1.4,4.34.04.1.08.19.12.29-.06-.13-.12-.26-.19-.39ZM284.39,92.9c0-.14-.01-.27-.01-.4-.07-3.67.39-7.27,1.31-10.43,1.07-3.66,2.58-6.03,4.6-7.23.5-.3.97-.37,1.46-.22,1.48.45,2.65,2.89,3.1,3.8,1.29,2.68,1.4,5.9,1.35,8.41-.06,3.4-.63,6.64-1.69,9.61-1.04,2.94-3.29,7.79-6.62,7.17-2.41-.45-3.44-4.03-4.05-6.17l-.09-.3c-.14-.47-.26-.95-.36-1.44.13-.09.25-.18.35-.28.72-.69.68-1.66.65-2.52ZM290.7,68.34c-1.96.95-3.39,2.87-4.42,4.44-1.45,2.2-2.62,4.76-3.5,7.59-1.5,4.86-1.83,9.85-1.01,14.51-.09.03-.19.05-.28.07-1.11-2.32-4.84-.66-6.64.14-.18.08-.34.15-.48.21-3.83,1.63-7.96,3.36-13.36,5.61-2.4,1-4.79,1.99-7.19,2.99-6.05,2.51-12.31,5.11-18.45,7.71-2,.84-4,1.69-5.99,2.55-1.09.47-2.18.94-3.27,1.41-.28.12-.63.24-1,.37-.06.02-.12.04-.18.06,0-.57,0-1.13-.02-1.7-.07-5.46-.34-10.77-2.92-15.59-2.09-3.9-6.04-7.67-11.26-7.67-.74,0-1.5.08-2.29.24,1.27-1.33,2.62-2.61,4.04-3.84.94-.81,1.71-1.46,2.44-2.06.6-.49,1.17-.94,1.73-1.36.04-.03.1-.09.17-.14.09-.08.28-.25.35-.27.04,0,.07-.02.11-.02.07.04.14.07.18.09.12.05.24.16.37.28.17.16.36.33.62.42.54.19,1.12.12,1.71-.21.68-.37,1.26-1.02,1.53-1.7.13-.34.14-.72.14-1.08,0-.37,0-.72.16-.93.2-.27.55-.5.96-.71.2,1.25.35,2.61.46,4.14.2,2.71.29,5.47.37,8.14.08,2.56.17,5.21.35,7.81.18,2.69.38,5.31.76,7.88.02.14.04.29.06.45.15,1.15.35,2.73,1.83,3,2,.36,4.43-.54,6.38-1.26.37-.14.73-.27,1.06-.39,2.84-.99,5.62-2.23,8.32-3.43l.18-.08c3.11-1.39,6.22-2.81,9.39-4.26l2.65-1.21c.15-.07.33-.14.5-.2.46-.17.99-.37,1.33-.71.34-.34.49-.82.62-1.24l.03-.1c.54-1.69.8-3.5,1.05-5.25l.14-.99c.38-2.55.72-5.16,1.06-7.67l.18-1.37c.44-3.3.89-6.7,1.42-10.04l.14-.87c.3-1.89.61-3.82.83-5.76,7.19-2,14.25-3.9,21.38-5.33.4-.08.81-.18,1.24-.28,2.14-.5,4.58-1.07,6.41.19,1.83,1.26,2.49,3.69,2.93,6.13.08.42.14.85.2,1.28-.06-.04-.13-.08-.2-.11-.99-.52-2.12-.48-3.35.12ZM227.77,62.96c-.59-.67-.84-1.44-.73-2.29.22-1.79,1.92-3.55,3.31-4.51,1.45-1,4.32-2.5,6.69-2.5.65,0,1.26.11,1.8.38,1.29.64,2.26,2.33,2.23,3.85-.05,1.98-2.71,3.26-4.15,3.94-2.4,1.15-5.04,1.67-7.69,2.03-.57-.18-1.08-.47-1.46-.91ZM241.99,59.75c.71-1.29.7-2.74-.01-4.3-.77-1.68-2.04-2.7-3.78-3.04-3.36-.64-7.76,1.48-10.2,3.8-2.1,2.01-2.85,4.36-2.05,6.47.22.57.55,1.06.98,1.47-.2.02-.4.04-.6.07l-.23.03c-1.06.12-2.26.25-3.35-.16-1.93-.73-1.67-2.74-1.25-4.74.63-2.97,1.28-5.87,2.26-8.67.24-.7.49-1.41.73-2.15,1.91-5.62,4.06-11.99,8.86-15.42,4.62-3.3,10.42-5.27,15.43-5.27.38,0,.76.01,1.13.04,1.35.08,1.43.25,1.98,1.35,1.06,2.12,1.89,3.86,2.59,5.46,3.56,8.1,5.59,15.02,6.22,21.15-.81.25-1.63.5-2.44.75-2.05.64-4.17,1.29-6.27,1.89-1,.28-1.99.55-2.99.82-2.85.77-5.8,1.57-8.62,2.61-.33.12-.69.25-1.06.38,1.15-.69,2.1-1.53,2.66-2.54ZM236.32,26.58c-2.07.61-4.65,1.37-6.83,2.55-.36.21-.61.25-1.08.18-1.09-.14-2.29-.28-3.66-.42-6.29-.63-12.6-.95-18.88-.95-5.18,0-10.34.21-15.44.64,9.24-2.06,19.3-3.57,30.46-4.6,9.25-.85,19.56-1.51,29.5.32-4.84.19-9.57.96-14.07,2.28ZM269.56,54.7c1.52-.43,3.09-.88,4.63-1.37l.38-.12c1.89-.59,3.85-1.21,5.58-2.19,1.17-.66,1.73-1.31,1.36-2.79-2.35-9.33-9.33-17.32-18.85-21.69.28.06.55.13.83.19,8.79,2.17,15.86,9.01,20.44,19.76.12.29.27.6.42.93.52,1.11,1.1,2.37,1.13,3.44.05,1.61-1.65,2-3.14,2.34-.31.07-.6.14-.87.21l-10.91,3.09c-2.39.68-4.78,1.35-7.18,2.03-.34.1-.69.19-1.04.29-.03-.64-.08-1.28-.13-1.93,1.14-.34,2.28-.69,3.42-1.04,1.3-.4,2.62-.77,3.93-1.15ZM250.94,64.3c-1.63.47-3.27.95-4.9,1.43-2.57.75-5.22,1.53-7.84,2.26l-1.24.35c-2.85.81-5.8,1.65-8.75,2.1-.05,0-.09.01-.14.02.21-.11.41-.21.6-.29,1.18-.46,2.36-.84,3.68-1.27,4.14-1.33,8.41-2.51,12.53-3.65,2.06-.57,4.12-1.14,6.18-1.73,3.28-.94,6.57-1.87,9.86-2.8,0,.33-.01.66-.02.99-.09.02-.19.04-.28.06-3.5.77-6.85,1.7-9.66,2.51ZM277.07,95.77l.12-.04c.55-.19,1.4-.48,2.06-.48.11,0,.21,0,.3.02-.79.13-1.66.3-2.56.59-.14.05-.29.09-.43.13-.11.03-.21.06-.33.09.28-.11.55-.21.83-.31ZM295.87,70.07c0-.07-.02-.15-.02-.22-.22-2.04-.44-4.14-1.13-6.11-.88-2.5-2.29-4.09-4.2-4.72-2.09-.69-4.45-.13-6.54.37-.52.12-1.03.25-1.53.34-6.83,1.38-13.62,3.24-20.21,5.06.05-.64.1-1.28.12-1.93,1.42-.35,2.83-.76,4.21-1.16,1.41-.41,2.86-.83,4.3-1.18,3.99-.99,8.01-1.88,11.41-2.62.65-.14,1.31-.32,2-.5,2.34-.63,4.75-1.27,6.95-.59,2.6.8,4.14,2.95,4.6,6.38.21,1.54.48,3.09.75,4.59.38,2.14.78,4.35.97,6.55.02.25.04.5.06.77,0,0,0,.02,0,.03-.31-1.59-.84-3.56-1.75-5.04Z"/>
</svg>