<svg xmlns="http://www.w3.org/2000/svg" viewBox="0 0 32600 16700"><path stroke-width="0" fill="#69a6c2" d="M30996 12452l-9931-12c45-22 88-44 128-65c48-26 96-56 143-90c158-68 285-149 347-191c462-316 719-747 812-1357c115-757 6-1525-321-2282-130-300-294-595-489-879c26-11 51-23 76-34c521-247 850-643 927-1114c42-261 55-645-124-986-197-375-594-651-1213-842-106-33-215-63-324-94-350-98-711-199-1010-399-213-142-398-330-578-513-196-199-399-405-645-561-495-313-1105-382-1719-194-336 103-657 281-928 514-278 239-497 531-634 845-139 319-342 917-134 1347c3 7 6 13 10 20-361 70-715 182-1054 332-507 226-961 530-1350 905-634 611-1108 1448-1301 2296-103 455-125 898-63 1319c67 456 229 874 484 1243c168 244 458 567 881 725c139 52 255 69 363 55c146-19 272-104 329-221c130-268-109-591-284-826-36-48-69-94-95-132-170-256-276-537-315-835-76-574 108-1179 493-1618c136-155 271-257 412-314c165-66 343-64 476 6c83 43 111 90 133 160-202-57-422-32-616 73-268 144-430 397-519 583-236 499-256 1087-53 1612c70 180 204 356 346 541c216 282 439 573 392 855-32 195-206 222-557 209h-13c-40-2-80-3-114-3h-3069l-5-1110c-2-85-57-96-81-96h-422v-1090c0-24-10-45-26-60h425c45 0 82-36 82-81l7-1516c0-22-9-43-24-58-15-15-35-23-58-24h-462l-2-1135c0-45-37-82-83-82-56 0-6032 8-6089 8-23 0-46 10-62 28-16 18-23 41-20 64c4 39 4 654 2 1214c0 22 9 43 24 59s36 24 58 24h611c-27 12-46 40-47 72l-12 1257h-443c-45 0-82 36-82 82l-2 1330c0 22 9 43 24 59c16 15 36 24 58 24h417c-12 15-19 33-19 53l2 1060c0 45 37 82 82 82l5983 4v7c-692 0-5525 3-6291 3-45 0-82 37-82 82v161h-2152c-45 0-82 37-82 82s37 82 82 82h2152v949c0 22 8 42 24 58c16 16 36 24 58 24l24102-22c45 0 82-37 82-82l9-1009c0-22-9-43-24-59-16-16-36-25-58-25h-7750c24-63 23-118-4-165-8-15-18-27-29-38c158-11 384-88 515-137l10315 12c45 0 82-37 82-82s-37-82-82-82zM3921 13977v-867h23945l-8 845-23938 22zm6373-1285h3068c37 0 78 2 121 3c264 10 664 25 726-347c4-26 7-51 8-77c20 184 33 317 38 373c2 28 18 51 40 64-16 18-19 41-19 54c0 75 5 136 21 182H3921v-79c531 0 2128 0 3412-1h2864c91-1 98-64 98-85v-88zm3699-3835c93-44 191-66 289-66s193 22 280 66h-569zm-1173 1587c43 322 157 626 341 904c27 42 63 89 100 140c149 202 354 478 268 656-33 67-110 117-202 129-81 11-171-4-284-46-384-142-649-439-803-664-990-1435-341-3489 859-4645c652-629 1479-1046 2392-1207c102 113 242 194 416 241c47 12 91 19 134 19h2c77 0 157-35 209-91c44-47 65-107 60-166-10-105-97-179-179-207-75-25-150-22-226-15-116 10-233 24-347 42-13-20-24-40-34-61-185-384 34-974 137-1209c255-583 814-1069 1460-1267c567-174 1129-111 1582 176c230 146 426 345 617 538c185 188 376 382 603 533c321 215 695 319 1061 421c104 29 212 59 317 92c575 178 940 428 1116 762c158 301 146 646 107 883-87 533-502 833-835 991-34 16-68 31-103 46-223-305-479-593-763-857-307-285-675-606-1086-826-496-266-945-320-1337-160-6 2-12 5-17 7-24-205-25-417-2-631c8-71 19-146 31-219c31-200 63-407 23-591-48-221-189-371-433-460-175-64-380-60-609 12-328 102-604 306-800 590-185 269-290 595-304 945-18 437 169 969 626 1172c239 106 521 99 755-18c165-83 286-213 403-340c63-68 124-133 188-189c73 343 208 655 402 930c184 261 414 476 685 641c283 172 603 283 952 329c390 52 836 2 1230-138c672 960 956 2051 801 3077-75 499-270 867-608 1145c97-153 180-330 249-530c152-444 71-1010-207-1442-229-357-562-574-937-611-78-8-162 9-227 50l43-377c3-23-5-47-20-64-16-17-38-28-61-28h-5888c24-21 34-54 24-86-9-30-17-59-24-87-32-125-63-243-235-333-175-92-405-97-613-13-167 67-322 184-475 359-416 474-615 1127-533 1748zm2880-4766c74-10 148-18 221-24c58-5 114-8 159 7c31 11 64 37 67 66c1 13-4 27-16 40-21 23-58 42-89 38-29 0-60-5-93-14-97-26-180-64-249-114zm4624 1933c-997-134-1728-837-1914-1838c18-9 36-18 54-25c752-307 1597 349 2249 954c268 249 509 516 718 795-358 119-758 161-1107 114zm-2106-2657c-27 249-22 497 12 737-105 75-193 170-278 262-106 115-217 234-355 303-190 95-420 101-615 15-387-171-544-633-528-1015c27-673 406-1204 988-1385c105-33 204-49 294-49c76 0 146 12 210 35c416 152 363 485 303 871-12 75-24 152-32 226zm1878 7623l2 2c-263 4-1598 26-2897 49-1434-20-2346-42-2787-67-28-287-125-1158-210-1904-50-440-100-875-138-1195-19-166-35-296-46-387l-7-53h6458l-396 3490c-3 23 5 46 21 65zm-54 318c-602 2-5412 2-5460 2-47 0-117 0-129-6-2-3-7-13-9-49c386-9 2039-38 2756-50c555 8 1098 14 1544 19c547 6 942 11 1017 14c17 0 37 1 65 1c171 2 217 19 226 32c0 0 2 10-9 36zm520-3212c15 21 30 41 44 59c205 264 301 614 264 959-28 258-162 437-306 628-49 65-100 132-148 205-31 47-60 101-82 159l228-2011zm-59 2393c-92-121-41-313 50-450c47-70 96-136 145-200c156-208 304-404 337-707c42-387-66-780-302-1084-37-48-76-98-69-136c6-36 62-62 128-62h22c324 32 613 223 814 536c251 391 326 901 190 1299-93 271-265 640-561 865-203 84-565 185-754-64zm-6308-13c-62-243-238-473-409-697-134-176-262-342-323-500-186-484-169-1024 48-1483c63-133 167-304 327-429v3c14 76 243 2071 357 3106zm6054 376l49-429c11 58 35 114 74 165c96 126 230 200 393 219-38 16-76 31-114 45h-402zM9729 8657h379l-6 1350-5828-8l11-1174h5362c22 0 43-10 58-25s24-36 24-58v-85zm-108 1656v1009c-1178 0-3710 3-5062 5h-812l2-1164h360v67c0 22 9 43 24 58c15 16 37 24 59 24h5430zm82 1307c45 0 82-37 82-82v-51h339c1 192 3 685 4 1040l-5900-4-2-896l5476-7zM3640 7447c235 0 1281-2 2435-3c1481-2 3139-4 3488-5l2 1054-5924 13c0-246 2-833 0-1058z"/></svg>