<?xml version="1.0" encoding="UTF-8"?>
<svg xmlns="http://www.w3.org/2000/svg" viewBox="0 0 32600 16700" fill="#69a6c2">
  <path
    d="M28829 15319c263-1333 343-4380 338-5470 15-68 28-136 39-205 105-646-3-1198-322-1642l40-141c116-411 210-1001-5-1476-107-236-311-417-561-497-146-47-330-162-406-342-31-74-41-157-51-245-12-103-25-210-74-311-75-155-234-275-435-330-79-22-159-24-236-26-147-4-240-12-304-100-103-144-66-328-27-524 18-88 36-179 39-265 12-298 7-686-138-1043-189-463-613-843-1134-1018-460-154-988-158-1529-10-811 221-1261 533-1375 954l-39 146 140-57c165-67 303 64 354 123 84 97 150 222 214 344 28 53 55 106 84 155 67 115 125 241 183 362 73 155 148 315 242 462 157 244 390 457 615 653 356 310 761 567 1187 754-353-37-664-233-818-330-94-59-125-79-167-70l-33 9-17 26c-24 38-23 84 3 136 14 29 29 57 45 85 33 61 65 119 79 180 42 182-71 340-221 468 1-7 3-13 4-20 10-46 22-93 34-140 42-162 85-329 47-501-49-223-201-355-347-482-60-52-122-106-175-166-191-213-348-454-468-714-61-133-107-277-155-430-82-257-166-523-329-734-77-100-167-154-258-155-59-5-141 18-223 116-211 252-188 578-155 750 23 122 66 245 111 375 96 275 194 560 83 809-19 43-37 87-55 130-29 72-57 140-91 207-6 12-13 24-20 36-33 58-75 131-45 230 28 91 109 161 202 175 33 5 65 3 93 1 21-1 41-3 58 0 69 9 114 138 144 223 8 23 16 45 23 63 56 141 125 306 212 469 8 15 16 32 25 48 55 110 124 247 263 292 235 75 463-56 646-161l54-31c53-30 116-65 180-105 28 100 82 189 156 289 83 111 268 392 195 595-11 31-35 60-61 91-98 119-181 234-268 362-23-78-28-167-24-241l285-262l-102-110c-37 35-88 62-143 91-61 32-124 66-178 115-112 101-95 241-81 354 4 30 7 60 8 88 5 176-17 279-100 457-176 380-765 2240-1126 3622-11 41-20 83-30 127-28 123-56 251-115 353-83 145-152 154-303 175-34 5-71 10-111 17-61 11-134 21-160 2-32-23-49-122-63-226-40-301-77-609-109-915-3-25-5-73-7-135-24-538-64-865-202-950-42-26-91-28-139-6l-40 18-4 44c-35 410-20 835-6 1246 6 167 12 334 14 499l2 151c33 2142 42 2897 43 3109h-7753l-94-63v-4750c-2-64-2-128-1-192 0-41 0-81 0-122h6873c703 0 1420-46 1428-386 5-200-18-423-40-639-14-139-27-270-34-393v-20c-22-415-48-932-387-1213l-37-31-44 22c-468 231-827 727-984 1361-37 149-58 314-64 504-1 43 6 101 14 161 10 78 25 195 8 233-16 37-31 49-35 49c-23-2-82-63-102-145-75-298 9-697 79-971 124-486 464-1063 1045-1225l99-27-56-86c-379-580-906-815-1517-1088-62-28-124-55-187-84-90-41-180-80-269-119-223-98-433-190-647-303-55-29-126-40-196-38-81-69-77-154-7-467 8-37 15-75 21-115 13-81 27-166 56-225 15-22 90-55 139-76 85-37 173-75 217-138 101-144 148-369 114-548-23-121-81-216-168-274-48-32-102-49-156-53 14-43 26-92 38-144 7-31 14-58 20-79 29-94 78-158 140-240l27-36c132-176 183-429 137-675-43-231-166-427-339-536-68-43-119-92-178-148-28-26-56-53-87-80-159-140-319-169-553-100-57 17-112 40-165 61-76 32-149 61-223 73-163 25-324-37-495-102-100-38-202-77-309-100-223-48-460-18-669 82-124 60-187 152-242 234-47 70-91 136-172 184l-23 14c-125 73-266 155-308 311-28 105 2 206 28 296 10 35 20 70 27 104 20 106 4 216-12 333-9 67-19 135-22 205-6 143 29 299 115 407-6 0-12-1-18-2-108-5-195 78-238 159-102 193-77 554 50 729 43 60 127 94 208 127 46 19 99 41 119 59 39 35 46 77 56 148 5 36 10 76 23 117 121 380 346 695 730 1022 231 196 486 373 800 389l-109 87c-186 147-328 433-404 587-6 13-13 26-19 38-380-235-703-567-1016-887l-65-67c-63-65-64-116-4-183 38-43 300-213 349-228l-39-145c-184 50-434 147-635 225l-135 52c-110 42-210 79-302 113-479 178-768 285-1284 597-493 298-717 631-648 965 44 213 218 383 372 533 44 43 86 84 124 125 232 252 438 482 611 755 91 143 196 447 106 504-11 7-17 9-18 10-32-20-63-165-78-235-25-118-42-192-83-237-183-203-352-399-515-588-165-190-335-387-519-592l-111 100c-15-17-18-36-18-44-3 59-128 480-228 819-108 367-221 746-247 884-29 152-73 315-119 488-129 480-274 1025-132 1477 70 223 213 416 339 586 163 221 826 1170 871 1317v1600s-7629 38-7629 38v150s7778-39 7778-39v-1745c-31-240-887-1399-896-1411-125-169-254-343-316-542-129-411 11-933 134-1393 47-176 92-342 122-499 25-131 136-507 244-870 108-365 170-578 203-705 146 164 283 323 417 478 164 190 334 386 517 590 16 19 35 109 48 168 31 147 64 299 167 343 34 14 88 22 156-22 230-148 11-598-61-711-180-283-391-519-628-776-39-42-84-86-129-131-145-142-295-288-330-456-69-335 276-623 579-806 504-305 788-410 1258-585 93-35 193-72 303-114l136-52c40-15 82-32 125-48-76 114-62 237 43 344l65 67c330 338 672 688 1085 935 13 8 37 22 70 20 51-3 66-33 121-144 51-103 135-271 237-404-11 664 23 1201 136 2279l40 382 107-369c121-420 106-1699 76-2256 80 99 172 240 223 427 9 32 34 56 67 63 186 37 1251-1110 1322-1202 19-24 50-65 52-119 2-37-9-65-26-89 83 37 166 74 247 109 88 39 177 78 267 119 63 29 126 57 188 84 559 250 1046 467 1397 951-583 213-924 802-1052 1301-74 290-163 714-79 1045 30 118 123 249 236 258 44 3 129-10 184-139 33-76 18-196 3-312-7-54-13-106-12-138 5-179 25-334 59-472 142-570 454-1018 860-1240 254 247 276 684 296 1072v20c7 127 22 266 35 401 21 211 44 429 39 620-2 90-171 240-1279 240h-7025l2 77c2 65 2 129 1 194 0 66 0 131 1 195v4828l199 133h7904l22-22q29-30-21-3239l-2-151c-3-166-8-333-14-502-13-368-26-747-3-1114 36 89 73 302 93 773 3 66 5 117 8 145 33 308 70 617 110 919 23 174 49 272 124 327 68 50 156 46 275 25 38-7 72-12 105-16 157-21 292-40 412-249 70-122 102-267 131-395 9-42 18-83 29-121 353-1350 947-3230 1117-3597 69-149 102-255 111-382 5 8 10 16 16 23l63 86 59-88c114-170 211-312 331-457 31-38 67-81 87-136 95-262-95-573-216-736-78-105-127-188-143-288 231-166 444-397 375-699-13-58-37-111-63-161 244 150 702 397 1187 286l187-43c3 84 27 170 81 253 10 16 21 33 31 49-98 58-174 139-249 217l-19 20c-237 250-500 481-780 686-29 21-57 40-83 58-96 65-186 126-255 253-105 193-162 403-217 606-50 185-97 359-178 519-63 126-135 249-211 379-223 382-454 778-446 1233 3 180 32 358 83 529l-125 353c-45 129-108 445-180 811-111 560-317 1603-449 1679l-14 5c-123 41-198 77-214 141-8 32 0 65 24 91 157 169 244 439 227 704-10 167-62 315-147 428-7-95 8-198 22-305 27-194 55-395-41-580-143-277-390-264-607-253-38 2-76 4-115 4-356 6-358 186-361 435v45c-5 250 12 505 163 680 160 186 245 222 478 205 61-5 117-19 172-33 62-16 119-31 172-28 1 3 2 7 4 10l37 101 82-69s3-2 4-3c16 6 31 13 47 19 187 77 381 156 591 182 293 36 591 25 880 15 181-7 369-13 550-8 506 14 1045 25 1575-12 316-22 691-183 817-492 113-277 208-567 300-848 46-141 92-282 141-421l866-2489c49-140 98-281 144-424-18 1372-112 3876-350 4975l-19 89 91 2c295 5 686 4 1100 2 212 0 428-2 638-2v-150c-210 0-426 0-639 2-372 2-726 3-1007 0ZM16806 6166c-361-307-572-601-684-953-9-29-13-60-18-92-11-77-23-165-104-239-40-36-100-61-163-87-53-22-125-51-143-76-94-129-114-428-38-571 21-40 57-79 92-79h3c29 2 52 14 81 29 55 29 131 69 245 16 42-20 81-46 118-71 53-36 103-69 154-78 271-47 534 94 812 243 182 98 371 199 562 241 367 79 742-25 956-266 135-152 223-453 138-657-53-127-165-202-316-211-104-5-215 31-329 110-42 30-82 63-122 96-38 31-76 63-116 91-280 194-586 109-909 20l-101-28c-355-95-624-88-798 21-89 55-154 136-192 241-90-71-126-218-121-345 3-62 12-125 21-190 17-124 36-251 11-381-7-40-19-79-30-119-23-78-44-151-27-215 26-96 134-159 238-220l24-14c111-65 169-152 221-229 51-75 95-141 182-183 179-86 383-111 573-70 95 20 188 56 287 94 182 69 370 141 572 110 92-14 176-49 258-82 52-21 100-41 150-56 184-54 291-37 411 69 30 26 56 51 83 76 62 59 121 115 201 166 137 87 236 246 272 436 38 206-3 415-110 558l-27 36c-65 86-127 168-164 286-7 23-14 54-23 89-16 67-49 207-84 235l92 118c44-34 119-33 173 3 53 36 88 95 104 177 29 157-24 340-90 434-20 29-94 61-154 87-84 37-163 71-201 127l-9 15c-42 85-58 180-73 273-6 37-12 73-19 106-67 298-75 439-11 539-24 12-45 26-62 42l-41 40c-166 159-605 580-838 628-345 72-616-83-915-337ZM16065 3950c25-90 71-154 141-197 138-86 367-86 680-3l100 27c342 95 696 192 1034-41 45-31 86-65 126-98 37-30 74-61 113-88 85-59 164-88 234-83 95 5 155 44 186 118 60 146-9 384-112 500-179 201-498 288-813 219-170-37-341-129-523-226-248-133-503-270-775-270-44 0-89 4-134 12-82 14-151 61-212 102-16 10-31 21-46 30ZM19218 6238c-155 202-919 965-1147 1120-88-260-240-428-325-522-18-20-41-45-46-53 0 0 3 5 4 13l-148 27c25 138 58 1055 26 1751-65-723-78-1172-62-1757l4-147c72 2 148-4 226-20 242-50 597-365 911-667l41-39c17-16 48-28 84-35 22 14 46 29 72 44 72 42 162 95 270 182 19 15 41 28 63 41 16 9 43 25 47 28 0 7-17 28-22 35ZM24431 5879c-12 49-25 98-35 146-13 63-20 120-20 173-83 55-166 102-233 139l-55 31c-166 95-354 203-526 148-79-25-130-127-175-216-9-18-18-35-26-51-83-157-150-318-205-455-7-17-14-36-21-57-42-120-106-301-265-322-14-2-28-3-41-3-17 0-32 0-47 2-22 2-43 3-60 0-37-6-71-35-82-71-11-36 3-61 32-112 8-14 16-28 23-42 37-73 67-147 97-219 17-42 34-84 53-126 135-304 21-631-79-920-43-125-84-242-105-354-28-146-49-422 123-626 35-42 69-62 105-62 44 0 95 35 142 97 147 190 227 443 305 688 48 151 97 307 162 448 126 274 291 526 492 751 59 66 125 123 188 179 134 117 260 227 299 401 30 137-7 280-46 431ZM22970 14345c-16 114-32 232-23 346-63 2-123 18-179 33-50 13-98 25-145 29-184 14-223-3-352-153-118-137-131-360-127-580v-46c4-252 4-284 215-287 40 0 80-3 120-5 46-2 89-4 128-4 159 0 263 30 339 176 74 143 50 312 26 491ZM26854 4817c9-25 15-52 17-81 89 41 189 44 281 46 71 2 139 4 201 21 159 43 283 135 339 251 38 77 48 167 59 263 11 95 23 193 62 286 81 193 268 352 499 426 209 67 381 219 470 417 171 377 119 851 45 1184-89-131-209-239-326-345-46-42-92-83-136-126-59-58-117-121-173-182-129-141-261-286-431-390-76-47-155-90-235-134-170-93-346-190-486-317-188-171-304-429-310-692 0-30 5-65 10-103 14-95 32-211-49-301 9-9 17-19 26-28 50-54 106-114 136-195ZM28784 7874c-7-8-13-15-20-23-70-80-347-313-698-609-457-385-1026-864-1185-1051l-13-15c23 25 47 49 72 72 153 138 336 239 514 337 78 43 155 85 229 131 152 93 272 224 399 363 57 63 117 128 179 188 45 44 93 87 140 130 161 145 314 283 380 469l3 8ZM26814 6111c-83-98-186-203-320-203-7 0-14 0-21 0-16-27-33-54-50-80-137-213-7-459 168-673 19 36 13 88 1 163-6 42-13 86-12 129 5 240 90 477 234 664ZM26713 4765c-19 52-63 99-105 144-13 13-27 29-42 46-5-2-9-4-14-6-44-20-82-37-100-67-29-50 60-177 128-223 22-14 47-22 70-22 19 0 37 5 49 16 27 25 28 75 14 112ZM26217 5617l-179-62c-525-182-1029-476-1459-851-217-189-441-393-587-621-88-138-162-294-232-445-58-124-119-253-188-374-28-48-54-99-81-150-68-129-138-263-234-372-45-52-186-194-375-194h-3c152-304 563-550 1224-730 512-140 1011-137 1442 8 480 161 870 509 1043 932 135 330 139 697 127 980-3 74-19 155-36 241-33 163-68 343-15 508-59-4-121 16-167 47-103 69-265 270-174 424 35 60 91 92 141 116-115 144-239 339-247 544ZM25074 7264c51-95 117-139 207-200 28-19 57-38 88-61 288-210 557-447 800-703l19-20c70-74 136-144 216-191 46 82 91 166 135 248l42 79c19 36 35 67 31 91-5 33-53 68-86 91-256 184-505 404-740 652-53 56-104 114-155 173-72 82-146 167-224 243-18 18-38 39-60 61-62 65-142 148-216 189 0-7-2-14-3-21-7-52-14-106-33-154-11-27-34-55-61-88-14-17-37-45-42-55 0 0 4 8 3 21l-62-5c37-120 81-239 140-348ZM24466 8772c74-127 150-257 216-388 40-80 73-163 101-248-26 115-66 227-129 346-206 392-489 929-533 1445-15 171-10 365 19 557-27-79-50-161-66-243l14-107-22 63c-15-89-24-179-26-270-8-414 212-791 425-1155ZM23788 12550c70-592 157-1328 207-1704l31-237c105 267 267 512 477 711l103-109c-282-268-372-846-335-1270 42-485 316-1007 516-1388 123-234 164-445 188-681 2 13 4 27 6 40 5 41 11 83 22 122l18 62 64-8c141-19 269-152 372-259 20-21 39-41 57-58 82-80 158-167 232-251 50-57 99-114 151-168 228-242 469-455 718-633 53-38 133-95 146-192 11-74-24-139-47-183l-42-79c-31-59-63-118-96-178 46 30 95 85 156 159l35 42c167 196 717 660 1203 1069 319 268 620 522 682 593 251 286 395 618 434 1003-13-51-28-102-47-152-163-449-504-679-935-630-291 33-573 203-795 480-192 239-313 517-430 804-194 475-386 989-623 1666-47 134-93 269-139 404-47 139-95 277-143 415-136 390 68 647 311 880-38-2-81-8-126-18l-254-57 184 183s0 23-11 30c-18 14-52 14-83 2-33-13-62-27-91-40-71-33-144-66-241-84-228-42-460 10-664 56l-1230 277-57 13c21-172 47-393 75-632ZM28729 10776l-866 2489c-49 140-95 281-142 423-91 278-186 566-297 838-101 248-428 381-689 400-523 37-1058 26-1560 12-187-5-377 2-560 8-283 10-575 21-856-14-187-23-369-97-545-169 104-137 166-313 179-512 18-282-69-571-228-770 19-8 47-19 88-33 11-4 19-7 23-8 126-52 231-352 370-968-2 20-5 40-7 60-35 293-66 557-88 739l-13 109 106-27c53-13 105-25 158-37l1231-277c190-43 406-91 604-55 79 15 137 42 205 73 31 14 63 29 98 43 81 33 169 25 229-21 35-26 60-67 68-112 82 8 172 4 243-32l96-49-79-73c-271-251-506-468-382-824 48-139 96-277 143-416 46-134 92-269 139-403 236-675 427-1187 620-1659 113-277 229-544 408-767 197-245 443-396 695-425 362-40 638 148 777 532 78 215 100 453 113 677 3 63 6 166 7 302-72 321-181 637-288 944Z" />
</svg>
