<?xml version="1.0" encoding="UTF-8"?><svg xmlns="http://www.w3.org/2000/svg" viewBox="0 0 326 167" fill="#69a6c2">
  <path d="M315.81 94.64h-41.69c-1.67 0-3.1 1.19-3.42 2.82l-2.21 11.47c-.38 1.97-1.13 3.82-2.23 5.49l-26.53 40.29c-1.45 2.2-4.13 3.22-6.68 2.54l-102.62-27.46c-2.09-.58-3.42-1.62-3.74-2.92-.09-.36-.09-.73 0-1.08 .18 .09 .38 .16 .58 .22l25.59 6.79c1.35 .36 2.82-.03 3.82-1l1.04-1.01 36.94 9.75c2.01 .53 4.11-.21 5.35-1.88l7.02-9.49c.53-.71 .66-1.64 .36-2.47-.31-.84-1.01-1.46-1.87-1.66l-33.87-7.95c-1.03-.24-2.1 .01-2.95 .74l-11.45 11.12-25.36-6.7c-1.91-.61-3.8-.35-5.17 .69 .04-.35 .23-.66 .54-.88l19.24-14.19c.67-.49 1.53-.67 2.35-.5l24.34 5.07c-.11 .3-.13 .63-.05 .95 .15 .58 .61 1.01 1.19 1.13l70.86 15.05c2.06 .43 4.24-.43 5.43-2.16l12.15-17.52c.44-.64 .52-1.45 .22-2.16-.31-.71-.95-1.21-1.72-1.33l-88.35-13.19c-.8-.12-1.37-.84-1.3-1.64l.04-.38 91.68 13.44c1.18 .17 2.36-.12 3.32-.82 .96-.7 1.6-1.74 1.79-2.91l12.83-77.72c.21-1.28-.14-2.59-.97-3.59s-2.04-1.6-3.34-1.63l-98.39-2.7h-.12c-2.33 0-4.33 1.81-4.56 4.13l-6.04 61.38c-.18 1.87 1.05 3.55 2.84 3.97l-.5 4.59-1.83-.27c-1.41-.21-2.87 .17-4.01 1.03l-5.97 4.52H6.09c-.45 0-.82 .37-.82 .82s.37 .82 .82 .82h152.58c.18 0 .36-.06 .5-.17l6.19-4.69c.79-.6 1.8-.86 2.77-.71l1.89 .28-.05 .46c-.15 1.67 1.03 3.18 2.69 3.43l88.35 13.19c.2 .03 .37 .16 .46 .35 .08 .19 .06 .4-.06 .57l-12.15 17.52c-.84 1.21-2.31 1.79-3.74 1.49l-70.71-15.01 .15-.13 35.41 7.38c1.04 .22 2.13-.19 2.77-1.04l1.72-2.3c.34-.46 .42-1.05 .22-1.58-.21-.53-.66-.91-1.22-1.02l-33.96-6.57c-.82-.16-1.69 .08-2.32 .63l-3.08 2.72-25.32-5.28c-1.27-.28-2.61 0-3.66 .78l-19.24 14.19c-.93 .68-1.38 1.81-1.16 2.94 .06 .3 .15 .58 .29 .84-.42 .85-.53 1.81-.3 2.73 .27 1.1 1.26 3.1 4.9 4.11l102.63 27.46c.66 .17 1.33 .26 2.01 .26 2.61 0 5.03-1.3 6.47-3.49l26.53-40.29c1.22-1.86 2.06-3.91 2.48-6.09l2.21-11.47c.17-.86 .92-1.49 1.8-1.49h41.69c.45 0 .82-.37 .82-.82s-.37-.82-.82-.82ZM131.43 123.85l24.44 6.45-.33 .32c-.59 .58-1.46 .8-2.26 .59l-25.59-6.79s-.09-.02-.13-.04c.94-.81 2.36-1.02 3.87-.54ZM171.28 118.71l33.87 7.95c.34 .08 .59 .3 .7 .62 .12 .32 .07 .65-.13 .93l-7.02 9.49c-.83 1.13-2.25 1.63-3.61 1.27l-35.99-9.5 10.64-10.35c.41-.38 .99-.53 1.54-.41ZM263.57 103.05l-91.74-13.45 .5-4.59 72.75 9.91s17.46 2.38 17.46 2.38c.81 .11 1.62-.1 2.27-.58 .66-.49 1.09-1.2 1.21-2.01l10.97-69.13c.13-.8-.1-1.62-.61-2.25-.52-.63-1.28-1-2.09-1.03l-93.36-3.16c-1.76-.06-3.29 1.27-3.45 3.03l-6.59 60.95c-.89-.3-1.48-1.18-1.38-2.15l6.04-61.38c.15-1.53 1.45-2.71 3-2.65l98.38 2.7c.82 .02 1.6 .4 2.12 1.03s.75 1.46 .61 2.28l-12.83 77.72c-.25 1.54-1.71 2.61-3.25 2.37ZM274.22 23.95c.34 .01 .66 .17 .88 .43 .22 .26 .31 .61 .26 .95l-10.97 69.13c-.12 .78-.86 1.32-1.64 1.22l-19.06-2.6s-49.83-6.79-49.83-6.79c.32-.91 .54-2.45 .85-4.87 .14-1.12 .32-2.57 .48-3.25 1.33 .06 2.74 .15 4.45 .29 .1 .01 .19 .02 .29 .02l2.62 .25-.05-.04h.07s0 0 0 0l1.04 .08c.27 .04 .53 .08 .78 .16l.2 .03c1 .04 23.5 3.26 36.64 5.16 .42 .06 .83-.05 1.16-.31 .33-.26 .54-.63 .59-1.05 .15-1.35 .64-5.82 .74-6.45 .23-1.23 .36-3.32 .39-4.34q.03-.96-13.58-1.97c-3.45-.26-6.71-.5-8.28-.66-6.5-.59-13.32-1.15-21.44-1.77-.11-.03-.24-.05-.37-.07-.11-.02-.22-.04-.32-.06l-.11-.02c-.71-.07-1.45-.14-2.2-.12-.09-.04-.23-.08-.42-.08-.47 .02-.93-.06-1.43-.17-.06-.99 0-1.95 .08-2.96l.03-.56 .1-.62c.04-.87 .18-1.72 .33-2.62l.14-.91v-.17c.02-.16 .02-.34 .01-.54 .81 .01 2.16 .15 3.2 .26 1.17 .12 1.58 .16 1.81 .14l1.19 .11c3.48 .31 12.25 1.27 20.74 2.2 8.57 .94 16.66 1.82 19.45 2.06 .96 .1 1.79-.61 1.91-1.57 .26-2.11 .26-6.26 .26-8.25 0-.49 0-.83 0-.86v-.25s-.04-.17-.04-.17c-.04-.22-.17-.9-1.01-1.04-1.45-.15-14.03-.92-17.7-1.02-1.51-.07-2.66-.16-3.78-.3-.38-.03-.75-.05-1.13-.07-.67-.04-1.37-.08-2.09-.16-.08-.04-.21-.09-.34-.09-.32-.04-.64-.05-.96-.06-.44-.01-.85-.02-1.24-.13l-.1-.03h-.11c-1.4 0-2.76-.13-4.03-.28h-.06s-.06 0-.06 0c-.14 0-.28-.02-.45-.05-.11-.02-.23-.04-.38-.05-2.98-.16-5.82-.41-8.21-.63-.38-.03-.74-.11-1.13-.2l-.86-.08c-.68-.06-1.35-.12-2.07-.14-.08-.04-.21-.08-.36-.09-.55-.04-1.13-.09-1.64-.23-.03-.14-.03-.32-.03-.5 0-.16 0-.31-.02-.36 0-.3 0-.6 0-.9 0-.58 0-1.12 .06-1.68 .06-.55 .12-1.09 .17-1.63 .11-1.12 .21-2.18 .41-3.26 0-.04 .01-.05 .04-.12 .08-.04 .29-.04 .43-.03 .24 .05 .53 .08 .83 .07 .46 0 1.24-.02 1.98-.04l3.68 .26c.79 .06 1.58 .18 2.34 .29 .66 .1 1.32 .2 1.99 .26l.5 .05c.53 .05 1.04 .09 1.56 .18h.11c.25 .02 .47 .03 .7 .04 .24 .01 .48 .03 .8 .03 .05 0 .22 .04 .33 .08 .18 .05 .36 .1 .59 .13 .15 0 .28-.03 .39-.06 3.25 .43 6.52 .76 9.68 1.07 2.55 .25 5.18 .51 7.84 .84 .35 .03 11.99 1.39 12.56 1.47h.07s.07 .01 .07 .01c1.28-.01 1.49-1.32 1.58-1.88l.03-.18c.08-.86 .2-7.61-.02-9.85l-.03-.14c-.09-.3-.37-.7-.88-.83l-.12-.02c-1.67-.14-7.42-.38-13.51-.62-6.62-.27-13.46-.54-16.39-.75-.33-.02-.66-.03-1-.04-.48-.02-.98-.03-1.51-.09-.12-.03-.29-.08-.45-.08-.09-.04-.22-.07-.4-.08-.2 0-.38-.01-.57-.03-.21-.02-.46-.04-.6-.03-.09-.04-.21-.08-.37-.08-1.09-.03-2.22-.06-3.4-.22-.33 0-.66-.07-1.02-.13-.73-.08-1.46-.12-2.19-.16-1.22-.07-2.38-.14-3.59-.37-.25-.03-.46 0-.63 .03-.1 .01-.18 .03-.23 .02-.06 0-.11-.01-.15-.02-.19-.81-.17-1.63-.15-2.49 0-.23 .01-.46 .01-.71 0-.19 .08-.93 .15-1.57 .11-.95 .18-1.65 .2-2.15l74.92 2.54ZM198.41 73.75c.26 .4 .56 .83 1.01 1.14 1.6 1.14 3.16-.34 3.86-1 .62-.49 1.36-.83 2-1.09 .25-.08 .5-.13 .76-.16-.33 .15-.66 .32-.98 .53l-.28 .11c-1.6 .93-2.65 2.35-3.53 3.76-.07 .07-.13 .11-.2 .15l-.14 .07-.43-.16c-1.04-.87-1.77-2.06-2.08-3.33ZM200.33 55.01c.79 .92 2.12 1.43 3.11 .64l.51-.41c1.1-.87 2.13-1.69 3.38-1.98 .07-.01 .15-.02 .22-.03-.39 .17-.78 .36-1.16 .58-1.11 .65-2.07 1.54-2.87 2.64l-.12 .17c-.21 .29-.67 .93-.87 1.15l-.3 .1-.16-.12c-.29-.24-.56-.52-.85-.82l-.08-.07c-.15-.12-.28-.32-.42-.53l-.05-.07s-.02-.1-.03-.16l-.09-.19c-.29-.45-.57-.99-.74-1.59 .15 .24 .32 .47 .5 .69ZM202.1 34.82c.52 .74 1.25 1.34 2.29 1.45 .9 .1 1.57-.47 2.06-.89l.09-.08c.97-.92 2.03-1.47 3.28-1.71 .14-.03 .29-.05 .43-.06-.69 .31-1.37 .68-1.98 1.15-.32 .19-.66 .43-.91 .64-.2 .16-.37 .34-.54 .53-.12 .13-.25 .27-.44 .43-.31 .3-.68 .71-1.01 1.08-.22 .25-.52 .58-.66 .71l-.68 .23-.49-.45c-.24-.22-.26-.29-.38-.58-.07-.16-.14-.36-.27-.61-.35-.7-.62-1.27-.79-1.85ZM197.68 28.92c.24 .8 1.1 .89 1.38 .92 .25 .03 .46 0 .62-.03 .1-.01 .18-.03 .17-.03 1.25 .25 2.51 .32 3.74 .39 .71 .04 1.41 .08 2.07 .15 .35 .06 .75 .13 1.11 .13 1.14 .16 2.28 .19 3.37 .22 .09 .04 .23 .08 .42 .09 .19 0 .38 .01 .57 .03 .21 .02 .41 .03 .6 .03 .09 .04 .24 .08 .45 .08 .03 0 .07 .02 .1 .02 .08 .02 .16 .04 .31 .07 .53 .05 1.05 .06 1.56 .08 .32 .01 .64 .02 .95 .04 2.94 .21 9.79 .49 16.42 .75 5.73 .23 11.16 .45 13.13 .59 .18 2.48 .05 8.58 0 9.17l-.02 .14c-.03 .18-.09 .54-.11 .62-1.33-.16-12.28-1.46-12.55-1.47-2.62-.32-5.27-.58-7.82-.83-3.18-.32-6.48-.64-9.82-1.09-.14 0-.27 .03-.38 .05-.06-.01-.11-.03-.17-.05-.23-.07-.52-.15-.78-.14-.25 0-.47-.02-.7-.03-.22-.01-.45-.02-.69-.03-.55-.09-1.07-.14-1.63-.19l-.49-.04c-.64-.06-1.27-.16-1.91-.25-.3-.05-.6-.09-.91-.14 .26-.29 .52-.58 .71-.77 .2-.16 .37-.34 .54-.53 .12-.13 .25-.27 .4-.39 .2-.17 .48-.36 .8-.56 1.04-.8 2.25-1.26 3.41-1.65l.25-.14c.17-.11 .52-.33 .5-.79l-.03-.44-.23-.12c-.42-.49-1-.57-1.36-.61-.1-.01-.19-.02-.34-.06-.67-.11-1.26-.11-1.8 0-1.51 .28-2.83 .96-4.04 2.11-.33 .28-.67 .59-.94 .54-1.13-.12-1.7-1.56-2.15-2.9l-.05-.16-.11-.12c-.38-.4-.79-.35-.96-.31-.38 .1-.66 .43-.78 .93-.11 .49-.09 1-.08 1.49l.03 .2c.03 .1 .04 .23 .04 .38 0 .14 .01 .27 .04 .44 .2 .99 .63 1.85 1.01 2.6 .08 .15 .13 .28 .18 .39-.75 .03-1.7 .05-2.38 .06-.22 0-.4-.01-.54-.05l-.17-.02c-.45 0-1.28-.03-1.82 .74-.09 .17-.19 .35-.24 .65-.21 1.13-.32 2.27-.43 3.37-.05 .53-.1 1.06-.17 1.61-.07 .65-.07 1.26-.07 1.85 0 .28 0 .57 0 .95 .01 .11 .01 .22 .01 .33 0 .34 .01 .75 .16 1.1 .09 .28 .35 .57 .56 .68l.11 .05c.69 .24 1.43 .32 2.16 .37 .09 .04 .22 .09 .39 .09 .73 .02 1.4 .08 2.09 .14l.67 .05c.42 .09 .85 .18 1.32 .22 2.4 .22 5.25 .47 8.21 .63 .09 0 .17 .02 .25 .04 .2 .04 .43 .09 .7 .07 1.27 .15 2.6 .29 4.06 .29 .53 .14 1.03 .15 1.51 .16 .23 0 .47 .01 .75 .04 .08 .04 .21 .09 .34 .09 .74 .09 1.51 .13 2.25 .18 .37 .02 .74 .04 1.07 .07 1.12 .14 2.31 .24 3.87 .31 3.7 .1 15.21 .82 17.31 .99 0 .15 0 .4 0 .86 0 1.81 0 6.05-.25 8.07-.02 .16-.14 .27-.29 .26-2.77-.24-10.85-1.12-19.41-2.05-7.51-.82-15.25-1.67-19.35-2.07 .07-.1 .16-.21 .24-.33l.12-.17c.67-.93 1.48-1.68 2.41-2.22 .52-.3 1.11-.56 1.68-.79 .32-.13 .65-.24 .98-.35 .26-.09 .53-.17 .79-.27l1.2-.44-.92-.79c-.05-.05-.1-.09-.16-.13-.43-.33-.87-.42-1.24-.5l-.33-.07c-.77-.09-1.45-.08-2.12 .04-1.62 .37-2.84 1.34-4.02 2.28l-.51 .4c-.27 .21-.78-.14-1.03-.42-.43-.52-.73-1.08-.92-1.71-.05-.17-.13-.29-.22-.43l-.06-.14c-.11-.2-.46-.81-1.06-.76-.35 .03-.63 .27-.74 .59-.6 1.49-.35 3.2 .72 4.95 0 .05 .02 .11 .04 .18l.25 .43c.06 .09 .12 .17 .18 .26-1.29-.13-2.79-.27-3.59-.21-.34 .05-.92 .29-.95 1.32v.07s0 .07 0 .07c.02 .14 .01 .32 0 .49l-.13 .92c-.15 .9-.31 1.84-.34 2.7l-.14 1.23c-.08 1.15-.16 2.34-.04 3.6l.03 .14c.11 .37 .43 .54 .63 .65l.2 .07c.63 .14 1.29 .29 1.96 .27 .09 .04 .22 .07 .41 .08 .72-.02 1.38 .04 2.09 .1 .12 .03 .24 .05 .37 .07 .11 .02 .22 .04 .32 .06l.13 .02c8.14 .62 14.96 1.18 21.46 1.77 1.58 .16 4.85 .41 8.31 .66 4.46 .33 10.4 .77 12.17 1.03-.05 1.09-.17 2.61-.35 3.54-.1 .67-.56 4.79-.79 6.57-8.18-1.18-34.42-4.96-36.7-5.17-.61-.17-1.22-.23-1.8-.26 .75-1.11 1.51-1.98 2.54-2.6l.36-.15c.53-.38 1.18-.61 1.83-.85 .15-.05 .26-.12 .34-.19 .08-.02 .18-.04 .28-.06 .31-.05 .7-.12 1.05-.4l.12-.1 .07-.14c.19-.35 .1-.86-.43-1.14l-.09-.04c-1.41-.52-2.84-.59-4.22-.17-.81 .33-1.67 .72-2.49 1.38-1.04 .99-1.56 1.22-2.01 .91-.23-.16-.42-.44-.63-.74l-.12-.17c-.33-.58-.58-1.13-.82-1.79-.09-.3-.31-.53-.6-.63-.29-.1-.62-.06-.87 .12l-.11 .08-.08 .12c-.38 .57-.35 1.2-.32 1.66 0 .11 .01 .21 .01 .34 .06 1.49 .6 2.97 1.49 4.19-1.29-.09-2.42-.16-3.52-.2l-.39-.02-.24 .31c-.36 .48-.53 1.56-.87 4.28-.21 1.63-.55 4.35-.89 4.81 .03-.04 .16-.15 .37-.15v.25l-20.2-2.75 6.6-61.04c.08-.88 .81-1.55 1.76-1.55l16.95 .57c-.03 .53-.13 1.43-.2 2.03-.1 .92-.16 1.49-.16 1.75 0 .23 0 .45-.01 .67-.02 .99-.04 2.02 .25 3.11ZM179.59 109.33l33.96 6.57-1.72 2.3c-.26 .34-.69 .51-1.12 .42l-34.2-7.13 2.16-1.91c.25-.22 .6-.32 .92-.25Z" />
</svg>
