<svg xmlns="http://www.w3.org/2000/svg" viewBox="0 0 326 167"><path stroke-width="0" fill="#69a6c2" transform="scale(.01)" d="M30812 8581c-656-297-1471-230-2026-154-295 41-592 97-879 152-265 51-539 103-810 143-239 34-797 115-1017-100-19-19-36-40-50-62-3-5-5-12-7-25-4-28-10-66-58-120l-1122-1087c-30-29-76-31-108-4l-661 544 650-556c18-15 28-37 28-60 0-24-9-45-26-61l-1682-1552-29-213 218-178c19-16 30-38 30-62 0-25-10-47-29-63l-305-258c-17-14-38-21-60-19l-3899 339c-21 2-35 10-45 18-19-54-90-136-268-272 15-97 17-194 5-290 66-205 85-409 55-608-47-318-225-606-514-832-611-479-1520-593-2167-541-946 77-1732 489-2212 1161-10 14-17 29-21 46-676-197-1320-126-1864 205-564 343-923 842-1065 1484-34 156-42 307-49 454-5 104-10 211-25 317-19 139-153 459-251 529l-4380 3113c-87 62-125 431-138 587-386 29-985-12-1277-31-55-4-100-7-133-9-1065-61-2108-108-3166-7-22 2-41 12-55 29-14 17-20 38-18 59 4 45 44 79 89 73 1047-99 2083-53 3141 8 39 2 90 6 151 10 305 21 863 59 1259 31-2 68-2 143 7 182 59 258 1126 532 1347 481 88-20 93-117 98-202 3-51 6-103 23-135 14-22 125-94 175-121 19-11 80-8 133-6 99 4 212 9 276-45 61-51 69-133 74-188 1-15 3-36 3-38l216-229c16-8 86 0 132 7 87 12 177 23 237-2 58-25 78-115 99-211 8-37 17-77 26-98 29-18 58-45 89-72 29-27 60-54 89-72 15-9 81-10 133-11 120-1 269-3 363-70 27-19 53-39 79-59 29-22 58-45 88-66 36-25 70-55 103-83 48-42 94-81 145-108 110-59 138-237 160-380 6-42 13-81 20-112l331-198c27 2 78 9 132 18 217 33 314 42 355 14 21-14 45-41 74-71 36-39 102-110 128-111 10 4 36 29 51 44 20 19 39 37 55 48 83 52 237 129 340 59 116-79 382-474 446-598 44-86-230-1010-511-1254-112-97-201-72-256-33l-4930 3490c-21 15-64 34-158 50 21-231 55-404 77-444l4370-3105c149-106 295-478 318-639 15-109 20-217 25-323 7-143 14-290 46-437 132-596 466-1061 991-1380 528-321 1182-375 1844-153 113 142 364 311 585 420-240-50-482-68-695-51-448 35-1067 191-1475 732-653 868-683 1771-92 2759 103 173 38 596-59 781l-2234 4249c-185 351 6 984 289 1217 78 65 208 98 295 107 35 4 71 5 107 5 136 0 280-22 408-45 51-9 88-23 129-49 83-53 151-61 254-72 42-4 72-21 91-50 38-59 8-146-20-230-14-41-37-110-28-126 45-76 85-156 124-233 16-9 62-19 94-26 87-20 185-42 220-102 35-62 6-147-23-229-17-48-34-98-35-134 0-41 46-118 81-175 16-26 30-49 37-64 9-7 48-12 73-15 85-11 201-25 230-131 20-70 0-131-17-184-12-37-23-72-22-107 4-78 70-191 125-265 44-58 100-71 165-86 76-17 162-37 221-138 30-52 30-103 29-147 0-30 0-56 8-78 16-42 45-80 76-120 33-43 67-88 90-144 46-115 0-218-39-308-23-53-45-103-50-153-5-53 68-168 111-237 13-20 24-39 33-53 15-26 113-60 184-84 106-37 216-74 265-133 17-21 35-53 56-90 27-48 77-136 106-144 27-8 66 7 107 22 79 30 188 70 276-43 98-126 150-333 196-516 19-77 38-150 58-212 33-100-90-247-209-390-53-64-109-131-126-168 4-28-6-56-28-75-30-25-72-25-103-1-12 9-20 21-24 30l-2768 5087c-31 57-294 72-466-10-144-69-109-152-97-179 173-416 369-825 558-1221 254-533 523-1079 823-1672 427-844 868-1717 1354-2530 144 68 576 355 769 482 51 34 91 60 113 74 27 18 61 88 91 150 58 122 125 260 239 266 675 30 1363-287 1839-852 266-316 445-699 485-1035 20 8 38 16 57 27l-72 443c-4 26 4 52 23 71l821 820-184 1005c-32 176 49 382 181 459 95 55 201 39 301-44l271-228c93-78 261 39 336 112l2852 2760c171 166 415 118 568-14l3801-3306c193-168 335-391 400-629 3-12 4-24 2-35 290 232 845 151 1117 112 272-39 547-92 812-143 286-55 582-112 875-152 536-73 1319-139 1937 141 20 9 42 10 62 2 20-8 37-23 46-42 18-41 0-89-41-108ZM13035 10354l747-1374c34 47 76 98 116 147 56 68 140 170 145 204-19 57-36 127-55 201-44 173-93 369-170 469-13 18-36 13-100-10-56-20-126-46-200-25-94 27-143 117-186 196-19 35-37 67-56 91-22 27-102 53-173 77-23 8-46 15-69 23ZM14877 4551l58 21-50-35c37-87-101-204-473-403l-23-12c-132-73-285-154-426-204h-3s-2-4-2-4c452-631 1195-1019 2092-1092 617-50 1479 56 2054 506 259 203 412 448 454 728 12 82 15 166 8 251-61-132-149-262-262-388-47-53-100-104-158-154-62-98-150-205-236-285-285-268-676-439-1160-508-432-61-957 2-1372 166-294 116-575 280-792 461-166 139-344 332-253 464l-2 4 4-3c12 16 29 26 49 29 54 7 121-43 185-95 9-7 16-13 20-16 120-86 241-166 360-236 396-235 770-376 1110-419 645-81 1487 152 1962 545 32 53 53 101 63 142 49 195 48 386 0 567-102-39-186-53-250-39-117 24-214 102-276 219-78 149-88 341-25 488 10 22 28 38 49 45-119 96-255 184-406 263-334 174-681 281-1022 322 6-2 11-3 17-5 27-8 47-28 55-55 8-27 2-54-16-76-56-67-107-132-157-197-83-107-168-217-275-327-295-304-611-518-942-637 17-7 31-18 41-33ZM16848 7486l812 845-46 269-815-814 49-300ZM17451 9726l20-110c17 49 50 90 99 117 91 52 214 43 287-20l401-346 11-10c6-6 22-20 31-29 15 12 42 38 95 91l2918 2885c202 200 444 204 665 13l3708-3219c-55 79-120 151-192 215l-3801 3306c-94 82-242 123-348 20l-2852-2760c-102-98-243-185-376-185-63 0-123 19-178 65l-271 228c-67 56-106 33-119 25-75-44-115-192-98-287ZM16370 6886c-7-66 7-109 8-114 0 0 17 7 44 66 37 80 59 168 68 262-96-58-116-177-120-213ZM16371 6603c-77 10-140 92-161 209-24 139 18 338 218 440 20 10 40 19 61 27-28 313-195 678-452 982-443 526-1080 824-1702 795-21-11-67-100-97-158-50-97-101-197-156-232-79-51-158-103-236-155l-136-90c-129-85-263-173-399-252l-16-10c-87-53-175-100-239-84-23 6-42 19-53 39-500 830-951 1724-1388 2588-297 588-567 1136-824 1675-180 377-384 805-561 1229-67 160 0 302 182 389 224 108 587 101 675-59l574-1055c-12 33-20 68-19 104 0 36 21 105 48 198 8 27 18 60 23 80-21 8-58 16-84 22-89 20-189 43-221 107l-6 11c-37 73-75 149-117 220-52 87-9 201 22 284 6 15 12 33 17 49-106 13-188 31-283 92-22 14-39 21-69 26-151 27-325 53-470 38-68-7-163-34-208-71-228-188-396-736-248-1016l2234-4249c115-218 195-705 54-940-554-925-527-1768 82-2577 371-493 943-635 1357-668 48-4 97-6 147-6 263 0 559 51 834 144 318 109 624 313 909 608 103 106 182 208 266 317 24 31 47 61 72 92-212 23-518 2-694-38-78-227-281-470-566-515-292-46-651 75-770 394-88 235-23 502 171 715 251 273 581 346 930 205 844 212 1582 146 2322-206 318-151 604-350 820-569l-261 1158-157-149c-95-91-247-164-358-71l-657 545c-43-24-83-37-123-49-3-141-31-273-86-393-69-151-145-174-199-168ZM12136 12005l544-1000c7 18 15 36 22 54 32 77 65 157 45 207-17 42-45 78-75 117-34 44-69 90-91 148-16 40-16 86-17 126 0 29-1 63-9 76-22 39-61 49-126 65-77 18-172 40-249 143-11 15-27 37-43 63ZM12023 12296c-3 51 13 104 27 150 12 41 24 83 22 99-9 7-48 12-74 15-75 10-179 23-219 103-7 13-14 26-22 39l309-568c-23 52-40 108-43 162ZM18272 4136c121 159 197 321 226 482-18 51-39 104-64 156h-2c-72-49-138-88-200-121 49-166 62-339 39-516ZM17669 5069s-8 9-12 13c-9-92 11-192 56-265 26-43 74-98 153-114 3 0 8-1 15-1 23 0 67 7 146 39-5 12-11 25-17 37-46-18-89-30-126-36-54-9-107 11-147 55-59 65-87 179-69 273ZM18157 4848c6-12 12-24 17-37 58 31 120 67 183 107-7 13-15 25-23 38-61-41-121-77-177-108ZM18079 4989c51 28 107 62 164 100-177 237-424 466-698 647-596 393-1579 553-2392 391-244-49-485-157-689-257l-13-6c-76-37-148-72-214-122 0-4 8-22 42-51 60-50 136-79 148-80 18 15 35 27 54 39 753 530 1815 550 2772 53 366-190 651-437 827-714ZM14135 5867c79 63 161 103 257 149 213 104 466 218 729 270 851 170 1885 0 2514-415 291-192 553-435 741-688 9 7 18 14 27 21-49 95-115 192-196 286-215 250-554 504-883 661-710 338-1421 398-2238 189-7-2-14-3-21-3-11 0-21 2-32 7-300 129-560 77-772-155-102-112-159-241-166-367 10 15 23 30 41 45ZM17859 4902c21 3 44 10 70 19-29 44-61 88-97 131-16-45 9-141 27-149ZM14431 5454c-32 0-69 7-108 22-65 24-135 70-185 125 103-208 361-284 575-250 235 37 397 256 449 443 0 3 2 6 3 8-213-64-413-160-594-287-15-10-28-18-41-29-26-22-60-33-99-33ZM17528 3397c-472-198-1031-289-1490-230-353 45-737 187-1140 422-54 31-108 64-162 99 197-155 444-295 702-397 292-115 643-178 970-178 110 0 217 7 319 21 311 44 579 133 801 264ZM18642 5192c-14-12-29-25-44-38 7-18 13-36 19-54 33 26 62 51 86 73-21 5-42 12-62 19ZM22384 8920l-599-576 764-635 596 558-762 652ZM23349 8261l8 7-8 6s0-2 0-3c0-4 0-7 0-11ZM21633 8260c6-25 0-53-17-73l-560-641 700-578 674 630-797 662ZM21587 8367c-28-17-64-17-92 4l-749 559-619-619 697-574 677 566c24 20 57 24 84 12-2 7-4 15-4 23 0 10 1 20 4 29ZM21599 8495c23-22 31-54 22-82l703 676c14 13 31 21 48 22l-779 667-660-661 665-622ZM25870 8724l-3998 3470c-155 134-304 132-444-5l-2909-2876c-18-17-33-33-47-48-63-64-106-106-160-106-42 0-91 25-160 85l-400 345c-23 17-71 23-103 3-24-15-33-42-27-80l204-1194c4-26-4-51-22-70l-889-924s-5-5-7-8l630-523c23-19 94 18 142 64l260 248c21 21 51 28 80 19 28-9 49-31 56-60l313-1392c63-137 133-228 221-284 20 20 38 39 53 56 112 131 191 275 263 412l13 26c44 88 112 221 212 227 23 2 47-4 69-16 189-99 7-483-114-737l-9-19 3751-327 204 173-178 145c-22 18-33 46-29 74l39 287c3 19 11 36 25 49l1636 1510-1068 914-766-709c-30-28-76-29-107-3l-52 43-741-693c-30-28-76-29-107-3l-820 677c-17 14-27 34-29 56 0 10 0 19 2 28-28-14-63-11-88 10l-818 674c-18 15-29 35-29 59-1 23 7 45 24 62l732 731c15 15 35 23 55 24 0 21 9 39 24 54l773 774c30 30 78 32 110 4l1834-1571 57 53c30 28 75 29 107 3l1143-940 1065 1031c17 20 19 31 21 50 3 19 6 42 24 70 13 20 26 39 42 57-23-4-46 3-65 19ZM6186 10702c125-18 211-45 264-82l4930-3490s13-9 34 2c180 95 477 942 486 1099-72 129-291 444-384 517-19 8-99-23-162-62-16-10-29-24-44-40-30-32-67-71-133-76-107-8-180 75-240 141-22 24-42 47-62 62-32 3-111-11-180-21-181-27-263-36-297-15l-366 219c-35 21-47 82-68 208-15 86-42 245-78 265-64 34-115 78-165 121-33 29-65 56-100 80-31 22-61 45-92 68-25 20-51 39-77 58-52 37-161 39-256 40-97 1-180 3-232 35-36 22-70 53-103 83-32 29-62 56-91 74-46 28-64 109-84 196-8 37-17 78-27 100-24 2-67-6-105-13-99-19-221-42-293 34l-219 231c-37 39-42 94-48 143-3 25-7 62-15 70-16 11-95 9-147 8-89-2-182-5-235 25-8 4-198 108-240 186-38 71-42 161-44 226 0 13 0 28-2 39-3 0-7 0-11 0-232 0-1085-253-1111-367-5-24-6-84-3-163ZM18949 5395c4 7 7 12 8 16 44 92 77 168 106 241 32 82 63 181 74 245-16-25-37-62-65-116-93-177-173-312-283-442-4-5-8-10-13-15 24-5 50-8 76-10 20-1 38-9 53-22 7 33 25 68 44 102ZM13758 8770Z"></path></svg>