<svg xmlns="http://www.w3.org/2000/svg" viewBox="0 0 32600 16700"><path stroke-width="0" fill="#69a6c2" d="M31169 8713c-639-160-1283-247-1915-260-191-374-484-741-896-1120-566-521-1293-1006-1996-1477-508-340-1034-691-1498-1054-548-429-1020-932-1478-1419-967-1029-1801-1917-2868-1507-849 326-2094 1771-2470 2318-121 176-212 358-270 543-390-359-690-527-938-527-263 0-564 341-980 813-327 371-698 791-1102 1090-933 689-1623 1094-2080 1363-526 309-723 425-663 612c86 267 554 312 931 348h1c-382 72-897-61-1297-233-371-159-748-479-1113-789-222-188-431-366-639-510-378-261-679-417-921-335-175 60-305 239-407 562-249 786-750 1116-1027 1242-170 78-574 191-966 301-912 256-1058 307-1046 436c10 100 127 109 177 113c154 12 355-17 611-54c535-77 1344-194 2366 7c263 52 475 96 683 140c413 87 770 162 1347 253c1201 189 1908 212 4840-1324c962-504 3037 126 4188 546c1320 482 2523 1077 3046 1409-66-12-138-25-213-39-735-137-2104-391-3282-267-196 21-826 117-1145 282-6 3-12 6-19 10-36 21-54 63-45 102-9-10-18-19-28-29-249-257-593-354-902-253-271 88-480 330-638 736-130-299-245-496-523-636-317-159-795 5-983 337-1 3-3 5-4 8-75-43-149-80-216-109-121-85-245-150-370-193-105-36-308-92-483-60-433 78-1063 626-1153 1131-9 49 22 96 71 108c48 11 97-17 111-65c113-383 555-764 846-825c45-9 218 28 279 97c94 105 270 370 395 960v1c-434-97-1051-205-1594-107-174-121-521-261-900-361-336-214-856-461-1434-434-659 30-1247 400-1747 1100-636 890-977 1772-912 1893c8 16 21 29 37 38-323-2-649 5-976 18-2178 88-4148 478-5546 1099-47 21-68 76-47 124c15 34 49 55 85 55c13 0 25-3 38-8c3107-1380 8191-1302 10469-638c47 14 99-12 115-60c205-620 920-1119 1350-1302c43-18 66-64 54-110-106-404-570-941-744-1143-55-63-150-166-284-286c162 64 289 130 363 189c22 17 49 24 76 18c535-108 1169 9 1600 107c182 41 267-40 336-105c46-43 85-81 161-103c217-64 414-51 584 37c38 19 84 11 113-21c28-32 31-79 7-114l-7-11c-104-153-215-318-338-477c71 54 137 108 195 161c26 23 63 30 96 18c7-3 14-6 20-11c23 19 54 27 83 20c335-83 496-115 819-5c126 43 258 14 411-19c29-6 60-13 92-20c198-40 595-6 669 103c24 34 65 48 104 36c15-5 28-12 38-23c18 8 39 11 60 6c457-103 761-125 1202-84c31 3 61-10 80-34c20-24 26-56 17-86-74-242-258-505-393-630-56-52-119-95-186-128c248-62 515-104 661-119c1151-121 2502 130 3228 265c526 98 594 110 640 23c17-33 20-83-24-127-252-252-1717-1028-3351-1626-1442-527-3364-1047-4339-537-2879 1509-3564 1488-4724 1305-573-90-928-165-1338-251-207-44-420-88-685-140-1052-207-1880-88-2428-9-83 12-159 23-230 32c177-54 388-113 565-163c398-112 810-227 993-311c305-139 857-501 1127-1356c82-258 177-403 289-442c178-60 467 114 754 312c201 139 407 313 625 499c375 318 763 648 1160 818c528 226 1248 384 1686 149c86-46 95-102 87-140-20-99-120-108-387-134-252-24-721-68-769-216c8-61 285-224 579-396c460-270 1155-679 2096-1374c420-310 798-738 1132-1117c340-385 661-749 839-749c212 0 503 179 887 547-69 381 0 761 205 1132l8 14c351 646 1633 1344 1933 1344h13c88-5 119-59 129-82c37-91-38-190-124-283-299-324-589-659-873-987-387-447-753-870-1086-1198c49-198 140-395 270-584c367-533 1573-1938 2384-2250c950-365 1744 481 2665 1461c462 491 939 999 1498 1437c469 368 998 721 1509 1063c1114 744 2265 1513 2783 2440-1596 10-2978 486-4121 952-294 120-377 159-346 259c33 108 62 101 819-57c1069-225 3059-643 3969-395c31 8 64 0 88-21c24-22 34-54 29-86-28-154-74-308-137-460c589 19 1188 103 1782 251c24 6 49 3 71-10c22-13 37-33 43-58c6-24 2-49-11-71-13-21-33-37-58-42m-16805 1874c4 11 8 21 11 31-45-79-93-148-143-204-62-70-162-115-254-139c132-21 296 24 383 54c5 2 11 4 16 6-38 44-61 121-13 252m-5399 1220c465-651 1005-995 1603-1022c258-12 526 34 799 138-158-8-300 8-377 72-38 32-117 123-30 287c223 414 399 796 536 1166-52-101-109-201-169-295-345-539-761-812-1237-812-76 0-155 7-234 21-407 73-821 431-1175 871c83-135 178-277 284-425m2963 2268c-1000-278-2402-436-3896-446c32-19 48-54 57-73c408-912 1158-1896 1800-2011c500-90 919 142 1281 708c306 478 508 1090 689 1676c14 45 58 73 104 65-12 27-24 54-35 81m665-2290c154 178 551 639 681 994-359 170-932 549-1238 1075-118-898-392-1697-911-2662-21-39-18-52-15-54c24-20 83-32 171-32c142 0 362 30 639 101c359 233 590 482 673 578m2789-518c-141-21-292-8-449 38-119 35-187 99-237 147-9 8-17 16-24 23c18-439-30-666-133-951-11-31-15-52-16-64c21 1 69 4 174 48c266 192 485 473 684 759m161-449c-107-85-239-180-373-266c111-77 231-154 313-100c76 49 79 220 60 366m184 42c2-17 4-34 7-54c28-253-24-430-148-511-19-12-38-22-58-30c136-43 277-43 383 10c188 94 280 212 384 431-218-32-426 43-568 153m1295-1c-33 7-64 13-94 20-116 25-204 44-276 33c0 0 0-1 1-2c25-42 49-82 71-120l7-12c128-220 205-353 419-445c57-25 117-16 182 28c150 100 282 346 344 539-212-73-511-70-653-41m919 85l-10 7-42 27c-46-247-224-621-452-772-29-20-59-35-89-47c204-20 412 63 577 233c111 114 182 216 261 326c18 25 36 50 54 76-113 32-194 84-297 150m769-477c92 85 212 246 290 416-181-12-344-11-508 2c8-29 3-60-16-84-53-68-97-129-143-194-59-83-115-163-189-248c24 8 52 7 76-6l12-6c131-65 332-14 478 121m166-4262c282 326 575 664 877 991c12 13 23 26 32 36-376-107-1403-719-1682-1231l-8-15c-159-288-227-582-202-876c303 309 634 692 983 1095m6533 3206c1052-404 2285-772 3681-772h46c54 118 96 238 127 357-982-181-2816 197-3854 415"/></svg>