<?xml version="1.0" encoding="UTF-8"?>
<svg id="Layer_1" data-name="Layer 1" xmlns="http://www.w3.org/2000/svg" viewBox="0 0 326 167">
  <defs>
    <style>
      .cls-1 {
        fill: none;
      }

      .cls-1, .cls-2 {
        stroke-width: 0px;
      }

      .cls-2 {
        fill: #69a6c2;
      }
    </style>
  </defs>
  <path class="cls-1" d="M177.21,65.03c2.33-.49,6.73-4.7,8.38-6.28l.41-.4c.17-.16.38-.3.62-.42-.64-1-.56-2.42.11-5.39.08-.34.13-.7.19-1.06.15-.92.31-1.88.73-2.73l.09-.15c.39-.56,1.18-.91,2.01-1.27.6-.26,1.34-.59,1.54-.87.65-.93,1.19-2.77.9-4.34-.15-.82-.5-1.41-1.04-1.77-.55-.36-1.29-.37-1.73-.03l-.92-1.18s0,0,0,0c.36-.28.69-1.68.84-2.35.08-.35.16-.66.23-.89.37-1.19.98-2,1.64-2.86l.27-.36c1.07-1.44,1.48-3.52,1.1-5.58-.35-1.9-1.34-3.49-2.72-4.36-.8-.51-1.39-1.07-2.01-1.66-.26-.25-.53-.5-.83-.76-1.2-1.05-2.27-1.23-4.11-.69-.5.15-.99.35-1.5.56-.81.33-1.65.68-2.58.82-2.02.31-3.9-.41-5.72-1.1-.99-.38-1.92-.73-2.87-.94-1.9-.41-3.94-.16-5.73.7-.88.42-1.31,1.07-1.82,1.83-.52.77-1.1,1.64-2.21,2.29l-.24.14c-1.05.61-2.13,1.24-2.38,2.2-.17.64.04,1.38.27,2.15.11.4.23.79.3,1.19.24,1.3.06,2.58-.11,3.81-.09.66-.18,1.28-.21,1.9-.05,1.27.31,2.74,1.21,3.45.38-1.04,1.03-1.85,1.92-2.41,1.74-1.08,4.43-1.15,7.98-.21l1.01.28c3.23.89,6.28,1.74,9.09-.2.4-.28.78-.59,1.16-.91.4-.33.8-.66,1.22-.96,1.14-.79,2.25-1.16,3.29-1.1,1.51.09,2.63.84,3.16,2.11.85,2.04-.03,5.05-1.38,6.57-2.14,2.41-5.9,3.45-9.56,2.66-1.91-.41-3.79-1.43-5.62-2.41-2.78-1.5-5.41-2.9-8.12-2.43-.51.09-1.01.43-1.54.78-.37.25-.75.51-1.18.71-1.14.53-1.89.13-2.45-.16-.29-.15-.52-.27-.81-.29h-.03c-.35,0-.72.39-.92.79-.75,1.43-.55,4.42.38,5.71.18.25.91.55,1.43.76.63.26,1.23.5,1.63.87.81.74.93,1.62,1.04,2.39.04.33.09.64.18.92,1.12,3.52,3.23,6.46,6.84,9.53,2.99,2.54,5.69,4.09,9.15,3.37Z"/>
  <path class="cls-1" d="M163.22,38.18c.45-.08.9-.12,1.34-.12,2.71,0,5.27,1.37,7.75,2.7,1.81.97,3.52,1.89,5.23,2.26,3.15.68,6.34-.18,8.13-2.19,1.03-1.16,1.72-3.54,1.12-5-.31-.74-.92-1.13-1.86-1.18-.69-.04-1.49.24-2.34.83-.39.27-.76.58-1.13.88-.4.33-.82.67-1.26.98-3.38,2.34-6.92,1.36-10.34.41l-1-.27c-3.13-.83-5.42-.83-6.8.03-.69.43-1.16,1.08-1.41,1.97.15-.09.3-.2.46-.3.61-.41,1.29-.87,2.12-1.02Z"/>
  <path class="cls-1" d="M265.91,51.56c-1.75,2.14-3.05,4.59-1.68,6.73.17.26.33.53.5.8.07,0,.14,0,.21,0,1.34,0,2.37,1.05,3.2,2.03-1.43-1.86-2.28-4.24-2.34-6.64,0-.43.06-.87.12-1.29.11-.74.18-1.26-.01-1.63Z"/>
  <path class="cls-1" d="M263.23,49.58c-.91-1.54.71-3.55,1.74-4.24.46-.31,1.08-.5,1.67-.47-.54-1.65-.18-3.45.15-5.08.17-.86.33-1.67.36-2.41.12-2.83.07-6.5-1.27-9.8-1.73-4.23-5.63-7.71-10.43-9.32-4.31-1.45-9.3-1.47-14.42-.08-6.61,1.8-10.71,4.25-12.24,7.3h.03c1.88,0,3.29,1.42,3.75,1.94.96,1.1,1.66,2.43,2.34,3.72.27.51.54,1.02.81,1.5.7,1.21,1.3,2.49,1.88,3.74.71,1.51,1.44,3.06,2.32,4.45,1.46,2.28,3.7,4.32,5.87,6.21,4.3,3.75,9.34,6.69,14.59,8.51l1.79.62c.08-2.04,1.32-4,2.47-5.44-.5-.24-1.05-.56-1.41-1.16Z"/>
  <path class="cls-1" d="M249.99,128.93c2.04-.46,4.36-.98,6.64-.56.97.18,1.7.52,2.41.84.29.13.58.27.91.4.32.13.65.12.83-.02.1-.08.13-.26.11-.3l-1.84-1.83,2.54.57c.45.1.88.16,1.26.18-2.43-2.33-4.47-4.9-3.11-8.8.48-1.38.96-2.77,1.43-4.15.46-1.35.92-2.69,1.39-4.04,2.37-6.78,4.29-11.92,6.23-16.66,1.17-2.87,2.39-5.65,4.3-8.04,2.22-2.77,5.04-4.47,7.95-4.8,4.31-.49,7.72,1.81,9.35,6.3.18.5.33,1.01.47,1.52-.39-3.86-1.83-7.17-4.34-10.03-.63-.71-3.64-3.25-6.82-5.93-4.86-4.09-10.36-8.72-12.03-10.69l-.35-.42c-.61-.74-1.1-1.28-1.56-1.59.33.59.64,1.19.96,1.78l.42.79c.23.43.58,1.09.47,1.83-.14.96-.94,1.54-1.46,1.92-2.49,1.78-4.9,3.92-7.18,6.33-.52.55-1.01,1.12-1.51,1.68-.74.84-1.5,1.71-2.32,2.51-.17.17-.36.37-.57.58-1.03,1.07-2.31,2.4-3.72,2.59l-.64.08-.18-.62c-.11-.39-.17-.81-.22-1.22-.02-.13-.04-.27-.06-.4-.24,2.36-.65,4.46-1.88,6.81-2,3.81-4.75,9.03-5.16,13.88-.36,4.24.53,10.02,3.35,12.7,0,0,0,0,0,0l-1.03,1.09c-2.1-1.99-3.73-4.44-4.77-7.11l-.31,2.37c-.5,3.76-1.37,11.12-2.07,17.04-.28,2.4-.55,4.6-.75,6.32l.57-.13,12.3-2.77Z"/>
  <path class="cls-1" d="M249.94,75.96c.05.1.28.38.42.55.27.32.5.6.61.88.19.48.26,1.02.33,1.54,0,.07.02.14.03.21.74-.41,1.54-1.25,2.16-1.89.21-.22.42-.43.6-.61.78-.76,1.52-1.61,2.24-2.43.51-.58,1.02-1.16,1.55-1.73,2.34-2.49,4.83-4.68,7.4-6.52.32-.23.81-.58.86-.91.03-.23-.12-.55-.31-.91l-.42-.79c-.44-.82-.88-1.66-1.35-2.48-.79.47-1.46,1.17-2.16,1.91l-.19.2c-2.44,2.57-5.13,4.93-8,7.03-.31.22-.6.42-.88.61-.91.61-1.56,1.05-2.07,2-.6,1.09-1.03,2.28-1.4,3.48l.62.05c0-.13-.03-.21-.03-.21Z"/>
  <path class="cls-1" d="M240.88,101.35l-.14,1.07c.16.83.38,1.64.66,2.43-.28-1.92-.33-3.87-.19-5.57.44-5.15,3.27-10.53,5.33-14.45.63-1.19,1.02-2.31,1.29-3.46-.28.85-.61,1.68-1.01,2.48-.65,1.3-1.42,2.61-2.16,3.88-2.13,3.64-4.33,7.41-4.25,11.55.02.91.1,1.81.26,2.7l.22-.63Z"/>
  <path class="cls-1" d="M191.3,61.35c-1.08-.87-1.98-1.4-2.7-1.82-.26-.15-.5-.3-.72-.44-.36.07-.67.19-.84.35l-.41.39c-3.15,3.01-6.69,6.16-9.11,6.67-.79.16-1.54.22-2.26.2l-.04,1.47c-.16,5.85-.02,10.34.62,17.57.32-6.96-.01-16.13-.26-17.51h0s1.48-.27,1.48-.27c-.02-.08-.04-.13-.04-.13.05.08.27.33.46.53.85.94,2.38,2.62,3.25,5.22,2.27-1.55,9.92-9.18,11.47-11.2.05-.07.21-.28.22-.35-.04-.04-.31-.19-.47-.28-.22-.13-.44-.26-.63-.41Z"/>
  <path class="cls-1" d="M226.06,136.78c-.39,0-.82.02-1.28.04-.4.02-.8.04-1.2.05-2.1.03-2.11.36-2.14,2.87v.46c-.04,2.2.08,4.42,1.26,5.8,1.29,1.5,1.69,1.68,3.52,1.53.48-.04.95-.16,1.45-.29.56-.15,1.16-.3,1.79-.33-.1-1.14.07-2.32.23-3.46.25-1.79.48-3.48-.26-4.91-.76-1.46-1.79-1.76-3.39-1.76Z"/>
  <path class="cls-1" d="M241.78,50.46c-.63-.55-1.29-1.12-1.88-1.79-2.01-2.25-3.66-4.77-4.92-7.51-.65-1.41-1.14-2.97-1.62-4.48-.78-2.45-1.58-4.98-3.05-6.88-.48-.62-.99-.96-1.42-.97-.36,0-.7.2-1.05.62-1.72,2.04-1.5,4.8-1.23,6.26.21,1.11.62,2.29,1.05,3.54,1,2.88,2.14,6.16.79,9.2-.19.42-.36.84-.53,1.26-.29.72-.6,1.46-.97,2.19-.07.14-.15.28-.23.42-.29.51-.42.77-.32,1.12.11.35.45.65.82.71.17.03.38.01.6,0,.15,0,.3-.02.47-.02.13,0,.27,0,.41.03,1.6.21,2.23,2.02,2.65,3.22.07.21.14.4.21.57.55,1.37,1.22,2.98,2.05,4.55.09.16.17.34.26.51.45.89.96,1.91,1.75,2.16,1.72.55,3.6-.53,5.26-1.48l.55-.31c.67-.38,1.5-.84,2.33-1.39,0-.53.07-1.1.2-1.73.1-.49.23-.97.35-1.46.39-1.51.76-2.94.46-4.31-.39-1.75-1.65-2.85-2.99-4.01Z"/>
  <path class="cls-1" d="M284.01,73.97c-.48-.43-.95-.86-1.4-1.3-.62-.61-1.22-1.26-1.79-1.88-1.27-1.39-2.47-2.7-3.99-3.63-.74-.45-1.51-.88-2.29-1.31-1.78-.98-3.61-1.99-5.14-3.37-.25-.23-.49-.47-.72-.72l.13.15c1.58,1.87,7.28,6.66,11.85,10.51,3.51,2.96,6.28,5.29,6.98,6.09.07.08.13.15.2.23l-.03-.08c-.66-1.86-2.18-3.23-3.8-4.69Z"/>
  <path class="cls-1" d="M266.92,50.4c.81.9.63,2.07.49,3.01-.06.37-.11.73-.1,1.03.06,2.63,1.22,5.22,3.1,6.92,1.4,1.27,3.16,2.23,4.86,3.17.8.44,1.59.88,2.35,1.34,1.7,1.04,3.03,2.5,4.31,3.9.56.61,1.14,1.25,1.73,1.82.44.43.9.84,1.36,1.26,1.17,1.06,2.37,2.14,3.26,3.45.74-3.32,1.25-8.07-.45-11.84-.89-1.97-2.61-3.49-4.7-4.17-2.31-.74-4.17-2.34-4.99-4.26-.39-.93-.51-1.91-.62-2.86-.11-.95-.22-1.85-.59-2.63-.57-1.16-1.8-2.08-3.39-2.51-.62-.17-1.29-.19-2.01-.21-.92-.03-1.92-.06-2.81-.46-.02.29-.08.56-.17.81-.3.8-.86,1.41-1.36,1.95-.09.09-.17.19-.26.28Z"/>
  <path class="cls-1" d="M266.5,46.37c-.23,0-.49.07-.7.22-.68.46-1.57,1.73-1.28,2.23.18.3.56.47,1,.67.04.02.09.04.14.06.16-.17.3-.32.42-.46.42-.45.86-.92,1.05-1.44.14-.37.13-.88-.14-1.12-.12-.11-.29-.16-.49-.16Z"/>
  <path class="cls-1" d="M290.11,95.29c-.12-2.25-.34-4.62-1.13-6.77-1.39-3.84-4.15-5.72-7.77-5.32-2.51.28-4.98,1.79-6.95,4.25-1.79,2.24-2.95,4.91-4.08,7.67-1.93,4.72-3.84,9.84-6.2,16.59-.47,1.34-.93,2.68-1.39,4.03-.47,1.39-.95,2.78-1.43,4.16-1.24,3.55,1.1,5.72,3.82,8.24l.79.73-.96.49c-.71.36-1.61.4-2.43.32-.08.45-.33.85-.68,1.12-.6.46-1.49.53-2.29.21-.35-.14-.67-.29-.98-.43-.68-.31-1.27-.58-2.05-.73-1.98-.36-4.14.12-6.04.55l-12.31,2.77c-.53.12-1.05.23-1.58.37l-1.06.27.13-1.09c.22-1.82.53-4.46.88-7.39.02-.2.05-.4.07-.6-1.38,6.16-2.43,9.16-3.7,9.68-.04.01-.12.04-.23.08-.42.14-.7.25-.88.33,1.59,1.99,2.46,4.88,2.28,7.7-.12,1.98-.75,3.75-1.79,5.12,1.76.72,3.58,1.46,5.45,1.69,2.81.35,5.73.24,8.56.14,1.83-.07,3.73-.13,5.6-.08,5.03.14,10.37.25,15.6-.12,2.61-.18,5.88-1.51,6.89-4,1.11-2.72,2.05-5.6,2.97-8.38.47-1.42.93-2.83,1.42-4.23l8.66-24.89c1.07-3.07,2.17-6.23,2.88-9.44,0-1.36-.03-2.4-.07-3.02Z"/>
  <path class="cls-2" d="M288.29,153.19c2.63-13.33,3.43-43.8,3.38-54.7.15-.68.28-1.36.39-2.05,1.05-6.46-.03-11.98-3.22-16.42l.4-1.41c1.16-4.11,2.1-10.01-.05-14.76-1.07-2.36-3.11-4.17-5.61-4.97-1.46-.47-3.3-1.62-4.06-3.42-.31-.74-.41-1.57-.51-2.45-.12-1.03-.25-2.1-.74-3.11-.75-1.55-2.34-2.75-4.35-3.3-.79-.22-1.59-.24-2.36-.26-1.47-.04-2.4-.12-3.04-1-1.03-1.44-.66-3.28-.27-5.24.18-.88.36-1.79.39-2.65.12-2.98.07-6.86-1.38-10.43-1.89-4.63-6.13-8.43-11.34-10.18-4.6-1.54-9.88-1.58-15.29-.1-8.11,2.21-12.61,5.33-13.75,9.54l-.39,1.46,1.4-.57c1.65-.67,3.03.64,3.54,1.23.84.97,1.5,2.22,2.14,3.44.28.53.55,1.06.84,1.55.67,1.15,1.25,2.41,1.83,3.62.73,1.55,1.48,3.15,2.42,4.62,1.57,2.44,3.9,4.57,6.15,6.53,3.56,3.1,7.61,5.67,11.87,7.54-3.53-.37-6.64-2.33-8.18-3.3-.94-.59-1.25-.79-1.67-.7l-.33.09-.17.26c-.24.38-.23.84.03,1.36.14.29.29.57.45.85.33.61.65,1.19.79,1.8.42,1.82-.71,3.4-2.21,4.68.01-.07.03-.13.04-.2.1-.46.22-.93.34-1.4.42-1.62.85-3.29.47-5.01-.49-2.23-2.01-3.55-3.47-4.82-.6-.52-1.22-1.06-1.75-1.66-1.91-2.13-3.48-4.54-4.68-7.14-.61-1.33-1.07-2.77-1.55-4.3-.82-2.57-1.66-5.23-3.29-7.34-.77-1-1.67-1.54-2.58-1.55-.59-.05-1.41.18-2.23,1.16-2.11,2.52-1.88,5.78-1.55,7.5.23,1.22.66,2.45,1.11,3.75.96,2.75,1.94,5.6.83,8.09-.19.43-.37.87-.55,1.3-.29.72-.57,1.4-.91,2.07-.06.12-.13.24-.2.36-.33.58-.75,1.31-.45,2.3.28.91,1.09,1.61,2.02,1.75.33.05.65.03.93.01.21-.01.41-.03.58,0,.69.09,1.14,1.38,1.44,2.23.08.23.16.45.23.63.56,1.41,1.25,3.06,2.12,4.69.08.15.16.32.25.48.55,1.1,1.24,2.47,2.63,2.92,2.35.75,4.63-.56,6.46-1.61l.54-.31c.53-.3,1.16-.65,1.8-1.05.28,1,.82,1.89,1.56,2.89.83,1.11,2.68,3.92,1.95,5.95-.11.31-.35.6-.61.91-.98,1.19-1.81,2.34-2.68,3.62-.23-.78-.28-1.67-.24-2.41l2.85-2.62s0,0,0,0l-1.02-1.1h0c-.37.35-.88.62-1.43.91-.61.32-1.24.66-1.78,1.15-1.12,1.01-.95,2.41-.81,3.54.04.3.07.6.08.88.05,1.76-.17,2.79-1,4.57-1.76,3.8-7.65,22.4-11.26,36.22-.11.41-.2.83-.3,1.27-.28,1.23-.56,2.51-1.15,3.53-.83,1.45-1.52,1.54-3.03,1.75-.34.05-.71.1-1.11.17-.61.11-1.34.21-1.6.02-.32-.23-.49-1.22-.63-2.26-.4-3.01-.77-6.09-1.09-9.15-.03-.25-.05-.73-.07-1.35-.24-5.38-.64-8.65-2.02-9.5-.42-.26-.91-.28-1.39-.06l-.4.18-.04.44c-.35,4.1-.2,8.35-.06,12.46.06,1.67.12,3.34.14,4.99l.02,1.51c.33,21.42.42,28.97.43,31.09h-77.53l-.94-.63v-47.5c-.02-.64-.02-1.28-.01-1.92,0-.41,0-.81,0-1.22h68.73c7.03,0,14.2-.46,14.28-3.86.05-2-.18-4.23-.4-6.39-.14-1.39-.27-2.7-.34-3.93v-.2c-.22-4.15-.48-9.32-3.87-12.13l-.37-.31-.44.22c-4.68,2.31-8.27,7.27-9.84,13.61-.37,1.49-.58,3.14-.64,5.04-.01.43.06,1.01.14,1.61.1.78.25,1.95.08,2.33-.16.37-.31.49-.35.49h0c-.23-.02-.82-.63-1.02-1.45-.75-2.98.09-6.97.79-9.71,1.24-4.86,4.64-10.63,10.45-12.25l.99-.27-.56-.86c-3.79-5.8-9.06-8.15-15.17-10.88-.62-.28-1.24-.55-1.87-.84-.9-.41-1.8-.8-2.69-1.19-2.23-.98-4.33-1.9-6.47-3.03-.55-.29-1.26-.4-1.96-.38-.81-.69-.77-1.54-.07-4.67.08-.37.15-.75.21-1.15.13-.81.27-1.66.56-2.25.15-.22.9-.55,1.39-.76.85-.37,1.73-.75,2.17-1.38,1.01-1.44,1.48-3.69,1.14-5.48-.23-1.21-.81-2.16-1.68-2.74-.48-.32-1.02-.49-1.56-.53.14-.43.26-.92.38-1.44.07-.31.14-.58.2-.79.29-.94.78-1.58,1.4-2.4l.27-.36c1.32-1.76,1.83-4.29,1.37-6.75-.43-2.31-1.66-4.27-3.39-5.36-.68-.43-1.19-.92-1.78-1.48-.28-.26-.56-.53-.87-.8-1.59-1.4-3.19-1.69-5.53-1-.57.17-1.12.4-1.65.61-.76.32-1.49.61-2.23.73-1.63.25-3.24-.37-4.95-1.02-1-.38-2.02-.77-3.09-1-2.23-.48-4.6-.18-6.69.82-1.24.6-1.87,1.52-2.42,2.34-.47.7-.91,1.36-1.72,1.84l-.23.14c-1.25.73-2.66,1.55-3.08,3.11-.28,1.05.02,2.06.28,2.96.1.35.2.7.27,1.04.2,1.06.04,2.16-.12,3.33-.09.67-.19,1.35-.22,2.05-.06,1.43.29,2.99,1.15,4.07-.06,0-.12-.01-.18-.02-1.08-.05-1.95.78-2.38,1.59-1.02,1.93-.77,5.54.5,7.29.43.6,1.27.94,2.08,1.27.46.19.99.41,1.19.59.39.35.46.77.56,1.48.05.36.1.76.23,1.17,1.21,3.8,3.46,6.95,7.3,10.22,2.31,1.96,4.86,3.73,8,3.89l-1.09.87c-1.86,1.47-3.28,4.33-4.04,5.87-.06.13-.13.26-.19.38-3.8-2.35-7.03-5.67-10.16-8.87l-.65-.67c-.63-.65-.64-1.16-.04-1.83.38-.43,3-2.13,3.49-2.28l-.39-1.45c-1.84.5-4.34,1.47-6.35,2.25l-1.35.52c-1.1.42-2.1.79-3.02,1.13-4.79,1.78-7.68,2.85-12.84,5.97-4.93,2.98-7.17,6.31-6.48,9.65.44,2.13,2.18,3.83,3.72,5.33.44.43.86.84,1.24,1.25,2.32,2.52,4.38,4.82,6.11,7.55.91,1.43,1.96,4.47,1.06,5.04-.11.07-.17.09-.18.1-.32-.2-.63-1.65-.78-2.35-.25-1.18-.42-1.92-.83-2.37-1.83-2.03-3.52-3.99-5.15-5.88-1.65-1.9-3.35-3.87-5.19-5.92,0,0,0,0,0,0s0,0,0,0h0l-1.11,1c-.15-.17-.18-.36-.18-.44-.03.59-1.28,4.8-2.28,8.19-1.08,3.67-2.21,7.46-2.47,8.84-.29,1.52-.73,3.15-1.19,4.88-1.29,4.8-2.74,10.25-1.32,14.77.7,2.23,2.13,4.16,3.39,5.86,1.63,2.21,8.26,11.7,8.71,13.17v16s-76.29.38-76.29.38v1.5s77.78-.39,77.78-.39v-17.45s-.03,0-.03,0c-.31-2.4-8.87-13.99-8.96-14.11-1.25-1.69-2.54-3.43-3.16-5.42-1.29-4.11.11-9.33,1.34-13.93.47-1.76.92-3.42,1.22-4.99.25-1.31,1.36-5.07,2.44-8.7,1.08-3.65,1.7-5.78,2.03-7.05,1.46,1.64,2.83,3.23,4.17,4.78,1.64,1.9,3.34,3.86,5.17,5.9.16.19.35,1.09.48,1.68.31,1.47.64,2.99,1.67,3.43.34.14.88.22,1.56-.22,2.3-1.48.11-5.98-.61-7.11-1.8-2.83-3.91-5.19-6.28-7.76-.39-.42-.84-.86-1.29-1.31-1.45-1.42-2.95-2.88-3.3-4.56-.69-3.35,2.76-6.23,5.79-8.06,5.04-3.05,7.88-4.1,12.58-5.85.93-.35,1.93-.72,3.03-1.14l1.36-.52c.4-.15.82-.32,1.25-.48-.76,1.14-.62,2.37.43,3.44l.65.67c3.3,3.38,6.72,6.88,10.85,9.35.13.08.37.22.7.2.51-.03.66-.33,1.21-1.44.51-1.03,1.35-2.71,2.37-4.04-.11,6.64.23,12.01,1.36,22.79l.4,3.82,1.07-3.69c1.21-4.2,1.06-16.99.76-22.56.8.99,1.72,2.4,2.23,4.27.09.32.34.56.67.63,1.86.37,12.51-11.1,13.22-12.02.19-.24.5-.65.52-1.19.02-.37-.09-.65-.26-.89.83.37,1.66.74,2.47,1.09.88.39,1.77.78,2.67,1.19.63.29,1.26.57,1.88.84,5.59,2.5,10.46,4.67,13.97,9.51-5.83,2.13-9.24,8.02-10.52,13.01-.74,2.9-1.63,7.14-.79,10.45.3,1.18,1.23,2.49,2.36,2.58.44.03,1.29-.1,1.84-1.39.33-.76.18-1.96.03-3.12-.07-.54-.13-1.06-.12-1.38.05-1.79.25-3.34.59-4.72,1.42-5.7,4.54-10.18,8.6-12.4,2.54,2.47,2.76,6.84,2.96,10.72v.2c.07,1.27.22,2.66.35,4.01.21,2.11.44,4.29.39,6.2-.02.9-1.71,2.4-12.79,2.4h-70.25l.02.77c.02.65.02,1.29.01,1.94,0,.66,0,1.31.01,1.95v48.28l1.99,1.33h79.04l.22-.22q.29-.3-.21-32.39l-.02-1.51c-.03-1.66-.08-3.33-.14-5.02-.13-3.68-.26-7.47-.03-11.14.36.89.73,3.02.93,7.73.03.66.05,1.17.08,1.45.33,3.08.7,6.17,1.1,9.19.23,1.74.49,2.72,1.24,3.27.68.5,1.56.46,2.75.25.38-.07.72-.12,1.05-.16,1.57-.21,2.92-.4,4.12-2.49.7-1.22,1.02-2.67,1.31-3.95.09-.42.18-.83.29-1.21,3.53-13.5,9.47-32.3,11.17-35.97.69-1.49,1.02-2.55,1.11-3.82.05.08.1.16.16.23l.63.86.59-.88c1.14-1.7,2.11-3.12,3.31-4.57.31-.38.67-.81.87-1.36.95-2.62-.95-5.73-2.16-7.36-.78-1.05-1.27-1.88-1.43-2.88,2.31-1.66,4.44-3.97,3.75-6.99-.13-.58-.37-1.11-.63-1.61,2.44,1.5,7.02,3.97,11.87,2.86l1.87-.43c.03.84.27,1.7.81,2.53.1.16.21.33.31.49-.98.58-1.74,1.39-2.49,2.17l-.19.2c-2.37,2.5-5,4.81-7.8,6.86-.29.21-.57.4-.83.58-.96.65-1.86,1.26-2.55,2.53-1.05,1.93-1.62,4.03-2.17,6.06-.5,1.85-.97,3.59-1.78,5.19-.63,1.26-1.35,2.49-2.11,3.79-2.23,3.82-4.54,7.78-4.46,12.33.03,1.8.32,3.58.83,5.29l-1.25,3.53c-.45,1.29-1.08,4.45-1.8,8.11-1.11,5.6-3.17,16.03-4.49,16.79l-.14.05c-1.23.41-1.98.77-2.14,1.41-.08.32,0,.65.24.91,1.57,1.69,2.44,4.39,2.27,7.04-.1,1.67-.62,3.15-1.47,4.28-.07-.95.08-1.98.22-3.05.27-1.94.55-3.95-.41-5.8-1.43-2.77-3.9-2.64-6.07-2.53-.38.02-.76.04-1.15.04-3.56.06-3.58,1.86-3.61,4.35v.45c-.05,2.5.12,5.05,1.63,6.8,1.6,1.86,2.45,2.22,4.78,2.05.61-.05,1.17-.19,1.72-.33.62-.16,1.19-.31,1.72-.28.01.03.02.07.04.1l.37,1.01.82-.69s.03-.02.04-.03c.16.06.31.13.47.19,1.87.77,3.81,1.56,5.91,1.82,2.93.36,5.91.25,8.8.15,1.81-.07,3.69-.13,5.5-.08,5.06.14,10.45.25,15.75-.12,3.16-.22,6.91-1.83,8.17-4.92,1.13-2.77,2.08-5.67,3-8.48.46-1.41.92-2.82,1.41-4.21l8.66-24.89c.49-1.4.98-2.81,1.44-4.24-.18,13.72-1.12,38.76-3.5,49.75l-.19.89.91.02c2.95.05,6.86.04,11,.02,2.12,0,4.28-.02,6.38-.02v-1.5c-2.1,0-4.26,0-6.39.02-3.72.02-7.26.03-10.07,0ZM168.06,61.66c-3.61-3.07-5.72-6.01-6.84-9.53-.09-.29-.13-.6-.18-.92-.11-.77-.23-1.65-1.04-2.39-.4-.36-1-.61-1.63-.87-.53-.22-1.25-.51-1.43-.76-.94-1.29-1.14-4.28-.38-5.71.21-.4.57-.79.92-.79h.03c.29.02.52.14.81.29.55.29,1.31.69,2.45.16.42-.2.81-.46,1.18-.71.53-.36,1.03-.69,1.54-.78,2.71-.47,5.34.94,8.12,2.43,1.82.98,3.71,1.99,5.62,2.41,3.67.79,7.42-.25,9.56-2.66,1.35-1.52,2.23-4.53,1.38-6.57-.53-1.27-1.65-2.02-3.16-2.11-1.04-.05-2.15.31-3.29,1.1-.42.3-.82.63-1.22.96-.38.31-.76.63-1.16.91-2.8,1.94-5.86,1.09-9.09.2l-1.01-.28c-3.55-.95-6.24-.88-7.98.21-.89.55-1.54,1.36-1.92,2.41-.9-.71-1.26-2.18-1.21-3.45.03-.62.12-1.25.21-1.9.17-1.24.36-2.51.11-3.81-.07-.4-.19-.79-.3-1.19-.23-.78-.44-1.51-.27-2.15.26-.96,1.34-1.59,2.38-2.2l.24-.14c1.11-.65,1.69-1.52,2.21-2.29.51-.75.95-1.41,1.82-1.83,1.79-.86,3.83-1.11,5.73-.7.95.2,1.88.56,2.87.94,1.82.69,3.7,1.41,5.72,1.1.92-.14,1.76-.49,2.58-.82.52-.21,1-.41,1.5-.56,1.84-.54,2.91-.37,4.11.69.3.26.56.51.83.76.62.59,1.21,1.15,2.01,1.66,1.37.87,2.36,2.46,2.72,4.36.38,2.06-.03,4.15-1.1,5.58l-.27.36c-.65.86-1.27,1.68-1.64,2.86-.07.23-.14.54-.23.89-.16.67-.49,2.07-.84,2.35,0,0,0,0,0,0l.92,1.18c.44-.34,1.19-.33,1.73.03.53.36.88.95,1.04,1.77.29,1.57-.24,3.4-.9,4.34-.2.29-.94.61-1.54.87-.84.37-1.63.71-2.01,1.27l-.09.15c-.42.85-.58,1.8-.73,2.73-.06.37-.12.73-.19,1.06-.67,2.98-.75,4.39-.11,5.39-.24.12-.45.26-.62.42l-.41.4c-1.66,1.59-6.05,5.8-8.38,6.28-3.45.72-6.16-.83-9.15-3.37ZM160.65,39.5c.25-.9.71-1.54,1.41-1.97,1.38-.86,3.67-.86,6.8-.03l1,.27c3.42.95,6.96,1.92,10.34-.41.45-.31.86-.65,1.26-.98.37-.3.74-.61,1.13-.88.85-.59,1.64-.88,2.34-.83.95.05,1.55.44,1.86,1.18.6,1.46-.09,3.84-1.12,5-1.79,2.01-4.98,2.88-8.13,2.19-1.7-.37-3.41-1.29-5.23-2.26-2.48-1.33-5.03-2.7-7.75-2.7-.44,0-.89.04-1.34.12-.82.14-1.51.61-2.12,1.02-.16.1-.31.21-.46.3ZM192.18,62.38c-1.55,2.02-9.19,9.65-11.47,11.2-.88-2.6-2.4-4.28-3.25-5.22-.18-.2-.41-.45-.46-.53,0,0,.03.05.04.13l-1.48.27h0c.25,1.38.58,10.55.26,17.51-.65-7.23-.78-11.72-.62-17.57l.04-1.47c.72.02,1.48-.04,2.26-.2,2.42-.5,5.97-3.65,9.11-6.67l.41-.39c.17-.16.48-.28.84-.35.22.14.46.29.72.44.72.42,1.62.95,2.7,1.82.19.15.41.28.63.41.16.09.43.25.47.28,0,.07-.17.28-.22.35ZM244.31,58.79c-.12.49-.25.98-.35,1.46-.13.63-.2,1.2-.2,1.73-.83.55-1.66,1.02-2.33,1.39l-.55.31c-1.66.95-3.54,2.03-5.26,1.48-.79-.25-1.3-1.27-1.75-2.16-.09-.18-.18-.35-.26-.51-.83-1.57-1.5-3.18-2.05-4.55-.07-.17-.14-.36-.21-.57-.42-1.2-1.06-3.01-2.65-3.22-.14-.02-.28-.03-.41-.03-.17,0-.32,0-.47.02-.22.02-.43.03-.6,0-.37-.06-.71-.35-.82-.71-.11-.36.03-.61.32-1.12.08-.14.16-.28.23-.42.37-.73.67-1.47.97-2.19.17-.42.34-.84.53-1.26,1.35-3.04.21-6.31-.79-9.2-.43-1.25-.84-2.42-1.05-3.54-.28-1.46-.49-4.22,1.23-6.26.35-.42.69-.62,1.05-.62.44,0,.95.35,1.42.97,1.47,1.9,2.27,4.43,3.05,6.88.48,1.51.97,3.07,1.62,4.48,1.26,2.74,2.91,5.26,4.92,7.51.59.66,1.25,1.23,1.88,1.79,1.34,1.17,2.6,2.27,2.99,4.01.3,1.37-.07,2.8-.46,4.31ZM229.7,143.45c-.16,1.14-.32,2.32-.23,3.46-.63.02-1.23.18-1.79.33-.5.13-.98.25-1.45.29-1.84.14-2.23-.03-3.52-1.53-1.18-1.37-1.31-3.6-1.27-5.8v-.46c.04-2.52.04-2.84,2.15-2.87.4,0,.8-.03,1.2-.05.46-.02.89-.04,1.28-.04,1.59,0,2.63.3,3.39,1.76.74,1.43.5,3.12.26,4.91ZM268.54,48.17c.09-.25.15-.52.17-.81.89.41,1.89.44,2.81.46.71.02,1.39.04,2.01.21,1.59.43,2.83,1.35,3.39,2.51.38.77.48,1.67.59,2.63.11.95.23,1.93.62,2.86.81,1.93,2.68,3.52,4.99,4.26,2.09.67,3.81,2.19,4.7,4.17,1.71,3.77,1.19,8.51.45,11.84-.89-1.31-2.09-2.39-3.26-3.45-.46-.42-.92-.83-1.36-1.26-.59-.58-1.17-1.21-1.73-1.82-1.29-1.41-2.61-2.86-4.31-3.9-.76-.47-1.55-.9-2.35-1.34-1.7-.93-3.46-1.9-4.86-3.17-1.88-1.71-3.04-4.29-3.1-6.92,0-.3.05-.65.1-1.03.14-.95.32-2.11-.49-3.01.09-.09.17-.19.26-.28.5-.54,1.06-1.14,1.36-1.95ZM287.84,78.74c-.07-.08-.13-.15-.2-.23-.7-.8-3.47-3.13-6.98-6.09-4.57-3.85-10.26-8.64-11.85-10.51l-.13-.15c.23.25.47.49.72.72,1.53,1.38,3.36,2.39,5.14,3.37.78.43,1.55.85,2.29,1.31,1.52.93,2.72,2.24,3.99,3.63.57.63,1.17,1.28,1.79,1.88.45.44.93.87,1.4,1.3,1.61,1.45,3.14,2.83,3.8,4.69l.03.08ZM268.14,61.11c-.83-.98-1.86-2.03-3.2-2.03-.07,0-.14,0-.21,0-.16-.27-.33-.54-.5-.8-1.37-2.13-.07-4.59,1.68-6.73.19.36.13.88.01,1.63-.06.42-.13.86-.12,1.29.05,2.4.9,4.77,2.34,6.64ZM267.13,47.65c-.19.52-.63.99-1.05,1.44-.13.13-.27.29-.42.46-.05-.02-.09-.04-.14-.06-.44-.2-.82-.37-1-.67-.29-.5.6-1.77,1.28-2.23.22-.14.47-.22.7-.22.19,0,.37.05.49.16.27.25.28.75.14,1.12ZM262.17,56.17l-1.79-.62c-5.25-1.82-10.29-4.76-14.59-8.51-2.17-1.89-4.41-3.93-5.87-6.21-.88-1.38-1.62-2.94-2.32-4.45-.58-1.24-1.19-2.53-1.88-3.74-.28-.48-.54-.99-.81-1.5-.68-1.29-1.38-2.63-2.34-3.72-.45-.52-1.86-1.94-3.75-1.94h-.03c1.52-3.04,5.63-5.5,12.24-7.3,5.12-1.4,10.11-1.37,14.42.08,4.8,1.61,8.7,5.09,10.43,9.32,1.35,3.3,1.39,6.97,1.27,9.8-.03.74-.19,1.55-.36,2.41-.33,1.63-.68,3.43-.15,5.08-.59-.04-1.21.16-1.67.47-1.03.69-2.65,2.7-1.74,4.24.35.6.91.92,1.41,1.16-1.15,1.44-2.39,3.39-2.47,5.44ZM250.74,72.64c.51-.95,1.17-1.39,2.07-2,.28-.19.57-.38.88-.61,2.88-2.1,5.57-4.47,8-7.03l.19-.2c.7-.74,1.36-1.44,2.16-1.91.46.82.91,1.66,1.35,2.48l.42.79c.19.36.35.67.31.91-.05.33-.53.68-.86.91-2.56,1.84-5.05,4.04-7.4,6.52-.53.56-1.04,1.14-1.55,1.73-.72.82-1.46,1.67-2.24,2.43-.18.18-.38.39-.6.61-.62.65-1.42,1.48-2.16,1.89,0-.07-.02-.14-.03-.21-.07-.52-.14-1.06-.33-1.54-.11-.27-.34-.55-.61-.88-.14-.17-.37-.45-.42-.55,0,0,.04.08.03.21l-.62-.05c.37-1.2.81-2.39,1.4-3.48ZM244.66,87.72c.74-1.27,1.5-2.57,2.16-3.88.4-.8.73-1.63,1.01-2.48-.26,1.15-.66,2.27-1.29,3.46-2.06,3.92-4.89,9.29-5.33,14.45-.15,1.71-.1,3.65.19,5.57-.27-.79-.5-1.61-.66-2.43l.14-1.07-.22.63c-.15-.89-.24-1.79-.26-2.7-.08-4.14,2.12-7.91,4.25-11.55ZM237.88,125.5c.7-5.92,1.57-13.28,2.07-17.04l.31-2.37c1.05,2.67,2.67,5.12,4.77,7.11l1.03-1.09s0,0,0,0c-2.82-2.68-3.72-8.46-3.35-12.7.42-4.85,3.16-10.07,5.16-13.88,1.23-2.34,1.64-4.45,1.88-6.81.02.13.04.27.06.4.05.41.11.83.22,1.22l.18.62.64-.08c1.41-.19,2.69-1.52,3.72-2.59.2-.21.39-.41.57-.58.82-.8,1.58-1.67,2.32-2.51.5-.57.99-1.14,1.51-1.68,2.28-2.42,4.69-4.55,7.18-6.33.53-.38,1.33-.95,1.46-1.92.11-.74-.24-1.39-.47-1.83l-.42-.79c-.31-.59-.63-1.18-.96-1.78.46.3.95.85,1.56,1.59l.35.42c1.67,1.96,7.17,6.6,12.03,10.69,3.19,2.68,6.2,5.22,6.82,5.93,2.51,2.86,3.95,6.18,4.34,10.03-.13-.51-.28-1.02-.47-1.52-1.63-4.49-5.04-6.79-9.35-6.3-2.91.33-5.73,2.03-7.95,4.8-1.92,2.39-3.13,5.17-4.3,8.04-1.94,4.75-3.86,9.89-6.23,16.66-.47,1.34-.93,2.69-1.39,4.04-.47,1.39-.95,2.77-1.43,4.15-1.36,3.9.68,6.47,3.11,8.8-.38-.02-.81-.08-1.26-.18l-2.54-.57,1.84,1.83s0,.23-.11.3c-.18.14-.52.14-.83.02-.33-.13-.62-.27-.91-.4-.71-.33-1.44-.66-2.41-.84-2.28-.42-4.6.1-6.64.56l-12.3,2.77-.57.13c.21-1.72.47-3.93.75-6.32ZM287.29,107.76l-8.66,24.89c-.49,1.4-.95,2.81-1.42,4.23-.91,2.78-1.86,5.66-2.97,8.38-1.01,2.48-4.28,3.81-6.89,4-5.23.37-10.58.26-15.6.12-1.87-.05-3.77.02-5.6.08-2.83.1-5.75.21-8.56-.14-1.87-.23-3.69-.97-5.45-1.69,1.04-1.37,1.66-3.13,1.79-5.12.18-2.82-.69-5.71-2.28-7.7.19-.08.47-.19.88-.33.11-.04.19-.07.23-.08,1.26-.52,2.31-3.52,3.7-9.68-.02.2-.05.4-.07.6-.35,2.93-.66,5.57-.88,7.39l-.13,1.09,1.06-.27c.53-.13,1.05-.25,1.58-.37l12.31-2.77c1.9-.43,4.06-.91,6.04-.55.79.15,1.37.42,2.05.73.31.14.63.29.98.43.81.33,1.69.25,2.29-.21.35-.26.6-.67.68-1.12.82.08,1.72.04,2.43-.32l.96-.49-.79-.73c-2.71-2.51-5.06-4.68-3.82-8.24.48-1.39.96-2.77,1.43-4.16.46-1.34.92-2.69,1.39-4.03,2.36-6.75,4.27-11.87,6.2-16.59,1.13-2.77,2.29-5.44,4.08-7.67,1.97-2.45,4.43-3.96,6.95-4.25,3.62-.4,6.38,1.48,7.77,5.32.78,2.15,1,4.53,1.13,6.77.03.63.06,1.66.07,3.02-.72,3.21-1.81,6.37-2.88,9.44Z"/>
</svg>