<?xml version="1.0" encoding="UTF-8"?>
<svg id="Layer_1" data-name="Layer 1" xmlns="http://www.w3.org/2000/svg" viewBox="0 0 326 167">
  <defs>
    <style>
      .cls-1 {
        fill: none;
      }

      .cls-1, .cls-2 {
        stroke-width: 0px;
      }

      .cls-2 {
        fill: #69a6c2;
      }
    </style>
  </defs>
  <path class="cls-1" d="M74.06,48.21s-.04.07-.06.09c.47.24.87.45,1.18.61.01-.04.03-.08.05-.11.02-.03.04-.06.06-.08-.01,0-.02,0-.03-.02l-1.15-.6s-.02.07-.04.11Z"/>
  <polygon class="cls-1" points="134.72 84 134.6 84 134.72 84.01 134.72 84"/>
  <path class="cls-1" d="M79.26,43.99c0,.27-.06.55-.17.8.06-.06.1-.12.13-.19.08-.18.09-.4.04-.61Z"/>
  <path class="cls-1" d="M77.88,40.57c.08.04.14.07.19.09,0-.09,0-.17,0-.26-.06.06-.12.11-.19.16Z"/>
  <path class="cls-1" d="M82.69,33.5s-.07-.02-.11-.04c-.06.18-.13.37-.23.56,0,0,.01,0,.02,0,.22.06.37.28.36.51,0,.14.01.18.03.2.02.02.03.04.05.07.01,0,.03,0,.04-.01-.04-.12-.03-.26.03-.37l.15-.26s-.06-.02-.09-.04c-.23-.12-.32-.39-.23-.62,0,0,0,0-.01,0Z"/>
  <path class="cls-1" d="M72.81,39.24c-1.11-.53-2.33-1.11-3.44-1.65,0,.04-.02.07-.04.1-.02.04-.04.07-.06.1,2.76,1.24,6.08,2.78,7.47,3.55.01-.03.03-.07.04-.1.01-.03.03-.05.05-.07-.93-.45-2.45-1.18-4.03-1.94Z"/>
  <path class="cls-1" d="M80.93,40.34s0,.09.01.12c.09-.06.3-.26.62-.94.13-.27.26-.56.38-.84.26-.6.53-1.22.91-1.81-.05-.07-.08-.15-.1-.24-.54.96-1.1,2-1.59,3.04-.11.23-.22.47-.24.66Z"/>
  <path class="cls-1" d="M92.3,44.38c1.89.97,4.08,2.1,6.21,3.25-.39-.39-.41-.8-.37-1.03.08-.51.53-.91,1.08-.97.05,0,.1,0,.15,0,.28,0,.51.08.68.14l.71.24c2.17.74,4.39,1.5,6.6,2.34-1.76-.8-3.52-1.6-5.24-2.39l-8.03-3.66c-.3-.14-.58-.32-.88-.51-.26-.17-.51-.33-.74-.44-.17.53-.42,1.03-.66,1.52-.16.32-.31.62-.42.9-.01.04-.05.12-.07.19.1.05.27.13.56.25.16.06.3.12.41.18Z"/>
  <path class="cls-1" d="M87.85,42.68s-.03-.01-.04-.02c-.03-.01-.05-.03-.07-.04-.02.05-.05.09-.07.14.02,0,.04.01.06.02.02,0,.04.02.06.03.02-.05.05-.09.08-.14Z"/>
  <path class="cls-1" d="M91.94,53.41c-.23,0-.38.02-.56.01-1.75,0-15.77.11-15.91.11h0c-.22,0-.41-.14-.48-.35-.2.11-.41.21-.61.31-.07.03-.14.05-.23.05-.18,0-.36-.02-.53-.06,0,.02,0,.05,0,.07,0,.01,0,.02,0,.04,7.77,0,16.01,0,16.91,0,.06,0,.16,0,.28,0,.49-.02.88-.02,1.2,0,0-.03,0-.07,0-.11,0-.02,0-.04,0-.07-.03,0-.05,0-.08,0Z"/>
  <path class="cls-1" d="M91,39.84s-.04-.08-.06-.12c-.11-.14-.32-.23-.58-.25-.02.41-.1.82-.24,1.2.13-.19.28-.38.46-.54.13-.12.27-.22.42-.3Z"/>
  <path class="cls-1" d="M87.39,44.9c-.19-.19-.32-.42-.4-.67-.12.05-.25.09-.38.11-.96.17-1.98.07-3.02-.3-.83-.3-1.94-.69-2.22-2,0,0,0,0,0,0h-.02c-.3.09-.61.08-.9-.02-.03.09-.08.17-.13.25-.04.06-.09.11-.15.17.12.12.23.24.32.37.49.73.58,1.71.22,2.48-.39.85-1.28,1.39-2.2,1.35-.27-.01-.52-.08-.75-.18-.11.09-.25.15-.4.17-.4.05-.76.39-.84.79-.08.39.11.85.45,1.06.37.23.49.71.27,1.09-.04.08-.1.15-.16.2.35.64.38,1.38.05,2.15-.09.21-.21.42-.35.61,3.58-.03,13.43-.06,14.67-.1.12,0,.28,0,.44-.01.7-.03,1.46-.06,2.06.21.4.18.74.56.91,1.05.04.11.07.23.09.34.79.25,1.77.74,1.81.77,1.17.69,1.94,1.56,2.38,2.73.48,1.25.68,2.62.6,3.96-.03.51-.1,1.54-1.31,1.63,11.14-.04,21.22-.07,26.56-.08-.29-.11-.57-.22-.85-.34-.25-.1-.42-.18-.6-.25-3.98-1.55-7.76-3.6-11.43-5.58l-14.26-7.72c-2.18-1.18-4.39-2.32-6.29-3.3-.06-.03-.16-.07-.27-.11-.46-.18-1.04-.41-1.36-.84-.36.32-.83.51-1.3.52-.48,0-.92-.16-1.24-.48Z"/>
  <path class="cls-1" d="M83.32,41.05c-.1.11-.19.22-.27.35-.1.15-.11.26-.1.3.09.39.4.54,1.16.81.8.29,1.54.36,2.23.24.3-.05.73-.85.71-1.33-.03-.71-.8-1.67-1.5-2.26l-.09-.08c-.19-.16-.4-.33-.58-.58-.04-.06-.08-.12-.11-.18,0,.02-.02.04-.03.06l-.06.12c-.29.62-.54,1.16-.75,1.65-.17.39-.4.65-.59.88Z"/>
  <path class="cls-1" d="M73.24,38.34c1.02.49,1.91.91,2.64,1.26.01-.25.09-.46.13-.58.93-2.49,2.18-4.85,3.39-7.14l.07-.14c-1.07-.57-3.33-1.69-5.21-2.63-2.96-1.47-4.88-2.43-5.49-2.8-.13.29-.25.6-.36.9-.13.35-.24.62-.36.88l-1.22,2.84c-.42.99-.92,1.95-1.4,2.87-.11.22-.23.44-.34.66.33.06.67.22,1,.4.55.29,4.37,2.12,7.15,3.45Z"/>
  <path class="cls-1" d="M68.52,24.35c.37-.2,1.17-.17,2.49.38,1.65.68,6.18,3.08,9.18,4.67,1,.53,2.36,1.25,2.53,1.32.58.24,1,.73,1.17,1.32.12-.02.24,0,.36.04.11.02.31.04.37.04.13,0,.31-.06.41-.12.2-.14.3-.42.25-.65-.05-.2-.21-.42-.38-.66-.14-.19-.29-.4-.41-.63-.09.07-.19.12-.31.14-.21.05-.43,0-.61-.1-1.78-1.12-3.72-2.09-5.6-3.04-.73-.37-1.48-.74-2.21-1.12l-1.32-.68c-.76-.39-1.55-.8-2.31-1.21l-.51-.28c-.58-.32-1.13-.62-1.71-.79-.3-.08-.74-.16-1.12-.02-.37.13-.56.42-.54.8,0,.19.04.33.11.43.04.04.1.09.17.15Z"/>
  <path class="cls-1" d="M70.91,43.69c-2.36-1.13-4.58-2.19-5.23-2.5l-.1-.05c-.94-.43-1.61-.78-2.08-1.08-.1.4-.29.78-.58,1.09.11.05.22.11.32.17l11.62,6.07c0-.11.02-.21.05-.31.09-.43.31-.84.61-1.17-1.28-.62-2.97-1.42-4.61-2.21Z"/>
  <path class="cls-1" d="M88.73,39.49c-.31-.07-.59-.21-.86-.42-.17-.14-.34-.28-.51-.42-.04-.04-.09-.08-.13-.11.45.47.97,1.14,1.24,1.9.14-.32.24-.65.26-.95Z"/>
  <path class="cls-1" d="M88.55,43.78c.14,0,.28-.08.36-.16.27-.31.41-.81.57-1.34.05-.17.1-.33.15-.51-.28.5-.59.96-.86,1.34-.22.32-.25.62-.22.67Z"/>
  <path class="cls-1" d="M86.26,26.1c.04.09.07.18.08.27.11-.02.22-.04.32-.07.29-.06.55-.11.75-.2.72-.34,1.25-.92,1.51-1.61.51-1.4-.44-2.08-2.76-3.09-.33-.15-.65-.28-.93-.42l-1.11-.56c-2.24-1.13-9.07-4.56-9.75-4.74-.69-.18-1.64-.18-2.25.37-.55.5-.8,1.08-.72,1.63.11.75.81,1.46,1.97,2,.51.24,1.66.82,3.12,1.56l.19.1c2.63,1.33,8.05,4.07,8.86,4.3.3,0,.58.17.71.45Z"/>
  <path class="cls-1" d="M110.38,53.96c-1.09-.57-2.21-1.14-3.31-1.69l5.79,3.14c1.82.98,3.67,1.99,5.55,2.93-.51-.28-1.03-.58-1.57-.88-1.98-1.11-4.09-2.25-6.47-3.5Z"/>
  <path class="cls-1" d="M83.92,36.42s0,0,0,0c.03.03.06.07.08.11.02.04.04.08.05.12.04,0,.08,0,.12.02-.01-.04-.01-.08-.01-.12-.07-.02-.13-.05-.19-.09-.01-.01-.03-.02-.04-.04Z"/>
  <path class="cls-1" d="M62.52,37.49c.15.14.31.29.47.47.01,0,.03-.02.04-.03.19-.12.4-.16.59-.16.37,0,.69.14.77.18l12.09,5.8c.02-.15.06-.3.1-.45l.03-.11c.2-.63.16-.66.08-.72-.92-.7-10.35-4.94-12.02-5.61-.42-.17-.68-.39-.83-.61,0,0,0,0,0,0-.24.05-.51-.02-.7-.19-.24-.22-.67-.23-.93-.03-.25.2-.34.63-.18.91.09.17.27.34.48.53Z"/>
  <path class="cls-1" d="M139.49,110.72s0-.04,0-.06h-.54c.18.04.35.08.53.12,0-.02,0-.04,0-.06Z"/>
  <path class="cls-1" d="M134.09,110.2s0,.05-.01.08h.97c-.31-.05-.63-.11-.95-.16,0,.03,0,.05,0,.08Z"/>
  <path class="cls-1" d="M132.83,109.49s-.01.04-.02.06c0,0,0,0,0,0,.18.03.36.05.54.08,0-.02,0-.04,0-.05-.16,0-.34-.02-.51-.08,0,0,0,0-.01,0Z"/>
  <path class="cls-1" d="M133.45,108.54c.27-.17.3-.89.32-1.17.23-4.61.27-14.73.29-19.59v-.64c0-.83,0-1.51.01-1.97-.08,0-.15,0-.23,0-.74,0-.95.23-1.1.68-.13.68-.42,12.13-.42,18.31.02.37.01.78,0,1.18-.01.92-.02,1.83.22,2.55.09.28.36.56.63.65.17.06.25.01.27,0Z"/>
  <path class="cls-1" d="M146.34,109.65c-.32-.36-.46-.84-.39-1.35.13-.98.1-14.06.09-18.36v-1.81s0-.36,0-.36c.02-1.95-.19-2.43-1.12-2.56-2.17-.3-4.4-.3-6.49-.25-.67.02-1.35.06-2,.11-.25.02-.5.03-.75.05,0,.56,0,1.47-.01,2.62-.02,5.31-.06,15.1-.29,19.72-.03.61-.11,1.27-.43,1.79.81.13,1.58.27,2.34.42l9.06-.02Z"/>
  <path class="cls-1" d="M147.65,87.77v.36s0,1.81,0,1.81c.03,12.26,0,17.81-.1,18.58.13.2.7.51,3.05.33h.17c.46-.05.95-.03,1.47-.02,1.46.04,3.12.08,3.62-.94.5-1.03.47-2.36.44-3.66,0-.31-.01-.6-.01-.89v-14.82c0-.2,0-.41,0-.63.02-1.16.04-2.6-.46-3.42-.47-.78-1.65-.83-2.04-.82h-8.45c2.34.43,2.32,2.64,2.31,4.12Z"/>
  <path class="cls-1" d="M133.58,80.7c-.28-.16-.72-.17-1.06-.17-.14,0-2.34,0-6.05-.02h-2.71c-11.57-.05-32.38-.13-50.52-.17.02.24.03.69.05,1.59,16.51.01,42.87.05,60.81.08-.09-.87-.32-1.2-.52-1.31Z"/>
  <path class="cls-1" d="M119.06,77.63c2.05-.01,4.14-.03,6.22-.03-.21-1.57-.25-3.12-.29-4.62-.03-1.1-.05-2.23-.15-3.34-.02-.23-.03-.48-.04-.73-.08-1.92-.31-2.41-1.1-2.41-2.56,0-5.17,0-7.7,0h-.6c-3.75,0-7.63-.01-11.45,0h-1.03c-1.5,0-2.08.13-2.2,1.53-.18,2.26-.34,4.71-.26,7.26.06,1.93.76,2.05,3.16,2.17,5.09.25,10.27.21,15.27.17h.17Z"/>
  <path class="cls-1" d="M128.62,63.61c.2,0,.34,0,.43,0-.14-.03-.28-.06-.41-.1,0,.02,0,.04,0,.06,0,.01,0,.03,0,.04Z"/>
  <path class="cls-1" d="M125.16,57.63c1.06.7,2.26,1.5,2.77,2.86.1.27.36,1.08.15,1.8.36.15.88.27,1.28.36l.35.08c.37.09.74.16,1.09.21.22-.06.38-.16.51-.32.33-.43.32-.74.28-.94-.14-.72-1.02-1.56-2.62-2.5-2.21-1.29-4.62-2.63-7.36-4.07-.99-.52-2.02-1.05-3.1-1.58,2.18,1.21,4.32,2.52,6.38,3.91l.28.19Z"/>
  <polygon class="cls-1" points="126.7 62.34 126.97 62.07 126.7 62.33 126.7 62.34"/>
  <path class="cls-1" d="M84.58,107.62c.25.05.49.1.74.14,0-.02,0-.05,0-.07,0-.03,0-.05.01-.08-.25,0-.5,0-.75,0Z"/>
  <path class="cls-1" d="M92.34,106.58c-.04-6.05-.2-16.52-.28-19.36-.76,0-2.03.02-3.36.04-2.34.03-5.25.08-7.45.06-2.21,0-2.34,1.55-2.4,4.51-.05,2.27-.05,4.67-.02,6.98.03,1.87.11,3.53.85,4.93.71,1.34,1.9,2.3,3.66,2.91h.23s0,.5,0,.5v-.5c2.7-.03,5.75-.07,8.77-.05Z"/>
  <path class="cls-1" d="M133.12,83.62c-17.9-.03-43.59-.07-59.8-.08.1,6.33.14,18.91.09,22.46,0,.45.04.57.07.6.05.04.23.06.53.06,2.05.02,4.09.01,6.04,0-.75-.61-1.36-1.35-1.8-2.19-.9-1.71-1-3.65-1.03-5.66-.03-2.33-.03-4.74.02-6.97.05-2.63.12-6.15,3.98-6.15,2.23.02,5.13-.02,7.46-.05q4.49-.06,4.77.28t.36,8.45c.06,3.83.13,9.22.15,12.94,2.75-.08,5.52-.12,8.27-.12,7.48,0,15.04.3,22.45.88,2.43.19,4.52.4,6.45.64-.05-.1-.09-.2-.12-.3-.33-.98-.32-2.03-.3-3.05,0-.41,0-.79,0-1.15,0-4.48.25-18.09.5-18.85.31-.97.96-1.55,1.92-1.73Z"/>
  <path class="cls-1" d="M107.32,50.59c1.27.64,2.56,1.29,3.8,1.94,2.4,1.26,4.53,2.41,6.51,3.52,1.86,1.05,3.54,1.98,5.24,2.86l.67.34c.94.47,1.9.96,2.79,1.61-.38-.77-1.24-1.34-2.07-1.89l-.29-.19c-4.21-2.84-8.72-5.33-13.39-7.38-2.27-1-4.62-1.88-6.97-2.7,1.24.65,2.48,1.27,3.7,1.89Z"/>
  <path class="cls-1" d="M82.21,107.26s0,0-.01,0c0,0,0,0,0,0,0,0,0,0,.01,0Z"/>
  <path class="cls-1" d="M158.45,125.56c.1,1.16.86,1.98,1.46,2.45,1.03-.82,1.82-1.94,2.24-3.2,1.07-3.15.35-7.86-2.38-9.57-1.28-.8-3.06-.82-4.49-.83l-4.16-.04c1.31.7,2.55,1.47,3.71,2.3,1.59,1.13,3.72,2.94,3.88,5.53.04.63-.05,1.22-.14,1.79-.08.57-.16,1.08-.12,1.56Z"/>
  <path class="cls-1" d="M142.77,112.69c-1.79-.54-3.68-1.01-5.74-1.42l-7.95.02c-17.54.02-39.81.05-54.52.06.28.3.5.61.68.88,10.83,0,48.64.31,67.52.46Z"/>
  <path class="cls-1" d="M113.76,132.12c9.66.02,17.04.04,23.94.06h.7s0-1,0-1c-8.06-.24-60.65-.64-61.09-.64h-.67s-.01-.51-.01-.51l-.03.5c-.47,0-.97-.01-1.46,0-.17.54-.38,1.08-.64,1.53h10.9c8.93.02,18.21.03,28.37.05Z"/>
  <path class="cls-1" d="M91.23,109.01c-2.41.09-5.5.09-8.15-.76-3.23.04-6.14.07-9.09.04-.41,0-1.09-.01-1.61-.49-.61-.56-.59-1.37-.59-1.81.06-3.88,0-16.36-.09-22.44h-6.77c-3.87,0-6.34,0-6.8,0-1.09.02-2.06.07-2.86.44-2.05.96-2,3.87-1.96,6.21,0,.5.02.96,0,1.39-.04,1.49.09,6.28.18,9.77v.42c.06,1.79.09,3.32.1,4.12,0,.69.02,1.47.3,2.06.29.62.92,1.13,1.72,1.4.96.32,2.17.34,3.24.35l.03.5v-.5c.81,0,37.45-.03,65.65-.06-11.03-.87-22.23-1.1-33.3-.66Z"/>
  <path class="cls-1" d="M137.7,133.79c-6.9-.02-14.28-.04-23.94-.06-10.16-.02-19.44-.03-28.36-.04-7.65,0-15.81-.01-23.96,0-2.51,0-5.03,0-7.56.02-.31,0-.65,0-1-.01-.42,0-.79-.02-1.17-.02-1.2,0-2.69.08-3.51.7-.29.22-.5.61-.59,1.1-.65,3.49-.67,8.12-.05,11.79.31,1.83,5.31,1.75,6.96,1.72h.69c1.18,0,4.86-.04,15.72-.16-.03-2.04-.07-6.82.13-9.3.09-1.12.24-2.3.95-3.28,1.21-1.66,3.36-1.91,5.5-1.94,18.08-.21,36.38-.04,54.38.51.44.01.79.38.78.82l-.18,13.24s0,.04,0,.06c.03,0,.06,0,.1,0l5.79-.03c.01-1.32.03-5,.02-15.11h-.7Z"/>
  <path class="cls-1" d="M72.7,131.48c.11.05.18.05.19.06,0,0,.17-.1.44-.78-.17.04-.32.09-.47.15-.3.11-.44.27-.46.31,0,.05.12.18.29.26Z"/>
  <polygon class="cls-1" points="72.55 112.85 72.55 112.85 72.55 112.76 72.55 112.85"/>
  <path class="cls-1" d="M98.85,75.34c-.08-2.63.08-5.13.26-7.44.25-3.05,2.57-3.02,4.26-3.02h.57c3.82-.02,7.7-.01,11.46,0,2.72,0,5.53.01,8.29,0,2.56,0,2.66,2.46,2.72,3.93.01.26.02.49.04.69.1,1.16.13,2.31.15,3.42.04,1.56.08,3.13.3,4.68,1.89.01,3.58.05,5.16.1l.51.02c.64.03,1.3.07,1.52-.14.08-.07.22-.29.25-.91.1-2.13.14-4.44.14-7.27,0-.22,0-.47.01-.72v-.04c.03-1.17.07-2.62-.51-3.33-.07-.09-.22-.18-.44-.28-.39-.17-.85-.27-1.47-.33-.37-.03-.79-.08-1.25-.14-.44.06-.88.04-1.27.03-.14,0-.29,0-.42-.01-1.1,0-80.79.26-81.22.26-.57.02-1.23.03-1.66.31-.83.53-.88,1.89-.82,3.15l.48,9.31c.05.91.33,1.06,2.1,1.04h.36s52.49,0,52.49,0c-1.12-.41-1.96-1.31-2.03-3.34Z"/>
  <path class="cls-1" d="M98.12,61.36c.07-1.11-.1-2.24-.5-3.29-.31-.81-.85-1.42-1.7-1.92-.19-.11-1.28-.57-1.66-.67-.17.03-.35.01-.52-.06-.05-.02-.09-.05-.13-.08-.48.33-1.16.32-1.49.32-1.49-.01-27.24.02-29.08.02h-7.19c-.47,0-.95,0-1.42-.02-.46-.01-.92-.03-1.39-.03-.68,0-1.35.03-2.01.12-.77.2-1.69.44-1.82.49-1.47.63-2.28,2.4-2.41,5.26,4.64-.03,46.53-.03,51.3-.02,0-.04,0-.08,0-.12Z"/>
  <path class="cls-1" d="M72.12,112.2c.13.05.3.05.41.04l.02.46v-.46c.13,0,.34,0,.62,0-.18-.16-.36-.26-.52-.31-.22-.01-.44.14-.53.28Z"/>
  <path class="cls-1" d="M153.66,143.71s0-.02,0-.02l-.12.02h.12Z"/>
  <path class="cls-1" d="M165.47,119.05c-.53-2.65-1.78-4.89-3.51-6.31-1.81-1.48-4.41-1.48-6.93-1.48-.44,0-4.76,0-11.37.01,1.39.44,2.72.92,4,1.46l7.62.06c1.64.01,3.67.03,5.34,1.08,3.42,2.15,4.34,7.66,3.05,11.46-.45,1.34-1.24,2.56-2.25,3.52.07.03.14.05.21.07.31.09.63.17.99.24,2.53-2.6,3.59-6.36,2.84-10.11Z"/>
  <path class="cls-1" d="M155.91,129.28c.25.01.46.02.67.02.62,0,1.26-.15,1.87-.41-.94-.9-1.51-2-1.61-3.18-.06-.67.04-1.31.13-1.92.08-.53.15-1.01.12-1.48-.09-1.45-1.11-2.82-3.2-4.31-1.96-1.4-4.17-2.63-6.56-3.65-13.73-.11-58.26-.48-71.31-.5.4,1.19.51,2.43.63,3.63l.02.24c.34,3.58,0,7.3-.97,10.78-.03.11-.07.25-.11.42.36,0,.71,0,1.06,0h.67c.5,0,57.69.45,61.94.67.43.02.76.38.76.81v1.78s.75,0,.75,0c2.5,0,5.09,0,7.63.04.33.01.65.01.96,0,.09,0,.19,0,.29,0,.93,0,2,.04,2.88.47-.1-.17-.18-.36-.25-.57-.15-.49-.08-1,.18-1.47.32-.58.91-1.05,1.59-1.24.64-.18,1.29-.16,1.86-.13Z"/>
  <path class="cls-1" d="M148.49,113.73h-.06s.03.01.05.02c0,0,0,0,0-.01,0,0,0,0,0,0Z"/>
  <path class="cls-1" d="M146.35,113.3s0,.02,0,.03c.05,0,.1,0,.15,0-.05-.02-.09-.04-.14-.06,0,0,0,.02,0,.03Z"/>
  <path class="cls-1" d="M156.61,130.91c-.25,0-.49,0-.73-.02-.23-.01-.42-.02-.6-.02-.33,0-.57.03-.79.09-.25.07-.5.26-.61.47-.07.14-.05.21-.04.24.17.57.77.71,2.49.56.3-.03.57-.05.8-.05,1.53-.02,2.88-.81,4.03-1.72-.42-.13-.82-.3-1.21-.51-1.05.61-2.2.94-3.34.96Z"/>
  <path class="cls-1" d="M74.07,52.53c.62-.3,1.32-.71,1.55-1.25.12-.28.34-.8-.71-1.37-1.16-.63-4.32-2.19-7.38-3.7-2.7-1.34-5.2-2.57-6.28-3.14-.5-.26-.76-.61-.85-.95-.55.24-.97.59-1.21,1-.33.57-.39.83-.4.93,0,.07.04.23.08.34.12.07.21.16.29.27.11.18.15.4.1.61-.01.05-.03.1-.05.15.09.05.17.09.23.13.58.36,1.24.66,1.87.95l.7.33c3.23,1.54,6.64,3.21,10.42,5.13.63.32,1.1.54,1.63.58Z"/>
  <path class="cls-2" d="M306.41,129.4h-137.99c-.34,0-.7,0-1.07,0-.91,0-1.85.02-2.76-.03,2.35-2.93,3.24-6.75,2.46-10.65-.6-3.01-2.05-5.58-4.08-7.24-1.85-1.52-4.22-1.79-6.53-1.84.35-.26.65-.61.87-1.06.67-1.38.64-2.98.61-4.4,0-.29-.01-.57-.01-.85v-15.43c.03-1.37.05-3.07-.69-4.28-.91-1.51-2.85-1.6-3.43-1.6-.3,0-5.73,0-13.95-.02h-4.1c-.11-1.37-.55-2.26-1.33-2.72-.03-.01-.05-.02-.08-.04.31-.09.61-.23.87-.46.48-.44.74-1.1.78-2.03.1-2.16.14-4.49.14-7.35,0-.21,0-.44.01-.72.04-1.43.08-3.22-.87-4.39h0c-.33-.4-.75-.61-1.05-.74-.39-.17-.81-.29-1.33-.37.33-.58.44-1.19.31-1.82-.32-1.62-2.09-2.82-3.4-3.58-2.23-1.3-4.66-2.65-7.42-4.1-2.98-1.57-6.29-3.18-10.44-5.06-3.05-1.37-6.14-2.78-9.13-4.15l-8.03-3.66c-.2-.09-.43-.24-.67-.4-.41-.27-.9-.58-1.45-.74-.07-.36-.21-.68-.41-.95-.39-.51-1.04-.83-1.78-.88-.16,0-.3,0-.44,0-.13-.24-.28-.46-.47-.68-.88-1.01-1.84-1.64-2.85-1.86-.71-.16-1.34-.16-1.89-.02-.1-.42-.35-.75-.7-.96l.34-.6c.13,0,.22,0,.24,0,.48-.02.94-.17,1.29-.41.75-.52,1.12-1.5.89-2.38-.12-.5-.4-.87-.64-1.21-.15-.21-.29-.41-.36-.59-.12-.31-.03-.71.22-.94.18-.18.52-.24.92-.32.35-.07.75-.15,1.13-.33,1.1-.53,1.93-1.42,2.33-2.51,1.12-3.06-1.97-4.4-3.69-5.15-.29-.12-.56-.24-.79-.36l-1.01-.51c-6.7-3.37-9.54-4.74-10.15-4.9-1.4-.37-2.84-.09-3.75.74-.96.88-1.39,1.97-1.23,3.07.2,1.3,1.22,2.44,2.88,3.22.52.24,1.79.89,3.27,1.64,4.19,2.12,6.57,3.3,7.89,3.9-.2.21-.37.43-.51.67-.07.12-.16.32-.23.58-1.45-.83-2.95-1.59-4.41-2.32-.72-.36-1.46-.73-2.19-1.11l-1.31-.68c-.76-.39-1.55-.8-2.31-1.21l-.49-.27c-.63-.35-1.29-.71-2.05-.92-.75-.21-1.49-.21-2.11.02-1.02.37-1.65,1.31-1.6,2.39.02.52.16.95.4,1.29.04.06.17.21.34.37-.18.39-.33.79-.47,1.15-.11.29-.22.56-.33.82l-1.22,2.85c-.39.92-.86,1.82-1.35,2.76-.22.42-.45.86-.67,1.3-.72-.21-1.52-.06-2.1.41-.86.69-1.13,1.98-.6,2.95.22.4.52.68.8.94.21.19.38.36.48.53.13.24.06.61-.16.84-.15.16-.38.2-.78.26-.28.04-.59.09-.91.21-.71.26-1.68.79-2.26,1.79-.26.46-.56,1.05-.6,1.62-.02.23.03.66.18,1.04-.16.36-.14.78.05,1.11.19.32.53.51,1,.75.07.04.13.07.17.09.68.42,1.39.75,2.17,1.1l.56.26c2.98,1.42,6.11,2.96,9.56,4.69-7.3,0-17.37.01-17.91.03-.09,0-.21,0-.35-.01-.57-.04-1.36-.08-1.92.47-.26.26-.39.55-.48.79-.59.12-1.12.28-1.63.5-2.11.91-3.26,3.19-3.41,6.79,0,.21-.02.61.21.97.24.38.69.61,1.18.61.01,0,.02,0,.03,0,3.11-.03,41.11-.03,50.07-.02-22.55.07-48.65.16-48.8.16-.71.02-1.67.05-2.48.56-1.55.98-1.65,2.97-1.57,4.6l.48,9.31c.12,2.42,2.01,2.58,3.43,2.58.1,0,.21,0,.3,0h13.79s.06.02.1.02c3.07,0,6.33,0,9.69.02h0c0,.07.03.35.06,1.59-8.75,0-12.94,0-13.57,0-1.21.02-2.31.08-3.35.52-.06.03-.12.06-.16.11-.46.47-1,.93-1.75,1.49-.05.04-.09.08-.12.14-1.09,1.74-1.04,4.12-1.01,6.04,0,.47.02.92,0,1.33-.04,1.51.08,6.11.18,9.85v.43c.06,1.78.09,3.3.1,4.1,0,.81.02,1.82.45,2.73.48,1.02,1.45,1.84,2.67,2.25,1.2.41,2.55.42,3.77.44.28,0,4.58,0,11.87,0-.06.1-.12.21-.16.32-.31.8.03,1.6.83,1.99.42.21.87.19,1.16.19.29,0,.88-.01,1.71-.01,0,.01.01.03.02.04.48,1.14.61,2.46.73,3.75l.02.24c.32,3.38,0,6.9-.92,10.19-.04.14-.08.32-.15.6-.03.11-.06.23-.09.36-.6.08-1.12.2-1.59.38-.9.33-1.46.98-1.5,1.73-.02.36.07.67.23.95-3.18,0-6.39,0-9.6,0h-.67c-2.25,0-4.57,0-6.9.02-.3,0-.62,0-1.02-.01-1.86-.04-4.17-.1-5.63,1-.61.46-1.04,1.2-1.21,2.09-.69,3.66-.71,8.51-.05,12.36.54,3.2,5.97,3.11,8.58,3.06.25,0,.47,0,.66,0,1.2,0,4.95-.03,15.99-.15h.55c.21,0,.42-.1.57-.25.15-.15.24-.37.23-.6-.01-.71-.12-7.02.12-9.93.07-.89.18-1.82.65-2.46.79-1.09,2.5-1.26,4.21-1.28,17.76-.21,35.76-.05,53.52.48l-.17,12.44c0,.26-.01.79.36,1.21.44.5,1.09.49,1.37.49l6.58-.03c.24,0,.79-.1.82-.96,0-.12,0-.29,0-.52,0-.43.01-1.06.01-1.82,0-1.36.01-3.28.01-5.71,0-2.71,0-5.57,0-7.72h.95c2.43,0,4.94,0,7.41.04.31.01.63,0,1,0,1.95.01,3.01.06,3.3,1.68.47,2.62.42,5.39.38,8.07v.1c-.02,1.18-.04,2.4-.02,3.59.03,1.71-.34,2.77-1.15,3.24-1.52.9-4.47.89-6.26.89H14.89c-.45,0-.81.36-.81.81s.36.81.81.81h130.96c2.4,0,5.11-.09,6.85-1.12,1.33-.79,1.99-2.36,1.94-4.66-.02-1.22,0-2.5.02-3.63.05-2.76.1-5.62-.4-8.39-.12-.68-.35-1.21-.64-1.62.93.39,2.09.29,2.86.22.25-.02.48-.04.67-.04,2.44-.03,4.38-1.47,5.97-2.88l.05-.04c1.39.17,2.83.16,4.22.15h139.01c.45,0,.81-.37.81-.81s-.36-.81-.81-.81ZM153.79,83.65c.4,0,1.57.04,2.04.82.5.82.48,2.27.46,3.42,0,.22,0,.43,0,.63v14.82c0,.28,0,.58.01.89.03,1.29.06,2.62-.44,3.66-.5,1.03-2.15.98-3.62.94-.52-.01-1.01-.03-1.47,0h-.17c-2.36.19-2.92-.11-3.05-.32.1-.77.13-6.32.1-18.58v-1.81s0-.36,0-.36c.01-1.48.03-3.69-2.31-4.13h8.45ZM135.38,107.46c.23-4.63.27-14.41.29-19.72,0-1.15,0-2.07.01-2.62.25-.02.5-.03.75-.05.65-.04,1.33-.09,2-.11,2.08-.05,4.31-.05,6.49.25.92.13,1.13.61,1.12,2.56v.36s0,1.81,0,1.81c.01,4.3.05,17.38-.09,18.36-.07.51.07.99.39,1.35l-9.06.02c-.76-.15-1.53-.29-2.34-.42.32-.53.4-1.18.43-1.79ZM139.5,110.66s0,.04,0,.06c0,.02,0,.04,0,.06-.17-.04-.35-.08-.53-.12h.54ZM134.72,84h0s-.12,0-.12,0h.12ZM135.04,110.28h-.97s.01-.05.01-.08,0-.05,0-.08c.33.05.64.1.95.15ZM133.17,108.55c-.27-.09-.54-.37-.63-.65-.24-.72-.23-1.63-.22-2.55,0-.4,0-.82,0-1.18,0-6.17.29-17.63.42-18.31.15-.45.35-.68,1.1-.68.08,0,.15,0,.23,0,0,.46,0,1.14,0,1.97v.64c-.02,4.86-.06,14.98-.29,19.59-.01.27-.05.99-.32,1.17-.02.02-.1.07-.27,0ZM133.36,109.63c-.18-.03-.36-.05-.54-.08,0,0,0,0,0,0,0-.02.01-.04.02-.06,0,0,0,0,.01,0,.17.06.35.09.51.08,0,.02,0,.03,0,.05ZM130.71,105.36c-.01,1.02-.03,2.07.3,3.05.03.1.07.2.12.3-1.93-.24-4.01-.44-6.45-.64-7.41-.59-14.97-.88-22.45-.88-2.75,0-5.53.04-8.27.12-.02-3.73-.09-9.12-.15-12.94q-.13-8.17-.36-8.45t-4.77-.28c-2.33.03-5.23.07-7.46.05-3.86,0-3.93,3.52-3.98,6.15-.04,2.23-.05,4.65-.02,6.97.03,2,.13,3.95,1.03,5.66.45.84,1.05,1.58,1.8,2.19-1.95.02-3.99.03-6.04,0-.3,0-.48-.03-.53-.06-.03-.03-.07-.16-.07-.6.05-3.55.01-16.13-.09-22.46,16.21.01,41.9.05,59.8.08-.96.18-1.61.76-1.92,1.73-.25.76-.5,14.37-.5,18.85.02.36.01.74,0,1.15ZM85.32,107.76c-.25-.04-.5-.09-.74-.14.25,0,.5,0,.75,0,0,.03,0,.05-.01.08,0,.02,0,.05,0,.07ZM83.56,106.63v.5s0-.5,0-.5h-.23c-1.75-.61-2.95-1.56-3.66-2.91-.74-1.4-.82-3.06-.85-4.93-.03-2.31-.03-4.71.02-6.98.06-2.96.19-4.51,2.4-4.51,2.2.02,5.11-.02,7.45-.06,1.32-.02,2.6-.04,3.36-.04.08,2.85.24,13.31.28,19.36-3.01-.02-6.06.02-8.77.05ZM82.21,107.26s0,0-.01,0c0,0,0,0,0,0,0,0,0,0,.01,0ZM73.29,81.93c-.02-.91-.04-1.36-.05-1.59,18.13.04,38.94.12,50.52.16h2.71c3.72.02,5.92.03,6.05.03.34,0,.78.01,1.06.17.2.11.43.44.52,1.31-17.94-.03-44.3-.07-60.81-.08ZM103.62,77.46c-2.4-.12-3.1-.24-3.16-2.17-.08-2.55.08-4.99.26-7.26.11-1.4.69-1.53,2.2-1.53h1.03c3.82-.01,7.7,0,11.45,0h.6c2.54,0,5.14,0,7.7,0,.8,0,1.02.49,1.1,2.41.01.26.02.5.04.73.09,1.11.12,2.24.15,3.34.04,1.5.08,3.05.29,4.62-2.08,0-4.17.01-6.22.03h-.17c-5,.04-10.18.08-15.27-.17ZM121.6,55.12c2.74,1.44,5.15,2.78,7.36,4.07,1.6.94,2.48,1.78,2.62,2.5.04.2.05.51-.28.94-.13.16-.29.26-.51.32-.35-.06-.72-.12-1.09-.21l-.35-.08c-.4-.09-.92-.21-1.28-.36.21-.72-.04-1.53-.15-1.8-.51-1.36-1.71-2.16-2.77-2.86l-.28-.19c-2.06-1.39-4.19-2.7-6.38-3.91,1.08.54,2.11,1.06,3.1,1.58ZM129.05,63.61c-.09,0-.23,0-.43,0,0-.01,0-.03,0-.04,0-.02,0-.04,0-.06.14.03.28.07.41.1ZM126.97,62.07l-.27.27s0,0,0,0l.27-.26ZM123.98,58.79l.29.19c.83.55,1.68,1.12,2.07,1.89-.89-.65-1.85-1.14-2.79-1.61l-.67-.34c-1.69-.88-3.37-1.81-5.24-2.86-1.98-1.11-4.11-2.26-6.51-3.52-1.25-.66-2.53-1.3-3.8-1.94-1.22-.62-2.47-1.24-3.7-1.89,2.34.83,4.7,1.7,6.97,2.7,4.67,2.06,9.18,4.54,13.39,7.38ZM118.41,58.34c-1.88-.95-3.73-1.95-5.55-2.93l-5.79-3.14c1.1.55,2.22,1.12,3.31,1.69,2.38,1.24,4.49,2.39,6.47,3.5.54.3,1.06.59,1.57.88ZM91.39,43.77c.11-.28.26-.58.42-.9.24-.49.49-.99.66-1.52.23.11.48.27.74.44.3.19.58.37.88.51l8.03,3.66c1.72.79,3.48,1.59,5.24,2.39-2.2-.84-4.42-1.6-6.6-2.34l-.71-.24c-.17-.06-.4-.14-.68-.14-.05,0-.1,0-.15,0-.55.06-1,.46-1.08.97-.04.24-.03.64.37,1.03-2.14-1.16-4.33-2.29-6.21-3.25-.11-.06-.25-.11-.41-.18-.3-.12-.47-.2-.56-.25.02-.07.05-.15.07-.19ZM90.36,39.47c.26.02.48.12.58.25.02.03.05.07.06.12-.15.08-.29.18-.42.3-.19.16-.34.34-.46.54.13-.39.22-.79.24-1.2ZM91.29,45.71c.11.04.21.08.27.11,1.9.98,4.12,2.12,6.29,3.3l14.26,7.72c3.66,1.98,7.45,4.03,11.43,5.58.17.07.35.14.6.25.28.12.56.24.85.34-5.35.02-15.42.05-26.56.08,1.22-.09,1.28-1.12,1.31-1.63.08-1.34-.12-2.71-.6-3.96-.45-1.17-1.21-2.04-2.38-2.73-.04-.03-1.02-.52-1.81-.77-.02-.12-.05-.23-.09-.34-.18-.48-.51-.87-.91-1.05-.6-.27-1.36-.23-2.06-.21-.16,0-.31.01-.44.01-1.24.04-11.09.07-14.67.1.14-.19.26-.4.35-.61.33-.77.3-1.51-.05-2.15.06-.06.12-.12.16-.2.22-.38.1-.86-.27-1.09-.34-.21-.53-.67-.45-1.06.08-.39.45-.73.84-.79.15-.02.29-.08.4-.17.23.1.48.16.75.18.92.04,1.81-.5,2.2-1.35.36-.77.27-1.75-.22-2.48-.08-.13-.19-.25-.32-.37.05-.05.11-.11.15-.17.06-.08.1-.16.13-.25.3.1.61.11.9.03h.02s0,0,0,0c.29,1.31,1.39,1.7,2.22,2,1.04.37,2.06.48,3.02.3.13-.02.26-.06.38-.11.08.25.21.48.4.67.32.32.76.48,1.24.48.47-.01.95-.21,1.3-.52.32.43.9.66,1.36.84ZM92.01,53.57c-.32-.02-.72-.02-1.2,0-.12,0-.22,0-.28,0-.9,0-9.14,0-16.91,0,0-.01,0-.02,0-.04,0-.02,0-.05,0-.07.17.03.34.05.53.06.08,0,.16-.01.23-.05.2-.09.41-.2.61-.31.07.21.26.35.48.35h0c.14,0,14.16-.11,15.91-.11.18,0,.33,0,.56-.01.03,0,.05,0,.08,0,0,.02,0,.04,0,.07,0,.04,0,.07,0,.11ZM76.79,41.25s-.03.06-.04.1c-1.39-.77-4.71-2.31-7.47-3.55.02-.03.04-.06.06-.1.02-.03.03-.07.04-.1,1.11.53,2.32,1.11,3.44,1.65,1.58.76,3.1,1.49,4.03,1.94-.02.02-.03.04-.05.07ZM77.88,40.57c.07-.05.13-.11.19-.16,0,.08,0,.17,0,.26-.05-.03-.12-.06-.19-.09ZM79.09,44.79c.12-.25.17-.53.17-.8.06.21.04.43-.04.61-.03.07-.08.14-.13.19ZM82.76,36.65c.02.08.05.16.1.24-.38.59-.65,1.21-.91,1.81-.12.28-.25.56-.38.84-.32.67-.53.88-.62.94,0-.03-.02-.07-.01-.12.01-.19.13-.43.24-.66.49-1.04,1.05-2.08,1.59-3.04ZM82.94,34.12s.06.03.09.04l-.15.26c-.06.12-.07.25-.03.37-.01,0-.03,0-.04.01-.01-.02-.03-.05-.05-.07-.01-.02-.03-.06-.03-.2.01-.23-.14-.44-.36-.51,0,0-.01,0-.02,0,.09-.19.17-.38.23-.56.03.02.07.03.11.04,0,0,0,0,.01,0-.09.23,0,.5.23.62ZM87.66,42.77s.05-.09.07-.14c.02.02.05.03.07.04.01,0,.03.01.04.02-.03.04-.05.09-.08.14-.02-.01-.04-.02-.06-.03-.02,0-.04-.02-.06-.02ZM89.62,41.77c-.06.17-.11.34-.15.51-.15.53-.3,1.03-.57,1.34-.07.08-.21.15-.36.16-.04-.05,0-.34.22-.67.26-.38.58-.84.86-1.34ZM87.36,38.66c.16.14.33.28.51.42.27.21.55.35.86.42-.03.31-.12.63-.26.95-.27-.76-.79-1.43-1.24-1.9.04.04.09.08.13.11ZM84.66,38.51l.06-.12s.02-.04.03-.06c.03.06.07.12.11.18.18.25.39.42.58.58l.09.08c.7.59,1.47,1.55,1.5,2.26.02.48-.4,1.28-.71,1.33-.68.12-1.43.04-2.23-.24-.76-.27-1.08-.42-1.16-.81,0-.04,0-.15.1-.3.09-.13.18-.23.27-.35.2-.23.42-.49.59-.88.22-.5.46-1.04.75-1.65ZM84.15,36.54s0,.08.01.12c-.04-.01-.08-.02-.12-.02,0-.04-.03-.08-.05-.12-.02-.04-.05-.08-.08-.11,0,0,0,0,0,0,.01.01.03.03.04.04.06.04.12.07.19.09ZM76.69,21.35l-.19-.1c-1.46-.74-2.61-1.32-3.12-1.56-1.15-.54-1.85-1.25-1.97-2-.08-.55.17-1.13.72-1.63.61-.55,1.56-.56,2.25-.37.67.18,7.5,3.61,9.75,4.74l1.11.56c.28.14.59.28.93.42,2.32,1.01,3.27,1.69,2.76,3.09-.25.69-.79,1.27-1.51,1.61-.2.09-.46.15-.75.2-.11.02-.21.04-.32.07,0-.09-.04-.19-.08-.27-.14-.27-.41-.44-.71-.45-.81-.23-6.23-2.97-8.86-4.3ZM68.79,22.97c.38-.14.82-.07,1.12.02.58.16,1.13.47,1.71.79l.51.28c.77.41,1.55.81,2.31,1.21l1.32.68c.73.38,1.48.76,2.21,1.12,1.88.94,3.82,1.92,5.6,3.04.18.11.4.15.61.1.11-.03.22-.08.31-.14.13.23.27.44.41.63.17.24.33.46.38.66.06.23-.05.52-.25.65-.1.07-.27.12-.41.12-.06,0-.26-.02-.37-.04-.12-.04-.24-.05-.36-.04-.17-.6-.59-1.09-1.17-1.32-.16-.07-1.53-.79-2.53-1.32-3-1.59-7.54-3.99-9.18-4.67-1.33-.55-2.12-.58-2.49-.38-.07-.06-.13-.12-.17-.15-.07-.1-.1-.25-.11-.43-.02-.38.17-.67.54-.8ZM65.43,33.83c.48-.92.98-1.88,1.4-2.87l1.22-2.84c.11-.26.22-.54.36-.88.12-.3.24-.61.36-.9.62.37,2.53,1.32,5.49,2.8,1.88.93,4.14,2.06,5.21,2.63l-.07.14c-1.21,2.29-2.46,4.65-3.39,7.14-.04.12-.12.33-.13.58-.73-.35-1.62-.77-2.64-1.26-2.78-1.33-6.6-3.16-7.15-3.45-.33-.18-.67-.34-1-.4.12-.22.23-.44.34-.66ZM62.23,36.05c.25-.2.69-.19.93.03.19.17.45.24.7.19,0,0,0,0,0,0,.15.22.4.44.83.61,1.67.67,11.1,4.91,12.02,5.61.08.06.12.09-.08.72l-.03.11c-.04.15-.08.29-.1.45l-12.09-5.8c-.08-.04-.41-.18-.77-.18-.19,0-.4.04-.59.16-.01,0-.03.02-.04.03-.15-.17-.31-.33-.47-.47-.21-.19-.38-.36-.48-.53-.16-.28-.07-.71.18-.91ZM74.92,47.07c-.02.1-.04.21-.05.31l-11.62-6.07c-.1-.05-.21-.11-.32-.17.29-.31.48-.69.58-1.09.47.3,1.14.65,2.08,1.08l.1.05c.65.32,2.87,1.38,5.23,2.5,1.64.79,3.33,1.59,4.61,2.21-.3.34-.51.75-.61,1.17ZM75.28,48.72s-.04.05-.06.08c-.02.04-.04.07-.05.11-.31-.16-.71-.37-1.18-.61.02-.03.04-.06.06-.09s.03-.07.04-.11l1.15.6s.02.01.03.02ZM62.02,46.82l-.7-.33c-.63-.29-1.29-.59-1.87-.95-.06-.04-.14-.08-.23-.13.02-.05.04-.1.05-.15.05-.21.01-.42-.1-.61-.07-.12-.17-.21-.29-.27-.04-.11-.08-.28-.08-.34,0-.1.07-.35.4-.93.23-.41.66-.76,1.21-1,.09.34.35.69.85.95,1.09.57,3.58,1.81,6.28,3.14,3.06,1.51,6.22,3.07,7.38,3.7,1.05.57.83,1.09.71,1.37-.23.55-.93.95-1.55,1.25-.53-.04-1-.26-1.63-.58-3.79-1.92-7.2-3.59-10.42-5.13ZM46.81,61.5c.13-2.86.95-4.63,2.41-5.26.13-.05,1.05-.29,1.82-.49.65-.09,1.33-.12,2.01-.12.46,0,.93.01,1.39.03.47.01.95.03,1.42.03h7.19c1.84,0,27.59-.04,29.08-.03.33,0,1.01.01,1.49-.32.04.03.08.06.13.08.16.08.34.1.52.06.38.1,1.47.56,1.66.67.85.5,1.4,1.11,1.7,1.92.4,1.04.57,2.18.5,3.29,0,.04,0,.08,0,.12-4.77,0-46.66,0-51.3.02ZM48.03,78.68c-1.78.02-2.06-.13-2.1-1.04l-.48-9.31c-.06-1.26-.02-2.63.82-3.15.44-.28,1.09-.29,1.66-.31.43,0,80.12-.26,81.22-.26.14,0,.28,0,.42.01.39.01.83.03,1.27-.03.45.06.88.11,1.25.14.62.06,1.08.16,1.47.33.22.09.36.18.44.28.58.71.54,2.17.51,3.33v.04c0,.25-.01.5-.01.72,0,2.83-.04,5.14-.14,7.27-.03.62-.17.84-.25.91-.22.2-.88.17-1.52.14l-.51-.02c-1.58-.05-3.27-.09-5.16-.1-.22-1.55-.26-3.12-.3-4.68-.03-1.12-.06-2.27-.15-3.42-.02-.2-.03-.43-.04-.69-.06-1.47-.16-3.93-2.72-3.93-2.76,0-5.57,0-8.29,0-3.76,0-7.64-.01-11.46,0h-.57c-1.69,0-4.01-.04-4.26,3.01-.19,2.31-.35,4.8-.26,7.44.07,2.03.91,2.93,2.03,3.34h-52.85ZM72.55,112.85v-.09s0,.09,0,.09h0ZM72.54,112.24v.46s-.01-.46-.01-.46c-.11,0-.28,0-.41-.04.09-.14.31-.29.53-.28.16.04.34.15.52.31-.27,0-.48,0-.63,0ZM58.89,109.74v.5s-.04-.5-.04-.5c-1.07-.01-2.28-.03-3.24-.35-.8-.27-1.43-.78-1.72-1.4-.28-.59-.29-1.37-.3-2.06,0-.8-.05-2.33-.09-4.12v-.42c-.1-3.5-.22-8.28-.19-9.77,0-.43,0-.9,0-1.39-.04-2.34-.09-5.26,1.96-6.21.8-.37,1.77-.42,2.86-.44.46,0,2.93-.01,6.8-.01h6.77c.09,6.08.15,18.57.09,22.44,0,.44-.02,1.25.59,1.81.52.48,1.2.49,1.61.49,2.95.03,5.86,0,9.09-.04,2.65.85,5.75.85,8.15.76,11.07-.43,22.27-.21,33.3.66-28.19.03-64.83.07-65.64.06ZM74.57,111.35c14.7-.01,36.97-.04,54.52-.06l7.95-.02c2.05.41,3.95.88,5.74,1.42-18.88-.16-56.69-.46-67.52-.46-.17-.27-.4-.58-.68-.88ZM75.14,130.54c.5-.02.99-.01,1.46,0l.03-.5v.5s.68,0,.68,0c.43,0,53.03.4,61.09.64v1s-.69,0-.69,0c-6.9-.02-14.28-.04-23.94-.06-10.16-.02-19.44-.03-28.37-.04h-10.9c.27-.46.47-1,.64-1.54ZM72.87,130.91c.15-.05.3-.1.47-.15-.28.67-.45.78-.44.78-.01,0-.08,0-.19-.06-.17-.08-.28-.21-.29-.26.01-.05.16-.2.46-.31ZM138.38,148.91l-5.79.03s-.07,0-.1,0c0-.02,0-.04,0-.06l.18-13.24c0-.44-.35-.8-.78-.82-18.01-.55-36.3-.72-54.38-.51-2.14.03-4.29.28-5.5,1.94-.71.98-.86,2.15-.95,3.28-.2,2.48-.16,7.26-.13,9.3-10.85.12-14.54.15-15.72.15h-.69c-1.65.04-6.65.13-6.96-1.71-.62-3.67-.61-8.3.05-11.79.09-.49.3-.88.59-1.1.82-.62,2.31-.7,3.51-.7.38,0,.76,0,1.17.02.35,0,.7.02,1,.01,2.53-.01,5.05-.02,7.56-.02,8.15,0,16.3,0,23.96,0,8.93,0,18.21.02,28.36.04,9.66.02,17.04.04,23.94.06h.7c0,10.11,0,13.79-.02,15.11ZM153.66,143.69s0,.02,0,.02h-.12s.12-.02.12-.02ZM152.46,130.66c-.26.48-.32.99-.18,1.47.07.22.15.41.25.57-.88-.44-1.95-.47-2.88-.47-.1,0-.2,0-.29,0-.31,0-.63,0-.96,0-2.55-.04-5.13-.04-7.63-.04h-.75s0-1.78,0-1.78c0-.43-.34-.78-.76-.81-4.25-.23-61.44-.67-61.94-.67h-.67c-.34,0-.7-.01-1.06,0,.04-.17.08-.31.11-.42.98-3.48,1.32-7.2.97-10.78l-.02-.24c-.11-1.2-.23-2.44-.63-3.63,13.04.02,57.58.38,71.31.5,2.39,1.02,4.6,2.25,6.56,3.65,2.1,1.5,3.12,2.87,3.2,4.31.03.47-.05.96-.12,1.48-.09.61-.18,1.25-.13,1.92.1,1.17.67,2.28,1.61,3.18-.62.26-1.25.4-1.87.41-.21,0-.42,0-.67-.02-.57-.02-1.22-.05-1.86.13-.67.19-1.27.66-1.59,1.24ZM146.35,113.33s0-.02,0-.03c0,0,0-.02,0-.03.05.02.09.04.14.06-.05,0-.1,0-.15,0ZM148.43,113.73h.06s0,0,0,0c0,0,0,0,0,.01-.02,0-.03-.02-.05-.02ZM154.83,116.67c-1.16-.83-2.4-1.6-3.71-2.3l4.16.04c1.43.01,3.21.03,4.49.83,2.73,1.71,3.45,6.42,2.38,9.57-.42,1.25-1.21,2.38-2.24,3.2-.59-.47-1.35-1.28-1.46-2.45-.04-.48.03-1,.12-1.56.09-.57.17-1.17.14-1.79-.16-2.59-2.29-4.4-3.88-5.53ZM157.13,132.18c-.23,0-.5.03-.8.05-1.72.15-2.32,0-2.49-.56,0-.03-.03-.1.04-.24.11-.2.36-.39.61-.47.21-.06.46-.09.79-.09.18,0,.37,0,.6.02.24,0,.48.02.73.02,1.14-.02,2.29-.35,3.34-.96.39.21.8.38,1.21.51-1.16.91-2.5,1.7-4.03,1.72ZM162.63,129.16c-.35-.07-.68-.15-.99-.24-.07-.02-.14-.05-.21-.07,1.01-.95,1.79-2.18,2.25-3.52,1.29-3.8.37-9.31-3.05-11.46-1.67-1.05-3.7-1.06-5.34-1.08l-7.62-.06c-1.28-.54-2.61-1.02-4-1.46,6.61,0,10.93-.01,11.37-.01,2.52,0,5.12,0,6.93,1.48,1.74,1.42,2.98,3.66,3.51,6.31.75,3.75-.31,7.51-2.84,10.11Z"/>
</svg>