<?xml version="1.0" encoding="UTF-8"?>
<svg id="Layer_1" data-name="Layer 1" xmlns="http://www.w3.org/2000/svg" viewBox="0 0 326 167">
  <defs>
    <style>
      .cls-1 {
        fill: none;
      }

      .cls-1, .cls-2 {
        stroke-width: 0px;
      }

      .cls-2 {
        fill: #69a6c2;
      }
    </style>
  </defs>
  <path class="cls-1" d="M77.65,80.52c2.11-1.29,2.89-1.93,3.72-2.61.82-.68,1.67-1.37,3.73-2.67,5.92-3.73,9.49-5.97,13.82-5.25,1.56.26,2.72.83,3.56,1.25.49.25,1.09.55,1.22.46.28-.2,0-1.4-.22-2.37-.47-2.03-1.11-4.81.26-7.58.55-1.11,1.21-1.76,1.78-2.33.73-.73,1.36-1.36,1.91-2.86.35-.95.51-1.85.64-2.58.2-1.13.38-2.09,1.34-2.19,1.08-.13,1.69,1.21,2.32,2.83-.06-.34-.15-.7-.26-1.06-.56-1.71-1.61-2.81-2.55-3.66-3.45-3.11-6.76-4.43-9.85-3.92-3.34.55-6.38,3.21-9.01,7.9-.91,1.62-2.08,3.91-3.31,6.33-4.29,8.44-6.17,11.89-7.56,12.13-.34.06-.65.05-.93,0,.37,2.63-4.29,9.21-6.21,11.59.83-.66,1.8-1.21,3.05-1.92.74-.42,1.58-.9,2.55-1.49Z"/>
  <path class="cls-1" d="M47.24,113.98c1.42,4.74,3.36,6.26,5.61,8.01.63.49,1.28.94,1.93,1.32,1.83-.34,3.09-.84,3.55-1.4,2.79-3.38-.31-11.98-4.96-17.41-2.33-2.73-5.37-4-6.68-4-.22,0-.31.04-.35.05-1.06.51-.13,10.01.9,13.43Z"/>
  <path class="cls-1" d="M71.37,66.84c-.69-.31-1.39-.53-2.15-.69-.09.04-.18.07-.27.1,1.34.41,2.56,1.1,3.67,2.09,1.25,1.1,2.25,1.65,3.04,2.01-.01-.02-.03-.03-.04-.05-.96-1.12-2.15-2.52-4.25-3.46Z"/>
  <path class="cls-1" d="M119.64,97.44c.08.1.16.2.25.31.96,1.27,1.3,2.53,1.51,3.46,0,0,0-.02.01-.03.68-1.42,1.61-3.35,3.62-4.11.97-.36,1.65-.24,2.38-.12.38.07.79.14,1.31.16,2.22.08,4.21-1.34,8.14-4.16-.36.02-.74.04-1.14.06-2.38.12-3.64.18-4.04-.88-.24-.65.09-1.27.76-1.9-2.54,1.08-5.71,2.65-8.95,4.67-1.06.66-2.35,1.51-3.85,2.53Z"/>
  <path class="cls-1" d="M129.53,79.15c-.9,1.22-1.93,2.6-2.7,5.45-.35,1.28-.57,2.56-.69,3.61.98-.89,2.21-1.14,3.61-1.41,1.15-.23,2.58-.5,4.3-1.22l1.18-.5c2.38-1.01,3.69-1.57,5.13-.88,1.12.53,2.04,1.74,2.45,3.22.02.08.04.16.06.24.09-.17.16-.35.22-.53.6-1.87.11-3.62-.24-4.9l-.04-.13c-.24-.85-.51-1.9-.79-3.06-2.24-.43-5.16-2.67-6.96-5.38-1.26-1.9-1.77-3.18-2.47-4.97-.7-1.78-1.58-3.99-3.63-7.85l-.13-.24c-.62-1.16-1.08-2.03-1.4-2.68.05,1.69.4,3.52.83,5.77.66,3.45,1.58,5.22,2.25,6.51.74,1.43,1.33,2.55,1.02,4.66-.29,2-1.11,3.11-1.98,4.29Z"/>
  <path class="cls-1" d="M128.83,52.19c-.27.53-.54,1.08-.78,1.71-.2.52-.34,1.04-.44,1.55.06-.01.12-.02.17-.02.48,0,.83.48,1.05.76.44.6,1.26,1.72,2.65,2.55,1.2.71,2.3.9,2.96,1.01.97.16,2.3.39,2.65,0,.05-.06.05-.2.01-.77-.02-.33-.05-.71-.05-1.19-.21.08-.43.14-.66.17-1.09.17-2.02-.4-2.47-.68-.06-.04-.1-.06-.13-.08-.67-.35-1.9-1.51-1.89-2.5,0-.43.24-.8.62-.99.46-.22.85-.45,1.3-.71.42-.24.88-.51,1.46-.81.93-.48,2.29-.81,3.21-.22.08-.31.19-.81.29-1.43-.4-1.7-.64-3.11-.86-4.35-.54-3.05-.81-4.58-2.43-6.11-1.35-1.28-2.29-1.54-2.84-1.54-.13,0-.26.02-.38.05-1.62.42-2.32,3.53-2.46,4.69-.11.95,0,1.5.12,2.12.12.64.26,1.36.2,2.49-.11,1.93-.71,3.13-1.29,4.29Z"/>
  <path class="cls-1" d="M79.17,45.55c-.27-.12-.58-.26-.9-.41-2.54-1.21-6.37-3.03-10.17,1.85-.55.71-1.18,1.47-1.79,2.2-1.13,1.35-2.28,2.74-2.63,3.47-1.6,3.29-1.05,4.04-.52,4.76.49.67,1.1,1.51.37,3.22-.66,1.52-1.13,2.62-.95,3.01.21.44,1.12.45,2.67.46h.4c.98,0,2.13.02,3.37.22.33-.16.65-.35.98-.57.77-.52,1.93-1.31,2.88-2.72.38-.56.58-1.02.77-1.42.31-.68.59-1.32,1.41-2.02.71-.61,1.32-.82,1.77-.98.42-.15.64-.23.89-.58.24-.32.31-.61.41-.97.14-.53.3-1.12.91-1.76.47-.5.89-.64,1.23-.76.21-.08.39-.14.64-.3.84-.55,1.19-1.35,1.47-1.99.26-.6.61-1.42,1.5-1.42h0c1.48.02,2.09,2.48,2.31,3.83.06-.53.06-1.1-.07-1.68-.6-2.78-3.82-4.13-6.94-5.44Z"/>
  <path class="cls-1" d="M139.89,121.41c1.01.36,1.6.54,1.8.59.81.18,1.42.16,1.72-.07.45-.35.48-1.37.5-2.2.03-.83.05-1.55.41-2.09h0c.81-1.21,1.65-1.92,2.33-2.37-.78-.42-1.45-.82-1.89-1.14-7.14-5.1-11.84-7.48-16.22-8.21-2.07-.34-5.02.07-6.4,1.54-.78.83-1.01,1.95-.69,3.33.19.81,1.17,2.22,4.77,4.39l.17-.05c2.15-.66,3.56-1.1,5.87-.51,1,.25,6.08,1.75,7.46,6.19.06.2.12.41.16.61Z"/>
  <path class="cls-1" d="M131.83,116.32c-1.36-.34-2.26-.26-3.48.06,3.46,1.84,7.23,3.39,9.43,4.24-1.41-3.01-5.16-4.11-5.95-4.3Z"/>
  <polygon class="cls-1" points="137.75 93.87 137.75 93.87 137.75 93.87 137.75 93.87"/>
  <path class="cls-1" d="M147.91,113.94s-.04-.1-.07-.15c-1.62-3.47-3.18-9.73-3.05-15.89.07-3.37.72-4.92,1.41-6.56.64-1.53,1.36-3.25,1.7-6.98.75-8.21-1.39-13.51-2.73-15.94-.04-.08-.09-.16-.14-.24.06.72.11,1.47.17,2.31.32,4.87.49,7.32-1.03,8.27-.12.08-.25.14-.39.19.23.93.47,1.83.71,2.69l.03.12c.42,1.49.99,3.54.23,5.91-.34,1.05-.97,1.98-2.03,2.99-.08.21-.19.4-.3.57-.42.64-1.05,1.06-1.98,1.31-.7.53-1.5,1.1-2.39,1.74l-.1.07c-4.29,3.08-6.49,4.62-9.28,4.53-.64-.02-1.12-.1-1.54-.18-.63-.11-.95-.17-1.47.03-1.35.51-2.1,2.07-2.65,3.2-.51,1.05-.99,2.04-2.01,1.87-.88-.15-1.06-1.01-1.23-1.83-.18-.86-.42-2.02-1.28-3.17-.1-.14-.2-.26-.3-.37-1.61,1.11-2.92,2.04-3.35,2.35-.98.7-1.87,1.35-2.65,1.92-3.62,2.64-4.66,3.39-5.46,2.8l-2.09,1.32,1.73-1.72c-.07-.14-.1-.29-.1-.44,0-.52.35-.87.93-1.44.93-.92,2.49-2.47,2.68-4.76.47-5.79-1.29-15.38-3.63-19.72-1.75-3.25-3.55-3.91-5.89-3.91-.2,0-.4,0-.61.01-2.06.09-3.61,2.81-3.78,3.12-1.46,2.67-.78,5.35.71,11.24l.46,1.81c3.13,12.5,4.49,18.18,3.74,21.99-.14.72-.33,1.47-.5,2.21-.32,1.3-.99,4.02-.49,4.36.32.22,1.51-.39,1.9-.59l.16-.08c3.29-1.68,5.67-1.62,8.69-1.54,2.57.06,5.77.14,10.66-.87,1.07-.22,1.97-.45,2.69-.64-2.53-1.7-3.92-3.22-4.25-4.65-.46-1.99-.08-3.65,1.12-4.93,1.9-2.02,5.46-2.48,7.96-2.07,4.66.78,9.57,3.25,16.95,8.51.46.33,1.23.78,2.13,1.24Z"/>
  <path class="cls-1" d="M137.52,86.92c.21.06.38.17.5.33l1.24-.38-1.07.69c.26.74-.42,1.17-1.93,2.13-1.27.81-2,1.32-2.41,1.65.53,0,1.25-.04,1.72-.07,1.83-.09,3.17-.16,4.08-.35.63-.48,1.13-.88,1.54-1.25.12-.52.1-1.14-.08-1.77-.27-.97-.87-1.8-1.52-2.11-.18-.09-.37-.13-.59-.13-.62,0-1.47.35-3.1,1.04l-1.2.51c-1.87.78-3.4,1.08-4.62,1.32-1.53.3-2.45.48-3.09,1.34-.21.28-.36.57-.48.81-.13.24-.3.58-.58.78,5.69-3.11,10.66-4.81,11.59-4.54Z"/>
  <path class="cls-1" d="M137.38,54.37c.05-.29.16-.84.12-.97-.09-.04-.81.05-1.41.36-.55.29-.97.53-1.39.77-.28.16-.55.32-.83.47.19.24.47.51.73.65.06.03.14.08.23.13.3.19.84.52,1.29.45.41-.06.76-.28,1.06-.65.06-.45.13-.84.19-1.18v-.03Z"/>
  <path class="cls-1" d="M251.84,87.24c-.1.06-.21.11-.32.17.02.08.04.17.04.26,0,.1,0,.2-.03.28.5-.64,1.24-1.02,1.93-1.18-.63.01-.85.08-1.21.26-.13.06-.26.14-.4.21Z"/>
  <path class="cls-1" d="M250.57,88.95c-.14.25-.14.7,0,.81.09.07.24.07.28.05,0-.02.04-.23.05-.33.05-.28.12-.64.3-1.01-.12.11-.25.18-.33.23-.16.09-.24.14-.3.25Z"/>
  <path class="cls-1" d="M248.34,64.16h0c-.15.06-.29.12-.43.18.8.65,1.47,1.58,2.13,2.48l.41.56c1.81.71,3.12.34,3.14.34,1.78-.52,2.75-1.96,3.09-2.55.44-.77.61-1.54.67-1.93.13-.81.03-1.33-.05-1.74-.09-.46-.2-1.04.22-1.58.07-.09.15-.17.24-.25-.19-.47-.32-.96-.41-1.51-.1-.59-.12-1.15-.1-1.67-.58,1.43-1.57,2.56-2.81,2.72-.85.11-1.44-.26-1.83-.51-.05-.03-.17-.11-.26-.15-.07.18-.13.63-.16.88-.12.94-.28,2.22-1.3,3.25-.74.75-1.7,1.13-2.54,1.47Z"/>
  <path class="cls-1" d="M265.91,90.64c.76-.25,1.43-1.33,1.25-2.01-.16-.6-1.17-.95-2.37-1.32-1.28-.39-2.04-.4-4.31-.41h-1.02c-1.96-.02-3.32-.06-4.31-.09-.1,0-.2,0-.29,0,.29.11.47.29.57.45.24.37.2.72.07,1.03.2-.3.39-.53.5-.65.5-.53.95-.48,1.24-.34.72.36.5,1.18.38,1.63,0,0-.29,1.05-.77,2.07h0c.18-.05.55-.35.99-1.84.1-.35.19-.63.53-.82.13-.07.27-.1.42-.1.09,0,.18.01.27.04.22.07.41.23.52.43.18.35.08.63-.01.92-.37,1.1-.3,1.52-.18,1.68.16.21.55.28.65.23-.02.03-.03-.21-.03-.31.02-.44.06-1.1.62-1.56.87-.71,1.94-.15,2.88.33.8.42,1.71.89,2.4.66Z"/>
  <path class="cls-1" d="M249.07,88.04c-.09,0-.17,0-.26-.02-.46-.05-.89-.18-1.34-.4-.23.05-.44.14-.64.25-1.16.66-1.6,2.28-1.21,3.28.19.5.77.9,1.93,1.7.78.54,1.81,1.1,3.07,1.67.62.28,1.24.54,1.81.77-.36-.25-.62-.59-.71-1.05-.12-.63.17-1.27.85-1.89.19-.17.4-.32.64-.45-.29-.58-.45-1.3-.4-1.96.03-.4.13-.76.27-1.06-.06.05-.12.11-.17.18-.16.22-.21.47-.27.76-.09.45-.22,1.12-.9,1.52-.67.38-1.58.31-2.22-.18-.95-.73-.98-2.13-.46-3.06,0-.02.02-.03.03-.04Z"/>
  <path class="cls-1" d="M254.55,90.06c-.02.21,0,.41.05.6.01-.65.28-1.32.58-1.87-.02.03-.04.06-.06.08-.27.34-.54.7-.58,1.19Z"/>
  <path class="cls-1" d="M246.01,39.01c-1.05.49-2.12,1-4.26,1.23-1.28.14-2.31.1-3.05.08-.45-.02-1.07-.04-1.2.03,0,0-.03.15.07.52.29,1.08,1.5,2.71,3.05,3.57.71.4,1.21.48,1.91.6.83.14,1.77.3,3.23,1,.74.35,2.11,1,3.47,2.26,1.29,1.2,1.89,2.33,2.33,3.15.43.8.56.97.77,1.01.46.06,1.05-.44,1.62-.93.58-.5,1.26-1.09,2.02-1.09.21,0,.42.04.64.15.99.47,1.09,1.7,1.15,2.51.02.3.03.61,0,.92.29-.75.65-1.43,1-2.08.83-1.56,1.61-3.02,1.46-5.2-.24-3.46-2.64-5.79-3.12-6.22-3.23-2.91-7.54-2.49-8.38-2.38-1.23.17-1.93.5-2.74.88Z"/>
  <path class="cls-1" d="M258.19,66.03c-.44.78-1.72,2.67-4.13,3.38-.04,0-.62.16-1.53.16.43.26.85.39,1.29.39.91,0,1.92-.52,2.86-1.46,1.44-1.44,2.37-3.48,2.42-5.26,0,.09-.02.18-.04.28-.08.5-.3,1.5-.87,2.52Z"/>
  <rect class="cls-1" x="258.51" y="60.68" width="0" height=".02" transform="translate(32.8 200.57) rotate(-45)"/>
  <path class="cls-1" d="M264.59,103.26c1.39-1.18,2.54-2.28,3.46-3.23-1.09.95-2.31,2.08-3.46,3.23Z"/>
  <path class="cls-1" d="M245.87,96.96c1.03,0,2.26.44,3.59.91,2.44.87,5.47,1.95,8.3.78,1.54-.64,2.67-1.92,3.41-3.04-.14.01-.28,0-.42,0-.72-.08-1.11-.52-1.43-.87-.14-.15-.29-.32-.5-.5-1.43-1.23-4.05-1.54-5.09-.6-.13.12-.21.21-.25.27.26.15.89.34,1.18.42.99.29,2.01.58,2.11,1.55.1.96-.87,1.56-1.73,1.97-.21.1-.44.12-.65.04-.41-.14-2.47-.84-4.52-1.78-1.35-.62-2.47-1.23-3.33-1.82-1.36-.94-2.18-1.51-2.57-2.51-.62-1.62-.08-4.02,1.67-5.24-.68-.44-1.34-.93-1.97-1.49-.54.38-1.33.5-2.15.62-.78.12-1.96.3-2.14.73-.01.35,1.25,1.32,1.72,1.69,1.04.8,2.01,1.56,1.47,2.52-.32.57-1.11.82-2.42.79.65.87,1.26,1.83,1.83,2.86.78,1.42,1.35,2.67,1.8,3.82.09-.18.21-.34.36-.49.48-.46,1.07-.64,1.73-.64Z"/>
  <path class="cls-1" d="M257.03,116.03c.9-.42,1.94-.66,2.99-.66,1.24,0,2.41.33,3.29.92,1.31.89,1.74,2.16,2.05,3.1.12.36.32.95.46.99.06.02,1.3.31,4.95-5.7.54-.9,1.03-1.65,1.49-2.39,1.99-3.12,3.43-5.37,6.3-13.49,2.55-7.2,2.17-8.32,1.99-8.5-.27-.12-1.57.21-2.63.47-1.38.35-3.25.83-5.56,1.15-.74.11-1.29-.02-1.68-.38-.58-.54-.54-1.33-.49-2.09.05-.87.1-1.75-.54-2.51-.17-.19-1.18-.34-1.61-.41-.22-.03-.45-.07-.66-.11.69.39,1.26.93,1.48,1.74.42,1.57-.74,3.58-2.39,4.13-.78.26-1.55.15-2.26-.08.11.17.16.38.14.6-.06.53-1.74,5.69-5.91,7.44-3.45,1.45-6.83.23-9.56-.74-1.44-.51-3.07-1.1-3.53-.66,0,0-.04.08-.02.3.16,2.05,3.81,6.75,6.85,8.83,1.81,1.24,3.49,1.43,5.26.59,1.33-1.79,3.13-3.68,5.04-5.67,1.13-1.18,7.21-7.18,8.86-7.21h0c.27,0,.52.09.71.26l.12-.07-.06.13c.2.22.3.51.27.84-.13,1.63-4.48,6.44-10.51,10.72-.23.16-.48.37-.78.61-.67.55-1.5,1.23-2.49,1.77-1.49,2.09-2.05,3.81-1.75,5.39.04.23.1.45.18.67Z"/>
  <path class="cls-1" d="M94.59,129.13c-12.07-7.96-21.63-12.7-25.62-12.7-.62,0-1.07.11-1.35.34-.79.64-1.38,2.97-.91,6.01.29,1.87,1.73,8.16,8.06,10.66,5.53,2.18,12.72.73,16.95-1.84,1.25-.76,2.23-1.6,2.87-2.46Z"/>
  <path class="cls-1" d="M261.77,91.11c0,.07-.01.15-.01.2-.03.47-.07,1.24-.78,1.7-.19.12-.4.2-.63.25.1.11.2.21.28.3.25.28.29.3.34.31.17.02.67-.09,1.63-1.46.18-.26.34-.49.7-.56-.2-.1-.4-.2-.58-.29-.28-.14-.69-.36-.94-.44Z"/>
  <path class="cls-1" d="M76.57,72.7c-.08-.12-.45-.27-.89-.45-.95-.39-2.38-.97-4.23-2.61h0c-2.5-2.21-5.71-2.68-9.53-1.4-.57.83-.96,2-1.11,3.31-.37,3.23.63,6.75,2.56,8.98,2.18,2.52,5.64,3.64,6.94,2.79,1.02-.81,6.59-9.5,6.26-10.63Z"/>
  <path class="cls-1" d="M281.98,87.46c.48-.45,1.27-1.2,1.43-2.34.33-2.3-2.2-4.42-2.49-4.66-2.79-2.25-4.61-2-7.65-.56l-.1.05c-.31.16-.9.46-1.66.58-.08.45-.34.87-.77,1.27-.32.3-.8.65-1.3,1.03-1.35,1-1.92,1.52-2.16,1.8.32.08.8.15,1.02.18,1.04.15,2.11.31,2.7,1.01,1.09,1.29,1,2.76.94,3.74-.01.19-.03.47-.02.66.05,0,.12,0,.2-.02,2.24-.31,3.97-.75,5.36-1.11,1.97-.5,3.21-.82,4.07-.22-.39-.62.22-1.2.43-1.41Z"/>
  <path class="cls-1" d="M230.43,87.03c1.49.67,2.81,1.12,3.6,1.38.22.07.44.14.66.2-1.16-.73-2.39-1.22-3.66-1.47-.18-.04-.38-.07-.6-.11Z"/>
  <path class="cls-1" d="M237.05,77.02c-.48-.56-.9-1.01-1.26-1.38.36.42.78.89,1.26,1.38Z"/>
  <path class="cls-1" d="M268.18,75.78c.07-.36.14-.68.21-.97-.21.43-.36.98-.28,1.64,0-.21.02-.43.07-.67Z"/>
  <path class="cls-1" d="M228.51,103.18c.31.51.6.97.84,1.37,1,1.68,3.33,4.56,5.81,7.6,2.83,3.48,5.29,6.55,6.78,8.81.11-.12.21-.24.28-.36,2.73-4.35,5.21-3.45,6.41-3.01.06.02.12.04.16.06.18-.77-.27-1.66-1.18-3.35-.7-1.31-1.58-2.93-2.37-5.13-.79-2.18-1.22-3.91-1.63-5.58-.67-2.69-1.25-5.01-3.15-8.49-.84-1.53-1.78-2.87-2.79-3.99l-.14-.03c-3.75-.69-7.77-2.19-10.82-4.02-.71.17-1.28.46-1.7.86-3.72,3.55.99,11.17,3.52,15.26Z"/>
  <path class="cls-1" d="M118.17,91.24c-.61,2.8-.84,3.85-.15,4.73.09.12.17.2.26.28,1.67-1.14,3.12-2.09,4.29-2.82,1.06-.66,2.11-1.28,3.15-1.85-.16.06-.35.08-.56.02l-.1.18v-.22c-.22-.08-.41-.24-.53-.45-.61-1.05.1-5.06.62-6.97.86-3.17,2.04-4.76,2.98-6.04.83-1.12,1.43-1.93,1.66-3.5.22-1.55-.16-2.28-.84-3.61-.72-1.38-1.71-3.28-2.42-6.99-.84-4.4-1.4-7.31-.11-10.73.27-.73.58-1.34.85-1.88.57-1.14,1.02-2.04,1.11-3.62.05-.91-.05-1.47-.17-2.05-.13-.68-.28-1.44-.14-2.66.06-.55.7-5.4,3.76-6.19.88-.22,1.81-.09,2.79.41-2.07-1.67-4.31-2.48-6.65-2.46-1.56.03-3.94.48-6.35,2.5-2.33,1.95-3.2,4.48-4.11,7.16-1.42,4.16-1.7,8.14-1.82,9.83-.07,1.07-.1,2-.13,2.82-.08,2.67-.14,4.58-1.65,6.44-.44.54-.92.98-1.3,1.33-.03.03-.07.07-.12.11h.11c.72,0,1.67.05,2.71.46.65.25,1.87.86,2.79,2.05.84,1.08,1.08,2.31,1.58,8.2l.03.37c.04.41.06.64.06.77.2,2.91,0,5.79-.66,9.62-.34,1.95-.68,3.49-.95,4.73l-.49-.1h0s.49.11.49.11Z"/>
  <path class="cls-1" d="M213.18,71.03c.41-1.98-.44-3.82-2.73-8.74l-.3-.65c-4.47-9.63-9.51-15.42-14.98-17.23-3.85-1.27-7.05-.24-9.06.85-1.74.95-2.58,2.46-3.56,4.21-2.27,4.08-2.73,7.15-2.33,15.66.21,4.47.54,6.48,1.11,6.73.65.29,1.75-.46,2.91-1.25,1.42-.96,3.03-2.06,4.86-2.06.42,0,.84.06,1.24.18.95.27,1.29.75,1.81,1.47.46.65,1.16,1.63,2.81,3.32,3.22,3.31,5.62,4.6,7.62,5.56.33.16.68.28,1.1.4.29.08.73.18,1.29.27,1.74-.83,3.16-2.04,3.94-2.7,1.46-1.24,3.66-3.11,4.27-6.03Z"/>
  <path class="cls-1" d="M178.38,114.6c-.56-.33-.99-.58-1.62-1.25-.15-.16-.29-.32-.42-.49-.04.03-.07.07-.11.1,1.35,2.15,3.34,3.61,4.78,4.12.31.11.61.18.86.2-.66-.67-1.39-1.28-2.21-1.87-.56-.39-.96-.63-1.28-.82Z"/>
  <path class="cls-1" d="M175.61,103.22c-.16,2.7.18,4.97,1.01,6.78,1.17-1.6,1.52-3.29,1.09-5.15-.14-.61-.87-1.17-2.1-1.63Z"/>
  <path class="cls-1" d="M238.89,60.66c-.47-.16-3.49.34-5.74,1.84-6.27,4.18-9.86,10.1-10.47,11.46-.19.41-1.09,2.56-.74,4.86.35,2.32,2.07,4.47,5.1,6.41,1.59-.23,3.23-.02,4.34.2,2.58.51,5.05,1.91,7.14,4.07.73.11,1.3.16,1.73.17-.08-.07-.16-.12-.21-.17-1.22-.94-2.89-2.24-2.27-3.75.56-1.34,2.18-1.59,3.49-1.8.27-.04.74-.11,1.06-.2-.18-.19-.34-.38-.51-.56-.28-.21-.6-.44-.93-.68-1.07-.77-2.39-1.72-3.87-3.08-1.65-1.52-2.79-2.88-3.45-3.76-1.24-1.64-1.46-2.27-1-2.81.31-.36.76-.53,1.23-.54.92.03,2.65.75,7.06,6.66.11.15.25.34.41.58.4.58,1,1.45,1.8,2.38.56.42.91.8,1.11,1.18.97.95,2.02,1.74,3.11,2.35.12.07.25.15.38.23.05.03.1.06.15.09.75-.05,1.53.07,2.24.35.32-.11.63-.28.95-.45.16-.09.32-.17.47-.25.99-.49,1.51-.47,3.69-.41,1.01.03,2.37.07,4.33.09h1.01c2.25.02,3.28.02,4.81.49.15.05.31.1.48.15-.09-.09-.16-.19-.23-.3-.77-1.39,1.04-2.74,2.8-4.04.46-.34.92-.68,1.19-.93.04-.04.08-.08.11-.11-1.7-.51-3.04-2-3.27-3.66-.35-2.55,1.41-4.37,2.6-4.92.77-.36,1.45-.29,1.87.18.48.54.13,1.13-.02,1.38-.21.35-.63,1.08-.93,2.71-.17.92.28,1.53.79,2.23.12.16.24.33.35.49.58-.05,1.06-.29,1.32-.43l.14-.07c3.5-1.65,6.05-2.02,9.51.78.37.3,3.59,3.01,3.13,6.27-.02.17-.06.34-.1.5,1.17-1.01,2.14-2.31,2.29-3.69.18-1.71-1.03-3.16-3.77-6.28-.13-.15-.38-.46-.75-.94-2.38-3-9.59-12.14-13.88-13.04-3.66-.77-6.79-1.14-8.62-1.16.3.58.53,1.26.54,2.27.02,2.26-1.13,4.89-2.93,6.69-1.27,1.28-2.72,1.98-4.09,1.98-2.01-.01-3.41-1.46-4.53-2.91-.96-.44-1.88-1.07-2.74-1.87-.28-.26-.88-.82-1.06-1.68-.03,0-.05,0-.08.01-1.69.37-3.29.67-4.26.38-2.43-.75-2.31-2.74-2.24-3.93.02-.3.06-1-.05-1.06Z"/>
  <path class="cls-1" d="M219.92,98.13c-.05-1.56-.1-2.79-.08-3.65,0-.26.08-6.45-2.1-15.91-.6-2.62-1.1-2.89-1.24-2.91,0,0,0,0,0,0-.18,0-.78.82-1.07,1.22-.78,1.07-1.74,2.39-3.38,3.39-2.34,1.43-4.97,1.49-6.81,1.29-1.85.79-3.62.99-5.25.6-1.17-.28-1.67-.72-2.51-1.44-.64-.56-1.5-1.31-3.16-2.43-3.17-2.14-4.76-3.21-6.93-3.44-3.68-.38-7.56.6-8.22.85-2.76,2.37-3.19,5.86-3.36,7.18-.08.68-.09,1.23-.1,1.92-.02,2.32.28,3.89.52,5.16.09.49.18.93.23,1.33.38,2.86.16,4.34-.33,7.6-.1.67-.21,1.4-.33,2.25-.01.1-.03.19-.04.29,2.11.7,3.34,1.72,3.64,3.03.59,2.57-.03,4.97-1.86,7.13.15.19.31.38.47.55.46.48.73.64,1.22.94.33.19.78.46,1.41.9.77.54,1.47,1.12,2.11,1.74,0-.37-.02-.82-.04-1.34-.05-1.19-.11-2.81-.04-4.93.12-3.61.54-6.04.91-8.18.47-2.69.83-4.82.46-8.3-.3-1.33-.63-2.77-1-4.25-.44-1.79-.45-1.83-.24-2.18.12-.2.33-.35.56-.4.24-.06.5,0,.7.14.55.39,1.3,3.08,1.66,5.98l.06.48c2.95,13.38,3.11,22.68.45,27.61.14.25.28.49.41.73.84,1.48,1.62,2.88,2.88,4.04,3.8,3.51,11.65,4.69,14.8,4.52,3.83-.21,7.53-.52,11-.93,1.04-1.38,1.6-2.48,1.78-2.93,3.45-8.99,3.02-21.13,2.79-27.65Z"/>
  <path class="cls-1" d="M213.68,130.66c-2.96.31-6.06.56-9.23.73-3.51.19-11.85-1.06-16.09-4.98-1.45-1.34-2.3-2.84-3.2-4.43-.1.11-.2.22-.3.33l-.15.16c-.68.69-2.26,2.3-2.05,4.01.18,1.48,1.63,2.57,3.02,3.43,6.12,3.83,13.06,8.18,21.06,5.29,3.06-1.1,5.37-2.94,6.94-4.54Z"/>
  <path class="cls-1" d="M139.75,54.09c-.19.68-.46,1.45-.88,2.12-.05.51-.07,1-.07,1.51,0,.46.03.84.05,1.14.05.78.1,1.45-.46,2.07-.99,1.1-2.72.81-4.25.56-.72-.12-2.06-.34-3.51-1.2,1.99,3.77,2.87,5.98,3.57,7.76.67,1.69,1.15,2.91,2.31,4.65,1.39,2.09,3.5,3.74,5.04,4.38-1.53-6.73-2.81-14.52-.82-15.42.45-.2.96-.12,1.55.25-.59-2.61-1.11-3.97-1.66-5.4-.28-.74-.57-1.5-.87-2.42Z"/>
  <path class="cls-1" d="M143.45,70.6c-.15-2.19-.24-3.65-.57-5.66-.64-.8-1.09-1.24-1.36-1.46-.11.6-.19,2.17.37,5.98.34,2.29.86,5,1.48,7.69.49-.68.3-3.53.1-6.54h0Z"/>
  <path class="cls-1" d="M185.17,118.6c1.54-3.71,1.66-9.77.35-18.05-.06.34-.12.68-.17,1.03-.36,2.09-.77,4.46-.89,7.94-.07,2.05,0,3.58.04,4.8.05,1.41.09,2.41-.14,3.15.28.35.55.73.82,1.12Z"/>
  <path class="cls-1" d="M258.79,126.1c.57,1.97,2.71,3.3,4.59,3.75,1.97.47,4.41.17,4.73-.59.22-.5.2-1.86-2.29-5.46-.28-.4-.66-.95-.1-1.48.08-.08.19-.15.31-.19-.24.02-.48,0-.71-.07-1.02-.31-1.34-1.27-1.63-2.12-.27-.81-.55-1.65-1.37-2.2-1.17-.79-3.06-.83-4.52-.15.57,1,1.25,2.24,1.31,4.29.03,1.13-.14,1.89-.28,2.49-.15.66-.24,1.05-.04,1.72Z"/>
  <path class="cls-1" d="M174,112.53c-.07-.14-.13-.29-.19-.44-.63-1.55-.58-2.57-.55-3.55.04-.87.07-1.69-.3-3.07-.28-1.04-.76-2.11-1.44-3.18h-.07c-4.8-.71-9.37.73-13.95,4.41l.06.16c1.05,2.95,2.24,6.29,4.68,10.83.94-.08,1.78-.28,2.52-.58l.66-.27c2.54-1.02,5.97-2.41,8.58-4.32Z"/>
  <path class="cls-1" d="M187.58,73.11c2.6.27,4.31,1.42,7.73,3.72,1.74,1.18,2.66,1.98,3.33,2.56.74.64,1.01.88,1.76,1.06.41.1.79.14,1.27.14-2.11-1.01-4.63-2.41-7.97-5.84-1.73-1.78-2.51-2.87-2.98-3.52s-.51-.7-.87-.81c-1.54-.45-3.11.62-4.62,1.65-.54.37-1.09.74-1.64,1.03.66-.06,1.35-.09,2.05-.09.65,0,1.3.03,1.94.09Z"/>
  <path class="cls-1" d="M252.52,122.28c.71-.25.94-.87,1.3-2.03h0c.31-1,.7-2.22,1.72-3.2-.2-.46-.33-.9-.42-1.37-.29-1.56,0-3.13.89-4.86-1.62.19-3.23-.27-4.83-1.37-2.15-1.47-4.36-3.84-5.84-6.08.39,1.57.8,3.2,1.53,5.21.75,2.07,1.59,3.64,2.26,4.89,1.1,2.05,1.9,3.54,1.13,5.21-.54,1.19-1.74.75-2.26.56-1.04-.38-2.35-.85-4.32,2.29-.21.33-.48.66-.83.98.51.98.73,1.7.67,2.27-.01.13-.06.34-.12.66-.24,1.1-.85,3.89-.25,5.1.86,1.75,3.5,1.4,5.98.84.62-.14,2.42-1.56,2.21-2.93-.23-1.56-.82-2.47-1.21-3.07-.31-.48-.6-.94-.44-1.49.07-.23.24-.54.69-.75.48-.22.64-.3.72-.35.17-.09.19-.1.75-.29l.66-.23Z"/>
  <path class="cls-1" d="M173.88,102.72s-.08-.02-.12-.03c.04.07.07.15.11.22,0-.06,0-.13.01-.19Z"/>
  <path class="cls-1" d="M150.49,115.15c2.29.98,6.15,2.38,9.77,2.58-2.09-4.02-3.26-7.19-4.2-9.79-.98.88-1.97,1.87-2.96,2.96-1.08,1.19-1.96,2.62-2.61,4.25Z"/>
  <path class="cls-1" d="M168.68,131.03c-1.24-1.73-2.93-4.09-4.85-7.13-.94-1.49-1.82-2.96-2.61-4.39-4.17.05-8.65-1.56-11.3-2.68-1.05,3.75-.93,8.1.33,11.5,1.15,3.08,3.05,4.93,5.37,5.21,5.66.67,13.01.64,15.15.56-.4-.71-1.35-2.04-2.09-3.07Z"/>
  <polygon class="cls-1" points="156.95 106.68 156.95 106.68 157 106.66 156.99 106.65 156.95 106.68"/>
  <path class="cls-1" d="M164.58,95.66c-.37-.24-2.43-1.01-4.31-1.01-.98,0-1.77.2-2.34.61-2.74,1.93-1.92,6.64-1.02,9.69,4.32-3.32,8.66-4.82,13.2-4.55-1.45-1.7-3.34-3.32-5.53-4.73Z"/>
  <path class="cls-2" d="M322.7,123.84h-47.52c-5.58,0-7.64-1.07-8.26-1.53-.2-.15-.4-.21-.58-.22,2.01-.46,4.18-3.63,5.92-6.5.53-.88,1.01-1.63,1.48-2.36,2.05-3.21,3.53-5.53,6.47-13.84,2.21-6.24,2.68-8.95,1.72-10.17.38.2.81.05.97,0,1.51-.49,5.78-3.04,6.18-6.86.27-2.55-1.32-4.35-4.19-7.62-.11-.12-.35-.43-.69-.87-2.47-3.12-9.98-12.64-14.89-13.67-4.66-.98-7.99-1.36-9.9-1.12-.16-.38-.26-.76-.34-1.22-.34-2.1.4-3.5,1.27-5.13.91-1.7,1.84-3.47,1.66-6.14-.28-4.14-3.13-6.89-3.7-7.4-3.8-3.42-8.81-2.94-9.79-2.81-1.5.2-2.39.62-3.26,1.03-.91.43-1.85.87-3.69,1.07-1.15.12-2.05.09-2.8.07-1.17-.04-2.17-.08-2.72.84-.31.5-.36,1.17-.16,1.92.38,1.45,1.84,3.51,3.89,4.65.97.54,1.73.67,2.46.8.72.12,1.53.26,2.78.85.7.33,1.86.88,3.02,1.96,1.08,1,1.58,1.94,1.99,2.7.48.89.93,1.73,2.04,1.9,1.28.21,2.26-.65,3.05-1.34.22-.19.56-.49.77-.61.09.25.13.77.14.98.15,1.97-.94,4.13-1.84,4.25-.2.02-.36-.06-.67-.26-.37-.23-1-.62-1.77-.35-1.07.37-1.2,1.42-1.31,2.36-.1.8-.21,1.63-.8,2.23-.49.49-1.26.8-1.94,1.07-.68.27-1.32.52-1.74.96-.29-.02-.59,0-.88.06-.83.18-2.76.59-3.37.41-1.06-.33-1.08-.9-1-2.15.06-.93.13-2.1-.95-2.7-1.13-.62-4.92.15-7.57,1.91-6.02,4.01-10.08,9.95-11.1,12.19-.22.49-1.31,3.06-.88,5.85.38,2.47,1.96,4.75,4.7,6.79-.42.22-.79.48-1.11.79-4.75,4.53.45,12.93,3.29,17.53.29.47.55.89.77,1.27,1.06,1.79,3.44,4.72,5.98,7.85,2.43,2.99,5.16,6.36,6.74,8.78-1.97,1.26-8.11,4.38-22.84,6.34.46-.74.84-1.45,1.05-2.01,3.57-9.32,3.14-21.7,2.9-28.39-.05-1.51-.09-2.7-.08-3.5,0-.06.13-6.47-2.14-16.35-.3-1.29-.91-3.97-2.67-4.25-1.22-.2-1.98.83-2.77,1.92-.68.94-1.53,2.1-2.87,2.92-.83.51-1.78.84-2.82,1.01.74-.54,1.34-1.05,1.73-1.38,1.54-1.31,4.12-3.5,4.85-7,.53-2.55-.46-4.68-2.86-9.84l-.3-.64c-4.68-10.08-10.07-16.19-16.01-18.15-4.44-1.47-8.13-.28-10.45.98-2.19,1.19-3.2,3-4.26,4.9-2.46,4.43-2.96,7.69-2.55,16.59.29,6.33.82,7.67,2.15,8.25.02.01.05.02.07.03-1.35.27-2.32.59-2.56.78-3.36,2.82-3.86,6.86-4.05,8.38-.1.79-.1,1.42-.11,2.14-.03,2.47.29,4.14.55,5.49.09.46.16.85.21,1.22.35,2.61.14,4.02-.32,7.1-.1.67-.21,1.41-.33,2.26,0,.02,0,.05-.01.07-.57-.12-1.1-.22-1.52-.28-1.66-2.37-4.08-4.61-7.02-6.5-.57-.36-5.6-2.49-8.61-.36-2.87,2.03-3.39,6.4-1.48,12.32-1.2,1.04-2.42,2.23-3.64,3.57-.91,1-1.69,2.15-2.33,3.43-.01-.03-.03-.06-.04-.09-1.48-3.18-3.01-9.26-2.88-15.11.07-3.03.63-4.37,1.27-5.92.68-1.64,1.46-3.5,1.83-7.5.79-8.67-1.5-14.34-2.94-16.95-.45-.81-1.28-2.16-2.17-3.34-.08-.46-.17-.94-.28-1.47-.72-3.53-1.34-5.15-2-6.88-.52-1.37-1.07-2.78-1.68-5.35.52-3.42.64-9.69-4.21-14.04-2.56-2.3-5.39-3.42-8.43-3.39-1.85.03-4.64.56-7.45,2.91-2.71,2.26-3.65,5.02-4.65,7.94-1.49,4.38-1.78,8.51-1.91,10.29-.07,1.06-.1,1.99-.13,2.91-.08,2.55-.12,3.96-1.26,5.36-.35.44-.76.81-1.12,1.14-.76.7-1.48,1.35-1.17,2.29.29.89,1.22.87,1.97.87.68,0,1.54-.02,2.46.33.48.19,1.38.63,2.05,1.49.49.62.72,1.41,1.22,7.27l.05.53c.02.29.04.46.05.57.19,2.77,0,5.52-.64,9.21-.33,1.92-.67,3.44-.93,4.66-.68,3.1-1.02,4.65.17,6.19.06.07.12.14.18.21-1.44,1-2.59,1.82-2.99,2.1-.99.71-1.88,1.35-2.67,1.93-.15.11-.29.21-.44.32.46-.84.82-1.85.92-3.02.5-6.06-1.37-16.12-3.83-20.7-2.25-4.18-4.86-4.93-8.12-4.81-2.96.13-4.88,3.38-5.24,4.03-1.79,3.28-1.01,6.36.55,12.51l.46,1.8c2.85,11.38,4.42,17.64,3.72,21.23-.13.67-.3,1.37-.49,2.13-.66,2.68-1.28,5.21.23,6.23,1.19.8,2.75,0,3.69-.49l.16-.08c2.89-1.48,4.97-1.43,7.85-1.35,2.66.07,5.97.15,11.05-.9,1.85-.38,3.23-.77,4.35-1.11,4.39,2.54,9.84,4.68,12.29,5.59.19,3.89-3.68,7.49-3.72,7.53-1.67,1.5-7.98,3.49-15.66,4.2-6.5.6-12.39.76-18.54-3.49-.9-.62-2.09-1.43-3.48-2.36.14-.39.24-.79.28-1.18.58-5.43-7.43-9.5-14.25-11.96-3.69-1.33-8.68-2.04-12.69-2.61-1.79-.25-4.79-.68-5.17-.92-.71-.71.07-2.5,1.15-4.99,1.4-3.23,3.32-7.64,3.92-13.74.03-.3.06-.6.09-.96.17-1.92.31-3.59,1.48-5.32,1-1.48,2.1-2.11,4.35-3.39.74-.42,1.57-.9,2.53-1.48,2.21-1.35,3.03-2.03,3.92-2.76.78-.64,1.58-1.3,3.55-2.54,5.57-3.5,8.93-5.61,12.6-5.01,1.3.22,2.28.7,3.07,1.1,1.05.52,2.04,1.02,3.03.3,1.22-.88.86-2.41.46-4.18-.43-1.87-.97-4.2.13-6.39.42-.84.9-1.32,1.45-1.87.77-.76,1.64-1.63,2.32-3.51.37-1.01.55-1.96.69-2.7.13.3.28.68.47,1.16.46,1.2.66,2.12.79,2.73.15.69.31,1.41,1.09,1.41h0l.1.43.09-.44c.19-.04.45-.14.66-.44.62-.88.99-3.77.16-6.29-.69-2.1-1.93-3.41-3.04-4.42-3.87-3.48-7.68-4.95-11.3-4.35-3.9.64-7.35,3.59-10.26,8.77-.93,1.65-2.09,3.94-3.36,6.42-1.63,3.2-5.44,10.7-6.29,11.18-.53.1-.95-.33-1.92-1.46-1.02-1.19-2.41-2.82-4.87-3.92-.24-.1-.48-.2-.72-.29.86-.6,1.98-1.47,2.96-2.92.46-.68.7-1.22.92-1.69.27-.59.43-.95.95-1.39.47-.4.83-.53,1.22-.67.51-.18,1.14-.41,1.72-1.19.43-.58.58-1.12.69-1.56.11-.4.18-.69.48-1,.18-.19.28-.23.55-.32.25-.09.58-.21,1-.48,1.22-.79,1.75-1.92,2.08-2.66.23.55.51,1.47.61,2.62.09,1.1-.04,1.92-.13,2.42-.07.43-.2,1.22.6,1.46.01,0,.02,0,.04,0l-.03.28.14-.26c.23.03.52-.02.83-.31.7-.65,2.5-3.54,1.83-6.65-.79-3.67-4.45-5.21-7.98-6.69-.23-.09-.48-.21-.82-.38-2.48-1.18-7.63-3.64-12.31,2.36-.54.7-1.17,1.44-1.78,2.18-1.23,1.48-2.4,2.88-2.84,3.8-2.06,4.24-1.07,5.58-.36,6.56.38.52.51.7.17,1.48-.93,2.16-1.44,3.35-.92,4.45.3.62.76.98,1.35,1.19-.2.1-.4.22-.6.37-.33.24-.64.52-.91.85-.62.23-1.26.49-1.9.78l-.3.14c-3.05,1.35-4.48,5.33-7.31,13.25-.6,1.67-1.01,3.01-1.37,4.19-.83,2.71-1.29,4.2-2.97,6.09-.54.6-1.15,1.19-1.68,1.71-1.44,1.39-2.58,2.48-2.02,3.61.51,1.05,1.98.93,3.06.83.15-.01.3-.02.42-.03,5.71-.31,12.93,9.34,14.63,19.48.22,1.33.29,6.37-.61,7.29-.87.9-2.29.73-3.5.34,1.13-.39,1.92-.87,2.41-1.46,3.8-4.6-.45-14.38-4.98-19.67-2.97-3.47-7.33-5.22-9.09-4.41-3.3,1.52-.09,15.39-.05,15.52,1.58,5.28,3.73,6.95,6.21,8.89.13.1.26.2.39.29-1.39.13-2.7.17-3.58.16H0v1.75h48.56s2.97.04,5.88-.43c3.28,1.8,5.97,1.88,7.58.22,1.83-1.89,1.1-8.74,1.09-8.81-.85-5.04-3.11-10.29-6.21-14.4-3.27-4.34-7.01-6.72-10.25-6.54-.12,0-.25.02-.47.04-.54.05-.89.05-1.11.05.36-.44,1.08-1.14,1.43-1.48.53-.51,1.2-1.15,1.78-1.81,1.93-2.17,2.46-3.89,3.33-6.75.36-1.16.76-2.47,1.34-4.11,2.67-7.45,4-11.19,6.37-12.24l.18-.08c-.21.65-.36,1.35-.45,2.11-.43,3.69.74,7.75,2.98,10.33,2.28,2.63,6.36,4.54,8.87,3.32-.24.27-.47.57-.69.9-1.42,2.11-1.59,4.07-1.77,6.15l-.02.19c-.02.25-.04.5-.07.75-.58,5.82-2.43,10.09-3.79,13.22-1.35,3.12-2.33,5.37-.78,6.92.6.6,2.22.85,6.18,1.41,3.92.56,8.81,1.25,12.33,2.52,8.81,3.17,13.46,6.77,13.11,10.12-.01.12-.03.24-.06.36-11.18-7.34-25.04-15.23-28.85-12.14-1.46,1.19-2.07,4.19-1.53,7.64.87,5.61,4.29,10.11,9.15,12.02,6.06,2.39,13.9.82,18.51-1.97,1.49-.9,2.64-1.91,3.42-3,1.09.73,2.19,1.48,3.32,2.25,6.64,4.59,12.85,4.44,19.7,3.8,7.45-.69,14.46-2.65,16.67-4.65.18-.16,4.12-3.77,4.31-8.2.6.21,1.07.36,1.25.4,1.39.32,2.43.18,3.18-.4,1.1-.86,1.15-2.4,1.18-3.53,0-.36.03-1.02.11-1.17.88-1.32,1.75-1.85,2.46-2.25-1.14,4.11-1.01,8.86.37,12.58,1.39,3.73,3.8,5.99,6.8,6.34,6.37.76,15.77.69,16.41.46.4-.15.69-.44.81-.82.3-.97-.53-2.12-2.53-4.92-1.22-1.71-2.89-4.04-4.79-7.05-.77-1.22-1.5-2.43-2.17-3.6.82-.13,1.58-.33,2.26-.61l.66-.27c2.54-1.02,5.96-2.41,8.77-4.43,1.58,2.43,3.9,4.09,5.58,4.68,1.07.38,2.02.41,2.76.08.34.46.68.96,1.04,1.54-.19.27-.4.52-.61.74l-.14.15c-.85.87-2.85,2.9-2.54,5.45.27,2.22,2.19,3.68,3.83,4.71,4.88,3.05,10.4,6.51,16.67,6.51,1.99,0,3.98-.36,5.92-1.05,4.32-1.56,7.25-4.36,8.98-6.5,11.47-1.41,20.77-3.91,25.14-6.75.33.67.34.93.33,1,0,.08-.05.28-.11.51-.31,1.44-.97,4.43-.1,6.2,1.59,3.24,6.04,2.21,7.95,1.77,1.27-.29,3.92-2.45,3.55-4.9-.28-1.87-.98-3.01-1.43-3.7.14-.07.22-.11.28-.14.09-.05.09-.04.5-.19l.67-.23c1.57-.55,2.01-1.94,2.39-3.16.24-.75.46-1.47.92-2.08.5.89.91,1.74.95,3.24.02.91-.11,1.49-.24,2.06-.17.77-.34,1.49-.02,2.59.76,2.65,3.5,4.41,5.87,4.97,2.28.54,5.88.4,6.75-1.59.52-1.2.16-2.82-1.12-5.06,1.72.45,3.96.69,6.57.69h47.52c.48,0,.88-.39.88-.88s-.39-.88-.88-.88ZM131.83,116.32c.79.2,4.54,1.29,5.95,4.3-2.2-.85-5.97-2.4-9.43-4.24,1.22-.33,2.12-.41,3.48-.06ZM132.26,114.62c-2.31-.58-3.72-.15-5.87.51l-.17.05c-3.6-2.17-4.59-3.58-4.77-4.39-.32-1.38-.09-2.5.69-3.33,1.38-1.46,4.32-1.88,6.4-1.54,4.38.73,9.08,3.11,16.22,8.21.45.32,1.11.72,1.89,1.14-.68.45-1.53,1.15-2.33,2.37h0c-.36.54-.38,1.26-.41,2.09-.02.82-.05,1.85-.5,2.2-.3.23-.91.26-1.72.07-.2-.05-.79-.23-1.8-.59-.04-.2-.1-.4-.16-.61-1.38-4.44-6.46-5.93-7.46-6.19ZM120.87,106.26c-1.21,1.28-1.58,2.94-1.12,4.93.33,1.43,1.72,2.95,4.25,4.65-.72.19-1.62.42-2.69.64-4.89,1.01-8.09.93-10.66.87-3.02-.08-5.39-.14-8.69,1.54l-.16.08c-.39.2-1.58.81-1.9.59-.5-.34.17-3.05.49-4.36.18-.73.36-1.49.5-2.21.75-3.81-.61-9.49-3.74-21.99l-.46-1.81c-1.49-5.88-2.18-8.57-.71-11.24.17-.31,1.72-3.03,3.78-3.12.21,0,.41-.01.61-.01,2.34,0,4.14.65,5.89,3.91,2.34,4.35,4.1,13.93,3.63,19.72-.19,2.29-1.75,3.84-2.68,4.76-.58.57-.93.92-.93,1.44,0,.16.04.31.1.44l-1.73,1.72,2.09-1.32c.81.59,1.85-.16,5.46-2.8.78-.57,1.67-1.21,2.65-1.92.43-.31,1.74-1.24,3.35-2.35.1.11.2.23.3.37.86,1.15,1.1,2.31,1.28,3.17.17.83.35,1.68,1.23,1.83,1.02.16,1.5-.82,2.01-1.87.55-1.14,1.29-2.69,2.65-3.2.52-.2.84-.14,1.47-.03.42.07.9.16,1.54.18,2.79.09,4.99-1.45,9.28-4.53l.1-.07c.89-.64,1.68-1.21,2.39-1.74.93-.25,1.57-.67,1.98-1.31.12-.17.22-.37.3-.57,1.07-1.01,1.69-1.94,2.03-2.99.77-2.38.19-4.42-.23-5.91l-.03-.12c-.24-.86-.48-1.77-.71-2.69.14-.05.27-.12.39-.19,1.52-.95,1.36-3.39,1.03-8.27-.06-.84-.11-1.59-.17-2.31.05.08.09.16.14.24,1.34,2.43,3.47,7.74,2.73,15.94-.34,3.73-1.06,5.46-1.7,6.98-.69,1.64-1.33,3.19-1.41,6.56-.14,6.17,1.43,12.42,3.05,15.89.03.06.05.11.07.15-.9-.46-1.67-.91-2.13-1.24-7.37-5.26-12.28-7.73-16.95-8.51-2.51-.42-6.07.05-7.96,2.07ZM137.75,93.87h0s0,0,0,0ZM131.69,92.15c.4,1.06,1.66.99,4.04.88.4-.02.78-.04,1.14-.06-3.93,2.82-5.92,4.24-8.14,4.16-.52-.02-.94-.09-1.31-.16-.73-.12-1.41-.24-2.38.12-2.01.76-2.94,2.68-3.62,4.11,0,0,0,.02-.01.03-.21-.93-.56-2.19-1.51-3.46-.08-.11-.17-.21-.25-.31,1.5-1.02,2.79-1.87,3.85-2.53,3.25-2.02,6.41-3.59,8.95-4.67-.67.63-1,1.25-.76,1.9ZM130.49,70.2c-.67-1.29-1.59-3.06-2.25-6.51-.43-2.25-.78-4.08-.83-5.77.32.66.78,1.52,1.4,2.68l.13.24c2.05,3.86,2.93,6.07,3.63,7.85.71,1.78,1.21,3.07,2.47,4.97,1.8,2.71,4.73,4.95,6.96,5.38.28,1.16.55,2.21.79,3.06l.04.13c.36,1.28.85,3.02.24,4.9-.06.18-.13.36-.22.53-.02-.08-.04-.16-.06-.24-.42-1.48-1.33-2.69-2.45-3.22-1.44-.69-2.75-.13-5.13.88l-1.18.5c-1.72.72-3.15,1-4.3,1.22-1.39.27-2.63.51-3.61,1.41.12-1.05.35-2.33.69-3.61.77-2.85,1.8-4.23,2.7-5.45.87-1.18,1.7-2.29,1.98-4.29.3-2.11-.28-3.24-1.02-4.66ZM129.93,45.41c-.12-.63-.23-1.17-.12-2.12.14-1.16.84-4.27,2.46-4.69.12-.03.25-.05.38-.05.55,0,1.49.27,2.84,1.54,1.62,1.53,1.89,3.06,2.43,6.11.22,1.24.47,2.65.86,4.35-.1.63-.21,1.12-.29,1.43-.92-.59-2.28-.27-3.21.22-.58.3-1.05.57-1.46.81-.45.26-.84.49-1.3.71-.38.18-.62.55-.62.99-.02.98,1.22,2.15,1.89,2.5.03.02.08.04.13.08.45.28,1.38.85,2.47.68.23-.04.45-.09.66-.17,0,.48.03.86.05,1.19.04.57.04.72-.01.77-.35.39-1.68.16-2.65,0-.66-.11-1.76-.29-2.96-1.01-1.39-.83-2.21-1.94-2.65-2.55-.21-.29-.56-.76-1.05-.76-.06,0-.11,0-.17.02.1-.52.25-1.03.44-1.55.24-.64.51-1.18.78-1.71.58-1.16,1.18-2.36,1.29-4.29.07-1.13-.07-1.85-.2-2.49ZM136.12,56.23c-.45.07-.99-.26-1.29-.45-.09-.05-.17-.1-.23-.13-.26-.13-.54-.41-.73-.65.28-.15.55-.31.83-.47.41-.24.84-.49,1.39-.77.59-.31,1.32-.4,1.41-.36.03.12-.07.67-.12.97v.03c-.07.34-.14.73-.2,1.18-.3.38-.65.59-1.06.65ZM126.52,90.68c.12-.23.28-.52.48-.81.64-.87,1.56-1.04,3.09-1.34,1.23-.24,2.75-.54,4.62-1.32l1.2-.51c1.62-.69,2.48-1.04,3.1-1.04.22,0,.41.04.59.13.65.31,1.25,1.14,1.52,2.11.18.63.21,1.26.08,1.77-.42.37-.91.77-1.54,1.25-.91.19-2.25.26-4.08.35-.47.02-1.19.06-1.72.07.41-.33,1.13-.84,2.41-1.65,1.51-.95,2.19-1.39,1.93-2.13l1.07-.69-1.24.38c-.12-.16-.3-.28-.5-.33-.92-.27-5.9,1.43-11.59,4.54.28-.2.45-.54.58-.78ZM143.36,77.15c-.62-2.69-1.14-5.4-1.48-7.69-.56-3.81-.47-5.37-.37-5.98.27.22.73.66,1.36,1.46.33,2.01.43,3.47.57,5.66h0c.2,3.02.39,5.87-.1,6.55ZM140.73,61.66c-2,.9-.71,8.69.82,15.42-1.54-.64-3.65-2.29-5.04-4.38-1.16-1.74-1.64-2.96-2.31-4.65-.71-1.78-1.58-3.99-3.57-7.76,1.46.86,2.79,1.08,3.51,1.2,1.53.25,3.25.55,4.25-.56.56-.62.51-1.29.46-2.07-.02-.3-.05-.67-.05-1.14,0-.51.02-1,.07-1.51.42-.67.68-1.44.88-2.12.3.92.59,1.67.87,2.42.55,1.43,1.07,2.79,1.66,5.4-.59-.37-1.1-.46-1.55-.25ZM143.95,70.57h0,0ZM118.17,91.23c.27-1.24.61-2.78.95-4.73.66-3.83.86-6.71.66-9.62,0-.13-.03-.36-.06-.77l-.03-.37c-.5-5.89-.74-7.12-1.58-8.2-.93-1.19-2.15-1.8-2.79-2.05-1.04-.41-1.99-.46-2.71-.46h-.11s.08-.07.12-.1c.38-.35.86-.79,1.3-1.33,1.51-1.86,1.57-3.77,1.65-6.44.02-.82.05-1.76.13-2.82.12-1.7.4-5.68,1.82-9.83.91-2.68,1.78-5.21,4.11-7.16,2.41-2.01,4.79-2.47,6.35-2.5,2.35-.02,4.58.78,6.65,2.46-.98-.49-1.91-.63-2.79-.41-3.06.79-3.7,5.64-3.76,6.19-.14,1.21,0,1.98.14,2.66.11.59.22,1.14.17,2.05-.09,1.57-.54,2.47-1.11,3.62-.27.54-.58,1.15-.85,1.88-1.29,3.43-.73,6.33.11,10.73.71,3.7,1.7,5.6,2.42,6.99.69,1.32,1.07,2.05.84,3.61-.22,1.56-.83,2.37-1.66,3.5-.95,1.28-2.12,2.87-2.98,6.04-.52,1.91-1.23,5.92-.62,6.97.12.21.31.37.53.45v.22s.1-.18.1-.18c.22.05.4.04.56-.02-1.04.57-2.09,1.19-3.15,1.85-1.17.73-2.62,1.68-4.29,2.82-.09-.08-.17-.16-.26-.28-.69-.89-.46-1.93.15-4.73l-.49-.11h0s.49.1.49.1ZM185.68,129.92c-1.39-.87-2.83-1.96-3.02-3.43-.21-1.72,1.37-3.32,2.05-4.01l.15-.16c.1-.1.2-.21.3-.33.9,1.59,1.75,3.1,3.2,4.43,4.24,3.92,12.57,5.17,16.09,4.98,3.17-.17,6.27-.42,9.23-.73-1.57,1.61-3.88,3.44-6.94,4.54-8,2.89-14.94-1.46-21.06-5.29ZM184.5,114.32c-.05-1.23-.11-2.76-.04-4.8.12-3.48.52-5.85.89-7.94.06-.35.12-.69.17-1.03,1.31,8.29,1.19,14.34-.35,18.05-.27-.4-.54-.77-.82-1.12.23-.75.19-1.74.14-3.15ZM204.35,129.65c-3.15.17-11-1.01-14.8-4.52-1.25-1.16-2.04-2.55-2.88-4.04-.13-.24-.27-.48-.41-.73,2.66-4.93,2.5-14.23-.45-27.61l-.06-.48c-.36-2.91-1.11-5.59-1.66-5.98-.2-.14-.46-.2-.7-.14-.23.05-.43.2-.56.4-.22.35-.21.39.24,2.18.37,1.48.7,2.91,1,4.25.38,3.48.01,5.61-.46,8.3-.37,2.14-.79,4.57-.91,8.18-.07,2.12,0,3.74.04,4.93.02.52.04.96.04,1.34-.64-.62-1.34-1.2-2.11-1.74-.63-.45-1.08-.71-1.41-.9-.5-.29-.77-.45-1.22-.94-.16-.17-.32-.36-.47-.55,1.83-2.17,2.45-4.56,1.86-7.13-.3-1.31-1.53-2.33-3.64-3.03.01-.1.03-.19.04-.29.12-.84.23-1.58.33-2.25.49-3.25.71-4.74.33-7.6-.05-.41-.14-.84-.23-1.33-.24-1.27-.54-2.85-.52-5.16,0-.69.02-1.23.1-1.92.16-1.32.6-4.81,3.36-7.18.66-.25,4.54-1.23,8.22-.85,2.16.22,3.76,1.3,6.93,3.44,1.66,1.12,2.52,1.88,3.16,2.43.83.73,1.34,1.17,2.51,1.44,1.63.38,3.4.18,5.25-.6,1.84.2,4.47.14,6.81-1.29,1.64-1,2.6-2.32,3.38-3.39.29-.4.89-1.22,1.07-1.22,0,0,0,0,0,0,.14.02.64.3,1.24,2.91,2.17,9.46,2.1,15.65,2.1,15.91-.02.86.02,2.09.08,3.65.23,6.52.66,18.66-2.79,27.65-.17.45-.73,1.55-1.78,2.93-3.47.41-7.17.72-11,.93ZM181,117.08c-1.44-.51-3.43-1.97-4.78-4.12.04-.03.07-.07.11-.1.14.17.28.33.42.49.63.67,1.07.92,1.62,1.25.32.19.72.42,1.28.82.82.58,1.55,1.2,2.21,1.87-.25-.02-.55-.09-.86-.2ZM176.62,110c-.83-1.81-1.17-4.08-1.01-6.78,1.24.46,1.96,1.02,2.1,1.63.43,1.86.07,3.55-1.09,5.15ZM204.97,79.75c-.56-.08-1.01-.19-1.29-.27-.43-.12-.78-.24-1.1-.4-2-.95-4.4-2.25-7.62-5.56-1.65-1.69-2.35-2.67-2.81-3.32-.51-.72-.85-1.19-1.81-1.47-.4-.12-.82-.18-1.24-.18-1.82,0-3.43,1.09-4.86,2.06-1.17.79-2.26,1.54-2.91,1.25-.57-.25-.9-2.26-1.11-6.73-.39-8.51.07-11.58,2.33-15.66.98-1.75,1.82-3.27,3.56-4.21,2.01-1.09,5.21-2.12,9.06-.85,5.46,1.81,10.5,7.6,14.98,17.23l.3.65c2.29,4.92,3.14,6.76,2.73,8.74-.61,2.92-2.81,4.79-4.27,6.03-.77.66-2.2,1.87-3.94,2.7ZM185.23,72.07c1.52-1.03,3.09-2.09,4.62-1.65.36.1.4.16.87.81s1.25,1.74,2.98,3.52c3.34,3.43,5.86,4.83,7.97,5.84-.48,0-.86-.04-1.27-.14-.75-.18-1.02-.42-1.76-1.06-.67-.58-1.59-1.38-3.33-2.56-3.41-2.3-5.13-3.46-7.73-3.72-.64-.07-1.29-.09-1.94-.09-.69,0-1.38.03-2.05.09.55-.29,1.1-.66,1.64-1.03ZM155.62,133.54c-2.32-.28-4.22-2.13-5.37-5.21-1.26-3.4-1.38-7.75-.33-11.5,2.64,1.12,7.13,2.73,11.3,2.68.79,1.43,1.67,2.9,2.61,4.39,1.92,3.04,3.62,5.41,4.85,7.13.74,1.03,1.69,2.36,2.09,3.07-2.13.08-9.49.11-15.15-.56ZM156.95,106.68h0s.04-.03.04-.03h0s-.05.03-.05.03ZM156.91,104.94c-.9-3.05-1.71-7.76,1.02-9.69.57-.4,1.36-.61,2.34-.61,1.88,0,3.95.78,4.31,1.01,2.19,1.41,4.08,3.03,5.53,4.73-4.54-.27-8.88,1.23-13.2,4.55ZM156.07,107.93c.93,2.6,2.1,5.77,4.2,9.79-3.62-.2-7.48-1.6-9.77-2.58.65-1.64,1.53-3.07,2.61-4.25.99-1.09,1.99-2.08,2.96-2.96ZM162.23,117.7c-2.44-4.54-3.63-7.88-4.68-10.83l-.06-.16c4.58-3.68,9.15-5.12,13.95-4.42h.07c.67,1.08,1.16,2.15,1.44,3.19.37,1.38.34,2.2.3,3.07-.04.98-.08,2,.55,3.55.06.15.12.29.19.44-2.61,1.91-6.05,3.3-8.58,4.32l-.66.27c-.74.3-1.58.49-2.52.58ZM173.88,102.72c0,.07,0,.13-.01.19-.04-.07-.07-.15-.11-.22.04,0,.08.02.12.03ZM257.81,117.6c1.45-.68,3.35-.64,4.52.15.82.55,1.1,1.39,1.37,2.2.28.85.61,1.81,1.63,2.12.23.07.47.09.71.07-.12.04-.22.11-.31.19-.56.53-.18,1.08.1,1.48,2.5,3.59,2.51,4.96,2.29,5.46-.33.75-2.76,1.05-4.73.59-1.88-.45-4.02-1.78-4.59-3.75-.19-.67-.1-1.07.04-1.72.14-.6.31-1.36.28-2.49-.05-2.05-.74-3.29-1.31-4.29ZM250.39,123.16c-.45.2-.62.52-.69.75-.16.55.13,1.01.44,1.49.39.6.97,1.51,1.21,3.07.21,1.37-1.59,2.79-2.21,2.93-2.47.57-5.12.91-5.98-.84-.6-1.22,0-4,.25-5.1.07-.32.11-.53.12-.66.06-.57-.15-1.29-.67-2.27.35-.33.62-.66.83-.98,1.97-3.15,3.28-2.67,4.32-2.29.51.19,1.72.63,2.26-.56.76-1.68-.03-3.16-1.13-5.21-.67-1.26-1.51-2.82-2.26-4.89-.73-2.01-1.14-3.64-1.53-5.21,1.48,2.23,3.68,4.6,5.84,6.08,1.6,1.1,3.22,1.56,4.83,1.37-.89,1.73-1.18,3.29-.89,4.86.09.47.22.91.42,1.37-1.02.99-1.4,2.21-1.72,3.2h0c-.37,1.17-.59,1.78-1.3,2.04l-.66.23c-.55.19-.57.2-.75.29-.08.05-.24.13-.72.35ZM241.18,65.64c.96.3,2.56,0,4.26-.38.03,0,.05-.01.08-.01.18.86.78,1.42,1.06,1.68.86.8,1.78,1.43,2.74,1.87,1.11,1.45,2.52,2.89,4.53,2.91,1.36,0,2.81-.7,4.09-1.98,1.8-1.8,2.95-4.43,2.93-6.69,0-1.01-.24-1.68-.54-2.27,1.82.02,4.96.39,8.62,1.16,4.28.9,11.5,10.03,13.88,13.04.38.48.62.79.75.94,2.74,3.12,3.94,4.57,3.77,6.28-.14,1.38-1.12,2.68-2.29,3.69.04-.17.08-.33.1-.5.47-3.26-2.76-5.97-3.13-6.27-3.46-2.8-6.01-2.43-9.51-.78l-.14.07c-.27.14-.74.38-1.32.43-.11-.17-.23-.33-.35-.49-.52-.7-.96-1.31-.79-2.23.3-1.63.72-2.36.93-2.71.15-.25.49-.84.02-1.38-.41-.47-1.1-.53-1.87-.18-1.19.55-2.96,2.37-2.6,4.92.23,1.66,1.57,3.14,3.27,3.66-.03.03-.06.07-.11.11-.26.24-.73.59-1.19.93-1.75,1.3-3.57,2.64-2.8,4.04.06.11.14.21.23.3-.16-.05-.32-.1-.48-.15-1.53-.47-2.56-.48-4.81-.49h-1.01c-1.96-.02-3.32-.07-4.33-.1-2.18-.06-2.7-.08-3.69.41-.15.07-.3.16-.47.25-.32.17-.63.34-.95.45-.7-.28-1.49-.39-2.24-.35-.05-.03-.1-.06-.15-.09-.14-.08-.26-.17-.38-.23-1.09-.61-2.14-1.4-3.11-2.35-.19-.38-.55-.75-1.11-1.18-.8-.93-1.41-1.81-1.8-2.38-.16-.24-.3-.43-.41-.58-4.41-5.91-6.14-6.63-7.06-6.66-.47,0-.92.17-1.23.54-.46.54-.24,1.17,1,2.81.66.88,1.8,2.24,3.45,3.76,1.49,1.36,2.81,2.31,3.87,3.08.33.24.65.47.93.68.16.18.33.37.51.56-.33.08-.79.16-1.06.2-1.31.2-2.93.45-3.49,1.8-.62,1.51,1.05,2.8,2.27,3.75.05.04.13.1.21.17-.43-.01-1.01-.06-1.73-.17-2.09-2.15-4.56-3.56-7.14-4.07-1.12-.22-2.75-.43-4.34-.2-3.03-1.93-4.74-4.09-5.1-6.41-.35-2.29.56-4.45.74-4.86.62-1.36,4.21-7.28,10.47-11.46,2.25-1.5,5.27-2,5.74-1.84.11.06.07.76.05,1.06-.07,1.19-.19,3.18,2.24,3.93ZM252.17,59.44c.03-.26.09-.71.16-.88.08.04.2.12.26.15.39.25.98.61,1.83.51,1.25-.17,2.24-1.29,2.81-2.72-.03.52,0,1.08.1,1.67.09.55.22,1.04.41,1.51-.09.07-.17.16-.24.25-.41.54-.3,1.11-.22,1.58.08.41.18.93.05,1.74-.06.39-.23,1.16-.67,1.93-.33.59-1.31,2.03-3.09,2.55-.01,0-1.33.37-3.14-.34l-.41-.56c-.66-.9-1.33-1.83-2.13-2.48.14-.06.29-.12.43-.18h0c.84-.34,1.8-.71,2.54-1.47,1.02-1.03,1.18-2.31,1.3-3.25ZM257.13,40.51c.48.43,2.88,2.76,3.12,6.22.15,2.17-.63,3.64-1.46,5.2-.35.65-.71,1.33-1,2.08.02-.31.01-.62,0-.92-.06-.81-.16-2.04-1.15-2.51-.22-.1-.43-.15-.64-.15-.76,0-1.44.59-2.02,1.09-.58.5-1.16.99-1.62.93-.21-.04-.34-.2-.77-1.01-.44-.82-1.04-1.94-2.33-3.15-1.36-1.26-2.73-1.91-3.47-2.26-1.46-.69-2.4-.85-3.23-1-.7-.12-1.2-.21-1.91-.6-1.54-.86-2.76-2.49-3.05-3.57-.1-.37-.08-.52-.07-.52.13-.07.75-.05,1.2-.03.74.03,1.77.06,3.05-.08,2.14-.23,3.21-.74,4.26-1.23.81-.38,1.51-.71,2.74-.88.83-.11,5.14-.53,8.38,2.38ZM256.69,68.49c-.94.94-1.95,1.46-2.86,1.46-.44,0-.86-.13-1.29-.39.91,0,1.49-.15,1.53-.16,2.41-.7,3.69-2.59,4.13-3.38.57-1.02.79-2.01.87-2.52.01-.1.03-.19.04-.28-.04,1.78-.98,3.83-2.42,5.26ZM258.52,60.7h0s-.02-.01-.02-.01h.02ZM264.59,103.26c1.15-1.15,2.36-2.28,3.46-3.23-.91.96-2.07,2.06-3.46,3.23ZM254.6,90.65c-.05-.18-.07-.39-.05-.6.04-.49.31-.85.58-1.19.02-.03.04-.05.06-.08-.31.55-.57,1.23-.58,1.87ZM251.53,87.94c.02-.08.03-.18.03-.28,0-.09-.01-.17-.04-.26.11-.06.22-.11.32-.17.14-.07.27-.14.4-.21.37-.18.58-.25,1.21-.26-.68.16-1.42.54-1.93,1.18ZM250.9,89.48c-.02.09-.06.31-.05.33-.04.02-.19.02-.28-.05-.14-.11-.14-.55,0-.81.06-.11.14-.16.3-.25.08-.05.21-.12.33-.23-.18.38-.25.73-.3,1.01ZM249.5,91.15c.64.49,1.55.56,2.22.18.69-.4.82-1.07.9-1.52.06-.29.11-.54.27-.76.05-.07.11-.13.17-.18-.13.31-.24.66-.27,1.06-.05.66.11,1.38.4,1.96-.24.13-.45.28-.64.45-.68.62-.97,1.26-.85,1.89.08.46.35.79.71,1.05-.57-.23-1.19-.49-1.81-.77-1.26-.57-2.29-1.13-3.07-1.67-1.16-.79-1.74-1.19-1.93-1.7-.39-1.01.05-2.62,1.21-3.28.19-.11.41-.19.64-.25.45.22.88.35,1.34.4.09,0,.18.02.26.02,0,.01-.02.03-.03.04-.52.93-.49,2.33.46,3.06ZM260.63,89.65c-.57.46-.6,1.12-.62,1.56,0,.1,0,.35.03.31-.1.04-.49-.02-.65-.23-.12-.16-.19-.58.18-1.68.1-.3.19-.58.01-.92-.11-.21-.3-.37-.52-.43-.09-.03-.18-.04-.27-.04-.15,0-.29.04-.42.1-.34.18-.43.46-.53.82-.44,1.49-.81,1.79-.99,1.84h0c.48-1.01.77-2.06.77-2.06.12-.45.34-1.27-.38-1.63-.29-.14-.73-.19-1.24.34-.11.12-.3.35-.5.65.13-.3.17-.66-.07-1.03-.1-.16-.28-.33-.57-.45.09,0,.19,0,.29,0,1,.03,2.36.07,4.31.09h1.02c2.26.02,3.03.02,4.31.42,1.2.37,2.21.72,2.37,1.32.18.69-.48,1.76-1.25,2.01-.7.23-1.6-.24-2.4-.66-.94-.49-2.01-1.04-2.88-.33ZM241.98,94.26c-.57-1.03-1.18-1.99-1.83-2.86,1.31.03,2.1-.22,2.42-.79.55-.96-.43-1.72-1.47-2.52-.47-.37-1.73-1.34-1.72-1.69.18-.43,1.35-.61,2.14-.73.82-.13,1.6-.25,2.15-.62.63.55,1.29,1.05,1.97,1.49-1.75,1.22-2.29,3.62-1.67,5.24.39,1.01,1.21,1.57,2.57,2.51.86.59,1.98,1.2,3.33,1.82,2.05.94,4.12,1.64,4.52,1.78.21.07.45.05.65-.04.86-.41,1.83-1.01,1.73-1.97-.1-.97-1.12-1.27-2.11-1.55-.29-.08-.92-.27-1.18-.42.04-.06.12-.15.25-.27,1.04-.95,3.65-.64,5.09.6.21.18.36.35.5.5.32.35.71.78,1.43.87.14.02.28.02.42,0-.75,1.12-1.88,2.39-3.41,3.04-2.82,1.18-5.86.1-8.3-.78-1.33-.48-2.56-.91-3.59-.91-.66,0-1.24.18-1.73.64-.15.14-.27.3-.36.49-.45-1.15-1.02-2.4-1.8-3.82ZM262.59,92.4c-.96,1.37-1.46,1.48-1.63,1.46-.05,0-.09-.03-.34-.31-.08-.09-.17-.19-.28-.3.23-.04.44-.12.63-.25.71-.46.76-1.23.78-1.7,0-.05,0-.13.01-.2.25.08.66.3.94.44.18.09.37.19.58.29-.36.07-.51.3-.7.56ZM237.05,77.02c-.48-.49-.9-.95-1.26-1.38.36.37.78.82,1.26,1.38ZM234.69,88.61c-.22-.07-.44-.13-.66-.2-.79-.25-2.11-.71-3.6-1.38.22.03.42.07.6.11,1.27.25,2.5.75,3.66,1.47ZM268.39,74.81c-.07.29-.15.62-.21.97-.04.23-.06.45-.07.67-.08-.66.07-1.21.28-1.64ZM226.69,87.07c3.05,1.83,7.07,3.33,10.82,4.02l.14.03c1.01,1.12,1.95,2.46,2.79,3.99,1.91,3.47,2.48,5.79,3.15,8.49.42,1.68.85,3.41,1.63,5.58.8,2.2,1.67,3.82,2.37,5.13.91,1.69,1.35,2.58,1.18,3.35-.05-.02-.1-.04-.16-.06-1.19-.44-3.68-1.34-6.41,3.01-.07.11-.17.23-.28.36-1.49-2.26-3.95-5.33-6.78-8.81-2.47-3.05-4.81-5.93-5.81-7.6-.24-.4-.52-.87-.84-1.37-2.53-4.09-7.24-11.71-3.52-15.26.41-.4.99-.68,1.7-.86ZM258.6,109.96c.99-.54,1.82-1.21,2.49-1.77.3-.24.55-.45.78-.61,6.04-4.28,10.38-9.09,10.51-10.72.03-.32-.07-.62-.27-.84l.06-.13-.12.07c-.18-.17-.43-.26-.71-.26h0c-1.65.03-7.73,6.03-8.86,7.21-1.91,2-3.71,3.88-5.04,5.67-1.78.84-3.45.65-5.26-.59-3.04-2.08-6.68-6.78-6.85-8.83-.02-.23.02-.3.02-.3.46-.44,2.09.14,3.53.66,2.72.97,6.11,2.18,9.56.74,4.18-1.75,5.86-6.91,5.91-7.44.02-.22-.03-.43-.14-.6.7.24,1.48.34,2.26.08,1.65-.55,2.81-2.56,2.39-4.13-.22-.81-.79-1.35-1.48-1.74.21.04.44.07.66.11.43.06,1.44.21,1.61.41.64.75.58,1.64.54,2.51-.04.76-.09,1.55.49,2.09.39.36.94.49,1.68.38,2.31-.32,4.18-.79,5.56-1.15,1.05-.27,2.36-.6,2.63-.47.18.17.56,1.29-1.99,8.5-2.87,8.12-4.31,10.37-6.3,13.49-.47.73-.95,1.49-1.49,2.39-3.65,6.01-4.89,5.73-4.95,5.7-.15-.04-.35-.64-.46-.99-.31-.93-.74-2.21-2.05-3.1-.88-.59-2.04-.92-3.29-.92-1.05,0-2.09.23-2.99.66-.08-.22-.14-.44-.18-.67-.29-1.58.27-3.3,1.75-5.39ZM281.55,88.86c-.86-.6-2.09-.28-4.07.22-1.39.35-3.12.8-5.36,1.11-.08.01-.15.02-.2.02,0-.18,0-.47.02-.66.06-.97.14-2.45-.94-3.74-.59-.7-1.66-.86-2.7-1.01-.22-.03-.7-.1-1.02-.18.24-.28.81-.8,2.16-1.8.5-.37.98-.73,1.3-1.03.43-.4.69-.82.77-1.27.77-.12,1.35-.42,1.66-.58l.1-.05c3.03-1.43,4.86-1.69,7.65.56.29.23,2.82,2.36,2.49,4.66-.16,1.13-.95,1.88-1.43,2.34-.21.2-.82.79-.43,1.41ZM74.77,133.44c-6.33-2.5-7.77-8.79-8.06-10.66-.47-3.04.12-5.37.91-6.01.28-.23.73-.34,1.35-.34,3.99,0,13.55,4.74,25.62,12.7-.64.86-1.62,1.71-2.87,2.46-4.24,2.57-11.42,4.02-16.95,1.84ZM63.38,80.54c-1.93-2.23-2.94-5.75-2.56-8.98.15-1.31.54-2.48,1.11-3.31,3.83-1.29,7.03-.82,9.53,1.4h0c1.85,1.64,3.28,2.22,4.23,2.61.43.18.81.33.89.45.33,1.14-5.23,9.82-6.26,10.63-1.3.85-4.76-.27-6.94-2.79ZM86.17,52.66c-.22-1.35-.83-3.81-2.31-3.83h0c-.88,0-1.24.82-1.5,1.42-.28.64-.63,1.44-1.47,1.99-.25.16-.43.23-.64.3-.34.12-.75.27-1.23.76-.61.63-.76,1.23-.91,1.76-.1.36-.17.65-.41.97-.26.35-.47.43-.89.58-.45.16-1.06.38-1.77.98-.82.7-1.1,1.33-1.41,2.02-.18.4-.39.86-.77,1.42-.94,1.4-2.11,2.2-2.88,2.72-.32.22-.65.41-.98.57-1.24-.21-2.39-.22-3.37-.22h-.4c-1.54,0-2.46-.02-2.67-.46-.18-.39.29-1.49.95-3.01.74-1.71.13-2.54-.37-3.22-.53-.72-1.08-1.47.52-4.76.35-.73,1.51-2.11,2.63-3.47.61-.73,1.24-1.49,1.79-2.2,3.8-4.88,7.64-3.06,10.17-1.85.32.15.63.3.9.41,3.12,1.31,6.34,2.66,6.94,5.44.12.58.13,1.15.07,1.68ZM72.62,68.33c-1.11-.98-2.33-1.68-3.67-2.09.09-.03.18-.06.27-.1.76.16,1.47.39,2.15.69,2.1.94,3.29,2.33,4.25,3.46.01.02.03.03.04.05-.8-.36-1.8-.9-3.04-2.01ZM78.26,72.34c.29.05.59.06.93,0,1.39-.25,3.27-3.7,7.56-12.13,1.23-2.42,2.4-4.71,3.31-6.33,2.64-4.69,5.67-7.35,9.01-7.9,3.09-.51,6.39.81,9.85,3.92.95.85,1.99,1.95,2.55,3.66.12.36.2.72.26,1.06-.63-1.62-1.24-2.96-2.32-2.83-.96.1-1.14,1.06-1.34,2.19-.13.72-.29,1.62-.64,2.58-.55,1.51-1.18,2.14-1.91,2.86-.58.57-1.23,1.22-1.78,2.33-1.38,2.76-.73,5.54-.26,7.58.22.96.5,2.17.22,2.37-.13.09-.73-.21-1.22-.46-.84-.42-2-1-3.56-1.25-4.34-.72-7.9,1.53-13.82,5.25-2.06,1.3-2.91,1.99-3.73,2.67-.83.68-1.61,1.32-3.72,2.61-.97.59-1.81,1.07-2.55,1.49-1.25.71-2.22,1.26-3.05,1.92,1.92-2.38,6.58-8.96,6.21-11.59ZM46.34,100.55s.13-.05.35-.05c1.31,0,4.35,1.27,6.68,4,4.64,5.43,7.75,14.03,4.96,17.41-.47.57-1.73,1.06-3.55,1.4-.65-.39-1.3-.83-1.93-1.32-2.25-1.76-4.18-3.27-5.61-8.01-1.03-3.42-1.96-12.92-.9-13.43Z"/>
</svg>