<?xml version="1.0" encoding="utf-8"?>
<!-- Generator: Adobe Illustrator 27.4.1, SVG Export Plug-In . SVG Version: 6.00 Build 0)  -->
<svg version="1.1" id="_x2014_ÎÓÈ_x5F_1" xmlns="http://www.w3.org/2000/svg" xmlns:xlink="http://www.w3.org/1999/xlink"
	 x="0px" y="0px" viewBox="0 0 607.5 300" style="enable-background:new 0 0 607.5 300;" xml:space="preserve">
<style type="text/css">
	.st0{fill:#FFFFFF;}
	.st1{fill:#69A6C2;}
</style>
<rect x="2718.9" y="-828.3" class="st0" width="2200" height="2200"/>
<path class="st1" d="M67.2,282.4c-1,0-1.8-0.8-1.8-1.8c0-1,0.8-1.8,1.8-1.8l147.7-0.7v-30.6c-1-2.8-12.8-20-16.8-25.4l-0.1-0.1
	c-2.5-3.5-5.2-7.1-6.5-11.3c-2.8-8.9,0.1-19.5,2.6-28.8c0.9-3.4,1.7-6.5,2.3-9.5c0.5-2.7,2.7-10.1,4.8-17.2
	c1.9-6.5,4.3-14.6,4.4-15.8c0,0.2,0.1,0.7,0.4,1.1l2.7-2.4c0,0,0.1,0.1,0.1,0.1c3.6,4,6.9,7.9,10.2,11.6c3.1,3.6,6.4,7.4,9.9,11.2
	c0.9,1,1.2,2.6,1.7,4.8c0.3,1.3,0.7,3.5,1.3,4.2c0,0,0.1,0,0.1,0c1.4-0.9-0.4-6.4-2.2-9.3c-3.3-5.2-7.3-9.7-11.8-14.6
	c-0.7-0.8-1.5-1.6-2.4-2.4c-3-2.9-6.4-6.3-7.3-10.5c-1.4-6.6,3-13.2,12.7-19.1c10.1-6.1,15.8-8.2,25.1-11.7c1.8-0.7,3.6-1.3,5.7-2.1
	c0.8-0.3,1.6-0.6,2.5-1c3.9-1.5,8.8-3.4,12.4-4.4l0.9,3.5c-1,0.3-5.9,3.5-6.6,4.3c-1.1,1.2-1,1.9,0.1,3.1l1.2,1.2
	c6,6.2,12.2,12.5,19.4,17c0.1-0.1,0.1-0.3,0.2-0.4c1.5-3,4.3-8.6,7.9-11.5l1.4-1.1c-5.8-0.6-10.5-3.9-14.8-7.6
	c-7.5-6.4-11.9-12.6-14.3-20c-0.3-0.8-0.4-1.6-0.5-2.3c-0.2-1.3-0.3-2.1-1-2.7c-0.3-0.3-1.4-0.7-2.2-1.1c-1.6-0.7-3.3-1.4-4.2-2.6
	c-2.5-3.5-3-10.7-1-14.5c1.1-2,2.8-3.2,4.6-3.3c-1.4-2.1-2-4.9-1.9-7.5c0.1-1.4,0.2-2.7,0.4-4c0.3-2.2,0.6-4.3,0.2-6.3
	c-0.1-0.6-0.3-1.3-0.5-2c-0.5-1.8-1.1-3.8-0.5-5.9c0.8-3.2,3.8-4.9,6.2-6.3l0.4-0.3c1.5-0.9,2.3-2.1,3.2-3.5
	c1.1-1.6,2.3-3.5,4.8-4.7c4.1-2,8.8-2.5,13.2-1.6c2.1,0.4,4.1,1.2,6.1,2c3.3,1.2,6.3,2.4,9.4,2c1.4-0.2,2.8-0.8,4.3-1.4
	c1-0.4,2.1-0.9,3.2-1.2c4.6-1.4,7.9-0.8,11,2c0.6,0.5,1.2,1.1,1.7,1.6c1.1,1.1,2.1,2,3.4,2.8c3.4,2.2,5.9,6.1,6.7,10.7
	c0.9,4.9-0.1,9.9-2.7,13.4l-0.5,0.6c-1.2,1.6-2.1,2.8-2.7,4.6c-0.1,0.4-0.2,0.9-0.4,1.5c-0.2,0.9-0.4,1.7-0.6,2.5
	c1,0.1,1.9,0.5,2.8,1c1.8,1.2,2.9,3.1,3.4,5.5c0.7,3.6-0.3,8-2.3,10.9c-0.9,1.3-2.7,2.1-4.3,2.8c-0.8,0.4-2.2,1-2.5,1.3c0,0,0,0,0,0
	c-0.5,1.2-0.8,2.7-1,4.2c-0.1,0.8-0.3,1.5-0.4,2.3c-1.3,5.8-1.4,7.4,0,8.7c1.4,0,2.8,0.2,3.8,0.8c4.1,2.1,8.1,3.9,12.3,5.8
	c1.8,0.8,3.6,1.6,5.5,2.4c1.2,0.6,2.4,1.1,3.6,1.6c11.9,5.3,22.2,9.9,29.6,21.2l1.3,2.1l-0.7,0.2l0.8,0.7c6.7,5.6,7.2,15.7,7.6,23.8
	l0,0.3c0.1,2.4,0.4,4.9,0.7,7.6c0.4,4.2,0.9,8.5,0.8,12.4c-0.2,6.9-13.6,7.8-28.1,7.8c0,0-0.1,0-0.1,0H222c0,0.7,0,1.3,0,2
	c0,1.2,0,2.5,0,3.7l0,92c0.2,0.1,0.4,0.3,0.6,0.4c0.3,0.2,0.7,0.4,1,0.7h150c0-9.6-0.8-56.9-0.9-62.9c0-3.2-0.2-6.5-0.3-9.6
	c-0.3-8-0.6-16.3,0.1-24.3l0.1-1l1-0.4c1-0.5,2.1-0.4,3,0.1c2.8,1.7,3.6,8.2,4.1,18.8c0,1.1,0.1,2.1,0.1,2.5
	c0.7,6.5,1.4,12.3,2.1,17.7c0.1,1,0.5,3.7,1.1,4.1c0.2,0.2,0.9,0.3,2.9-0.1c0.8-0.1,1.5-0.2,2.2-0.3c2.9-0.4,4.1-0.6,5.6-3.2
	c1.1-1.9,1.7-4.4,2.2-6.8c0.2-0.8,0.4-1.7,0.6-2.4c6.5-24.8,18.2-62.3,21.9-70.3c1.6-3.4,2-5.3,1.9-8.7c0-0.5-0.1-1.1-0.2-1.7
	c-0.3-2.1-0.6-5.1,1.7-7.2c1.1-1,2.3-1.6,3.5-2.3c1-0.6,2-1.1,2.7-1.7l2.4,2.6c-1.3,1.2-2.7,2.5-4,3.7l-1.4,1.3
	c-0.1,1.2,0,2.5,0.3,3.7c1.5-2.2,3-4.3,4.8-6.4c0.5-0.6,0.9-1.1,1.1-1.7c1.4-3.8-2.1-9.1-3.7-11.2c-1.4-1.8-2.4-3.5-3-5.3
	c-1.2,0.7-2.2,1.3-3.1,1.8c-0.3,0.2-0.7,0.4-1,0.6c-3.6,2.1-8.1,4.7-12.8,3.2c-2.9-0.9-4.2-3.7-5.3-5.9c-0.2-0.3-0.3-0.6-0.5-0.9
	c-1.7-3.2-3-6.4-4.1-9.1c-0.1-0.4-0.3-0.8-0.4-1.2c-0.5-1.5-1.4-4-2.5-4.1c-0.3,0-0.7,0-1.1,0c-0.5,0-1.2,0.1-1.8,0
	c-2-0.3-3.7-1.8-4.2-3.7c-0.6-2.1,0.3-3.6,0.9-4.8c0.1-0.2,0.3-0.4,0.4-0.7c0.6-1.3,1.2-2.5,1.7-3.9c0.4-0.9,0.7-1.7,1.1-2.6
	c2.1-4.7,0.2-10.2-1.6-15.5c-0.8-2.4-1.7-4.9-2.2-7.3c-0.6-3.4-1.1-9.9,3.1-14.8c0.8-1,1.7-1.6,2.5-1.9l-3.2,1.3l1-3.5
	c2.2-8.3,11.1-14.5,26.9-18.8c10.6-2.9,20.9-2.8,29.9,0.2c10.2,3.4,18.5,10.9,22.2,19.9c2.9,7,3,14.6,2.7,20.4
	c-0.1,1.7-0.4,3.5-0.8,5.2c-0.7,3.7-1.4,7.2,0.5,9.9c1.1,1.6,2.8,1.7,5.6,1.8c1.5,0,3.1,0.1,4.6,0.5c4,1.1,7.1,3.5,8.7,6.6
	c1,2,1.2,4.1,1.5,6.1c0.2,1.7,0.4,3.3,1,4.7c1.4,3.4,4.9,5.5,7.7,6.4c4.9,1.6,9,5.2,11.1,9.8c4.2,9.3,2.4,20.9,0.1,28.9l-0.7,2.6
	c6.2,8.7,8.2,19.4,6.2,32c-0.2,1.4-0.5,2.7-0.8,4.1c0.1,21.2-1.4,79.6-6.5,105.7c5.4,0.1,12.1,0,19.1,0c4.1,0,8.3,0,12.4,0
	c1,0,1.8,0.8,1.8,1.8s-0.8,1.8-1.8,1.8c-4.1,0-8.3,0-12.4,0c-8,0-15.6,0.1-21.4,0l-2.2,0l0.5-2.1c4.5-20.8,6.3-67.2,6.8-94.2
	c-0.7,2-1.4,4-2.1,6L496,239.6c-0.9,2.7-1.8,5.5-2.7,8.1c-1.8,5.5-3.6,11.1-5.9,16.5c-2.5,6.1-9.9,9.3-16.1,9.8
	c-10.3,0.7-20.8,0.5-30.6,0.2c-3.5-0.1-7.1,0-10.6,0.2c-5.6,0.2-11.5,0.4-17.2-0.3c-4.1-0.5-7.9-2.1-11.6-3.6
	c-0.2-0.1-0.5-0.2-0.7-0.3l-1.9,1.6l-0.9-2.4c-0.9,0-1.9,0.3-3,0.5c-1.1,0.3-2.2,0.6-3.4,0.7c-4.6,0.4-6.4-0.4-9.6-4.1
	c-3-3.5-3.3-8.8-3.2-13.4l0-0.9c0.1-4.8,0.1-8.7,7.3-8.8c0.8,0,1.5,0,2.2-0.1c4.3-0.2,9.2-0.5,12.1,5.1c1.9,3.7,1.4,7.6,0.8,11.5
	c-0.2,1.7-0.5,3.3-0.5,4.8c1.3-2,2-4.5,2.2-7.3c0.3-5-1.3-10.2-4.3-13.4c-0.5-0.6-0.7-1.3-0.5-2.1c0.4-1.5,2.3-2.3,4.3-3
	c0.1,0,0.2-0.1,0.3-0.1c2.5-1.8,6.6-22.4,8.5-32.4c1.5-7.4,2.6-13.2,3.5-15.7l2.4-6.7c-1-3.3-1.5-6.7-1.6-10.2
	c-0.2-8.9,4.3-16.6,8.7-24.1c1.5-2.5,2.9-4.9,4.1-7.4c1.6-3.1,2.5-6.5,3.4-10c0.6-2.1,1.2-4.3,1.9-6.4c-2.2,2.7-4,5.4-6.1,8.5
	l-1.4,2.1l-1.3-1.7c-0.3,2.1-0.9,4.1-2.1,6.6c-3.3,7.1-14.8,43.5-21.7,69.7c-0.2,0.7-0.4,1.5-0.5,2.3c-0.6,2.5-1.2,5.4-2.6,7.8
	c-2.4,4.2-5.1,4.6-8.3,5c-0.6,0.1-1.3,0.2-2,0.3c-2.4,0.4-4.2,0.5-5.6-0.5c-1.7-1.2-2.1-3.6-2.5-6.6c-0.7-5.5-1.4-11.3-2.1-17.8
	c-0.1-0.6-0.1-1.5-0.2-2.8c-0.3-6.7-0.7-10.7-1.2-13c-0.3,6.5-0.1,13.1,0.2,19.5c0.1,3.2,0.2,6.5,0.3,9.7c0,2.2,0.3,18.4,0.5,34
	c0.1,7.8,0.2,15.5,0.3,21.2c0.1,10.2,0.1,10.2-0.5,10.8l-0.5,0.5H222.5l-0.5-0.3c-0.5-0.3-0.9-0.6-1.4-0.9c-0.5-0.3-1-0.6-1.4-1
	l-0.8-0.5v2.8L67.2,282.4C67.2,282.4,67.2,282.4,67.2,282.4z M403.2,267.5c3.4,1.4,6.6,2.7,10.1,3.1c5.4,0.7,11.1,0.5,16.6,0.3
	c3.5-0.1,7.2-0.3,10.8-0.2c9.7,0.3,20.1,0.5,30.3-0.2c5-0.4,11.2-2.9,13.1-7.5c2.2-5.3,4-10.9,5.8-16.3c0.9-2.7,1.8-5.5,2.7-8.2
	l16.8-48.3c2.1-5.9,4.2-12,5.5-18.1c0-2.7-0.1-4.7-0.1-5.9c-0.2-4.3-0.7-8.9-2.2-13c-1.5-4.2-5.5-11.1-14.7-10.1
	c-6.4,0.7-11.1,5.4-13.3,8.1c-3.5,4.4-5.8,9.7-7.9,14.8c-3.7,9.1-7.4,19.1-12,32.2c-0.9,2.6-1.8,5.3-2.7,7.9c-0.9,2.7-1.8,5.3-2.7,8
	c-2.2,6.4,1.3,10.1,7.3,15.6l1.9,1.7l-2.2,1.2c-1.3,0.7-3,0.8-4.6,0.7c-0.2,0.8-0.7,1.6-1.4,2.1c-1.3,1-3.1,1.1-4.8,0.4
	c-0.7-0.3-1.3-0.5-1.9-0.8c-1.3-0.6-2.4-1.1-3.9-1.4c-3.8-0.7-7.9,0.2-11.6,1.1c-7.6,1.7-15.1,3.4-22.7,5.1
	c-0.5,0.1-0.9,0.2-1.4,0.3c-0.9,0.2-1.9,0.4-2.8,0.7l-2.6,0.7l0.3-2.6c0.3-2.5,0.7-5.8,1.1-9.5c-2.1,8.2-3.8,12.2-6,13.1
	c-0.1,0-0.2,0.1-0.5,0.2c-0.5,0.2-0.9,0.3-1.2,0.4c3,3.9,4.6,9.4,4.2,14.8C406.3,261.4,405.1,264.8,403.2,267.5z M390.9,246.9
	c-0.8,0-1.6,0-2.5,0.1c-0.8,0-1.6,0.1-2.3,0.1c-3.7,0.1-3.7,0.4-3.8,5.2l0,0.9c-0.1,4,0.1,8.4,2.4,11c2.4,2.8,3.1,3.1,6.5,2.8
	c0.9-0.1,1.8-0.3,2.8-0.6c1-0.3,2.1-0.5,3.2-0.6c-0.1-2.1,0.2-4.3,0.5-6.4c0.5-3.4,0.9-6.6-0.5-9.3
	C395.8,247.5,393.9,246.9,390.9,246.9z M208.3,143.1c-0.7,2.6-1.9,6.6-3.8,13c-2.1,7.1-4.2,14.4-4.7,16.9c-0.6,3.1-1.5,6.3-2.4,9.7
	c-2.4,8.9-5.1,19-2.6,26.8c1.2,3.7,3.6,7.1,6,10.3l0.1,0.1c1.1,1.5,5.6,7.8,9.7,13.9c5.8,8.5,7.5,11.6,7.8,13.1V185
	c0-1.2,0-2.5,0-3.8c0-1.2,0-2.5,0-3.7l-0.1-1.9h136.6c0,0,0.1,0,0.1,0c22,0,24.5-3,24.5-4.3c0.1-3.7-0.3-7.9-0.7-12
	c-0.3-2.6-0.5-5.3-0.7-7.8l0-0.3c-0.4-7.4-0.8-15.7-5.5-20.4c-7.7,4.3-13.6,12.9-16.3,23.7c-0.7,2.7-1,5.7-1.2,9.1
	c0,0.6,0.1,1.6,0.2,2.6c0.3,2.3,0.6,4.7-0.1,6.3c-1.2,2.7-2.9,3-3.9,2.9c-2.4-0.2-4.3-2.8-4.9-5.2c-1.7-6.5,0.1-14.8,1.5-20.5
	c2.5-9.7,9-21,20.2-25.3c-6.7-9.1-16-13.2-26.7-18c-1.2-0.5-2.4-1.1-3.7-1.6c-1.8-0.8-3.6-1.6-5.4-2.4c-1.2-0.5-2.5-1.1-3.7-1.6
	c0.1,0.3,0.1,0.7,0.1,1c0,1.1-0.6,1.9-1,2.5c-1.7,2.2-7.3,8.1-12.7,13.3c-11,10.6-12.3,10.4-13.3,10.2c-0.8-0.1-1.4-0.7-1.6-1.5
	c-0.8-3.1-2.2-5.5-3.6-7.3c0.5,11.4,0.7,34.8-1.5,42.8l-2.6,8.9l-1-9.2c-2.1-20.4-2.8-30.8-2.6-43.2c-1.7,2.4-3.1,5.2-3.9,6.9
	c-1.1,2.2-1.4,2.9-2.6,3l-0.1,0c-0.7,0-1.1-0.3-1.4-0.4c-8.1-4.9-14.8-11.7-21.3-18.3l-1.2-1.2c-1.9-1.9-2.4-4.1-1.4-6.2
	c-0.6,0.2-1.1,0.4-1.6,0.6c-0.9,0.4-1.8,0.7-2.5,1c-2.1,0.8-4,1.5-5.7,2.1c-9.2,3.4-14.7,5.5-24.5,11.4c-5.8,3.5-12.4,9-11.1,15.3
	c0.6,3.2,3.5,6,6.3,8.7c0.9,0.9,1.7,1.7,2.5,2.5c4.6,5,8.8,9.6,12.2,15.1c1.4,2.2,5.8,11.3,1.1,14.3c-1.4,0.9-2.6,0.8-3.3,0.5
	c-2.2-0.9-2.8-3.9-3.5-6.9c-0.2-1.1-0.6-2.7-0.9-3.1c-3.5-3.9-6.7-7.6-9.9-11.3C213.6,149.1,211,146.1,208.3,143.1z M418.6,188.3
	l-0.4,3.3c-0.9,7.1-2.5,20.5-3.9,32.3c-0.6,4.7-1.1,9.1-1.5,12.5c0.1,0,0.3-0.1,0.4-0.1c0.5-0.1,0.9-0.2,1.4-0.3
	c7.6-1.7,15.1-3.4,22.7-5.1c4-0.9,8.5-1.9,13-1.1c1.9,0.4,3.4,1,4.8,1.7c0.5,0.3,1.1,0.5,1.7,0.8c0.5,0.2,1,0.2,1.3,0
	c0,0,0.1-0.1,0.1-0.2l-4.3-4.3l6,1.3c0.5,0.1,1,0.2,1.5,0.3c-4.5-4.4-8-9.4-5.4-16.8c0.9-2.7,1.8-5.3,2.7-8c0.9-2.6,1.8-5.3,2.7-7.9
	c4.6-13.2,8.3-23.2,12.1-32.4c2.2-5.3,4.6-10.9,8.4-15.7c4.4-5.5,10-8.8,15.7-9.4c8.2-0.9,14.8,3.2,18.1,11.4
	c-1.2-5.7-3.8-10.7-7.7-15.2c-1.2-1.4-7-6.3-13.2-11.4c-9.5-8-20.2-17-23.4-20.8c-0.2-0.3-0.4-0.5-0.7-0.8c-0.6-0.7-1.1-1.3-1.6-1.8
	c0.3,0.6,0.7,1.2,1,1.9l0.8,1.4c0.5,1,1.2,2.3,1,3.8c-0.3,2-1.9,3.2-3,3.9c-4.9,3.5-9.5,7.6-13.9,12.3c-1,1-1.9,2.1-2.8,3.2
	c-1.5,1.7-3,3.4-4.6,5c-0.3,0.3-0.7,0.7-1.1,1.1c-2,2.1-4.6,4.8-7.5,5.1l-1.5,0.2l-0.4-1.5c-0.1-0.2-0.1-0.4-0.2-0.7
	c-0.5,3.6-1.4,7-3.4,10.8c-3.9,7.4-9.2,17.4-10,26.8c-0.7,8.2,1,19.3,6.4,24.4c0,0,0,0,0,0l-2.5,2.6c0,0,0,0,0,0l0,0
	C423.7,197.5,420.7,193.1,418.6,188.3z M419.7,179.8c0,0.2,0.1,0.5,0.1,0.7c0-0.5,0-0.9-0.1-1.3L419.7,179.8z M427.2,151.7
	c-4.1,7-8.3,14.2-8.1,22.1c0,1.3,0.1,2.5,0.3,3.8l0.5-1.3c0-0.9,0.1-1.7,0.1-2.5C420.6,166.2,423.9,158.3,427.2,151.7z M372.7,126.6
	l-1.2,0.3c-11.1,3.1-17.7,14.2-20,23.5c-1.4,5.3-3,13-1.5,18.7c0.3,1.2,1.2,2.3,1.6,2.5c0.1-0.1,0.2-0.3,0.4-0.7
	c0.3-0.7,0-3.1-0.2-4.4c-0.1-1.2-0.3-2.3-0.3-3.1c0.1-3.7,0.5-6.9,1.3-9.9c3.1-12.4,10.1-22.1,19.3-26.6L372.7,126.6z M292.7,110.9
	l-0.1,2.5c-0.3,9.5-0.1,17.2,0.7,27.8c0.2-12.2-0.3-25.4-0.7-27.6c0,0,0,0,0,0l3.5-0.6c0,0,0,0,0,0c0-0.2-0.1-0.4-0.1-0.4
	c0.1,0.2,0.5,0.6,0.9,1c1.6,1.8,4.5,4.9,6.2,9.8c4.8-3.5,18.9-17.7,21.8-21.4c0.1-0.1,0.2-0.2,0.2-0.3c-0.2-0.1-0.4-0.3-0.6-0.4
	c-0.4-0.2-0.8-0.5-1.2-0.8c-2.1-1.7-3.8-2.7-5.2-3.5c-0.4-0.3-0.9-0.5-1.3-0.8c-0.6,0.1-1.1,0.3-1.3,0.6l-0.8,0.8
	c-6.1,5.9-13.1,12-17.8,13C295.4,110.8,294,110.9,292.7,110.9z M437.5,128.4c0.1,0.2,0.5,0.7,0.8,1c0.5,0.7,1,1.3,1.3,1.9
	c0.4,0.9,0.5,2,0.6,3c1.3-0.9,2.7-2.3,3.7-3.4c0.4-0.4,0.8-0.8,1.2-1.2c1.5-1.5,3-3.2,4.4-4.8c0.9-1.1,1.9-2.2,2.9-3.3
	c4.5-4.8,9.4-9.1,14.4-12.7c0.6-0.4,1.5-1.1,1.5-1.5c0.1-0.4-0.3-1-0.6-1.5l-0.8-1.4c-0.8-1.5-1.6-3.1-2.5-4.6
	c-1.3,0.9-2.5,2.1-3.7,3.4l-0.5,0.5c-4.7,4.9-9.9,9.6-15.6,13.7c-0.6,0.4-1.2,0.8-1.7,1.2c-1.7,1.2-2.9,2-3.9,3.7
	c-1.1,2.1-2,4.3-2.7,6.6l1.2,0.1C437.6,128.6,437.5,128.4,437.5,128.4z M479,105.9c4.9,4.4,12,10.4,18,15.5
	c6.2,5.3,10.5,8.9,12.6,10.8c-1.5-2.7-4-5-6.5-7.3c-0.9-0.8-1.8-1.7-2.7-2.5c-1.2-1.2-2.4-2.4-3.5-3.7c-2.4-2.7-4.8-5.2-7.7-7
	c-1.4-0.9-2.9-1.7-4.4-2.5C482.9,108.2,480.9,107.1,479,105.9z M470.6,79c1.5,1.8,1.1,4.2,0.8,5.9c-0.1,0.7-0.2,1.4-0.2,1.9
	c0.1,5,2.3,10,5.9,13.2c2.7,2.4,6.1,4.3,9.4,6.1c1.5,0.8,3.1,1.7,4.6,2.6c3.3,2,5.9,4.9,8.4,7.6c1.1,1.2,2.2,2.4,3.3,3.5
	c0.8,0.8,1.7,1.6,2.6,2.4c2.1,1.9,4.2,3.8,5.9,6.1c1.3-6.3,2.1-15-1-22c-1.7-3.7-4.9-6.6-8.9-7.9c-4.6-1.5-8.3-4.6-9.9-8.5
	c-0.8-1.9-1-3.8-1.2-5.7c-0.2-1.8-0.4-3.5-1.1-5c-1.1-2.2-3.4-3.9-6.4-4.7c-1.2-0.3-2.5-0.4-3.8-0.4c-1.7-0.1-3.5-0.1-5.2-0.8
	c-0.1,0.4-0.2,0.8-0.3,1.2c-0.6,1.6-1.6,2.7-2.7,3.9C470.8,78.8,470.7,78.9,470.6,79z M428.7,103c0.3,1.8,1.2,3.3,2.7,5.2
	c2,2.7,4.9,7.4,4.7,11.9c1.4-2.3,3.1-3.4,4.9-4.7c0.5-0.3,1-0.7,1.6-1.1c5.5-4,10.5-8.5,15.1-13.3l0.5-0.5c1.3-1.4,2.7-2.9,4.5-4
	c-0.1-0.2-0.3-0.4-0.4-0.6c-1-1.5-1.5-3.1-1.6-4.6l-3.2,0.7c-8.9,2.1-17.3-2-22.3-5c0.3,0.7,0.6,1.4,0.7,2.1
	C437.3,95.2,433.1,99.8,428.7,103z M395.3,85.8c0.3,0,0.6,0,0.9,0.1c3.3,0.4,4.6,4.1,5.4,6.5c0.1,0.4,0.3,0.7,0.4,1.1
	c1.1,2.7,2.4,5.8,4,8.8c0.2,0.3,0.3,0.6,0.5,1c0.8,1.7,1.8,3.6,3.2,4.1c3.2,1,6.8-1,9.9-2.8c0.4-0.2,0.7-0.4,1.1-0.6
	c1.5-0.9,3-1.7,4.4-2.6c0-1,0.2-2,0.4-3.2c0.2-0.9,0.4-1.9,0.7-2.9c0.7-2.9,1.5-5.6,0.9-8.2c-0.7-3.3-3-5.3-5.7-7.6
	c-1.2-1.1-2.5-2.2-3.7-3.5c-3.9-4.4-7.2-9.3-9.6-14.7c-1.3-2.8-2.2-5.8-3.2-8.7c-1.5-4.7-3.1-9.6-5.9-13.3c-0.9-1.1-1.8-1.7-2.5-1.7
	c-0.6,0-1.2,0.4-1.8,1.1c-2.4,2.8-3.2,7.1-2.3,11.9c0.4,2.1,1.2,4.4,2,6.8c2,5.7,4.2,12.1,1.5,18.1c-0.4,0.8-0.7,1.7-1,2.5
	c-0.6,1.4-1.1,2.8-1.9,4.2c-0.1,0.3-0.3,0.5-0.4,0.8c-0.6,1-0.8,1.4-0.6,1.9c0.2,0.6,0.7,1.1,1.3,1.1c0.3,0,0.6,0,1.1,0
	C394.6,85.9,394.9,85.8,395.3,85.8z M257.9,60.4c-0.5,0-1.1,0.7-1.5,1.4c-1.4,2.6-1,8.3,0.7,10.7c0.3,0.4,1.8,1,2.7,1.4
	c1.3,0.5,2.4,1,3.2,1.7c1.7,1.5,1.9,3.4,2.1,4.8c0.1,0.6,0.2,1.2,0.3,1.7c2.1,6.7,6.2,12.4,13.2,18.3c5.7,4.9,10.9,7.8,17.5,6.5
	c4.4-0.9,12.9-9,16.1-12.1l0.8-0.8c0.3-0.3,0.6-0.5,1-0.7c-1.1-2-0.9-4.8,0.3-10.4c0.1-0.7,0.3-1.4,0.4-2.1c0.3-1.6,0.6-3.5,1.3-5.1
	v-0.1l0.4-0.5c0.8-1.1,2.4-1.8,4-2.5c1-0.4,2.5-1.1,2.8-1.6c1.2-1.8,2.2-5.2,1.7-8.2c-0.3-1.5-0.9-2.6-1.9-3.2
	c-0.9-0.6-2.2-0.7-3-0.1l-2.2-2.8c-0.6,2.2-1.6,4.2-2.9,5.6c-4.3,4.8-11.7,6.8-18.9,5.3c-3.7-0.8-7.4-2.8-11-4.7
	c-5.4-2.9-10.4-5.6-15.5-4.7c-0.9,0.2-1.9,0.8-2.8,1.5c-0.7,0.5-1.5,1-2.3,1.4c-2.4,1.1-4,0.2-5-0.3
	C258.8,60.6,258.4,60.4,257.9,60.4C257.9,60.4,257.9,60.4,257.9,60.4z M430.3,85.5c0.1,0.2,0.1,0.4,0.2,0.6c0.8,3.4-0.1,6.7-0.9,9.9
	c-0.2,0.7-0.4,1.4-0.5,2c2.6-2.4,4-5,3.4-8c-0.3-1.1-0.9-2.2-1.5-3.4C430.7,86.3,430.5,85.9,430.3,85.5z M466.3,95.4
	c1.5,0,2.9,0.7,4.1,1.6c-1.7-3.1-2.6-6.6-2.7-10.1c0-0.9,0.1-1.7,0.2-2.6c0.2-1.1,0.2-1.8,0.2-2.4c-3.1,3.9-5.2,8.3-2.8,12.1
	c0.3,0.5,0.6,0.9,0.9,1.4C466.2,95.4,466.2,95.4,466.3,95.4z M396.8,30.3c3.5,0.2,6.2,2.9,7,3.9c1.9,2.1,3.2,4.7,4.5,7.2
	c0.5,1,1.1,2,1.6,3c1.4,2.4,2.5,4.8,3.7,7.3c1.4,2.9,2.8,5.9,4.5,8.6c2.8,4.4,7.3,8.5,11.3,12c8.3,7.2,18.1,12.9,28.2,16.4l3,1
	c0.3-3.7,2.5-7.2,4.6-9.9c-0.9-0.5-1.8-1.1-2.5-2.2c-1.9-3.2,1.4-7.3,3.5-8.7c0.8-0.6,1.9-0.9,3-1c-0.9-3.1-0.2-6.5,0.4-9.6
	c0.3-1.7,0.6-3.2,0.7-4.6c0.2-5.5,0.1-12.5-2.4-18.9c-3.3-8.1-10.8-14.8-20-17.9c-8.3-2.8-17.9-2.8-27.8-0.1
	C407.7,20.2,399.9,24.7,396.8,30.3z M431.6,81.1c0.8,0,1.5,0.5,3,1.4c2.6,1.6,7.5,4.8,13.2,6c-7.5-3.5-14.5-8.1-20.8-13.6
	c-4.2-3.7-8.9-8-12-12.7c-1.8-2.9-3.3-6-4.7-9c-1.1-2.3-2.2-4.8-3.5-7c-0.4-0.6-0.7-1.3-1.1-2c1,2.3,1.7,4.8,2.5,7.2
	c0.9,3,1.8,5.7,3,8.3c2.3,5,5.3,9.6,9,13.8c1,1.1,2.1,2.1,3.4,3.2c2.3,2,4.7,4.1,6,7.1c-0.1-0.7,0.1-1.3,0.4-1.7l0.4-0.6l0.8-0.2
	C431.3,81.1,431.5,81.1,431.6,81.1z M469.4,71.5c-0.4,0-0.8,0.1-1.2,0.4c-1.4,0.9-2.8,3.2-2.4,3.9c0.3,0.5,1,0.8,1.8,1.2
	c0,0,0,0,0,0c0.2-0.3,0.5-0.5,0.7-0.7c0.9-0.9,1.6-1.8,2-2.7c0.2-0.7,0.2-1.5-0.2-1.8C469.9,71.6,469.7,71.5,469.4,71.5z
	 M271.6,54.6c5.3,0,10.3,2.7,15.2,5.3c3.5,1.9,6.8,3.6,10,4.4c6,1.3,12-0.3,15.5-4.2c1.9-2.1,3.2-6.7,2.1-9.3
	c-0.5-1.3-1.6-2-3.3-2.1c-1.3-0.1-2.7,0.4-4.3,1.6c-0.7,0.5-1.4,1.1-2.2,1.7c-0.8,0.7-1.6,1.3-2.5,1.9c-6.7,4.6-14,2.6-20.4,0.8
	c-0.6-0.2-1.3-0.4-1.9-0.5c-5.9-1.6-10.4-1.6-12.9,0c-1,0.6-1.8,1.5-2.3,2.7c0,0,0,0,0.1,0c1.2-0.8,2.6-1.7,4.2-2
	C269.9,54.7,270.8,54.6,271.6,54.6z M310.9,45c0.2,0,0.3,0,0.5,0c3.1,0.2,5.4,1.7,6.4,4.3c0.9,2.1,0.8,4.8,0.2,7.3
	c0.6-0.7,1.2-3.2,1.4-4.3c0.2-0.7,0.3-1.3,0.4-1.7c0.8-2.4,2-4,3.3-5.7l0.5-0.6c2-2.7,2.8-6.6,2.1-10.5c-0.7-3.6-2.5-6.6-5.1-8.3
	c-1.6-1-2.7-2.1-3.9-3.2c-0.5-0.5-1-1-1.6-1.5c-2.2-1.9-4.2-2.3-7.7-1.3c-0.9,0.3-1.9,0.7-2.9,1.1c-1.6,0.7-3.3,1.3-5.1,1.6
	c-4,0.6-7.7-0.8-11.2-2.2c-1.9-0.7-3.7-1.4-5.5-1.8c-3.6-0.8-7.5-0.3-10.9,1.3c-1.6,0.8-2.4,2-3.4,3.4c-1,1.5-2.2,3.2-4.4,4.5
	l-0.4,0.3c-2,1.2-4,2.3-4.5,4.1c-0.3,1.1,0.1,2.5,0.5,4c0.2,0.8,0.4,1.5,0.6,2.3c0.5,2.6,0.1,5.1-0.2,7.5c-0.2,1.3-0.3,2.5-0.4,3.7
	c-0.1,2.2,0.5,4.7,1.9,6.1c0.8-1.9,2-3.3,3.7-4.4c3.5-2.2,8.8-2.3,15.8-0.4c0.7,0.2,1.3,0.4,2,0.5c6.2,1.7,12,3.3,17.4-0.3
	c0.8-0.5,1.5-1.1,2.3-1.8c0.8-0.6,1.5-1.3,2.4-1.9C306.8,45.8,308.9,45,310.9,45z M396.2,33.9c-0.5,0-1.1,0.1-1.6,0.3l0,0
	C395.2,34,395.7,33.9,396.2,33.9z"/>
</svg>
