<svg xmlns="http://www.w3.org/2000/svg" viewBox="0 0 32600 16700"><path stroke-width="0" fill="#69a6c2" d="M29156 12558c-2409-242-3504-137-4665-25-600 58-1147 131-1629 196-1483 199-2463 330-2964-263-218-258-350-651-365-1075c63 82 135 152 217 207c256 176 557 133 848 92c52-7 105-15 157-21c462-53 889-137 1038-569c113-326 45-663-77-1275-50-249-106-532-164-882-57-343-62-525-67-672-4-151-7-259-62-445-278-946-1211-1453-1828-1789-166-90-332-173-500-249c230 45 369 71 419-40c12-27 20-71-10-131-82-162-511-513-1076-637-44-10-87-17-128-23-48-114-68-227-63-342c9-185 71-274 165-408c76-109 170-244 258-466c126-317 188-991-378-1510-355-325-819-319-1001-300-888 88-1267 1023-1283 1063-110 277-119 614-27 951-67 244-67 497 0 696c24 70 55 133 95 191-110-22-231-44-366-65-57-9-111-17-162-24-160-23-289-42-381-71c108-55 205-137 290-246c233-298 278-680 126-1077-82-214-221-423-391-590-28-65-65-125-111-178-62-72-347-315-552-383-376-125-833-24-1087 241-308 321-362 705-353 971c3 89 14 180 32 269-37 184-53 364-72 574-18 205-39 437-85 716-62 35-124 73-185 113-154 103-227 205-350 375-70 97-157 218-287 377-264 322-454 474-637 621-179 144-348 279-556 550-233 305-381 549-502 747-116 190-207 340-333 482-143 161-255 235-346 294-85 56-158 104-218 197-152 236-150 552-101 701c23 68 58 111 104 128c129 48 226-101 362-309c57-87 231-348 283-338c27 21 30 170 31 219c2 105 4 182 56 226c25 21 56 31 89 26c130-18 182-195 271-534c46-178 104-399 166-484c94-130 470-433 802-702c208-168 423-342 594-491c165-144 283-284 363-385c54 22 124 32 209 29-31 131-72 295-121 495l-99 400c-118 478-171 703-179 1025-10 411-21 876 209 968c204 81 387-200 719-712c190-292 413-636 685-985-187 335-375 654-591 977-99 147-192 272-275 384-251 337-417 560-378 912c47 419 406 922 847 975c169 20 289-33 393-86-557 422-1190 666-1573 692-1256 88-2424-90-3554-262-1131-172-2199-335-3361-259-1318 87-2512 470-3758 1204-21 13-37 33-43 57-6 24-3 49 10 70c13 21 33 37 57 43c24 6 49 3 71-10c2679-1580 4776-1260 6997-922c1140 174 2318 353 3594 264c481-34 1297-371 1939-950c264 79 481 407 553 685c35 134-23 296-96 501-98 275-220 617-180 1067c20 229 75 416 124 582c74 251 127 432 31 639-50 108-116 160-181 211-70 55-150 118-167 241-28 200 120 279 290 372c71 38 151 82 238 141c518 354 967 647 1216 647c70 0 124-22 162-66c104-121 2-260-127-436-157-214-394-538-511-1049-98-426-41-826 14-1219c19-135 39-274 51-411c35-389 119-548 194-688c70-132 137-256 135-512-2-246-150-1016-595-1831-53-97-105-175-162-241c138-249 626-1150 592-1395-8-55-35-84-57-98-33-22-90-39-178 8-249 132-711 720-712 1212c0 171 47 229 126 304-218 384-433 714-563 869-78 92-163 182-253 268-163-17-280 43-384 96-98 50-183 93-309 79-315-38-641-425-684-811-31-279 102-457 342-780c83-112 178-239 280-391c342-510 629-1039 881-1506l113-208c142-141 288-272 437-390c488-388 1016-596 1948-769c440-81 838-62 1158-46c410 20 682 33 770-183c11-27 17-54 19-83c212 91 424 194 629 305c591 321 1483 806 1739 1678c48 162 50 256 54 397c4 152 9 341 69 697c59 352 115 636 165 887c116 580 179 900 83 1178-114 330-468 397-883 445-52 6-106 14-162 22-267 37-520 73-717-62-133-91-236-227-307-406c8-67 20-131 34-191c47-198 124-337 206-371c100-42 275 61 403 137c144 85 269 159 356 68c90-94 11-209-108-385-139-204-350-513-343-859c6-328 210-663 574-944c26-20 52-40 54-85c0-28-10-54-31-73-27-24-68-30-102-15-43 20-375 257-697 636-297 349-648 899-637 1535c2 91 15 327 101 569-44 436 33 1093 398 1525c567 671 1587 535 3131 328c480-64 1025-137 1622-195c1151-110 2238-215 4628 25c24 3 49-4 68-20s32-38 34-63c5-51-32-97-83-102zm-8870-2157c16 23 37 54 56 84-16-9-35-20-57-33-171-101-383-226-570-148-108 46-199 161-263 331-7-62-9-113-9-147-9-509 237-961 502-1300-21 81-33 163-34 245-8 405 223 743 376 968zm-5458-3539c308-526 599-922 948-1142c8-5 16-8 33-8c29 0 75 10 141 26c126 30 315 75 623 89c528 25 867-24 1167-67c210-30 411-57 642-57c100 35 199 71 295 109c23 52 17 79 11 96-38 94-293 82-589 68-329-16-739-36-1200 50-965 178-1516 397-2030 806-13 10-25 20-38 31zm-2268 1872c7-303 58-521 173-985l96-389c62-251 108-436 140-574c320-62 759-237 1104-442c348-207 975-792 952-1081-14-179-153-344-380-455-28-14-58-26-90-38c60-4 109-10 144-15c11-2 29 0 52 0c41 0 94 1 157-6c116 109 312 138 602 181c50 7 104 15 160 24c374 58 579 112 701 147c229 125 531 200 914 294c186 46 390 96 608 158-60 8-121 17-183 25-291 42-622 89-1131 65-291-14-470-56-589-85-129-30-222-53-315 6-506 320-881 956-1284 1694-552 557-954 1175-1247 1627-166 256-416 641-492 641h-2c-110-44-97-586-92-791zm353-3524c-50 250-114 505-195 777-66 222-150 367-206 463-43 75-76 131-72 187-77 100-195 244-361 388-169 147-382 320-589 487-373 302-726 587-835 737-82 113-140 333-196 546-14 52-34 130-56 203-10-121-43-242-163-273-183-48-338 188-488 417-32 50-98 150-139 201c0-3-1-6-2-9-25-111-21-340 89-511c38-59 88-92 164-142c99-65 223-147 382-326c137-154 237-319 354-511c123-202 263-432 490-728c193-253 354-382 525-518c182-146 389-312 664-648c133-162 222-286 294-387c117-163 176-244 301-328c12-8 25-17 37-25zm1266-2881c99 0 194 15 282 45c44 14 96 42 150 75-499-65-1075 206-1281 608-17 32-32 64-47 96c36-227 133-429 284-587c142-149 371-237 611-237zm1047 1083c0-21 3-53 7-90c6-56 13-124 14-199c63 93 115 192 153 292c127 333 92 651-99 896-90 115-190 189-304 227-2-27 8-70 38-179c21-77 54-193 91-356c67-292 101-439 99-591zm-369 897c-33 120-53 190-44 258h-58c-34 0-60 0-82 3-178 27-786 80-1126-363-114-149-198-333-243-533c40-185 102-354 193-532c176-343 706-578 1133-502c122 22 261 100 393 221c55 156 37 327 25 441-4 42-9 81-8 112c2 130-30 270-94 547-36 156-66 266-89 348zm-1630-44c6-67 12-132 18-196c44 90 96 174 154 251c139 181 313 292 489 359-223 15-470 70-728 185c33-227 50-423 66-599zm1338 710c164 79 267 192 276 302c13 162-479 679-862 907-305 181-667 331-966 401c29-156 26-228-29-281-44-43-91-64-140-64h-19c26-64 50-130 70-199c100-336 175-648 229-953c600-307 1136-260 1440-112zm-1870 1631c53-72 124-172 143-181c0 0 3 1 8 5c0 18-3 65-30 190-61 7-103 6-133 2l12-16zm5462-4237c491 451 439 1032 331 1304-80 201-164 322-238 428-100 143-187 267-198 506-6 117 10 229 46 341-114 5-210 27-311 50-166 38-354 81-693 66-251-11-351-44-507-94-41-13-85-27-137-43-156-89-253-199-302-345-33-96-43-195-42-284c15 33 21 76 27 117c11 72 24 154 91 200c41 28 93 36 153 22c241-54 178-579 163-684-43-299-135-445-260-439-63 4-122 47-178 128-22-209 1-407 69-578c14-35 352-870 1128-946c158-16 558-22 858 252zm468 3064c-68-80-143-167-208-263c413 98 746 337 871 464-57-9-128-23-175-32-43-8-89-17-135-26-93-17-180-29-265-39-25-31-52-63-80-95l-8-9zm-212 85c-349-120-668-203-954-274c154-14 269-41 370-64c121-28 218-50 348-45c78 146 181 272 276 384-14 0-27 0-41-1zm-2132-1804c20 35 53 116 74 266c37 260 2 453-20 476-2 0-4 0-6 1-5-17-10-49-14-71-8-55-18-117-47-177-42-86-78-174-105-264c25-77 56-145 88-194c12-17 21-29 29-37zm-942 5638c-41 78-82 155-124 232-28-32-35-59-34-135c1-374 321-815 538-995c11-9 20-16 29-23-32 124-136 404-408 921zm-88 544c33 45 65 96 98 156c387 707 570 1458 572 1743c2 209-46 299-113 423-79 148-177 332-215 759-12 135-31 268-50 408-57 404-116 821-11 1280c126 549 376 891 543 1118c56 76 124 169 132 205-21 5-111 10-386-140-240-130-529-329-742-474-96-66-184-113-255-151-176-96-203-121-195-183c7-47 33-69 98-121c70-55 165-130 234-279c125-271 54-513-21-769-46-157-98-334-117-545-36-409 78-730 170-988c81-226 150-421 101-610-75-288-287-640-585-780c67-67 130-136 189-207c129-152 333-465 551-845z"/></svg>