<?xml version="1.0" encoding="utf-8"?>
<!-- Generator: Adobe Illustrator 27.4.1, SVG Export Plug-In . SVG Version: 6.00 Build 0)  -->
<svg version="1.1" id="_x2014_ÎÓÈ_x5F_1" xmlns="http://www.w3.org/2000/svg" xmlns:xlink="http://www.w3.org/1999/xlink"
	 x="0px" y="0px" viewBox="0 0 607.5 300" style="enable-background:new 0 0 607.5 300;" xml:space="preserve">
<style type="text/css">
	.st0{fill:#FFFFFF;}
	.st1{fill:#69A6C2;}
</style>
<rect x="2718.9" y="-828.3" class="st0" width="2200" height="2200"/>
<path class="st1" d="M7.4,280.6c-1,0-1.8-0.6-2.2-1.5c-0.2-0.6-0.3-1.2,0-1.8c0.2-0.6,0.7-1.1,1.3-1.3c27.7-12.3,66.6-20,109.6-21.7
	c6-0.2,12-0.4,18-0.4c-1.2-3.4,6.2-21.2,18.1-37.8c10-14,21.7-21.3,34.9-21.9c11.5-0.5,21.8,4.4,28.6,8.6c5.7,1.5,11.1,3.5,14.9,5.5
	c-0.2-0.4-0.2-0.9-0.1-1.3c1.8-10.2,14.5-21.2,23.2-22.8c3.4-0.6,7.2,0.3,9.8,1.2c2.5,0.9,5,2.1,7.4,3.8c1.2,0.5,2.5,1.2,3.8,1.9
	c4.1-6.7,13.5-9.8,20-6.5c5.2,2.6,7.6,6.2,10,11.6c3.1-7.4,7.2-11.9,12.4-13.6c6.1-2,13-0.2,18.1,4.8c0.2-0.5,0.6-1,1.1-1.2
	c0,0,0.1-0.1,0.3-0.1c6.4-3.3,18.7-5.2,22.9-5.7c23.3-2.5,50.4,2.6,64.9,5.3c0.4,0.1,0.8,0.2,1.2,0.2c-11.3-6.7-33.3-17.4-57.4-26.2
	c-52.7-19.2-74.1-15-82.2-10.8c-58,30.4-72,29.9-95.8,26.2c-11.5-1.8-18.9-3.4-26.6-5l-1.5-0.3c-3.6-0.8-7.4-1.5-11.9-2.4
	c-20.1-4-36-1.7-46.5-0.1l-0.3,0c-4.9,0.7-8.8,1.3-11.9,1c-0.9-0.1-3.8-0.3-4-2.8c-0.3-3.1,3.1-4.2,21-9.2l0.5-0.1
	c7.5-2.1,15.2-4.3,18.5-5.8c5.4-2.5,15.1-8.9,20-24.2c2.1-6.6,4.7-10.2,8.4-11.5c5-1.7,10.9,1.3,18.7,6.7c4,2.8,8,6.2,12.3,9.8
	l0.4,0.3c7.1,6.1,14.5,12.4,21.8,15.5c5.2,2.2,11.6,4.2,17.6,4.7c-5.3-0.9-10-2.5-11.2-6.3c-1.3-4.1,3-6.6,13.3-12.7
	c9.1-5.3,22.6-13.3,41-26.9c8-5.9,15.2-14.1,21.7-21.4c8.3-9.4,14.3-16.2,19.8-16.2c4.9,0,10.8,3.2,18.3,9.9c1.2-3.4,2.9-6.8,5.1-10
	c7.5-10.8,32.1-39.5,49-46c21.4-8.2,38,9.4,57.2,29.9l0.2,0.2c8.9,9.5,18.2,19.4,28.9,27.7c9.1,7.1,19.4,14,29.3,20.6l0.5,0.3
	c13.8,9.2,28,18.8,39.2,29c8.1,7.4,13.9,14.6,17.7,22c12.4,0.3,25,2,37.6,5.1c0.4,0.1,0.7,0.3,1,0.6c0.7,0.6,1,1.5,0.8,2.4
	c0,0,0,0.1,0,0.1c-0.4,1.2-1.7,2-2.9,1.6c-11.4-2.9-22.9-4.5-34.2-4.9c1.1,2.8,1.9,5.6,2.4,8.4c0.2,0.8-0.1,1.7-0.8,2.2
	c-0.6,0.5-1.5,0.7-2.3,0.5c-17.9-4.8-57,3.4-78,7.8c-7.1,1.5-10.6,2.2-12.6,2.5c-1.3,0.2-3.5,0.5-4.2-1.7c-0.8-2.5,1.5-3.5,7.2-5.8
	c22.3-9.1,49.3-18.5,80.5-18.8c-10.4-17.8-32.7-32.7-54.3-47.1c-10.1-6.8-20.5-13.7-29.8-21C455.5,75,446.1,65,437,55.3
	c-18-19.2-33.6-35.7-52-28.7c-15.9,6.1-39.6,33.7-46.8,44.2c-2.5,3.6-4.2,7.3-5.2,11c6.4,6.4,13.4,14.5,20.9,23l0.8,0.9
	c5.4,6.3,11.1,12.7,16.8,19c1.8,2,3.4,4.1,2.5,6.2c-0.2,0.5-0.9,1.8-3,2c0,0-0.1,0-0.1,0h-0.2c-6.2,0-31.4-13.6-38.6-26.8l-0.2-0.3
	c-4-7.3-5.4-14.8-4.1-22.4c-7.4-7-12.9-10.4-16.9-10.4c-3.3,0-9.8,7.4-16.1,14.6l-0.3,0.3c-6.5,7.4-13.9,15.7-22.1,21.8
	c-18.7,13.7-32.3,21.8-41.4,27.1l-0.1,0.1c-5.2,3.1-10.2,6-11,7.3c1.3,2.4,10.5,3.3,14.5,3.7c5.3,0.5,7.7,0.7,8.2,3.1
	c0.2,0.8,0.1,2.3-2,3.4c-8.8,4.7-23.2,1.6-33.7-2.9c-7.8-3.3-15.4-9.8-22.8-16l-0.6-0.5c-4.2-3.5-8.1-6.8-11.9-9.5
	c-5.3-3.6-11.1-7.2-14.4-6.1c-2.1,0.7-3.8,3.4-5.4,8.3c-5.4,17.1-16.5,24.3-22.6,27.1c-3.7,1.7-11.8,4-19.7,6.2
	c-1,0.3-2.2,0.6-3.5,1c10.7-1.5,25.8-3.1,44.7,0.7c4.7,0.9,8.5,1.7,12.2,2.5l1.3,0.3c8,1.7,15,3.2,26.4,5c22.8,3.6,36.2,4,92.9-25.7
	c19.4-10.2,57.5,0.1,86.1,10.6c32.8,12,61.2,27.1,66.3,32.2c0.9,0.9,1.1,2.1,0.6,3.1c-1.1,2.1-2.5,1.9-13.2-0.1
	c-14.4-2.7-41-7.6-63.5-5.2c-2.5,0.3-7.1,1-11.5,2c0.9,0.5,1.7,1.2,2.5,1.9c2.8,2.6,6.4,7.8,7.9,12.7c0.2,0.8,0.1,1.6-0.4,2.2
	c0,0,0,0.1-0.1,0.1c-0.5,0.6-1.3,0.9-2.1,0.8c-8.6-0.8-14.5-0.4-23.5,1.6c-0.4,0.1-0.8,0.1-1.2,0c-0.2,0.1-0.4,0.3-0.7,0.3
	c-1,0.3-2.1-0.1-2.7-0.9c-1.2-1.8-8.7-2.6-12.6-1.8l-0.8,0.2c-0.4,0.1-0.7,0.2-1,0.2c-2.9,0.6-5.7,1.3-8.4,0.4
	c-6.2-2.1-9.4-1.5-15.8,0.1c-0.6,0.2-1.2,0.1-1.8-0.2c0,0-0.1,0-0.1,0.1c-0.9,0.3-1.8,0.1-2.5-0.4c-0.1-0.1-0.2-0.2-0.3-0.3
	c1.4,2,2.7,4,4,5.8l0.2,0.3c0.5,0.9,0.5,2.1-0.2,2.9c-0.7,0.9-2,1.1-3,0.6c-3.2-1.7-6.9-1.9-11.1-0.7c-1.4,0.4-2.1,1.1-2.9,1.9
	c-1.4,1.3-3.3,3.1-7.1,2.2c-8.4-1.9-20.8-4.2-31.3-2.1c-0.7,0.2-1.5,0-2-0.5c-0.9-0.7-2.3-1.5-4-2.3c1.4,1.4,2.5,2.6,3.2,3.4
	c3.5,4,12.7,14.7,14.8,22.8c0.3,1.1-0.3,2.3-1.4,2.8c-8.4,3.6-22.3,13.3-26.3,25.4c-0.2,0.6-0.6,1.1-1.2,1.4
	c-0.6,0.3-1.2,0.4-1.8,0.2c-44.8-13.1-144.9-14.6-206,12.5C8,280.6,7.6,280.6,7.4,280.6z M7.9,279.3C7.9,279.3,7.9,279.3,7.9,279.3
	C7.9,279.3,7.9,279.3,7.9,279.3L7.9,279.3z M6.8,277.2C6.8,277.2,6.8,277.2,6.8,277.2C6.8,277.2,6.8,277.2,6.8,277.2z M138.5,254
	c28.8,0.3,55.8,3.3,75.3,8.7c0.1-0.1,0.1-0.2,0.2-0.4c-0.8-0.2-1.5-0.8-1.7-1.6c-3.6-11.6-7.5-23.6-13.5-33
	c-7-11-15.1-15.4-24.7-13.7c-12.3,2.2-27.3,21.9-35.1,39.3C138.8,253.5,138.7,253.7,138.5,254z M198.5,205.7c0,0.1,0.1,0.3,0.2,0.5
	c10,18.5,15.4,34,17.8,51.1c6.1-9.6,16.5-16.5,23.4-19.9c-2.7-6.9-10.2-15.5-13.2-18.9c-1.6-1.9-6.1-6.7-13.1-11.2
	C205.2,205.1,199.9,205,198.5,205.7z M177.8,208.7c9.4,0,17.6,5.2,24.4,15.5c-2.2-5.1-4.7-10.3-7.7-15.8c-2-3.7,0.1-5.8,0.7-6.4
	c0.1-0.1,0.2-0.1,0.3-0.2c1-0.7,2.4-1.1,4.2-1.3c-4.2-1.3-8.4-1.8-12.4-1.6c-11.6,0.5-22.1,7.2-31.2,19.9c-0.4,0.5-0.8,1.1-1.2,1.6
	c5.7-5.9,12-10.2,18.2-11.3C174.7,208.9,176.3,208.7,177.8,208.7z M265.1,212.1C265.2,212.1,265.2,212.1,265.1,212.1
	C265.2,212.1,265.2,212,265.1,212.1C265.2,212,265.2,212.1,265.1,212.1z M267.5,211.8C267.5,211.8,267.5,211.8,267.5,211.8
	C267.5,211.8,267.5,211.8,267.5,211.8z M242.3,209.1c7.7,0,15.4,1.4,21.5,2.7c-2.4-10.9-5.7-15.9-7.5-17.8c-1.1-1.2-4.2-1.9-5-1.7
	c-5.6,1.2-14.1,8.5-16.3,15.9c-0.3,0.9-1.1,1.6-1.9,1.7c0,0,0.1,0,0.1,0.1C236.2,209.3,239.3,209.1,242.3,209.1z M266,192.6
	c0,0.1,0.1,0.3,0.1,0.4c1.9,5.4,2.9,9.7,2.7,17.6c0.9-0.9,2.3-1.9,4.4-2.5c2.7-0.8,5.3-1.1,7.8-0.9c-3.7-5.2-7.8-10.3-12.6-13.8
	C267.2,192.9,266.5,192.7,266,192.6z M287.3,210.2C287.3,210.2,287.3,210.2,287.3,210.2C287.3,210.2,287.3,210.2,287.3,210.2z
	 M233.9,207.5C233.9,207.5,233.9,207.6,233.9,207.5C233.9,207.6,233.9,207.5,233.9,207.5z M323.2,186.6c4.3,3,7.7,9.8,8.8,14.7
	c0,0,0.1,0,0.1-0.1l0.2-0.2c1.8-1.1,3.3-2.1,5.2-2.8c-0.2-0.3-0.4-0.6-0.7-0.9c-1.5-2.1-2.9-4-5-6.3
	C329.4,188.4,326.3,186.9,323.2,186.6z M318.3,189.8c-0.4,0-0.8,0.1-1,0.2c-4,1.7-5.5,4.3-7.9,8.5l-0.5,0.8
	c-0.2,0.4-0.4,0.8-0.7,1.2c1.2,0,2.6-0.3,4.4-0.7c0.4-0.1,0.8-0.2,1.3-0.3l0.6-0.1c2.6-0.5,8-0.6,12.1,0.5c-1.3-3.7-3.8-7.7-6.2-9.3
	C319.5,189.9,318.8,189.8,318.3,189.8z M337.9,190.5c1,1.3,1.9,2.5,2.8,3.8l0.1,0.1c0.8,1.1,1.7,2.4,2.8,3.8
	c0.3,0.4,0.5,0.9,0.5,1.4c2.7-0.2,5.5-0.2,8.5,0c-1.5-2.9-3.6-5.7-5.2-7.2c-2.7-2.5-6.4-3.5-8.7-2.3l-0.2,0.1
	C338.3,190.4,338.1,190.5,337.9,190.5z M286.6,188.3c2.6,1.8,3.6,5.2,3.1,10.4c2.6-1.7,6-2.7,9.5-2.5c-1.9-3.8-3.6-5.7-6.9-7.3
	C290.8,188,288.7,187.9,286.6,188.3z M279,193.8c2.1,1.4,4.1,2.8,5.9,4.2c0.2-2.6,0-5-1-5.7C282.8,191.5,281.1,192.4,279,193.8z
	 M257.6,188.8c0.9,0.5,1.7,1.1,2.4,1.8c0.4,0.4,0.7,0.9,1.1,1.3c0-0.9,0.2-1.7,0.5-2.2C260.7,189.5,259.2,189,257.6,188.8z
	 M552.7,156.6c-24.4,0-46.3,5.7-65.4,12.6c20.6-4.2,50.5-9.7,68-6.8c-0.5-1.9-1.2-3.8-2.1-5.8H552.7z M332.3,87.7
	c-0.2,5.3,1.1,10.5,4,15.7l0.2,0.3c5,9.2,22.4,20,30.8,23.3c-5.8-6.4-11.5-12.9-16.5-18.7l0,0C344.2,100.8,338,93.6,332.3,87.7z"/>
</svg>
