<svg xmlns="http://www.w3.org/2000/svg" viewBox="0 0 32600 16700"><path stroke-width="0" fill="#69a6c2" d="M28504 15522c-1112-342-2767-612-3959-777-1296-180-2334-280-2344-281-45-4-87 29-92 75c0 8-29 200-313 242-173 25-302-88-349-205-24-60-19-105-2-117c33-24 45-68 27-105-17-37-59-57-98-46-142 39-291-21-399-159-83-105-118-228-97-325c519 89 876 211 1087 299c232 97 341 176 342 176c26 19 60 22 88 8c29-14 47-43 47-75c0-138-9-597-29-1364c10-2 19-3 29-4c213-31 440 51 608 220c108 108 140 202 135 236-2 13 0 26 3 38c10 30 33 52 63 60c50 13 83-17 112-44c59-55 169-156 389-115c160 46 283 127 356 233c51 75 61 139 61 139c5 45 47 77 88 75c45-2 80-39 80-84v-709c0-28-14-54-37-70-23-15-52-19-77-10-5 2-512 182-743-107-142-178-136-377-82-504c45-106 122-173 206-181c40-4 72-35 76-75s-20-77-58-90c-39-12-160-124-231-326-66-190-97-487 129-824c183-272 484-332 647-343c278-19 510 65 571 133c26 29 69 36 103 18c5-3 10-6 14-10c20-10 102-47 216-68c109-20 270-30 422 37c103 45 208 142 241 265-13-8-28-17-43-25-144-79-422-171-700 66-124-69-331-113-533-56-130 37-301 130-378 365-54 165-45 308 26 424c73 119 207 203 400 249-105 149-222 421 29 705c297 336 690 192 888 84c4 25 10 50 18 74c35 100 144 276 479 238c143-16 287-107 387-243c92-125 130-271 105-400-34-175-122-357-178-468c76-30 119-46 163-49c54-4 123 9 262 35c77 14 172 32 297 53c207 35 415 23 585-33c171-55 293-152 337-265c52-136-14-280-177-384-185-118-363-156-521-113c0-20-2-39-7-58-13-50-50-120-156-163-104-43-194-50-269-21l-5-275c89 11 223 22 381 16c252-10 608-71 873-300c270-234 393-591 366-1062-21-374-183-667-482-872-248-171-539-241-739-270-108-15-199-21-269-21c50-54 102-120 146-197c108-192 123-385 44-576-93-224-247-357-459-397-58-11-118-14-183-11c274-299 411-604 408-908-3-321-164-631-479-919-195-179-416-290-657-331-192-32-396-20-606 36-216 58-392 149-501 216-10-30-24-63-44-98-64-110-201-252-495-299-229-36-407-7-530 88-32 25-60 53-83 86-33-33-78-67-135-93-147-65-327-55-535 29-179 73-300 184-359 331-50 126-44 252-28 342-39-4-85-6-133-3-208 14-373 115-476 292-92 159-121 308-87 446-73-18-147-26-219-21-209 12-402 116-574 311-150 171-210 369-176 590c31 206 139 387 224 502c1 2 3 4 4 6-104-16-226-17-345 22-165 54-293 174-381 355-105 217-103 451 7 675c18 37 38 72 61 107-30 5-59 13-86 25-84 37-144 106-181 205-39 105-27 206 32 292c23 33 50 59 76 79-228 182-291 371-302 501-20 226 93 458 337 688c196 186 411 259 637 220c70-12 141-35 210-69-4 48-2 95 7 141c35 180 170 331 400 450c197 101 417 119 639 50c56-17 106-38 146-58c8 290 28 976 46 1637-253 64-432 180-533 345-77 126-92 256-89 352-126-49-312-95-495-47-141 37-256 123-342 257-1350-214-3973-478-6981-527-483-8-841-30-1096-68-384-57-411-135-411-136c0-1-6-107 524-347c396-180 886-396 1360-606l13-6c912-403 1855-820 2309-1051c203-103 432-246 402-432-17-105-113-193-293-268-180-74-456-141-821-197-804-124-2160-254-3156-340-1047-91-2008-162-2045-162-33 0-604-52-1109-97l-89-8c-857-76-1184-105-1211-105-11 0-32-4-56-9c76-20 182-41 315-61c969-146 1747-100 2125-59c466 50 1120 281 1147 291c32 12 67 3 90-21c23-24 30-60 17-91c0 0-35-89 1-172c26-58 83-103 170-134c85-30 171 31 263 188c15 25 46 78 110 60c22-6 40-21 51-40c4-4 10-9 16-15c278-260 319-522 124-779-97-128-241-196-415-196h-15c10-19 19-38 28-57c59-136 101-346-36-580-101-172-262-260-460-252-21 0-43 3-65 6c4-11 8-22 11-34c52-172 17-318-100-410-136-108-268-145-393-112-119 32-199 121-246 192-20-11-41-21-63-29-87-32-226-49-396 49-77 45-137 98-178 159-24-30-50-56-79-79-63-49-137-78-221-87c99-237 110-459 32-632-85-188-270-318-549-385-271-65-541-11-743 147-156 123-249 293-249 455c0 132 26 240 57 321-36-3-72-3-107 0-158 14-381 97-547 415-70 134-101 348 146 606c19 20 39 39 60 58-14 4-28 9-41 15-73 33-124 91-152 172-29 83-30 166-4 246-101-7-188 24-254 93-72 75-92 175-61 279-82-17-177-37-275-57-260-52-673-130-1165-206-422-65-829-118-1212-156l-25-2c-40-120-75-247-88-338-18-121-89-286-152-433-31-73-79-184-82-203c4-19 36-84 58-127c51-102 108-217 116-305c6-66-28-340-82-783c16 10 35 17 58 17c37 0 61-10 77-16c10-4 11-4 13-4c2 0 8 3 13 5c22 10 60 26 110 13h29c39 0 105 3 143-55c39-59 55-209 33-310-9-39-25-78-40-111-12-28-34-79-31-92c8-13 52-64 96-115c266-309 551-658 602-904c23-29 35-64 33-102-5-99-100-191-298-290-182-91-330-156-450-208-104-45-195-85-228-110-96-72-294-167-564-219-73-14-137-23-192-32-106-16-190-28-210-63l-11-19q-32-56-15-89c8-15 45-45 76-70c72-57 170-136 221-261c49-118 35-278-35-417-80-159-226-272-410-318-424-106-621 36-666 126-11 22-17 47-19 74-80 80-137 139-108 225l7 19c3 7 7 19 10 28-6 5-12 10-20 16-58 47-113 92-113 154c0 46 15 84 45 115-4 33-16 91-22 123-31 158-43 230-4 278c28 33 79 56 168 92c21 8 64 27 85 37c12 29 35 102 48 156-37 56-123 104-168 111-43 7-267 136-347 241-43-17-92-6-131 6-98 30-233 72-233 224c0 21-2 51-5 88-6 81-13 182-5 284c6 84 35 250 60 395c19 108 38 220 42 267c9 104 160 515 285 569c58 25 139 18 212-17c30-15 73-42 113-87c11 37 26 83 43 138c78 248 241 763 241 884c0 142-9 177-299 457-2 2-6 6-8 9-111 141-475 618-486 811-5 94-21 382 223 534c48 30 146 86 301 173c286 162 763 433 856 519c36 33 68 63 97 89c80 72 137 124 161 166c17 30 33 54 49 76c8 11 18 26 22 34c2 18 8 43 26 113c32 124 92 356 85 451-4 64-32 142-56 211-36 102-62 175-19 232c72 96 150 117 206 117c92 0 182-61 267-179c182-252 196-351 230-590l8-58c13-91 31-157 46-208c132 250 268 515 299 593c56 141 93 256 47 458-42 184-15 277 2 333-13 9-29 20-40 27-80 53-190 125-165 237c13 59 35 159 122 211c58 35 129 40 218 15h3c46 21 98 33 117 33h3c27-3 51-21 61-46c78-7 167-40 238-142c107-153 155-205 249-308c29-31 61-67 101-111c136-153 187-245 182-329-3-49-26-92-68-128l-30-27c-150-133-293-251-405-251-3-5-6-10-10-15-62-79-309-682-318-798-2-30 0-50 0-68c6-79 0-126-91-300-118-226-288-499-385-584-19-18-50-82-84-167c352 36 724 84 1107 143c848 130 1520 275 1644 306c28 15 58 14 85-1c37-22 51-67 34-108-8-18-19-31-36-40-22-25-63-85-67-139-2-31 6-55 28-78c100-104 309 26 311 26l8 6c39 25 91 14 116-24c26-39 15-91-24-117-7-5-175-121-116-291c13-37 32-60 62-74c69-31 176-6 223 12c42 17 88-2 108-42c19-40 3-88-35-110-5-3-540-311-381-616c104-200 242-309 409-324c124-11 223 34 223 34c36 18 80 7 104-24c24-32 23-76-3-106-1-1-117-143-117-393c0-109 71-233 185-322c160-126 379-169 599-116c226 54 372 152 435 290c69 153 40 366-82 598-9 17-30 57 0 99c18 26 50 40 81 35c98-14 179 3 240 50c74 57 107 148 120 189c4 37 12 63 17 78c16 39 59 61 99 50c41-10 68-50 63-93c0-6-4-30-12-56-4-63 19-155 158-234c210-121 333 10 339 15c19 22 48 32 78 27c29-5 53-24 64-51c0-2 65-155 184-187c71-19 153 9 245 82c151 119-35 392-36 395-22 31-20 74 5 103c25 29 66 38 101 22c0 0 90-42 198-45c133-6 237 51 306 169c81 138 90 281 28 425-48 111-122 182-123 183-29 27-35 72-14 106c21 34 63 48 101 34c3-1 299-107 457 100c161 212 62 383-65 515-31-45-63-83-97-113-98-89-213-116-323-77-133 47-223 123-268 225-23 51-31 102-31 147-236-78-689-216-1052-254-385-41-1180-88-2168 60-180 27-314 55-399 84-45 15-163 55-156 155c6 84 100 120 169 139c58 16 125 27 150 27c35 0 735 63 1198 105c871 78 1185 105 1211 105c96 1 3671 268 5176 500c899 139 968 295 973 324c4 27-17 105-312 255-450 229-1393 646-2313 1053l-11 5c-494 218-961 425-1351 602-468 212-653 373-620 535c28 133 198 216 551 268c262 39 628 62 1117 69c2966 48 5562 307 6915 518-28 145 20 314 131 456c68 87 153 154 247 194c56 24 114 38 173 41-2 47 7 98 29 151c71 176 266 347 530 309c214-32 326-133 383-213c24-34 41-68 52-96c255 26 1172 121 2267 273c1186 165 2832 433 3932 771c8 3 17 4 26 4c37 0 70-25 81-59c7-22 5-44-6-64-10-20-28-34-50-41zm-6821-1878c30 18 69 16 96-6c28-22 39-59 28-92-3-8-63-206 45-383c73-118 205-205 393-258c15 567 24 962 27 1177-59-32-137-70-237-112-210-88-561-210-1066-301c55-63 121-104 198-125c240-64 514 99 517 101zm-474-3262l9-23c12-36 0-75-29-97-51-38-97-6-127 16-286 204-545 190-789-41-204-193-300-379-285-551c10-113 75-282 327-447c16-11 66-43 48-104-10-34-41-58-69-59-2 0-6-2-11-4v-22h-1v21c-24-11-76-39-104-87-22-37-24-78-6-127c20-54 50-91 91-109c78-35 178 1 178 1c38 15 81 0 103-34c22-35 15-80-15-107c0 0-93-86-159-221-87-178-89-356-6-527c67-138 162-229 281-268c240-79 515 60 546 76c42 22 92 8 114-33c22-40 9-90-30-114-59-36-350-318-400-646-26-169 20-321 136-453c140-159 294-245 456-254c150-9 284 51 360 96c52 48 99 72 108 76c37 19 83 6 107-28c23-35 18-82-13-110-2-1-38-35-93-68-45-42-76-91-92-143-28-96-6-207 66-331c74-127 188-197 339-208c115-8 213 23 216 24c32 11 67 2 89-23c23-25 28-61 15-91-3-8-80-188-12-355c41-103 131-183 266-237c164-66 299-77 402-32c105 46 143 140 143 140c14 37 50 61 90 55c39-5 70-36 74-74c0-3 11-78 85-134c86-66 220-84 401-55c182 29 308 101 374 214c47 80 47 154 47 154-1 32 17 63 46 78c29 15 64 12 90-8c2-2 232-175 554-261c423-114 796-28 1105 256c279 256 422 524 424 796c5 448-369 805-492 923-15 15-27 26-36 35-12 13-50 51-28 104c13 33 44 54 80 54c17 0 33-4 63-11c149-35 497-118 660 274c138 331-159 601-274 706-14 13-25 23-34 32-49 50-35 95-23 116c16 29 51 58 124 35c33-11 200-23 417 8c182 26 445 89 667 242c253 174 391 424 409 743c24 416-80 727-308 925-228 197-543 250-768 259-247 11-443-28-445-29-25-5-51 1-70 18-20 16-31 41-31 67l10 589c0 44 34 79 78 83c42 4 82-26 90-68c0 0 11-48 48-68c42-23 108-5 155 15c50 21 55 41 56 48c7 28-9 89-77 171-37 45-24 93 5 120c28 26 79 34 117-3l8-8c142-147 326-150 547-8c54 35 140 104 110 181-47 121-336 259-737 192-123-21-218-38-294-52-308-57-324-56-560 40l-42 17c-22 9-39 27-48 49-14 37-3 58 29 121c47 92 145 282 178 452c16 83-12 181-76 268-71 97-175 164-270 175-159 18-259-22-298-119-25-63-15-122-7-142c30-30 39-63 25-97-9-24-28-42-52-50-24-8-50-5-72 9-10 6-19 15-28 24-68 55-275 186-487 186-125-1-233-52-321-151-228-258-34-495 61-586c23-22 32-56 22-87-16-51-61-58-97-64-76-12-309-49-397-193-44-72-47-167-10-283c53-164 173-229 263-255c164-46 360-4 440 65c33 28 84 26 114-5c107-108 225-158 349-148c172 13 311 133 337 162c12 19 30 32 52 38c45 11 90-17 101-61c72-277-115-520-337-617-195-85-395-72-529-46-89 17-167 43-219 66-58-42-138-78-235-104-131-35-280-50-423-40-335 23-610 171-776 417-113 169-180 346-200 526-16 152 0 302 51 447c44 126 113 243 191 326-76 50-139 127-180 225-73 172-83 440 105 676c130 162 336 241 593 227c87-5 165-19 227-34v276c-78-77-197-156-378-208-46-9-92-13-136-13-154 0-264 57-329 104-30-72-84-148-156-221-205-206-486-306-752-268-3 0-6 0-9 1-23-852-49-1735-49-1750c0-32-19-60-48-74-29-14-62-10-87 9-3 3-360 264-737 70-416-214-319-463-278-569zm-16548-5016c-63 71-112 128-122 236c0 5 0 11-2 17-13-120-22-212-22-253c0-236 16-601 34-755c4 2 9 4 12 5c55 23 123 52 194 70c56 14 122 20 180 25c10 0 31 3 52 5l-36 90c-23 57-43 105-53 139-18 64-56 197-158 326-30 38-56 68-79 94zM3587 2590c173 43 258 149 299 230c47 93 59 204 29 276-30 73-88 126-144 172-13-20-29-40-47-63-39-49-93-112-153-178-71-78-249-270-385-369-23-17-43-30-62-40c37-32 176-98 463-27zm-616 928c-24-10-64-27-86-36c4-39 18-110 25-144c29-146 43-218-7-261c14-12 30-25 37-31c18-15 36-29 47-40c62-62 34-147 17-191c24 36 54 71 90 103c21 19 56 51 96 88c254 235 378 345 446 391-4 6-8 13-11 20-44 89-35 143-8 199-41 14-94 36-164 66-112 30-199 55-264 81-16-56-38-122-58-152-23-35-65-53-158-92zm2791 7240c12-35 24-72 38-92c28 7 101 45 281 205c13 12 25 22 33 29c7 6 9 9 9 10c0 8-4 54-139 204-39 43-71 79-101 111-96 105-149 163-261 324-57 81-126 77-212 62-40-7-96-16-132 30-32 7-57 7-70-1-21-13-33-56-40-90c15-20 65-52 90-69c66-43 123-81 123-148c0-26-7-48-13-70-13-42-30-99-3-229c57-2 133-21 235-58c102-37 136-138 163-219zm-542-1368c77 148 76 168 73 208-2 21-4 50 0 94c11 147 273 786 349 890-12 65-130 195-207 241-15 9-29 14-42 17c6-152-32-264-79-382-66-166-530-1037-588-1124-35-53-131-148-232-249-70-70-176-176-192-203l-8-15c-100-177-178-293-251-324-50-33-262-314-332-407l-13-18c-30-39-53-70-64-83-13-16-34-41-83-41-67 0-186 46-411 221l-13 10c-21 16-32 42-28 68c3 26 20 49 44 59l219 98c184 83 311 240 333 292c17 40 358 606 639 670c128 29 181 28 223 23c19 19 61 84 157 285c9 18 16 33 19 37c0 8-9 35-17 60-20 59-49 148-71 292l-8 58c-32 221-43 296-200 514-70 97-115 108-131 108-19 0-38-15-53-31c6-24 20-65 30-92c26-75 59-168 65-255c8-113-41-312-90-505-10-39-20-75-21-80c0-45-24-80-52-121-12-18-27-39-41-63-37-65-100-121-196-209-28-25-60-54-95-86-99-92-460-299-888-542-132-75-247-140-295-170-110-69-154-186-143-381c5-96 230-435 446-710c281-271 347-358 347-576c0-135-118-519-249-935-30-95-61-193-69-225-19-75 42-374 69-507c10-49 19-92 23-119c10-58 17-157 19-248c3-152-7-220-72-242-36-13-85-3-114 47-27 47-42 171-74 490-20 196-43 419-66 507-24 90-78 128-109 143-36 18-64 16-63 18-46-38-181-332-190-432-5-54-24-164-44-281-23-135-52-303-58-379-6-89 0-183 5-259v-11c2-36 4-67 4-90c0-12 0-25 102-58c0 20 0 43 2 66c5 54-11 336-22 507-4 58-7 109-8 146-4 71-7 138 72 148c46 7 87-24 96-70c1-7 3-14 5-21c12-48 29-114 37-369c7-212 30-361 42-442c3-16 4-30 6-40c44-44 199-157 237-169c76-13 207-76 279-180c51-10 131-42 289-109l84-29c93-25 154-41 193-57c61 32 141 44 242 59c54 8 115 17 185 30c242 46 417 130 494 188c49 37 130 72 262 130c118 51 264 115 442 204c147 74 189 122 200 139-12 13-20 31-23 48-28 218-406 657-567 845-74 86-101 118-114 140-48 84-9 173 22 245c12 28 25 57 30 80c12 55 5 123-2 158h-3c-21 0-48-1-66 5-4 0-7-3-10-4-16-7-43-19-79-19-24 0-43 4-57 9-4-15-10-37-17-68-2-12-5-22-6-25-3-24 10-130 18-194c6-47 11-91 14-127c5-51 22-72 81-140c24-28 52-59 84-100c122-155 166-310 188-385c7-25 29-77 48-126c47-115 67-166 67-203c0-102-110-112-228-123-51-5-109-10-152-21-58-14-119-41-168-62-61-26-100-43-137-43-98 0-112 83-131 437-10 188-15 404-15 513s46 481 91 843c37 297 87 703 82 756-5 55-61 168-99 244-43 86-68 137-73 178-7 52 18 118 94 294c56 130 125 292 140 391c26 176 178 684 293 784c60 53 214 280 347 535zm-792-130c-17-3-36-7-59-12-175-40-486-490-520-571-41-95-203-282-420-380l-70-31c73-49 131-82 163-94c13 17 31 41 51 68c250 330 339 433 396 458c17 9 62 54 175 254l9 15c25 44 100 119 220 239c18 18 36 36 54 55z"/></svg>