<?xml version="1.0" encoding="UTF-8"?>
<svg id="Layer_1" data-name="Layer 1" xmlns="http://www.w3.org/2000/svg" viewBox="0 0 326 167">
  <defs>
    <style>
      .cls-1 {
        fill: none;
      }

      .cls-1, .cls-2 {
        stroke-width: 0px;
      }

      .cls-2 {
        fill: #69a6c2;
      }
    </style>
  </defs>
  <path class="cls-1" d="M101.29,125.27c-.01-3.55-.03-8.48-.04-10.4h-3.39v.51c0,.45-.37.82-.82.82l-54.76.07.02,8.96,59,.04Z"/>
  <path class="cls-1" d="M95.65,84.92l-.02-10.54c-3.49,0-20.07.03-34.88.05-11.54.02-22,.03-24.35.03.03,2.25.01,8.13,0,10.58l59.24-.13Z"/>
  <path class="cls-1" d="M138.38,89.54c-1.59,1.25-2.64,2.96-3.27,4.29-2.17,4.58-2.35,9.99-.48,14.83.61,1.59,1.88,3.25,3.23,5,1.71,2.24,3.47,4.54,4.09,6.97-1.13-10.35-3.43-30.3-3.56-31.06v-.03Z"/>
  <path class="cls-1" d="M203.72,121.76c-.39-.51-.63-1.07-.74-1.65l-.49,4.29h4.02c.38-.14.76-.29,1.14-.45-1.64-.19-2.97-.93-3.93-2.19Z"/>
  <path class="cls-1" d="M41.08,102.31v-.67s-3.59,0-3.59,0l-.02,11.65h8.12c13.52-.02,38.84-.05,50.62-.06v-10.09h-54.31c-.22,0-.43-.09-.59-.24-.15-.15-.24-.36-.24-.58Z"/>
  <path class="cls-1" d="M96.47,88.24h-53.62s-.11,11.75-.11,11.75l58.28.08.06-13.51h-3.79s0,.86,0,.86c0,.22-.09.43-.24.58s-.36.24-.58.24Z"/>
  <path class="cls-1" d="M212.56,121.4c2.96-2.25,4.68-5.94,5.61-8.65,1.36-3.98.62-9.08-1.9-12.99-2.02-3.14-4.91-5.04-8.14-5.36-.07,0-.15,0-.22,0-.67,0-1.22.27-1.28.62-.07.38.32.88.69,1.36,2.36,3.04,3.44,6.97,3.02,10.84-.33,3.03-1.8,4.99-3.37,7.07-.48.64-.98,1.3-1.45,2-.91,1.37-1.42,3.29-.5,4.5,1.89,2.48,5.51,1.48,7.54.64Z"/>
  <path class="cls-1" d="M160.42,58.05c.31.04.67-.15.89-.38.12-.13.18-.27.16-.4-.03-.3-.36-.56-.67-.66-.45-.15-1.01-.12-1.59-.07-.74.06-1.48.14-2.21.24.69.5,1.52.88,2.49,1.14.33.09.64.13.93.14Z"/>
  <path class="cls-1" d="M207.12,67.02c-6.52-6.06-14.98-12.62-22.49-9.54-.18.07-.36.16-.54.25,1.86,10.01,9.17,17.04,19.14,18.38,3.49.47,7.49.06,11.07-1.14-2.08-2.79-4.5-5.46-7.18-7.95Z"/>
  <path class="cls-1" d="M179.47,38.57c-.64-.23-1.34-.35-2.1-.35-.9,0-1.89.17-2.94.49-5.82,1.81-9.61,7.11-9.88,13.85-.16,3.82,1.42,8.44,5.28,10.15,1.95.86,4.25.81,6.15-.15,1.38-.69,2.48-1.88,3.55-3.03.85-.92,1.73-1.86,2.78-2.62-.35-2.4-.39-4.88-.12-7.37.08-.74.2-1.52.32-2.26.6-3.86,1.12-7.19-3.03-8.71Z"/>
  <path class="cls-1" d="M140.13,90.22l.07.53c.11.91.26,2.21.46,3.87.37,3.2.88,7.55,1.38,11.95.85,7.46,1.82,16.17,2.1,19.04,4.41.25,13.53.47,27.87.67,13-.22,26.35-.45,28.97-.49,0,0-.01-.01-.02-.02-.16-.18-.23-.41-.21-.65l3.96-34.91h-64.58Z"/>
  <path class="cls-1" d="M198.25,128.27c-.28,0-.48,0-.65-.01-.74-.03-4.69-.08-10.17-.14-4.46-.05-9.88-.11-15.44-.19-7.17.12-23.7.41-27.56.5.03.36.08.47.09.49.12.06.83.06,1.29.06.48,0,48.58,0,54.6-.02.11-.26.09-.36.09-.36-.09-.13-.55-.3-2.26-.32Z"/>
  <polygon class="cls-1" points="39.21 131.1 39.21 139.77 278.58 139.54 278.66 131.1 39.21 131.1"/>
  <path class="cls-1" d="M138.28,83.37c2.09-.83,4.38-.79,6.13.13,1.72.9,2.02,2.08,2.35,3.33.07.28.15.56.24.87.1.31,0,.65-.24.87h58.88c.23,0,.46.09.61.27.16.17.23.41.2.64l-.43,3.77c.64-.41,1.49-.58,2.27-.5,3.75.37,7.07,2.54,9.37,6.11,2.78,4.32,3.59,9.98,2.07,14.42-.68,2-1.52,3.77-2.49,5.3,3.38-2.78,5.33-6.46,6.08-11.45,1.55-10.25-1.29-21.17-8.01-30.77-3.94,1.4-8.4,1.9-12.3,1.38-3.48-.47-6.69-1.58-9.52-3.29-2.7-1.64-5.01-3.79-6.85-6.41-1.93-2.74-3.28-5.87-4.02-9.3-.65.56-1.25,1.21-1.88,1.89-1.18,1.27-2.38,2.57-4.03,3.4-2.34,1.17-5.16,1.24-7.55.18-4.57-2.02-6.44-7.34-6.26-11.72.14-3.5,1.19-6.77,3.04-9.45,1.96-2.84,4.72-4.89,8-5.9,2.3-.71,4.34-.75,6.09-.12,2.43.89,3.85,2.39,4.33,4.6.4,1.85.08,3.91-.23,5.91-.11.73-.23,1.47-.31,2.19-.23,2.14-.22,4.26.02,6.31.06-.02.11-.05.17-.07,3.92-1.6,8.42-1.06,13.37,1.6,4.11,2.21,7.8,5.41,10.86,8.26,2.84,2.63,5.4,5.51,7.63,8.57.35-.14.69-.3,1.03-.46,3.33-1.58,7.48-4.58,8.35-9.91.38-2.37.51-5.82-1.07-8.83-1.76-3.34-5.41-5.84-11.16-7.62-1.04-.32-2.12-.62-3.17-.92-3.65-1.02-7.4-2.07-10.61-4.21-2.27-1.52-4.18-3.46-6.03-5.33-1.9-1.93-3.87-3.93-6.17-5.38-4.54-2.87-10.15-3.5-15.82-1.76-6.46,1.98-12.05,6.83-14.6,12.67-1.03,2.36-3.22,8.25-1.37,12.09.1.21.22.41.34.61,1.14-.18,2.31-.32,3.47-.42.76-.06,1.51-.1,2.26.15.82.28,1.69,1.03,1.79,2.07.05.6-.16,1.19-.6,1.66-.52.56-1.32.91-2.09.91h-.02c-.43,0-.87-.07-1.34-.19-1.75-.46-3.14-1.27-4.16-2.41-9.13,1.61-17.4,5.79-23.92,12.07-12,11.57-18.49,32.11-8.59,46.45,1.55,2.24,4.2,5.21,8.03,6.64,1.13.42,2.04.57,2.84.46.92-.12,1.69-.61,2.02-1.29.86-1.79-1.18-4.55-2.68-6.56-.38-.5-.73-.98-1-1.4-1.83-2.77-2.98-5.81-3.41-9.04-.82-6.21,1.17-12.74,5.33-17.48,1.53-1.75,3.08-2.92,4.75-3.59Z"/>
  <path class="cls-1" d="M101.96,128.63h-28.64c-12.84.02-28.8.03-34.12.03v.79h103.77c-.16-.46-.21-1.07-.21-1.82,0-.13.03-.35.19-.54-.22-.13-.38-.37-.4-.64-.04-.56-.18-1.89-.38-3.73-.01.25-.04.51-.08.77-.62,3.72-4.62,3.57-7.26,3.47-.43-.02-.85-.03-1.21-.03h-11.43s-19.25,0-19.25,0v.88c0,.21-.07.84-.98.84Z"/>
  <path class="cls-1" d="M139.93,88.57h5.69c-.87-.44-1.83-.66-2.8-.66s-1.96.22-2.89.66Z"/>
  <path class="cls-1" d="M205.64,113.3c1.44-1.91,2.78-3.7,3.06-6.28.37-3.45-.59-6.95-2.64-9.59-.14-.19-.3-.38-.44-.59l-2.28,20.11c.22-.58.51-1.12.82-1.59.49-.73.99-1.4,1.48-2.05Z"/>
  <path class="cls-2" d="M309.96,124.52l-99.31-.12c.45-.22.88-.44,1.28-.65.48-.26.96-.56,1.43-.9,1.58-.68,2.85-1.49,3.47-1.91,4.62-3.16,7.19-7.47,8.12-13.57,1.15-7.57.06-15.25-3.21-22.82-1.3-3-2.94-5.95-4.89-8.79.26-.11.51-.23.76-.34,5.21-2.47,8.5-6.43,9.27-11.14.42-2.61.55-6.45-1.24-9.86-1.97-3.75-5.94-6.51-12.13-8.42-1.06-.33-2.15-.63-3.24-.94-3.5-.98-7.11-1.99-10.1-3.99-2.13-1.42-3.98-3.3-5.78-5.13-1.96-1.99-3.99-4.05-6.45-5.61-4.95-3.13-11.05-3.82-17.19-1.94-3.36,1.03-6.57,2.81-9.28,5.14-2.78,2.39-4.97,5.31-6.34,8.45-1.39,3.19-3.42,9.17-1.34,13.47.03.07.06.13.1.2-3.61.7-7.15,1.82-10.54,3.32-5.07,2.26-9.61,5.3-13.5,9.05-6.34,6.11-11.08,14.48-13.01,22.96-1.03,4.55-1.25,8.98-.63,13.19.67,4.56,2.29,8.74,4.84,12.43,1.68,2.44,4.58,5.67,8.81,7.25,1.39.52,2.55.69,3.63.55,1.46-.19,2.72-1.04,3.29-2.21,1.3-2.68-1.09-5.91-2.84-8.26-.36-.48-.69-.94-.95-1.32-1.7-2.56-2.76-5.37-3.15-8.35-.76-5.74,1.08-11.79,4.93-16.18,1.36-1.55,2.71-2.57,4.12-3.14,1.65-.66,3.43-.64,4.76.06.83.43,1.11.9,1.33,1.6-2.02-.57-4.22-.32-6.16.73-2.68,1.44-4.3,3.97-5.19,5.83-2.36,4.99-2.56,10.87-.53,16.12.7,1.8,2.04,3.56,3.46,5.41,2.16,2.82,4.39,5.73,3.92,8.55-.32,1.95-2.06,2.22-5.57,2.09h-.13c-.4-.02-.8-.03-1.14-.03h-8.58s-22.11,0-22.11,0l-.05-11.1c-.02-.85-.57-.96-.81-.96h-4.22s0-10.9,0-10.9c0-.24-.1-.45-.26-.6h4.25c.45,0,.82-.36.82-.81l.07-15.16c0-.22-.09-.43-.24-.58-.15-.15-.35-.23-.58-.24h-4.62s-.02-11.35-.02-11.35c0-.45-.37-.82-.83-.82-.56,0-60.32.08-60.89.08-.23,0-.46.1-.62.28-.16.18-.23.41-.2.64.04.39.04,6.54.02,12.14,0,.22.09.43.24.59s.36.24.58.24h6.11c-.27.12-.46.4-.47.72l-.12,12.57h-4.43c-.45,0-.82.36-.82.82l-.02,13.3c0,.22.09.43.24.59.16.15.36.24.58.24.09,0,1.62,0,4.17,0-.12.15-.19.33-.19.53l.02,10.6c0,.45.37.82.82.82l59.83.04v.07c-6.92,0-55.25.03-62.91.03-.45,0-.82.37-.82.82v1.61h-21.52c-.45,0-.82.37-.82.82s.37.82.82.82h21.52v9.49c0,.22.08.42.24.58.16.16.36.24.58.24l241.02-.22c.45,0,.82-.37.82-.82l.09-10.09c0-.22-.09-.43-.24-.59-.16-.16-.36-.25-.58-.25h-77.5c.24-.63.23-1.18-.04-1.65-.08-.15-.18-.27-.29-.38,1.58-.11,3.84-.88,5.15-1.37l103.15.12c.45,0,.82-.37.82-.82s-.37-.82-.82-.82ZM39.21,139.77v-8.67h239.45l-.08,8.45-239.38.22ZM102.94,126.92h19.25s11.43,0,11.43,0c.37,0,.78.02,1.21.03,2.64.1,6.64.25,7.26-3.47.04-.26.07-.51.08-.77.2,1.84.33,3.17.38,3.73.02.28.18.51.4.64-.16.18-.19.41-.19.54,0,.75.05,1.36.21,1.82H39.21v-.79c5.31,0,21.28,0,34.12-.01h28.64c.91-.01.98-.64.98-.85v-.88ZM139.93,88.57c.93-.44,1.91-.66,2.89-.66s1.93.22,2.8.66h-5.69ZM128.2,104.44c.43,3.22,1.57,6.26,3.41,9.04.27.42.63.89,1,1.4,1.49,2.02,3.54,4.78,2.68,6.56-.33.67-1.1,1.17-2.02,1.29-.81.11-1.71-.04-2.84-.46-3.84-1.42-6.49-4.39-8.03-6.64-9.9-14.35-3.41-34.89,8.59-46.45,6.52-6.29,14.79-10.46,23.92-12.07,1.02,1.13,2.42,1.94,4.16,2.41.47.12.91.19,1.34.19h.02c.77,0,1.57-.35,2.09-.91.44-.47.65-1.07.6-1.66-.1-1.05-.97-1.79-1.79-2.07-.75-.25-1.5-.22-2.26-.15-1.16.1-2.33.24-3.47.42-.13-.2-.24-.4-.34-.61-1.85-3.84.34-9.74,1.37-12.09,2.55-5.83,8.14-10.69,14.6-12.67,5.67-1.74,11.29-1.11,15.82,1.76,2.3,1.46,4.26,3.45,6.17,5.38,1.85,1.88,3.76,3.82,6.03,5.33,3.21,2.15,6.95,3.19,10.61,4.21,1.04.29,2.12.59,3.17.92,5.75,1.78,9.4,4.28,11.16,7.62,1.58,3.01,1.46,6.46,1.07,8.83-.87,5.33-5.02,8.33-8.35,9.91-.34.16-.68.31-1.03.46-2.23-3.05-4.79-5.93-7.63-8.57-3.07-2.85-6.75-6.06-10.86-8.26-4.96-2.66-9.45-3.2-13.37-1.6-.06.02-.12.05-.17.07-.24-2.05-.25-4.17-.02-6.31.08-.71.19-1.46.31-2.19.31-2,.63-4.07.23-5.91-.48-2.21-1.89-3.71-4.33-4.6-1.75-.64-3.8-.6-6.09.12-3.28,1.02-6.04,3.06-8,5.9-1.85,2.69-2.9,5.95-3.04,9.45-.18,4.37,1.69,9.69,6.26,11.72,2.39,1.06,5.21.99,7.55-.18,1.65-.83,2.86-2.13,4.03-3.4.63-.68,1.24-1.33,1.88-1.89.73,3.43,2.08,6.55,4.02,9.3,1.84,2.61,4.14,4.76,6.85,6.41,2.83,1.72,6.03,2.83,9.52,3.29,3.9.52,8.36.02,12.3-1.38,6.72,9.6,9.56,20.51,8.01,30.77-.75,4.99-2.7,8.67-6.08,11.45.97-1.53,1.8-3.3,2.49-5.3,1.52-4.44.71-10.1-2.07-14.42-2.29-3.57-5.62-5.74-9.37-6.11-.78-.08-1.62.09-2.27.5l.43-3.77c.03-.23-.05-.47-.2-.64-.16-.17-.38-.28-.61-.28h-58.88c.24-.21.34-.54.24-.86-.09-.3-.17-.59-.24-.87-.32-1.25-.63-2.43-2.35-3.33-1.75-.92-4.05-.97-6.13-.13-1.67.67-3.22,1.84-4.75,3.59-4.16,4.74-6.15,11.27-5.33,17.48ZM157,56.78c.74-.1,1.48-.18,2.21-.24.58-.05,1.14-.08,1.59.07.31.11.64.37.67.66.01.13-.04.27-.16.4-.21.23-.58.42-.89.38-.29,0-.6-.05-.93-.14-.97-.26-1.8-.64-2.49-1.14ZM203.24,76.11c-9.97-1.34-17.28-8.37-19.14-18.38.18-.09.36-.18.54-.25,7.52-3.07,15.97,3.49,22.49,9.54,2.68,2.49,5.09,5.16,7.18,7.95-3.58,1.19-7.58,1.61-11.07,1.14ZM182.18,49.54c-.27,2.49-.22,4.97.12,7.37-1.05.75-1.93,1.7-2.78,2.62-1.06,1.15-2.17,2.34-3.55,3.03-1.9.95-4.2,1.01-6.15.15-3.87-1.71-5.44-6.33-5.28-10.15.27-6.73,4.06-12.04,9.88-13.85,1.05-.33,2.04-.49,2.94-.49.76,0,1.46.12,2.1.35,4.16,1.52,3.63,4.85,3.03,8.71-.12.75-.24,1.52-.32,2.26ZM200.96,125.77s.01.01.02.02c-2.63.04-15.98.26-28.97.49-14.34-.2-23.46-.42-27.87-.67-.28-2.87-1.25-11.58-2.1-19.04-.5-4.4-1-8.75-1.38-11.95-.19-1.66-.35-2.96-.46-3.87l-.07-.53h64.58s-3.96,34.9-3.96,34.9c-.03.23.05.46.21.65ZM200.42,128.95c-6.02.02-54.12.02-54.6.02-.47,0-1.17,0-1.29-.06-.02-.03-.07-.13-.09-.49,3.86-.09,20.39-.38,27.56-.5,5.55.08,10.98.14,15.44.19,5.47.06,9.42.11,10.17.14.17,0,.37.01.65.01,1.71.02,2.17.19,2.26.32,0,0,.02.1-.09.36ZM205.62,96.83c.15.21.3.41.44.59,2.05,2.64,3.01,6.14,2.64,9.59-.28,2.58-1.62,4.37-3.06,6.28-.49.65-1,1.32-1.48,2.05-.31.47-.6,1.01-.82,1.59l2.28-20.11ZM205.03,120.76c-.92-1.21-.41-3.13.5-4.5.47-.7.96-1.36,1.45-2,1.56-2.08,3.04-4.04,3.37-7.07.42-3.87-.66-7.8-3.02-10.84-.37-.48-.76-.98-.69-1.36.06-.36.62-.62,1.28-.62.08,0,.15,0,.22,0,3.24.32,6.13,2.23,8.14,5.36,2.51,3.91,3.26,9.01,1.9,12.99-.93,2.71-2.65,6.4-5.61,8.65-2.03.84-5.65,1.85-7.54-.64ZM141.95,120.63c-.62-2.43-2.38-4.73-4.09-6.97-1.34-1.76-2.62-3.42-3.23-5-1.86-4.84-1.69-10.24.48-14.83.63-1.33,1.67-3.04,3.27-4.29v.03c.14.76,2.43,20.71,3.57,31.06ZM202.49,124.39l.49-4.29c.11.58.35,1.14.74,1.65.96,1.26,2.3,2,3.93,2.19-.38.16-.76.31-1.14.45h-4.02ZM97.29,86.57h3.79s-.06,13.5-.06,13.5l-58.28-.08.11-11.74h53.62c.22,0,.43-.1.58-.25s.24-.36.24-.58v-.85ZM96.21,103.13v10.09c-11.78,0-37.1.03-50.62.05h-8.12s.02-11.64.02-11.64h3.6s0,.67,0,.67c0,.22.09.43.24.58.15.16.37.24.59.24h54.3ZM97.03,116.2c.45,0,.82-.37.82-.82v-.51h3.39c.01,1.92.03,6.85.04,10.4l-59-.04-.02-8.96,54.76-.07ZM36.4,74.47c2.35,0,12.81-.02,24.35-.03,14.81-.02,31.39-.04,34.88-.05l.02,10.54-59.24.13c0-2.46.02-8.33,0-10.58Z"/>
</svg>