<?xml version="1.0" encoding="UTF-8"?><svg xmlns="http://www.w3.org/2000/svg" viewBox="0 0 32600 16700" fill="#69a6c2">
  <path d="M31581 9464h-4169c-167 0-310 119-342 282l-221 1147c-38 197-113 382-223 549l-2653 4029c-145 220-413 322-668 254l-10262-2746c-209-58-342-162-374-292-9-36-9-73 0-108 18 9 38 16 58 22l2559 679c135 36 282-3 382-100l104-101 3694 975c201 53 411-21 535-188l702-949c53-71 66-164 36-247-31-84-101-146-187-166l-3387-795c-103-24-210 1-295 74l-1145 1112-2536-670c-191-61-380-35-517 69 4-35 23-66 54-88l1924-1419c67-49 153-67 235-50l2434 507c-11 30-13 63-5 95 15 58 61 101 119 113l7086 1505c206 43 424-43 543-216l1215-1752c44-64 52-145 22-216-31-71-95-121-172-133l-8835-1319c-80-12-137-84-130-164l4-38 9168 1344c118 17 236-12 332-82 96-70 160-174 179-291l1283-7772c21-128-14-259-97-359s-204-160-334-163l-9839-270h-12c-233 0-433 181-456 413l-604 6138c-18 187 105 355 284 397l-50 459-183-27c-141-21-287 17-401 103l-597 452H609c-45 0-82 37-82 82s37 82 82 82h15258c18 0 36-6 50-17l619-469c79-60 180-86 277-71l189 28-5 46c-15 167 103 318 269 343l8835 1319c20 3 37 16 46 35 8 19 6 40-6 57l-1215 1752c-84 121-231 179-374 149l-7071-1501 15-13 3541 738c104 22 213-19 277-104l172-230c34-46 42-105 22-158-21-53-66-91-122-102l-3396-657c-82-16-169 8-232 63l-308 272-2532-528c-127-28-261 0-366 78l-1924 1419c-93 68-138 181-116 294 6 30 15 58 29 84-42 85-53 181-30 273 27 110 126 310 490 411l10263 2746c66 17 133 26 201 26 261 0 503-130 647-349l2653-4029c122-186 206-391 248-609l221-1147c17-86 92-149 180-149h4169c45 0 82-37 82-82s-37-82-82-82ZM13143 12385l2444 645-33 32c-59 58-146 80-226 59l-2559-679s-9-2-13-4c94-81 236-102 387-54ZM17128 11871l3387 795c34 8 59 30 70 62 12 32 7 65-13 93l-702 949c-83 113-225 163-361 127l-3599-950 1064-1035c41-38 99-53 154-41ZM26357 10305l-9174-1345 50-459 7275 991s1746 238 1746 238c81 11 162-10 227-58 66-49 109-120 121-201l1097-6913c13-80-10-162-61-225-52-63-128-100-209-103l-9336-316c-176-6-329 127-345 303l-659 6095c-89-30-148-118-138-215l604-6138c15-153 145-271 300-265l9838 270c82 2 160 40 212 103s75 146 61 228l-1283 7772c-25 154-171 261-325 237ZM27422 2395c34 1 66 17 88 43 22 26 31 61 26 95l-1097 6913c-12 78-86 132-164 122l-1906-260s-4983-679-4983-679c32-91 54-245 85-487 14-112 32-257 48-325 133 6 274 15 445 29 10 1 19 2 29 2l262 25-5-4h7l104 8c27 4 53 8 78 16l20 3c100 4 2350 326 3664 516 42 6 83-5 116-31 33-26 54-63 59-105 15-135 64-582 74-645 23-123 36-332 39-434q3-96-1358-197c-345-26-671-50-828-66-650-59-1332-115-2144-177-11-3-24-5-37-7-11-2-22-4-32-6l-11-2c-71-7-145-14-220-12-9-4-23-8-42-8-47 2-93-6-143-17-6-99 0-195 8-296l3-56 10-62c4-87 18-172 33-262l14-91v-17c2-16 2-34 1-54 81 1 216 15 320 26 117 12 158 16 181 14l119 11c348 31 1225 127 2074 220 857 94 1666 182 1945 206 96 10 179-61 191-157 26-211 26-626 26-825 0-49 0-83 0-86v-25s-4-17-4-17c-4-22-17-90-101-104-145-15-1403-92-1770-102-151-7-266-16-378-30-38-3-75-5-113-7-67-4-137-8-209-16-8-4-21-9-34-9-32-4-64-5-96-6-44-1-85-2-124-13l-10-3h-11c-140 0-276-13-403-28h-6s-6 0-6 0c-14 0-28-2-45-5-11-2-23-4-38-5-298-16-582-41-821-63-38-3-74-11-113-20l-86-8c-68-6-135-12-207-14-8-4-21-8-36-9-55-4-113-9-164-23-3-14-3-32-3-50 0-16 0-31-2-36 0-30 0-60 0-90 0-58 0-112 6-168 6-55 12-109 17-163 11-112 21-218 41-326 0-4 1-5 4-12 8-4 29-4 43-3 24 5 53 8 83 7 46 0 124-2 198-4l368 26c79 6 158 18 234 29 66 10 132 20 199 26l50 5c53 5 104 9 156 18h11c25 2 47 3 70 4 24 1 48 3 80 3 5 0 22 4 33 8 18 5 36 10 59 13 15 0 28-3 39-6 325 43 652 76 968 107 255 25 518 51 784 84 35 3 1199 139 1256 147h7s7 1 7 1c128-1 149-132 158-188l3-18c8-86 20-761-2-985l-3-14c-9-30-37-70-88-83l-12-2c-167-14-742-38-1351-62-662-27-1346-54-1639-75-33-2-66-3-100-4-48-2-98-3-151-9-12-3-29-8-45-8-9-4-22-7-40-8-20 0-38-1-57-3-21-2-46-4-60-3-9-4-21-8-37-8-109-3-222-6-340-22-33 0-66-7-102-13-73-8-146-12-219-16-122-7-238-14-359-37-25-3-46 0-63 3-10 1-18 3-23 2-6 0-11-1-15-2-19-81-17-163-15-249 0-23 1-46 1-71 0-19 8-93 15-157 11-95 18-165 20-215l7492 254ZM19841 7375c26 40 56 83 101 114 160 114 316-34 386-100 62-49 136-83 200-109 25-8 50-13 76-16-33 15-66 32-98 53l-28 11c-160 93-265 235-353 376-7 7-13 11-20 15l-14 7-43-16c-104-87-177-206-208-333ZM20033 5501c79 92 212 143 311 64l51-41c110-87 213-169 338-198 7-1 15-2 22-3-39 17-78 36-116 58-111 65-207 154-287 264l-12 17c-21 29-67 93-87 115l-30 10-16-12c-29-24-56-52-85-82l-8-7c-15-12-28-32-42-53l-5-7s-2-10-3-16l-9-19c-29-45-57-99-74-159 15 24 32 47 50 69ZM20210 3482c52 74 125 134 229 145 90 10 157-47 206-89l9-8c97-92 203-147 328-171 14-3 29-5 43-6-69 31-137 68-198 115-32 19-66 43-91 64-20 16-37 34-54 53-12 13-25 27-44 43-31 30-68 71-101 108-22 25-52 58-66 71l-68 23-49-45c-24-22-26-29-38-58-7-16-14-36-27-61-35-70-62-127-79-185ZM19768 2892c24 80 110 89 138 92 25 3 46 0 62-3 10-1 18-3 17-3 125 25 251 32 374 39 71 4 141 8 207 15 35 6 75 13 111 13 114 16 228 19 337 22 9 4 23 8 42 9 19 0 38 1 57 3 21 2 41 3 60 3 9 4 24 8 45 8 3 0 7 2 10 2 8 2 16 4 31 7 53 5 105 6 156 8 32 1 64 2 95 4 294 21 979 49 1642 75 573 23 1116 45 1313 59 18 248 5 858 0 917l-2 14c-3 18-9 54-11 62-133-16-1228-146-1255-147-262-32-527-58-782-83-318-32-648-64-982-109-14 0-27 3-38 5-6-1-11-3-17-5-23-7-52-15-78-14-25 0-47-2-70-3-22-1-45-2-69-3-55-9-107-14-163-19l-49-4c-64-6-127-16-191-25-30-5-60-9-91-14 26-29 52-58 71-77 20-16 37-34 54-53 12-13 25-27 40-39 20-17 48-36 80-56 104-80 225-126 341-165l25-14c17-11 52-33 50-79l-3-44-23-12c-42-49-100-57-136-61-10-1-19-2-34-6-67-11-126-11-180 0-151 28-283 96-404 211-33 28-67 59-94 54-113-12-170-156-215-290l-5-16-11-12c-38-40-79-35-96-31-38 10-66 43-78 93-11 49-9 100-8 149l3 20c3 10 4 23 4 38 0 14 1 27 4 44 20 99 63 185 101 260 8 15 13 28 18 39-75 3-170 5-238 6-22 0-40-1-54-5l-17-2c-45 0-128-3-182 74-9 17-19 35-24 65-21 113-32 227-43 337-5 53-10 106-17 161-7 65-7 126-7 185 0 28 0 57 0 95 1 11 1 22 1 33 0 34 1 75 16 110 9 28 35 57 56 68l11 5c69 24 143 32 216 37 9 4 22 9 39 9 73 2 140 8 209 14l67 5c42 9 85 18 132 22 240 22 525 47 821 63 9 0 17 2 25 4 20 4 43 9 70 7 127 15 260 29 406 29 53 14 103 15 151 16 23 0 47 1 75 4 8 4 21 9 34 9 74 9 151 13 225 18 37 2 74 4 107 7 112 14 231 24 387 31 370 10 1521 82 1731 99 0 15 0 40 0 86 0 181 0 605-25 807-2 16-14 27-29 26-277-24-1085-112-1941-205-751-82-1525-167-1935-207 7-10 16-21 24-33l12-17c67-93 148-168 241-222 52-30 111-56 168-79 32-13 65-24 98-35 26-9 53-17 79-27l120-44-92-79c-5-5-10-9-16-13-43-33-87-42-124-50l-33-7c-77-9-145-8-212 4-162 37-284 134-402 228l-51 40c-27 21-78-14-103-42-43-52-73-108-92-171-5-17-13-29-22-43l-6-14c-11-20-46-81-106-76-35 3-63 27-74 59-60 149-35 320 72 495 0 5 2 11 4 18l25 43c6 9 12 17 18 26-129-13-279-27-359-21-34 5-92 29-95 132v7s0 7 0 7c2 14 1 32 0 49l-13 92c-15 90-31 184-34 270l-14 123c-8 115-16 234-4 360l3 14c11 37 43 54 63 65l20 7c63 14 129 29 196 27 9 4 22 7 41 8 72-2 138 4 209 10 12 3 24 5 37 7 11 2 22 4 32 6l13 2c814 62 1496 118 2146 177 158 16 485 41 831 66 446 33 1040 77 1217 103-5 109-17 261-35 354-10 67-56 479-79 657-818-118-3442-496-3670-517-61-17-122-23-180-26 75-111 151-198 254-260l36-15c53-38 118-61 183-85 15-5 26-12 34-19 8-2 18-4 28-6 31-5 70-12 105-40l12-10 7-14c19-35 10-86-43-114l-9-4c-141-52-284-59-422-17-81 33-167 72-249 138-104 99-156 122-201 91-23-16-42-44-63-74l-12-17c-33-58-58-113-82-179-9-30-31-53-60-63-29-10-62-6-87 12l-11 8-8 12c-38 57-35 120-32 166 0 11 1 21 1 34 6 149 60 297 149 419-129-9-242-16-352-20l-39-2-24 31c-36 48-53 156-87 428-21 163-55 435-89 481 3-4 16-15 37-15v25l-2020-275 660-6104c8-88 81-155 176-155l1695 57c-3 53-13 143-20 203-10 92-16 149-16 175 0 23 0 45-1 67-2 99-4 202 25 311ZM17959 10933l3396 657-172 230c-26 34-69 51-112 42l-3420-713 216-191c25-22 60-32 92-25Z" />
</svg>
