<?xml version="1.0" encoding="UTF-8"?>
<svg id="Layer_1" data-name="Layer 1" xmlns="http://www.w3.org/2000/svg" viewBox="0 0 326 167">
  <defs>
    <style>
      .cls-1 {
        fill: none;
      }

      .cls-1, .cls-2 {
        stroke-width: 0px;
      }

      .cls-2 {
        fill: #69a6c2;
      }
    </style>
  </defs>
  <path class="cls-1" d="M226.49,97.33c-4.04-3.22-15.11-14.51-16.98-18.18-.12-.23-.24-.46-.35-.67.07,5.65-.28,16.3-.86,24.81.38.03.83.18,1.33.57,4.45,3.45,8.79,6.06,10.13,6.13.02-.29.05-.61.11-.95.61-3.58,4.15-11.38,6.62-11.71Z"/>
  <path class="cls-1" d="M191.18,91.33c.17.88.36,1.8.56,2.69.68,2.1,1.21,4.11,1.51,5.94.01-.48.03-.98.04-1.5.29-9.17.9-17.28,1.65-22.23,0-.22-.02-.43-.03-.63-1.73,3.67-2.86,10.08-3.73,15.72Z"/>
  <path class="cls-1" d="M188.89,76.84c-.44-.28-.87-.53-1.28-.78-1.66-.99-3.22-1.92-4.56-3.69l-.33-.44c-.72-.95-1.57-2.08-2.44-2.93.17.33.41.78.71,1.35,1.76,3.3,5.18,9.73,8,16.41-.08-.86-.08-1.52,0-1.86,1.39-5.72.71-7.53-.1-8.05Z"/>
  <path class="cls-1" d="M163.65,110.35c.15.77.15,1.91.07,3.22.46-.79,1.08-1.54,1.87-2.01,1.57-.94,3.37-3.56,3.05-10.69-.31-6.99-4.73-25.73-5.63-29.19-1.98,1.48-4.89,3.86-7.07,5.64-3.54,2.9-5.76,4.69-6.56,5.1-.14.13-.29.61-.4,1.4,1.11,2,1.97,4.8,2.32,6.44.61,2.89.38,4.53-.71,5.01-.37.16-1.3.38-2.02-1.15-.78-1.66-1.49-6.65-1.13-9.98-.45-.74-.82-1.14-1.03-1.19-.44,0-.89.02-1.33.04-1.68.08-3.43.16-4.64-1.06-.71-.71-1.56-2.42-2.58-5.21-.56,1.09-1.4,2.08-2.87,2.65l-.6.23c-2.2.87-3.98,1.54-5.33,1.8.18.26.38.54.6.85,1.02,1.44,2.73,3.86,3.27,4.18.17.1.83.18,2.08-.23.63-.21,1.22-.48,1.72-.77,1.01-1.15,1.91-2.4,2.35-3.09.21-.33.64-.44.98-.25.34.18.49.6.34.96l-.68,1.59c-.31.72-1.09,1.4-2.02,1.96-1.05,1.17-2.28,2.28-3.42,2.7-.05.29-.06.88.23,1.6.38.95,1.34,2.27,3.77,3.21,5.34,2.04,8.86,2.52,11.78,1.58.4-.13.83-.27,1.27-.43,2.09-.71,4.49-1.53,6.48-1.53,1.3,0,2.42.34,3.18,1.29,1.33,1.66,1.82,6.34,2.28,11.82.13,1.55.24,2.9.37,3.51Z"/>
  <path class="cls-1" d="M137.63,73.01c.21-.58.45-1.16.77-1.67,1.36-2.15,3.48-10.27,2.81-11.52-.35.04-1.55.72-4.8,6.51l-.25.44c-.17.29-.61,1.05-1.34.87-.83-.21-.86-1.17-.93-3.08-.01-.35-.02-.72-.04-1.08-.25-4.78-1.32-12.17-2.35-13.38-.5,1.18.02,6.11.25,8.28.33,3.11.38,3.59-.11,3.96-.21.16-.51.2-.75.11-.54-.2-.61-.58-1.21-3.54-.46-2.28-1.67-8.23-2.68-8.99-.6,1.07.59,6.87,1.05,9.1.51,2.48.67,3.32.58,3.78-.07.35-.42.68-.77.68h0c-.71,0-.76-.24-1.34-3.12-.36-1.78-1.24-6.18-1.98-7.55-.18.87-.36,3.45.76,10.83l.04.28c.06.39-.2.81-.59.89-.7.14-.86-.45-1.04-1.13-.86-3.21-1.48-4.88-1.9-5.74.44,3.92,3.61,15.38,4.73,18.08.7,1.68,1.62,1.59,3.62,1.21.34-.06.68-.13,1.03-.18.98-.15,2.55-1.46,3.7-2.41,1.3-1.09,2.06-1.7,2.73-1.6Z"/>
  <path class="cls-1" d="M194.67,103.23c.12-2.73.21-5.75.27-8.79-.14,3.21-.23,6.18-.27,8.79Z"/>
  <path class="cls-1" d="M192.8,69.08c.09.25.19.49.28.69.42.94,1.51,1.38,2.99,1.67.44-1.03.96-1.44,1.62-1.37.5.05,1.23.14,2.09.28-.12-.08-.24-.16-.36-.25-.62-.07-1.3-.11-1.97-.14-1.67-.09-3.39-.18-4.57-.83-.03-.01-.05-.03-.07-.04Z"/>
  <path class="cls-1" d="M149.4,88.85c-.17-.58-.35-1.13-.54-1.63.01.29.03.6.05.92.21,3.14.79,5.01,1.15,5.59.15-.51.16-2.08-.66-4.88Z"/>
  <path class="cls-1" d="M197.79,47.05c-.52-.94-1.87-1.32-3.3-1.73-.35-.1-.71-.2-1.06-.31,0,0,0,0,0,0,.5.51.83,1.06,1.14,1.56.47.77.81,1.32,1.58,1.59.72.26,1.34.15,1.79-.03.03-.46-.02-.84-.15-1.08Z"/>
  <path class="cls-1" d="M192.91,58.66c-.56,3.91-.46,8.52.68,9.15.85.47,2.34.56,3.79.64-1.15-1.1-2.04-2.36-2.04-3.52s-.37-1.6-.84-2.15c-.53-.62-1.2-1.39-1.01-3.12.17-1.49,1.07-2.27,1.74-2.84.12-.1.24-.21.35-.31,2.51-2.05,3.41-3.23,3.35-4.38-.03-.51-.06-.95-.09-1.33-.55,1.46-1.44,2.84-2.47,3.56-1.34.94-2.64,2.12-4,3.46.02,0,.04.01.05.02.32.13.52.46.47.8Z"/>
  <path class="cls-1" d="M183.92,71.04l.33.43c1.16,1.53,2.54,2.35,4.13,3.3.43.26.87.52,1.32.8,2.41,1.53,1.58,6.25.76,9.67-.07.27-.07.74-.02,1.35.99-5.58,2.28-10.92,4.26-13.57.09-.12.22-.21.37-.26-1.55-.39-2.77-1.04-3.37-2.38-1.16-2.61-2.23-7.56-.82-11.01-.19.19-.37.39-.56.58-1.93,2.02-5.66,4-8.49,3.74-.1.54-.48,1.08-.85,1.6-.22.31-.47.66-.55.88-.11.29-.26.51-.39.71,0,0,0,0,0,0,1.46.92,2.76,2.66,3.89,4.15Z"/>
  <path class="cls-1" d="M197.59,71.7c.29.04.59.08.9.12,1.19.16,2.54.34,3.89.65.52.12,1.01.23,1.46.35-1.81-.59-4.05-1.02-6.17-1.25-.03.03-.06.07-.08.12Z"/>
  <path class="cls-1" d="M186.71,136.53c0-.46.23-4.73.76-8.47-.03,0-.05,0-.08,0-.92,1.56-1.74,11.82.79,16.25.6-.83,1.21-3.22,1.79-6.16-1.41-.15-2.45-.4-2.87-.78-.25-.23-.39-.52-.39-.83Z"/>
  <path class="cls-1" d="M185.13,128.23c.04.25.11,1.13.16,2.28.22-1.57.54-2.79.89-3.34.05-.08.1-.14.15-.2-.23-.33-.1-.81.04-1.35.14-.53.25-1.66.34-3.12-.17-1.13.04-2.76.19-3.72.03-.71.06-1.43.09-2.17.24-5.54.53-12.42,1.29-16.5.31-1.64.62-3.75.95-5.98.09-.62.19-1.25.28-1.89-3-8.28-7.88-17.46-9.86-21.17-.51-.96-.86-1.61-.98-1.89-.26-.56-.38-1.02-.42-1.41-.13-.02-.27-.03-.4-.01-.74.07-1.38.12-1.9.15h0c1.8,1.7,3.3,5.53,4.57,10.61.67,1.66,1.34,3.43,1.98,5.31,4.04,11.82,5.19,22.04,3.41,30.37-.05.24-.21.43-.43.53s-.48.08-.68-.04q-.43-.26-1.05-5.76c-.73-6.53-2.25-20.17-4.64-29.84-2.04-5.08-4.01-8.94-4.89-10.58-.25-.11-.5-.14-.75-.11l-.95.17c-2.12.38-3.83.68-4.28.94,0,.01,0,.02.01.03.56,1.39,8.04,29.95,5.78,45.17,1.31.53,6.88.7,9.79.67.68-.03,1.18-.04,1.47-.04.34,0,.77,0,.96.48.11.29.04.61-.19.82-.07.07-.27.12-.56.16v.03s-.21,0-.21,0h-.06c-.51.05-1.2.07-2.01.07-.83.04-1.85.09-2.98.14-11.99.59-15.65.64-16.82.28-.14,1.73-.25,3.39-.12,4.2.13.8-.03,1.5-.14,2.01-.03.13-.07.3-.08.42.21.04.71.06,1.89-.1.51-.07,1.18-.12,1.97-.17,5.94-1.21,15.54-1.78,17.58-1.64.65.04,1.87.12,1.87,1.08,0,1.31-1.68,1.55-12.84,1.84-2.32.06-4.55.12-6.26.21-1.86.34-3.23.68-3.67.97-.15.75-.56,1.46-.93,2.09-.08.14-.19.33-.28.49.5-.04,1.51-.15,2.73-.28,8.84-.94,13.75-1.31,16.49-1.31,3.08,0,3.41.46,3.51,1.1Z"/>
  <path class="cls-1" d="M188.98,128.11c-.42,3.03-.73,6.7-.76,8.21.33.18,1.05.31,2.03.39.51-2.78.98-5.87,1.37-8.54-.36,0-.69-.02-.98-.02-.65-.02-1.2-.03-1.66-.04Z"/>
  <path class="cls-1" d="M194.78,123.99c-.1.88-.21,1.81-.34,2.76,6.83.21,10.72.53,12.72,1.08-.03-.14-.05-.3-.07-.47,0-.08-.02-.16-.02-.25-.14-.81-.4-1.9-.63-2.2-.95-.21-7.46-.66-11.66-.93Z"/>
  <path class="cls-1" d="M192.8,136.84c4.71.1,11.63-.24,14.97-.58.36-.04.7.04.99.23-.34-3.18-.84-6.15-1.24-7-.86-.76-8.22-1.09-13.29-1.25-.42,2.92-.94,5.98-1.43,8.6Z"/>
  <path class="cls-1" d="M189.21,126.62c.45.01.95.02,1.47.04.39,0,.78.02,1.16.03.03-.18.05-.35.08-.52.12-.86.24-1.64.34-2.34-1.04-.07-1.86-.12-2.3-.15-.26.45-.51,1.55-.75,2.94Z"/>
  <path class="cls-1" d="M184.71,137.55c-.22.29-.49.38-.67.41-.43.05-5.97.54-11.67.87-7.45.44-10.17.36-11.21.04-.19,2.47-.2,4.87.27,5.86.3.62.61,1.14,1.02,1.56.62-.33,1.31-.5,2.01-.5.62,0,1.25.13,1.84.4,1.96.89,16.09.5,20.61-1.11-1.18-2.07-1.73-5.23-1.87-8.34-.09.35-.19.63-.33.8Z"/>
  <path class="cls-1" d="M182.78,89.85c.92,5.74,1.7,12.03,2.4,18.25.28-6.07-.8-12.43-2.4-18.25Z"/>
  <path class="cls-1" d="M164.12,147.31c.55.19,1.21.32,2.03.41-.19-.05-.35-.1-.48-.16-.55-.25-1.08-.31-1.55-.25Z"/>
  <path class="cls-1" d="M183.16,147.39c-2.12.32-4.57.54-6.95.66,2.29,0,4.74-.16,6.95-.66Z"/>
  <path class="cls-1" d="M172.92,40.71s.08,0,.16-.02c.68-.19,1.86-.42,3.86-.81l.27-.05c.84-1.51,3.01-8.7,2.79-10.32-.8.09-1.27.89-3,4.22l-.6,1.16c-1,1.92-2.01,3.44-2.82,4.67-.29.44-.56.85-.8,1.23.04-.01.09-.03.14-.04v-.02Z"/>
  <path class="cls-1" d="M200.7,44.21c-.91-.65-1.07-1.82-1.26-3.17l-.04-.32c-.59-6.86-5.13-10.02-5.79-10.26-.5-.18-.88-.54-1.24-1-.32.22-.95.72-2.06,1.82-1.86,1.86-1.92,8.34-1.81,9.62.13-.29.46-.46.79-.43,4.31.25,9.21,2.74,11.7,4.03-.11-.12-.21-.22-.29-.28Z"/>
  <path class="cls-1" d="M189.15,41.95s0,0-.01,0c-.3-.02-.55-.21-.66-.47-.01.03-.03.06-.04.09-.16.29-.5.44-.83.37-2.44-.56-12.37-.07-14.16.21-.37.06-1.03.16-1.21-.44-.24.48-.37.86-.32,1.13.11.63.49.76,1.92,1.01.37.06.76.13,1.16.22.65.15.7.08,1.04-.49.22-.37.5-.82,1.01-1.21,1.46-1.09,10.71.22,14.22,1.34-.32-.27-.63-.54-.91-.8-.42-.38-.99-.89-1.21-.96Z"/>
  <path class="cls-1" d="M184.99,27.12c.17-.1.34-.19.51-.28-.97.33-1.68.71-1.98.96.31-.08.8-.26,1.46-.68Z"/>
  <path class="cls-1" d="M203.13,117.47c-4.23-.2-12.92-.6-14.13-.47-.23.24-.44.97-.59,1.83-.06,1.28-.11,2.46-.18,3.48.11.05.21.12.3.22.08.09.14.22.17.36.1-.19.21-.35.33-.45.23-.21.52-.31.8-.29.3.03,1.29.09,2.65.18.67-4.35.87-4.76,1.36-5.01.26-.13.66-.09.88.09.45.36.45,2.34.21,5.08,7.01.46,11.07.76,11.98,1-.07-2.04-.2-4.99-.49-5.88-.53-.02-1.6-.07-3.28-.15Z"/>
  <path class="cls-1" d="M274.31,20.4c-1.81-.66-25.07-1.48-26.92-.14-4.19,3.77-18.25,17.07-18.74,18.92-.41,2.44-.61,23.76-.05,25.25.71,1.45,16.61,17.17,18.28,18.08,1.02.51,7.43.62,8.97.32,0-.02.02-.04.02-.06.04-.09.12-.32.1-.38,0,0-.34-.62-3.83-.64-3.66-.02-3.88-.12-5.99-2.62-.69-.81-3.04-2.98-5.52-5.27-7.93-7.32-10.57-9.96-10.57-11.13,0-.33-.05-1.45-.11-3.02-.48-11.44-.66-19.36,0-20.8.89-1.96,16.96-16.76,18.89-17.4,1.64-.55,22.7-.83,23.72-.32.95.47,18.35,16.63,18.98,18.1.65,1.53.57,22.29.41,23.37-.25,1.78-17.85,18.21-19.11,18.68-.72.27-2.96.29-7.64.3-2.5,0-5.77,0-6.95.15.07,3.98-.02,6.54-.21,8.21.31-.08.65-.13,1.02-.16,0-1.9-.1-4.41-.23-6.32-.01-.22.07-.43.22-.59.16-.15.38-.23.59-.21,6.15.55,13.11.66,14.09-.13,3.08-2.46,19.29-17.29,19.43-19.89l.04-.72c1.16-20.09.23-23.53-.23-24.07-2.15-2.58-17.06-16.91-18.67-17.5Z"/>
  <path class="cls-1" d="M200.91,111.51c0,.78-.02,1.36-.04,1.68-.06.76.22,1.1.44,1.28.13.11.28.2.45.28-.3-.77-.58-1.88-.85-3.24Z"/>
  <path class="cls-1" d="M265.2,80.15c2.74,0,6.53,0,7.11-.2,1.66-.79,17.23-15.86,18.16-17.56.22-2.04.08-21.23-.33-22.52-.74-1.27-16.47-16-18.24-17.3-.61-.09-3.16-.13-6.33-.13-6.35,0-15.24.18-16.27.51-1.78.71-17.27,14.98-18,16.6-.64,1.41-.06,15.49.13,20.12.07,1.6.11,2.74.11,3.08.33,1.02,6.44,6.66,10.09,10.02,2.63,2.43,4.9,4.53,5.65,5.41q1.75,2.07,4.77,2.08c2.43.02,3.91.28,4.7.84.09-.89.96-.98,8.45-.95Z"/>
  <path class="cls-1" d="M256.23,102.74c-.03-.21-.06-.42-.11-.6-.16-.58.02-.96.19-1.18.07-.09.16-.17.25-.24-.88-.17-1.31-.56-1.52-.9-.29-.46-.29-1.02-.02-1.58.17-.35.5-.59.97-.75-.04-.07-.07-.15-.09-.23-.01-.07-.32-1.6.61-2.82.32-.42.74-.75,1.26-.97-.24-.18-.46-.4-.64-.63-.17.15-.34.22-.52.27-.51.13-1.64,1.11-2.55,1.9-1.26,1.09-2.56,2.22-3.66,2.59-1.97.66-4.57.83-7.09.92-.91.03-1.41.17-1.99.34-.13.04-.26.08-.4.11.55.65.92,2.22,1.61,5.53.37,1.77.96,4.61,1.43,5.53,2.14-1.53,9.46-4.95,13.51-5.04-.11-.05-.21-.12-.3-.19-.73-.55-.85-1.39-.94-2.07Z"/>
  <path class="cls-1" d="M259.46,103.72c1.21-.18,2.39-.81,3.31-1.59-.3-.1-.75-.17-1.41-.17-.73,0-1.39-.02-1.97-.04-.67-.02-1.41-.05-1.78,0,.04.21.08.42.1.62.07.46.13.9.36,1.07.23.17.72.21,1.4.11Z"/>
  <path class="cls-1" d="M258.81,105.28h-.02c.05.05.09.11.12.17.01.02.02.04.03.07,2.16-.55,4.28-1.41,4.53-1.84,0-.06,0-.12,0-.18-1.1.87-2.44,1.51-3.79,1.71-.31.05-.61.07-.87.07Z"/>
  <path class="cls-1" d="M226.33,98.97c-1.23.91-3.8,5.55-4.74,9.16,1.91-2.7,4.5-7.52,4.74-9.16Z"/>
  <path class="cls-1" d="M206.02,110.19c-.51,2.19-.92,3.83-1.52,4.82.35-.03.69-.08.99-.14.27-.71.56-2.94.85-6.01-.11.46-.22.92-.32,1.33Z"/>
  <path class="cls-1" d="M202.05,73.94c-1.29-.29-2.55-.46-3.76-.63-.41-.06-.82-.11-1.22-.17-.2.76-.41,1.81-.63,3.22.14,2.7.19,7.52.03,16.19-.06,3.17-.39,19.09-1.31,21.69-.3.84-.93.71-1.05.68-.55-.15-1.22-.33-.91-13.34-.05.06-.12.11-.19.15-.27.15-.6.12-.84-.07-.07-.05-.15-.22-.25-.5h-.02s0-.05-.01-.08c-.35-.97-.87-3.02-1.38-5.35-.26,1.72-.51,3.32-.75,4.64-.69,3.71-.99,9.91-1.22,15.18.03,0,.07-.02.1-.02.2-.04.64-.05,1.3-.05,1.87,0,5.51.14,10.7.38-.11-.07-.22-.16-.33-.24-.49-.42-1.05-1.2-.95-2.53.11-1.54-.02-8.93-.3-16.76-.84-10-1.28-20.12-1.26-20.29.05-.37.35-.65.72-.66.4-.04.69.25.76.62.49,2.75.96,11.57,1.26,19.96.74,8.31,1.71,16.5,2.6,18.4.53-.76,1.06-3.05,1.4-4.5.57-2.46,1.12-4.81,2.18-5.92.71-9.87,1.25-23.34.92-27.61-1.22-1.26-2.73-1.74-5.61-2.39Z"/>
  <path class="cls-1" d="M239.26,99.26c-.58.04-1.29.04-2.21-.02-1.11-.08-2.13-.08-3.12-.09-2.3-.02-4.3-.04-6.14-.94.03.1.04.21.05.33.14,1.97-4.01,9.77-6.57,12.22.04.31.13.46.2.48,1.79.62,7.19,1.58,18.77-2.87.02-.74-.32-2.86-.55-4.31-.46-2.84-.63-4.13-.44-4.79Z"/>
  <path class="cls-1" d="M263.84,100.98s.04-.05.06-.08c-.04.01-.08.03-.13.04.02.01.05.03.07.04Z"/>
  <path class="cls-1" d="M257.47,96.18l-.09,1s0,.05,0,.07c.93-.08,2.14-.08,3.65-.06.53,0,1.07.01,1.6.01.91,0,1.48-.07,1.85-.12,0,0,.02,0,.03,0-.02-.13-.05-.27-.09-.41-.23-.57-1.12-.88-1.83-1.02-2.07-.41-4.57.15-5.1.53Z"/>
  <path class="cls-1" d="M260.25,93.03c1.64-.22,2.9-.76,3.45-1.13-.98-.29-2.16-.47-3.19-.54-.04.72-.12,1.3-.24,1.61,0,.02-.01.04-.02.06Z"/>
  <path class="cls-1" d="M261,98.7c-.42,0-.89-.01-1.38-.01-1.46,0-2.99.05-3.32.31.02,0,0,.05,0,.06.03.04.33.25,1.18.25.31,0,.76.06,1.32.14,1.54.22,4.41.64,5.39-.45.1-.11.18-.25.25-.4-.4.05-.99.11-1.83.11-.54,0-1.08,0-1.61-.01Z"/>
  <path class="cls-1" d="M258.88,92.4c.06-.21.1-.58.13-1.05-.46.03-.79.11-.92.22h0s.07.21.29.45c.18.21.38.33.49.37Z"/>
  <path class="cls-2" d="M274.82,18.99c-1.29-.47-26.1-1.95-28.43.15-.19.17-18.78,17.09-19.23,19.79-.33,1.98-.81,24.16.05,26.11.84,1.89,17.6,18.12,18.98,18.81,1.46.73,9.35.9,10.58.24,0,5.93-.45,7.3-.65,7.61-.84.27-1.86,1.16-3.04,2.18-1.1.95-2.34,2.03-3.15,2.3-1.79.6-4.38.76-6.67.84-1.09.04-1.73.22-2.34.4-.83.24-1.62.46-3.76.31-1.15-.08-2.2-.09-3.21-.1-2.29-.02-4.09-.03-5.67-.88-2.34-1.25-15.49-14.49-17.43-18.3-.6-1.19-1.18-2.1-1.79-2.82-.04-.46-.08-.79-.14-.97-.58-1.75-3.05-2.88-5.58-3.58.18-.51-.22-.97-.36-1.13-.68-.79-1.78-1.13-3.02-1.31-1.52-1.13-3.1-2.65-3.1-3.73,0-1.73-.67-2.5-1.2-3.13-.46-.54-.77-.9-.65-1.98.1-.9.65-1.37,1.22-1.86.14-.12.28-.24.36-.32,2.52-2.06,3.96-3.63,3.86-5.58-.17-3.17-.42-4-.46-4.14-.08-.24-.29-.42-.54-.48,0,0-.01,0-.02,0-.04-.43-.15-.81-.32-1.12-.83-1.49-2.54-1.97-4.2-2.44-.34-.1-.68-.19-1.01-.3-.61-.19-1.23-.65-1.82-1.15,3.3.84,6.61,2.55,8.41,3.49.68.35,1.12.58,1.4.68.87.32,1.24-.27,1.3-.39.53-1-1.15-2.89-1.61-3.22-.38-.27-.5-1.15-.64-2.16l-.04-.28c-.6-7.03-5.24-10.95-6.77-11.5-.32-.12-.7-.68-1.11-1.28-.51-.75-1.14-1.68-2.08-2.4-1.36-1.04-4-.48-5.07-.19-.55.15-3.34.95-3.85,2.2-.41.98.04,1.5.25,1.67.93.79,2.61-.07,3.51-.64,2.39-1.4,4.38-.63,5.44.04-.49.37-1.12.93-1.96,1.78-1.86,1.86-2.48,7.43-2.31,10.11-1.98-.2-5.38-.16-8.34-.04,1.36-2.56,2.98-9.39,2.88-10.83-.09-1.25-.81-1.43-1.12-1.45-2.01-.09-2.75,1.28-4.69,5.03l-.6,1.15c-.96,1.85-1.95,3.34-2.74,4.54-1.26,1.92-2.1,3.18-1.88,4.39.32,1.73,1.82,1.99,3.15,2.22.34.06.7.12,1.07.21,1.71.4,2.28-.55,2.66-1.17.18-.29.35-.57.59-.76,1.25-.58,11.68.65,13.67,1.84.86.51,1.27,1.19,1.71,1.91.51.83,1.08,1.77,2.35,2.22.73.26,1.4.29,1.98.19-.4,1.31-1.15,2.71-2.1,3.38-2.12,1.48-4.1,3.49-6.29,5.78-2.23,2.33-6.68,4.16-8.5,2.89-1.25-.87-2.66-4.28-3.45-8.33-.25-1.64-.44-3.56-.57-5.82-.04-.69-.04-.75-.12-.91-.16-.31-.5-.48-.84-.4-.34.08-.58.38-.58.72-.02,2.09.21,4.43.64,6.69.82,5.34,2.3,8.67,4.42,9.93-.13.23-.34.53-.49.74-.3.43-.59.83-.73,1.23-.04.11-.12.23-.22.37-.06.08-.11.17-.17.26-.3-.06-.6-.08-.91-.05-.72.07-1.34.11-1.85.14-1.18.07-1.67.11-1.95.49-.22-.02-.45-.01-.68.03l-.97.17c-3.77.67-4.91.87-5.38,1.71-.31.56-.09,1.11-.01,1.3.55,1.4,7.97,30.19,5.63,44.79-.02.24.04.66.55.99-3.72.15-7.38.25-8.69.12.17-.85.85-2.45,2-3.13,2.79-1.67,4.06-5.72,3.77-12.04-.33-7.4-5.18-27.74-5.8-29.95.11-.1.41-.31,1.21-.6.73-.27.67-.77.62-.97-.19-.67-.8-.55-1.35-.44-1,.2-3.71,2.32-9.82,7.31-2.75,2.25-5.59,4.57-6.29,4.92-.37.18-.65.58-.86,1.14-.46-.48-.94-.76-1.42-.76s-.95.02-1.41.04c-1.48.07-2.77.13-3.51-.62-.38-.38-1.24-1.71-2.81-6.29.02-.05.03-.11.05-.16.27-.85.53-1.64.93-2.27,1.18-1.86,3.81-10.19,2.98-12.73-.2-.62-.56-.87-.84-.98-1.75-.69-3.83,2.11-6.4,6.62,0-.19-.01-.37-.02-.54-.01-.36-.02-.73-.04-1.1,0-.12-.76-12.55-2.96-14.53-.38-.34-.76-.39-1.01-.38-.35.02-.67.18-.91.46-.54.63-.7,1.98-.66,3.81-.88-3.13-1.77-4.57-3.05-4.38-.38.06-.7.26-.94.6-.35.5-.49,1.33-.47,2.42-.34-.36-.71-.49-1.13-.4-.61.12-1.63.33-1.23,5.95-.63-1.16-1.17-1.46-1.75-1.42-.3.02-.57.19-.74.47-1.23,2.01,3.91,18.8,4.65,20.58,1.2,2.88,3.46,2.45,5.28,2.1.32-.06.65-.12.98-.17,1.39-.21,3.01-1.56,4.44-2.74.37-.31.82-.68,1.17-.95-.48,1.37-1.09,2.57-2.59,3.16l-.6.24c-1.43.57-4.51,1.78-5.77,1.84-.71-.9-1.01-1.01-1.49-.8-.14.06-.6.33-.44,1.06.09.43.35.77.74.98.11.06.23.1.35.14.37.5.81,1.13,1.21,1.69,1.76,2.5,2.97,4.16,3.74,4.61.35.21.79.29,1.24.29-.24.12-.5.4-.61,1.01-.27,1.48.4,4.75,4.93,6.48,5.68,2.18,9.5,2.66,12.78,1.61.41-.13.84-.28,1.3-.43,2.84-.97,6.74-2.3,8-.72,1.15,1.44,1.66,7.43,1.96,11.01.14,1.67.25,2.98.39,3.67.22,1.09.01,3.57-.17,5.75-.18,2.18-.35,4.24-.18,5.36.08.52-.03,1.02-.12,1.45-.13.58-.28,1.24.2,1.76.13.15.3.26.5.34-.14.14-.22.29-.24.44-.07.52-.44,1.16-.77,1.73-.49.84-.91,1.56-.51,2.22.37.6,1.13.56,1.39.54.4-.02,1.5-.14,3.03-.3,4.1-.44,16.31-1.73,18.39-1.17.21,1.84.25,6.6-.12,7.75-2.66.27-18.97,1.53-21.66,1.03-.02-.81.12-2.58.22-3.7.21-2.61.23-2.88-.49-3.03-.07,0-.68-.12-.92.61-.36,1.08-2.03,11.09-.65,13.97.35.73.74,1.34,1.2,1.84-.67.77-.97,1.75-.81,2.72.23,1.43,1.09,9,1.94,17.06h1.51c-.9-8.48-1.83-16.4-1.97-17.29-.09-.54.1-1.09.49-1.54,1.39.84,3.33,1.16,6.27,1.16.69,0,1.57.04,2.58.09,4.79.23,12.63.59,17.17-2.61,5.42,3.91,19.71,1.95,19.86,1.92.09-.01.14,0,.16,0,.34.28.42,2.04.48,3.6.08,1.9.18,4.26.67,7,.35,2,.71,4.72,1.02,7.68h1.5c-.33-3.13-.7-5.98-1.05-7.93-.46-2.65-.56-4.95-.64-6.81-.11-2.49-.17-4-1.04-4.7-.25-.21-.7-.42-1.35-.32-2.26.38-13.95,1.45-18.44-1.43.98-.99,1.7-2.22,2.08-3.77.22-.91.5-2.21.8-3.73,6.16.22,15.2-.53,15.46-.53h0c.88.86.5,5.74.38,7.34-.08,1.02-.1,1.26-.04,1.47.05.2.18.37.36.47.18.1.39.12.59.06.38-.12.68-.42.89-.89,1.27-2.89-.46-15.63-1.28-17.38-.08-.18-.23-.34-.46-.5.11-.1.19-.24.23-.4,0-.03,0-.14,0-.31h0s0-.04-.01-.08c-.01-.17-.04-.39-.07-.64-.05-.63-.09-1.64-.13-2.78-.22-6.41-.44-8.02-1.68-8.02-.05,0-.17,0-.33,0,.11-.09.21-.21.3-.36.55-.98,1.06-5.38,1.47-10.97.17.02.36.14.51.26,1.42,1.1,8.45,6.44,11.17,6.44h.02c.19.58.55.97,1.08,1.16,2.44.85,8.31,1.59,20.17-3.02.16-.06.3-.18.38-.33.17-.3.22-.75.18-1.46.58,2.43,1.05,3.55,1.83,3.82.37.13.76.05,1.08-.22,1.23-1.04,7.02-3.88,11.04-4.7-.2.38-.33.86-.33,1.48v58.8h1.5v-58.8c0-.99.47-1.19,1.19-1.39.11-.03.22-.06.33-.1v60.3h1.5v-60.17c2.38-.64,4.98-1.64,5.1-2.93.04-.48.1-1.12-.12-1.74.76-.96,1.21-2.01,1.17-2.99,0-.18-.01-.34-.01-.47.15-.69.11-1.52-.14-2.49-.49-1.27-1.88-1.9-3.45-2.12,1.58-.47,2.95-1.22,3.07-2.18.04-.3,0-1.04-1.14-1.39-.48-.15-2.12-.55-3.76-.67.01-1.94-.1-4.24-.18-5.57,3.79.31,12.55.87,14.29-.53.2-.16,19.78-17.06,19.99-20.98l.04-.72c1.18-20.48.24-24.15-.58-25.12-1.61-1.93-16.98-17.1-19.31-17.95ZM184.99,27.12c-.67.42-1.15.61-1.46.68.3-.25,1.01-.63,1.98-.96-.17.08-.34.18-.51.28ZM173.58,39.55c.81-1.23,1.82-2.75,2.82-4.67l.6-1.16c1.72-3.32,2.2-4.13,3-4.22.22,1.62-1.95,8.82-2.79,10.32l-.27.05c-2,.39-3.17.62-3.86.81-.08.01-.13.02-.16.02v.02s-.1.03-.14.04c.24-.38.51-.79.8-1.23ZM177.05,42.37c-.51.38-.79.84-1.01,1.21-.34.57-.39.64-1.04.49-.4-.09-.79-.16-1.16-.22-1.43-.25-1.81-.38-1.92-1.01-.05-.27.08-.66.32-1.13.18.6.85.5,1.21.44,1.79-.28,11.73-.77,14.16-.21.33.08.66-.08.83-.37.02-.03.03-.06.04-.09.11.26.36.46.66.47,0,0,0,0,.01,0,.22.07.79.58,1.21.96.28.26.58.53.91.8-3.51-1.12-12.75-2.44-14.22-1.34ZM189.29,40.46c-.34-.02-.66.14-.79.43-.11-1.28-.05-7.76,1.81-9.62,1.11-1.11,1.74-1.6,2.06-1.82.36.46.74.82,1.24,1,.66.24,5.2,3.4,5.79,10.26l.04.32c.19,1.36.35,2.53,1.26,3.17.08.06.18.16.29.28-2.49-1.29-7.39-3.78-11.7-4.03ZM203.85,72.82c-.45-.12-.94-.23-1.46-.35-1.36-.31-2.7-.49-3.89-.65-.31-.04-.61-.08-.9-.12.03-.05.06-.09.08-.12,2.11.23,4.36.66,6.17,1.25ZM199.41,70.1c.12.08.24.17.36.25-.86-.14-1.6-.22-2.09-.28-.66-.07-1.18.34-1.62,1.37-1.48-.3-2.57-.73-2.99-1.67-.09-.2-.18-.43-.28-.69.02.01.05.03.07.04,1.18.65,2.9.74,4.57.83.67.04,1.35.07,1.97.14ZM196.15,48.16c-.77-.27-1.11-.83-1.58-1.59-.31-.5-.64-1.05-1.14-1.56,0,0,0,0,0,0,.35.11.7.21,1.06.31,1.43.4,2.77.79,3.3,1.73.13.24.18.62.15,1.08-.45.18-1.07.29-1.79.03ZM196.38,54.37c1.03-.72,1.92-2.1,2.47-3.56.03.38.06.83.09,1.33.06,1.15-.83,2.32-3.35,4.38-.11.1-.23.2-.35.31-.66.57-1.57,1.35-1.74,2.84-.19,1.73.47,2.5,1.01,3.12.47.54.84.97.84,2.15s.89,2.42,2.04,3.52c-1.46-.08-2.94-.17-3.79-.64-1.15-.63-1.25-5.24-.68-9.15.05-.34-.14-.68-.47-.8-.02,0-.04-.01-.05-.02,1.35-1.34,2.65-2.52,4-3.46ZM180.03,66.89c.13-.2.29-.42.39-.71.08-.21.33-.56.55-.88.37-.53.75-1.06.85-1.6,2.83.25,6.56-1.73,8.49-3.74.19-.2.38-.39.56-.58-1.41,3.45-.34,8.4.82,11.01.59,1.33,1.81,1.98,3.37,2.38-.15.05-.28.14-.37.26-1.99,2.65-3.28,7.99-4.26,13.57-.05-.61-.05-1.07.02-1.35.83-3.42,1.65-8.14-.76-9.67-.45-.28-.89-.55-1.32-.8-1.59-.95-2.97-1.78-4.13-3.3l-.33-.43c-1.12-1.49-2.43-3.22-3.89-4.15,0,0,0,0,0,0ZM194.95,94.44c-.06,3.04-.15,6.06-.27,8.79.04-2.61.13-5.58.27-8.79ZM193.29,98.46c-.02.51-.03,1.01-.04,1.5-.3-1.83-.83-3.84-1.51-5.94-.19-.89-.38-1.81-.56-2.69.87-5.64,2.01-12.05,3.73-15.72,0,.2.02.4.03.63-.75,4.94-1.36,13.06-1.65,22.23ZM188.99,86.76c-2.83-6.67-6.25-13.1-8-16.41-.3-.56-.54-1.02-.71-1.35.88.85,1.73,1.98,2.44,2.93l.33.44c1.34,1.76,2.9,2.7,4.56,3.69.42.25.85.5,1.28.78.81.51,1.49,2.33.1,8.05-.08.35-.08,1,0,1.86ZM134.9,74.61c-1.15.96-2.72,2.27-3.7,2.41-.35.05-.7.12-1.03.18-2,.38-2.92.48-3.62-1.21-1.12-2.7-4.3-14.15-4.73-18.08.42.87,1.04,2.54,1.9,5.74.18.68.35,1.27,1.04,1.13.39-.08.64-.5.59-.89l-.04-.28c-1.13-7.38-.95-9.97-.76-10.83.74,1.37,1.62,5.77,1.98,7.55.58,2.89.63,3.12,1.34,3.12h0c.36,0,.7-.33.77-.68.09-.46-.07-1.3-.58-3.78-.46-2.23-1.66-8.03-1.05-9.1,1.01.75,2.22,6.71,2.68,8.99.6,2.96.68,3.34,1.21,3.54.24.09.54.05.75-.11.49-.37.44-.84.11-3.96-.23-2.18-.75-7.1-.25-8.28,1.02,1.21,2.09,8.61,2.35,13.38.02.36.03.72.04,1.08.07,1.92.1,2.88.93,3.08.73.18,1.17-.58,1.34-.87l.25-.44c3.26-5.79,4.45-6.47,4.8-6.51.67,1.25-1.45,9.37-2.81,11.52-.33.51-.57,1.09-.77,1.67-.67-.1-1.43.51-2.73,1.6ZM161,95.02c-.76-.95-1.88-1.29-3.18-1.29-1.99,0-4.39.82-6.48,1.53-.45.15-.88.3-1.27.43-2.92.94-6.44.47-11.78-1.58-2.43-.93-3.39-2.26-3.77-3.21-.29-.72-.28-1.31-.23-1.6,1.15-.42,2.37-1.53,3.42-2.7.93-.56,1.71-1.24,2.02-1.96l.68-1.59c.15-.36,0-.77-.34-.96-.34-.19-.77-.07-.98.25-.45.68-1.34,1.94-2.35,3.09-.51.29-1.1.56-1.72.77-1.25.41-1.9.33-2.08.23-.54-.32-2.25-2.74-3.27-4.18-.22-.31-.42-.59-.6-.85,1.36-.26,3.14-.93,5.33-1.8l.6-.23c1.47-.58,2.3-1.56,2.87-2.65,1.02,2.79,1.87,4.51,2.58,5.21,1.21,1.21,2.96,1.14,4.64,1.06.44-.02.89-.04,1.33-.04.21.05.58.45,1.03,1.19-.36,3.33.35,8.32,1.13,9.98.72,1.53,1.66,1.32,2.02,1.15,1.09-.48,1.32-2.12.71-5.01-.35-1.64-1.21-4.44-2.32-6.44.11-.8.26-1.28.4-1.4.81-.4,3.02-2.2,6.56-5.1,2.17-1.78,5.08-4.16,7.07-5.64.91,3.46,5.32,22.2,5.63,29.19.32,7.13-1.48,9.75-3.05,10.69-.79.48-1.42,1.22-1.87,2.01.07-1.32.08-2.46-.07-3.22-.12-.61-.24-1.95-.37-3.51-.46-5.48-.95-10.15-2.28-11.82ZM148.87,87.22c.18.5.36,1.05.54,1.63.82,2.8.81,4.37.66,4.88-.36-.58-.94-2.45-1.15-5.59-.02-.32-.04-.63-.05-.92ZM181.63,127.12c-2.74,0-7.64.37-16.49,1.31-1.22.13-2.23.24-2.73.28.09-.17.19-.35.28-.49.37-.63.78-1.35.93-2.09.44-.29,1.82-.63,3.67-.97,1.71-.09,3.94-.15,6.26-.21,11.16-.29,12.84-.53,12.84-1.84,0-.95-1.22-1.03-1.87-1.08-2.04-.14-11.65.43-17.58,1.64-.79.05-1.46.1-1.97.17-1.17.15-1.68.13-1.89.1.02-.12.05-.29.08-.42.11-.51.27-1.21.14-2.01-.13-.81-.02-2.47.12-4.2,1.17.36,4.83.31,16.82-.28,1.13-.06,2.14-.11,2.98-.14.81,0,1.5-.02,2.01-.07h.27s0-.03,0-.03c.29-.04.49-.1.56-.16.23-.21.3-.54.19-.82-.19-.48-.62-.48-.96-.48-.28,0-.79.02-1.47.04-2.91.03-8.48-.14-9.79-.67,2.25-15.22-5.23-43.78-5.78-45.17,0-.01,0-.02-.01-.03.45-.26,2.16-.56,4.28-.94l.95-.17c.25-.04.5,0,.75.11.88,1.64,2.85,5.49,4.89,10.58,2.39,9.67,3.91,23.31,4.64,29.84q.61,5.5,1.05,5.76c.21.12.46.14.68.04s.38-.29.43-.53c1.78-8.33.63-18.55-3.41-30.37-.64-1.87-1.31-3.65-1.98-5.31-1.28-5.08-2.78-8.91-4.57-10.61h0c.52-.03,1.16-.07,1.9-.15.13-.01.27,0,.4.01.03.39.16.85.42,1.41.13.28.48.93.98,1.89,1.98,3.71,6.86,12.89,9.86,21.17-.1.64-.19,1.27-.28,1.89-.33,2.23-.64,4.33-.95,5.98-.76,4.07-1.05,10.96-1.29,16.5-.03.73-.06,1.46-.09,2.17-.16.96-.36,2.59-.19,3.72-.09,1.47-.2,2.59-.34,3.12-.14.54-.27,1.02-.04,1.35-.05.06-.1.13-.15.2-.36.56-.68,1.77-.89,3.34-.05-1.14-.12-2.03-.16-2.28-.1-.64-.43-1.1-3.51-1.1ZM182.78,89.85c1.59,5.82,2.68,12.17,2.4,18.25-.7-6.21-1.48-12.51-2.4-18.25ZM164.12,147.31c.47-.06,1.01,0,1.55.25.13.06.29.11.48.16-.82-.08-1.48-.22-2.03-.41ZM176.21,148.05c2.38-.12,4.82-.34,6.95-.66-2.21.5-4.66.65-6.95.66ZM166.29,146.19c-.59-.27-1.22-.4-1.84-.4-.7,0-1.39.17-2.01.5-.41-.42-.72-.94-1.02-1.56-.47-.99-.46-3.39-.27-5.86,1.03.32,3.75.4,11.21-.04,5.71-.34,11.24-.82,11.67-.87.18-.02.45-.11.67-.41.13-.18.24-.45.33-.8.14,3.11.68,6.27,1.87,8.34-4.52,1.61-18.64,2-20.61,1.11ZM188.18,144.31c-2.53-4.44-1.72-14.69-.79-16.25.03,0,.05,0,.08,0-.52,3.74-.76,8.01-.76,8.47,0,.31.14.61.39.83.42.38,1.46.63,2.87.78-.58,2.94-1.19,5.33-1.79,6.16ZM190.24,136.71c-.98-.09-1.69-.21-2.03-.39.03-1.51.34-5.18.76-8.21.46.01,1.01.02,1.66.04.29,0,.61.01.98.02-.39,2.67-.86,5.76-1.37,8.54ZM191.91,126.16c-.02.17-.05.34-.08.52-.38,0-.77-.02-1.16-.03-.52-.01-1.02-.02-1.47-.04.23-1.39.49-2.5.75-2.94.44.03,1.25.09,2.3.15-.1.7-.22,1.47-.34,2.34ZM207.52,129.49c.4.85.9,3.82,1.24,7-.29-.19-.63-.27-.99-.23-3.33.33-10.26.68-14.97.58.49-2.61,1.01-5.68,1.43-8.6,5.07.15,12.43.49,13.29,1.25ZM207.09,127.37c.02.17.04.32.07.47-2-.55-5.89-.87-12.72-1.08.13-.96.24-1.89.34-2.76,4.2.27,10.71.71,11.66.93.24.3.5,1.4.63,2.2,0,.09.02.17.02.25ZM206.91,123.49c-.91-.23-4.97-.54-11.98-1,.24-2.73.24-4.72-.21-5.08-.23-.18-.62-.22-.88-.09-.49.25-.69.66-1.36,5.01-1.36-.09-2.35-.15-2.65-.18-.28-.03-.57.08-.8.29-.11.1-.22.26-.33.45-.03-.15-.08-.27-.17-.36-.09-.1-.19-.17-.3-.22.06-1.02.12-2.19.18-3.48.15-.86.36-1.59.59-1.83,1.22-.13,9.91.27,14.13.47,1.68.08,2.75.13,3.28.15.29.89.42,3.84.49,5.88ZM200.87,113.19c.02-.32.04-.9.04-1.68.27,1.36.55,2.47.85,3.24-.17-.08-.33-.17-.45-.28-.21-.18-.49-.52-.44-1.28ZM204.5,115.01c.6-.99,1.01-2.63,1.52-4.82.1-.41.2-.86.32-1.33-.29,3.07-.58,5.3-.85,6.01-.3.06-.63.11-.99.14ZM206.73,103.94c-1.06,1.1-1.61,3.46-2.18,5.92-.34,1.45-.87,3.74-1.4,4.5-.89-1.9-1.86-10.09-2.6-18.4-.3-8.39-.77-17.21-1.26-19.96-.07-.36-.36-.66-.76-.62-.37,0-.68.29-.72.66-.02.17.42,10.29,1.26,20.29.28,7.83.42,15.22.3,16.76-.1,1.33.46,2.11.95,2.53.1.09.21.17.33.24-5.19-.24-8.84-.38-10.7-.38-.66,0-1.1.02-1.3.05-.04,0-.07.01-.1.02.23-5.27.53-11.48,1.22-15.18.25-1.32.5-2.92.75-4.64.51,2.33,1.03,4.38,1.38,5.35,0,.03,0,.05.01.08h.02c.1.27.19.44.25.49.24.19.57.22.84.07.07-.04.14-.09.19-.15-.32,13.01.36,13.19.91,13.34.12.03.75.16,1.05-.68.92-2.6,1.25-18.52,1.31-21.69.16-8.67.11-13.49-.03-16.19.22-1.41.43-2.46.63-3.22.4.06.8.11,1.22.17,1.21.16,2.47.33,3.76.63,2.87.65,4.39,1.14,5.61,2.39.32,4.27-.21,17.74-.92,27.61ZM219.87,109.04c-.06.34-.09.66-.11.95-1.34-.06-5.68-2.68-10.13-6.13-.5-.39-.95-.54-1.33-.57.58-8.51.93-19.17.86-24.81.11.21.23.43.35.67,1.87,3.68,12.94,14.96,16.98,18.18-2.47.33-6.01,8.12-6.62,11.71ZM226.33,98.97c-.24,1.63-2.83,6.46-4.74,9.16.94-3.61,3.51-8.24,4.74-9.16ZM221.47,111.22c-.07-.03-.16-.18-.2-.48,2.55-2.44,6.71-10.25,6.57-12.22,0-.12-.03-.23-.05-.33,1.84.91,3.84.92,6.14.94.99,0,2.01.02,3.12.09.92.07,1.63.06,2.21.02-.19.66-.02,1.95.44,4.79.23,1.45.57,3.57.55,4.31-11.59,4.44-16.98,3.49-18.77,2.87ZM256.75,81.1c-.79-.56-2.28-.83-4.7-.84q-3.02-.02-4.77-2.08c-.75-.88-3.02-2.98-5.65-5.41-3.65-3.37-9.75-9-10.09-10.02,0-.34-.05-1.48-.11-3.08-.19-4.63-.78-18.71-.13-20.12.73-1.62,16.22-15.89,18-16.6,1.03-.33,9.92-.51,16.27-.51,3.18,0,5.72.04,6.33.13,1.77,1.3,17.5,16.03,18.24,17.3.41,1.29.54,20.48.33,22.52-.93,1.71-16.5,16.77-18.16,17.56-.58.21-4.37.21-7.11.2-7.49-.03-8.36.06-8.45.95ZM243.96,110.04c-.48-.91-1.07-3.75-1.43-5.53-.68-3.31-1.05-4.88-1.61-5.53.14-.04.27-.07.4-.11.58-.17,1.08-.31,1.99-.34,2.52-.09,5.13-.26,7.09-.92,1.1-.37,2.4-1.5,3.66-2.59.91-.79,2.04-1.77,2.55-1.9.18-.04.35-.12.52-.27.18.23.4.45.64.63-.51.22-.93.55-1.26.97-.93,1.21-.62,2.75-.61,2.82.02.08.05.16.09.23-.48.16-.8.4-.97.75-.28.55-.27,1.11.02,1.58.21.34.64.73,1.52.9-.09.07-.17.14-.25.24-.17.22-.35.6-.19,1.18.05.19.08.39.11.6.09.68.21,1.52.94,2.07.09.07.19.13.3.19-4.05.08-11.37,3.51-13.51,5.04ZM258.07,103.61c-.23-.17-.29-.61-.36-1.07-.03-.21-.06-.41-.1-.62.38-.05,1.11-.02,1.78,0,.58.02,1.24.04,1.97.04.66,0,1.11.07,1.41.17-.91.78-2.09,1.41-3.31,1.59-.67.1-1.17.06-1.4-.11ZM263.47,103.67c-.26.43-2.37,1.29-4.53,1.84,0-.02-.02-.04-.03-.07-.03-.06-.07-.12-.12-.17h.02c.27,0,.56-.02.87-.07,1.35-.2,2.7-.85,3.79-1.71,0,.06,0,.12,0,.18ZM263.84,100.98s-.05-.03-.07-.04c.04-.01.08-.03.13-.04-.02.03-.04.05-.06.08ZM264.2,99c-.97,1.08-3.84.67-5.39.45-.56-.08-1.01-.14-1.32-.14-.84,0-1.15-.21-1.18-.25,0-.01,0-.06,0-.06.33-.26,1.86-.31,3.32-.31.48,0,.96,0,1.38.01.53,0,1.08.01,1.61.01.84,0,1.43-.06,1.83-.11-.06.15-.14.29-.25.4ZM262.58,95.65c.71.14,1.61.45,1.83,1.02.04.14.07.28.09.41,0,0-.02,0-.03,0-.38.05-.95.12-1.85.12-.53,0-1.07,0-1.6-.01-1.51-.02-2.71-.02-3.65.06,0-.02,0-.04,0-.07l.09-1c.53-.38,3.03-.94,5.1-.53ZM258.1,91.58c.13-.12.46-.19.92-.22-.03.47-.07.83-.13,1.05-.12-.04-.31-.16-.49-.37-.22-.25-.27-.45-.29-.45h0ZM260.51,91.36c1.03.07,2.21.25,3.19.54-.55.37-1.81.91-3.45,1.13,0-.02.01-.04.02-.06.12-.32.2-.89.24-1.61ZM293.21,61.98l-.04.72c-.14,2.61-16.35,17.43-19.43,19.89-.98.79-7.94.69-14.09.13-.21-.02-.43.06-.59.21-.16.15-.24.37-.22.59.13,1.91.23,4.42.23,6.32-.37.03-.71.08-1.02.16.2-1.66.29-4.23.21-8.21,1.17-.15,4.44-.15,6.95-.15,4.68,0,6.91-.03,7.64-.3,1.25-.47,18.85-16.9,19.11-18.68.15-1.08.24-21.84-.41-23.37-.63-1.47-18.03-17.62-18.98-18.1-1.02-.51-22.08-.23-23.72.32-1.94.65-18,15.45-18.89,17.4-.66,1.44-.47,9.36,0,20.8.07,1.57.11,2.68.11,3.02,0,1.17,2.64,3.81,10.57,11.13,2.49,2.29,4.83,4.46,5.52,5.27,2.11,2.5,2.33,2.59,5.99,2.62,3.49.02,3.83.63,3.83.64.02.06-.06.28-.1.38,0,.02-.01.04-.02.06-1.54.3-7.95.18-8.97-.32-1.67-.9-17.56-16.62-18.28-18.08-.56-1.49-.36-22.81.05-25.25.49-1.85,14.55-15.15,18.74-18.92,1.85-1.34,25.11-.52,26.92.14,1.61.59,16.52,14.92,18.67,17.5.46.55,1.39,3.99.23,24.07Z"/>
  <path class="cls-2" d="M191.03,166.9c-.21-.72-.53-1.74-.9-2.92-.61-1.95-1.61-5.13-2.27-7.65.1-.19.19-.34.28-.45.72,1.19,1.96,5.45,3.3,11.13h1.55c-1.34-5.79-3.02-11.9-4.23-12.65-.25-.16-.53-.2-.8-.13-.12.03-.24.09-.36.17.04-1.48-.05-2.49-.35-2.74-.21-.18-.6-.24-.85-.13-.72.29-.95,1.03-.3,3.88-.04.48-.09,1.01-.14,1.58-1.47,3.55-2.5,9.24-2.51,9.32-.03.2-.07.44-.12.71h2.85c.37-2.46.74-5.12,1.01-7.54.41,1.39.91,3.03,1.52,4.97.32,1.01.59,1.89.8,2.58h1.57l-.03-.1Z"/>
</svg>