<?xml version="1.0" encoding="UTF-8"?>
<svg id="Layer_1" data-name="Layer 1" xmlns="http://www.w3.org/2000/svg" viewBox="0 0 326 167">
  <defs>
    <style>
      .cls-1 {
        fill: none;
      }

      .cls-1, .cls-2 {
        stroke-width: 0px;
      }

      .cls-2 {
        fill: #69a6c2;
      }
    </style>
  </defs>
  <path class="cls-1" d="M118.59,139.29c-1.81-5.86-3.83-11.98-6.89-16.76-3.62-5.66-7.81-7.98-12.81-7.08-6.42,1.15-13.91,10.99-18,20.11-.09.2-.25.55-.57.73,14.94.1,28.96,1.68,38.96,4.46.11-.27.23-.54.35-.81-.46.08-.91-.2-1.04-.65Z"/>
  <path class="cls-1" d="M119.2,112.07c-2.77-.71-4.96-1.01-6.39-1.01-.88,0-1.47.11-1.71.32-.02.02-.06.16.15.54,5.2,9.65,7.93,17.63,9.11,26.62,3.06-5.26,8.78-9.05,12.38-10.75-1.3-3.55-5.27-8.16-6.81-9.94-.83-.96-3.14-3.44-6.73-5.78Z"/>
  <path class="cls-1" d="M154.83,104.52c-.82-.54-2.03.24-3.13,1,1.34.86,2.66,1.8,3.73,2.66.19-1.46.16-3.17-.6-3.66Z"/>
  <path class="cls-1" d="M98.56,113.61c.79-.14,1.58-.21,2.34-.21,4.76,0,8.93,2.73,12.37,8.12.61.95,1.17,1.94,1.69,2.95-1.37-3.7-3.13-7.52-5.36-11.66-.88-1.63-.09-2.55.3-2.87.77-.64,2.18-.8,3.77-.72-2.72-1.04-5.4-1.49-7.99-1.38-5.99.28-11.38,3.71-16.03,10.22-1.06,1.48-2,2.91-2.84,4.25,3.54-4.41,7.68-7.98,11.75-8.71Z"/>
  <path class="cls-1" d="M159.11,102.76c-1.06-.53-2.47-.53-3.83-.1.2.08.39.18.58.3,1.24.81,1.75,2.58,1.48,5.11-.02.19-.04.37-.07.54,1.42-1.1,3.51-1.85,5.68-1.53-1.04-2.19-1.96-3.37-3.84-4.31Z"/>
  <path class="cls-1" d="M143.61,103.29c-.87-.3-2.51-.75-3.83-.54.92.24,1.92.7,2.54,1.39.5.56.98,1.25,1.43,2.04-.04-.1-.07-.21-.11-.31-.47-1.31-.25-2.08.13-2.52-.05-.02-.11-.04-.16-.06Z"/>
  <path class="cls-1" d="M173.32,103.61c-.65-.43-1.25-.52-1.82-.28-2.14.92-2.91,2.25-4.19,4.45l-.07.12c-.22.38-.45.78-.71,1.2,0,0,0,.01-.01.02.72.11,1.6-.08,2.76-.33.3-.07.61-.13.94-.2,1.42-.29,4.41-.32,6.53.41-.62-1.93-1.94-4.39-3.44-5.39Z"/>
  <path class="cls-1" d="M182.32,103.46l-.12.06c-.24.13-.52.14-.76.06.74.86,1.3,1.65,1.89,2.48.46.65.9,1.26,1.43,1.94.19.24.25.55.16.84,1.65-.13,3.27-.14,5.08-.02-.79-1.69-1.98-3.31-2.9-4.16-1.46-1.35-3.47-1.86-4.78-1.21Z"/>
  <path class="cls-1" d="M179.23,103.92c-1.65-1.71-3.73-2.53-5.77-2.33.3.12.6.27.89.47,2.28,1.52,4.06,5.25,4.52,7.72.15-.09.29-.18.42-.27l.1-.07c1.03-.66,1.84-1.18,2.97-1.5-.19-.26-.37-.51-.54-.76-.78-1.11-1.5-2.12-2.61-3.26Z"/>
  <path class="cls-1" d="M290.9,86.39c-13.95,0-26.29,3.67-36.81,7.72,10.38-2.18,28.71-5.96,38.54-4.15-.31-1.19-.74-2.39-1.27-3.57h-.46Z"/>
  <path class="cls-1" d="M180.95,59.87l.08.15c2.79,5.12,13.05,11.24,16.82,12.31-.09-.11-.2-.23-.32-.36-3.02-3.28-5.94-6.65-8.77-9.91-3.49-4.03-6.8-7.85-9.83-10.95-.25,2.94.42,5.88,2.02,8.76Z"/>
  <path class="cls-1" d="M146.98,105.08c-1.05-.44-1.53-.47-1.74-.48,0,.12.05.33.16.64,1.03,2.85,1.51,5.11,1.33,9.51.07-.07.15-.14.24-.23.5-.47,1.18-1.12,2.37-1.47,1.58-.46,3.08-.59,4.49-.38-1.99-2.86-4.18-5.66-6.84-7.59Z"/>
  <path class="cls-2" d="M311.69,87.13c-6.39-1.6-12.83-2.47-19.15-2.6-1.91-3.74-4.84-7.41-8.96-11.2-5.66-5.21-12.93-10.06-19.96-14.77-5.08-3.4-10.34-6.91-14.98-10.54-5.48-4.29-10.2-9.32-14.78-14.19-9.67-10.29-18.01-19.17-28.68-15.07-8.49,3.26-20.94,17.71-24.7,23.18-1.21,1.76-2.12,3.58-2.7,5.43-3.9-3.59-6.9-5.27-9.38-5.27-2.63,0-5.64,3.41-9.8,8.13-3.27,3.71-6.98,7.91-11.02,10.9-9.33,6.89-16.23,10.94-20.8,13.63-5.26,3.09-7.23,4.25-6.63,6.12.86,2.67,5.54,3.12,9.31,3.48,0,0,0,0,.01,0-3.82.72-8.97-.61-12.97-2.33-3.71-1.59-7.48-4.79-11.13-7.89-2.22-1.88-4.31-3.66-6.39-5.1-3.78-2.61-6.79-4.17-9.21-3.35-1.75.6-3.05,2.39-4.07,5.62-2.49,7.86-7.5,11.16-10.27,12.42-1.7.78-5.74,1.91-9.66,3.01-9.12,2.56-10.58,3.07-10.46,4.36.1,1,1.27,1.09,1.77,1.13,1.54.12,3.55-.17,6.11-.54,5.35-.77,13.44-1.94,23.66.07,2.63.52,4.75.96,6.83,1.4,4.13.87,7.7,1.62,13.47,2.53,12.01,1.89,19.08,2.12,48.4-13.24,9.62-5.04,30.37,1.26,41.88,5.46,13.2,4.82,25.23,10.77,30.46,14.09-.66-.12-1.38-.25-2.13-.39-7.35-1.37-21.04-3.91-32.82-2.67-1.96.21-8.26,1.17-11.45,2.82-.06.03-.12.06-.19.1-.36.21-.54.63-.45,1.02-.09-.1-.18-.19-.28-.29-2.49-2.57-5.93-3.54-9.02-2.53-2.71.88-4.8,3.3-6.38,7.36-1.3-2.99-2.45-4.96-5.23-6.36-3.17-1.59-7.95.05-9.83,3.37-.01.03-.03.05-.04.08-.75-.43-1.49-.8-2.16-1.09-1.21-.85-2.45-1.5-3.7-1.93-1.05-.36-3.08-.92-4.83-.6-4.33.78-10.63,6.26-11.53,11.31-.09.49.22.96.71,1.08.48.11.97-.17,1.11-.65,1.13-3.83,5.55-7.64,8.46-8.25.45-.09,2.18.28,2.79.97.94,1.05,2.7,3.7,3.95,9.6,0,0,0,0,0,.01-4.34-.97-10.51-2.05-15.94-1.07-1.74-1.21-5.21-2.61-9-3.61-3.36-2.14-8.56-4.61-14.34-4.34-6.59.3-12.47,4-17.47,11-6.36,8.9-9.77,17.72-9.12,18.93.08.16.21.29.37.38-3.23-.02-6.49.05-9.76.18-21.78.88-41.48,4.78-55.46,10.99-.47.21-.68.76-.47,1.24.15.34.49.55.85.55.13,0,.25-.03.38-.08,31.07-13.8,81.91-13.02,104.69-6.38.47.14.99-.12,1.15-.6,2.05-6.2,9.2-11.19,13.5-13.02.43-.18.66-.64.54-1.1-1.06-4.04-5.7-9.41-7.44-11.43-.55-.63-1.5-1.66-2.84-2.86,1.62.64,2.89,1.3,3.63,1.89.22.17.49.24.76.18,5.35-1.08,11.69.09,16,1.07,1.82.41,2.67-.4,3.36-1.05.46-.43.85-.81,1.61-1.03,2.17-.64,4.14-.51,5.84.37.38.19.84.11,1.13-.21.28-.32.31-.79.07-1.14l-.07-.11c-1.04-1.53-2.15-3.18-3.38-4.77.71.54,1.37,1.08,1.95,1.61.26.23.63.3.96.18.07-.03.14-.06.2-.11.23.19.54.27.83.2,3.35-.83,4.96-1.15,8.19-.05,1.26.43,2.58.14,4.11-.19.29-.06.6-.13.92-.2,1.98-.4,5.95-.06,6.69,1.03.24.34.65.48,1.04.36.15-.05.28-.12.38-.23.18.08.39.11.6.06,4.57-1.03,7.61-1.25,12.02-.84.31.03.61-.1.8-.34.2-.24.26-.56.17-.86-.74-2.42-2.58-5.05-3.93-6.3-.56-.52-1.19-.95-1.86-1.28,2.48-.62,5.15-1.04,6.61-1.19,11.51-1.21,25.02,1.3,32.28,2.65,5.26.98,5.94,1.1,6.4.23.17-.33.2-.83-.24-1.27-2.52-2.52-17.17-10.28-33.51-16.26-14.42-5.27-33.64-10.47-43.39-5.37-28.79,15.09-35.64,14.88-47.24,13.05-5.73-.9-9.28-1.65-13.38-2.51-2.07-.44-4.2-.88-6.85-1.4-10.52-2.07-18.8-.88-24.28-.09-.83.12-1.59.23-2.3.32,1.77-.54,3.88-1.13,5.65-1.63,3.98-1.12,8.1-2.27,9.93-3.11,3.05-1.39,8.57-5.01,11.27-13.56.82-2.58,1.77-4.03,2.89-4.42,1.78-.6,4.67,1.14,7.54,3.12,2.01,1.39,4.07,3.13,6.25,4.99,3.75,3.18,7.63,6.48,11.6,8.18,5.28,2.26,12.48,3.84,16.86,1.49.86-.46.95-1.02.87-1.4-.2-.99-1.2-1.08-3.87-1.34-2.52-.24-7.21-.68-7.69-2.16.08-.61,2.85-2.24,5.79-3.96,4.6-2.7,11.55-6.79,20.96-13.74,4.2-3.1,7.98-7.38,11.32-11.17,3.4-3.85,6.61-7.49,8.39-7.49,2.12,0,5.03,1.79,8.87,5.47-.69,3.81,0,7.61,2.05,11.32l.08.14c3.51,6.46,16.33,13.44,19.33,13.44.01,0,.12,0,.13,0,.88-.05,1.19-.59,1.29-.82.37-.91-.38-1.9-1.24-2.83-2.99-3.24-5.89-6.59-8.73-9.87-3.87-4.47-7.53-8.7-10.86-11.98.49-1.98,1.4-3.95,2.7-5.84,3.67-5.33,15.73-19.38,23.84-22.5,9.5-3.65,17.44,4.81,26.65,14.61,4.62,4.91,9.39,9.99,14.98,14.37,4.69,3.68,9.98,7.21,15.09,10.63,11.14,7.44,22.65,15.13,27.83,24.4-15.96.1-29.78,4.86-41.21,9.52-2.94,1.2-3.77,1.59-3.46,2.59.33,1.08.62,1.01,8.19-.57,10.69-2.25,30.59-6.43,39.69-3.95.31.08.64,0,.88-.21.24-.22.34-.54.29-.86-.28-1.54-.74-3.08-1.37-4.6,5.89.19,11.88,1.03,17.82,2.51.24.06.49.03.71-.1.22-.13.37-.33.43-.58.06-.24.02-.49-.11-.71-.13-.21-.33-.37-.58-.42ZM143.64,105.87c.04.11.08.21.11.31-.45-.79-.93-1.48-1.43-2.04-.62-.7-1.62-1.15-2.54-1.39,1.32-.21,2.96.24,3.83.54.05.02.11.04.16.06-.38.44-.61,1.21-.13,2.52ZM89.65,118.07c4.65-6.51,10.05-9.95,16.03-10.22,2.58-.12,5.26.34,7.99,1.38-1.58-.08-3,.08-3.77.72-.38.32-1.17,1.23-.3,2.87,2.23,4.14,3.99,7.96,5.36,11.66-.52-1.01-1.09-2.01-1.69-2.95-3.45-5.39-7.61-8.12-12.37-8.12-.76,0-1.55.07-2.34.21-4.07.73-8.21,4.31-11.75,8.71.83-1.35,1.78-2.77,2.84-4.25ZM119.28,140.75c-10-2.78-24.02-4.36-38.96-4.46.32-.19.48-.54.57-.73,4.08-9.12,11.58-18.96,18-20.11,5-.9,9.19,1.42,12.81,7.08,3.06,4.78,5.08,10.9,6.89,16.76.14.45.58.73,1.04.65-.12.27-.24.54-.35.81ZM125.93,117.85c1.54,1.78,5.51,6.39,6.81,9.94-3.59,1.7-9.32,5.49-12.38,10.75-1.18-8.98-3.92-16.97-9.11-26.62-.21-.39-.18-.52-.15-.54.24-.2.83-.32,1.71-.32,1.42,0,3.62.3,6.39,1.01,3.59,2.33,5.9,4.82,6.73,5.78ZM153.82,112.67c-1.41-.21-2.92-.08-4.49.38-1.19.35-1.87.99-2.37,1.47-.09.08-.17.16-.24.23.18-4.39-.3-6.66-1.33-9.51-.11-.31-.15-.52-.16-.64.21.01.69.04,1.74.48,2.66,1.92,4.85,4.73,6.84,7.59ZM155.43,108.18c-1.07-.85-2.39-1.8-3.73-2.66,1.11-.77,2.31-1.54,3.13-1,.76.49.79,2.2.6,3.66ZM157.27,108.6c.02-.17.04-.34.07-.54.28-2.53-.24-4.3-1.48-5.11-.19-.12-.38-.22-.58-.3,1.36-.43,2.77-.43,3.83.1,1.88.94,2.8,2.12,3.84,4.31-2.18-.32-4.26.43-5.68,1.53ZM170.22,108.59c-.33.07-.64.13-.94.2-1.16.25-2.04.44-2.76.33,0,0,0-.01.01-.02.25-.42.49-.82.71-1.2l.07-.12c1.28-2.2,2.05-3.53,4.19-4.45.57-.25,1.17-.16,1.82.28,1.5,1,2.82,3.46,3.44,5.39-2.12-.73-5.11-.7-6.53-.41ZM179.41,109.44l-.1.07c-.14.09-.28.18-.42.27-.46-2.47-2.24-6.21-4.52-7.72-.29-.2-.59-.35-.89-.47,2.04-.2,4.12.63,5.77,2.33,1.11,1.14,1.82,2.16,2.61,3.26.18.25.36.5.54.76-1.13.32-1.94.84-2.97,1.5ZM187.1,104.67c.92.85,2.12,2.46,2.9,4.16-1.81-.12-3.44-.11-5.08.02.08-.29.03-.6-.16-.84-.53-.68-.97-1.29-1.43-1.94-.59-.83-1.15-1.63-1.89-2.48.24.08.52.07.76-.06l.12-.06c1.31-.65,3.32-.14,4.78,1.21ZM188.76,62.05c2.82,3.26,5.75,6.64,8.77,9.91.12.13.23.26.32.36-3.76-1.07-14.03-7.19-16.82-12.31l-.08-.15c-1.59-2.88-2.27-5.82-2.02-8.76,3.03,3.09,6.34,6.92,9.83,10.95ZM254.09,94.11c10.52-4.04,22.85-7.72,36.81-7.72h.46c.54,1.18.96,2.38,1.27,3.57-9.82-1.81-28.16,1.97-38.54,4.15Z"/>
</svg>