<?xml version="1.0" encoding="UTF-8"?>
<svg id="Layer_1" data-name="Layer 1" xmlns="http://www.w3.org/2000/svg" viewBox="0 0 326 167">
  <defs>
    <style>
      .cls-1, .cls-2 {
        fill: none;
      }

      .cls-1, .cls-2, .cls-3 {
        stroke-width: 0px;
      }

      .cls-2 {
        stroke: #69a6c2;
        stroke-linecap: round;
        stroke-linejoin: round;
      }

      .cls-3 {
        fill: #69a6c2;
      }
    </style>
  </defs>
  <path class="cls-1" d="M53.64,110.35c-.27,1.3-.1,1.87.03,2.29.07.22.13.44.13.7,0,.67-.57,1.04-1.23,1.48-.25.17-.75.5-.9.69.08.34.19.78.4.9.14.08.38.08.7.01,0,0,0,0,0,0,.37-.46.92-.37,1.32-.3.86.15,1.55.19,2.12-.62,1.13-1.61,1.66-2.19,2.61-3.24.3-.32.62-.68,1.01-1.11,1.35-1.51,1.39-1.97,1.39-2.04,0,0-.01-.03-.09-.1-.08-.07-.2-.17-.33-.29-1.8-1.61-2.53-1.98-2.81-2.05-.14.2-.26.57-.38.92-.27.81-.61,1.82-1.63,2.19-1.01.37-1.78.56-2.35.58Z"/>
  <path class="cls-1" d="M45.81,80.72c-.15-.99-.84-2.61-1.4-3.91-.75-1.76-1.01-2.43-.94-2.94.06-.41.3-.92.73-1.78.38-.76.94-1.89.99-2.44.04-.53-.46-4.59-.82-7.56-.45-3.62-.91-7.36-.91-8.43s.05-3.25.15-5.13c.19-3.54.33-4.37,1.31-4.37.37,0,.77.17,1.37.43.49.21,1.11.47,1.68.62.43.11,1.01.16,1.52.21,1.18.11,2.28.21,2.28,1.23,0,.37-.19.88-.67,2.03-.2.48-.41,1.01-.48,1.26-.21.75-.66,2.3-1.88,3.85-.32.41-.6.72-.84,1-.59.67-.76.89-.81,1.4-.03.36-.09.81-.14,1.27-.08.64-.21,1.7-.18,1.94.01.04.03.14.06.25.07.31.12.53.17.68.15-.05.33-.09.57-.09.36,0,.63.12.79.19.04.02.07.03.1.04.18-.07.45-.06.66-.05.01,0,.02,0,.03,0,.07-.35.15-1.03.02-1.58-.05-.24-.18-.52-.3-.8-.31-.72-.7-1.61-.22-2.45.13-.22.4-.54,1.14-1.4,1.61-1.88,5.39-6.28,5.67-8.45.02-.17.1-.35.23-.48-.11-.18-.53-.66-2-1.39-1.78-.89-3.25-1.53-4.42-2.04-1.33-.58-2.13-.93-2.62-1.3-.77-.58-2.52-1.41-4.94-1.88-.7-.13-1.31-.22-1.85-.3-1.02-.15-1.82-.27-2.42-.59-.39.16-1,.32-1.93.57l-.84.29c-1.58.67-2.37.99-2.89,1.09-.72,1.04-2.02,1.67-2.79,1.8-.37.11-1.92,1.25-2.37,1.69-.01.11-.03.24-.06.4-.12.81-.35,2.3-.42,4.42-.09,2.54-.25,3.21-.37,3.69-.02.08-.04.14-.05.21-.09.46-.5.77-.96.7-.79-.1-.76-.77-.72-1.48.02-.37.05-.88.08-1.46.1-1.7.27-4.53.22-5.07-.02-.24-.02-.46-.02-.66-1.02.32-1.02.46-1.02.58,0,.23-.02.54-.04.9,0,0,0,.1,0,.11-.05.76-.12,1.7-.05,2.59.05.76.34,2.44.58,3.79.2,1.17.39,2.27.44,2.81.09.99,1.44,3.94,1.9,4.32-.01-.02.27,0,.63-.18.3-.15.85-.53,1.09-1.43.23-.88.46-3.11.66-5.07.33-3.18.47-4.42.74-4.9.29-.51.78-.61,1.14-.47.65.23.75.9.72,2.42-.02.91-.09,1.9-.19,2.48-.04.27-.13.7-.23,1.19-.27,1.33-.88,4.31-.69,5.07.08.32.39,1.3.69,2.25,1.31,4.16,2.49,8,2.49,9.35,0,2.18-.66,3.04-3.47,5.76-2.16,2.75-4.41,6.14-4.46,7.1-.11,1.95.33,3.12,1.43,3.81.48.3,1.62.95,2.95,1.7,4.28,2.43,7.89,4.5,8.88,5.42.35.32.66.61.95.86.97.87,1.59,1.44,1.96,2.09.14.25.28.45.41.63.28.42.52.76.52,1.21.01.05.11.41.21.8.5,1.94.98,3.92.9,5.05-.06.87-.38,1.8-.65,2.55-.1.27-.24.68-.3.92.15.17.34.31.53.31.16,0,.61-.11,1.31-1.08,1.57-2.18,1.68-2.93,2-5.14l.08-.58c.21-1.44.51-2.33.71-2.92.08-.25.17-.52.17-.6-.03-.04-.1-.19-.19-.37-.96-2.01-1.38-2.67-1.57-2.85-.41.05-.94.06-2.23-.23-2.81-.64-6.22-6.3-6.39-6.7-.22-.52-1.49-2.09-3.33-2.92l-2.19-.98c-.24-.11-.41-.33-.44-.59-.03-.26.08-.52.28-.68l.13-.1c2.25-1.75,3.44-2.21,4.11-2.21.49,0,.7.25.83.41.11.13.34.44.64.83l.13.18c.7.93,2.82,3.74,3.32,4.07.73.31,1.51,1.47,2.51,3.24l.08.15c.16.27,1.22,1.33,1.92,2.03,1.01,1.01,1.96,1.96,2.32,2.49.58.87,5.21,9.58,5.88,11.24.47,1.18.86,2.3.79,3.82.13-.03.27-.08.42-.17.76-.46,1.94-1.75,2.07-2.41-.77-1.04-3.38-7.43-3.49-8.9-.03-.44-.01-.73,0-.94.03-.4.05-.61-.73-2.08-1.33-2.54-2.86-4.82-3.47-5.35-1.14-1-2.66-6.07-2.93-7.84Z"/>
  <path class="cls-1" d="M41.45,89.51c-1.14-2-1.59-2.45-1.75-2.54-.57-.25-1.46-1.27-3.96-4.58-.2-.27-.38-.5-.51-.68-.32.13-.91.45-1.63.94l.7.31c2.17.98,3.79,2.84,4.2,3.8.35.81,3.45,5.31,5.2,5.71.23.05.42.09.59.12-.18-.19-.37-.37-.54-.55-1.2-1.2-1.95-1.96-2.2-2.39l-.09-.15Z"/>
  <path class="cls-1" d="M48.98,49.45c.1-.34.3-.83.53-1.39.1-.25.25-.6.36-.9-.21-.02-.41-.04-.52-.05-.58-.05-1.24-.11-1.8-.25-.71-.18-1.39-.47-1.94-.7-.04-.02-.08-.03-.12-.05-.18,1.54-.34,5.19-.34,7.55,0,.41.09,1.34.22,2.53,0-.06.01-.11.02-.17.1-1.08.59-1.65,1.22-2.36.23-.26.49-.56.79-.94,1.01-1.29,1.39-2.62,1.58-3.26Z"/>
  <path class="cls-1" d="M31.29,36.09c.2.3.42.96.58,1.52.65-.26,1.52-.51,2.64-.81.71-.3,1.23-.51,1.64-.66-.27-.56-.36-1.1.08-1.99.03-.07.07-.13.11-.2-.67-.46-1.92-1.56-4.46-3.91-.4-.37-.75-.69-.96-.88-.35-.32-.66-.67-.9-1.03.17.45.45,1.29-.17,1.91-.11.11-.28.25-.47.4-.07.06-.24.19-.37.31.5.43.36,1.15.07,2.61-.07.34-.21,1.04-.25,1.44.22.1.62.26.86.36.93.39,1.35.57,1.58.92Z"/>
  <path class="cls-1" d="M214.87,109.51c3.77,1.94,7.34-.67,7.37-.7.25-.19.59-.22.87-.09.29.14.47.42.48.74,0,.16.26,8.98.49,17.5.03,0,.06,0,.09-.01,2.66-.38,5.46.62,7.52,2.68.72.72,1.25,1.48,1.56,2.21.65-.47,1.75-1.04,3.29-1.04.44,0,.89.04,1.36.13,1.81.52,3,1.31,3.78,2.08v-2.76c-.62.15-1.41.29-2.27.34-2.57.14-4.63-.64-5.93-2.27-1.89-2.36-1.78-5.04-1.05-6.76.41-.98,1.04-1.75,1.8-2.25-.78-.83-1.47-2-1.91-3.26-.5-1.45-.68-2.95-.51-4.47.19-1.81.87-3.58,2-5.26,1.65-2.46,4.41-3.94,7.76-4.17,1.42-.1,2.92.04,4.23.4.97.26,1.77.62,2.35,1.04.52-.23,1.3-.49,2.19-.66,1.34-.26,3.34-.39,5.29.46,2.22.97,4.09,3.4,3.37,6.17-.11.44-.56.72-1.01.61-.22-.05-.41-.19-.52-.38-.26-.29-1.64-1.48-3.37-1.62-1.25-.1-2.42.4-3.49,1.48-.31.31-.81.33-1.14.05-.81-.69-2.76-1.12-4.4-.65-.91.25-2.1.9-2.63,2.55-.38,1.16-.34,2.11.1,2.83.88,1.44,3.21,1.8,3.97,1.93.36.06.81.13.97.64.09.3,0,.64-.22.87-.95.91-2.89,3.28-.61,5.86.88.99,1.95,1.5,3.21,1.51h0c2.12,0,4.19-1.32,4.87-1.86.08-.1.18-.18.28-.24.21-.14.48-.17.72-.09.24.08.43.26.52.5.14.35.05.67-.25.97-.08.2-.18.79.07,1.42.38.97,1.39,1.37,2.98,1.19.95-.11,1.99-.78,2.7-1.75.64-.87.92-1.85.76-2.68-.33-1.7-1.31-3.61-1.78-4.52-.32-.63-.43-.84-.29-1.21.08-.22.26-.4.48-.49l.42-.17c2.37-.96,2.52-.97,5.6-.4.76.14,1.7.32,2.94.52,4.01.67,6.9-.71,7.37-1.92.3-.77-.56-1.47-1.1-1.81-2.21-1.41-4.05-1.39-5.47.08l-.08.08c-.38.37-.89.29-1.17.03-.28-.26-.42-.75-.05-1.2.68-.82.84-1.44.77-1.71-.02-.07-.07-.28-.56-.48-.47-.19-1.12-.38-1.55-.15-.37.2-.47.68-.48.68-.08.42-.47.73-.9.68-.43-.04-.77-.39-.78-.83l-.1-5.89c0-.26.11-.5.31-.67.19-.16.45-.22.7-.18.02,0,1.98.4,4.45.29,2.25-.09,5.4-.62,7.68-2.59,2.28-1.98,3.32-5.09,3.08-9.25-.18-3.19-1.56-5.69-4.09-7.43-2.22-1.52-4.85-2.15-6.67-2.42-2.17-.31-3.84-.18-4.17-.08-.73.23-1.08-.06-1.24-.35-.12-.22-.26-.66.23-1.16.08-.08.2-.19.34-.32,1.15-1.05,4.12-3.74,2.74-7.06-1.63-3.92-5.11-3.1-6.6-2.74-.3.07-.46.11-.63.11-.36,0-.67-.21-.8-.54-.21-.53.16-.92.28-1.04.09-.09.21-.21.36-.35,1.23-1.17,4.97-4.75,4.92-9.23-.03-2.73-1.46-5.41-4.24-7.96-3.1-2.84-6.82-3.7-11.05-2.56-3.22.87-5.51,2.59-5.54,2.61-.26.2-.61.23-.9.08-.29-.15-.47-.46-.46-.78,0,0,0-.74-.47-1.54-.66-1.13-1.92-1.85-3.74-2.14-1.81-.29-3.15-.1-4.01.55-.74.56-.85,1.31-.85,1.34-.04.38-.34.69-.74.74-.39.06-.76-.18-.9-.55,0,0-.38-.94-1.43-1.4-1.03-.46-2.38-.35-4.02.32-1.35.54-2.24,1.34-2.66,2.37-.67,1.67.09,3.48.12,3.55.13.3.08.66-.15.91-.22.25-.58.34-.89.23-.04-.01-1.01-.32-2.16-.24-1.51.11-2.65.81-3.39,2.08-.72,1.24-.94,2.36-.66,3.31.16.52.46,1.01.92,1.43.55.33.91.66.93.68.31.28.36.75.13,1.1-.24.35-.7.47-1.07.28-.09-.04-.55-.29-1.08-.76-.76-.46-2.1-1.06-3.6-.96-1.62.09-3.16.95-4.56,2.54-1.16,1.31-1.62,2.84-1.36,4.53.5,3.28,3.41,6.1,4,6.46.39.24.52.74.3,1.14-.23.4-.73.55-1.14.33-.31-.16-3.06-1.55-5.46-.76-1.2.4-2.15,1.3-2.81,2.68-.83,1.71-.81,3.49.06,5.27.66,1.35,1.58,2.2,1.59,2.21.3.27.36.72.15,1.07-.22.35-.65.49-1.03.34,0,0-1-.37-1.78-.01-.4.18-.71.55-.91,1.09-.18.48-.16.9.06,1.27.28.47.8.76,1.04.87v-.21s0,0,0,0v.22c.05.02.09.04.11.04.28,0,.59.25.69.59.18.61-.32.94-.48,1.04-2.52,1.65-3.17,3.34-3.27,4.47-.15,1.72.8,3.57,2.85,5.51,2.44,2.31,5.03,2.45,7.89.41.3-.22.76-.54,1.27-.16.3.22.42.62.29.97l-.09.23c-.41,1.06-1.38,3.55,2.78,5.69Z"/>
  <path class="cls-1" d="M35.71,30.26c.6.66,1.14,1.29,1.53,1.78.18.23.35.43.47.63.56-.46,1.14-.99,1.44-1.72.3-.72.18-1.82-.29-2.76-.41-.81-1.26-1.86-2.99-2.3-2.88-.72-4.26-.05-4.63.27.19.1.39.24.62.4,1.36.99,3.14,2.91,3.85,3.69Z"/>
  <path class="cls-1" d="M209.68,136.68c5.05.91,8.57,2.13,10.66,3.01,1,.42,1.79.81,2.37,1.12-.03-2.15-.12-6.09-.27-11.77-1.88.54-3.21,1.4-3.93,2.58-1.09,1.77-.48,3.75-.45,3.83.11.33,0,.7-.28.92-.27.22-.66.24-.96.06-.03-.02-2.76-1.65-5.17-1.01-.76.2-1.42.62-1.98,1.25Z"/>
  <path class="cls-3" d="M285.04,155.22h0c-11.12-3.42-27.67-6.12-39.59-7.77-12.96-1.8-23.34-2.8-23.44-2.81-.45-.04-.87.29-.92.75,0,.08-.29,2-3.13,2.42-1.73.25-3.02-.88-3.49-2.05-.24-.6-.19-1.05-.02-1.17.33-.24.45-.68.27-1.05-.17-.37-.59-.57-.98-.46-1.42.39-2.91-.21-3.99-1.59-.83-1.05-1.18-2.28-.97-3.25,5.19.89,8.76,2.11,10.87,2.99,2.32.97,3.41,1.76,3.42,1.76.26.19.6.22.88.08.29-.14.47-.43.47-.75,0-1.38-.09-5.97-.29-13.64.1-.02.19-.03.29-.04,2.13-.31,4.4.51,6.08,2.2,1.08,1.08,1.4,2.02,1.35,2.36-.02.13,0,.26.03.38.1.3.33.52.63.6.5.13.83-.17,1.12-.44.59-.55,1.69-1.56,3.89-1.15,1.6.46,2.83,1.27,3.56,2.33.51.75.61,1.39.61,1.39.05.45.47.77.88.75.45-.02.8-.39.8-.84v-7.09c0-.28-.14-.54-.37-.7-.23-.15-.52-.19-.77-.1-.05.02-5.12,1.82-7.43-1.07-1.42-1.78-1.36-3.77-.82-5.04.45-1.06,1.22-1.73,2.06-1.81.4-.04.72-.35.76-.75s-.2-.77-.58-.9c-.39-.12-1.6-1.24-2.31-3.26-.66-1.9-.97-4.87,1.29-8.24,1.83-2.72,4.84-3.32,6.47-3.43,2.78-.19,5.1.65,5.71,1.33.26.29.69.36,1.03.18.05-.03.1-.06.14-.1.2-.1,1.02-.47,2.16-.68,1.09-.2,2.7-.3,4.22.37,1.03.45,2.08,1.42,2.41,2.65-.13-.08-.28-.17-.43-.25-1.44-.79-4.22-1.71-7,.66-1.24-.69-3.31-1.13-5.33-.56-1.3.37-3.01,1.3-3.78,3.65-.54,1.65-.45,3.08.26,4.24.73,1.19,2.07,2.03,4,2.49-1.05,1.49-2.22,4.21.29,7.05,2.97,3.36,6.9,1.92,8.88.84.04.25.1.5.18.74.35,1,1.44,2.76,4.79,2.38,1.43-.16,2.87-1.07,3.87-2.43.92-1.25,1.3-2.71,1.05-4-.34-1.75-1.22-3.57-1.78-4.68.76-.3,1.19-.46,1.63-.49.54-.04,1.23.09,2.62.35.77.14,1.72.32,2.97.53,2.07.35,4.15.23,5.85-.33,1.71-.55,2.93-1.52,3.37-2.65.52-1.36-.14-2.8-1.77-3.84-1.85-1.18-3.63-1.56-5.21-1.13,0-.2-.02-.39-.07-.58-.13-.5-.5-1.2-1.56-1.63-1.04-.43-1.94-.5-2.69-.21l-.05-2.75c.89.11,2.23.22,3.81.16,2.52-.1,6.08-.71,8.73-3,2.7-2.34,3.93-5.91,3.66-10.62-.21-3.74-1.83-6.67-4.82-8.72-2.48-1.71-5.39-2.41-7.39-2.7-1.08-.15-1.99-.21-2.69-.21.5-.54,1.02-1.2,1.46-1.97,1.08-1.92,1.23-3.85.44-5.76-.93-2.24-2.47-3.57-4.59-3.97-.58-.11-1.18-.14-1.83-.11,2.74-2.99,4.11-6.04,4.08-9.08-.03-3.21-1.64-6.31-4.79-9.19-1.95-1.79-4.16-2.9-6.57-3.31-1.92-.32-3.96-.2-6.06.36-2.16.58-3.92,1.49-5.01,2.16-.1-.3-.24-.63-.44-.98-.64-1.1-2.01-2.52-4.95-2.99-2.29-.36-4.07-.07-5.3.88-.32.25-.6.53-.83.86-.33-.33-.78-.67-1.35-.93-1.47-.65-3.27-.55-5.35.29-1.79.73-3,1.84-3.59,3.31-.5,1.26-.44,2.52-.28,3.42-.39-.04-.85-.06-1.33-.03-2.08.14-3.73,1.15-4.76,2.92-.92,1.59-1.21,3.08-.87,4.46-.73-.18-1.47-.26-2.19-.21-2.09.12-4.02,1.16-5.74,3.11-1.5,1.71-2.1,3.69-1.76,5.9.31,2.06,1.39,3.87,2.24,5.02.01.02.03.04.04.06-1.04-.16-2.26-.17-3.45.22-1.65.54-2.93,1.74-3.81,3.55-1.05,2.17-1.03,4.51.07,6.75.18.37.38.72.61,1.07-.3.05-.59.13-.86.25-.84.37-1.44,1.06-1.81,2.05-.39,1.05-.27,2.06.32,2.92.23.33.5.59.76.79-2.28,1.82-2.91,3.71-3.02,5.01-.2,2.26.93,4.58,3.37,6.88,1.96,1.86,4.11,2.59,6.37,2.2.7-.12,1.41-.35,2.1-.69-.04.48-.02.95.07,1.41.35,1.8,1.7,3.31,4,4.5,1.97,1.01,4.17,1.19,6.39.5.56-.17,1.06-.38,1.46-.58.08,2.9.28,9.76.46,16.37-2.53.64-4.32,1.8-5.33,3.45-.77,1.26-.92,2.56-.89,3.52-1.26-.49-3.12-.95-4.95-.47-1.41.37-2.56,1.23-3.42,2.57-13.5-2.14-39.73-4.78-69.81-5.27-4.83-.08-8.41-.3-10.96-.68-3.84-.57-4.11-1.35-4.11-1.36,0-.01-.06-1.07,5.24-3.47,3.96-1.8,8.86-3.96,13.6-6.06l.13-.06c9.12-4.03,18.55-8.2,23.09-10.51,2.03-1.03,4.32-2.46,4.02-4.32-.17-1.05-1.13-1.93-2.93-2.68-1.8-.74-4.56-1.41-8.21-1.97-8.04-1.24-21.6-2.54-31.56-3.4-10.47-.91-20.08-1.62-20.45-1.62-.33,0-6.04-.52-11.09-.97l-.89-.08c-8.57-.76-11.84-1.05-12.11-1.05-.11,0-.32-.04-.56-.09.76-.2,1.82-.41,3.15-.61,9.69-1.46,17.47-1,21.25-.59,4.66.5,11.2,2.81,11.47,2.91.32.12.67.03.9-.21.23-.24.3-.6.17-.91,0,0-.35-.89.01-1.72.26-.58.83-1.03,1.7-1.34.85-.3,1.71.31,2.63,1.88.15.25.46.78,1.1.6.22-.06.4-.21.51-.4.04-.04.1-.09.16-.15,2.78-2.6,3.19-5.22,1.24-7.79-.97-1.28-2.41-1.96-4.15-1.96-.05,0-.1,0-.15,0,.1-.19.19-.38.28-.57.59-1.36,1.01-3.46-.36-5.8-1.01-1.72-2.62-2.6-4.6-2.52-.21,0-.43.03-.65.06.04-.11.08-.22.11-.34.52-1.72.17-3.18-1-4.1-1.36-1.08-2.68-1.45-3.93-1.12-1.19.32-1.99,1.21-2.46,1.92-.2-.11-.41-.21-.63-.29-.87-.32-2.26-.49-3.96.49-.77.45-1.37.98-1.78,1.59-.24-.3-.5-.56-.79-.79-.63-.49-1.37-.78-2.21-.87.99-2.37,1.1-4.59.32-6.32-.85-1.88-2.7-3.18-5.49-3.85-2.71-.65-5.41-.11-7.43,1.47-1.56,1.23-2.49,2.93-2.49,4.55,0,1.32.26,2.4.57,3.21-.36-.03-.72-.03-1.07,0-1.58.14-3.81.97-5.47,4.15-.7,1.34-1.01,3.48,1.46,6.06.19.2.39.39.6.58-.14.04-.28.09-.41.15-.73.33-1.24.91-1.52,1.72-.29.83-.3,1.66-.04,2.46-1.01-.07-1.88.24-2.54.93-.72.75-.92,1.75-.61,2.79-.82-.17-1.77-.37-2.75-.57-2.6-.52-6.73-1.3-11.65-2.06-4.22-.65-8.29-1.18-12.12-1.56l-.25-.02c-.4-1.2-.75-2.47-.88-3.38-.18-1.21-.89-2.86-1.52-4.33-.31-.73-.79-1.84-.82-2.03.04-.19.36-.84.58-1.27.51-1.02,1.08-2.17,1.16-3.05.06-.66-.28-3.4-.82-7.83.16.1.35.17.58.17.37,0,.61-.1.77-.16.1-.04.11-.04.13-.04.02,0,.08.03.13.05.22.1.6.26,1.1.13.05,0,.21,0,.29,0,.39,0,1.05.03,1.43-.55.39-.59.55-2.09.33-3.1-.09-.39-.25-.78-.4-1.11-.12-.28-.34-.79-.31-.92.08-.13.52-.64.96-1.15,2.66-3.09,5.51-6.58,6.02-9.04.23-.29.35-.64.33-1.02-.05-.99-1-1.91-2.98-2.9-1.82-.91-3.3-1.56-4.5-2.08-1.04-.45-1.95-.85-2.28-1.1-.96-.72-2.94-1.67-5.64-2.19-.73-.14-1.37-.23-1.92-.32-1.06-.16-1.9-.28-2.1-.63l-.11-.19q-.32-.56-.15-.89c.08-.15.45-.45.76-.7.72-.57,1.7-1.36,2.21-2.61.49-1.18.35-2.78-.35-4.17-.8-1.59-2.26-2.72-4.1-3.18-4.24-1.06-6.21.36-6.66,1.26-.11.22-.17.47-.19.74-.8.8-1.37,1.39-1.08,2.25l.07.19c.03.07.07.19.1.28-.06.05-.12.1-.2.16-.58.47-1.13.92-1.13,1.54,0,.46.15.84.45,1.15-.04.33-.16.91-.22,1.23-.31,1.58-.43,2.3-.04,2.78.28.33.79.56,1.68.92.21.08.64.27.85.37.12.29.35,1.02.48,1.56-.37.56-1.23,1.04-1.68,1.11-.43.07-2.67,1.36-3.47,2.41-.43-.17-.92-.06-1.31.06-.98.3-2.33.72-2.33,2.24,0,.21-.02.51-.05.88-.06.81-.13,1.82-.05,2.84.06.84.35,2.5.6,3.95.19,1.08.38,2.2.42,2.67.09,1.04,1.6,5.15,2.85,5.69.58.25,1.39.18,2.12-.17.3-.15.73-.42,1.13-.87.11.37.26.83.43,1.38.78,2.48,2.41,7.63,2.41,8.84,0,1.42-.09,1.77-2.99,4.57-.02.02-.06.06-.08.09-1.11,1.41-4.75,6.18-4.86,8.11-.05.94-.21,3.82,2.23,5.34.48.3,1.46.86,3.01,1.73,2.86,1.62,7.63,4.33,8.56,5.19.36.33.68.63.97.89.8.72,1.37,1.24,1.61,1.66.17.3.33.54.49.76.08.11.18.26.22.34.02.18.08.43.26,1.13.32,1.24.92,3.56.85,4.51-.04.64-.32,1.42-.56,2.11-.36,1.02-.62,1.75-.19,2.32.72.96,1.5,1.17,2.06,1.17.92,0,1.82-.61,2.67-1.79,1.82-2.52,1.96-3.51,2.3-5.9l.08-.58c.13-.91.31-1.57.46-2.08,1.32,2.5,2.68,5.15,2.99,5.93.56,1.41.93,2.56.47,4.58-.42,1.84-.15,2.77.02,3.33-.13.09-.29.2-.4.27-.8.53-1.9,1.25-1.65,2.37.13.59.35,1.59,1.22,2.11.58.35,1.29.4,2.18.15.01,0,.02,0,.03,0,.46.21.98.33,1.17.33.01,0,.02,0,.03,0,.27-.03.51-.21.61-.46.78-.07,1.67-.4,2.38-1.42,1.07-1.53,1.55-2.05,2.49-3.08.29-.31.61-.67,1.01-1.11,1.36-1.53,1.87-2.45,1.82-3.29-.03-.49-.26-.92-.68-1.28l-.3-.27c-1.5-1.33-2.93-2.51-4.05-2.51-.03-.05-.06-.1-.1-.15-.62-.79-3.09-6.82-3.18-7.98-.02-.3,0-.5,0-.68.06-.79,0-1.26-.91-3-1.18-2.26-2.88-4.99-3.85-5.84-.19-.18-.5-.82-.84-1.67,3.52.36,7.24.84,11.07,1.43,8.48,1.3,15.2,2.75,16.44,3.06.28.15.58.14.85-.01.37-.22.51-.67.34-1.08-.08-.18-.19-.31-.36-.4-.22-.25-.63-.85-.67-1.39-.02-.31.06-.55.28-.78,1-1.04,3.09.26,3.11.26l.08.06c.39.25.91.14,1.16-.24.26-.39.15-.91-.24-1.17-.07-.05-1.75-1.21-1.16-2.91.13-.37.32-.6.62-.74.69-.31,1.76-.06,2.23.12.42.17.88-.02,1.08-.42.19-.4.03-.88-.35-1.1-.05-.03-5.4-3.11-3.81-6.16,1.04-2,2.42-3.09,4.09-3.24,1.24-.11,2.23.34,2.23.34.36.18.8.07,1.04-.24.24-.32.23-.76-.03-1.06-.01-.01-1.17-1.43-1.17-3.93,0-1.09.71-2.33,1.85-3.22,1.6-1.26,3.79-1.69,5.99-1.16,2.26.54,3.72,1.52,4.35,2.9.69,1.53.4,3.66-.82,5.98-.09.17-.3.57,0,.99.18.26.5.4.81.35.98-.14,1.79.03,2.4.5.74.57,1.07,1.48,1.2,1.89.04.37.12.63.17.78.16.39.59.61.99.5.41-.1.68-.5.63-.93,0-.06-.04-.3-.12-.56-.04-.63.19-1.55,1.58-2.34,2.1-1.21,3.33.1,3.39.15.19.22.48.32.78.27.29-.05.53-.24.64-.51,0-.02.65-1.55,1.84-1.87.71-.19,1.53.09,2.45.82,1.51,1.19-.35,3.92-.36,3.95-.22.31-.2.74.05,1.03.25.29.66.38,1.01.22,0,0,.9-.42,1.98-.45,1.33-.06,2.37.51,3.06,1.69.81,1.38.9,2.81.28,4.25-.48,1.11-1.22,1.82-1.23,1.83-.29.27-.35.72-.14,1.06.21.34.63.48,1.01.34.03-.01,2.99-1.07,4.57,1,1.61,2.12.62,3.83-.65,5.15-.31-.45-.63-.83-.97-1.13-.98-.89-2.13-1.16-3.23-.77-1.33.47-2.23,1.23-2.68,2.25-.23.51-.31,1.02-.31,1.47-2.36-.78-6.89-2.16-10.52-2.54-3.85-.41-11.8-.88-21.68.6-1.8.27-3.14.55-3.99.84-.45.15-1.63.55-1.56,1.55.06.84,1,1.2,1.69,1.39.58.16,1.25.27,1.5.27.35,0,7.35.63,11.98,1.05,8.71.78,11.85,1.05,12.11,1.05.96.01,36.71,2.68,51.76,5,8.99,1.39,9.68,2.95,9.73,3.24.04.27-.17,1.05-3.12,2.55-4.5,2.29-13.93,6.46-23.13,10.53l-.11.05c-4.94,2.18-9.61,4.25-13.51,6.02-4.68,2.12-6.53,3.73-6.2,5.35.28,1.33,1.98,2.16,5.51,2.68,2.62.39,6.28.62,11.17.69,29.66.48,55.62,3.07,69.15,5.18-.28,1.45.2,3.14,1.31,4.56.68.87,1.53,1.54,2.47,1.94.56.24,1.14.38,1.73.41-.02.47.07.98.29,1.51.71,1.76,2.66,3.47,5.3,3.09,2.14-.32,3.26-1.33,3.83-2.13.24-.34.41-.68.52-.96,2.55.26,11.72,1.21,22.67,2.73,11.86,1.65,28.32,4.33,39.32,7.71.08.03.17.04.26.04.37,0,.7-.25.81-.59.07-.22.05-.44-.06-.64-.1-.2-.28-.34-.5-.41ZM216.83,136.44c.3.18.69.16.96-.06.28-.22.39-.59.28-.92-.03-.08-.63-2.06.45-3.83.73-1.18,2.05-2.05,3.93-2.58.15,5.67.24,9.62.27,11.77-.59-.32-1.37-.7-2.37-1.12-2.1-.88-5.61-2.1-10.66-3.01.55-.63,1.21-1.04,1.98-1.25,2.4-.64,5.14.99,5.17,1.01ZM212.09,103.82l.09-.23c.12-.36,0-.75-.29-.97-.51-.38-.97-.06-1.27.16-2.86,2.04-5.45,1.9-7.89-.41-2.04-1.93-3-3.79-2.85-5.51.1-1.13.75-2.82,3.27-4.47.16-.11.66-.43.48-1.04-.1-.34-.41-.58-.69-.59-.02,0-.06-.02-.11-.04v-.22h-.01v.21c-.24-.11-.76-.39-1.04-.87-.22-.37-.24-.78-.06-1.27.2-.54.5-.91.91-1.09.78-.35,1.78.01,1.78.01.38.15.81,0,1.03-.34.22-.35.15-.8-.15-1.07,0,0-.93-.86-1.59-2.21-.87-1.78-.89-3.56-.06-5.27.67-1.38,1.62-2.29,2.81-2.68,2.4-.79,5.15.6,5.46.76.42.22.92.08,1.14-.33.22-.4.09-.9-.3-1.14-.59-.36-3.5-3.18-4-6.46-.26-1.69.2-3.21,1.36-4.53,1.4-1.59,2.94-2.45,4.56-2.54,1.5-.09,2.84.51,3.6.96.52.48.99.72,1.08.76.37.19.83.06,1.07-.28.23-.35.18-.82-.13-1.1-.02-.01-.38-.35-.93-.68-.45-.42-.76-.91-.92-1.43-.28-.96-.06-2.07.66-3.31.74-1.27,1.88-1.97,3.39-2.08,1.15-.08,2.13.23,2.16.24.32.11.67.02.89-.23.23-.25.28-.61.15-.91-.03-.08-.8-1.88-.12-3.55.41-1.03,1.31-1.83,2.66-2.37,1.64-.66,2.99-.77,4.02-.32,1.05.46,1.43,1.4,1.43,1.4.14.37.5.61.9.55.39-.05.7-.36.74-.74,0-.03.11-.78.85-1.34.86-.66,2.2-.84,4.01-.55,1.82.29,3.08,1.01,3.74,2.14.47.8.47,1.54.47,1.54-.01.32.17.63.46.78.29.15.64.12.9-.08.02-.02,2.32-1.75,5.54-2.61,4.23-1.14,7.96-.28,11.05,2.56,2.79,2.56,4.22,5.24,4.24,7.96.05,4.48-3.69,8.05-4.92,9.23-.15.15-.27.26-.36.35-.12.13-.5.51-.28,1.04.13.33.44.54.8.54.17,0,.33-.04.63-.11,1.49-.35,4.97-1.18,6.6,2.74,1.38,3.31-1.59,6.01-2.74,7.06-.14.13-.25.23-.34.32-.49.5-.35.95-.23,1.16.16.29.51.58,1.24.35.33-.11,2-.23,4.17.08,1.82.26,4.45.89,6.67,2.42,2.53,1.74,3.91,4.24,4.09,7.43.24,4.16-.8,7.27-3.08,9.25-2.28,1.97-5.43,2.5-7.68,2.59-2.47.11-4.43-.28-4.45-.29-.25-.05-.51.01-.7.18-.2.16-.31.41-.31.67l.1,5.89c0,.44.34.79.78.83.42.04.82-.26.9-.68,0,0,.11-.48.48-.68.42-.23,1.08-.05,1.55.15.5.21.55.41.56.48.07.28-.09.89-.77,1.71-.37.45-.24.93.05,1.2.28.26.79.34,1.17-.03l.08-.08c1.42-1.47,3.26-1.5,5.47-.08.54.35,1.4,1.04,1.1,1.81-.47,1.21-3.36,2.59-7.37,1.92-1.23-.21-2.18-.38-2.94-.52-3.08-.57-3.24-.56-5.6.4l-.42.17c-.22.09-.39.27-.48.49-.14.37-.03.58.29,1.21.47.92,1.45,2.82,1.78,4.52.16.83-.12,1.81-.76,2.68-.71.97-1.75,1.64-2.7,1.75-1.59.18-2.59-.22-2.98-1.19-.25-.63-.15-1.22-.07-1.42.3-.3.39-.63.25-.97-.09-.24-.28-.42-.52-.5-.24-.08-.5-.05-.72.09-.1.06-.19.15-.28.24-.68.55-2.75,1.86-4.87,1.86h0c-1.25-.01-2.33-.52-3.21-1.51-2.28-2.58-.34-4.95.61-5.86.23-.22.32-.56.22-.87-.16-.51-.61-.58-.97-.64-.76-.12-3.09-.49-3.97-1.93-.44-.72-.47-1.67-.1-2.83.53-1.64,1.73-2.29,2.63-2.55,1.64-.46,3.6-.04,4.4.65.33.28.84.26,1.14-.05,1.07-1.08,2.25-1.58,3.49-1.48,1.72.13,3.11,1.33,3.37,1.62.12.19.3.32.52.38.45.11.9-.17,1.01-.61.72-2.77-1.15-5.2-3.37-6.17-1.95-.85-3.95-.72-5.29-.46-.89.17-1.67.43-2.19.66-.58-.42-1.38-.78-2.35-1.04-1.31-.35-2.8-.5-4.23-.4-3.35.23-6.1,1.71-7.76,4.17-1.13,1.69-1.8,3.46-2,5.26-.16,1.52,0,3.02.51,4.47.44,1.26,1.13,2.43,1.91,3.26-.76.5-1.39,1.27-1.8,2.25-.73,1.72-.83,4.4,1.05,6.76,1.3,1.62,3.36,2.41,5.93,2.27.87-.05,1.65-.19,2.27-.34v2.76c-.78-.77-1.97-1.56-3.78-2.08-.46-.09-.92-.13-1.36-.13-1.54,0-2.64.57-3.29,1.04-.3-.72-.84-1.48-1.56-2.21-2.05-2.06-4.86-3.06-7.52-2.68-.03,0-.06,0-.09.01-.23-8.52-.49-17.35-.49-17.5,0-.32-.19-.6-.48-.74-.29-.14-.62-.1-.87.09-.03.03-3.6,2.64-7.37.7-4.16-2.14-3.19-4.63-2.78-5.69ZM202.83,91.25h0ZM202.83,91.25s0,0,0,0c0,0,0,0,0,0ZM257.83,109.28h0s0,0,0,0ZM257.83,109.28s0,0,0,0c0,0,0,0,0,0ZM46.61,53.66c-.63.71-1.12,1.28-1.22,2.36,0,.05,0,.11-.02.17-.13-1.2-.22-2.12-.22-2.53,0-2.36.16-6.01.34-7.55.04.02.09.04.12.05.55.23,1.23.52,1.94.7.56.14,1.22.2,1.8.25.1,0,.31.03.52.05-.12.3-.26.65-.36.9-.23.57-.43,1.05-.53,1.39-.18.64-.56,1.97-1.58,3.26-.3.38-.56.68-.79.94ZM35.87,25.9c1.73.43,2.58,1.49,2.99,2.3.47.93.59,2.04.29,2.76-.3.73-.88,1.26-1.44,1.72-.13-.2-.29-.4-.47-.63-.39-.49-.93-1.12-1.53-1.78-.71-.78-2.49-2.7-3.85-3.69-.23-.17-.43-.3-.62-.4.37-.32,1.76-.98,4.63-.27ZM29.71,35.18c-.24-.1-.64-.27-.86-.36.04-.39.18-1.1.25-1.44.29-1.46.43-2.18-.07-2.61.14-.12.3-.25.37-.31.18-.15.36-.29.47-.4.62-.62.34-1.47.17-1.91.24.36.54.71.9,1.03.21.19.56.51.96.88,2.54,2.35,3.78,3.45,4.46,3.91-.04.06-.08.13-.11.2-.44.89-.35,1.43-.08,1.99-.41.14-.94.36-1.64.66-1.12.3-1.99.55-2.64.81-.16-.56-.38-1.22-.58-1.52-.23-.35-.65-.53-1.58-.92ZM57.62,107.58c.12-.35.24-.72.38-.92.28.07,1.01.45,2.81,2.05.13.12.25.22.33.29.07.06.09.09.09.1,0,.08-.04.54-1.39,2.04-.39.43-.71.79-1.01,1.11-.96,1.05-1.49,1.63-2.61,3.24-.57.81-1.26.77-2.12.62-.4-.07-.96-.16-1.32.3,0,0,0,0,0,0-.32.07-.57.07-.7-.01-.21-.13-.33-.56-.4-.9.15-.2.65-.52.9-.69.66-.43,1.23-.81,1.23-1.48,0-.26-.07-.48-.13-.7-.13-.42-.3-.99-.03-2.29.57-.02,1.33-.21,2.35-.58,1.02-.37,1.36-1.38,1.63-2.19ZM52.2,93.9c.77,1.48.76,1.68.73,2.08-.02.21-.04.5,0,.94.11,1.47,2.73,7.86,3.49,8.9-.12.65-1.3,1.95-2.07,2.41-.15.09-.29.14-.42.17.06-1.52-.32-2.64-.79-3.82-.66-1.66-5.3-10.37-5.88-11.24-.35-.53-1.31-1.48-2.32-2.49-.7-.7-1.76-1.76-1.92-2.03l-.08-.15c-1-1.77-1.78-2.93-2.51-3.24-.5-.33-2.62-3.14-3.32-4.07l-.13-.18c-.3-.39-.53-.7-.64-.83-.13-.16-.34-.41-.83-.41-.67,0-1.86.46-4.11,2.21l-.13.1c-.21.16-.32.42-.28.68.03.26.2.49.44.59l2.19.98c1.84.83,3.11,2.4,3.33,2.92.17.4,3.58,6.06,6.39,6.7,1.28.29,1.81.28,2.23.23.19.19.61.84,1.57,2.85.09.18.16.33.19.37,0,.08-.09.35-.17.6-.2.59-.49,1.48-.71,2.92l-.08.58c-.32,2.21-.43,2.96-2,5.14-.7.97-1.15,1.08-1.31,1.08-.19,0-.38-.15-.53-.31.06-.24.2-.65.3-.92.26-.75.59-1.68.65-2.55.08-1.13-.41-3.12-.9-5.05-.1-.39-.2-.75-.21-.8,0-.45-.24-.8-.52-1.21-.12-.18-.27-.39-.41-.63-.37-.65-1-1.21-1.96-2.09-.28-.25-.6-.54-.95-.86-.99-.92-4.6-2.99-8.88-5.42-1.32-.75-2.47-1.4-2.95-1.7-1.1-.69-1.54-1.86-1.43-3.81.05-.96,2.3-4.35,4.46-7.1,2.81-2.71,3.47-3.58,3.47-5.76,0-1.35-1.18-5.19-2.49-9.35-.3-.95-.61-1.93-.69-2.25-.19-.75.42-3.74.69-5.07.1-.49.19-.92.23-1.19.1-.58.17-1.57.19-2.48.03-1.52-.07-2.2-.72-2.42-.36-.13-.85-.03-1.14.47-.27.47-.42,1.71-.74,4.9-.2,1.96-.43,4.19-.66,5.07-.24.9-.78,1.28-1.09,1.43-.36.18-.64.16-.63.18-.46-.38-1.81-3.32-1.9-4.32-.05-.54-.24-1.64-.44-2.81-.23-1.35-.52-3.03-.58-3.79-.06-.89,0-1.83.05-2.59,0,0,0-.1,0-.11.02-.36.04-.67.04-.9,0-.12,0-.25,1.02-.58,0,.2,0,.43.02.66.05.54-.11,3.36-.22,5.07-.04.58-.07,1.09-.08,1.46-.04.71-.07,1.38.72,1.48.46.07.87-.24.96-.7.01-.07.03-.14.05-.21.12-.48.29-1.14.37-3.69.07-2.12.3-3.61.42-4.42.03-.16.04-.3.06-.4.44-.44,1.99-1.57,2.37-1.69.76-.13,2.07-.76,2.79-1.8.51-.1,1.31-.42,2.89-1.09l.84-.29c.93-.25,1.54-.41,1.93-.57.61.32,1.41.44,2.42.59.54.08,1.15.17,1.85.3,2.42.46,4.17,1.3,4.94,1.88.49.37,1.3.72,2.62,1.3,1.18.51,2.64,1.15,4.42,2.04,1.47.74,1.89,1.22,2,1.39-.12.13-.2.31-.23.48-.28,2.18-4.06,6.57-5.67,8.45-.74.86-1.01,1.18-1.14,1.4-.48.84-.09,1.73.22,2.45.12.28.25.57.3.8.12.55.05,1.23-.02,1.58-.01,0-.02,0-.03,0-.21,0-.48-.01-.66.05-.04,0-.07-.03-.1-.04-.16-.07-.43-.19-.79-.19-.24,0-.43.04-.57.09-.04-.15-.1-.37-.17-.68-.02-.12-.05-.22-.06-.25-.03-.24.1-1.3.18-1.94.06-.47.11-.91.14-1.27.05-.51.22-.72.81-1.4.24-.28.52-.59.84-1,1.22-1.55,1.66-3.1,1.88-3.85.07-.25.29-.77.48-1.26.47-1.15.67-1.66.67-2.03,0-1.02-1.1-1.12-2.28-1.23-.51-.05-1.09-.1-1.52-.21-.58-.14-1.19-.41-1.68-.62-.61-.26-1-.43-1.37-.43-.98,0-1.12.83-1.31,4.37-.1,1.88-.15,4.04-.15,5.13s.46,4.81.91,8.43c.37,2.97.87,7.03.82,7.56-.05.55-.61,1.68-.99,2.44-.43.86-.68,1.37-.73,1.78-.07.52.18,1.18.94,2.94.56,1.3,1.25,2.92,1.4,3.91.26,1.76,1.78,6.84,2.93,7.84.6.53,2.14,2.8,3.47,5.35ZM44.28,92.6c-.17-.03-.36-.07-.59-.12-1.75-.4-4.86-4.9-5.2-5.71-.41-.95-2.03-2.82-4.2-3.8l-.7-.31c.73-.49,1.31-.82,1.63-.94.13.17.31.41.51.68,2.5,3.3,3.39,4.33,3.96,4.58.17.09.62.54,1.75,2.54l.09.15c.25.44,1,1.19,2.2,2.39.18.18.36.36.54.55Z"/>
  <path class="cls-2" d="M257.83,109.28s0,0,0,0"/>
</svg>