<?xml version="1.0" encoding="utf-8"?>
<!-- Generator: Adobe Illustrator 27.4.1, SVG Export Plug-In . SVG Version: 6.00 Build 0)  -->
<svg version="1.1" id="_x2014_ÎÓÈ_x5F_1" xmlns="http://www.w3.org/2000/svg" xmlns:xlink="http://www.w3.org/1999/xlink"
	 x="0px" y="0px" viewBox="0 0 607.5 300" style="enable-background:new 0 0 607.5 300;" xml:space="preserve">
<style type="text/css">
	.st0{fill:#FFFFFF;}
	.st1{fill:#69A6C2;}
</style>
<rect x="2718.9" y="-828.3" class="st0" width="2200" height="2200"/>
<g>
	<path class="st1" d="M606.9,162.1h-78.5c-2.7,0-5,1.9-5.5,4.6l-4.2,21.6c-0.7,3.8-2.2,7.4-4.3,10.7l-49.9,75.8
		c-3,4.5-8.4,6.6-13.6,5.2l-193.1-51.7c-4.3-1.2-7-3.4-7.7-6.2c-0.3-1.3-0.2-2.5,0.4-3.7c0.5,0.4,1.1,0.8,1.8,0.9l48.2,12.8
		c2.2,0.6,4.6,0,6.3-1.7l2.3-2.3l70.1,18.5c3.4,0.9,7-0.4,9.1-3.2l13.2-17.9c0.8-1.1,1-2.5,0.5-3.8c-0.5-1.3-1.5-2.2-2.9-2.5
		l-63.7-15c-1.7-0.4-3.6,0.1-4.9,1.3l-21.8,21.2l-48.3-12.8c-3.6-1.1-7.1-0.5-9.5,1.7c-0.2,0.2-0.4,0.4-0.6,0.6
		c-0.1-0.3-0.2-0.6-0.3-0.9c-0.2-1.3,0.2-2.6,1.4-3.4l36.2-26.7c1.5-1.1,3.4-1.5,5.2-1.1l47.2,9.8l-0.2,0.2c-0.6,0.5-0.8,1.3-0.6,2
		c0.2,0.7,0.8,1.3,1.5,1.4l133.4,28.3c0.6,0.1,1.3,0.2,1.9,0.2c2.9,0,5.7-1.4,7.4-3.9l22.9-33c0.6-0.9,0.8-2.1,0.3-3.2
		c-0.5-1-1.4-1.8-2.5-1.9l-166.3-24.8c-2-0.3-3.4-2.1-3.2-4.1l0.2-1.7l173.5,25.4c2,0.3,4-0.2,5.6-1.4c1.6-1.2,2.7-2.9,3-4.9
		L541,26.6c0.4-2.1-0.2-4.3-1.6-6c-1.4-1.7-3.4-2.7-5.6-2.7l-185.2-5.1c0,0-0.1,0-0.2,0c-3.9,0-7.2,3-7.6,6.9l-11.4,115.5
		c-0.3,3.2,2,6.1,5.2,6.6l0.3,0l-1.1,10.5l-4.4-0.6c-2.4-0.4-4.9,0.3-6.8,1.8l-11.5,8.7H24c-0.3,0-0.6,0.3-0.6,0.6s0.3,0.6,0.6,0.6
		h287.2c0.1,0,0.3,0,0.4-0.1l11.7-8.8c1.7-1.3,3.8-1.8,5.9-1.5l4.5,0.7l-0.2,1.8c-0.2,2.7,1.6,5,4.3,5.4l166.3,24.8
		c0.7,0.1,1.3,0.6,1.6,1.2c0.3,0.7,0.2,1.4-0.2,2l-22.9,33c-1.8,2.6-4.9,3.8-8,3.2l-133.4-28.3c-0.3-0.1-0.5-0.3-0.6-0.6
		c-0.1-0.3,0-0.6,0.2-0.8l0.9-0.8l67.1,14c1.6,0.3,3.3-0.3,4.3-1.6l3.2-4.3c0.5-0.6,0.5-1.4,0.3-2.1c-0.3-0.7-0.9-1.2-1.6-1.3
		l-63.9-12.4c-1.3-0.2-2.6,0.1-3.6,1l-6.2,5.4l-48.1-10c-2.1-0.5-4.4,0-6.1,1.3l-36.2,26.7c-1.5,1.1-2.2,2.8-1.8,4.6
		c0.1,0.6,0.4,1.2,0.7,1.7c-0.9,1.5-1.1,3.2-0.7,4.9c0.5,1.9,2.2,5.3,8.5,7.1l193.2,51.7c1.2,0.3,2.4,0.5,3.5,0.5
		c4.5,0,8.8-2.2,11.4-6.1l49.9-75.8c2.2-3.4,3.7-7.1,4.5-11.1l4.2-21.6c0.4-2.1,2.2-3.6,4.3-3.6h78.5c0.3,0,0.6-0.3,0.6-0.6
		C607.5,162.5,607.2,162.2,606.9,162.1L606.9,162.1z M331.4,206.6c1-0.9,2.4-1.3,3.7-1l63.7,15c0.9,0.2,1.7,0.9,2,1.8
		c0.3,0.9,0.2,1.9-0.4,2.6l-13.2,17.9c-1.8,2.4-4.9,3.5-7.8,2.7l-69.3-18.3L331.4,206.6z M251.8,216.6c2-1.9,5.1-2.4,8.3-1.4
		c0,0,0,0,0,0l47.6,12.6l-1.8,1.8c-1.4,1.3-3.3,1.8-5.1,1.4l-48.2-12.8c-0.6-0.2-1.1-0.4-1.5-0.8
		C251.4,217.1,251.6,216.9,251.8,216.6L251.8,216.6z M334.7,140.6c-2.6-0.4-4.4-2.7-4.1-5.2L342,19.8c0.3-3.4,3.2-5.9,6.6-5.8
		l185.2,5.1c1.8,0.1,3.5,0.9,4.7,2.3c1.2,1.4,1.7,3.2,1.4,5l-24.1,146.3c-0.6,3.4-3.8,5.7-7.2,5.3l-173.6-25.4L336,142l136.4,18.6
		c-0.1-0.4-0.2-0.8-0.3-1.3l-135.9-18.5L348.7,25c0.2-2.1,2-3.8,4.1-3.8c0.1,0,0.1,0,0.2,0l175.7,5.9c0.9,0,1.8,0.5,2.4,1.1
		c0.6,0.7,0.8,1.6,0.7,2.5L511.1,161c-0.3,2-2.2,3.4-4.1,3.1l-35.3-4.8c-0.2,0.4-0.5,0.8-0.7,1.1l35.8,4.9c1.3,0.2,2.5-0.2,3.6-0.9
		c1-0.8,1.7-1.9,1.9-3.2l20.6-130.1c0.2-1.2-0.2-2.5-1-3.5c-0.8-1-2-1.6-3.2-1.6L353,20.1c-2.8-0.1-5.3,2.1-5.5,4.9L335,140.7
		L334.7,140.6L334.7,140.6z M348.2,188.6c0.7-0.6,1.6-0.9,2.5-0.7l63.9,12.4c0.3,0.1,0.6,0.3,0.7,0.6c0.1,0.3,0.1,0.6-0.1,0.9
		l-3.2,4.3c-0.7,0.9-1.9,1.4-3,1.1l-66.2-13.8L348.2,188.6z"/>
	<path class="st1" d="M454.1,282.8c-1.3,0-2.6-0.2-3.8-0.5l-193.2-51.7c-6.9-1.9-8.8-5.8-9.3-7.9c-0.4-1.7-0.2-3.6,0.5-5.2
		c-0.2-0.5-0.4-1-0.5-1.6c-0.4-2.2,0.5-4.4,2.3-5.7l36.2-26.7c2-1.5,4.6-2,7-1.5l47.6,9.9l5.7-5.1c1.2-1.1,2.9-1.5,4.5-1.2
		l63.9,12.4c1.1,0.2,2,1,2.4,2c0.4,1.1,0.2,2.2-0.4,3.1l-3.2,4.3c-1.3,1.7-3.4,2.5-5.4,2l-49.8-10.4l116,24.6
		c2.6,0.6,5.3-0.5,6.9-2.7l22.9-33c0.2-0.3,0.2-0.6,0.1-0.9c-0.1-0.3-0.4-0.5-0.7-0.6l-166.3-24.8c-3.2-0.5-5.5-3.4-5.2-6.7l0.1-0.7
		L329,154c-1.8-0.3-3.7,0.2-5.1,1.3l-11.6,8.8c-0.3,0.3-0.7,0.4-1.1,0.4H24c-1,0-1.7-0.8-1.7-1.7s0.8-1.7,1.7-1.7h286.6l11.2-8.5
		c2.2-1.7,5-2.4,7.7-2l3.3,0.5l0.9-8.3c-3.4-0.9-5.7-4.1-5.3-7.6l11.4-115.5c0.5-4.5,4.3-7.9,8.8-7.9h0.2l185.2,5.1
		c2.5,0.1,4.8,1.2,6.4,3.1c1.6,1.9,2.3,4.5,1.9,6.9L518,173.1c-0.4,2.3-1.6,4.3-3.4,5.6c-1.8,1.3-4.1,1.9-6.4,1.6L335.8,155
		l-0.1,0.5c-0.1,1.4,0.9,2.7,2.3,2.9l166.3,24.8c1.5,0.2,2.8,1.2,3.4,2.6c0.6,1.4,0.4,3-0.4,4.2l-22.9,33c-1.9,2.7-5,4.4-8.3,4.4
		c-0.7,0-1.4-0.1-2.1-0.2l-133.4-28.3c-1.2-0.2-2.1-1.1-2.4-2.3c-0.2-0.6-0.1-1.2,0-1.7l-45.6-9.5c-1.5-0.3-3.1,0-4.3,0.9L252.2,213
		c-0.4,0.3-0.7,0.6-0.8,1c2.6-1.7,6-2.1,9.5-1l47.6,12.6l21.3-20.7c1.6-1.5,3.8-2.1,5.9-1.6l63.7,15c1.7,0.4,3.1,1.6,3.7,3.2
		c0.6,1.6,0.3,3.4-0.7,4.8l-13.2,17.9c-2.4,3.2-6.4,4.6-10.3,3.6l-69.4-18.3l-1.9,1.8c-1.9,1.9-4.7,2.6-7.4,1.9L252,220.4
		c-0.3-0.1-0.6-0.2-0.9-0.3c-0.1,0.6-0.1,1.1,0.1,1.7c0.6,2.4,3,4.3,6.9,5.3l193.1,51.7c4.7,1.3,9.7-0.6,12.4-4.7l49.9-75.8
		c2.1-3.1,3.5-6.6,4.2-10.3l4.2-21.6c0.6-3.2,3.4-5.5,6.6-5.5h80.6l-0.7,1c0.1,0.2,0.2,0.5,0.2,0.8c0,1-0.8,1.7-1.7,1.7h-78.5
		c-1.6,0-2.9,1.1-3.2,2.7l-4.2,21.6c-0.8,4.2-2.4,8.1-4.7,11.5l-49.9,75.8C463.7,280.3,459.1,282.8,454.1,282.8z M312.4,226.6
		l67.4,17.8c2.5,0.7,5.1-0.3,6.6-2.3l13.2-17.9c0.3-0.5,0.4-1,0.2-1.6c-0.2-0.6-0.6-0.9-1.2-1.1l-63.7-15c-1-0.2-2,0-2.7,0.7
		L312.4,226.6z M253,217.1l48.1,12.8c1.4,0.4,3,0,4.1-1.1l0.4-0.4l-45.8-12.1C257.2,215.5,254.8,215.8,253,217.1z M345.2,192.8
		l64,13.3c0.7,0.2,1.5-0.1,1.9-0.7l3.1-4.1L350.5,189c-0.6-0.1-1.1,0.1-1.6,0.4L345.2,192.8z M414.5,201.4
		C414.5,201.4,414.5,201.4,414.5,201.4L414.5,201.4z M414.3,201.1C414.3,201.1,414.3,201.1,414.3,201.1L414.3,201.1z M341.5,196.1
		L341.5,196.1C341.5,196.1,341.5,196.1,341.5,196.1z M341.3,195.5L341.3,195.5C341.3,195.5,341.3,195.5,341.3,195.5z M336.1,151.6
		l172.5,25.3c2.8,0.4,5.5-1.5,5.9-4.3l24.1-146.3c0.2-1.5-0.2-3-1.1-4.1c-0.9-1.2-2.3-1.8-3.9-1.9l-185.2-5.1
		c-2.8-0.1-5.2,2-5.5,4.8l-11.4,115.5c-0.2,1.7,0.8,3.2,2.3,3.8l12.4-114.4c0.3-3.4,3.3-6,6.7-5.9l175.7,5.9c1.6,0,3.1,0.8,4.1,2
		c1,1.2,1.4,2.8,1.2,4.4l-20.6,130.1c-0.3,1.6-1.1,2.9-2.4,3.9c-1.3,0.9-2.8,1.3-4.4,1.1l-37.6-5.1l0,0l-132-18L336.1,151.6z
		 M471.1,158.1l36,4.9c1.4,0.2,2.7-0.8,2.9-2.2l20.6-130.1c0.1-0.6-0.1-1.2-0.4-1.6c-0.4-0.4-0.9-0.7-1.5-0.7l-175.7-5.9l-0.1,0
		c-1.6,0-2.9,1.2-3,2.7l-12.4,114.7L471.1,158.1z"/>
</g>
</svg>
