<svg xmlns="http://www.w3.org/2000/svg" viewBox="0 0 32600 16700"><path stroke-width="0" fill="#69a6c2" d="M31557 7924h-1402c-12 0-25 0-38 2-40 3-90 6-116-14-53-40-64-165-72-248-2-18-3-35-5-49l-16-128c-32-259-66-527-112-790-12-68-21-137-30-211-27-215-55-438-171-620-120-188-317-316-539-350-218-34-441 25-657 82-71 19-138 37-205 51-331 72-722 159-1114 256-150 37-301 80-447 123-128 37-260 75-392 109v-104l285-80c267-75 533-150 800-226l574-163c62-17 126-33 190-49c129-32 263-66 387-114c197-78 259-260 172-500-399-1101-992-1839-1763-2192-396-181-821-248-1200-270-1214-368-2534-285-3694-174-1547 149-2873 387-4055 728l-26 4l2 7c-23 16-34 42-28 71c6 28 30 55 64 59l2 6l23-7c1242-192 2577-240 3969-142c285 20 573 51 851 82l63 7c93 10 177-33 258-75c31-16 60-31 90-43c385-158 811-271 1267-334c412-58 796-77 1148-58c142 42 283 91 422 146c488 194 913 477 1230 818c204 220 386 494 541 815c58 120 105 232 145 343c5 14 12 31 20 49c23 54 54 129 47 169-14 79-240 151-337 182-22 7-42 13-55 18-172 62-360 121-608 190-241 67-483 141-718 213l-99 30c-58-483-190-998-403-1579-97-266-210-535-334-799-17-36-34-74-51-112-46-103-93-209-152-302-67-105-203-108-311-111h-8c-229-5-478 31-765 112-346 98-657 244-924 435-295 210-470 510-589 748-264 527-473 1127-621 1783-6 26-13 54-20 83-56 230-133 546 118 704c193 121 448 79 674 42c36-6 71-12 104-17c31 7 64 13 99 16c384 37 772-103 1147-239c145-52 282-102 417-141c546-158 1028-298 1495-438c4 64 7 129 8 192-419 118-847 239-1268 361-190 55-380 107-570 160-404 111-822 226-1226 363-27 9-58 19-91 28-130 39-293 88-379 180-32 34-45 72-36 106c9 34 37 61 81 75c67 22 151 7 218-5l35-6c150-24 299-60 450-98c378-95 758-206 1126-313l297-87c313-92 636-187 956-271c134-36 274-67 398-94-4 67-9 133-16 200l-169 47c-14 4-31 7-50 11-77 15-182 35-200 125-3 16 0 31 4 43c2 6 4 15 3 18-14 48-110 78-167 95l-48 15c-127 42-270 89-375 12-82-61-135-44-214-17-12 4-24 8-38 12-137 42-274 83-411 125-666 200-1355 407-1982 745-4 2-8 5-13 7-68-319-186-608-406-820-197-190-478-366-732-461-72-27-145-49-220-66c108-86 211-174 309-264c198-182 314-410 424-647c100-215 193-438 282-653c44-106 88-212 133-318c88-206 195-407 299-600c64-119 129-242 190-365c53-108 98-212 58-287-23-42-70-69-140-78-394-54-801-94-1210-121-799-52-1590-55-2354-10l-61 4c-492 29-1000 59-1467 204-177 55-323 157-482 273-295 217-576 456-816 662-356 306-704 623-997 893-22 21-45 41-67 62-4-12-10-23-17-33-41-57-122-76-222-53-120 27-277 115-361 249-48 77-63 160-45 240c15 63 46 103 92 118h3c-41 38-81 75-121 114-75 73-149 146-223 220-6 6-13 12-20 19-27 24-61 54-69 92-10 47 10 94 58 137c104 92 273 119 408 141c19 3 38 6 56 9c305 53 619 81 915 104c667 53 1326 80 1959 80c709 0 1410-16 2083-46c126-6 254-16 378-27c199-17 404-34 604-31c18 0 36 0 54 2-147 104-304 205-472 306-577 345-1172 613-1769 796-199 61-435 127-675 152-92 10-183 17-274 25-211 17-428 36-642 81-221 46-434 115-634 204-41 18-81 38-121 59-79 40-161 81-246 104-93 25-198 24-300 22-30 0-59-1-87 0-190 0-395-3-631-11-568-19-1064-55-1516-108-183-22-423-53-658-106l-45-10c-122-26-260-56-350-128-25-20-34-29-38-52-7-42 27-106 58-162c16-30 32-58 41-83c25-68 49-150 37-242l-3-21q-5-36 34-72c53-48 117-88 179-126l14-9c223-138 460-261 689-380c142-74 288-150 429-228c18-10 39-20 62-32c90-45 202-101 246-179c25-45 18-78 7-97-16-29-51-46-97-48-86-3-181 39-264 76-19 9-38 17-55 24-158 65-328 146-518 246-394 207-733 421-1032 650-54-39-120-66-178-54-85 19-178 110-253 183-20 19-38 37-53 51-223 200-384 400-491 610-87 170-189 425-78 678c72 165 194 315 362 444c408 315 955 444 1385 521c507 91 1055 135 1725 139h32c558 3 1135 7 1669-156c112-34 217-83 320-130c38-17 76-35 114-52c30-13 60-24 90-32c145 58 322 82 549 75c169-5 333-41 491-76c138-30 280-62 423-72c67-4 132 0 195 10-143 163-271 333-383 507-100 155-179 323-257 487-67 141-136 287-217 423-95 158-192 305-344 371-168 73-370 119-599 136-382 29-778 11-1160-7-118-5-235-11-351-15-515-18-936-44-1325-82-681-67-1355-194-2004-379-46-13-93-26-143-39-306-82-653-174-834-416-168-224-44-530 55-776l36-89c48-119 98-243 136-369l4-15c29-93 64-209 35-307-22-73-56-112-103-117-130-12-281 273-298 305-216 414-326 778-346 1143-12 217 35 415 85 626c47 200 3 360-148 534-261 301-637 326-1031 326H1578c-46 0-71 37-71 73s25 73 71 73h7580c195 2 397 4 590-43c336-82 618-315 736-608c57-142 28-290-7-429-46-188-90-413-62-660c47-406 190-802 404-1114l10-15c9-14 30-46 42-54c4 9 7 35-8 105l-3 13c-24 125-72 248-119 367l-10 25c-16 40-33 81-49 122-79 193-162 393-172 601-13 274 165 503 514 661c271 123 568 200 855 274l87 23c309 80 621 147 925 198c811 135 1634 175 2333 196c114 3 228 9 344 14c362 17 737 34 1097-8c294-34 623-105 832-378c157-205 270-441 379-670c39-82 79-165 120-246c122-239 291-476 515-724c19 7 38 15 57 23-458 510-799 1197-1012 2043-76 300-179 712-524 800-87 22-182 23-275 25-29 0-58 0-87 2-142 5-288 8-432 8-270 0-549-7-827-22-1072-60-2081-203-2999-424-270-65-538-146-798-241l-33-12c-172-63-350-127-520-204-20-9-42-21-66-33-80-42-180-95-265-84-48 5-84 28-103 67-74 146 108 471 110 474c99 169 228 318 373 431c81 62 177 103 270 142c24 10 49 21 73 31c1395 616 2855 803 4483 968c734 74 1301 115 1838 131c192 6 382 9 609 11c143 3 278-18 412-37c50-7 99-14 149-20c94-11 178-17 247 9-44 3-88 5-132 7-43 2-86 3-128 6h-22c-63 5-141 10-189 56-30 29-43 66-39 109c15 169 291 388 359 433c63 42 597 309 769 215c36-20 55-54 55-99c0-64-54-113-96-152-10-9-19-17-26-25-73-75-138-169-203-298-16-31-30-64-44-98-8-19-17-39-25-58c12-4 24-9 36-15c88 246 202 434 346 571c171 164 409 254 658 254c50 0 100-4 150-11c770-114 1233-954 1408-1702c117-496 254-1445-131-2231-95-193-265-444-541-544-291-106-580 7-770 119-488 289-861 859-1024 1562-93 400-122 850-88 1338c5 80 14 155 26 228-4-19-8-38-11-55-140-732-55-1536 241-2264c204-503 504-985 884-1423c73-33 148-58 229-74c295-61 601 20 839 221c373 314 580 821 616 1505c13 239 17 458 14 663-31 16-59 33-80 53-126 121-127 515-29 654c31 44 64 62 98 55c81-18 114-189 120-223c25-146 34-294 37-444c32-13 65-24 95-34c34-12 66-23 91-34l327-141c390-167 801-341 1295-547c373-156 746-311 1120-466c458-190 916-380 1373-572c183-77 367-154 550-232c35-15 71-31 106-46c33-15 66-29 100-44-40 24-70 60-69 124c2 126 99 267 151 342c97 140 201 233 328 291c4 2 380 171 514 98c27-15 44-39 48-70c4-27-5-54-18-79c70 84 159 146 278 162c330 43 564-314 650-470c282-510 395-1192 302-1824-33-228-191-744-463-878-97-48-200-43-304 15-198 110-359 325-479 637-96 250-156 541-183 890-10 123-14 224-14 317c0 18 2 40 4 64c2 28 5 60 5 90-27-225-25-467 5-730c70-603 296-1146 621-1490c163-172 302-231 416-176c41 20 76 50 107 87c12 103 23 210 42 316c21 120 52 302 198 348c23 7 47 2 65-13c9-8 15-17 20-28c12 110 34 218 86 304c67 110 169 107 267 106h37c380-2 1305 0 1391 0c25-2 48-12 61-34c14-23 14-54 0-77-12-22-35-34-61-34zm-9214 3946c-3 79-8 160-19 239-8-85-6-178 19-239zm-2668 1160c-6-40-12-81-15-121-75-954 87-1724 483-2291c198-284 562-630 935-671c181-20 344 36 486 166c186 171 317 433 399 804c79 353 94 747 47 1170-60 531-193 961-407 1316-166 275-448 628-846 743-312 90-645 4-850-221-134-147-222-330-282-508c91-105 71-248 51-387zm-327 583c63 134 129 272 228 393c15 19 34 36 52 53c20 19 39 37 53 55-11-3-22-6-34-8-132-25-244-56-341-96-183-75-322-185-416-325l-8-11c-28-41-45-70-51-84c15-5 46-6 58-7c7 0 14 0 18-1c57-6 116-8 174-9c79-3 160-5 239-17l28 59zm-4569-8123c-78 55-104 51-111 47-10-5-15-28-13-60c4-84 96-168 186-213c64-33 120-51 154-51c8 0 14 0 19 3c6 2 9 6 11 8c0 7-8 31-76 114l-7 9c-15 18-30 37-45 55-38 31-77 62-117 90zm7962 2261c308-149 648-279 1102-422c165-52 331-102 497-151l138-42c108-33 216-65 323-98c14-4 30-10 46-17c41-16 96-37 123-26c4 2 15 13 21 20c10 11 20 22 33 30c45 26 97 31 132 32c155 5 356-48 513-135c87-48 121-97 128-187v-9c4 0 8-1 13-2c64-10 128-30 191-50c16-5 33-10 49-15-25 222-58 445-93 673-15 103-31 205-46 309-30 210-57 421-84 632-48 373-98 758-162 1135-14 83-31 180-54 274-2 10-5 22-7 35-8 42-20 100-43 124-26 26-87 48-136 66-25 9-48 18-66 26l-238 109c-166 76-332 152-499 228-88 40-176 81-265 122-462 214-939 435-1436 543l-29 7c-67 16-178 42-216-1-25-29-33-111-37-165-2-20-3-38-6-53-40-268-58-550-75-798-17-254-25-513-34-764-8-249-17-506-33-759-11-172-27-345-55-512l18-9c95-52 191-102 286-148zm-6227 944c53-179 120-302 201-367c96-78 226-115 340-141c195-44 396-57 572-57c97 0 187 4 263 8c225 13 462 31 678 104l9 3c44 15 104 35 123 72c21 41-17 85-65 135l-7 7c-152 156-344 290-529 411-301 197-667 306-1031 306h-13c-117 0-230 0-342 25-194-95-266-276-198-506zm1289 508c-59 14-119 28-179 39c110-31 217-72 321-120c181-85 342-206 497-323l49-37c105-78 213-158 293-261c65-84 83-161 53-229-81-185-492-241-794-267h-15c-296-27-559-25-804 6-198 25-423 68-590 196-186 142-290 442-295 652-3 162 66 305 192 404-37 16-74 33-110 51-84 39-171 80-261 109-547 175-1150 167-1734 159h-65c-733-11-1315-69-1829-184-457-102-1018-271-1307-672-68-95-112-183-128-261-25-119 17-280 126-481c116-213 289-414 530-615c17-14 37-32 56-50c29-27 74-67 86-71c10-2 23 0 34 5-28 23-56 46-83 69-342 289-696 636-730 1020-4 49 8 84 37 105c57 41 162 9 240-25c223-97 436-284 602-525c189-276 240-486 155-638c41-31 81-61 122-89-4 4-7 8-11 12-28 32-56 68-53 137c0 22 1 41 2 60c3 45 5 81-9 130-11 40-31 79-51 121-28 58-58 119-66 184-14 119 71 183 137 220c136 78 302 113 450 145c240 51 485 82 672 104c477 55 995 91 1581 108c237 7 431 9 609 7h63c108 1 219 0 323-34c86-28 169-69 248-108c47-23 93-46 141-67c220-96 461-165 737-212c146-25 297-36 442-47c148-11 301-22 451-48c223-38 463-102 755-202c643-220 1258-519 1828-888c134-87 259-174 379-262c238 43 468 138 686 286c20 14 41 27 61 41c114 75 231 153 318 258c86 103 156 231 214 393c37 103 67 211 92 330-43 25-87 50-131 77-58 35-91 59-98 134-2 19 0 37 2 54c2 17 4 34 1 49-7 44-41 108-85 138-21 14-43 20-64 15-19-4-36-22-53-40-18-19-38-41-66-51-61-23-98 4-137 32l-10 7c-98 69-190 145-276 217-138 115-300 253-456 403-116 113-226 229-330 349-239 105-473 275-640 474-356 425-633 994-847 1740-92 323-156 655-217 977-28 148-57 301-90 454c18-229 63-459 116-711c64-308 138-604 219-880c71-243 165-482 255-714c29-75 59-151 88-227l12-30c27-69 61-154 48-232-12-75-68-141-117-200-8-10-16-20-24-29-112-139-314-364-567-527c40-43 81-84 123-126c302-294 651-562 1069-817c408-249 866-465 1401-660c14-5 41-12 76-23c279-79 542-168 575-287c7-24 7-61-30-101-34-36-93-53-134-53h-1c-95 0-208 44-308 83-39 15-76 29-109 40-232 75-462 161-683 254-441 185-854 402-1227 645-418 272-779 569-1081 889-225-59-453-6-675 45zm-5011-2368s10-6 14-8c242-143 510-302 784-415-73 40-146 78-218 116l-180 94c-132 69-267 140-401 214zm-1047 1147c-100 109-209 198-323 264-43 24-92 52-143 66-2 0-4 0-5 1c26-112 48-152 93-231l4-7c55-99 127-198 219-302c137-156 290-297 448-424c4 10 7 21 10 33c33 178-182 471-301 600zm8808-97c229-107 467-205 709-291c68-24 402-131 566-171-103 42-286 95-369 119-49 14-86 25-102 31-200 73-404 155-625 252-803 353-1495 829-2057 1414-18-9-35-18-53-26c500-517 1149-963 1930-1327zm-274-1510c-543 55-1103 64-1644 73l-242 4c-604 11-1195 18-1790-9l-172-8c-602-27-1225-54-1815-177-76-16-156-33-227-63-28-12-57-24-61-27c0-3 6-13 35-41l144-139c94-91 188-181 284-272c79-74 159-150 229-233c186-159 369-328 545-491c126-117 256-237 386-352c353-313 626-546 888-756c27-21 53-43 80-65c166-135 338-274 526-361c145-67 310-95 470-123l17-3c236-41 490-71 822-97c693-55 1410-66 2192-34c418 17 828 47 1220 90c17 2 45 4 80 6c88 5 355 21 375 59c4 26-24 76-43 109-6 11-12 22-16 30-29 60-62 120-94 177l-10 19c-180 329-330 636-457 939-25 61-51 122-76 183-105 254-213 516-338 765-58 117-112 221-182 315-72 97-169 178-264 257l-49 41c-75 63-153 125-233 187-178-23-368-23-580-1zm-1185 6879c-63 0-127 9-185 16l-90 12c-159 22-311 43-466 41-189-2-412-5-637-13-721-25-1438-93-1981-151-900-95-1921-203-2892-460-310-82-611-180-896-291-50-19-101-38-154-58-201-74-408-151-572-263-171-116-326-309-414-515-53-124-55-178-47-203c1-4 2-7 3-10c12 0 40 14 53 20c8 4 15 7 21 10c86 34 171 69 256 104c223 92 454 187 689 265c819 273 1712 397 2484 493c609 75 1169 116 1714 125c281 4 563 0 838-12c172-8 339-25 486-142c247-196 329-528 401-820l7-29c90-363 218-710 380-1030c174-344 376-646 613-917c169 102 316 242 440 373c14 15 30 31 47 48c70 70 157 157 177 234c16 60-23 147-55 218-8 19-16 37-23 52-245 616-423 1200-544 1784-46 222-97 480-117 740l-3 31c-10 103-27 275 69 329c32 18 61 21 88 9c51-22 74-89 86-138c33-129 56-262 77-391c10-62 21-123 32-184c110-586 251-1262 535-1864c166-353 394-836 779-1110c1 0 2-2 4-3-838 1126-1172 2471-877 3668c12 49 25 96 38 142-19 10-40 18-62 24-12-17-26-33-42-47-72-69-166-88-260-88zm8544-3470c5-14 24-29 59-45c53-25 121-40 181-53l12-3c40-9 83-14 124-19c12-1 23-3 35-4c1 7 3 14 4 20c5 23 9 45 15 64c24 77 51 155 82 232c3 8 78 194 202 379-20-3-52-8-103-20-81-17-155-40-220-69-143-64-262-190-353-374l-6-12c-22-45-38-77-32-97zm701 268c-37-79-71-165-102-255-13-39-23-81-33-123-3-14-7-28-10-42c4-1 8-2 12-4c34 149 81 294 140 434c4 10 8 19 12 29-6-13-12-26-19-39zm100-762c0-14-1-27-1-40-7-367 39-727 131-1043c107-366 258-603 460-723c50-30 97-37 146-22c148 45 265 289 310 380c129 268 140 590 135 841-6 340-63 664-169 961-104 294-329 779-662 717-241-45-344-403-405-617l-9-30c-14-47-26-95-36-144c13-9 25-18 35-28c72-69 68-166 65-252zm631-2456c-196 95-339 287-442 444-145 220-262 476-350 759-150 486-183 985-101 1451-9 3-19 5-28 7-111-232-484-66-664 14-18 8-34 15-48 21-383 163-796 336-1336 561-240 100-479 199-719 299-605 251-1231 511-1845 771-200 84-400 169-599 255l-327 141c-28 12-63 24-100 37l-18 6c0-57 0-113-2-170-7-546-34-1077-292-1559-209-390-604-767-1126-767-74 0-150 8-229 24c127-133 262-261 404-384c94-81 171-146 244-206c60-49 117-94 173-136c4-3 10-9 17-14c9-8 28-25 35-27c4 0 7-2 11-2c7 4 14 7 18 9c12 5 24 16 37 28c17 16 36 33 62 42c54 19 112 12 171-21c68-37 126-102 153-170c13-34 14-72 14-108c0-37 0-72 16-93c20-27 55-50 96-71c20 125 35 261 46 414c20 271 29 547 37 814c8 256 17 521 35 781c18 269 38 531 76 788c2 14 4 29 6 45c15 115 35 273 183 300c200 36 443-54 638-126c37-14 73-27 106-39c284-99 562-223 832-343l18-8c311-139 622-281 939-426l265-121c15-7 33-14 50-20c46-17 99-37 133-71c34-34 49-82 62-124l3-10c54-169 80-350 105-525l14-99c38-255 72-516 106-767l18-137c44-330 89-670 142-1004l14-87c30-189 61-382 83-576c719-200 1425-390 2138-533c40-8 81-18 124-28c214-50 458-107 641 19c183 126 249 369 293 613c8 42 14 85 20 128-6-4-13-8-20-11-99-52-212-48-335 12zm-6293-538c-59-67-84-144-73-229c22-179 192-355 331-451c145-100 432-250 669-250c65 0 126 11 180 38c129 64 226 233 223 385-5 198-271 326-415 394-240 115-504 167-769 203-57-18-108-47-146-91zm1422-321c71-129 70-274-1-430-77-168-204-270-378-304-336-64-776 148-1020 380-210 201-285 436-205 647c22 57 55 106 98 147-20 2-40 4-60 7l-23 3c-106 12-226 25-335-16-193-73-167-274-125-474c63-297 128-587 226-867c24-70 49-141 73-215c191-562 406-1199 886-1542c462-330 1042-527 1543-527c38 0 76 1 113 4c135 8 143 25 198 135c106 212 189 386 259 546c356 810 559 1502 622 2115-81 25-163 50-244 75-205 64-417 129-627 189-100 28-199 55-299 82-285 77-580 157-862 261-33 12-69 25-106 38c115-69 210-153 266-254zm-567-3317c-207 61-465 137-683 255-36 21-61 25-108 18-109-14-229-28-366-42-629-63-1260-95-1888-95-518 0-1034 21-1544 64c924-206 1930-357 3046-460c925-85 1956-151 2950 32-484 19-957 96-1407 228zm3324 2812c152-43 309-88 463-137l38-12c189-59 385-121 558-219c117-66 173-131 136-279-235-933-933-1732-1885-2169c28 6 55 13 83 19c879 217 1586 901 2044 1976c12 29 27 60 42 93c52 111 110 237 113 344c5 161-165 200-314 234-31 7-60 14-87 21l-1091 309c-239 68-478 135-718 203-34 10-69 19-104 29-3-64-8-128-13-193c114-34 228-69 342-104c130-40 262-77 393-115zm-1862 960c-163 47-327 95-490 143-257 75-522 153-784 226l-124 35c-285 81-580 165-875 210-5 0-9 1-14 2c21-11 41-21 60-29c118-46 236-84 368-127c414-133 841-251 1253-365c206-57 412-114 618-173c328-94 657-187 986-280c0 33-1 66-2 99-9 2-19 4-28 6-350 77-685 170-966 251zm2613 3147l12-4c55-19 140-48 206-48c11 0 21 0 30 2-79 13-166 30-256 59-14 5-29 9-43 13-11 3-21 6-33 9c28-11 55-21 83-31zm1880-2570c0-7-2-15-2-22-22-204-44-414-113-611-88-250-229-409-420-472-209-69-445-13-654 37-52 12-103 25-153 34-683 138-1362 324-2021 506c5-64 10-128 12-193c142-35 283-76 421-116c141-41 286-83 430-118c399-99 801-188 1141-262c65-14 131-32 200-50c234-63 475-127 695-59c260 80 414 295 460 638c21 154 48 309 75 459c38 214 78 435 97 655c2 25 4 50 6 77v3c-31-159-84-356-175-504z"/></svg>