<?xml version="1.0" encoding="UTF-8"?>
<svg id="Layer_1" data-name="Layer 1" xmlns="http://www.w3.org/2000/svg" viewBox="0 0 326 167">
  <defs>
    <style>
      .cls-1 {
        fill: none;
      }

      .cls-1, .cls-2 {
        stroke-width: 0px;
      }

      .cls-2 {
        fill: #69a6c2;
      }
    </style>
  </defs>
  <path class="cls-1" d="M133.31,30.57c2.06-4.02,7.82-6.73,12.81-6.08-.54-.34-1.07-.61-1.5-.75-.89-.3-1.84-.45-2.82-.45-2.4,0-4.68.89-6.11,2.37-1.51,1.57-2.48,3.6-2.84,5.87.15-.32.3-.64.47-.96Z"/>
  <path class="cls-1" d="M128.16,66.2c.27-1.25.31-1.72.3-1.9-.05-.04-.08-.05-.08-.05-.19.1-.91,1.09-1.43,1.81l-.12.16c.3.04.72.04,1.33-.02Z"/>
  <path class="cls-1" d="M178.29,51.8c-1.01.23-2.16.5-3.7.64,2.87.71,6.05,1.54,9.54,2.74.13,0,.27,0,.41.01-.95-1.12-1.98-2.38-2.76-3.84-1.3-.05-2.27.17-3.48.45Z"/>
  <path class="cls-1" d="M162.69,42.09c.29.6.39,1.22.47,1.77.03.22.08.54.14.71.02,0,.04,0,.06-.01.21-.23.57-2.15.2-4.76-.21-1.5-.54-2.31-.74-2.66-.08.08-.17.2-.29.37-.32.49-.64,1.17-.88,1.94.27.9.63,1.78,1.05,2.64Z"/>
  <path class="cls-1" d="M150.36,43.6c-.3,1.09-.41,1.51-.38,1.79,1.14-.38,2.14-1.12,3.04-2.27,1.91-2.44,2.26-5.63.99-8.96-.38-1-.9-1.99-1.53-2.92,0,.75-.08,1.43-.14,1.99-.04.37-.07.69-.07.9.02,1.53-.31,2.99-.99,5.91-.38,1.63-.7,2.79-.91,3.56Z"/>
  <path class="cls-1" d="M151.81,94.49c0,.76.06,1.03.34,1.35.42-.76.84-1.54,1.24-2.32,2.72-5.18,3.75-7.97,4.08-9.21-.09.07-.18.14-.29.23-2.16,1.8-5.36,6.21-5.38,9.95Z"/>
  <path class="cls-1" d="M150.48,33.03c.12-1.14.3-2.85-.25-4.41-1.32-1.21-2.71-2-3.93-2.21-4.27-.76-9.57,1.58-11.33,5.02-.91,1.78-1.53,3.48-1.93,5.32.45,2,1.29,3.84,2.43,5.33,3.4,4.43,9.48,3.89,11.26,3.63.22-.03.48-.03.82-.03.17,0,.37,0,.58,0-.09-.68.1-1.38.44-2.58.23-.82.53-1.92.89-3.48.64-2.77.96-4.17.94-5.47,0-.31.04-.71.08-1.12Z"/>
  <path class="cls-1" d="M128.96,60.41c-.21.69-.44,1.35-.7,2h.04c.05,0,.1,0,.15,0,.49,0,.96.22,1.4.64.55.53.59,1.25.29,2.81,2.99-.7,6.61-2.2,9.66-4.01,3.83-2.28,8.75-7.45,8.62-9.07-.09-1.09-1.12-2.22-2.76-3.02-3.04-1.48-8.41-1.94-14.4,1.12-.54,3.05-1.29,6.17-2.29,9.53Z"/>
  <path class="cls-1" d="M134,43.21c-.59-.77-1.1-1.61-1.54-2.51-.06.63-.12,1.29-.18,1.96-.16,1.77-.33,3.72-.66,5.99,2.58-1.15,5.05-1.7,7.28-1.85-1.76-.67-3.5-1.78-4.89-3.59Z"/>
  <path class="cls-1" d="M161.71,30.63c-.68,1.72-.91,3.69-.69,5.78.55-.8,1.15-1.23,1.78-1.28,1.25-.05,2.18,1.4,2.6,4.39.15,1.05.78,6.3-1.63,6.84-.6.13-1.12.06-1.53-.22-.67-.46-.8-1.28-.91-2-.06-.41-.13-.83-.27-1.17,0,.89.09,1.88.42,2.84.5,1.46,1.46,2.56,3.02,3.45.52.15.96.3,1.37.43,1.56.5,2.57.83,5.07.94,3.39.15,5.27-.28,6.93-.66,1.01-.23,1.97-.45,3.11-.5-.37-1.12-.52-2.25-.46-3.41.11-2.39.98-3.63,1.98-5.06.74-1.07,1.58-2.27,2.38-4.28,1.08-2.72,1.6-8.53-3.31-13.04-2.99-2.75-6.99-2.68-8.58-2.52-7.77.77-11.14,9.11-11.28,9.46Z"/>
  <path class="cls-1" d="M150.95,117.28c.49,1.89-.2,3.84-1.01,6.1-.92,2.58-2.06,5.78-1.7,9.88.19,2.11.71,3.89,1.17,5.45.75,2.57,1.46,4.99.21,7.69-.69,1.49-1.64,2.24-2.34,2.79-.65.51-.92.74-.98,1.21-.09.62.19.87,1.95,1.83.71.38,1.58.86,2.55,1.51,2.13,1.45,5.02,3.44,7.42,4.74,2.75,1.5,3.64,1.45,3.86,1.4-.08-.36-.76-1.29-1.32-2.05-1.67-2.27-4.17-5.69-5.43-11.18-1.05-4.59-.46-8.77.11-12.8.2-1.4.38-2.72.5-4.08.38-4.27,1.36-6.11,2.15-7.59.66-1.24,1.14-2.14,1.13-4.23-.02-2.85-1.86-10.36-5.72-17.43-.33-.6-.65-1.11-.98-1.56-2.18,3.8-4.22,6.93-5.51,8.45-.59.7-1.23,1.4-1.89,2.07,2.98,1.41,5.1,4.93,5.85,7.8Z"/>
  <path class="cls-1" d="M189.78,55.76c.46.08.92.17,1.35.26.47.09,1.17.23,1.75.32-1.25-1.27-4.57-3.67-8.71-4.64.65.96,1.4,1.84,2.08,2.63l.08.09c.28.33.55.64.8.95.84.09,1.71.22,2.65.39Z"/>
  <path class="cls-1" d="M131.46,88.84c2.93-4.52,6.95-10.71,12.47-16.27,4.03-7.38,7.77-13.75,12.84-16.94.93-.59,1.86-.36,3.15-.06,1.19.28,2.98.71,5.89.85,5.09.24,8.4-.23,11.31-.65.62-.09,1.22-.17,1.83-.25-2.18-.62-4.22-1.12-6.08-1.58-3.83-.94-6.85-1.69-9.14-2.94-1.22-.35-3.27-.89-7.01-1.47-.56-.09-1.1-.17-1.6-.24-2.9-.43-4.86-.71-6.02-1.81-.63.08-1.16.07-1.57.06-.22,0-.41,0-.52,0-.35.05-.84.11-1.44.15.32.12.62.25.9.38,2.27,1.1,3.66,2.76,3.8,4.55.23,2.89-6.04,8.74-9.52,10.81-3.46,2.06-7.84,3.81-11.04,4.42-.32,1.38-.78,3.24-1.4,5.74l-.96,3.89c-1.15,4.64-1.66,6.82-1.73,9.85-.05,2.04-.18,7.47.92,7.91,0,0,.01,0,.02,0,.76,0,3.26-3.85,4.92-6.41Z"/>
  <path class="cls-1" d="M194.43,104.89c0,.34.03.85.09,1.47.65-1.7,1.56-2.86,2.63-3.31,1.86-.79,3.99.47,5.7,1.48.22.13.4.24.57.33-.2-.3-.41-.61-.56-.84-1.53-2.24-3.84-5.63-3.76-9.68.02-.82.13-1.63.34-2.45-2.65,3.39-5.1,7.91-5.02,13Z"/>
  <path class="cls-1" d="M125.74,55.63c-.72,1.01-1.61,2.24-2.94,3.87-2.76,3.36-4.82,5.02-6.64,6.48-1.71,1.37-3.31,2.66-5.25,5.18-2.27,2.97-3.67,5.26-4.9,7.28-1.17,1.92-2.17,3.57-3.54,5.11-1.59,1.79-2.83,2.61-3.82,3.26-.76.5-1.26.83-1.64,1.42-1.1,1.71-1.14,3.99-.89,5.11,0,.03.01.06.02.09.41-.51,1.07-1.52,1.39-2.01,1.5-2.28,3.05-4.65,4.88-4.17,1.2.31,1.53,1.52,1.63,2.73.22-.74.42-1.51.56-2.03.56-2.13,1.13-4.33,1.96-5.46,1.09-1.49,4.61-4.35,8.35-7.37,2.07-1.67,4.2-3.4,5.89-4.87,1.66-1.45,2.84-2.88,3.61-3.88-.04-.56.29-1.12.72-1.87.56-.96,1.39-2.41,2.06-4.63.81-2.72,1.45-5.28,1.95-7.77-.12.08-.25.16-.37.25-1.26.84-1.85,1.66-3.01,3.28Z"/>
  <path class="cls-1" d="M180.97,59.76c2.96.14,5.51.27,5.89-.67h0c.07-.17.13-.44-.11-.96-.96-.38-1.95-.75-2.95-1.09-2.31,0-4.33.27-6.42.57-3,.43-6.39.92-11.67.67-3.07-.15-4.97-.59-6.23-.89-.66-.16-1.11-.26-1.41-.26-.17,0-.25.03-.33.08-3.49,2.2-6.39,6.15-9.48,11.42.13-.1.25-.21.38-.31,5.15-4.09,10.65-6.28,20.3-8.06,4.61-.85,8.71-.65,12-.5Z"/>
  <path class="cls-2" d="M291.56,125.58c-24.09-2.42-35.04-1.37-46.65-.25-6,.58-11.47,1.31-16.29,1.96-14.83,1.99-24.63,3.3-29.64-2.63-2.18-2.58-3.5-6.51-3.65-10.75.63.82,1.35,1.52,2.17,2.07,2.56,1.76,5.57,1.33,8.48.92.52-.07,1.05-.15,1.57-.21,4.62-.53,8.89-1.37,10.38-5.69,1.13-3.26.45-6.63-.77-12.75-.5-2.49-1.06-5.32-1.64-8.82-.57-3.43-.62-5.25-.67-6.72-.04-1.51-.07-2.59-.62-4.45-2.78-9.46-12.11-14.53-18.28-17.89-1.66-.9-3.32-1.73-5-2.49,2.3.45,3.69.71,4.19-.4.12-.27.2-.71-.1-1.31-.82-1.62-5.11-5.13-10.76-6.37-.44-.1-.87-.17-1.28-.23-.48-1.14-.68-2.27-.63-3.42.09-1.85.71-2.74,1.65-4.08.76-1.09,1.7-2.44,2.58-4.66,1.26-3.17,1.88-9.91-3.78-15.1-3.55-3.25-8.19-3.19-10.01-3-8.88.88-12.67,10.23-12.83,10.63-1.1,2.77-1.19,6.14-.27,9.51-.67,2.44-.67,4.97,0,6.96.24.7.55,1.33.95,1.91-1.1-.22-2.31-.44-3.66-.65-.57-.09-1.11-.17-1.62-.24-1.6-.23-2.89-.42-3.81-.71,1.08-.55,2.05-1.37,2.9-2.46,2.33-2.98,2.78-6.8,1.26-10.77-.82-2.14-2.21-4.23-3.91-5.9-.28-.65-.65-1.25-1.11-1.78-.62-.72-3.47-3.15-5.52-3.83-3.76-1.25-8.33-.24-10.87,2.41-3.08,3.21-3.62,7.05-3.53,9.71.03.89.14,1.8.32,2.69-.37,1.84-.53,3.64-.72,5.74-.18,2.05-.39,4.37-.85,7.16-.62.35-1.24.73-1.85,1.13-1.54,1.03-2.27,2.05-3.5,3.75-.7.97-1.57,2.18-2.87,3.77-2.64,3.22-4.54,4.74-6.37,6.21-1.79,1.44-3.48,2.79-5.56,5.5-2.33,3.05-3.81,5.49-5.02,7.47-1.16,1.9-2.07,3.4-3.33,4.82-1.43,1.61-2.55,2.35-3.46,2.94-.85.56-1.58,1.04-2.18,1.97-1.52,2.36-1.5,5.52-1.01,7.01.23.68.58,1.11,1.04,1.28,1.29.48,2.26-1.01,3.62-3.09.57-.87,2.31-3.48,2.83-3.38.27.21.3,1.7.31,2.19.02,1.05.04,1.82.56,2.26.25.21.56.31.89.26,1.3-.18,1.82-1.95,2.71-5.34.46-1.78,1.04-3.99,1.66-4.84.94-1.3,4.7-4.33,8.02-7.02,2.08-1.68,4.23-3.42,5.94-4.91,1.65-1.44,2.83-2.84,3.63-3.85.54.22,1.24.32,2.09.29-.31,1.31-.72,2.95-1.21,4.95l-.99,4c-1.18,4.78-1.71,7.03-1.79,10.25-.1,4.11-.21,8.76,2.09,9.68,2.04.81,3.87-2,7.19-7.12,1.9-2.92,4.13-6.36,6.85-9.85-1.87,3.35-3.75,6.54-5.91,9.77-.99,1.47-1.92,2.72-2.75,3.84-2.51,3.37-4.17,5.6-3.78,9.12.47,4.19,4.06,9.22,8.47,9.75,1.69.2,2.89-.33,3.93-.86-5.57,4.22-11.9,6.66-15.73,6.92-12.56.88-24.24-.9-35.54-2.62-11.31-1.72-21.99-3.35-33.61-2.59-13.18.87-25.12,4.7-37.58,12.04-.21.13-.37.33-.43.57-.06.24-.03.49.1.7.13.21.33.37.57.43.24.06.49.03.71-.1,26.79-15.8,47.76-12.6,69.97-9.22,11.4,1.74,23.18,3.53,35.94,2.64,4.81-.34,12.97-3.71,19.39-9.5,2.64.79,4.81,4.07,5.53,6.85.35,1.34-.23,2.96-.96,5.01-.98,2.75-2.2,6.17-1.8,10.67.2,2.29.75,4.16,1.24,5.82.74,2.51,1.27,4.32.31,6.39-.5,1.08-1.16,1.6-1.81,2.11-.7.55-1.5,1.18-1.67,2.41-.28,2,1.2,2.79,2.9,3.72.71.38,1.51.82,2.38,1.41,5.18,3.54,9.67,6.47,12.16,6.47.7,0,1.24-.22,1.62-.66,1.04-1.21.02-2.6-1.27-4.36-1.57-2.14-3.94-5.38-5.11-10.49-.98-4.26-.41-8.26.14-12.19.19-1.35.39-2.74.51-4.11.35-3.89,1.19-5.48,1.94-6.88.7-1.32,1.37-2.56,1.35-5.12-.02-2.46-1.5-10.16-5.95-18.31-.53-.97-1.05-1.75-1.62-2.41,1.38-2.49,6.26-11.5,5.92-13.95-.08-.55-.35-.84-.57-.98-.33-.22-.9-.39-1.78.08-2.49,1.32-7.11,7.2-7.12,12.12,0,1.71.47,2.29,1.26,3.04-2.18,3.84-4.33,7.14-5.63,8.69-.78.92-1.63,1.82-2.53,2.68-1.63-.17-2.8.43-3.84.96-.98.5-1.83.93-3.09.79-3.15-.38-6.41-4.25-6.84-8.11-.31-2.79,1.02-4.57,3.42-7.8.83-1.12,1.78-2.39,2.8-3.91,3.42-5.1,6.29-10.39,8.81-15.06l1.13-2.08c1.42-1.41,2.88-2.72,4.37-3.9,4.88-3.88,10.16-5.96,19.48-7.69,4.4-.81,8.38-.62,11.58-.46,4.1.2,6.82.33,7.7-1.83.11-.27.17-.54.19-.83,2.12.91,4.24,1.94,6.29,3.05,5.91,3.21,14.83,8.06,17.39,16.78.48,1.62.5,2.56.54,3.97.04,1.52.09,3.41.69,6.97.59,3.52,1.15,6.36,1.65,8.87,1.16,5.8,1.79,9,.83,11.78-1.14,3.3-4.68,3.97-8.83,4.45-.52.06-1.06.14-1.62.22-2.67.37-5.2.73-7.17-.62-1.33-.91-2.36-2.27-3.07-4.06.08-.67.2-1.31.34-1.91.47-1.98,1.24-3.37,2.06-3.71,1-.42,2.75.61,4.03,1.37,1.44.85,2.69,1.59,3.56.68.9-.94.11-2.09-1.08-3.85-1.39-2.04-3.5-5.13-3.43-8.59.06-3.28,2.1-6.63,5.74-9.44.26-.2.52-.4.54-.85,0-.28-.1-.54-.31-.73-.27-.24-.68-.3-1.02-.15-.43.2-3.75,2.57-6.97,6.36-2.97,3.49-6.48,8.99-6.37,15.35.02.91.15,3.27,1.01,5.69-.44,4.36.33,10.93,3.98,15.25,5.67,6.71,15.87,5.35,31.31,3.28,4.8-.64,10.25-1.37,16.22-1.95,11.51-1.1,22.38-2.15,46.28.25.24.03.49-.04.68-.2s.32-.38.34-.63c.05-.51-.32-.97-.83-1.02ZM202.86,104.01c.16.23.37.54.56.84-.16-.09-.35-.2-.57-.33-1.71-1.01-3.83-2.26-5.7-1.48-1.08.46-1.99,1.61-2.63,3.31-.07-.62-.09-1.13-.09-1.47-.09-5.09,2.37-9.61,5.02-13-.21.81-.33,1.63-.34,2.45-.08,4.05,2.23,7.43,3.76,9.68ZM148.28,68.62c3.08-5.26,5.99-9.22,9.48-11.42.08-.05.16-.08.33-.08.29,0,.75.1,1.41.26,1.26.3,3.15.75,6.23.89,5.28.25,8.67-.24,11.67-.67,2.1-.3,4.11-.57,6.42-.57,1,.35,1.99.71,2.95,1.09.23.52.17.79.11.96h0c-.38.94-2.93.82-5.89.68-3.29-.16-7.39-.36-12,.5-9.65,1.78-15.16,3.97-20.3,8.06-.13.1-.25.2-.38.31ZM125.6,87.34c.07-3.03.58-5.21,1.73-9.85l.96-3.89c.62-2.51,1.08-4.36,1.4-5.74,3.2-.62,7.59-2.37,11.04-4.42,3.48-2.07,9.75-7.92,9.52-10.81-.14-1.79-1.53-3.44-3.8-4.55-.28-.14-.58-.26-.9-.38.6-.04,1.09-.1,1.44-.15.11-.02.29,0,.52,0,.41,0,.94.01,1.57-.06,1.16,1.09,3.12,1.38,6.02,1.81.5.07,1.04.15,1.6.24,3.74.58,5.79,1.12,7.01,1.47,2.29,1.25,5.31,2,9.14,2.94,1.86.46,3.9.96,6.08,1.58-.6.08-1.21.17-1.83.25-2.91.42-6.22.89-11.31.65-2.91-.14-4.7-.56-5.89-.85-1.29-.3-2.22-.53-3.15.06-5.06,3.2-8.81,9.56-12.84,16.94-5.52,5.57-9.54,11.75-12.47,16.27-1.66,2.56-4.16,6.41-4.92,6.41,0,0-.01,0-.02,0-1.1-.44-.97-5.86-.92-7.91ZM129.13,52.1c-.5,2.5-1.14,5.05-1.95,7.77-.66,2.22-1.5,3.67-2.06,4.63-.43.75-.76,1.31-.72,1.87-.77,1-1.95,2.44-3.61,3.88-1.69,1.47-3.82,3.2-5.89,4.87-3.73,3.02-7.26,5.87-8.35,7.37-.82,1.13-1.4,3.33-1.96,5.46-.14.52-.34,1.3-.56,2.03-.1-1.21-.43-2.42-1.63-2.73-1.83-.48-3.38,1.88-4.88,4.17-.32.5-.98,1.5-1.39,2.01,0-.03-.01-.06-.02-.09-.25-1.11-.21-3.4.89-5.11.38-.59.88-.92,1.64-1.42.99-.65,2.23-1.47,3.82-3.26,1.37-1.54,2.37-3.19,3.54-5.11,1.23-2.02,2.63-4.32,4.9-7.28,1.93-2.53,3.54-3.82,5.25-5.18,1.82-1.46,3.89-3.12,6.64-6.48,1.33-1.62,2.22-2.86,2.94-3.87,1.17-1.63,1.76-2.44,3.01-3.28.12-.08.25-.17.37-.25ZM141.79,23.29c.99,0,1.94.15,2.82.45.44.14.96.42,1.5.75-4.99-.65-10.75,2.06-12.81,6.08-.17.32-.32.64-.47.96.36-2.27,1.33-4.29,2.84-5.87,1.42-1.49,3.71-2.37,6.11-2.37ZM152.26,34.12c0-.21.03-.53.07-.9.06-.56.13-1.24.14-1.99.63.93,1.15,1.92,1.53,2.92,1.27,3.33.92,6.51-.99,8.96-.9,1.15-1.9,1.89-3.04,2.27-.02-.27.08-.7.38-1.79.21-.77.54-1.93.91-3.56.67-2.92,1.01-4.39.99-5.91ZM148.57,43.09c-.33,1.2-.53,1.9-.44,2.58-.21,0-.41,0-.58,0-.34,0-.6,0-.82.03-1.78.27-7.86.8-11.26-3.63-1.14-1.49-1.98-3.33-2.43-5.33.4-1.85,1.02-3.54,1.93-5.32,1.76-3.43,7.06-5.78,11.33-5.02,1.22.22,2.61,1,3.93,2.21.55,1.56.37,3.27.25,4.41-.04.42-.09.81-.08,1.12.02,1.3-.3,2.7-.94,5.47-.36,1.56-.66,2.66-.89,3.48ZM132.27,42.65c.06-.67.12-1.32.18-1.96.44.9.96,1.74,1.54,2.51,1.39,1.81,3.13,2.92,4.89,3.59-2.23.15-4.7.7-7.28,1.85.33-2.27.5-4.23.66-5.99ZM145.65,49.75c1.64.79,2.67,1.92,2.76,3.02.13,1.62-4.79,6.79-8.62,9.07-3.05,1.81-6.67,3.31-9.66,4.01.29-1.56.26-2.28-.29-2.81-.44-.43-.91-.64-1.4-.64-.05,0-.1,0-.15,0h-.04c.26-.64.5-1.3.7-1.99,1-3.36,1.75-6.48,2.29-9.53,6-3.07,11.36-2.6,14.4-1.12ZM126.95,66.06c.53-.72,1.24-1.72,1.43-1.81,0,0,.03.01.08.05,0,.18-.03.65-.3,1.9-.61.07-1.03.06-1.33.02l.12-.16ZM181.57,23.69c4.91,4.51,4.39,10.32,3.31,13.04-.8,2.01-1.64,3.22-2.38,4.28-1,1.43-1.87,2.67-1.98,5.06-.06,1.17.1,2.29.46,3.41-1.14.05-2.1.27-3.11.5-1.66.38-3.54.81-6.93.66-2.51-.11-3.51-.44-5.07-.94-.41-.13-.85-.27-1.37-.43-1.56-.89-2.53-1.99-3.02-3.45-.33-.96-.43-1.95-.42-2.84.15.33.21.76.27,1.17.11.72.24,1.54.91,2,.41.28.93.36,1.53.22,2.41-.54,1.78-5.79,1.63-6.84-.43-2.99-1.35-4.45-2.6-4.39-.63.04-1.22.47-1.78,1.28-.22-2.09.01-4.07.69-5.78.14-.35,3.52-8.7,11.28-9.46,1.58-.16,5.58-.22,8.58,2.52ZM186.25,54.33c-.68-.8-1.43-1.67-2.08-2.63,4.13.98,7.46,3.37,8.71,4.64-.57-.09-1.28-.23-1.75-.32-.43-.08-.89-.17-1.35-.26-.93-.17-1.8-.29-2.65-.39-.25-.31-.52-.63-.8-.95l-.08-.09ZM184.13,55.18c-3.49-1.2-6.68-2.03-9.54-2.74,1.54-.14,2.69-.41,3.7-.64,1.21-.28,2.18-.5,3.48-.45.78,1.46,1.81,2.72,2.76,3.84-.14,0-.27,0-.41-.01ZM162.81,37.14c.2.35.53,1.16.74,2.66.37,2.6.02,4.53-.2,4.76-.02,0-.04,0-.06.01-.05-.17-.1-.49-.14-.71-.08-.55-.18-1.17-.47-1.77-.42-.86-.78-1.74-1.05-2.64.25-.77.56-1.45.88-1.94.12-.17.21-.29.29-.37ZM153.39,93.52c-.41.78-.82,1.55-1.24,2.32-.28-.32-.35-.59-.34-1.35.01-3.74,3.21-8.15,5.38-9.95.11-.09.2-.16.29-.23-.32,1.24-1.36,4.04-4.08,9.21ZM152.51,98.96c.33.45.65.96.98,1.56,3.87,7.07,5.7,14.58,5.72,17.43.02,2.09-.46,2.99-1.13,4.23-.79,1.48-1.77,3.32-2.15,7.59-.12,1.35-.31,2.68-.5,4.08-.57,4.04-1.16,8.21-.11,12.8,1.26,5.49,3.76,8.91,5.43,11.18.56.76,1.24,1.69,1.32,2.05-.21.05-1.11.1-3.86-1.4-2.4-1.3-5.29-3.29-7.42-4.74-.96-.66-1.84-1.13-2.55-1.51-1.76-.96-2.03-1.21-1.95-1.83.07-.47.33-.69.98-1.21.7-.55,1.65-1.3,2.34-2.79,1.25-2.71.54-5.13-.21-7.69-.46-1.57-.98-3.34-1.17-5.45-.36-4.09.78-7.3,1.7-9.88.81-2.26,1.5-4.21,1.01-6.1-.75-2.88-2.87-6.4-5.85-7.8.67-.67,1.3-1.36,1.89-2.07,1.29-1.52,3.33-4.65,5.51-8.45Z"/>
</svg>