<?xml version="1.0" encoding="utf-8"?>
<!-- Generator: Adobe Illustrator 27.4.1, SVG Export Plug-In . SVG Version: 6.00 Build 0)  -->
<svg version="1.1" id="Layer_1" xmlns="http://www.w3.org/2000/svg" xmlns:xlink="http://www.w3.org/1999/xlink" x="0px" y="0px"
	 viewBox="0 0 326 167" style="enable-background:new 0 0 326 167;" xml:space="preserve">
<style type="text/css">
	.st0{fill:#AEB5C6;}
</style>
<path class="st0" d="M381,71c-0.1-0.3-0.3-0.5-0.6-0.6c-5-2-11.5-3-18.8-3h-0.1c-6.8,0-13.9,0.9-20.1,2.6c-5,1.4-9.8,3.6-14.4,5.7
	c-4.1,1.9-8.4,3.8-12.7,5.2c-1.9,0.6-4.3,1.1-5.9,0c-0.8-0.5-1.3-1.4-1.9-2.3c-0.4-0.7-0.9-1.5-1.5-2.1c-2.8-3-7.3-2.9-9.8-2.5
	c-9.4,1.3-16.9,7.6-24.2,13.7l-1.5,1.2c-6.6,5.5-14.2,11.5-22.6,14.1c0.6-1.8,1.1-3.6,1.5-5.4c1.2-5.3,1.9-10.7,1.9-16.1
	c0-9.4-1.8-18.5-5.5-27.1c-3.5-8.3-8.5-15.7-14.9-22.1c-3.7-3.7-7.8-7-12.2-9.7c-2-1.7-9.1-5.1-12.7-6.3c-7.8-2.9-16-4.4-24.4-4.4
	c-6.7,0-13.3,0.9-19.7,2.8l-0.2,0.1c-0.2,0.1-0.5,0.2-0.7,0.3c-0.9,0.4-2,0.9-2.7,1.8c-0.7,0.9-0.8,2.1-0.1,3.1
	c0.7,1.1,2.2,1.7,3.4,1.4c0.9-0.2,1.6-0.8,2.3-1.3c0.5-0.3,0.8-0.6,1.2-0.8c0.2-0.1,0.3-0.1,0.4-0.1c0,0.2,0,0.4,0,0.6
	c0.1,0.4,0.4,0.8,0.8,1.1c0.5,0.3,1.2,0.4,1.8,0.2c0.2-0.1,0.5-0.1,0.7-0.2c0.2-0.1,0.4-0.2,0.5-0.2c0,0,0,0,0,0
	c0.2,0,0.5,0.3,0.7,0.7c0.2,0.4,0.2,0.9,0.3,1.4c0,0.2,0,0.4,0.1,0.7c0,0.2,0.1,0.4,0.1,0.6c-0.5,0-1,0.2-1.3,0.7l-0.1,0.2
	c-0.5,1.2,0.2,2.2,0.7,2.9c0.2,0.4,0.5,0.8,0.5,1c0,0.2-0.2,0.6-0.4,1c-0.4,0.7-1,1.8-0.4,2.9c0.2,0.4,0.6,0.7,0.8,0.9
	c1.1,0.9,2.3,1.7,3.6,2.5c1.2,0.8,2.4,1.5,3.4,2.4c0.3,0.3,0.8,0.3,1.2,0.1c0.4-0.2,0.6-0.6,0.6-1c0-0.1,0.4-0.5,0.6-0.7
	c0.6-0.5,1.3-1.2,1.4-2.3c0-0.7-0.2-1.2-0.5-1.6c-0.1-0.2-0.2-0.4-0.2-0.5c0,0,0,0,0.1-0.1c0.1-0.1,0.4-0.2,0.6-0.2
	c0.6,0.1,1.2,0.6,1.7,1c0.3,0.2,0.7,0.3,1,0.2c0.4-0.1,0.6-0.4,0.7-0.8l0.2-0.8c2.4-0.5,4.6-1.7,6.2-3.4c0.5-0.5,1-1,1.2-1.8
	c0.1-0.3,0.1-0.7,0.2-0.9c0-0.1,0-0.2,0-0.4c0-0.3,0.1-0.5,0.2-0.9c0.2-0.7,0.5-1.6,0.3-2.5c-0.2-0.7-0.6-1.3-1-1.8
	c-0.1-0.2-0.3-0.3-0.4-0.5c-0.2-0.3-0.2-0.6-0.2-0.6c0.3-0.2,0.4-0.4,0.5-0.7c0-0.3,0-0.6-0.2-0.8c-0.4-0.5-0.9-0.7-1.3-0.9
	c-0.2-0.1-0.4-0.2-0.5-0.2c0,0,0-0.1,0-0.1c0-0.2,0.1-0.4,0.3-0.5c0.3-0.2,0.7-0.3,1.3-0.4c0.2,0,0.5-0.1,0.8-0.1
	c0.2,0,0.7-0.1,1.6,0l0.7,0.1c1.9,0.4,4.2,1.3,5.8,2.3c0.4,0.2,0.7,0.4,1,0.6c1.4,0.9,1.7,0.9,3.3,0.6c0.4-0.1,0.9-0.2,1.5-0.3
	c4,1.5,7.8,3.4,11.5,5.7c0.3,0.5,0.6,1,0.8,1.5c-0.2,0-0.3,0-0.5,0c-0.6,0-1,0.3-1.3,0.5c-0.6,0.3-1.5,0.8-1.8,1.9
	c-0.5,1.3,0.4,2.6,0.6,3c0.5,0.8,1.2,1.6,1.9,2.3c-0.7,0.6-1.1,1.4-1.3,2.2c-0.2,1.2,0.2,2.6,1.2,3.8c0.3,0.4,0.8,1,1.6,1.2
	c0.7,0.2,1.6,0.1,2.2-0.4c0.6,0.5,1.2,1.1,1.6,1.7c0.2,0.4,0.3,1,0.4,1.5c-0.3,0.2-0.9,0.7-1.3,1.4c-0.5,0.3-0.9,0.8-1.1,1.3
	c-0.2,0.6-0.3,1.3,0,1.9l-1.4,1.3c0.2-0.9,0.1-1.8-0.2-2.6c-0.5-1.1-1.4-1.9-2.3-2.4c-0.8-0.6-1.7-1.1-2.6-1.5
	c-0.2-0.1-0.4-0.2-0.8-0.3c-0.5,0-1,0.1-1.4,0.5c-0.4,0.4-0.6,1-0.6,1.6c0.1,0.7,0.5,1.3,1.1,1.9c0.1,0.1,0.2,0.2,0.3,0.2
	c0,0,0.1,0.1,0.1,0.1l-0.7,0.6c-0.4,0.3-0.5,0.8-0.3,1.2c0.2,0.7,0.9,2.4,2.5,2.6c0,0,0.1,0,0.1,0c-0.4,0.6-0.4,1.4-0.1,2.1
	c0,0.1,0,0.2,0,0.2c0.1,0.4,0.2,1.3,1.1,1.6c0.9,0.3,1.7,0.6,2.2,1.2c0.1,0.1,0.2,0.2,0.2,0.3c0,0.1,0,0.2-0.1,0.2
	c0,0-0.2,0-0.3-0.1c-0.2-0.1-0.5-0.2-0.7-0.2c-0.4,0.1-0.9,0-1.4,0c-0.3,0-0.5,0-0.8,0c-1.2,0-2.2,0.3-2.9,0.8
	c-1,0.8-1.5,2.3-0.7,3.5c0.2,0.2,0.3,0.4,0.5,0.6c0,0,0,0,0,0c-0.7,0.5-1,1.4-0.7,2.2c0.2,0.6,0.5,1,0.8,1.3
	c0.5,0.6,1.3,1.5,2.4,1.7c0.3,0.1,0.7,0.1,1,0.1c0.2,0,0.5,0,0.6,0.1c0.2,0.1,0.2,0.8,0.2,1.2c0,0.5,0.1,1,0.3,1.3
	c-0.1,0-0.2,0-0.2,0.1c-1.1,0.2-2.9,0.6-3.1,2.3c-0.1,0.7,0.1,1.4,0.2,2c0.1,0.2,0.1,0.4,0.1,0.6c0.1,0.5-0.1,0.8-0.1,0.9
	c-0.1,0-0.4,0-0.6,0c-0.2,0-0.5,0-0.7,0c-1.5,0.1-2.7,1.2-3.6,2.2c-0.7,0.7-1.7,1.8-1.8,3.3c-0.1,0.9,0.2,1.7,0.4,2.4
	c0.2,0.6,0.3,1.1,0.3,1.5l0,0.2c0,0.5-0.1,0.8-0.2,0.9c-0.8,0.8-0.9,2.1-0.2,3.5l0.1,0.3c0.2,0.4,0.5,0.9,0.4,1.2
	c-0.1,0.2-0.4,0.5-0.7,0.8c-0.5,0.5-1.2,1.2-1.3,2.2c-0.1,1.2,0.7,2,1.1,2.5c2.1,2.3,4.3,4.5,6.7,6.5c0.3,0.3,1.1,1,2.1,0.7
	c0.6-0.1,1-0.5,1.3-0.8c0.1-0.1,0.1-0.1,0.2-0.2c0.1,0.1,0.3,0.3,0.8,0.9c0.5,0.7,1.5,1.3,2.4,1.3c0.6,0,1.1-0.4,1.4-0.9
	c0.4-0.7,0.2-1.4,0.1-1.9c0-0.1,0-0.2-0.1-0.3c0.1,0,0.1-0.1,0.2-0.1l3.8-1.9c0.9-0.5,1.2-0.3,1.2-0.3c0.1,0.2-0.2,0.8-0.3,1.1
	c-0.3,0.8-0.6,1.8-0.2,2.9c0.1,0.3,0.3,0.5,0.6,0.6c0.3,0.1,0.6,0.1,0.8,0c0.2-0.1,0.5-0.2,0.8-0.2c-0.3,0.7-0.7,1.4-1.1,2.1
	c-0.9,1.4-1.9,3-1.7,4.9c0.1,0.8,0.4,1.6,0.7,2.2c0.2,0.4,0.3,0.8,0.4,1.1c0.6,2-0.4,4.4-2.9,7.2l-0.1,0.1c-0.8,0.9-1.8,2-2,3.4
	c-0.1,0.6,0,1.2,0,1.7c0,0.3,0.1,0.7,0,1c-0.1,0.9-0.6,1.7-1.2,2.7c-0.7,1.1-1.5,2.4-1.5,3.9c0,0.5,0.1,1.1,0.3,1.6
	c0.1,0.1,0.1,0.3,0.2,0.4c0.1,0.1,0.1,0.3,0.2,0.4c0.3,1-0.7,1.8-1.4,2.2c-10.8,6.8-23.2,10.4-36,10.4c-2.7,0-5.4-0.2-8-0.5
	c0.2-0.2,0.3-0.5,0.4-0.8c0.1-0.4,0-0.7-0.3-1l-3.8-3.7c-0.5-0.5-1-1-1.3-1.5c-0.2-0.4-0.2-0.9,0-1.2c0.2-0.2,0.6-0.4,1.1-0.6
	c0.6-0.2,1.3-0.5,1.9-1.1c0.6-0.6,0.8-1.4,0.9-2.1c0.1-0.3,0.1-0.6,0.2-0.8c0.2-0.5,0.6-0.9,0.9-1.4c0.7-0.8,1.4-1.8,1.5-3.1
	c0-0.4-0.1-0.9-0.1-1.3c0-0.3-0.1-0.9-0.1-1c0,0,0.1-0.1,0.4-0.1c0.4-0.1,0.8-0.2,1.2-0.2c1.4-0.2,2.9-0.5,4-1.7
	c1.3-1.3,1.3-3.1,1.4-4.7c0-1,0.1-2,0.4-2.8c0.3-0.8,1-1.5,1.7-2.2l0.2-0.2c0.9-0.9,1.8-1.9,2.2-3.3c0.4-1.6-0.2-3.5-1.9-4.2
	c-0.9-0.3-1.8-0.2-2.5,0.1c-1-1.4-2.9-2.3-4.6-2c-0.3,0.1-0.6,0.2-0.8,0.3c-0.2,0.1-0.4,0.1-0.6,0.2c-1.1,0.2-2.3-0.7-3.4-1.4
	l-0.1-0.1c-0.3-0.2-0.5-0.4-0.8-0.5c0-0.2,0.1-0.4,0.1-0.6c0.1-0.4,0.1-0.9,0-1.4c-0.2-0.5-0.5-0.9-0.7-1.2l-2.1-2.6
	c-1.2-1.5-2.3-1.3-2.9-1.1c-0.4,0.2-0.6,0.5-0.8,0.7l-0.1,0.1c-0.1,0.1-0.4,0.2-0.6,0.1c-0.2-0.1-0.4-0.2-0.5-0.4
	c-0.1-0.2-0.2-0.4-0.4-0.5c-1.7-1.1-3.7-2-5.6-2.9l-1.2-0.6c-0.7-0.3-1.5-0.7-2.4-0.5c-0.4,0.1-0.7,0.2-1,0.3
	c-0.2,0.1-0.3,0.1-0.4,0.2c-0.5,0.1-1.1-0.3-1.8-0.7c-0.6-0.4-1.3-0.8-2-1c-1.7-0.4-3.2,0.3-4.6,1c-0.7,0.4-1.5,0.7-2.2,0.9
	c-0.3,0.1-0.7,0.1-1.1,0.1c-1.1,0.1-2.5,0.2-3.4,1.2c0.4-1.8,0.6-3.5,0.6-5.3c0-0.5,0-1.1-0.3-1.7c-0.7-1.4-2.3-1.5-3.6-1.5
	c-0.8,0-1.6,0-1.8-0.4c-0.2-0.3-0.1-0.9,0-1.4l0.1-0.3c0.2-1.2,0-2.9-1.4-3.4c-1.3-0.5-2.4,0.4-3.1,0.9c-0.4,0.3-0.8,0.7-1.1,0.7
	c-0.1,0-0.2-0.1-0.5-0.3c-2-2-2.2-5.7-0.3-7.8c1.9-2.2,5.5-2.5,7.8-0.8c0.8,0.6,1.7,0.7,2.6,0.5c0.8-0.3,1.5-1,1.7-1.8
	c0.1-0.4,0.1-0.8,0.1-1.1c0-0.1,0-0.2,0-0.2c0-0.8,0.5-1.6,1.1-2c0.3-0.2,0.7-0.3,1-0.5c0.8-0.3,1.8-0.7,2.4-1.7
	c0.6-0.9,0.6-2,0.6-2.9c0-0.3,0-0.6,0-0.9c0.1-1.2,0.8-2.3,1.9-3c1-0.7,2.4-1,3.8-0.9c2.1,0.1,3.5-1.2,4.7-2.4
	c0.2,0.2,0.4,0.3,0.6,0.3c1.8,0.2,3.6-0.6,4.8-2c0.2-0.2,0.6-0.8,0.6-1.5c0-0.6-0.3-1-0.7-1.4c-0.7-0.5-1.8-0.5-2.4-0.3
	c-0.5,0.1-1,0.4-1.5,0.7c-0.1-0.4-0.2-0.8-0.4-1.1l-0.1-0.3c-0.1-0.2-0.2-0.4-0.2-0.6c-0.1-0.4,0.1-0.8,0.4-1.1
	c0.3-0.2,0.8-0.2,1.2,0c0.1,0.1,0.2,0.1,0.3,0.2c0.3,0.3,0.7,0.6,1.2,0.7c1.1,0.3,2.1-0.4,2.6-0.9c1.5-1.2,3.2-2.1,5-2.9
	c0.5,0,1-0.2,1.3-0.6c0.4-0.6,0.4-1.5-0.1-2.3c-0.4-0.6-1.1-1.2-2.8-1.2l-0.4,0c-0.5,0-0.9,0-1.2-0.1c-0.6-0.3-0.8-1.3-0.8-1.6
	c0-0.3-0.1-0.6-0.1-0.8c-0.1-0.7-0.1-1.5-0.4-2.3c-0.6-1.4-2.1-2.5-3.6-2c-0.4,0.1-0.7,0.3-1,0.5c-0.2,0.1-0.4,0.2-0.5,0.3
	c-0.2,0-0.5-0.2-0.8-0.6c-0.1-0.2-0.2-0.4-0.4-0.6c-0.3-0.5-0.6-1.1-1.1-1.5c-1.1-1.1-3-1.2-4.4-0.4c0.1-0.2,0.2-0.5,0.2-0.7
	c0.2-0.7,0-1.5-0.5-2c-0.3-0.4-0.6-0.9-0.8-1.4c1.1,0.2,2.4-0.1,3.3-0.8c0.8-0.6,1.3-1.4,1.4-2.3c0-0.3-0.1-0.6-0.3-0.8
	c-0.3-0.4-0.7-0.6-1.2-0.8c1.4,0.1,2.7,0.6,3.7,1.4c0.4,0.3,0.7,0.7,0.7,0.9c0,0.3-0.2,0.6-0.4,1c-0.4,0.7-0.8,1.5-0.6,2.6
	c0.4,1.5,2.1,2.1,3.4,1.8c1.2-0.3,2-1.1,2.7-1.7l4.9-4.6c0.3-0.3,0.9-0.9,0.9-1.7c0-1.1-0.9-1.8-1.8-2.1c-0.9-0.2-1.8-0.1-2.6,0
	c-0.9,0.1-1.6,0.2-2-0.2c-0.2-0.2-0.4-0.5-0.6-0.9c-0.1-0.3-0.3-0.6-0.5-1c-1.9-2.7-5.8-2-7.4-1.5c0,0,0-0.1,0-0.1
	c-0.2-0.5-0.4-1.2-1.1-1.6c-0.6-0.3-1.2-0.3-2,0.1c-2.8,1.1-4.4,2.1-5.4,2.8c-0.2,0.1-0.3,0.2-0.4,0.3c-0.9,0.6-1.3,1.4-1.6,2.1
	c-0.1,0.3-0.2,0.5-0.4,0.8c-0.4,0.7-1.4,1.3-2.7,2c-2.9,1.5-7.4,3.9-12.8,11.7c-2,2.9-3.7,6-5.2,8.9c-3.9,7.5-4.8,11.1-5.9,15.4
	c-0.2,1-0.5,2-0.8,3l0,0.1c-0.7,3-1.2,6.2-1.5,9.3c-6-3-14.2-3.6-21.7-1.5c-3.7,1-7,2.6-9.7,4.8c-1.1,0.8-2.1,1.8-2.9,2.8
	c-0.5-0.6-1.1-1.2-1.7-1.7c-2.6-2-6.3-3.1-10.7-3.2c-4.8-0.1-10.3,1-16.6,3.2c-19.8,6.9-39.2,6.4-63.1-1.7c-0.3-0.1-0.6-0.1-0.8,0.1
	c-0.3,0.1-0.5,0.3-0.5,0.6c-0.2,0.6,0.1,1.2,0.7,1.4c11.6,3.9,22,6,31.8,6.5c11.2,0.5,21.9-1,32.7-4.8c6-2.1,11.3-3.1,15.8-3
	c4,0.1,7.2,1,9.4,2.7c0.7,0.5,1.2,1.1,1.7,1.8c-0.9,1.3-1.6,2.6-2.1,4.1c-1.4,3.6-1.4,6.6,0,8c0.7,0.7,1.6,0.9,2.5,0.6
	c0.6-0.2,2.7-1.3,3.2-5.9c0.2-2.1,0-4-0.7-5.8c-0.1-0.3-0.2-0.6-0.4-0.9c2.8-3.4,6.9-6,12-7.4c7.2-2,15.4-1.3,20.9,1.8
	c-0.1,1.3-0.1,2.7-0.1,4c0,7.6,1.2,15.1,3.6,22.3c2.3,6.9,5.8,13.4,10.1,19.3c4.3,5.8,9.5,10.9,15.4,15.1c6,4.3,12.6,7.5,19.6,9.7
	l0.1,0c0.3,0.1,0.7,0.2,1.1,0.3c2,0.6,4.1,1.3,5.5,0.8l0.3-0.1l-0.2-0.6l0,0l0.3,0.5c0.2-0.1,0.4-0.2,0.6-0.2
	c1.1,0.8,2.7,1.6,4.6,1.9l0.1,0c2.8,0.3,5.6,0.5,8.4,0.5c13.2,0,26.1-3.7,37.2-10.8c1.9-1.2,2.7-2.9,2.3-4.6
	c-0.1-0.3-0.2-0.5-0.3-0.8c0-0.1-0.1-0.2-0.1-0.3c-0.1-0.3-0.2-0.5-0.1-0.8c0-0.9,0.6-1.8,1.2-2.8c0.7-1.1,1.4-2.3,1.5-3.7
	c0-0.5,0-0.9,0-1.3c0-0.4-0.1-0.8,0-1.1c0.1-0.8,0.8-1.5,1.5-2.3l0.1-0.1c3.1-3.3,4.2-6.4,3.4-9.2c-0.1-0.5-0.4-1-0.5-1.4
	c-0.2-0.6-0.5-1.1-0.5-1.6c-0.1-1.1,0.5-2.2,1.3-3.5c0.8-1.2,1.7-2.7,1.7-4.3c0-0.6-0.5-1.1-1-1.1c-0.5,0-0.9,0-1.4,0
	c0-0.1,0.1-0.2,0.1-0.4c0.3-0.9,0.8-2.3-0.3-3.3c-0.6-0.6-1.7-1.1-3.7-0.1l-3.8,1.9c-0.3,0.2-0.8,0.4-1.2,1
	c-0.3,0.6-0.2,1.2-0.1,1.6c0,0-0.1-0.1-0.1-0.1c-0.5-0.7-1.7-2.2-3.2-1.6c-0.5,0.2-0.8,0.5-1,0.7c0,0-0.1,0.1-0.1,0.2
	c-0.1,0-0.2-0.1-0.3-0.2c-2.3-2-4.5-4.1-6.5-6.3c-0.2-0.2-0.6-0.7-0.6-0.9c0-0.2,0.3-0.5,0.6-0.8c0.5-0.5,1.1-1,1.3-1.9
	c0.3-1.1-0.2-2-0.6-2.8l-0.1-0.2c-0.3-0.5-0.3-0.9-0.2-1c0.7-0.7,0.8-1.6,0.8-2.3l0-0.2c0.1-0.9-0.2-1.6-0.4-2.4
	c-0.2-0.6-0.4-1.1-0.3-1.5c0.1-0.7,0.6-1.3,1.3-2c0.7-0.7,1.4-1.5,2.1-1.5c0.1,0,0.3,0,0.4,0c0.5,0,1,0.1,1.6-0.2
	c1.3-0.6,1.5-2.1,1.3-3.2c0-0.3-0.1-0.5-0.2-0.8c-0.1-0.4-0.2-0.8-0.2-1.1c0.1-0.2,1.1-0.4,1.4-0.4c0.6-0.1,1.2-0.3,1.8-0.5
	c0.2-0.1,0.3-0.2,0.4-0.3c0.1-0.1,0.3-0.2,0.4-0.3c0.2-0.2,0.4-0.5,0.6-0.7c0.2-0.3,0.4-0.5,0.6-0.6c0.3-0.2,0.9-0.2,1.4-0.2l0.4,0
	c2.6,0,4.5-1.4,6.3-2.8c0.4-0.3,0.7-0.6,1.1-0.8c0.6,0.8,0.6,2.1-0.1,2.9c-0.4,0.4-1.2,1.3-0.7,2.4c0.4,0.9,1.4,1,1.8,1
	c3,0.3,5.9,1.4,8.3,3.3c0.2,0.2,0.6,0.4,1.1,0.5c0.5,0,1-0.2,1.3-0.7c0.5-0.7,0.4-1.5,0.2-2.1v0c0,0,0,0,0,0l2.1,1.9
	c-0.1,0.2-0.1,0.5-0.1,0.7c-0.1,0.5-0.2,1.1-0.1,1.8c0.1,0.7,0.5,1.4,0.7,1.9l2.5,4.6c0.5,0.9,1.3,1.2,2,0.8
	c0.2-0.1,0.3-0.2,0.4-0.4c0.6-1.1,0.5-2.5-0.4-3.9c-0.2-0.3-0.3-0.5-0.5-0.7c-0.4-0.5-0.7-0.9-0.8-1.4c-0.1-0.4-0.1-0.8,0.1-1.2
	c0.1-0.2,0.3-0.7,0.1-1.2c-0.1-0.5-0.5-0.8-0.7-0.9c-0.2-0.2-0.4-0.4-0.6-0.5c0,0,0.1-0.1,0.1-0.1c0.2-0.2,0.4-0.4,0.6-0.7
	c0.5-0.7,0.7-1.6,0.6-2.5c-0.1-1-0.2-1.7-0.7-2.8c-0.6-1.1-1.8-2.2-3.3-2.1l-0.2,0c0,0,0,0,0,0l-2-2.6c0.2,0,0.4,0,0.6,0.1
	c0.9,0.1,1.9,0.3,2.9-0.4c0.9-0.7,1.3-1.8,1.1-3.3c-0.2-1.3-0.7-2.3-1.5-2.8c-0.4-0.2-0.8-0.3-1.1-0.4c-0.1,0-0.3-0.1-0.4-0.1
	c-0.5-0.2-0.9-0.7-1-1.3c0-0.3-0.2-0.6-0.5-0.8c-0.1-0.1-0.3-0.2-0.5-0.2l0-0.1l-0.1,0.1c-0.1,0-0.3,0-0.4,0
	c-1.7,0.5-1.6,2.4-1.5,3.6c0,1-0.2,2-0.7,2.9c-0.2,0.3-0.4,0.7-0.4,1.3c0,0.4,0.2,0.7,0.4,0.9c0,0,0,0,0,0c-0.2,0.4-0.3,0.8-0.4,1.2
	c-0.1-0.3-0.1-0.6-0.2-1c-0.1-0.7-0.2-1.5-0.6-2.2c-0.6-1.1-1.7-1.7-2.7-2.2c-0.8-0.4-1.4-0.3-2,0.1c-0.4,0.3-0.5,0.7-0.6,0.9l0,0.1
	c-0.1,0-0.4,0-0.5-0.1c-0.3-0.2-0.5-0.6-0.9-1.1c-0.1-0.2-0.3-0.4-0.4-0.6c-0.8-1.1-2-1.7-3.1-1.5c-0.7,0.1-1.4,0.4-2,0.7
	c-0.2,0.1-0.7,0.3-1,0.8c-0.2,0.3-0.2,0.7-0.3,0.9l0,0.1c0,0.1-0.2,0.3-0.6,0.5c-0.1,0.1-0.3,0.1-0.4,0.2c-0.4,0.2-0.9,0.4-1.4,0.9
	c-0.8,0.7-1.2,2-0.5,3c-0.2,0.1-0.4,0.2-0.6,0.3c-0.5,0.3-1.8,1.2-1.8,2.6c-0.2-0.5-0.4-1-0.9-1.3c-0.6-0.4-1.2-0.4-1.7-0.4
	c-0.2,0-0.4,0-0.5,0c-0.4-0.1-0.8-0.5-1.3-1c-0.1-0.1-0.2-0.3-0.3-0.4c0.2-0.1,0.4-0.2,0.6-0.4c0.7-0.7,0.5-1.8,0-2.4
	c-0.1-0.2-0.3-0.3-0.4-0.5c-0.1-0.1-0.2-0.2-0.2-0.2c-0.1-0.1,0-0.5,0.3-0.6c0.3-0.2,0.8-0.4,1.6-0.4c0.2,0,0.5,0,0.7,0
	c0.4,0,0.9,0.1,1.4,0c0.8,0.4,1.7,0.3,2.3-0.2c0.8-0.6,1.1-1.6,0.9-2.6c-0.1-0.4-0.3-0.7-0.7-1.1c-0.8-0.9-1.9-1.3-2.8-1.6
	c0,0,0,0,0,0c0-0.2-0.1-0.4-0.2-0.7c0-0.1,0-0.2-0.1-0.2c0,0,0.2-0.1,0.4-0.2c0.1,0,0.2-0.1,0.3-0.1c0.3-0.2,0.6-0.4,0.9-0.6
	c0,0,0,0,0,0c0.2,0.1,0.7,0.3,1.1,0.3c0.7,0,1.1-0.5,1.3-0.7l2-1.8c0.1-0.1,0.4-0.4,0.5-0.8c0.1-0.5-0.2-0.9-0.3-1.1
	c0-0.1-0.1-0.2,0-0.4c0.1-0.2,0.2-0.3,0.3-0.3c0.4-0.1,0.7-0.4,0.8-0.8c0,0,0,0,0-0.1c0.2,0.4,0.5,0.8,0.8,1.1c0.4,0.4,1,0.4,1.4,0
	c0.7-0.6,1.7-1,2.7-0.9c0.3,0,1.3,0,1.8-0.7c0.3-0.4,0.4-0.8,0.2-1.3c-0.1-0.4-0.3-0.6-0.5-0.8c-0.1-0.1-0.2-0.6-0.1-0.7
	c0.2-0.4,0.1-0.9-0.2-1.3c-0.5-0.5-0.5-0.7-0.5-0.7c0,0,0.1-0.2,0.1-0.3c0.1-0.2,0.3-0.6,0.4-1c0.1-0.7-0.2-1.5-0.8-2
	c-0.3-0.3-0.7-0.5-1-0.7l-0.2-0.1c-0.9-0.6-1.6-1.4-2.1-2.4c-0.2-0.3-0.5-0.6-0.9-0.6c-0.4,0-0.7,0.1-1,0.5c-0.7,1-1.2,2.2-1.3,3.4
	c0,0.3-0.1,0.6,0.1,0.9c0.2,0.5,0.6,0.8,0.8,1c0.7,0.5,1.2,1.2,1.3,1.8c0,0.2,0,0.3,0,0.5c-0.1-0.2-0.2-0.4-0.3-0.6
	c-0.6-1.2-1.6-2.1-2.5-2.8c-0.9-0.7-1.7-0.6-2.2-0.2c-0.2,0.2-0.3,0.3-0.4,0.5c0,0,0,0,0,0c-0.2,0-0.3-0.2-0.6-0.5
	c-0.3-0.4-0.9-1.3-0.8-2.2c0.1-0.5,0.5-1.1,1-1.1c0.4,0,0.9-0.3,1-0.7c0.2-0.4,0.1-0.9-0.3-1.2l-0.2-0.2c-0.9-0.8-1.9-1.8-2.6-2.8
	c-0.4-0.5-0.5-0.9-0.4-1.1c0.1-0.2,0.6-0.5,0.9-0.7c0.1-0.1,0.3-0.2,0.4-0.2c0,0,0.2,0.1,0.6,0.7c0.2,0.3,0.4,0.4,0.7,0.5
	c0.3,0.1,0.6,0,0.9-0.2l0.8-0.6c0.1-0.1,0.4-0.3,0.6-0.7c0.1-0.2,0.1-0.3,0.1-0.5c17.5,12.7,27.8,32.9,27.8,54.6
	c0,7.6-1.2,15.1-3.7,22.1c-0.6,0.1-1.1,0.2-1.7,0.3c-2.6,0.4-4.7,1.6-6.1,3.6c-1.8,2.5-2.4,6.2-1.7,10.1l0.1,0.4
	c0.1,0.4,0.2,0.9,0.1,1.2l0,0.1c0,0.1,0,0.3-0.1,0.4c-2.9,0.8-5.6,2.6-7.7,5c-2.1,2.4-3.4,5.5-3.7,8.5c-0.1,0.6,0.3,1.1,0.9,1.2
	c0.9,0.2,1.7-0.5,2.1-0.8c1.2-1.1,7.5-6.9,8.7-9.4c0.2-0.3,0.2-0.6,0.3-0.8c0-0.1,0.1-0.3,0.1-0.4c0-0.1,0.1-0.2,0.2-0.3
	c1.8-1.3,2.8-2.7,3-4.3c0.1-0.5,0-0.9,0-1.3c0-0.6,0-1.1,0.1-1.4c0.1-0.2,0.4-0.4,0.7-0.6c0.2-0.2,0.5-0.3,0.7-0.5
	c0.9-0.6,1.9-1.2,2.5-2.3c1.1-2.2,2.1-4.6,3-6.9c3.8-1,7.6-2.7,11.7-5.2c4.7-2.9,9.1-6.4,13.1-9.7l1.5-1.2c7-5.9,14.3-12,23.1-13.2
	c2-0.3,5.8-0.4,7.9,1.9c0.5,0.5,0.9,1.2,1.3,1.8c0.6,1,1.4,2.2,2.5,2.9c2.4,1.6,5.4,1,7.7,0.3c4.5-1.4,8.8-3.4,13-5.3
	c4.5-2.1,9.2-4.2,14-5.6c12.8-3.5,28.3-3.4,37.7,0.3c0.5,0.2,1.2-0.1,1.4-0.6C381.1,71.6,381.1,71.3,381,71z M188.6,20.6
	c0.2,0.2,0.3,0.5,0.5,0.7c0.3,0.3,0.5,0.7,0.6,0.9c0.1,0.4-0.1,0.8-0.2,1.4c-0.1,0.3-0.2,0.7-0.3,1.1c0,0.2,0,0.3-0.1,0.5
	c0,0.2,0,0.4-0.1,0.5c-0.1,0.3-0.4,0.7-0.7,0.9c-1.5,1.6-3.6,2.6-5.8,2.9c-0.4,0.1-0.8,0.4-0.9,0.8c-0.4-0.2-0.9-0.4-1.4-0.5
	c-0.8-0.1-1.6,0.2-2.2,0.7c-0.5,0.4-0.8,1-0.8,1.7c0,0.6,0.2,1.1,0.5,1.5c0.1,0.2,0.2,0.4,0.2,0.5c0,0.2-0.4,0.5-0.7,0.7
	c-0.2,0.2-0.5,0.4-0.7,0.7c-0.8-0.6-1.6-1.1-2.5-1.7c-1.2-0.8-2.4-1.5-3.4-2.4c-0.1-0.1-0.2-0.2-0.3-0.2c0-0.1,0.3-0.6,0.4-0.8
	c0.3-0.6,0.7-1.2,0.7-2c0-0.7-0.3-1.3-0.7-1.8c0,0,0.1,0,0.1,0c0.6,0.2,1.1,0.1,1.5,0c1.2-0.3,2.4-0.9,3.3-1.7
	c0.3-0.2,0.4-0.6,0.4-0.9l0.3-0.2l-0.4,0c-0.1-0.4-0.5-0.7-0.9-0.7l-3.7-0.3c0-0.1,0-0.3,0-0.4c-0.1-0.6-0.1-1.3-0.4-2
	c-0.4-1.1-1.4-2.1-2.8-2.1c-0.5,0-0.9,0.2-1.3,0.3c-0.1,0-0.2,0.1-0.3,0.1c0-0.1,0-0.3,0-0.4c-0.1-0.5-0.4-1-0.9-1.2
	c-0.8-0.4-1.8-0.3-2.5,0c-0.7,0.3-1.2,0.7-1.7,1.1c-0.5,0.4-1,0.8-1.5,0.9c-0.3,0.1-0.8-0.1-1-0.5c-0.2-0.3-0.1-0.4,0-0.6
	c0.4-0.5,1.1-0.8,1.9-1.1c0.3-0.1,0.5-0.2,0.7-0.3c8.2-2.4,16.8-3.2,25.4-2.4c-0.3,0.4-0.6,1-0.6,1.5c-0.1,0.7,0.1,1.3,0.6,1.8
	c0.3,0.4,0.7,0.6,1.1,0.7C188,19,188.1,19.8,188.6,20.6z M214,48.8l-0.2,0c-0.2,0-0.4,0.1-0.4,0.1c-0.1,0-0.2-0.1-0.5-0.5l0.5-0.5
	c0.2-0.1,0.6-0.5,0.6-1.1c0-0.3-0.1-0.6-0.3-0.9c-0.1-0.2-0.3-0.4-0.4-0.5c0.3,0.2,0.5,0.3,0.8,0.5c0.6,0.4,1.3,0.9,1.5,1.6
	c0.2,0.4,0.2,0.9,0.1,1.3C215.1,48.7,214.5,48.8,214,48.8z M149,20.8c0,0.1,0.1,0.2,0.1,0.2c0.2,0.5,0.5,1.7,1.9,1.7
	c0.2,0,0.5,0,0.7-0.1c0.9-0.3,4-1,5.1,0.7c0.1,0.2,0.3,0.4,0.4,0.7c0.3,0.5,0.6,1.1,1.1,1.6c1.1,0.9,2.5,0.8,3.7,0.7
	c0.6-0.1,1.3-0.1,1.8,0c0,0,0.1,0,0.1,0c0,0-0.1,0.1-0.1,0.1l-4.9,4.6c-0.5,0.5-1.1,1-1.7,1.2c-0.4,0.1-0.8-0.1-0.8-0.3
	c-0.1-0.2,0.2-0.6,0.4-1c0.3-0.6,0.7-1.3,0.7-2.2c-0.1-0.9-0.6-1.7-1.5-2.5c-1.7-1.4-4-2.1-6.4-1.9c-2.4,0.1-4.5,1-6.1,2.6
	c-0.4,0.4-0.4,1.1-0.1,1.5c0.5,0.6,1.2,1.3,2.1,1.9c0,1.3,0.5,2.6,1.4,3.7c0,0,0,0.1,0,0.2c0,0.2-0.2,0.5-0.4,0.5
	c-0.6,0.3-1.4,0.1-2.1,0l-0.4-0.1c-0.9-0.2-1.9-0.5-2.9-0.3c-2.3,0.4-3.7,2.5-4.5,4.1c-0.3,0.5-0.5,1.1-0.5,1.8c0,0.9,0.6,1.6,0.9,2
	l2.4,3.2c0.3,0.4,0.8,1.1,1.6,1.3c0.8,0.3,1.6,0.1,2.1,0l2.4-0.6c1.4-0.3,3.3-1,3.7-2.9c0.2-0.9-0.1-1.7-0.3-2.3
	c-0.1-0.2-0.1-0.4-0.2-0.5c-0.3-1,0-2.2,0.6-2.8c0.6-0.6,1.8-0.7,2.3-0.2c0.3,0.2,0.4,0.6,0.7,1c0.1,0.2,0.3,0.5,0.4,0.7
	c0.6,0.9,1.7,1.8,3,1.5c0.5-0.1,0.9-0.4,1.2-0.6c0.2-0.1,0.3-0.2,0.4-0.3c0.3-0.1,0.8,0.3,1,0.8c0.2,0.5,0.2,1.1,0.3,1.7
	c0,0.3,0,0.6,0.1,0.9c0.1,0.9,0.6,2.6,2,3.3c0.7,0.3,1.5,0.3,2.1,0.3l0.4,0c0.2,0,0.4,0,0.5,0.1c-1.9,0.8-3.6,1.8-5.3,3
	c-0.5,0.3-0.7,0.5-0.8,0.5c-0.1,0-0.3-0.2-0.4-0.3c-0.1-0.1-0.3-0.2-0.5-0.4c-1.1-0.7-2.5-0.7-3.5,0c-1,0.7-1.6,2.1-1.3,3.3
	c0.1,0.4,0.2,0.8,0.4,1.1l0.1,0.2c0.2,0.5,0.4,1.1,0.5,1.9c-0.2,0.2-0.4,0.5-0.7,0.7c-1.1,1.2-2.1,2.3-3.4,2.2
	c-1.9-0.1-3.7,0.3-5.1,1.3c-1.7,1.1-2.7,2.8-2.9,4.6c0,0.4,0,0.8,0,1.2c0,0.7,0,1.3-0.2,1.7c-0.2,0.4-0.8,0.6-1.4,0.9
	c-0.4,0.2-0.9,0.4-1.4,0.7c-1.3,0.8-2.1,2.2-2.1,3.8c0,0.1,0,0.2,0,0.3c0,0.2,0,0.4,0,0.5c-0.1,0.2-0.2,0.3-0.3,0.4
	c-0.2,0.1-0.4,0-0.6-0.1c-1.5-1.2-3.5-1.7-5.6-1.5c-2,0.2-3.9,1.2-5.2,2.6c-1.2,1.4-1.9,3.4-1.8,5.5c0.1,2,0.9,4,2.3,5.3
	c0.4,0.4,0.9,0.8,1.7,0.9c1.2,0.2,2.1-0.6,2.7-1.1c0.2-0.2,0.8-0.6,0.9-0.6c0.1,0,0.2,0.4,0.1,1.1l-0.1,0.3c-0.2,0.8-0.4,2,0.3,3
	c0.8,1.3,2.4,1.3,3.5,1.3c0.7,0,1.5,0,1.7,0.3c0.1,0.2,0.1,0.5,0.1,0.7c0,1.9-0.2,3.8-0.7,5.6c-0.1-2.2-1.4-4.4-3.4-5.8
	c-2-1.4-4.4-2.1-6.5-2.5c-1.7-0.3-3.6-0.8-4-2.1c-0.1-0.5-0.1-1,0-1.7c0.1-0.7,0.2-1.5,0-2.3c-0.3-1.4-1.3-2.6-3-3.7
	c-1.1-0.7-2.1-1.4-3.1-2.3c-0.4-0.3-0.9-0.7-1.4-1c0.3-3.4,0.8-6.7,1.5-10c0.3-1.1,0.6-2.1,0.8-3.1c1-4.1,1.9-7.6,5.7-14.9
	c1.5-2.8,3.1-5.9,5-8.7c5.1-7.4,9.3-9.5,12-11c1.6-0.8,2.8-1.5,3.6-2.8c0.2-0.4,0.4-0.7,0.5-1c0.3-0.6,0.4-0.9,0.8-1.1
	c0.1-0.1,0.3-0.2,0.4-0.3c0.9-0.6,2.4-1.6,5-2.6C148.9,20.8,149,20.8,149,20.8z M148,29C148,29,148,29,148,29
	c0.3-0.4,0.8-0.7,1.4-0.7c0.2,0,0.4,0,0.6,0c-0.1,0.1-0.2,0.2-0.3,0.3C149.3,29,148.6,29.1,148,29z M146.6,40.8
	c0.1,0.2,0.1,0.4,0.2,0.7c0.2,0.5,0.3,0.9,0.3,1.2c-0.1,0.5-0.8,0.9-2.1,1.2l-2.4,0.6c-0.3,0.1-0.7,0.2-0.8,0.1
	c-0.2-0.1-0.4-0.4-0.6-0.6l-2.4-3.2c-0.2-0.3-0.5-0.6-0.5-0.8c0-0.2,0.2-0.5,0.3-0.7c0.6-1.2,1.5-2.7,2.9-2.9c0.1,0,0.2,0,0.3,0
	c0.5,0,1.1,0.2,1.7,0.3l0.4,0.1c1,0.2,2.2,0.5,3.4,0C146.4,37.8,146.2,39.4,146.6,40.8z M146.1,28c-0.1-0.1-0.2-0.2-0.4-0.3
	c0.5-0.3,1-0.6,1.5-0.8C146.8,27.2,146.4,27.6,146.1,28z M165.2,144.2c0,0-0.1-0.1-0.1-0.1c0,0,0-0.1,0-0.1c0.4-1.3-0.3-2.5-1.3-3.2
	c-0.6-0.4-1.2-0.6-1.8-0.7c-0.2-0.1-0.4-0.1-0.6-0.2c-1-0.3-1.9-1.2-1.8-2c0-0.1,0.1-0.2,0.1-0.4c0.2-0.4,0.4-0.9,0.3-1.6
	c-0.1-0.7-0.4-1.1-0.7-1.5c-0.2-0.3-0.3-0.4-0.3-0.5c0-0.3-0.2-0.6-0.4-0.8c-0.8-0.6-1.2-1.6-1-2.5c0.1-0.5,0.3-1,0.5-1.5
	c0.3-0.7,0.6-1.4,0.7-2.3c0.1-1.5-0.6-3.1-1.9-4.2c-1.1-0.9-2.6-1.3-4.2-1.3c-0.5,0-1,0.1-1.5,0.1c-1.2,0.1-2.2,0.3-2.9-0.2
	c-0.6-0.4-0.8-1.2-1.1-2c-0.2-0.5-0.3-0.9-0.6-1.4c-0.8-1.6-2.1-2.6-3.3-3.7c-0.7-0.6-1.4-1.2-2-1.9c-0.1-0.1-0.1-0.2-0.2-0.2
	c0,0,0,0,0.1,0c0.2-0.1,0.3-0.2,0.4-0.4c1-1.1,0.6-2.5,0.2-3.5c-0.2-0.6-0.4-1.2-0.2-1.5c0.1-0.1,0.3-0.2,0.5-0.3
	c0.3-0.2,0.7-0.4,1-0.7c0.8-0.8,1-2,0.7-3.2c-0.3-0.9-0.9-1.6-1.5-2.2c-0.8-0.8-1.6-1.4-2.5-2c0.2,0,0.4,0,0.6,0
	c0.4,0,0.9-0.1,1.3-0.1c1-0.2,1.9-0.6,2.8-1c1.2-0.6,2.1-1,3.1-0.8c0.4,0.1,0.9,0.4,1.4,0.7c0.9,0.6,2.1,1.3,3.4,1
	c0.3-0.1,0.6-0.2,0.8-0.3c0.2-0.1,0.4-0.2,0.5-0.2c0.3,0,0.7,0.1,1.1,0.3l1.2,0.6c1.7,0.8,3.5,1.6,5,2.6c0.4,0.7,1,1.2,1.9,1.4
	c1,0.2,1.9,0,2.6-0.6c0.1-0.1,0.2-0.2,0.2-0.2c0,0,0,0,0,0c0.1,0.1,0.2,0.2,0.4,0.4l2.1,2.6c0.1,0.2,0.3,0.4,0.3,0.5
	c0,0.1,0,0.4,0,0.5c0,0,0,0,0,0c-1-0.2-1.9-0.1-2.7,0.3c-0.2,0.1-0.4,0.3-0.5,0.5c-0.3,0.5-0.3,1.2,0,1.8c0.3,0.6,0.9,1.1,1.5,1.3
	c0.9,0.2,2-0.2,2.7-1c0.2,0.1,0.3,0.2,0.5,0.3l0.1,0.1c1.4,0.9,3,2.1,5,1.8c0.3-0.1,0.6-0.2,0.9-0.3c0.2-0.1,0.4-0.1,0.6-0.2
	c0.9-0.2,2.3,0.6,2.5,1.5c0.1,0.3,0.3,0.6,0.6,0.7c0.3,0.1,0.6,0.1,0.9,0c0.6-0.3,1.4-0.6,1.9-0.4c0.5,0.2,0.7,1,0.6,1.6
	c-0.2,0.9-1,1.7-1.6,2.3l-0.2,0.2c-0.8,0.8-1.7,1.7-2.2,2.8c-0.5,1.1-0.5,2.4-0.6,3.5c0,1.3-0.1,2.5-0.8,3.2c-0.6,0.7-1.7,0.8-2.9,1
	c-0.4,0.1-0.9,0.2-1.3,0.3c-0.4,0.1-0.9,0.3-1.3,0.6c-0.9,0.9-0.7,2.1-0.6,2.9c0,0.3,0.1,0.6,0.1,0.8c0,0.6-0.5,1.1-1,1.8
	c-0.5,0.6-1,1.2-1.3,1.9c-0.2,0.4-0.3,0.8-0.3,1.1c-0.1,0.5-0.2,0.9-0.4,1.1c-0.2,0.2-0.6,0.4-1.1,0.6c-0.7,0.3-1.4,0.6-2,1.3
	c-0.7,0.9-0.8,2.2-0.2,3.4c0.4,0.9,1.1,1.6,1.7,2.2l1.7,1.7c-0.4,0-0.7,0-1.1,0.1c-0.3-0.2-0.6-0.4-0.9-0.7l0,0l-0.4,0.5l0,0
	l0.4-0.5C166.5,145.1,165.8,144.6,165.2,144.2z M137.2,99.2c1.4,0.7,2.7,1.6,3.8,2.7c0.4,0.4,0.8,0.8,1,1.3c0.1,0.3,0.1,0.7-0.1,0.9
	c-0.1,0.1-0.3,0.2-0.5,0.3c-0.4,0.2-0.9,0.4-1.2,0.9c-0.9,1.1-0.4,2.4-0.1,3.4c0.2,0.5,0.4,1.2,0.2,1.4c0,0.1-0.1,0.1-0.2,0.2
	c-0.2,0.2-0.6,0.5-0.8,0.9c-0.2,0.5-0.3,1.4,0.6,2.4c0.7,0.8,1.5,1.5,2.3,2.1c1.1,0.9,2.2,1.8,2.8,3c0.2,0.4,0.3,0.8,0.5,1.2
	c0.4,1.1,0.8,2.3,1.9,3c1.4,1,3,0.8,4.4,0.6c0.4-0.1,0.9-0.1,1.3-0.1c1.1,0,2.1,0.2,2.8,0.8c0.7,0.6,1.1,1.5,1.1,2.3
	c0,0.5-0.3,1-0.5,1.6c-0.3,0.6-0.6,1.2-0.7,2c-0.3,1.6,0.3,3.3,1.5,4.3c0.1,0.5,0.4,0.9,0.6,1.2c0.2,0.2,0.3,0.4,0.3,0.5
	c0,0.1-0.1,0.3-0.1,0.5c-0.1,0.2-0.2,0.4-0.2,0.7c-0.5,2.1,1.2,3.9,3.1,4.5c0.2,0.1,0.4,0.1,0.7,0.2c0.5,0.1,0.9,0.3,1.2,0.5
	c0.3,0.2,0.5,0.5,0.4,0.6l0,0.1c-0.1,0.2-0.2,0.4-0.2,0.8c-0.1,1.1,0.9,1.7,1.2,1.9c0.5,0.3,0.9,0.6,1.4,1c-0.9,0.1-2.6-0.5-3.8-0.9
	c-0.4-0.1-0.8-0.3-1.2-0.4l0,0c-28.3-8.9-47.2-34.7-47.2-64.4c0-0.9,0-1.7,0.1-2.6c0.1,0,0.1,0.1,0.2,0.1c1.1,0.9,2.2,1.7,3.3,2.4
	c1.2,0.8,1.9,1.5,2,2.3c0.1,0.5,0,1-0.1,1.6c-0.1,0.8-0.2,1.7,0.1,2.6c0.8,2.6,3.9,3.2,5.6,3.6c1.8,0.4,4,0.9,5.6,2.1
	c1.6,1.2,2.6,2.9,2.5,4.6l0,0.1c0,0.5-0.1,1.3,0.5,2c0.4,0.4,1.1,0.6,1.7,0.5c0.9-0.2,1.6-1.1,1.9-1.9
	C136.7,98.9,136.9,99.1,137.2,99.2z M157.1,55.9c-0.5,0.5-1.1,0.8-1.7,0.9c0.6-0.5,1.1-0.8,1.6-0.9C157,56,157,56,157.1,55.9z
	 M75.1,93.5c-0.5-0.5-0.8-2.5,0.4-5.7c0.3-0.9,0.8-1.8,1.3-2.6c0.4,1.3,0.5,2.7,0.4,4.3c-0.3,2.6-1.2,3.9-1.8,4.1
	C75.3,93.6,75.2,93.6,75.1,93.5z M221.2,63.1c-0.1-0.4-0.4-0.7-0.5-0.8l0,0c0,0,0.1-0.2,0.2-0.3c0.2-0.2,0.5-0.3,0.9-0.5
	c0.2-0.1,0.3-0.2,0.5-0.2c1.3-0.7,1.6-1.5,1.7-2.1c0-0.1,0-0.1,0-0.2c0.5-0.2,1-0.4,1.5-0.5c0.2-0.1,0.7,0.3,0.9,0.7
	c0.1,0.2,0.2,0.3,0.4,0.5c0.3,0.5,0.7,1.1,1.4,1.6c0.6,0.5,1.5,0.7,2.3,0.5c0.6-0.1,1.1-0.5,1.4-1.1c0,0,0,0,0,0
	c0.6,0.3,1.3,0.7,1.5,1.2c0.2,0.4,0.3,0.9,0.3,1.4c0.1,0.4,0.1,0.9,0.2,1.3c0.3,1,1,1.8,1.8,2.2c0.6,0.3,1.3,0.3,1.9-0.1
	c0.5-0.2,0.7-0.8,0.5-1.3c0-0.1-0.1-0.3-0.1-0.4l1.6,2.2c0.2,0.2,0.5,0.6,1,0.8c0.4,0.1,0.8,0.1,1,0.1l0.1,0c0.5,0,1,0.4,1.2,0.9
	c0.3,0.7,0.4,1.2,0.5,2.1c0,0.3,0,0.7-0.2,1c-0.1,0.2-0.2,0.3-0.4,0.4c0,0-0.1,0.1-0.1,0.1l-1.7-1.5c-0.3-0.2-1.3-1-2.3-0.9
	c-0.5,0.1-1,0.3-1.2,0.8c-0.4,0.6-0.4,1.1-0.2,1.7c-2.4-1.6-5.2-2.6-8-2.9c1.5-1.7,1.4-4.4-0.2-6c-0.2-0.2-0.6-0.5-1.1-0.6
	c-0.7-0.1-1.2,0.3-1.5,0.5c-0.4,0.3-0.8,0.6-1.2,0.9c-1.7,1.3-3.1,2.4-5.1,2.4l-0.2,0c-0.4,0-0.9,0-1.4,0.1c0-0.1,0-0.2-0.1-0.3
	c-0.1-0.2-0.1-0.5,0.8-1.1c0.1,0,0.2-0.1,0.3-0.1c0.2-0.1,0.4-0.1,0.5-0.2C220.9,64.8,221.5,64,221.2,63.1z M241.8,61
	c-0.2,0.2-0.8,0.1-1.3,0c-0.4-0.1-0.8-0.1-1.2-0.1c-0.2,0-0.4,0-0.7,0.1c0.5-1,0.8-2.2,0.8-3.4c0.3,0.3,0.7,0.5,1,0.6
	c0.2,0.1,0.4,0.1,0.6,0.2c0.2,0.1,0.4,0.1,0.5,0.2c0.2,0.1,0.4,0.6,0.5,1.2C242.1,60.3,242,60.9,241.8,61z M226.6,42.2
	c-0.1,0.5,0,1,0.2,1.5c-0.9,0.1-1.8,0.3-2.6,0.8c0,0,0-0.1,0-0.1c0,0,0,0,0,0l0,0c1.1-0.8,1.7-2.4,1.4-3.8c-0.2-1.2-1-2.2-2.1-3.1
	c0-0.3,0.1-0.6,0.2-0.9c0.5,0.6,1.1,1.1,1.8,1.6l0.3,0.2c0.2,0.1,0.4,0.3,0.6,0.4c0.1,0.1,0.1,0.2,0.1,0.2c0,0,0,0,0,0
	c0,0-0.1,0.2-0.1,0.3c-0.1,0.2-0.3,0.5-0.4,0.9C225.7,40.9,226.2,41.7,226.6,42.2z M237.3,114.5c-0.3,0.4-0.4,0.9-0.5,1.3
	c-0.3-2.8,0.3-5.4,1.6-7.1c1.1-1.5,2.6-2.4,4.6-2.7c0.2,0,0.3-0.1,0.5-0.1c-0.7,1.8-1.5,3.7-2.4,5.4c-0.3,0.6-1,1-1.7,1.4
	c-0.3,0.2-0.6,0.3-0.8,0.5C238.2,113.6,237.7,113.9,237.3,114.5z M233.7,122.5c0,0.1-0.1,0.2-0.1,0.3c0,0.1-0.1,0.3-0.2,0.4
	c-0.8,1.5-4.7,5.4-7.1,7.7C227.5,127.3,230.3,124.1,233.7,122.5z"/>
</svg>
