<?xml version="1.0" encoding="UTF-8"?>
<svg xmlns="http://www.w3.org/2000/svg" version="1" viewBox="0 0 3260 1670">
<path d="M3650 721c-1-3-3-5-6-6-50-20-115-30-188-30h-1c-68 0-139 9-201 26-50 14-98 36-144 57-41 19-84 38-127 52-19 6-43 11-59 0-8-5-13-14-19-23-4-7-9-15-15-21-28-30-73-29-98-25-94 13-169 76-242 137l-15 12c-66 55-142 115-226 141 6-18 11-36 15-54 12-53 19-107 19-161 0-94-18-185-55-271-35-83-85-157-149-221-37-37-78-70-122-97-20-17-91-51-127-63-78-29-160-44-244-44s-133 9-197 28l-2 1c-2 1-5 2-7 3-9 4-20 9-27 18-7 9-8 21-1 31 7 11 22 17 34 14 9-2 16-8 23-13 5-3 8-6 12-8 2-1 3-1 4-1v6c1 4 4 8 8 11 5 3 12 4 18 2 2-1 5-1 7-2s4-2 5-2 c2 0 5 3 7 7 2 4 2 9 3 14 0 2 0 4 1 7 0 2 1 4 1 6-5 0-10 2-13 7l-1 2c-5 12 2 22 7 29 2 4 5 8 5 10s-2 6-4 10c-4 7-10 18-4 29 2 4 6 7 8 9 11 9 23 17 36 25 12 8 24 15 34 24 3 3 8 3 12 1s6-6 6-10 4-5 6-7c6-5 13-12 14-23 0-7-2-12-5-16-1-2-2-4-2-5l1-1c1-1 4-2 6-2 6 1 12 6 17 10 3 2 7 3 10 2 4-1 6-4 7-8l2-8c24-5 46-17 62-34 5-5 10-10 12-18 1-3 1-7 2-9v-4c0-3 1-5 2-9 2-7 5-16 3-25-2-7-6-13-10-18-1-2-3-3-4-5-2-3-2-6-2-6 3-2 4-4 5-7 0-3 0-6-2-8-4-5-9-7-13-9-2-1-4-2-5-2v-1c0-2 1-4 3-5 3-2 7-3 13-4 2 0 5-1 8-1s7-1 16 0l7 1c19 4 42 13 58 23 4 2 7 4 10 6 14 9 17 9 33 6 4-1 9-2 15-3 40 15 78 34 115 57 3 5 6 10 8 15h-5c-6 0-10 3-13 5-6 3-15 8-18 19-5 13 4 26 6 30 5 8 12 16 19 23-7 6-11 14-13 22-2 12 2 26 12 38 3 4 8 10 16 12 7 2 16 1 22-4 6 5 12 11 16 17 2 4 3 10 4 15-3 2-9 7-13 14-5 3-9 8-11 13-2 6-3 13 0 19l-14 13c2-9 1-18-2-26-5-11-14-19-23-24-8-6-17-11-26-15-2-1-4-2-8-3-5 0-10 1-14 5s-6 10-6 16c1 7 5 13 11 19 1 1 2 2 3 2l1 1-7 6c-4 3-5 8-3 12 2 7 9 24 25 26h1c-4 6-4 14-1 21v2c1 4 2 13 11 16 9 3 17 6 22 12 1 1 2 2 2 3s0 2-1 2c0 0-2 0-3-1-2-1-5-2-7-2-4 1-9 0-14 0h-8c-12 0-22 3-29 8-10 8-15 23-7 35 2 2 3 4 5 6 c-7 5-10 14-7 22 2 6 5 10 8 13 5 6 13 15 24 17 3 1 7 1 10 1s5 0 6 1c2 1 2 8 2 12s1 10 3 13c-1 0-2 0-2 1-11 2-29 6-31 23-1 7 1 14 2 20 1 2 1 4 1 6 1 5-1 8-1 9h-13c-15 1-27 12-36 22-7 7-17 18-18 33-1 9 2 17 4 24 2 6 3 11 3 15v2c0 5-1 8-2 9-8 8-9 21-2 35l1 3c2 4 5 9 4 12-1 2-4 5-7 8-5 5-12 12-13 22-1 12 7 20 11 25 21 23 43 45 67 65 3 3 11 10 21 7 6-1 10-5 13-8q1-1 2-2c1 1 3 3 8 9 5 7 15 13 24 13s11-4 14-9c4-7 2-14 1-19 0-1 0-2-1-3 1 0 1-1 2-1l38-19c9-5 12-3 12-3 1 2-2 8-3 11-3 8-6 18-2 29 1 3 3 5 6 6 3 1 6 1 8 0s5-2 8-2c-3 7-7 14-11 21-9 14-19 30-17 49 1 8 4 16 7 22 2 4 3 8 4 11 6 20-4 44-29 72l-1 1c-8 9-18 20-20 34-1 6 0 12 0 17s1 7 0 10c-1 9-6 17-12 27-7 11-15 24-15 39s1 11 3 16c1 1 1 3 2 4s1 3 2 4c3 10-7 18-14 22-108 68-232 104-361 104s-54-2-80-5c2-2 3-5 4-8 1-4 0-7-3-10l-38-37c-5-5-10-10-13-15-2-4-2-9 0-12 2-2 6-4 11-6 6-2 13-5 19-11 6-6 8-14 9-21 1-3 1-6 2-8 2-5 6-9 9-14 7-8 14-18 15-31 0-4-1-9-1-13s-1-9-1-10c0 0 1-1 4-1 4-1 8-2 12-2 14-2 29-5 40-17 13-13 13-31 14-47 0-10 1-20 4-28 3-8 10-15 17-22l2-2c9-9 18-19 22-33 4-16-2-35-19-42-9-3-18-2-25 1-10-14-29-23-46-20-3 1-6 2-8 3-2 1-4 1-6 2-11 2-23-7-34-14l-1-1c-3-2-5-4-8-5 0-2 1-4 1-6 1-4 1-9 0-14-2-5-5-9-7-12l-21-26c-12-15-23-13-29-11-4 2-6 5-8 7l-1 1c-1 1-4 2-6 1-2-1-4-2-5-4-1-2-2-4-4-5-17-11-37-20-56-29l-12-6c-7-3-15-7-24-5-4 1-7 2-10 3-2 1-3 1-4 2-5 1-11-3-18-7-6-4-13-8-20-10-17-4-32 3-46 10-7 4-15 7-22 9-3 1-7 1-11 1-11 1-25 2-34 12 4-18 6-35 6-53s0-11-3-17c-7-14-23-15-36-15s-16 0-18-4c-2-3-1-9 0-14l1-3c2-12 0-29-14-34-13-5-24 4-31 9-4 3-8 7-11 7s-2-1-5-3c-20-20-22-57-3-78 19-22 55-25 78-8 8 6 17 7 26 5 8-3 15-10 17-18 1-4 1-8 1-11v-2c0-8 5-16 11-20 3-2 7-3 10-5 8-3 18-7 24-17 6-9 6-20 6-29v-9c1-12 8-23 19-30 10-7 24-10 38-9 21 1 35-12 47-24 2 2 4 3 6 3 18 2 36-6 48-20 2-2 6-8 6-15s-3-10-7-14c-7-5-18-5-24-3-5 1-10 4-15 7-1-4-2-8-4-11l-1-3c-1-2-2-4-2-6-1-4 1-8 4-11 3-2 8-2 12 0 1 1 2 1 3 2 3 3 7 6 12 7 11 3 21-4 26-9 15-12 32-21 50-29 5 0 10-2 13-6 4-6 4-15-1-23-4-6-11-12-28-12h-4c-5 0-9 0-12-1-6-3-8-13-8-16s-1-6-1-8c-1-7-1-15-4-23-6-14-21-25-36-20-4 1-7 3-10 5-2 1-4 2-5 3-2 0-5-2-8-6-1-2-2-4-4-6-3-5-6-11-11-15-11-11-30-12-44-4 1-2 2-5 2-7 2-7 0-15-5-20-3-4-6-9-8-14 11 2 24-1 33-8 8-6 13-14 14-23 0-3-1-6-3-8-3-4-7-6-12-8 14 1 27 6 37 14 4 3 7 7 7 9 0 3-2 6-4 10-4 7-8 15-6 26 4 15 21 21 34 18 12-3 20-11 27-17l49-46c3-3 9-9 9-17s-9-18-18-21c-9-2-18-1-26 0-9 1-16 2-20-2s-4-5-6-9c-1-3-3-6-5-10-19-27-58-20-74-15v-1c-2-5-4-12-11-16-6-3-12-3-20 1-28 11-44 21-54 28-2 1-3 2-4 3-9 6-13 14-16 21-1 3-2 5-4 8-4 7-14 13-27 20-29 15-74 39-128 117-20 29-37 60-52 89-39 75-48 111-59 154-2 10-5 20-8 30v1c-7 30-12 62-15 93-60-30-142-36-217-15-37 10-70 26-97 48-11 8-21 18-29 28-5-6-11-12-17-17-26-20-63-31-107-32-48-1-103 10-166 32-198 69-393 64-632-17-3-1-6-1-8 1-3 1-5 3-5 6-2 6 1 12 7 14 116 39 220 60 318 65 112 5 219-10 327-48 60-21 113-31 158-30 40 1 72 10 94 27 7 5 12 11 17 18-9 13-16 26-21 41-14 36-14 66 0 80 7 7 16 9 25 6 6-2 27-13 32-59 2-21 0-40-7-58-1-3-2-6-4-9 28-34 69-60 120-74 72-20 154-13 209 18-1 13-1 27-1 40 0 76 12 151 36 223 23 69 58 134 101 193 43 58 95 109 154 151 60 43 126 75 196 97h1c3 1 7 2 11 3 20 6 41 13 55 8l3-1-2-6 l3 5c2-1 4-2 6-2 11 8 27 16 46 19h1c28 3 56 5 84 5 132 0 261-37 373-108 19-12 27-29 23-46-1-3-2-5-3-8 0-1-1-2-1-3-1-3-2-5-1-8 0-9 6-18 12-28 7-11 14-23 15-37v-13c0-4-1-8 0-11 1-8 8-15 15-23l1-1c31-33 42-64 34-92-1-5-4-10-5-14-2-6-5-11-5-16-1-11 5-22 13-35 8-12 17-27 17-43s-5-11-10-11h-14c0-1 1-2 1-4 3-9 8-23-3-33-6-6-17-11-37-1l-38 19c-3 2-8 4-12 10-3 6-2 12-1 16l-1-1c-5-7-17-22-32-16-5 2-8 5-10 7 0 0-1 1-1 2-1 0-2-1-3-2-23-20-45-41-65-63-2-2-6-7-6-9s3-5 6-8c5-5 11-10 13-19 3-11-2-20-6-28l-1-2c-3-5-3-9-2-10 7-7 8-16 8-23v-2c1-9-2-16-4-24-2-6-4-11-3-15 1-7 6-13 13-20 7-7 14-15 21-15h4c5 0 10 1 16-2 13-6 15-21 13-32 0-3-1-5-2-8-1-4-2-8-2-11 1-2 11-4 14-4 6-1 12-3 18-5 2-1 3-2 4-3 1-1 3-2 4-3 2-2 4-5 6-7 2-3 4-5 6-6 3-2 9-2 14-2h4c26 0 45-14 63-28 4-3 7-6 11-8 6 8 6 21-1 29-4 4-12 13-7 24 4 9 14 10 18 10 30 3 59 14 83 33 2 2 6 4 11 5 5 0 10-2 13-7 5-7 4-15 2-21 l21 19c-1 2-1 5-1 7-1 5-2 11-1 18 1 7 5 14 7 19l25 46c5 9 13 12 20 8 2-1 3-2 4-4 6-11 5-25-4-39-2-3-3-5-5-7-4-5-7-9-8-14-1-4-1-8 1-12 1-2 3-7 1-12-1-5-5-8-7-9-2-2-4-4-6-5l1-1c2-2 4-4 6-7 5-7 7-16 6-25-1-10-2-17-7-28-6-11-18-22-33-21h-2l-20-26c2 0 4 0 6 1 9 1 19 3 29-4 9-7 13-18 11-33-2-13-7-23-15-28-4-2-8-3-11-4-1 0-3-1-4-1-5-2-9-7-10-13 0-3-2-6-5-8-1-1-3-2-5-2v-1l-1 1h-4c-17 5-16 24-15 36 0 10-2 20-7 29-2 3-4 7-4 13s2 7 4 9 c-2 4-3 8-4 12-1-3-1-6-2-10-1-7-2-15-6-22-6-11-17-17-27-22s-14-3-20 1c-4 3-5 7-6 9v1c-1 0-4 0-5-1-3-2-5-6-9-11-1-2-3-4-4-6-8-11-20-17-31-15-7 1-14 4-20 7-2 1-7 3-10 8-2 3-2 7-3 9v1c0 1-2 3-6 5-1 1-3 1-4 2-4 2-9 4-14 9-8 7-12 20-5 30l-6 3c-5 3-18 12-18 26-2-5-4-10-9-13-6-4-12-4-17-4h-5c-4-1-8-5-13-10-1-1-2-3-3-4 2-1 4-2 6-4 7-7 5-18 0-24-1-2-3-3-4-5-1-1-2-2-2-2-1-1 0-5 3-6 3-2 8-4 16-4h7c4 0 9 1 14 0 8 4 17 3 23-2 8-6 11-16 9-26-1-4-3-7-7-11-8-9-19-13-28-16 c0-2-1-4-2-7 0-1 0-2-1-2 0 0 2-1 4-2 1 0 2-1 3-1 3-2 6-4 9-6 c2 1 7 3 11 3 7 0 11-5 13-7l20-18c1-1 4-4 5-8 1-5-2-9-3-11 0-1-1-2 0-4s2-3 3-3c4-1 7-4 8-8v-1c2 4 5 8 8 11 4 4 10 4 14 0 7-6 17-10 27-9 3 0 13 0 18-7 3-4 4-8 2-13-1-4-3-6-5-8-1-1-2-6-1-7 2-4 1-9-2-13-5-5-5-7-5-7 0 0 1-2 1-3 1-2 3-6 4-10 1-7-2-15-8-20-3-3-7-5-10-7l-2-1c-9-6-16-14-21-24-2-3-5-6-9-6s-7 1-10 5c-7 10-12 22-13 34 0 3-1 6 1 9 2 5 6 8 8 10 7 5 12 12 13 18v5c-1-2-2-4-3-6-6-12-16-21-25-28-9-7-17-6-22-2-2 2-3 3-4 5 c-2 0-3-2-6-5-3-4-9-13-8-22 1-5 5-11 10-11s9-3 10-7c2-4 1-9-3-12l-2-2c-9-8-19-18-26-28-4-5-5-9-4-11s6-5 9-7c1-1 3-2 4-2 0 0 2 1 6 7 2 3 4 4 7 5s6 0 9-2l8-6c1-1 4-3 6-7 1-2 1-3 1-5 175 127 278 329 278 547s-12 151-37 221c-6 1-11 2-17 3-26 4-47 16-61 36-18 25-24 62-17 101l1 4c1 4 2 9 1 12v1c0 1 0 3-1 4-29 8-56 26-77 50-21 24-34 55-37 85-1 6 3 11 9 12 9 2 17-5 21-8 12-11 75-69 87-94 2-3 2-6 3-8 0-1 1-3 1-4s1-2 2-3c18-13 28-27 30-43 1-5 0-9 0-13 0-6 0-11 1-14 1-2 4-4 7-6 2-2 5-3 7-5 9-6 19-12 25-23 11-22 21-46 30-69 38-10 76-27 117-52 47-29 91-64 131-97l15-12c70-59 143-120 231-132 20-3 58-4 79 19 5 5 9 12 13 18 6 10 14 22 25 29 24 16 54 10 77 3 45-14 88-34 130-53 45-21 92-42 140-56 128-35 283-34 378 3 5 2 12-1 14-6 6-9 6-12 5-15ZM1724 217c2 2 3 5 5 7 3 3 5 7 6 9 1 4-1 8-2 14-1 3-2 7-3 11 0 2 0 3-1 5 0 2 0 4-1 5-1 3-4 7-7 9-15 16-36 26-58 29-4 1-8 4-9 8-4-2-9-4-14-5-8-1-16 2-22 7-5 4-8 10-8 17s2 11 5 15c1 2 2 4 2 5 0 2-4 5-7 7-2 2-5 4-7 7-8-6-16-11-25-17-12-8-24-15-34-24-1-1-2-2-3-2 0-1 3-6 4-8 3-6 7-12 7-20s-3-13-7-18h1c6 2 11 1 15 0 12-3 24-9 33-17 3-2 4-6 4-9l3-2h-4c-1-4-5-7-9-7l-37-3v-4c-1-6-1-13-4-20-4-11-14-21-28-21s-9 2-13 3c-1 0-2 1-3 1v-4c-1-5-4-10-9-12-8-4-18-3-25 0s-12 7-17 11-10 8-15 9c-3 1-8-1-10-5-2-3-1-4 0-6 4-5 11-8 19-11 3-1 5-2 7-3 82-24 168-32 254-24-3 4-6 10-6 15-1 7 1 13 6 18 3 4 7 6 11 7 0 7 1 15 6 23ZM1978 499h-2c-2 0-4 1-4 1-1 0-2-1-5-5l5-5c2-1 6-5 6-11s-1-6-3-9c-1-2-3-4-4-5 3 2 5 3 8 5 6 4 13 9 15 16 2 4 2 9 1 13-6-1-12 0-17 0ZM1327 219c0 1 1 2 1 2 2 5 5 17 19 17s5 0 7-1c9-3 40-10 51 7 1 2 3 4 4 7 3 5 6 11 11 16 11 9 25 8 37 7 6-1 13-1 18 0h1l-1 1-49 46c-5 5-11 10-17 12-4 1-8-1-8-3-1-2 2-6 4-10 3-6 7-13 7-22-1-9-6-17-15-25-17-14-40-21-64-19-24 1-45 10-61 26-4 4-4 11-1 15 5 6 12 13 21 19 0 13 5 26 14 37v2c0 2-2 5-4 5-6 3-14 1-21 0l-4-1c-9-2-19-5-29-3-23 4-37 25-45 41-3 5-5 11-5 18s6 16 9 20l24 32c3 4 8 11 16 13 8 3 16 1 21 0l24-6c14-3 33-10 37-29 2-9-1-17-3-23-1-2-1-4-2-5-3-10 0-22 6-28s18-7 23-2c3 2 4 6 7 10 1 2 3 5 4 7 6 9 17 18 30 15 5-1 9-4 12-6 2-1 3-2 4-3 3-1 8 3 10 8 2 5 2 11 3 17 0 3 0 6 1 9 1 9 6 26 20 33 7 3 15 3 21 3h4c2 0 4 0 5 1-19 8-36 18-53 30-5 3-7 5-8 5s-3-2-4-3c-1-1-3-2-5-4-11-7-25-7-35 0-10 7-16 21-13 33 1 4 2 8 4 11l1 2c2 5 4 11 5 19-2 2-4 5-7 7-11 12-21 23-34 22-19-1-37 3-51 13-17 11-27 28-29 46v12c0 7 0 13-2 17-2 4-8 6-14 9-4 2-9 4-14 7-13 8-21 22-21 38v8c-1 2-2 3-3 4-2 1-4 0-6-1-15-12-35-17-56-15-20 2-39 12-52 26-12 14-19 34-18 55 1 20 9 40 23 53 4 4 9 8 17 9 12 2 21-6 27-11 2-2 8-6 9-6s2 4 1 11l-1 3c-2 8-4 20 3 30 8 13 24 13 35 13s15 0 17 3c1 2 1 5 1 7 0 19-2 38-7 56-1-22-14-44-34-58-20-14-44-21-65-25-17-3-36-8-40-21-1-5-1-10 0-17s2-15 0-23c-3-14-13-26-30-37-11-7-21-14-31-23-4-3-9-7-14-10 3-34 8-67 15-100 3-11 6-21 8-31 10-41 19-76 57-149 15-28 31-59 50-87 51-74 93-95 120-110 16-8 28-15 36-28 2-4 4-7 5-10 3-6 4-9 8-11 1-1 3-2 4-3 9-6 24-16 50-26 3 0 4 0 4 0ZM1317 301 c3-4 8-7 14-7h6c-1 1-2 2-3 3-4 4-11 5-17 4ZM1303 419c1 2 1 4 2 7 2 5 3 9 3 12-1 5-8 9-21 12l-24 6c-3 1-7 2-8 1-2-1-4-4-6-6l-24-32c-2-3-5-6-5-8s2-5 3-7c6-12 15-27 29-29h3c5 0 11 2 17 3l4 1c10 2 22 5 34 0-9 10-11 26-7 40ZM1298 291c-1-1-2-2-4-3 5-3 10-6 15-8-4 3-8 7-11 11ZM1489 1454l-1-1v-1c4-13-3-25-13-32-6-4-12-6-18-7-2-1-4-1-6-2-10-3-19-12-18-20 0-1 1-2 1-4 2-4 4-9 3-16-1-7-4-11-7-15-2-3-3-4-3-5 0-3-2-6-4-8-8-6-12-16-10-25 1-5 3-10 5-15 3-7 6-14 7-23 1-15-6-31-19-42-11-9-26-13-42-13s-10 1-15 1c-12 1-22 3-29-2-6-4-8-12-11-20-2-5-3-9-6-14-8-16-21-26-33-37-7-6-14-12-20-19-1-1-1-2-2-2h1c2-1 3-2 4-4 10-11 6-25 2-35-2-6-4-12-2-15 1-1 3-2 5-3 3-2 7-4 10-7 8-8 10-20 7-32-3-9-9-16-15-22-8-8-16-14-25-20h6c4 0 9-1 13-1 10-2 19-6 28-10 12-6 21-10 31-8 4 1 9 4 14 7 9 6 21 13 34 10 3-1 6-2 8-3 2-1 4-2 5-2 3 0 7 1 11 3l12 6c17 8 35 16 50 26 4 7 10 12 19 14 10 2 19 0 26-6 1-1 2-2 2-2 c1 1 2 2 4 4l21 26c1 2 3 4 3 5v5 c-10-2-19-1-27 3-2 1-4 3-5 5-3 5-3 12 0 18 3 6 9 11 15 13 9 2 20-2 27-10 2 1 3 2 5 3l1 1c14 9 30 21 50 18 3-1 6-2 9-3 2-1 4-1 6-2 9-2 23 6 25 15 1 3 3 6 6 7s6 1 9 0c6-3 14-6 19-4 5 2 7 10 6 16-2 9-10 17-16 23l-2 2c-8 8-17 17-22 28-5 11-5 24-6 35 0 13-1 25-8 32-6 7-17 8-29 10-4 1-9 2-13 3-4 1-9 3-13 6-9 9-7 21-6 29 0 3 1 6 1 8 0 6-5 11-10 18-5 6-10 12-13 19-2 4-3 8-3 11-1 5-2 9-4 11-2 2-6 4-11 6-7 3-14 6-20 13-7 9-8 22-2 34 4 9 11 16 17 22l17 17c-4 0-7 0-11 1-3-2-6-4-9-7 l-4 5 l4-5c-3-6-10-11-16-15ZM1209 1004c14 7 27 16 38 27 4 4 8 8 10 13 1 3 1 7-1 9-1 1-3 2-5 3-4 2-9 4-12 9-9 11-4 24-1 34 2 5 4 12 2 14 0 1-1 1-2 2-2 2-6 5-8 9-2 5-3 14 6 24 7 8 15 15 23 21 11 9 22 18 28 30 2 4 3 8 5 12 4 11 8 23 19 30 14 10 30 8 44 6 4-1 9-1 13-1 11 0 21 2 28 8 7 6 11 15 11 23s-3 10-5 16c-3 6-6 12-7 20-3 16 3 33 15 43 1 5 4 9 6 12 2 2 3 4 3 5s-1 3-1 5c-1 2-2 4-2 7-5 21 12 39 31 45 2 1 4 1 7 2 5 1 9 3 12 5 3 2 5 5 4 6v1c-1 2-2 4-2 8-1 11 9 17 12 19 5 3 9 6 14 10-9 1-26-5-38-9-4-1-8-3-12-4 c-283-89-473-347-473-645s0-17 1-26c1 0 1 1 2 1 11 9 22 17 33 24 12 8 19 15 20 23 1 5 0 10-1 16-1 8-2 17 1 26 8 26 39 32 56 36 18 4 40 9 56 21 16 12 26 29 25 46v1c0 5-1 13 5 20 4 4 11 6 17 5 9-2 16-11 19-19-2 3 0 5 3 6ZM1408 570c-5 5-11 8-17 9 6-5 11-8 16-9q0 1 1 0ZM587 947c-5-5-8-25 4-57 3-9 8-18 13-26 4 13 5 27 4 43-3 26-12 39-18 41-1 0-2 0-3-1ZM2050 642c-1-4-4-7-5-8 s1-2 2-3c2-2 5-3 9-5 2-1 3-2 5-2 13-7 16-15 17-21v-2c5-2 10-4 15-5 2-1 7 3 9 7 1 2 2 3 4 5 3 5 7 11 14 16 6 5 15 7 23 5 6-1 11-5 14-11 c6 3 13 7 15 12 2 4 3 9 3 14 1 4 1 9 2 13 3 10 10 18 18 22 6 3 13 3 19-1 5-2 7-8 5-13 0-1-1-3-1-4l16 22c2 2 5 6 10 8 4 1 8 1 10 1h1c5 0 10 4 12 9 3 7 4 12 5 21 0 3 0 7-2 10-1 2-2 3-4 4l-1 1-17-15c-3-2-13-10-23-9-5 1-10 3-12 8-4 6-4 11-2 17-24-16-52-26-80-29 15-17 14-44-2-60-2-2-6-5-11-6-7-1-12 3-15 5-4 3-8 6-12 9-17 13-31 24-51 24h-2c-4 0-9 0-14 1 0-1 0-2-1-3-1-2-1-5 8-11 1 0 2-1 3-1 2-1 4-1 5-2 8-6 14-14 11-23ZM2256 621c-2 2-8 1-13 0-4-1-8-1-12-1s-4 0-7 1c5-10 8-22 8-34 3 3 7 5 10 6 2 1 4 1 6 2 2 1 4 1 5 2 2 1 4 6 5 12 1 5 0 11-2 12ZM2104 433c-1 5 0 10 2 15-9 1-18 3-26 8v-1 c11-8 17-24 14-38-2-12-10-22-21-31 0-3 1-6 2-9 5 6 11 11 18 16l3 2c2 1 4 3 6 4 1 1 1 2 1 2 s-1 2-1 3c-1 2-3 5-4 9-3 7 2 15 6 20ZM2211 1157c-3 4-4 9-5 13-3-28 3-54 16-71 11-15 26-24 46-27 2 0 3-1 5-1-7 18-15 37-24 54-3 6-10 10-17 14-3 2-6 3-8 5-4 4-9 7-13 13ZM2175 1237c0 1-1 2-1 3s-1 3-2 4c-8 15-47 54-71 77 12-36 40-68 74-84Z" fill="#aeb5c6"/>
</svg>