<svg version="1.1" xmlns="http://www.w3.org/2000/svg" viewBox="0 0 3260 1670"><path fill="#69A6C2" d="M3241 1396c-1-2-3-3-6-3-2 0-4 1-6 2-26 23-56 41-86 51-31 11-62 13-89 7-21-5-40-15-56-29-18-16-32-38-43-64-10-23-26-40-49-48-65-25-172 20-257 62-19 10-39 22-58 34-62 38-126 78-185 39-15-10-30-24-43-39c18-14 32-31 41-48c8-15 12-34 10-53-2-21-10-39-23-50-8-7-17-12-26-13-8-1-16 0-24 5-25 14-39 57-34 84c4 23 16 48 33 72-13 8-26 16-41 22-45 18-101 30-156 33-58 3-113-3-158-18-22-7-38-16-48-28-20-22-20-48-16-66c5-23 18-46 36-64c0 0 1-1 1-1c23-23 52-39 81-55l9-5c40-23 79-47 116-72c29-20 53-48 68-81c14-32 23-60 28-96c2-11 4-27 7-42l1-6c3-15 5-30 7-40c17-116 30-210 41-299c5-38 2-72-8-97-9-23-24-38-41-41-12-2-23 2-33 12-9 10-16 24-20 43-11 50-14 92-17 132-4 42-7 81-18 123-8 29-4 46-1 62c4 19 8 35-13 72c3-8 6-14 6-16c1-3 2-5 3-8c6-17 11-34-6-51-11-11-27-15-46-12-15 2-31 10-42 18-20 16-33 41-45 64v1c-8 15-15 28-24 40-33 45-70 79-109 102-8 5-16 9-24 14-37 21-72 41-97 80-14 23-26 48-33 72c0 1-1 3-1 4-21-35-49-79-83-120c42-45 89-85 137-125c5-4 10-8 15-12c89-73 181-149 241-249c16-27 29-55 39-85c10-30 16-61 19-92c5-66-9-127-41-177-46-72-132-117-217-115-33 1-68 9-99 24-32 15-60 36-82 61-8 10-16 20-22 31-14-24-35-46-60-64-22-16-47-29-73-39-26-9-53-14-78-15h-5c-92 0-182 54-226 136-12 22-20 47-25 73-5 24-7 50-5 77c3 50 17 102 41 149c21 42 50 83 88 125c30 33 65 66 111 104c18 15 36 30 54 44l1 1c46 37 93 76 136 117c11 10 22 21 32 33-4 4-8 9-11 13-24 28-45 61-63 97-2-9-5-18-8-26-11-30-26-55-45-74-25-25-57-39-88-54-7-3-15-7-22-10-25-12-44-34-63-54l-1-1c-2-3-5-5-7-8-22-24-40-47-54-69-4-7-8-14-12-21l-1-1c-10-18-19-37-36-50-12-9-26-15-40-18-17-3-33-1-45 7-9 6-12 14-13 21c0-3 1-5 1-8c1-11 3-23 1-44-3-36-9-72-14-107v-2c-4-23-7-47-10-70-1-8-2-16-2-24-3-37-6-78-31-104-17-17-32-17-42-14-22 8-38 38-41 63-3 35 0 69 2 100c4 50 11 105 20 166c2 14 4 29 6 45c11 77 22 156 52 224c32 73 100 111 166 148c10 5 19 11 29 16c33 19 59 37 80 55c31 27 50 53 56 77c4 19 1 37-10 54-8 12-21 23-40 32-63 30-133 33-213 7-58-19-115-50-159-76c1-2 2-3 3-5c13-26 14-60 2-89-11-26-30-44-55-51-14-4-28-3-40 3-11 6-20 16-23 29-6 18-3 36 9 54c11 17 30 33 56 49l10 6c5 3 11 6 16 10-10 12-23 23-39 31-21 11-46 16-71 16-31 0-63-7-97-22-31-13-60-31-89-49l-1-1c-29-18-59-36-91-50-14-6-30-12-48-11-20 1-36 10-50 28-11 15-18 34-24 51v1c-2 5-3 9-5 13-12 30-35 49-67 56-19 4-42 5-68 1-24-4-49-11-76-22-50-20-100-51-137-85-3-3-8-3-11 1-1 2-2 4-2 6s1 4 3 6c38 35 90 67 142 87c28 11 55 19 80 23c27 4 52 4 74-1c18-4 34-12 46-22c14-11 25-26 32-44c2-5 4-9 6-15c6-16 12-33 22-47c10-14 22-21 37-22c14 0 29 5 41 10c31 13 61 31 90 49c29 18 59 36 91 50c36 15 70 23 103 23c27 0 55-6 78-18c18-9 34-22 45-37c45 26 104 59 164 78c38 12 75 18 109 18h1c41 0 79-9 116-26c22-10 37-23 47-38c13-21 17-43 12-66-11-46-59-94-144-143-9-5-19-11-28-16l-1-1c-63-36-129-72-159-141-30-66-40-145-51-220-2-15-4-30-6-45-9-61-16-115-20-166v-1c-3-30-6-64-2-96c2-19 15-44 30-50c8-3 16 0 25 9c21 22 24 60 27 95c1 8 1 17 2 25c3 24 7 48 10 71v2c6 34 11 70 14 105c2 19 0 30-1 41-1 8-2 15-1 24c1 31 12 60 34 85c10 12 24 27 38 42l6 6c8 15 16 30 24 44c15 26 32 57 51 87c1 2 3 5 5 8c9 15 21 35 36 39h1c2 0 6 1 10-1c5-3 8-8 9-14c2-15-10-39-40-77-23-30-53-63-81-94-8-15-16-30-24-45-3-6-6-11-9-17-10-18-20-37-24-57-4-17-3-24 4-29c20-13 49-4 67 10c14 11 23 28 32 44c4 9 9 16 13 24c15 23 33 46 56 71c2 3 5 5 7 8c20 22 40 44 68 58c6 3 11 5 17 8l5 2c30 14 60 28 83 50c17 17 31 40 41 68c5 14 9 29 11 45-4 9-8 19-12 29c0 1-1 3-2 5l-1 2c-8 18-14 35-8 46c2 3 6 7 15 8c6 0 11-2 16-6c13-13 12-44 12-50-1-11-2-21-4-31c19-41 44-82 71-113c3-4 6-7 10-11c36 43 65 90 89 130-4 18-5 36-4 53c0 6 2 13 5 17c4 7 10 11 18 11c9 0 16-8 18-15c7-18-1-37-11-54-3-5-5-9-8-14c1-6 3-12 5-19c7-23 18-47 31-69c23-36 56-55 91-75c8-4 16-9 24-14c40-24 78-60 113-106c10-13 18-28 25-43c12-22 24-45 41-60c9-7 22-13 34-15c10-2 23-2 31 7c10 10 8 18 2 35-1 3-2 5-3 8-2 7-17 42-37 85-8 10-17 21-27 32l-3 4c-23 27-51 60-71 88-24 33-34 54-33 67c1 5 3 9 7 12c4 3 9 4 14 3c8-2 18-10 29-25c9-12 20-28 32-48c19-32 41-74 64-124c15-18 25-31 32-42c40-58 35-82 30-106-3-14-6-29 1-54c12-43 15-83 19-126c3-40 7-81 17-130c6-28 19-45 35-42c11 2 22 13 29 31c11 29 10 65 7 90-10 88-23 182-40 298-2 11-4 27-7 43v2c-3 16-6 33-7 44-5 34-13 62-27 92-14 31-35 56-62 74-38 25-76 49-115 71l-9 5c-29 16-59 33-84 57c0 0-1 1-1 1-20 20-35 46-41 72-7 31 0 59 20 80c13 14 31 25 55 33c47 16 104 22 164 19c57-3 114-15 161-35c16-7 31-15 45-24c14 17 31 32 47 43c31 20 65 25 104 12c34-10 66-31 99-51c20-12 38-24 57-33c34-17 84-40 132-54c48-14 86-16 112-7c18 7 31 20 39 39c23 56 62 92 111 103c30 7 64 5 97-7c32-11 64-30 92-54c2-1 3-3 3-6C3243 1399 3242 1397 3241 1396zM2390 1350c-8 15-21 30-37 43-16-22-26-45-30-65-2-11 0-25 5-38c5-14 13-24 21-29c3-2 7-3 11-3c7 0 14 3 21 10c10 8 16 22 17 39C2400 1322 2397 1339 2390 1350zM1754 1282c-1-3-2-7-3-10c0-9 0-19 1-30c7 13 13 26 8 38-1 3-3 5-4 5C1756 1285 1755 1284 1754 1282zM1313 271c37-22 77-33 118-34h8c47 1 101 20 142 50c27 20 47 43 61 68-6 14-11 29-13 44-3 17-3 35 0 52c1 6 3 12 7 17c4 6 9 9 15 10c5 0 14-2 20-19c4-14 6-33 4-50-2-18-7-36-15-53c7-13 15-26 25-37c20-23 47-43 76-57c30-14 62-21 93-22c80-2 160 40 203 108c30 46 43 104 38 167-2 29-8 59-18 88-9 29-22 56-38 82-58 97-149 172-237 245-5 4-10 8-15 12-46 38-95 79-137 125-10-11-21-22-32-33-45-42-94-82-138-118-18-14-36-29-54-44-46-38-81-71-110-103-37-40-65-80-85-121-23-45-36-95-39-143-1-25 0-49 5-73c5-24 13-47 24-68C1243 326 1274 294 1313 271zM1655 455c-1 5-3 7-3 7-2-1-5-6-6-13-3-16-3-32 0-47c1-9 3-17 6-26c4 11 6 23 7 34C1660 426 1658 443 1655 455zM1551 1285c-1 1-2 2-4 2h-2c0 0-1-3 1-12c2-7 5-14 8-20c1-3 2-6 3-8c0 0 0-1 1-1v1C1559 1258 1557 1279 1551 1285zM971 1359c-1 1-1 3-2 4-8-5-17-10-25-15l-2-1c-47-28-66-57-58-85c3-9 8-15 16-19c5-2 10-4 16-4c4 0 8 1 12 2c20 6 36 21 44 42C983 1309 982 1337 971 1359zM1240 1034c14 16 25 29 34 41c34 43 37 59 37 65v1c-8-3-19-21-25-31-2-3-4-6-5-8C1266 1079 1253 1056 1240 1034zM2085 1015c-12 24-24 45-34 63-33 56-47 65-52 66h-1v-1c-1-5 3-18 30-56C2044 1064 2065 1039 2085 1015zM1134 856c5 22 16 42 26 61l2 3c0 1 1 2 1 3-1-1-1-1-2-2-19-23-30-48-30-75v-10C1131 843 1132 851 1134 856z"/></svg>