<svg width="40" height="40" viewBox="0 0 40 40" fill="none" xmlns="http://www.w3.org/2000/svg">
<circle cx="20" cy="20" r="20" fill="#0473BD"/>
<path d="M20 9.99991C14.4852 9.99991 10 14.4852 10 19.9999C10 25.5147 14.4852 29.9999 20 29.9999C25.5147 29.9999 30 25.5147 30 19.9999C30 14.4852 25.5147 9.99991 20 9.99991ZM16.247 12.4423C15.787 13.1444 15.3974 13.9774 15.0898 14.912C14.5673 14.787 14.0751 14.6425 13.622 14.4774C14.3496 13.6376 15.2421 12.9452 16.247 12.4423ZM12.6953 24.2245C11.9726 22.9794 11.5527 21.54 11.5527 20C11.5527 18.4629 11.9726 17.0225 12.6923 15.7803C13.2919 16.0254 13.9618 16.2354 14.6845 16.4102C14.4472 17.5205 14.3144 18.7275 14.3144 19.9999C14.3144 21.2753 14.4492 22.4823 14.6865 23.5927C13.9648 23.7675 13.2949 23.9804 12.6953 24.2245L12.6953 24.2245ZM13.6249 25.5253C14.0752 25.3603 14.5673 25.2157 15.0898 25.0907C15.3974 26.0234 15.7871 26.8554 16.247 27.5585C15.2421 27.0575 14.3525 26.3652 13.625 25.5253H13.6249ZM19.2245 28.2871C18.1649 27.8544 17.2372 26.5644 16.6267 24.7968C17.4539 24.6718 18.3269 24.5947 19.2245 24.5644V28.2871ZM19.2245 23.0126C18.1815 23.0448 17.1668 23.1405 16.2097 23.2928C15.9919 22.2753 15.8699 21.163 15.8699 20.0028C15.8699 18.8427 15.9919 17.7304 16.2097 16.7158C17.1696 16.8682 18.1843 16.9629 19.2272 16.9961V23.0126L19.2245 23.0126ZM19.2245 15.4403C18.324 15.41 17.452 15.3329 16.625 15.2079C17.2353 13.4384 18.1621 12.1454 19.2245 11.7129V15.4403ZM26.3797 14.4804C25.9275 14.6454 25.4344 14.7899 24.9119 14.9149C24.6043 13.9804 24.2117 13.1474 23.7547 12.4452C24.7576 12.9452 25.6502 13.6376 26.3797 14.4804ZM20.7772 11.7129C21.8368 12.1455 22.7674 13.4375 23.3767 15.2079C22.5496 15.3299 21.6765 15.41 20.7772 15.4403V11.7129ZM20.7772 16.9901C21.8202 16.9579 22.8348 16.8622 23.792 16.7098C24.0097 17.7274 24.1318 18.8397 24.1318 19.9968C24.1318 21.157 24.0097 22.2693 23.792 23.2868C22.832 23.1345 21.8193 23.0398 20.7772 23.0066V16.9901ZM20.7772 28.2871V24.5626C21.6776 24.5929 22.5497 24.67 23.375 24.795C22.7646 26.5626 21.8378 27.8555 20.7772 28.2873V28.2871ZM23.7527 27.5576C24.2097 26.8555 24.6023 26.0225 24.9099 25.0898C25.4324 25.2148 25.9246 25.3594 26.3748 25.5244C25.6472 26.3652 24.7576 27.0576 23.7528 27.5576H23.7527ZM28.447 20.0001C28.447 21.5402 28.027 22.9806 27.3044 24.2229C26.7048 23.9777 26.0368 23.7678 25.3122 23.593C25.5495 22.4807 25.6842 21.2756 25.6842 20.0002C25.6842 18.7278 25.5495 17.5227 25.3141 16.4105C26.0387 16.2357 26.7067 16.0257 27.3092 15.7806C28.027 17.0257 28.447 18.4631 28.447 20.0004V20.0001Z" fill="white"/>
</svg>
